G04 Layer_Color=8421504*
%FSAX24Y24*%
%MOIN*%
G70*
G01*
G75*
%ADD10R,0.0630X0.0551*%
%ADD11R,0.0315X0.0315*%
%ADD12R,0.1181X0.2362*%
%ADD13R,0.0591X0.0236*%
%ADD14R,0.0591X0.0315*%
%ADD15R,0.0472X0.0551*%
%ADD16O,0.0748X0.0236*%
%ADD17O,0.0689X0.0217*%
%ADD18O,0.0217X0.0689*%
%ADD19R,0.0551X0.0453*%
%ADD20R,0.0453X0.0532*%
%ADD21R,0.1102X0.0945*%
%ADD22R,0.0512X0.0669*%
%ADD23R,0.0453X0.0551*%
%ADD24R,0.2165X0.0787*%
%ADD25R,0.0551X0.0472*%
%ADD26R,0.0559X0.0445*%
%ADD27R,0.0445X0.0559*%
%ADD28R,0.0354X0.0394*%
%ADD29R,0.1260X0.0591*%
%ADD30C,0.0400*%
D10*
X011100Y028972D02*
D03*
X014250D02*
D03*
Y027200D02*
D03*
X011100D02*
D03*
D11*
X026890Y044040D02*
D03*
Y043449D02*
D03*
X025000Y044050D02*
D03*
Y043459D02*
D03*
D12*
X035422Y040730D02*
D03*
X030698D02*
D03*
D13*
X029902Y029572D02*
D03*
X028800Y029769D02*
D03*
X029902Y029966D02*
D03*
X028800Y030163D02*
D03*
X029902Y030359D02*
D03*
X028800Y030556D02*
D03*
X038652Y029572D02*
D03*
X037550Y029769D02*
D03*
X038652Y029966D02*
D03*
X037550Y030163D02*
D03*
X038652Y030359D02*
D03*
X037550Y030556D02*
D03*
X033300D02*
D03*
X034402Y030359D02*
D03*
X033300Y030163D02*
D03*
X034402Y029966D02*
D03*
X033300Y029769D02*
D03*
X034402Y029572D02*
D03*
X024300Y030556D02*
D03*
X025402Y030359D02*
D03*
X024300Y030163D02*
D03*
X025402Y029966D02*
D03*
X024300Y029769D02*
D03*
X025402Y029572D02*
D03*
X021152D02*
D03*
X020050Y029769D02*
D03*
X021152Y029966D02*
D03*
X020050Y030163D02*
D03*
X021152Y030359D02*
D03*
X020050Y030556D02*
D03*
X026400Y035778D02*
D03*
X027502Y035581D02*
D03*
X026400Y035384D02*
D03*
X027502Y035187D02*
D03*
X026400Y034991D02*
D03*
X027502Y034794D02*
D03*
X023200Y034850D02*
D03*
X022098Y035047D02*
D03*
X023200Y035244D02*
D03*
X022098Y035441D02*
D03*
X023200Y035637D02*
D03*
X022098Y035834D02*
D03*
D14*
X028800Y029178D02*
D03*
X029902D02*
D03*
Y030950D02*
D03*
X028800D02*
D03*
X037550Y029178D02*
D03*
X038652D02*
D03*
Y030950D02*
D03*
X037550D02*
D03*
X033300D02*
D03*
X034402D02*
D03*
Y029178D02*
D03*
X033300D02*
D03*
X024300Y030950D02*
D03*
X025402D02*
D03*
Y029178D02*
D03*
X024300D02*
D03*
X020050D02*
D03*
X021152D02*
D03*
Y030950D02*
D03*
X020050D02*
D03*
X027502Y036172D02*
D03*
X026400D02*
D03*
Y034400D02*
D03*
X027502D02*
D03*
X023200Y034456D02*
D03*
X022098D02*
D03*
Y036228D02*
D03*
X023200D02*
D03*
D15*
X028619Y025100D02*
D03*
X027950D02*
D03*
X016135Y026800D02*
D03*
X015465D02*
D03*
X016135Y025700D02*
D03*
X015465D02*
D03*
X025700Y012400D02*
D03*
X026369D02*
D03*
X031035Y012450D02*
D03*
X030365D02*
D03*
X036465Y025150D02*
D03*
X037135D02*
D03*
X024465Y015350D02*
D03*
X025135D02*
D03*
X017569Y016250D02*
D03*
X016900D02*
D03*
X016915Y017350D02*
D03*
X017585D02*
D03*
X024900Y025100D02*
D03*
X025569D02*
D03*
X023431D02*
D03*
X024100D02*
D03*
D16*
X037020Y018300D02*
D03*
Y018800D02*
D03*
X033280D02*
D03*
Y018300D02*
D03*
Y023800D02*
D03*
Y023300D02*
D03*
Y022800D02*
D03*
Y022300D02*
D03*
Y021800D02*
D03*
Y021300D02*
D03*
Y020800D02*
D03*
Y020300D02*
D03*
Y019800D02*
D03*
Y019300D02*
D03*
X037020Y023800D02*
D03*
Y023300D02*
D03*
Y022800D02*
D03*
Y022300D02*
D03*
Y021800D02*
D03*
Y021300D02*
D03*
Y020800D02*
D03*
Y020300D02*
D03*
Y019800D02*
D03*
Y019300D02*
D03*
D17*
X024226Y022125D02*
D03*
Y021810D02*
D03*
Y021495D02*
D03*
Y021180D02*
D03*
Y020865D02*
D03*
Y020550D02*
D03*
Y020235D02*
D03*
Y019920D02*
D03*
Y019605D02*
D03*
Y019290D02*
D03*
Y018975D02*
D03*
X028674D02*
D03*
Y019290D02*
D03*
Y019605D02*
D03*
Y019920D02*
D03*
Y020235D02*
D03*
Y020550D02*
D03*
Y020865D02*
D03*
Y021180D02*
D03*
Y021495D02*
D03*
Y021810D02*
D03*
Y022125D02*
D03*
D18*
X024875Y018326D02*
D03*
X025190D02*
D03*
X025505D02*
D03*
X025820D02*
D03*
X026135D02*
D03*
X026450D02*
D03*
X026765D02*
D03*
X027080D02*
D03*
X027395D02*
D03*
X027710D02*
D03*
X028025D02*
D03*
Y022774D02*
D03*
X027710D02*
D03*
X027395D02*
D03*
X027080D02*
D03*
X026765D02*
D03*
X026450D02*
D03*
X026135D02*
D03*
X025820D02*
D03*
X025505D02*
D03*
X025190D02*
D03*
X024875D02*
D03*
D19*
X026900Y040556D02*
D03*
Y041244D02*
D03*
X025000Y040561D02*
D03*
Y041250D02*
D03*
X022500Y043944D02*
D03*
Y043256D02*
D03*
X016500D02*
D03*
Y043944D02*
D03*
X018500Y043256D02*
D03*
Y043944D02*
D03*
X014250Y043256D02*
D03*
Y043944D02*
D03*
X038450Y020494D02*
D03*
Y019806D02*
D03*
X020400Y043256D02*
D03*
Y043944D02*
D03*
D20*
X015844Y022500D02*
D03*
Y023550D02*
D03*
X015156Y022500D02*
D03*
Y023550D02*
D03*
D21*
X011968Y035472D02*
D03*
X014370D02*
D03*
X011968Y030984D02*
D03*
X014370D02*
D03*
D22*
X016351Y028000D02*
D03*
X015249D02*
D03*
D23*
X016144Y029150D02*
D03*
X015456D02*
D03*
X016956Y034600D02*
D03*
X017644D02*
D03*
X017006Y032750D02*
D03*
X017694D02*
D03*
D24*
X026550Y014200D02*
D03*
X030290D02*
D03*
D25*
X021400Y019815D02*
D03*
Y020485D02*
D03*
X030300Y018100D02*
D03*
Y017431D02*
D03*
X021500Y022850D02*
D03*
Y022181D02*
D03*
D26*
X021400Y018950D02*
D03*
Y018253D02*
D03*
X012900Y018252D02*
D03*
Y018948D02*
D03*
D27*
X017598Y018450D02*
D03*
X016902D02*
D03*
D28*
X015144Y024550D02*
D03*
X015656D02*
D03*
X015656Y021500D02*
D03*
X015144D02*
D03*
D29*
X015450Y018450D02*
D03*
Y020104D02*
D03*
D30*
X035700Y011500D02*
D03*
X011500Y014300D02*
D03*
Y040800D02*
D03*
M02*
