M48
;Layer_Color=9474304
;FILE_FORMAT=2:4
INCH
;TYPE=PLATED
T1F00S00C0.0180
T2F00S00C0.0280
T3F00S00C0.0362
T4F00S00C0.0433
T5F00S00C0.0512
T6F00S00C0.0906
T7F00S00C0.1440
;TYPE=NON_PLATED
T8F00S00C0.0630
T9F00S00C0.0709
%
T01
X018250Y012950
X017800Y013900
X032600Y014450
X033250Y015150
Y015950
X033050Y017500
X032430Y018830
X032350Y019800
Y020800
X032450Y021750
X031700Y022100
X031750Y021300
Y020250
X031350Y018650
X032050Y022700
X032475Y023225
X032550Y026000
X031700Y026050
X033100Y026500
X035150Y026150
X035850Y026500
X036950Y026650
X038900Y026050
X038000Y025150
X035900Y024950
X034850Y025300
X034300Y024750
X035950Y030150
X031200Y030350
X030450Y025250
X029900Y024850
X029300Y024250
X028600Y026650
X027850Y026800
X027600Y027500
X026700Y028400
X026350Y029300
X025550Y026950
X024550Y024300
X023750Y023850
X022400Y025900
X021100Y026700
X020500Y026750
X019900
X018150Y025400
X018550Y024500
X018000Y022500
X019550
X020400Y022100
X019700Y020050
X018500Y019250
X022350Y019150
X022450Y019950
X023200Y016200
X029050Y017450
X029800Y019400
X030650Y019500
X030700Y020200
X029850Y021100
X022350Y028650
X022250Y030100
X014500Y025050
X013850Y016750
X013200Y017300
X014650Y016200
X016950Y031800
X020150Y032550
X020450Y034800
X017950Y036200
X016950Y036550
X017450Y040850
X024300Y037550
X025750Y038950
X025500Y035500
X025550Y032559
X030559Y032541
X037500Y040750
T02
X015350Y040800
X019350Y040900
X023650Y041500
X026200Y041600
X026300Y040000
T03
X012567Y021969
X013354
Y022953
X012567
T04
X013350Y043150
X014350
X015350
X016350
X017350
X018350
X019350
X020350
X021350
X022350
T05
X014800Y011300
Y012300
X015800
Y011300
X016800
Y012300
T06
X011500Y020091
Y024831
T07
X011500Y011500
X038500
X011500Y043500
X037500
T08
X011968Y033228
T09
X013740Y033228
M30
