G04 Layer_Physical_Order=2*
G04 Layer_Color=16711680*
%FSAX24Y24*%
%MOIN*%
G70*
G01*
G75*
%ADD31C,0.0120*%
%ADD33R,0.2000X0.2000*%
%ADD34R,0.1750X0.1750*%
%ADD35R,0.0850X0.0850*%
%ADD36C,0.0850*%
%ADD37R,0.0750X0.0750*%
%ADD38C,0.0750*%
%ADD39C,0.1410*%
%ADD40C,0.0662*%
%ADD41C,0.0350*%
G36*
X039400Y044241D02*
Y026215D01*
X039250Y026185D01*
X039228Y026239D01*
X039167Y026317D01*
X039089Y026378D01*
X039000Y026414D01*
Y026050D01*
Y025686D01*
X039089Y025722D01*
X039167Y025783D01*
X039228Y025861D01*
X039250Y025915D01*
X039400Y025885D01*
Y012700D01*
X038600D01*
Y011500D01*
X038500D01*
Y011400D01*
X037300D01*
Y010600D01*
X017134D01*
X017097Y010750D01*
X017149Y010778D01*
X017244Y010856D01*
X017322Y010951D01*
X017369Y011038D01*
X033450D01*
X033450Y011038D01*
X033518Y011047D01*
X033581Y011073D01*
X033635Y011115D01*
X034635Y012115D01*
X034635Y012115D01*
X034677Y012169D01*
X034703Y012232D01*
X034712Y012300D01*
X034712Y012300D01*
Y015991D01*
X038185Y019465D01*
X038185Y019465D01*
X038227Y019519D01*
X038253Y019582D01*
X038262Y019650D01*
X038262Y019650D01*
Y024879D01*
X038267Y024883D01*
X038328Y024961D01*
X038365Y025052D01*
X038378Y025150D01*
X038365Y025248D01*
X038328Y025339D01*
X038267Y025417D01*
X038189Y025478D01*
X038098Y025515D01*
X038000Y025528D01*
X037914Y025517D01*
X037228Y026203D01*
X037217Y026383D01*
X037278Y026461D01*
X037315Y026552D01*
X037328Y026650D01*
X037315Y026748D01*
X037278Y026839D01*
X037217Y026917D01*
X037139Y026978D01*
X037048Y027015D01*
X036950Y027028D01*
X036943Y027027D01*
X036562Y027409D01*
Y038041D01*
X037685Y039165D01*
X037685Y039165D01*
X037727Y039219D01*
X037753Y039282D01*
X037762Y039350D01*
Y040479D01*
X037767Y040483D01*
X037828Y040561D01*
X037865Y040652D01*
X037878Y040750D01*
X037865Y040848D01*
X037828Y040939D01*
X037767Y041017D01*
X037689Y041078D01*
X037598Y041115D01*
X037500Y041128D01*
X037402Y041115D01*
X037311Y041078D01*
X037233Y041017D01*
X037172Y040939D01*
X037135Y040848D01*
X037122Y040750D01*
X037135Y040652D01*
X037172Y040561D01*
X037233Y040483D01*
X037238Y040479D01*
Y039459D01*
X036115Y038335D01*
X036073Y038281D01*
X036047Y038218D01*
X036038Y038150D01*
X036038Y038150D01*
Y030605D01*
X035950Y030528D01*
X035852Y030515D01*
X035761Y030478D01*
X035683Y030417D01*
X035622Y030339D01*
X035586Y030250D01*
X035950D01*
Y030050D01*
X035586D01*
X035622Y029961D01*
X035683Y029883D01*
X035761Y029822D01*
X035852Y029785D01*
X035950Y029772D01*
X036038Y029695D01*
Y027589D01*
X035899Y027532D01*
X033510Y029920D01*
X033456Y029962D01*
X033393Y029988D01*
X033325Y029997D01*
X033325Y029997D01*
X033114D01*
X030832Y032279D01*
X030887Y032351D01*
X030925Y032443D01*
X030938Y032541D01*
X030925Y032638D01*
X030887Y032730D01*
X030827Y032808D01*
X030749Y032868D01*
X030657Y032906D01*
X030559Y032919D01*
X030462Y032906D01*
X030370Y032868D01*
X030310Y032822D01*
X025821D01*
X025817Y032827D01*
X025739Y032887D01*
X025648Y032925D01*
X025550Y032938D01*
X025452Y032925D01*
X025361Y032887D01*
X025283Y032827D01*
X025271Y032812D01*
X020421D01*
X020417Y032817D01*
X020339Y032878D01*
X020248Y032915D01*
X020150Y032928D01*
X020052Y032915D01*
X019961Y032878D01*
X019883Y032817D01*
X019879Y032812D01*
X019609D01*
X019517Y032904D01*
Y033496D01*
X019935Y033915D01*
X019935Y033915D01*
X020443Y034423D01*
X020450Y034422D01*
X020548Y034435D01*
X020639Y034472D01*
X020717Y034533D01*
X020778Y034611D01*
X020815Y034702D01*
X020828Y034800D01*
X020815Y034898D01*
X020778Y034989D01*
X020717Y035067D01*
X020639Y035128D01*
X020548Y035165D01*
X020450Y035178D01*
X020352Y035165D01*
X020261Y035128D01*
X020183Y035067D01*
X020122Y034989D01*
X020085Y034898D01*
X020072Y034800D01*
X020073Y034793D01*
X019641Y034362D01*
X018619D01*
X018212Y034769D01*
Y035929D01*
X018217Y035933D01*
X018278Y036011D01*
X018315Y036102D01*
X018328Y036200D01*
X018315Y036298D01*
X018278Y036389D01*
X018217Y036467D01*
X018139Y036528D01*
X018048Y036565D01*
X017950Y036578D01*
X017852Y036565D01*
X017761Y036528D01*
X017683Y036467D01*
X017622Y036389D01*
X017585Y036298D01*
X017572Y036200D01*
X017585Y036102D01*
X017622Y036011D01*
X017683Y035933D01*
X017688Y035929D01*
Y034660D01*
X017688Y034660D01*
X017697Y034592D01*
X017723Y034529D01*
X017765Y034475D01*
X018325Y033915D01*
X018325Y033915D01*
X018379Y033873D01*
X018442Y033847D01*
X018510Y033838D01*
X018510Y033838D01*
X018917D01*
X018947Y033810D01*
X019008Y033688D01*
X019002Y033673D01*
X018993Y033605D01*
X018993Y033605D01*
Y032795D01*
X018993Y032795D01*
X019002Y032727D01*
X019028Y032664D01*
X019070Y032610D01*
X019315Y032365D01*
X019315Y032365D01*
X019369Y032323D01*
X019432Y032297D01*
X019500Y032288D01*
X019879D01*
X019883Y032283D01*
X019961Y032222D01*
X020052Y032185D01*
X020150Y032172D01*
X020248Y032185D01*
X020339Y032222D01*
X020417Y032283D01*
X020421Y032288D01*
X025288D01*
X025361Y032232D01*
X025452Y032194D01*
X025550Y032181D01*
X025648Y032194D01*
X025739Y032232D01*
X025817Y032292D01*
X025821Y032297D01*
X030205D01*
X030297Y032181D01*
X030306Y032113D01*
X030332Y032049D01*
X030374Y031995D01*
X032223Y030146D01*
X032177Y029988D01*
X032114Y029962D01*
X032060Y029920D01*
X032060Y029920D01*
X028707Y026567D01*
X028700Y026568D01*
X028602Y026555D01*
X028511Y026518D01*
X028433Y026457D01*
X028372Y026379D01*
X028335Y026288D01*
X028322Y026190D01*
X028335Y026092D01*
X028372Y026001D01*
X028433Y025923D01*
X028511Y025862D01*
X028602Y025825D01*
X028700Y025812D01*
X028798Y025825D01*
X028889Y025862D01*
X028967Y025923D01*
X029028Y026001D01*
X029065Y026092D01*
X029078Y026190D01*
X029077Y026197D01*
X032354Y029473D01*
X033216D01*
X037634Y025055D01*
X037635Y025052D01*
X037672Y024961D01*
X037733Y024883D01*
X037738Y024879D01*
Y019759D01*
X034450Y016471D01*
X033395Y017525D01*
X033341Y017567D01*
X033308Y017581D01*
X033287Y017607D01*
X033209Y017668D01*
X033118Y017705D01*
X033020Y017718D01*
X032922Y017705D01*
X032831Y017668D01*
X032692Y017750D01*
Y018559D01*
X032697Y018563D01*
X032758Y018641D01*
X032795Y018732D01*
X032808Y018830D01*
X032795Y018928D01*
X032758Y019019D01*
X032697Y019097D01*
X032619Y019158D01*
X032528Y019195D01*
X032430Y019208D01*
X032412Y019206D01*
X032352Y019250D01*
X032347Y019286D01*
X032448Y019435D01*
X032539Y019472D01*
X032617Y019533D01*
X032678Y019611D01*
X032715Y019702D01*
X032728Y019800D01*
X032715Y019898D01*
X032678Y019989D01*
X032617Y020067D01*
X032539Y020128D01*
X032448Y020165D01*
X032350Y020178D01*
X032282Y020169D01*
X032168Y020269D01*
X032173Y020310D01*
X032252Y020435D01*
X032350Y020422D01*
X032448Y020435D01*
X032539Y020472D01*
X032617Y020533D01*
X032678Y020611D01*
X032715Y020702D01*
X032728Y020800D01*
X032715Y020898D01*
X032678Y020989D01*
X032617Y021067D01*
X032539Y021128D01*
X032448Y021165D01*
X032350Y021178D01*
X032337Y021177D01*
X032214Y021290D01*
X032350Y021383D01*
X032361Y021384D01*
X032450Y021372D01*
X032548Y021385D01*
X032639Y021422D01*
X032717Y021483D01*
X032778Y021561D01*
X032815Y021652D01*
X032828Y021750D01*
X032815Y021848D01*
X032778Y021939D01*
X032717Y022017D01*
X032639Y022078D01*
X032548Y022115D01*
X032450Y022128D01*
X032352Y022115D01*
X032299Y022093D01*
X032229Y022129D01*
X032207Y022148D01*
X032170Y022197D01*
X032178Y022260D01*
X032167Y022343D01*
X032239Y022372D01*
X032317Y022433D01*
X032378Y022511D01*
X032415Y022602D01*
X032428Y022700D01*
X032428Y022702D01*
X032466Y022820D01*
X032553Y022857D01*
X032573Y022860D01*
X032664Y022897D01*
X032742Y022958D01*
X032803Y023036D01*
X032840Y023127D01*
X032853Y023225D01*
X032840Y023323D01*
X032803Y023414D01*
X032742Y023492D01*
X032664Y023553D01*
X032573Y023590D01*
X032475Y023603D01*
X032468Y023602D01*
X030827Y025243D01*
X030828Y025250D01*
X030815Y025348D01*
X030778Y025439D01*
X030717Y025517D01*
X030639Y025578D01*
X030548Y025615D01*
X030450Y025628D01*
X030352Y025615D01*
X030261Y025578D01*
X030183Y025517D01*
X030122Y025439D01*
X030085Y025348D01*
X030084Y025342D01*
X030015Y025240D01*
X029924Y025225D01*
X029900Y025228D01*
X029802Y025215D01*
X029711Y025178D01*
X029633Y025117D01*
X029572Y025039D01*
X029535Y024948D01*
X029522Y024850D01*
X029523Y024840D01*
X029524Y024745D01*
X029407Y024668D01*
X029394Y024662D01*
X029342Y024623D01*
X029300Y024628D01*
X029202Y024615D01*
X029111Y024578D01*
X029033Y024517D01*
X028972Y024439D01*
X028935Y024348D01*
X028922Y024250D01*
X028935Y024152D01*
X028972Y024061D01*
X029033Y023983D01*
X029111Y023922D01*
X029202Y023885D01*
X029300Y023872D01*
X029398Y023885D01*
X029489Y023922D01*
X029567Y023983D01*
X029604Y023985D01*
X030677Y022912D01*
X030615Y022762D01*
X027509D01*
X026612Y023659D01*
Y027905D01*
X026762Y027967D01*
X027223Y027507D01*
X027222Y027500D01*
X027235Y027402D01*
X027272Y027311D01*
X027333Y027233D01*
X027411Y027172D01*
X027459Y027153D01*
X027519Y027017D01*
X027522Y026993D01*
X027519Y026981D01*
X027486Y026900D01*
X028214D01*
X028178Y026989D01*
X028117Y027067D01*
X028039Y027128D01*
X027991Y027147D01*
X027931Y027283D01*
X027928Y027307D01*
X027931Y027319D01*
X027965Y027402D01*
X027978Y027500D01*
X027965Y027598D01*
X027928Y027689D01*
X027867Y027767D01*
X027789Y027828D01*
X027698Y027865D01*
X027600Y027878D01*
X027593Y027877D01*
X027077Y028393D01*
X027078Y028400D01*
X027065Y028498D01*
X027028Y028589D01*
X026967Y028667D01*
X026889Y028728D01*
X026798Y028765D01*
X026700Y028778D01*
X026612Y028855D01*
Y029029D01*
X026617Y029033D01*
X026678Y029111D01*
X026715Y029202D01*
X026728Y029300D01*
X026715Y029398D01*
X026678Y029489D01*
X026617Y029567D01*
X026539Y029628D01*
X026448Y029665D01*
X026350Y029678D01*
X026252Y029665D01*
X026161Y029628D01*
X026083Y029567D01*
X026022Y029489D01*
X025985Y029398D01*
X025972Y029300D01*
X025985Y029202D01*
X026022Y029111D01*
X026083Y029033D01*
X026088Y029029D01*
Y023550D01*
X026088Y023550D01*
X026097Y023482D01*
X026123Y023419D01*
X026165Y023365D01*
X026878Y022651D01*
X026821Y022512D01*
X024959D01*
X024033Y023438D01*
X024095Y023588D01*
X024100D01*
X024100Y023588D01*
X024168Y023597D01*
X024231Y023623D01*
X024285Y023665D01*
X024543Y023923D01*
X024550Y023922D01*
X024648Y023935D01*
X024739Y023972D01*
X024817Y024033D01*
X024878Y024111D01*
X024914Y024200D01*
X024550D01*
Y024300D01*
X024450D01*
Y024664D01*
X024361Y024628D01*
X024283Y024567D01*
X024222Y024489D01*
X024185Y024398D01*
X024172Y024300D01*
X024173Y024293D01*
X024006Y024127D01*
X023939Y024178D01*
X023850Y024214D01*
Y023850D01*
X023650D01*
Y024214D01*
X023561Y024178D01*
X023483Y024117D01*
X023361Y024110D01*
X021362Y026109D01*
Y026429D01*
X021367Y026433D01*
X021428Y026511D01*
X021465Y026602D01*
X021478Y026700D01*
X021465Y026798D01*
X021428Y026889D01*
X021367Y026967D01*
X021289Y027028D01*
X021198Y027065D01*
X021100Y027078D01*
X021002Y027065D01*
X020911Y027028D01*
X020833Y026967D01*
X020806D01*
X020767Y027017D01*
X020689Y027078D01*
X020598Y027115D01*
X020500Y027128D01*
X020402Y027115D01*
X020311Y027078D01*
X020233Y027017D01*
X020167D01*
X020089Y027078D01*
X019998Y027115D01*
X019900Y027128D01*
X019802Y027115D01*
X019711Y027078D01*
X019633Y027017D01*
X019572Y026939D01*
X019549Y026884D01*
X019442Y026842D01*
X019382Y026839D01*
X017612Y028609D01*
Y032250D01*
X017603Y032318D01*
X017577Y032381D01*
X017535Y032435D01*
X017535Y032435D01*
X017212Y032759D01*
Y036279D01*
X017217Y036283D01*
X017278Y036361D01*
X017315Y036452D01*
X017328Y036550D01*
X017315Y036648D01*
X017278Y036739D01*
X017217Y036817D01*
X017139Y036878D01*
X017048Y036915D01*
X016950Y036928D01*
X016852Y036915D01*
X016818Y036901D01*
X016671Y036984D01*
X016659Y037088D01*
X017235Y037665D01*
X017235Y037665D01*
X017277Y037719D01*
X017303Y037782D01*
X017312Y037850D01*
Y039241D01*
X017635Y039565D01*
X017635Y039565D01*
X017677Y039619D01*
X017703Y039682D01*
X017712Y039750D01*
Y040579D01*
X017717Y040583D01*
X017778Y040661D01*
X017815Y040752D01*
X017828Y040850D01*
X017815Y040948D01*
X017778Y041039D01*
X017717Y041117D01*
X017639Y041178D01*
X017548Y041215D01*
X017450Y041228D01*
X017352Y041215D01*
X017261Y041178D01*
X017183Y041117D01*
X017122Y041039D01*
X017085Y040948D01*
X017072Y040850D01*
X017085Y040752D01*
X017122Y040661D01*
X017183Y040583D01*
X017188Y040579D01*
Y039859D01*
X016865Y039535D01*
X016823Y039481D01*
X016797Y039418D01*
X016788Y039350D01*
X016788Y039350D01*
Y037959D01*
X016312Y037483D01*
X016162Y037545D01*
Y037950D01*
X016162Y037950D01*
X016153Y038018D01*
X016127Y038081D01*
X016085Y038135D01*
X016085Y038135D01*
X015112Y039109D01*
Y040330D01*
X015249Y040432D01*
X015262Y040433D01*
X015350Y040422D01*
X015448Y040435D01*
X015539Y040472D01*
X015617Y040533D01*
X015678Y040611D01*
X015715Y040702D01*
X015728Y040800D01*
X015727Y040807D01*
X016709Y041788D01*
X019671D01*
X019728Y041649D01*
X019357Y041277D01*
X019350Y041278D01*
X019252Y041265D01*
X019161Y041228D01*
X019083Y041167D01*
X019022Y041089D01*
X018985Y040998D01*
X018972Y040900D01*
X018985Y040802D01*
X019022Y040711D01*
X019083Y040633D01*
X019161Y040572D01*
X019252Y040535D01*
X019350Y040522D01*
X019448Y040535D01*
X019539Y040572D01*
X019617Y040633D01*
X019678Y040711D01*
X019715Y040802D01*
X019728Y040900D01*
X019727Y040907D01*
X020609Y041788D01*
X025629D01*
X025633Y041783D01*
X025711Y041722D01*
X025802Y041685D01*
X025900Y041672D01*
X025998Y041685D01*
X026089Y041722D01*
X026167Y041783D01*
X026228Y041861D01*
X026265Y041952D01*
X026278Y042050D01*
X026265Y042148D01*
X026228Y042239D01*
X026167Y042317D01*
X026089Y042378D01*
X025998Y042415D01*
X025900Y042428D01*
X025802Y042415D01*
X025711Y042378D01*
X025633Y042317D01*
X025629Y042312D01*
X020500D01*
X020500Y042312D01*
X020500Y042312D01*
X016600D01*
X016600Y042312D01*
X016532Y042303D01*
X016469Y042277D01*
X016415Y042235D01*
X016415Y042235D01*
X015357Y041177D01*
X015350Y041178D01*
X015262Y041167D01*
X015249Y041168D01*
X015112Y041270D01*
Y042480D01*
X015250Y042573D01*
Y043150D01*
Y043717D01*
X015200Y043710D01*
X015060Y043652D01*
X014940Y043560D01*
X014925Y043541D01*
X014775D01*
X014760Y043560D01*
X014640Y043652D01*
X014500Y043710D01*
X014350Y043730D01*
X014200Y043710D01*
X014060Y043652D01*
X013940Y043560D01*
X013925Y043541D01*
X013775D01*
X013760Y043560D01*
X013640Y043652D01*
X013500Y043710D01*
X013450Y043717D01*
Y043150D01*
Y042583D01*
X013500Y042590D01*
X013640Y042648D01*
X013760Y042740D01*
X013775Y042759D01*
X013925D01*
X013940Y042740D01*
X014060Y042648D01*
X014200Y042590D01*
X014350Y042570D01*
X014455Y042584D01*
X014564Y042499D01*
X014588Y042465D01*
Y039000D01*
X014588Y039000D01*
X014597Y038932D01*
X014623Y038869D01*
X014665Y038815D01*
X015638Y037841D01*
Y028500D01*
X015638Y028500D01*
X015647Y028432D01*
X015673Y028369D01*
X015715Y028315D01*
X018105Y025924D01*
X018052Y025765D01*
X017961Y025728D01*
X017883Y025667D01*
X017822Y025589D01*
X017785Y025498D01*
X017772Y025400D01*
X017785Y025302D01*
X017822Y025211D01*
X017883Y025133D01*
X017961Y025072D01*
X018052Y025035D01*
X018150Y025022D01*
X018199Y025028D01*
X018304Y024922D01*
X018289Y024773D01*
X018283Y024767D01*
X018222Y024689D01*
X018185Y024598D01*
X018172Y024500D01*
X018173Y024493D01*
X017265Y023585D01*
X017223Y023531D01*
X017197Y023468D01*
X017188Y023400D01*
X017188Y023400D01*
Y021257D01*
X017140Y021222D01*
X017038Y021190D01*
X016989Y021228D01*
X016900Y021264D01*
Y020900D01*
Y020536D01*
X016989Y020572D01*
X017038Y020610D01*
X017140Y020578D01*
X017188Y020543D01*
Y019200D01*
X017188Y019200D01*
X017197Y019132D01*
X017223Y019069D01*
X017265Y019015D01*
X020265Y016015D01*
X020265Y016015D01*
X020319Y015973D01*
X020382Y015947D01*
X020450Y015938D01*
X020450Y015938D01*
X022929D01*
X022933Y015933D01*
X023011Y015872D01*
X023102Y015835D01*
X023200Y015822D01*
X023298Y015835D01*
X023389Y015872D01*
X023467Y015933D01*
X023528Y016011D01*
X023565Y016102D01*
X023578Y016200D01*
X023565Y016298D01*
X023528Y016389D01*
X023467Y016467D01*
X023389Y016528D01*
X023298Y016565D01*
X023200Y016578D01*
X023102Y016565D01*
X023011Y016528D01*
X022933Y016467D01*
X022929Y016462D01*
X020559D01*
X018210Y018810D01*
X018310Y018923D01*
X018311Y018922D01*
X018402Y018885D01*
X018500Y018872D01*
X018598Y018885D01*
X018689Y018922D01*
X018767Y018983D01*
X018828Y019061D01*
X018865Y019152D01*
X018878Y019250D01*
X018865Y019348D01*
X018828Y019439D01*
X018767Y019517D01*
X018762Y019521D01*
Y020211D01*
X020363Y021813D01*
X020370Y021812D01*
X020468Y021825D01*
X020559Y021862D01*
X020637Y021923D01*
X020698Y022001D01*
X020735Y022092D01*
X020748Y022190D01*
X020735Y022288D01*
X020698Y022379D01*
X020819Y022460D01*
X023728Y019551D01*
X023671Y019412D01*
X022718D01*
X022664Y019471D01*
X022658Y019509D01*
X022686Y019659D01*
X022717Y019683D01*
X022778Y019761D01*
X022815Y019852D01*
X022828Y019950D01*
X022815Y020048D01*
X022778Y020139D01*
X022717Y020217D01*
X022639Y020278D01*
X022548Y020315D01*
X022450Y020328D01*
X022412Y020323D01*
X022388Y020333D01*
X022320Y020342D01*
X022320Y020342D01*
X019801D01*
X019797Y020347D01*
X019719Y020408D01*
X019628Y020445D01*
X019530Y020458D01*
X019432Y020445D01*
X019341Y020408D01*
X019263Y020347D01*
X019202Y020269D01*
X019165Y020178D01*
X019152Y020080D01*
X019165Y019982D01*
X019202Y019891D01*
X019263Y019813D01*
X019341Y019752D01*
X019432Y019715D01*
X019530Y019702D01*
X019628Y019715D01*
X019719Y019752D01*
X019797Y019813D01*
X019801Y019818D01*
X022099D01*
X022122Y019761D01*
X022183Y019683D01*
X022218Y019656D01*
X022219Y019649D01*
X022204Y019508D01*
X022195Y019492D01*
X022161Y019478D01*
X022083Y019417D01*
X022022Y019339D01*
X021985Y019248D01*
X021972Y019150D01*
X021985Y019052D01*
X022022Y018961D01*
X022083Y018883D01*
X022161Y018822D01*
X022252Y018785D01*
X022350Y018772D01*
X022448Y018785D01*
X022539Y018822D01*
X022617Y018883D01*
X022621Y018888D01*
X026341D01*
X026488Y018741D01*
Y017400D01*
X026488Y017400D01*
X026497Y017332D01*
X026523Y017269D01*
X026565Y017215D01*
X028365Y015415D01*
X028365Y015415D01*
X028419Y015373D01*
X028482Y015347D01*
X028550Y015338D01*
X030891D01*
X031965Y014265D01*
X031965Y014265D01*
X032019Y014223D01*
X032082Y014197D01*
X032150Y014188D01*
X032150Y014188D01*
X032329D01*
X032333Y014183D01*
X032411Y014122D01*
X032502Y014085D01*
X032600Y014072D01*
X032698Y014085D01*
X032789Y014122D01*
X032867Y014183D01*
X032928Y014261D01*
X032965Y014352D01*
X032978Y014450D01*
X032965Y014548D01*
X032928Y014639D01*
X032867Y014717D01*
X032789Y014778D01*
X032698Y014815D01*
X032600Y014828D01*
X032502Y014815D01*
X032411Y014778D01*
X032333Y014717D01*
X032201Y014770D01*
X031185Y015785D01*
X031131Y015827D01*
X031068Y015853D01*
X031000Y015862D01*
X031000Y015862D01*
X028659D01*
X027012Y017509D01*
Y018850D01*
X027012Y018850D01*
X027004Y018913D01*
X027012Y018923D01*
X027133Y018996D01*
X028673Y017457D01*
X028672Y017450D01*
X028685Y017352D01*
X028722Y017261D01*
X028783Y017183D01*
X028861Y017122D01*
X028952Y017085D01*
X029050Y017072D01*
X029148Y017085D01*
X029239Y017122D01*
X029317Y017183D01*
X029378Y017261D01*
X029415Y017352D01*
X029428Y017450D01*
X029415Y017548D01*
X029378Y017639D01*
X029317Y017717D01*
X029239Y017778D01*
X029148Y017815D01*
X029050Y017828D01*
X029043Y017827D01*
X028583Y018288D01*
X028645Y018438D01*
X030550D01*
X030550Y018438D01*
X030618Y018447D01*
X030681Y018473D01*
X030735Y018515D01*
X030826Y018605D01*
X030985Y018552D01*
X031022Y018461D01*
X031083Y018383D01*
X031161Y018322D01*
X031250Y018286D01*
Y018650D01*
X031450D01*
Y018286D01*
X031539Y018322D01*
X031588Y018360D01*
X031690Y018328D01*
X031738Y018293D01*
Y017577D01*
X031588Y017503D01*
X031569Y017518D01*
X031480Y017554D01*
Y017190D01*
Y016826D01*
X031569Y016862D01*
X031588Y016877D01*
X031738Y016803D01*
Y016300D01*
X031738Y016300D01*
X031747Y016232D01*
X031773Y016169D01*
X031815Y016115D01*
X032785Y015145D01*
X032785Y015145D01*
X032839Y015103D01*
X032902Y015077D01*
X032970Y015068D01*
X032970Y015068D01*
X033179D01*
X033183Y015063D01*
X033261Y015002D01*
X033352Y014965D01*
X033450Y014952D01*
X033548Y014965D01*
X033639Y015002D01*
X033717Y015063D01*
X033778Y015141D01*
X033815Y015232D01*
X033828Y015330D01*
X033815Y015428D01*
X033778Y015519D01*
X033717Y015597D01*
X033639Y015658D01*
X033578Y015761D01*
X033615Y015852D01*
X033628Y015950D01*
X033615Y016048D01*
X033578Y016139D01*
X033517Y016217D01*
X033439Y016278D01*
X033348Y016315D01*
X033250Y016328D01*
X033155Y016316D01*
X032692Y016779D01*
Y016930D01*
X032831Y017012D01*
X032922Y016975D01*
X033020Y016962D01*
X033118Y016975D01*
X033179Y017000D01*
X034188Y015991D01*
Y012409D01*
X033341Y011562D01*
X017515D01*
X017425Y011675D01*
Y012738D01*
X017940D01*
X017983Y012683D01*
X018061Y012622D01*
X018152Y012585D01*
X018250Y012572D01*
X018348Y012585D01*
X018439Y012622D01*
X018517Y012683D01*
X018578Y012761D01*
X018615Y012852D01*
X018628Y012950D01*
X018615Y013048D01*
X018578Y013139D01*
X018517Y013217D01*
X018439Y013278D01*
X018348Y013315D01*
X018250Y013328D01*
X018152Y013315D01*
X018061Y013278D01*
X018041Y013262D01*
X015100D01*
X015100Y013262D01*
X015037Y013254D01*
X015027Y013262D01*
X014954Y013383D01*
X015209Y013638D01*
X017529D01*
X017533Y013633D01*
X017611Y013572D01*
X017702Y013535D01*
X017800Y013522D01*
X017898Y013535D01*
X017989Y013572D01*
X018067Y013633D01*
X018128Y013711D01*
X018165Y013802D01*
X018178Y013900D01*
X018165Y013998D01*
X018128Y014089D01*
X018067Y014167D01*
X017989Y014228D01*
X017898Y014265D01*
X017800Y014278D01*
X017702Y014265D01*
X017611Y014228D01*
X017533Y014167D01*
X017529Y014162D01*
X015100D01*
X015100Y014162D01*
X015032Y014153D01*
X014969Y014127D01*
X014915Y014085D01*
X014915Y014085D01*
X013915Y013085D01*
X013873Y013031D01*
X013847Y012968D01*
X013838Y012900D01*
X013838Y012900D01*
Y010790D01*
X013838Y010790D01*
X013843Y010750D01*
X013806Y010678D01*
X013736Y010600D01*
X012700D01*
Y011400D01*
X011500D01*
Y011500D01*
X011400D01*
Y012700D01*
X010709D01*
X010603Y012806D01*
X010613Y019514D01*
X010677Y019549D01*
X010763Y019562D01*
X010857Y019448D01*
X010995Y019335D01*
X011152Y019251D01*
X011323Y019199D01*
X011400Y019191D01*
Y020091D01*
Y020991D01*
X011323Y020983D01*
X011152Y020931D01*
X010995Y020847D01*
X010857Y020734D01*
X010765Y020622D01*
X010669Y020639D01*
X010615Y020670D01*
X010620Y024248D01*
X010641Y024261D01*
X010770Y024294D01*
X010857Y024188D01*
X010995Y024075D01*
X011152Y023991D01*
X011323Y023939D01*
X011400Y023932D01*
Y024831D01*
Y025731D01*
X011323Y025723D01*
X011152Y025671D01*
X010995Y025587D01*
X010857Y025474D01*
X010772Y025371D01*
X010632Y025409D01*
X010622Y025416D01*
X010647Y042425D01*
X011400D01*
Y043500D01*
X011500D01*
Y043600D01*
X012575D01*
Y044350D01*
X036300D01*
Y043600D01*
X038700D01*
Y044350D01*
X039300D01*
X039400Y044241D01*
D02*
G37*
%LPC*%
G36*
X012400Y024731D02*
X011600D01*
Y023932D01*
X011677Y023939D01*
X011848Y023991D01*
X012005Y024075D01*
X012143Y024188D01*
X012256Y024326D01*
X012340Y024483D01*
X012392Y024654D01*
X012400Y024731D01*
D02*
G37*
G36*
X013354Y023489D02*
X013216Y023471D01*
X013086Y023417D01*
X013076Y023409D01*
X012961Y023341D01*
X012845Y023409D01*
X012835Y023417D01*
X012706Y023471D01*
X012567Y023489D01*
X012428Y023471D01*
X012299Y023417D01*
X012188Y023332D01*
X012103Y023221D01*
X012049Y023092D01*
X012031Y022953D01*
X012049Y022815D01*
X012103Y022685D01*
X012188Y022574D01*
X012215Y022554D01*
Y022368D01*
X012188Y022348D01*
X012103Y022237D01*
X012049Y022108D01*
X012031Y021969D01*
X012049Y021830D01*
X012103Y021701D01*
X012188Y021590D01*
X012299Y021505D01*
X012428Y021452D01*
X012567Y021433D01*
X012706Y021452D01*
X012835Y021505D01*
X012845Y021513D01*
X012961Y021581D01*
X013076Y021513D01*
X013086Y021505D01*
X013216Y021452D01*
X013354Y021433D01*
X013493Y021452D01*
X013622Y021505D01*
X013733Y021590D01*
X013818Y021701D01*
X013872Y021830D01*
X013890Y021969D01*
X013872Y022108D01*
X013818Y022237D01*
X013733Y022348D01*
X013706Y022368D01*
Y022554D01*
X013733Y022574D01*
X013818Y022685D01*
X013872Y022815D01*
X013890Y022953D01*
X013872Y023092D01*
X013818Y023221D01*
X013733Y023332D01*
X013622Y023417D01*
X013493Y023471D01*
X013354Y023489D01*
D02*
G37*
G36*
X024650Y024664D02*
Y024400D01*
X024914D01*
X024878Y024489D01*
X024817Y024567D01*
X024739Y024628D01*
X024650Y024664D01*
D02*
G37*
G36*
X034674Y024840D02*
X034410D01*
Y024576D01*
X034499Y024612D01*
X034577Y024673D01*
X034638Y024751D01*
X034674Y024840D01*
D02*
G37*
G36*
X034210D02*
X033946D01*
X033982Y024751D01*
X034043Y024673D01*
X034121Y024612D01*
X034210Y024576D01*
Y024840D01*
D02*
G37*
G36*
X016700Y021264D02*
X016611Y021228D01*
X016533Y021167D01*
X016472Y021089D01*
X016436Y021000D01*
X016700D01*
Y021264D01*
D02*
G37*
G36*
X020510Y017814D02*
Y017550D01*
X020774D01*
X020738Y017639D01*
X020677Y017717D01*
X020599Y017778D01*
X020510Y017814D01*
D02*
G37*
G36*
X020310D02*
X020221Y017778D01*
X020143Y017717D01*
X020082Y017639D01*
X020046Y017550D01*
X020310D01*
Y017814D01*
D02*
G37*
G36*
X012400Y019991D02*
X011600D01*
Y019191D01*
X011677Y019199D01*
X011848Y019251D01*
X012005Y019335D01*
X012143Y019448D01*
X012256Y019586D01*
X012340Y019743D01*
X012392Y019914D01*
X012400Y019991D01*
D02*
G37*
G36*
X016700Y020800D02*
X016436D01*
X016472Y020711D01*
X016533Y020633D01*
X016611Y020572D01*
X016700Y020536D01*
Y020800D01*
D02*
G37*
G36*
X011600Y020991D02*
Y020191D01*
X012400D01*
X012392Y020268D01*
X012340Y020439D01*
X012256Y020596D01*
X012143Y020734D01*
X012005Y020847D01*
X011848Y020931D01*
X011677Y020983D01*
X011600Y020991D01*
D02*
G37*
G36*
X038800Y025950D02*
X038536D01*
X038572Y025861D01*
X038633Y025783D01*
X038711Y025722D01*
X038800Y025686D01*
Y025950D01*
D02*
G37*
G36*
X014650Y025464D02*
Y025200D01*
X014914D01*
X014878Y025289D01*
X014817Y025367D01*
X014739Y025428D01*
X014650Y025464D01*
D02*
G37*
G36*
X022350Y029028D02*
X022252Y029015D01*
X022161Y028978D01*
X022083Y028917D01*
X022022Y028839D01*
X021985Y028748D01*
X021972Y028650D01*
X021985Y028552D01*
X022022Y028461D01*
X022083Y028383D01*
X022138Y028340D01*
Y026431D01*
X022133Y026427D01*
X022072Y026349D01*
X022035Y026258D01*
X022022Y026160D01*
X022035Y026062D01*
X022072Y025971D01*
X022133Y025893D01*
X022211Y025832D01*
X022302Y025795D01*
X022400Y025782D01*
X022498Y025795D01*
X022589Y025832D01*
X022667Y025893D01*
X022728Y025971D01*
X022765Y026062D01*
X022778Y026160D01*
X022765Y026258D01*
X022728Y026349D01*
X022667Y026427D01*
X022662Y026431D01*
Y028441D01*
X022678Y028461D01*
X022715Y028552D01*
X022728Y028650D01*
X022715Y028748D01*
X022678Y028839D01*
X022617Y028917D01*
X022539Y028978D01*
X022448Y029015D01*
X022350Y029028D01*
D02*
G37*
G36*
X033100Y026878D02*
X033002Y026865D01*
X032911Y026828D01*
X032833Y026767D01*
X032772Y026689D01*
X032735Y026598D01*
X032722Y026500D01*
X032722Y026497D01*
X032704Y026465D01*
X032592Y026373D01*
X032550Y026378D01*
X032452Y026365D01*
X032361Y026328D01*
X032283Y026267D01*
X032279Y026262D01*
X032010D01*
X031967Y026317D01*
X031889Y026378D01*
X031798Y026415D01*
X031700Y026428D01*
X031602Y026415D01*
X031511Y026378D01*
X031433Y026317D01*
X031372Y026239D01*
X031335Y026148D01*
X031334Y026146D01*
X031323Y026131D01*
X031297Y026068D01*
X031288Y026000D01*
X031297Y025932D01*
X031323Y025869D01*
X031365Y025815D01*
X031419Y025773D01*
X031476Y025749D01*
X031511Y025722D01*
X031602Y025685D01*
X031700Y025672D01*
X031798Y025685D01*
X031889Y025722D01*
X031909Y025738D01*
X032279D01*
X032283Y025733D01*
X032361Y025672D01*
X032452Y025635D01*
X032550Y025622D01*
X032648Y025635D01*
X032739Y025672D01*
X032817Y025733D01*
X032878Y025811D01*
X032915Y025902D01*
X032928Y026000D01*
X032928Y026003D01*
X032946Y026035D01*
X033058Y026127D01*
X033100Y026122D01*
X033198Y026135D01*
X033289Y026172D01*
X033367Y026233D01*
X033371Y026238D01*
X034041D01*
X034315Y025965D01*
X034315Y025965D01*
X034369Y025923D01*
X034432Y025897D01*
X034500Y025888D01*
X034500Y025888D01*
X034879D01*
X034883Y025883D01*
X034961Y025822D01*
X035052Y025785D01*
X035150Y025772D01*
X035248Y025785D01*
X035339Y025822D01*
X035417Y025883D01*
X035478Y025961D01*
X035515Y026052D01*
X035528Y026150D01*
X035515Y026248D01*
X035478Y026339D01*
X035417Y026417D01*
X035339Y026478D01*
X035248Y026515D01*
X035150Y026528D01*
X035052Y026515D01*
X034961Y026478D01*
X034883Y026417D01*
X034879Y026412D01*
X034609D01*
X034335Y026685D01*
X034281Y026727D01*
X034218Y026753D01*
X034150Y026762D01*
X034150Y026762D01*
X033371D01*
X033367Y026767D01*
X033289Y026828D01*
X033198Y026865D01*
X033100Y026878D01*
D02*
G37*
G36*
X038800Y026414D02*
X038711Y026378D01*
X038633Y026317D01*
X038572Y026239D01*
X038536Y026150D01*
X038800D01*
Y026414D01*
D02*
G37*
G36*
X014450Y025464D02*
X014361Y025428D01*
X014283Y025367D01*
X014222Y025289D01*
X014186Y025200D01*
X014450D01*
Y025464D01*
D02*
G37*
G36*
X014914Y025000D02*
X014650D01*
Y024736D01*
X014739Y024772D01*
X014817Y024833D01*
X014878Y024911D01*
X014914Y025000D01*
D02*
G37*
G36*
X014450D02*
X014186D01*
X014222Y024911D01*
X014283Y024833D01*
X014361Y024772D01*
X014450Y024736D01*
Y025000D01*
D02*
G37*
G36*
X011600Y025731D02*
Y024931D01*
X012400D01*
X012392Y025009D01*
X012340Y025179D01*
X012256Y025336D01*
X012143Y025474D01*
X012005Y025587D01*
X011848Y025671D01*
X011677Y025723D01*
X011600Y025731D01*
D02*
G37*
G36*
X034410Y025304D02*
Y025040D01*
X034674D01*
X034638Y025129D01*
X034577Y025207D01*
X034499Y025268D01*
X034410Y025304D01*
D02*
G37*
G36*
X034210D02*
X034121Y025268D01*
X034043Y025207D01*
X033982Y025129D01*
X033946Y025040D01*
X034210D01*
Y025304D01*
D02*
G37*
G36*
X024694Y013830D02*
X024430D01*
Y013566D01*
X024519Y013602D01*
X024597Y013663D01*
X024658Y013741D01*
X024694Y013830D01*
D02*
G37*
G36*
X024230D02*
X023966D01*
X024002Y013741D01*
X024063Y013663D01*
X024141Y013602D01*
X024230Y013566D01*
Y013830D01*
D02*
G37*
G36*
Y014294D02*
X024141Y014258D01*
X024063Y014197D01*
X024002Y014119D01*
X023966Y014030D01*
X024230D01*
Y014294D01*
D02*
G37*
G36*
X038720Y015850D02*
X038456D01*
X038492Y015761D01*
X038553Y015683D01*
X038631Y015622D01*
X038720Y015586D01*
Y015850D01*
D02*
G37*
G36*
X024430Y014294D02*
Y014030D01*
X024694D01*
X024658Y014119D01*
X024597Y014197D01*
X024519Y014258D01*
X024430Y014294D01*
D02*
G37*
G36*
X033320Y013464D02*
Y013200D01*
X033584D01*
X033548Y013289D01*
X033487Y013367D01*
X033409Y013428D01*
X033320Y013464D01*
D02*
G37*
G36*
X038400Y012700D02*
X037300D01*
Y011600D01*
X038400D01*
Y012700D01*
D02*
G37*
G36*
X012700D02*
X011600D01*
Y011600D01*
X012700D01*
Y012700D01*
D02*
G37*
G36*
X033120Y013000D02*
X032856D01*
X032892Y012911D01*
X032953Y012833D01*
X033031Y012772D01*
X033120Y012736D01*
Y013000D01*
D02*
G37*
G36*
Y013464D02*
X033031Y013428D01*
X032953Y013367D01*
X032892Y013289D01*
X032856Y013200D01*
X033120D01*
Y013464D01*
D02*
G37*
G36*
X033584Y013000D02*
X033320D01*
Y012736D01*
X033409Y012772D01*
X033487Y012833D01*
X033548Y012911D01*
X033584Y013000D01*
D02*
G37*
G36*
X020774Y017350D02*
X020510D01*
Y017086D01*
X020599Y017122D01*
X020677Y017183D01*
X020738Y017261D01*
X020774Y017350D01*
D02*
G37*
G36*
X020310D02*
X020046D01*
X020082Y017261D01*
X020143Y017183D01*
X020221Y017122D01*
X020310Y017086D01*
Y017350D01*
D02*
G37*
G36*
X013470Y017374D02*
X013381Y017338D01*
X013303Y017277D01*
X013242Y017199D01*
X013206Y017110D01*
X013470D01*
Y017374D01*
D02*
G37*
G36*
X031280Y017554D02*
X031191Y017518D01*
X031113Y017457D01*
X031052Y017379D01*
X031016Y017290D01*
X031280D01*
Y017554D01*
D02*
G37*
G36*
X013670Y017374D02*
Y017110D01*
X013934D01*
X013898Y017199D01*
X013837Y017277D01*
X013759Y017338D01*
X013670Y017374D01*
D02*
G37*
G36*
X031280Y017090D02*
X031016D01*
X031052Y017001D01*
X031113Y016923D01*
X031191Y016862D01*
X031280Y016826D01*
Y017090D01*
D02*
G37*
G36*
X038720Y016314D02*
X038631Y016278D01*
X038553Y016217D01*
X038492Y016139D01*
X038456Y016050D01*
X038720D01*
Y016314D01*
D02*
G37*
G36*
X039184Y015850D02*
X038920D01*
Y015586D01*
X039009Y015622D01*
X039087Y015683D01*
X039148Y015761D01*
X039184Y015850D01*
D02*
G37*
G36*
X038920Y016314D02*
Y016050D01*
X039184D01*
X039148Y016139D01*
X039087Y016217D01*
X039009Y016278D01*
X038920Y016314D01*
D02*
G37*
G36*
X013934Y016910D02*
X013670D01*
Y016646D01*
X013759Y016682D01*
X013837Y016743D01*
X013898Y016821D01*
X013934Y016910D01*
D02*
G37*
G36*
X013470D02*
X013206D01*
X013242Y016821D01*
X013303Y016743D01*
X013381Y016682D01*
X013470Y016646D01*
Y016910D01*
D02*
G37*
G36*
X025650Y039314D02*
X025561Y039278D01*
X025483Y039217D01*
X025422Y039139D01*
X025386Y039050D01*
X025650D01*
Y039314D01*
D02*
G37*
G36*
Y038850D02*
X025386D01*
X025422Y038761D01*
X025483Y038683D01*
X025561Y038622D01*
X025650Y038586D01*
Y038850D01*
D02*
G37*
G36*
X026300Y040378D02*
X026202Y040365D01*
X026111Y040328D01*
X026033Y040267D01*
X025972Y040189D01*
X025935Y040098D01*
X025922Y040000D01*
X025935Y039902D01*
X025972Y039811D01*
X026033Y039733D01*
X026038Y039729D01*
Y039391D01*
X026013Y039362D01*
X025888Y039299D01*
X025850Y039314D01*
Y038950D01*
Y038586D01*
X025939Y038622D01*
X026017Y038683D01*
X026078Y038761D01*
X026115Y038852D01*
X026121Y038896D01*
X026258Y038955D01*
X026273Y038956D01*
X027165Y038065D01*
X027165Y038065D01*
X027219Y038023D01*
X027282Y037997D01*
X027350Y037988D01*
X027350Y037988D01*
X027479D01*
X027483Y037983D01*
X027561Y037922D01*
X027652Y037885D01*
X027750Y037872D01*
X027848Y037885D01*
X027939Y037922D01*
X028017Y037983D01*
X028078Y038061D01*
X028115Y038152D01*
X028128Y038250D01*
X028115Y038348D01*
X028078Y038439D01*
X028017Y038517D01*
X027939Y038578D01*
X027848Y038615D01*
X027750Y038628D01*
X027652Y038615D01*
X027561Y038578D01*
X027483Y038517D01*
X027363Y038608D01*
X026562Y039409D01*
Y039729D01*
X026567Y039733D01*
X026628Y039811D01*
X026665Y039902D01*
X026678Y040000D01*
X026665Y040098D01*
X026628Y040189D01*
X026567Y040267D01*
X026489Y040328D01*
X026398Y040365D01*
X026300Y040378D01*
D02*
G37*
G36*
X038700Y043400D02*
X037600D01*
Y042300D01*
X038700D01*
Y043400D01*
D02*
G37*
G36*
X037400D02*
X036300D01*
Y042300D01*
X037400D01*
Y043400D01*
D02*
G37*
G36*
X024400Y037914D02*
Y037650D01*
X024664D01*
X024628Y037739D01*
X024567Y037817D01*
X024489Y037878D01*
X024400Y037914D01*
D02*
G37*
G36*
X025600Y035864D02*
Y035600D01*
X025864D01*
X025828Y035689D01*
X025767Y035767D01*
X025689Y035828D01*
X025600Y035864D01*
D02*
G37*
G36*
X025400D02*
X025311Y035828D01*
X025233Y035767D01*
X025172Y035689D01*
X025136Y035600D01*
X025400D01*
Y035864D01*
D02*
G37*
G36*
X024200Y037450D02*
X023936D01*
X023972Y037361D01*
X024033Y037283D01*
X024111Y037222D01*
X024200Y037186D01*
Y037450D01*
D02*
G37*
G36*
Y037914D02*
X024111Y037878D01*
X024033Y037817D01*
X023972Y037739D01*
X023936Y037650D01*
X024200D01*
Y037914D01*
D02*
G37*
G36*
X024664Y037450D02*
X024400D01*
Y037186D01*
X024489Y037222D01*
X024567Y037283D01*
X024628Y037361D01*
X024664Y037450D01*
D02*
G37*
G36*
X016350Y043730D02*
X016200Y043710D01*
X016060Y043652D01*
X015940Y043560D01*
X015925Y043541D01*
X015775D01*
X015760Y043560D01*
X015640Y043652D01*
X015500Y043710D01*
X015450Y043717D01*
Y043150D01*
Y042583D01*
X015500Y042590D01*
X015640Y042648D01*
X015760Y042740D01*
X015775Y042759D01*
X015925D01*
X015940Y042740D01*
X016060Y042648D01*
X016200Y042590D01*
X016350Y042570D01*
X016500Y042590D01*
X016640Y042648D01*
X016760Y042740D01*
X016775Y042759D01*
X016925D01*
X016940Y042740D01*
X017060Y042648D01*
X017200Y042590D01*
X017250Y042583D01*
Y043150D01*
Y043717D01*
X017200Y043710D01*
X017060Y043652D01*
X016940Y043560D01*
X016925Y043541D01*
X016775D01*
X016760Y043560D01*
X016640Y043652D01*
X016500Y043710D01*
X016350Y043730D01*
D02*
G37*
G36*
X026080Y043764D02*
Y043500D01*
X026344D01*
X026308Y043589D01*
X026247Y043667D01*
X026169Y043728D01*
X026080Y043764D01*
D02*
G37*
G36*
X018350Y043730D02*
X018200Y043710D01*
X018060Y043652D01*
X017940Y043560D01*
X017925Y043541D01*
X017775D01*
X017760Y043560D01*
X017640Y043652D01*
X017500Y043710D01*
X017450Y043717D01*
Y043150D01*
Y042583D01*
X017500Y042590D01*
X017640Y042648D01*
X017760Y042740D01*
X017775Y042759D01*
X017925D01*
X017940Y042740D01*
X018060Y042648D01*
X018200Y042590D01*
X018350Y042570D01*
X018500Y042590D01*
X018640Y042648D01*
X018760Y042740D01*
X018775Y042759D01*
X018925D01*
X018940Y042740D01*
X019060Y042648D01*
X019200Y042590D01*
X019250Y042583D01*
Y043150D01*
Y043717D01*
X019200Y043710D01*
X019060Y043652D01*
X018940Y043560D01*
X018925Y043541D01*
X018775D01*
X018760Y043560D01*
X018640Y043652D01*
X018500Y043710D01*
X018350Y043730D01*
D02*
G37*
G36*
X021775Y043725D02*
X021649Y043667D01*
X021625Y043658D01*
X021500Y043710D01*
X021450Y043717D01*
Y043150D01*
Y042583D01*
X021500Y042590D01*
X021625Y042642D01*
X021648Y042633D01*
X021775Y042575D01*
X021775Y042575D01*
X021775Y042575D01*
X022925D01*
Y043725D01*
X021775D01*
Y043725D01*
D02*
G37*
G36*
X020350Y043730D02*
X020200Y043710D01*
X020060Y043652D01*
X019940Y043560D01*
X019925Y043541D01*
X019775D01*
X019760Y043560D01*
X019640Y043652D01*
X019500Y043710D01*
X019450Y043717D01*
Y043150D01*
Y042583D01*
X019500Y042590D01*
X019640Y042648D01*
X019760Y042740D01*
X019775Y042759D01*
X019925D01*
X019940Y042740D01*
X020060Y042648D01*
X020200Y042590D01*
X020350Y042570D01*
X020500Y042590D01*
X020640Y042648D01*
X020760Y042740D01*
X020775Y042759D01*
X020925D01*
X020940Y042740D01*
X021060Y042648D01*
X021200Y042590D01*
X021250Y042583D01*
Y043150D01*
Y043717D01*
X021200Y043710D01*
X021060Y043652D01*
X020940Y043560D01*
X020925Y043541D01*
X020775D01*
X020760Y043560D01*
X020640Y043652D01*
X020500Y043710D01*
X020350Y043730D01*
D02*
G37*
G36*
X025880Y043764D02*
X025791Y043728D01*
X025713Y043667D01*
X025652Y043589D01*
X025616Y043500D01*
X025880D01*
Y043764D01*
D02*
G37*
G36*
X013250Y043050D02*
X012783D01*
X012790Y043000D01*
X012848Y042860D01*
X012940Y042740D01*
X013060Y042648D01*
X013200Y042590D01*
X013250Y042583D01*
Y043050D01*
D02*
G37*
G36*
X012575Y043400D02*
X011600D01*
Y042425D01*
X012575D01*
Y043400D01*
D02*
G37*
G36*
X025880Y043300D02*
X025616D01*
X025652Y043211D01*
X025713Y043133D01*
X025791Y043072D01*
X025880Y043036D01*
Y043300D01*
D02*
G37*
G36*
X013250Y043717D02*
X013200Y043710D01*
X013060Y043652D01*
X012940Y043560D01*
X012848Y043440D01*
X012790Y043300D01*
X012783Y043250D01*
X013250D01*
Y043717D01*
D02*
G37*
G36*
X026344Y043300D02*
X026080D01*
Y043036D01*
X026169Y043072D01*
X026247Y043133D01*
X026308Y043211D01*
X026344Y043300D01*
D02*
G37*
G36*
X038080Y027204D02*
Y026940D01*
X038344D01*
X038308Y027029D01*
X038247Y027107D01*
X038169Y027168D01*
X038080Y027204D01*
D02*
G37*
G36*
X037880D02*
X037791Y027168D01*
X037713Y027107D01*
X037652Y027029D01*
X037616Y026940D01*
X037880D01*
Y027204D01*
D02*
G37*
G36*
X025450Y027314D02*
X025361Y027278D01*
X025283Y027217D01*
X025222Y027139D01*
X025186Y027050D01*
X025450D01*
Y027314D01*
D02*
G37*
G36*
X022150Y030000D02*
X021886D01*
X021922Y029911D01*
X021983Y029833D01*
X022061Y029772D01*
X022150Y029736D01*
Y030000D01*
D02*
G37*
G36*
X025650Y027314D02*
Y027050D01*
X025914D01*
X025878Y027139D01*
X025817Y027217D01*
X025739Y027278D01*
X025650Y027314D01*
D02*
G37*
G36*
X025914Y026850D02*
X025650D01*
Y026586D01*
X025739Y026622D01*
X025817Y026683D01*
X025878Y026761D01*
X025914Y026850D01*
D02*
G37*
G36*
X028214Y026700D02*
X027950D01*
Y026436D01*
X028039Y026472D01*
X028117Y026533D01*
X028178Y026611D01*
X028214Y026700D01*
D02*
G37*
G36*
X027750D02*
X027486D01*
X027522Y026611D01*
X027583Y026533D01*
X027661Y026472D01*
X027750Y026436D01*
Y026700D01*
D02*
G37*
G36*
X037880Y026740D02*
X037616D01*
X037652Y026651D01*
X037713Y026573D01*
X037791Y026512D01*
X037880Y026476D01*
Y026740D01*
D02*
G37*
G36*
X025450Y026850D02*
X025186D01*
X025222Y026761D01*
X025283Y026683D01*
X025361Y026622D01*
X025450Y026586D01*
Y026850D01*
D02*
G37*
G36*
X038344Y026740D02*
X038080D01*
Y026476D01*
X038169Y026512D01*
X038247Y026573D01*
X038308Y026651D01*
X038344Y026740D01*
D02*
G37*
G36*
X013740Y033787D02*
X013595Y033768D01*
X013461Y033712D01*
X013345Y033623D01*
X013256Y033508D01*
X013200Y033373D01*
X013181Y033228D01*
X013200Y033083D01*
X013256Y032948D01*
X013345Y032833D01*
X013461Y032744D01*
X013595Y032688D01*
X013740Y032669D01*
X013885Y032688D01*
X014020Y032744D01*
X014136Y032833D01*
X014224Y032948D01*
X014280Y033083D01*
X014299Y033228D01*
X014280Y033373D01*
X014224Y033508D01*
X014136Y033623D01*
X014020Y033712D01*
X013885Y033768D01*
X013740Y033787D01*
D02*
G37*
G36*
X031300Y030714D02*
Y030450D01*
X031564D01*
X031528Y030539D01*
X031467Y030617D01*
X031389Y030678D01*
X031300Y030714D01*
D02*
G37*
G36*
X011968Y033747D02*
X011834Y033730D01*
X011709Y033678D01*
X011601Y033595D01*
X011519Y033488D01*
X011467Y033362D01*
X011449Y033228D01*
X011467Y033094D01*
X011519Y032968D01*
X011601Y032861D01*
X011709Y032778D01*
X011834Y032726D01*
X011968Y032709D01*
X012103Y032726D01*
X012228Y032778D01*
X012336Y032861D01*
X012418Y032968D01*
X012470Y033094D01*
X012488Y033228D01*
X012470Y033362D01*
X012418Y033488D01*
X012336Y033595D01*
X012228Y033678D01*
X012103Y033730D01*
X011968Y033747D01*
D02*
G37*
G36*
X025864Y035400D02*
X025600D01*
Y035136D01*
X025689Y035172D01*
X025767Y035233D01*
X025828Y035311D01*
X025864Y035400D01*
D02*
G37*
G36*
X025400D02*
X025136D01*
X025172Y035311D01*
X025233Y035233D01*
X025311Y035172D01*
X025400Y035136D01*
Y035400D01*
D02*
G37*
G36*
X031100Y030714D02*
X031011Y030678D01*
X030933Y030617D01*
X030872Y030539D01*
X030836Y030450D01*
X031100D01*
Y030714D01*
D02*
G37*
G36*
Y030250D02*
X030836D01*
X030872Y030161D01*
X030933Y030083D01*
X031011Y030022D01*
X031100Y029986D01*
Y030250D01*
D02*
G37*
G36*
X022614Y030000D02*
X022350D01*
Y029736D01*
X022439Y029772D01*
X022517Y029833D01*
X022578Y029911D01*
X022614Y030000D01*
D02*
G37*
G36*
X031564Y030250D02*
X031300D01*
Y029986D01*
X031389Y030022D01*
X031467Y030083D01*
X031528Y030161D01*
X031564Y030250D01*
D02*
G37*
G36*
X022350Y030464D02*
Y030200D01*
X022614D01*
X022578Y030289D01*
X022517Y030367D01*
X022439Y030428D01*
X022350Y030464D01*
D02*
G37*
G36*
X022150D02*
X022061Y030428D01*
X021983Y030367D01*
X021922Y030289D01*
X021886Y030200D01*
X022150D01*
Y030464D01*
D02*
G37*
%LPD*%
D31*
X016600Y042050D02*
X020500D01*
X025900D01*
X019350Y040900D02*
X020500Y042050D01*
X015350Y040800D02*
X016600Y042050D01*
X018500Y020320D02*
X020370Y022190D01*
X018500Y019250D02*
Y020320D01*
X033020Y017340D02*
X033210D01*
X034450Y016100D01*
X022320Y020080D02*
X022450Y019950D01*
X019530Y020080D02*
X022320D01*
X032970Y015330D02*
X033450D01*
X032000Y016300D02*
X032970Y015330D01*
X037910Y025150D02*
X038000D01*
X033325Y029735D02*
X037910Y025150D01*
X033005Y029735D02*
X033325D01*
X022400Y026160D02*
Y028600D01*
X030300Y020700D02*
Y021220D01*
X024380Y021470D02*
X030050D01*
X030300Y021220D01*
X017350Y028500D02*
X024380Y021470D01*
X030640Y020960D02*
Y021450D01*
X030390Y021700D02*
X030640Y021450D01*
X024650Y021700D02*
X030390D01*
X030980Y020970D02*
Y021490D01*
X030520Y021950D02*
X030980Y021490D01*
X024800Y021950D02*
X030520D01*
X031570Y021300D02*
X031750D01*
X030620Y022250D02*
X031570Y021300D01*
X024850Y022250D02*
X030620D01*
X030640Y020960D02*
X031350Y020250D01*
X030980Y020970D02*
X031150Y020800D01*
X031700Y022260D02*
X031800D01*
X029525Y024435D02*
X031700Y022260D01*
X031530Y021750D02*
X032450D01*
X030780Y022500D02*
X031530Y021750D01*
X027400Y022500D02*
X030780D01*
X022350Y028650D02*
X022400Y028600D01*
X017950Y034660D02*
Y036200D01*
Y034660D02*
X018510Y034100D01*
X019750D01*
X020450Y034800D01*
X019255Y033605D02*
X019750Y034100D01*
X019255Y032795D02*
X019500Y032550D01*
X019255Y032795D02*
Y033605D01*
X032245Y029735D02*
X033005D01*
X030559Y032181D02*
X033005Y029735D01*
X030559Y032181D02*
Y032541D01*
X028700Y026190D02*
X032245Y029735D01*
X014290Y010600D02*
X015440D01*
X014100Y010790D02*
Y012900D01*
Y010790D02*
X014290Y010600D01*
X015440D02*
X015800Y010960D01*
Y011300D01*
X026350Y023550D02*
Y029300D01*
Y023550D02*
X027400Y022500D01*
X018000D02*
X019550D01*
X014100Y012900D02*
X015100Y013900D01*
X017800D01*
X014800Y012300D02*
Y012700D01*
X015100Y013000D01*
X018200D02*
X018250Y012950D01*
X015100Y013000D02*
X018200D01*
X031600Y026050D02*
X031700D01*
X031550Y026000D02*
X031600Y026050D01*
X032150Y014450D02*
X032600D01*
X026750Y017400D02*
X028550Y015600D01*
X031000D01*
X032150Y014450D01*
X026450Y019150D02*
X026750Y018850D01*
Y017400D02*
Y018850D01*
X022350Y019150D02*
X026450D01*
X020450Y016200D02*
X023200D01*
X017450Y019200D02*
X020450Y016200D01*
X017450Y019200D02*
Y023400D01*
X018550Y024500D01*
X027150Y019350D02*
X029050Y017450D01*
X018150Y025400D02*
X018250D01*
X024300Y019350D02*
X027150D01*
X018250Y025400D02*
X024300Y019350D01*
X030400Y019500D02*
X030650D01*
X016950Y032650D02*
Y036550D01*
Y032650D02*
X017350Y032250D01*
X029600Y019600D02*
X029800Y019400D01*
X028150Y019600D02*
X029600D01*
X027450Y020300D02*
X028150Y019600D01*
X017050Y039350D02*
X017450Y039750D01*
Y040850D01*
X014850Y039000D02*
X015900Y037950D01*
X014850Y039000D02*
Y042650D01*
X014350Y043150D02*
X014850Y042650D01*
X017050Y037850D02*
Y039350D01*
X016350Y037150D02*
X017050Y037850D01*
X017350Y028500D02*
Y032250D01*
X016950Y028500D02*
Y031800D01*
X016350Y028600D02*
Y037150D01*
Y028600D02*
X024650Y020300D01*
X027450D01*
X015900Y028500D02*
Y037950D01*
Y028500D02*
X024600Y019800D01*
X027400D01*
X030700Y020200D02*
X031100Y019800D01*
X027400D02*
X028500Y018700D01*
X030550D02*
X031100Y019250D01*
X028500Y018700D02*
X030550D01*
X031100Y019250D02*
Y019800D01*
X016950Y028500D02*
X024800Y020650D01*
X029400D01*
X029850Y021100D01*
X030125Y019775D02*
X030400Y019500D01*
X030125Y019775D02*
Y020525D01*
X031350Y020250D02*
X031750D01*
X030125Y020525D02*
X030300Y020700D01*
X019900Y026450D02*
Y026750D01*
Y026450D02*
X024650Y021700D01*
X020500Y026250D02*
Y026750D01*
Y026250D02*
X024800Y021950D01*
X031150Y020800D02*
X032350D01*
X021100Y026000D02*
Y026700D01*
Y026000D02*
X024850Y022250D01*
X029300Y024210D02*
Y024250D01*
X030450Y025250D02*
X032475Y023225D01*
X029900Y024850D02*
X032050Y022700D01*
X019500Y032550D02*
X020150D01*
X026700Y028400D02*
X027600Y027500D01*
X033150Y015950D02*
X033250D01*
X032000Y019450D02*
X032350Y019800D01*
X032000Y016300D02*
Y019450D01*
X032430Y016670D02*
Y018830D01*
Y016670D02*
X033150Y015950D01*
X038000Y019650D02*
Y025150D01*
X016800Y011300D02*
X033450D01*
X034450Y012300D01*
Y016100D01*
X038000Y019650D01*
X023750Y023850D02*
X024100D01*
X024550Y024300D01*
X025550Y032559D02*
X030541D01*
X030559Y032541D01*
X033100Y026500D02*
X034150D01*
X034500Y026150D01*
X035150D01*
X036300Y027300D02*
X036950Y026650D01*
X036300Y027300D02*
Y038150D01*
X037500Y039350D01*
Y040750D01*
X025541Y032550D02*
X025550Y032559D01*
X020150Y032550D02*
X025541D01*
X026300Y039300D02*
Y040000D01*
Y039300D02*
X027350Y038250D01*
X027750D01*
X031550Y026000D02*
X032550D01*
X029300Y024210D02*
X029525Y024435D01*
D33*
X011500Y011500D02*
D03*
X038500D02*
D03*
X037500Y043500D02*
D03*
D34*
X011500D02*
D03*
D35*
X016800Y012300D02*
D03*
D36*
Y011300D02*
D03*
X015800Y012300D02*
D03*
Y011300D02*
D03*
X014800Y012300D02*
D03*
Y011300D02*
D03*
D37*
X022350Y043150D02*
D03*
D38*
X021350D02*
D03*
X020350D02*
D03*
X019350D02*
D03*
X018350D02*
D03*
X017350D02*
D03*
X016350D02*
D03*
X015350D02*
D03*
X014350D02*
D03*
X013350D02*
D03*
D39*
X011500Y020091D02*
D03*
Y024831D02*
D03*
D40*
X013354Y021969D02*
D03*
Y022953D02*
D03*
X012567D02*
D03*
Y021969D02*
D03*
D41*
X025980Y043400D02*
D03*
X025900Y042050D02*
D03*
X020370Y022190D02*
D03*
X033020Y017340D02*
D03*
X019530Y020080D02*
D03*
X033220Y013100D02*
D03*
X033450Y015330D02*
D03*
X024330Y013930D02*
D03*
X022400Y026160D02*
D03*
X031800Y022260D02*
D03*
X014550Y025100D02*
D03*
X031380Y017190D02*
D03*
X037980Y026840D02*
D03*
X026300Y040000D02*
D03*
X019350Y040900D02*
D03*
X027750Y038250D02*
D03*
X015350Y040800D02*
D03*
X018000Y022500D02*
D03*
X019550D02*
D03*
X018500Y019250D02*
D03*
X022450Y019950D02*
D03*
X022350Y019150D02*
D03*
X017800Y013900D02*
D03*
X018250Y012950D02*
D03*
X033250Y015950D02*
D03*
X032350Y019800D02*
D03*
X032430Y018830D02*
D03*
X032550Y026000D02*
D03*
X031700Y026050D02*
D03*
X032600Y014450D02*
D03*
X023200Y016200D02*
D03*
X018150Y025400D02*
D03*
X018550Y024500D02*
D03*
X029050Y017450D02*
D03*
X029800Y019400D02*
D03*
X016950Y031800D02*
D03*
Y036550D02*
D03*
X030700Y020200D02*
D03*
X029850Y021100D02*
D03*
X030650Y019500D02*
D03*
X017450Y040850D02*
D03*
X031750Y020250D02*
D03*
X032350Y020800D02*
D03*
X031750Y021300D02*
D03*
X032450Y021750D02*
D03*
X032050Y022700D02*
D03*
X032475Y023225D02*
D03*
X035150Y026150D02*
D03*
X037500Y040750D02*
D03*
X020500Y026750D02*
D03*
X019900D02*
D03*
X021100Y026700D02*
D03*
X029300Y024250D02*
D03*
X030450Y025250D02*
D03*
X029900Y024850D02*
D03*
X017950Y036200D02*
D03*
X020150Y032550D02*
D03*
X026700Y028400D02*
D03*
X027600Y027500D02*
D03*
X025550Y032559D02*
D03*
X022350Y028650D02*
D03*
X030559Y032541D02*
D03*
X038000Y025150D02*
D03*
X028700Y026190D02*
D03*
X022250Y030100D02*
D03*
X031200Y030350D02*
D03*
X035950Y030150D02*
D03*
X025750Y038950D02*
D03*
X024300Y037550D02*
D03*
X025500Y035500D02*
D03*
X024550Y024300D02*
D03*
X023750Y023850D02*
D03*
X027850Y026800D02*
D03*
X020450Y034800D02*
D03*
X026350Y029300D02*
D03*
X025550Y026950D02*
D03*
X033100Y026500D02*
D03*
X036950Y026650D02*
D03*
X038900Y026050D02*
D03*
X031350Y018650D02*
D03*
X034310Y024940D02*
D03*
X013570Y017010D02*
D03*
X016800Y020900D02*
D03*
X020410Y017450D02*
D03*
X038820Y015950D02*
D03*
M02*
