G04 Layer_Color=2752767*
%FSAX24Y24*%
%MOIN*%
G70*
G01*
G75*
%ADD88C,0.0020*%
%ADD89C,0.0027*%
D88*
X011420Y011420D02*
Y011580D01*
X011580D01*
Y011420D01*
X011420D01*
X038420D02*
Y011580D01*
X038580D01*
Y011420D01*
X038420D01*
X037420Y043420D02*
Y043580D01*
X037580D01*
Y043420D01*
X037420D01*
X011420D02*
Y043580D01*
X011580D01*
Y043420D01*
X011420D01*
X013740Y033148D02*
X013660Y033308D01*
X013820D01*
X013740Y033148D01*
X011968D02*
X012009Y033188D01*
X012048D01*
X012009Y033228D01*
X012048Y033268D01*
X012009D01*
X011968Y033308D01*
X011928Y033268D01*
X011889D01*
X011928Y033228D01*
X011889Y033188D01*
X011928D01*
X011968Y033148D01*
X022270Y043070D02*
X022310Y043150D01*
X022270Y043230D01*
X022350Y043190D01*
X022430Y043230D01*
X022390Y043150D01*
X022430Y043070D01*
X022350Y043110D01*
X022270Y043070D01*
X021270D02*
X021310Y043150D01*
X021270Y043230D01*
X021350Y043190D01*
X021430Y043230D01*
X021390Y043150D01*
X021430Y043070D01*
X021350Y043110D01*
X021270Y043070D01*
X020270D02*
X020310Y043150D01*
X020270Y043230D01*
X020350Y043190D01*
X020430Y043230D01*
X020390Y043150D01*
X020430Y043070D01*
X020350Y043110D01*
X020270Y043070D01*
X019270D02*
X019310Y043150D01*
X019270Y043230D01*
X019350Y043190D01*
X019430Y043230D01*
X019390Y043150D01*
X019430Y043070D01*
X019350Y043110D01*
X019270Y043070D01*
X018270D02*
X018310Y043150D01*
X018270Y043230D01*
X018350Y043190D01*
X018430Y043230D01*
X018390Y043150D01*
X018430Y043070D01*
X018350Y043110D01*
X018270Y043070D01*
X017270D02*
X017310Y043150D01*
X017270Y043230D01*
X017350Y043190D01*
X017430Y043230D01*
X017390Y043150D01*
X017430Y043070D01*
X017350Y043110D01*
X017270Y043070D01*
X016270D02*
X016310Y043150D01*
X016270Y043230D01*
X016350Y043190D01*
X016430Y043230D01*
X016390Y043150D01*
X016430Y043070D01*
X016350Y043110D01*
X016270Y043070D01*
X015270D02*
X015310Y043150D01*
X015270Y043230D01*
X015350Y043190D01*
X015430Y043230D01*
X015390Y043150D01*
X015430Y043070D01*
X015350Y043110D01*
X015270Y043070D01*
X014270D02*
X014310Y043150D01*
X014270Y043230D01*
X014350Y043190D01*
X014430Y043230D01*
X014390Y043150D01*
X014430Y043070D01*
X014350Y043110D01*
X014270Y043070D01*
X013270D02*
X013310Y043150D01*
X013270Y043230D01*
X013350Y043190D01*
X013430Y043230D01*
X013390Y043150D01*
X013430Y043070D01*
X013350Y043110D01*
X013270Y043070D01*
X011460Y020051D02*
Y020011D01*
X011540D01*
Y020051D01*
X011580D01*
Y020131D01*
X011540D01*
Y020171D01*
X011460D01*
Y020131D01*
X011420D01*
Y020051D01*
X011460D01*
Y024791D02*
Y024751D01*
X011540D01*
Y024791D01*
X011580D01*
Y024871D01*
X011540D01*
Y024911D01*
X011460D01*
Y024871D01*
X011420D01*
Y024791D01*
X011460D01*
X013274Y021889D02*
X013314D01*
X013354Y021929D01*
X013394Y021889D01*
X013434D01*
Y021929D01*
X013394Y021969D01*
X013434Y022009D01*
Y022049D01*
X013394D01*
X013354Y022009D01*
X013314Y022049D01*
X013274D01*
Y022009D01*
X013314Y021969D01*
X013274Y021929D01*
Y021889D01*
Y022873D02*
X013314D01*
X013354Y022913D01*
X013394Y022873D01*
X013434D01*
Y022913D01*
X013394Y022953D01*
X013434Y022993D01*
Y023033D01*
X013394D01*
X013354Y022993D01*
X013314Y023033D01*
X013274D01*
Y022993D01*
X013314Y022953D01*
X013274Y022913D01*
Y022873D01*
X012487D02*
X012527D01*
X012567Y022913D01*
X012607Y022873D01*
X012647D01*
Y022913D01*
X012607Y022953D01*
X012647Y022993D01*
Y023033D01*
X012607D01*
X012567Y022993D01*
X012527Y023033D01*
X012487D01*
Y022993D01*
X012527Y022953D01*
X012487Y022913D01*
Y022873D01*
Y021889D02*
X012527D01*
X012567Y021929D01*
X012607Y021889D01*
X012647D01*
Y021929D01*
X012607Y021969D01*
X012647Y022009D01*
Y022049D01*
X012607D01*
X012567Y022009D01*
X012527Y022049D01*
X012487D01*
Y022009D01*
X012527Y021969D01*
X012487Y021929D01*
Y021889D01*
X025900Y043400D02*
X025980Y043480D01*
X026060Y043400D01*
X025980Y043320D01*
X025900Y043400D01*
X025820Y042050D02*
X025900Y042130D01*
X025980Y042050D01*
X025900Y041970D01*
X025820Y042050D01*
X020290Y022190D02*
X020370Y022270D01*
X020450Y022190D01*
X020370Y022110D01*
X020290Y022190D01*
X032940Y017340D02*
X033020Y017420D01*
X033100Y017340D01*
X033020Y017260D01*
X032940Y017340D01*
X019450Y020080D02*
X019530Y020160D01*
X019610Y020080D01*
X019530Y020000D01*
X019450Y020080D01*
X033140Y013100D02*
X033220Y013180D01*
X033300Y013100D01*
X033220Y013020D01*
X033140Y013100D01*
X033370Y015330D02*
X033450Y015410D01*
X033530Y015330D01*
X033450Y015250D01*
X033370Y015330D01*
X024250Y013930D02*
X024330Y014010D01*
X024410Y013930D01*
X024330Y013850D01*
X024250Y013930D01*
X022320Y026160D02*
X022400Y026240D01*
X022480Y026160D01*
X022400Y026080D01*
X022320Y026160D01*
X031720Y022260D02*
X031800Y022340D01*
X031880Y022260D01*
X031800Y022180D01*
X031720Y022260D01*
X014470Y025100D02*
X014550Y025180D01*
X014630Y025100D01*
X014550Y025020D01*
X014470Y025100D01*
X031300Y017190D02*
X031380Y017270D01*
X031460Y017190D01*
X031380Y017110D01*
X031300Y017190D01*
X037900Y026840D02*
X037980Y026920D01*
X038060Y026840D01*
X037980Y026760D01*
X037900Y026840D01*
X026220Y040000D02*
X026300Y040080D01*
X026380Y040000D01*
X026300Y039920D01*
X026220Y040000D01*
X019270Y040900D02*
X019350Y040980D01*
X019430Y040900D01*
X019350Y040820D01*
X019270Y040900D01*
X027670Y038250D02*
X027750Y038330D01*
X027830Y038250D01*
X027750Y038170D01*
X027670Y038250D01*
X015270Y040800D02*
X015350Y040880D01*
X015430Y040800D01*
X015350Y040720D01*
X015270Y040800D01*
X017920Y022500D02*
X018000Y022580D01*
X018080Y022500D01*
X018000Y022420D01*
X017920Y022500D01*
X019470D02*
X019550Y022580D01*
X019630Y022500D01*
X019550Y022420D01*
X019470Y022500D01*
X018420Y019250D02*
X018500Y019330D01*
X018580Y019250D01*
X018500Y019170D01*
X018420Y019250D01*
X022370Y019950D02*
X022450Y020030D01*
X022530Y019950D01*
X022450Y019870D01*
X022370Y019950D01*
X022270Y019150D02*
X022350Y019230D01*
X022430Y019150D01*
X022350Y019070D01*
X022270Y019150D01*
X017720Y013900D02*
X017800Y013980D01*
X017880Y013900D01*
X017800Y013820D01*
X017720Y013900D01*
X018170Y012950D02*
X018250Y013030D01*
X018330Y012950D01*
X018250Y012870D01*
X018170Y012950D01*
X033170Y015950D02*
X033250Y016030D01*
X033330Y015950D01*
X033250Y015870D01*
X033170Y015950D01*
X032270Y019800D02*
X032350Y019880D01*
X032430Y019800D01*
X032350Y019720D01*
X032270Y019800D01*
X032350Y018830D02*
X032430Y018910D01*
X032510Y018830D01*
X032430Y018750D01*
X032350Y018830D01*
X032470Y026000D02*
X032550Y026080D01*
X032630Y026000D01*
X032550Y025920D01*
X032470Y026000D01*
X031620Y026050D02*
X031700Y026130D01*
X031780Y026050D01*
X031700Y025970D01*
X031620Y026050D01*
X032520Y014450D02*
X032600Y014530D01*
X032680Y014450D01*
X032600Y014370D01*
X032520Y014450D01*
X023120Y016200D02*
X023200Y016280D01*
X023280Y016200D01*
X023200Y016120D01*
X023120Y016200D01*
X018070Y025400D02*
X018150Y025480D01*
X018230Y025400D01*
X018150Y025320D01*
X018070Y025400D01*
X018470Y024500D02*
X018550Y024580D01*
X018630Y024500D01*
X018550Y024420D01*
X018470Y024500D01*
X028970Y017450D02*
X029050Y017530D01*
X029130Y017450D01*
X029050Y017370D01*
X028970Y017450D01*
X029720Y019400D02*
X029800Y019480D01*
X029880Y019400D01*
X029800Y019320D01*
X029720Y019400D01*
X016870Y031800D02*
X016950Y031880D01*
X017030Y031800D01*
X016950Y031720D01*
X016870Y031800D01*
Y036550D02*
X016950Y036630D01*
X017030Y036550D01*
X016950Y036470D01*
X016870Y036550D01*
X030620Y020200D02*
X030700Y020280D01*
X030780Y020200D01*
X030700Y020120D01*
X030620Y020200D01*
X029770Y021100D02*
X029850Y021180D01*
X029930Y021100D01*
X029850Y021020D01*
X029770Y021100D01*
X030570Y019500D02*
X030650Y019580D01*
X030730Y019500D01*
X030650Y019420D01*
X030570Y019500D01*
X017370Y040850D02*
X017450Y040930D01*
X017530Y040850D01*
X017450Y040770D01*
X017370Y040850D01*
X031670Y020250D02*
X031750Y020330D01*
X031830Y020250D01*
X031750Y020170D01*
X031670Y020250D01*
X032270Y020800D02*
X032350Y020880D01*
X032430Y020800D01*
X032350Y020720D01*
X032270Y020800D01*
X031670Y021300D02*
X031750Y021380D01*
X031830Y021300D01*
X031750Y021220D01*
X031670Y021300D01*
X032370Y021750D02*
X032450Y021830D01*
X032530Y021750D01*
X032450Y021670D01*
X032370Y021750D01*
X031970Y022700D02*
X032050Y022780D01*
X032130Y022700D01*
X032050Y022620D01*
X031970Y022700D01*
X032395Y023225D02*
X032475Y023305D01*
X032555Y023225D01*
X032475Y023145D01*
X032395Y023225D01*
X035070Y026150D02*
X035150Y026230D01*
X035230Y026150D01*
X035150Y026070D01*
X035070Y026150D01*
X037420Y040750D02*
X037500Y040830D01*
X037580Y040750D01*
X037500Y040670D01*
X037420Y040750D01*
X020420Y026750D02*
X020500Y026830D01*
X020580Y026750D01*
X020500Y026670D01*
X020420Y026750D01*
X019820D02*
X019900Y026830D01*
X019980Y026750D01*
X019900Y026670D01*
X019820Y026750D01*
X021020Y026700D02*
X021100Y026780D01*
X021180Y026700D01*
X021100Y026620D01*
X021020Y026700D01*
X029220Y024250D02*
X029300Y024330D01*
X029380Y024250D01*
X029300Y024170D01*
X029220Y024250D01*
X030370Y025250D02*
X030450Y025330D01*
X030530Y025250D01*
X030450Y025170D01*
X030370Y025250D01*
X029820Y024850D02*
X029900Y024930D01*
X029980Y024850D01*
X029900Y024770D01*
X029820Y024850D01*
X017870Y036200D02*
X017950Y036280D01*
X018030Y036200D01*
X017950Y036120D01*
X017870Y036200D01*
X020070Y032550D02*
X020150Y032630D01*
X020230Y032550D01*
X020150Y032470D01*
X020070Y032550D01*
X026620Y028400D02*
X026700Y028480D01*
X026780Y028400D01*
X026700Y028320D01*
X026620Y028400D01*
X027520Y027500D02*
X027600Y027580D01*
X027680Y027500D01*
X027600Y027420D01*
X027520Y027500D01*
X025470Y032559D02*
X025550Y032639D01*
X025630Y032559D01*
X025550Y032479D01*
X025470Y032559D01*
X022270Y028650D02*
X022350Y028730D01*
X022430Y028650D01*
X022350Y028570D01*
X022270Y028650D01*
X030479Y032541D02*
X030559Y032621D01*
X030639Y032541D01*
X030559Y032461D01*
X030479Y032541D01*
X037920Y025150D02*
X038000Y025230D01*
X038080Y025150D01*
X038000Y025070D01*
X037920Y025150D01*
X028620Y026190D02*
X028700Y026270D01*
X028780Y026190D01*
X028700Y026110D01*
X028620Y026190D01*
X022170Y030100D02*
X022250Y030180D01*
X022330Y030100D01*
X022250Y030020D01*
X022170Y030100D01*
X031120Y030350D02*
X031200Y030430D01*
X031280Y030350D01*
X031200Y030270D01*
X031120Y030350D01*
X035870Y030150D02*
X035950Y030230D01*
X036030Y030150D01*
X035950Y030070D01*
X035870Y030150D01*
X025670Y038950D02*
X025750Y039030D01*
X025830Y038950D01*
X025750Y038870D01*
X025670Y038950D01*
X024220Y037550D02*
X024300Y037630D01*
X024380Y037550D01*
X024300Y037470D01*
X024220Y037550D01*
X025420Y035500D02*
X025500Y035580D01*
X025580Y035500D01*
X025500Y035420D01*
X025420Y035500D01*
X024470Y024300D02*
X024550Y024380D01*
X024630Y024300D01*
X024550Y024220D01*
X024470Y024300D01*
X023670Y023850D02*
X023750Y023930D01*
X023830Y023850D01*
X023750Y023770D01*
X023670Y023850D01*
X027770Y026800D02*
X027850Y026880D01*
X027930Y026800D01*
X027850Y026720D01*
X027770Y026800D01*
X020370Y034800D02*
X020450Y034880D01*
X020530Y034800D01*
X020450Y034720D01*
X020370Y034800D01*
X026270Y029300D02*
X026350Y029380D01*
X026430Y029300D01*
X026350Y029220D01*
X026270Y029300D01*
X025470Y026950D02*
X025550Y027030D01*
X025630Y026950D01*
X025550Y026870D01*
X025470Y026950D01*
X033020Y026500D02*
X033100Y026580D01*
X033180Y026500D01*
X033100Y026420D01*
X033020Y026500D01*
X036870Y026650D02*
X036950Y026730D01*
X037030Y026650D01*
X036950Y026570D01*
X036870Y026650D01*
X038820Y026050D02*
X038900Y026130D01*
X038980Y026050D01*
X038900Y025970D01*
X038820Y026050D01*
X031270Y018650D02*
X031350Y018730D01*
X031430Y018650D01*
X031350Y018570D01*
X031270Y018650D01*
X034230Y024940D02*
X034310Y025020D01*
X034390Y024940D01*
X034310Y024860D01*
X034230Y024940D01*
X013490Y017010D02*
X013570Y017090D01*
X013650Y017010D01*
X013570Y016930D01*
X013490Y017010D01*
X016720Y020900D02*
X016800Y020980D01*
X016880Y020900D01*
X016800Y020820D01*
X016720Y020900D01*
X020330Y017450D02*
X020410Y017530D01*
X020490Y017450D01*
X020410Y017370D01*
X020330Y017450D01*
X038740Y015950D02*
X038820Y016030D01*
X038900Y015950D01*
X038820Y015870D01*
X038740Y015950D01*
D89*
X016880Y012300D02*
G03*
X016880Y012300I-000080J000000D01*
G01*
Y011300D02*
G03*
X016880Y011300I-000080J000000D01*
G01*
X015880Y012300D02*
G03*
X015880Y012300I-000080J000000D01*
G01*
Y011300D02*
G03*
X015880Y011300I-000080J000000D01*
G01*
X014880Y012300D02*
G03*
X014880Y012300I-000080J000000D01*
G01*
Y011300D02*
G03*
X014880Y011300I-000080J000000D01*
G01*
M02*
