G04 Layer_Physical_Order=1*
G04 Layer_Color=255*
%FSAX24Y24*%
%MOIN*%
G70*
G01*
G75*
%ADD10R,0.1181X0.2362*%
%ADD11R,0.0591X0.0236*%
%ADD12R,0.0591X0.0315*%
%ADD13R,0.0472X0.0551*%
%ADD14O,0.0748X0.0236*%
%ADD15O,0.0689X0.0217*%
%ADD16O,0.0217X0.0689*%
%ADD17R,0.0453X0.0551*%
%ADD18R,0.0315X0.0315*%
%ADD19R,0.0551X0.0453*%
%ADD20R,0.0453X0.0532*%
%ADD21R,0.1102X0.0945*%
%ADD22R,0.0630X0.0551*%
%ADD23R,0.0512X0.0669*%
%ADD24R,0.2165X0.0787*%
%ADD25R,0.0551X0.0472*%
%ADD26R,0.0559X0.0445*%
%ADD27R,0.0445X0.0559*%
%ADD28R,0.0354X0.0394*%
%ADD29R,0.1260X0.0591*%
%ADD30O,0.0669X0.0177*%
%ADD31C,0.0100*%
%ADD32C,0.0060*%
%ADD33C,0.0120*%
%ADD34C,0.0080*%
%ADD35C,0.0750*%
%ADD36R,0.0750X0.0750*%
%ADD37C,0.0850*%
%ADD38R,0.0850X0.0850*%
%ADD39R,0.1750X0.1750*%
%ADD40C,0.0662*%
%ADD41C,0.1410*%
%ADD42C,0.0380*%
%ADD43C,0.0500*%
G36*
X024588Y028200D02*
X024588Y028200D01*
X024597Y028132D01*
X024623Y028069D01*
X024665Y028015D01*
X025288Y027391D01*
Y027075D01*
X025285Y027068D01*
X025226Y027056D01*
X023835Y028447D01*
Y028821D01*
X024588D01*
Y028200D01*
D02*
G37*
G36*
X028200Y029882D02*
X027434Y029116D01*
X027383Y029040D01*
X027365Y028950D01*
Y027866D01*
X027364Y027865D01*
X027314Y027893D01*
Y029928D01*
X028181D01*
X028200Y029882D01*
D02*
G37*
G36*
X028939Y024103D02*
X028959Y024053D01*
X029022Y023972D01*
X029103Y023909D01*
X029198Y023870D01*
X029300Y023857D01*
X029363Y023865D01*
X029386Y023818D01*
X028382Y022814D01*
X028336Y022833D01*
Y023011D01*
X028325Y023091D01*
X028294Y023166D01*
X028287Y023175D01*
Y023416D01*
X028805Y023934D01*
X028805Y023934D01*
X028846Y023988D01*
X028873Y024051D01*
X028875Y024066D01*
X028930Y024105D01*
X028939Y024103D01*
D02*
G37*
G36*
X037722Y024872D02*
X037803Y024809D01*
X037898Y024770D01*
X038000Y024757D01*
X038102Y024770D01*
X038197Y024809D01*
X038245Y024847D01*
X038295Y024822D01*
Y023177D01*
X038153Y023035D01*
X037534D01*
X037524Y023046D01*
X037512Y023085D01*
X037554Y023140D01*
X037586Y023217D01*
X037597Y023300D01*
X037586Y023383D01*
X037554Y023460D01*
X037511Y023516D01*
X037506Y023550D01*
X037511Y023584D01*
X037554Y023640D01*
X037586Y023717D01*
X037597Y023800D01*
X037586Y023883D01*
X037554Y023960D01*
X037503Y024027D01*
X037436Y024078D01*
X037397Y024094D01*
Y024674D01*
X037571D01*
Y024888D01*
X037710D01*
X037722Y024872D01*
D02*
G37*
G36*
X031915Y028469D02*
Y026437D01*
X031865Y026404D01*
X031802Y026430D01*
X031700Y026443D01*
X031598Y026430D01*
X031503Y026391D01*
X031422Y026328D01*
X031359Y026247D01*
X031320Y026152D01*
X031307Y026050D01*
X031320Y025948D01*
X031359Y025853D01*
X031386Y025818D01*
X030880Y025312D01*
X030833Y025328D01*
X030830Y025352D01*
X030791Y025447D01*
X030728Y025528D01*
X030685Y025562D01*
Y027303D01*
X031869Y028488D01*
X031915Y028469D01*
D02*
G37*
G36*
X038844Y026615D02*
X038811Y026582D01*
X038765Y026601D01*
Y028260D01*
X038747Y028350D01*
X038696Y028426D01*
X038415Y028707D01*
Y028821D01*
X038844D01*
Y026615D01*
D02*
G37*
G36*
X033685Y027317D02*
X033235Y026866D01*
X033202Y026880D01*
X033100Y026893D01*
X032998Y026880D01*
X032903Y026841D01*
X032835Y026788D01*
X032785Y026806D01*
Y028779D01*
X032805Y028821D01*
X033685D01*
Y027317D01*
D02*
G37*
G36*
X024228Y032984D02*
X024265Y032972D01*
Y031700D01*
X024283Y031610D01*
X024334Y031534D01*
X024511Y031357D01*
X024504Y031307D01*
X023805D01*
Y030791D01*
X023550D01*
X023460Y030773D01*
X023384Y030722D01*
X022981Y030319D01*
X022935Y030338D01*
Y031703D01*
X024215Y032984D01*
X024228Y032984D01*
D02*
G37*
G36*
X023815Y034803D02*
Y033247D01*
X022534Y031966D01*
X022483Y031890D01*
X022465Y031800D01*
Y030363D01*
X022415Y030339D01*
X022396Y030353D01*
X022326Y030383D01*
X022325Y030383D01*
Y030100D01*
X022250D01*
Y030025D01*
X021967D01*
X021967Y030024D01*
X021988Y029975D01*
Y029859D01*
X021963Y029834D01*
X021648D01*
Y030041D01*
Y030593D01*
Y031307D01*
X020953D01*
X020935Y031398D01*
X020880Y031480D01*
X020405Y031956D01*
Y032254D01*
X020428Y032272D01*
X020491Y032353D01*
X020530Y032448D01*
X020543Y032550D01*
X020530Y032652D01*
X020491Y032747D01*
X020428Y032828D01*
X020347Y032891D01*
X020252Y032930D01*
X020150Y032943D01*
X020048Y032930D01*
X019953Y032891D01*
X019872Y032828D01*
X019809Y032747D01*
X019770Y032652D01*
X019757Y032550D01*
X019770Y032448D01*
X019809Y032353D01*
X019872Y032272D01*
X019895Y032254D01*
Y031850D01*
X019914Y031752D01*
X019970Y031670D01*
X020286Y031354D01*
X020267Y031307D01*
X019555D01*
Y030593D01*
Y030397D01*
X019185D01*
Y032653D01*
X019847Y033315D01*
X022100D01*
X022190Y033333D01*
X022266Y033384D01*
X022816Y033934D01*
X022816Y033934D01*
X022867Y034010D01*
X022884Y034099D01*
X023695D01*
Y034532D01*
Y034858D01*
X023741Y034877D01*
X023815Y034803D01*
D02*
G37*
G36*
X027778Y014840D02*
X027759Y014794D01*
X026370D01*
Y016183D01*
X026416Y016203D01*
X027778Y014840D01*
D02*
G37*
G36*
X022465Y029524D02*
Y029097D01*
X022405Y029036D01*
X022350Y029043D01*
X022248Y029030D01*
X022153Y028991D01*
X022072Y028928D01*
X022009Y028847D01*
X021970Y028752D01*
X021957Y028650D01*
X021970Y028548D01*
X022009Y028453D01*
X022072Y028372D01*
X022153Y028309D01*
X022248Y028270D01*
X022272Y028267D01*
X022288Y028220D01*
X021155Y027086D01*
X021100Y027093D01*
X020998Y027080D01*
X020976Y027071D01*
X020935Y027099D01*
Y028821D01*
X021648D01*
Y029310D01*
X022072D01*
X022072Y029310D01*
X022140Y029319D01*
X022203Y029345D01*
X022257Y029387D01*
X022415Y029545D01*
X022465Y029524D01*
D02*
G37*
G36*
X024630Y023223D02*
Y023198D01*
X024606Y023166D01*
X024575Y023091D01*
X024564Y023011D01*
Y022538D01*
X024574Y022466D01*
X024556Y022444D01*
X024534Y022426D01*
X024462Y022436D01*
X023989D01*
X023909Y022425D01*
X023834Y022394D01*
X023770Y022345D01*
X023720Y022280D01*
X023689Y022205D01*
X023678Y022125D01*
X023680Y022110D01*
X023647Y022072D01*
X021976D01*
Y022605D01*
X022750D01*
X022844Y022624D01*
X022923Y022677D01*
X023812Y023566D01*
X023826Y023567D01*
X023896Y023597D01*
X023957Y023643D01*
X024003Y023704D01*
X024026Y023758D01*
X024079Y023775D01*
X024630Y023223D01*
D02*
G37*
G36*
X032353Y025659D02*
X032427Y025629D01*
X032442Y025574D01*
X029193Y022325D01*
X029143Y022328D01*
X029130Y022345D01*
X029066Y022394D01*
X029044Y022403D01*
X029034Y022452D01*
X032290Y025708D01*
X032353Y025659D01*
D02*
G37*
G36*
X020138Y022741D02*
Y022390D01*
X020122Y022378D01*
X020059Y022297D01*
X020020Y022202D01*
X020007Y022100D01*
X020020Y021998D01*
X020059Y021903D01*
X020122Y021822D01*
X020203Y021759D01*
X020298Y021720D01*
X020289Y021672D01*
X019974D01*
X019795Y021851D01*
Y022196D01*
X019828Y022222D01*
X019891Y022303D01*
X019930Y022398D01*
X019943Y022500D01*
X019930Y022602D01*
X019891Y022697D01*
X019828Y022778D01*
X019747Y022841D01*
X019652Y022880D01*
X019550Y022893D01*
X019448Y022880D01*
X019353Y022841D01*
X019272Y022778D01*
X019209Y022697D01*
X019170Y022602D01*
X019157Y022500D01*
X019170Y022398D01*
X019209Y022303D01*
X019272Y022222D01*
X019305Y022196D01*
Y021750D01*
X019315Y021702D01*
X019269Y021677D01*
X019045Y021901D01*
Y022700D01*
X019026Y022794D01*
X018973Y022873D01*
X018355Y023492D01*
X018374Y023538D01*
X019341D01*
X020138Y022741D01*
D02*
G37*
G36*
X037055Y029158D02*
Y028821D01*
X037945D01*
Y028610D01*
X037963Y028520D01*
X038014Y028444D01*
X038295Y028163D01*
Y025478D01*
X038245Y025453D01*
X038197Y025491D01*
X038102Y025530D01*
X038000Y025543D01*
X037898Y025530D01*
X037803Y025491D01*
X037722Y025428D01*
X037710Y025412D01*
X037571D01*
Y025626D01*
X036698D01*
Y025526D01*
X036540D01*
Y025150D01*
Y024774D01*
X036698D01*
Y024674D01*
X036872D01*
Y024121D01*
X036764D01*
X036681Y024110D01*
X036604Y024078D01*
X036537Y024027D01*
X036486Y023960D01*
X036454Y023883D01*
X036443Y023800D01*
X036450Y023753D01*
X036402Y023729D01*
X035685Y024447D01*
Y024687D01*
X035735Y024711D01*
X035754Y024697D01*
X035824Y024667D01*
X035825Y024667D01*
Y024950D01*
X035975D01*
Y024667D01*
X035976Y024667D01*
X036046Y024697D01*
X036107Y024743D01*
X036131Y024774D01*
X036390D01*
Y025150D01*
Y025596D01*
X036112Y025874D01*
Y026375D01*
X036133Y026424D01*
X036142Y026500D01*
X036141Y026508D01*
X036174Y026545D01*
X036571D01*
X036609Y026453D01*
X036672Y026372D01*
X036753Y026309D01*
X036848Y026270D01*
X036950Y026257D01*
X037052Y026270D01*
X037147Y026309D01*
X037228Y026372D01*
X037291Y026453D01*
X037330Y026548D01*
X037343Y026650D01*
X037330Y026752D01*
X037291Y026847D01*
X037228Y026928D01*
X037147Y026991D01*
X037052Y027030D01*
X036950Y027043D01*
X036848Y027030D01*
X036844Y027028D01*
X036810Y027035D01*
X034932D01*
X034913Y027081D01*
X037009Y029177D01*
X037055Y029158D01*
D02*
G37*
G36*
X028093Y021903D02*
X028134Y021867D01*
X028135Y021865D01*
X028127Y021810D01*
X028138Y021729D01*
X028169Y021654D01*
X028170Y021652D01*
X028169Y021650D01*
X028138Y021575D01*
X028127Y021495D01*
X028138Y021414D01*
X028169Y021339D01*
X028170Y021337D01*
X028169Y021335D01*
X028138Y021260D01*
X028127Y021180D01*
X028138Y021099D01*
X028169Y021024D01*
X028170Y021022D01*
X028169Y021020D01*
X028138Y020945D01*
X028127Y020865D01*
X028138Y020784D01*
X028169Y020710D01*
X028170Y020707D01*
X028169Y020705D01*
X028138Y020630D01*
X028127Y020550D01*
X028138Y020470D01*
X028169Y020395D01*
X028170Y020393D01*
X028169Y020391D01*
X028138Y020316D01*
X028127Y020235D01*
X028138Y020155D01*
X028169Y020080D01*
X028170Y020078D01*
X028169Y020076D01*
X028138Y020001D01*
X028127Y019920D01*
X028138Y019840D01*
X028169Y019765D01*
X028170Y019763D01*
X028169Y019761D01*
X028138Y019686D01*
X028127Y019605D01*
X028138Y019525D01*
X028169Y019450D01*
X028170Y019448D01*
X028169Y019446D01*
X028138Y019371D01*
X028127Y019290D01*
X028138Y019210D01*
X028169Y019135D01*
X028218Y019070D01*
X028241Y019053D01*
X028240Y019047D01*
X028244Y019050D01*
X028244D01*
X028283Y019021D01*
X028358Y018990D01*
X028438Y018979D01*
X028674D01*
Y018900D01*
X028241D01*
X028242Y018894D01*
X028288Y018825D01*
X028357Y018779D01*
X028438Y018763D01*
X028516D01*
X029288Y017991D01*
Y017815D01*
X029238Y017794D01*
X029152Y017830D01*
X029050Y017843D01*
X028948Y017830D01*
X028853Y017791D01*
X028772Y017728D01*
X028738Y017685D01*
X028472D01*
X028263Y017893D01*
X028294Y017934D01*
X028325Y018009D01*
X028336Y018089D01*
Y018562D01*
X028325Y018642D01*
X028294Y018717D01*
X028245Y018782D01*
X028180Y018831D01*
X028105Y018862D01*
X028025Y018873D01*
X027944Y018862D01*
X027869Y018831D01*
X027867Y018830D01*
X027865Y018831D01*
X027790Y018862D01*
X027710Y018873D01*
X027629Y018862D01*
X027554Y018831D01*
X027552Y018830D01*
X027550Y018831D01*
X027475Y018862D01*
X027395Y018873D01*
X027314Y018862D01*
X027239Y018831D01*
X027237Y018830D01*
X027235Y018831D01*
X027160Y018862D01*
X027080Y018873D01*
X026999Y018862D01*
X026924Y018831D01*
X026922Y018830D01*
X026920Y018831D01*
X026845Y018862D01*
X026765Y018873D01*
X026684Y018862D01*
X026609Y018831D01*
X026607Y018830D01*
X026605Y018831D01*
X026530Y018862D01*
X026450Y018873D01*
X026370Y018862D01*
X026295Y018831D01*
X026293Y018830D01*
X026291Y018831D01*
X026216Y018862D01*
X026135Y018873D01*
X026055Y018862D01*
X025980Y018831D01*
X025915Y018782D01*
X025898Y018759D01*
X025895Y018759D01*
Y018756D01*
X025866Y018717D01*
X025835Y018642D01*
X025824Y018562D01*
Y018326D01*
X025816D01*
Y018562D01*
X025805Y018642D01*
X025774Y018717D01*
X025745Y018756D01*
Y018759D01*
X025743Y018759D01*
X025725Y018782D01*
X025661Y018831D01*
X025586Y018862D01*
X025505Y018873D01*
X025425Y018862D01*
X025350Y018831D01*
X025348Y018830D01*
X025346Y018831D01*
X025271Y018862D01*
X025190Y018873D01*
X025110Y018862D01*
X025035Y018831D01*
X025033Y018830D01*
X025031Y018831D01*
X024956Y018862D01*
X024875Y018873D01*
X024803Y018863D01*
X024781Y018881D01*
X024763Y018903D01*
X024773Y018975D01*
X024762Y019056D01*
X024731Y019131D01*
X024730Y019133D01*
X024731Y019135D01*
X024762Y019210D01*
X024773Y019290D01*
X024762Y019371D01*
X024731Y019446D01*
X024730Y019448D01*
X024731Y019450D01*
X024762Y019525D01*
X024773Y019605D01*
X024762Y019686D01*
X024731Y019761D01*
X024730Y019763D01*
X024731Y019765D01*
X024762Y019840D01*
X024773Y019920D01*
X024762Y020001D01*
X024731Y020076D01*
X024730Y020078D01*
X024731Y020080D01*
X024762Y020155D01*
X024773Y020235D01*
X024762Y020316D01*
X024731Y020391D01*
X024730Y020393D01*
X024731Y020395D01*
X024762Y020470D01*
X024773Y020550D01*
X024762Y020630D01*
X024731Y020705D01*
X024730Y020707D01*
X024731Y020710D01*
X024762Y020784D01*
X024773Y020865D01*
X024762Y020945D01*
X024731Y021020D01*
X024730Y021022D01*
X024731Y021024D01*
X024762Y021099D01*
X024773Y021180D01*
X024762Y021260D01*
X024731Y021335D01*
X024730Y021337D01*
X024731Y021339D01*
X024762Y021414D01*
X024773Y021495D01*
X024762Y021575D01*
X024731Y021650D01*
X024730Y021652D01*
X024731Y021654D01*
X024762Y021729D01*
X024773Y021810D01*
X024767Y021853D01*
X024800Y021890D01*
X028025D01*
X028092Y021904D01*
X028093Y021903D01*
D02*
G37*
G36*
X033538Y031641D02*
Y031307D01*
X032805D01*
Y030791D01*
X032156D01*
X032067Y030773D01*
X031990Y030722D01*
X031634Y030366D01*
X031583Y030290D01*
X031565Y030200D01*
Y028847D01*
X030284Y027566D01*
X030233Y027490D01*
X030215Y027400D01*
Y025562D01*
X030172Y025528D01*
X030109Y025447D01*
X030070Y025352D01*
X030058Y025261D01*
X030016Y025224D01*
X030002Y025230D01*
X029900Y025243D01*
X029845Y025236D01*
X029655Y025427D01*
Y028821D01*
X030398D01*
Y029271D01*
X030422Y029310D01*
X030490Y029319D01*
X030553Y029345D01*
X030607Y029387D01*
X031297Y030076D01*
X031346Y030097D01*
X031407Y030143D01*
X031453Y030204D01*
X031483Y030274D01*
X031483Y030275D01*
X031200D01*
Y030350D01*
X031125D01*
Y030633D01*
X031124Y030633D01*
X031054Y030603D01*
X030993Y030557D01*
X030947Y030496D01*
X030926Y030447D01*
X030444Y029965D01*
X030398Y029984D01*
Y030103D01*
X030418Y030106D01*
X030481Y030132D01*
X030535Y030174D01*
X030745Y030383D01*
X030745Y030383D01*
X030787Y030438D01*
X030813Y030501D01*
X030822Y030569D01*
X030822Y030569D01*
Y032250D01*
X030838Y032262D01*
X030850Y032278D01*
X032901D01*
X033538Y031641D01*
D02*
G37*
G36*
X013735Y026724D02*
X014765D01*
Y026738D01*
X014811Y026757D01*
X014934Y026634D01*
X014934Y026634D01*
X015010Y026583D01*
X015029Y026580D01*
Y026324D01*
X015231D01*
Y026176D01*
X015029D01*
Y025362D01*
X014550D01*
X014550Y025362D01*
X014482Y025353D01*
X014436Y025334D01*
X014424Y025333D01*
X014354Y025303D01*
X014293Y025257D01*
X014247Y025196D01*
X014217Y025126D01*
X014217Y025125D01*
X014500D01*
Y025050D01*
X014575D01*
Y024767D01*
X014576Y024767D01*
X014646Y024797D01*
X014700Y024838D01*
X014767D01*
Y024153D01*
X014911D01*
Y024016D01*
X014729D01*
Y023795D01*
X013164D01*
X013070Y023776D01*
X012991Y023723D01*
X012729Y023461D01*
X012706Y023471D01*
X012567Y023489D01*
X012428Y023471D01*
X012299Y023417D01*
X012188Y023332D01*
X012103Y023221D01*
X012049Y023092D01*
X012031Y022953D01*
X012049Y022815D01*
X012103Y022685D01*
X012188Y022574D01*
X012299Y022489D01*
X012307Y022486D01*
Y022436D01*
X012299Y022433D01*
X012188Y022348D01*
X012103Y022237D01*
X012049Y022108D01*
X012031Y021969D01*
X012049Y021830D01*
X012103Y021701D01*
X012188Y021590D01*
X012299Y021505D01*
X012305Y021503D01*
Y020383D01*
X012305Y020383D01*
X012256Y020374D01*
X012247Y020401D01*
X012173Y020540D01*
X012072Y020663D01*
X011949Y020764D01*
X011810Y020838D01*
X011658Y020884D01*
X011575Y020893D01*
Y020166D01*
X012302D01*
X012297Y020209D01*
X012305Y020216D01*
X012373Y020209D01*
X012381Y020198D01*
X012638Y019941D01*
Y019371D01*
X012420D01*
Y018526D01*
X012520D01*
Y018327D01*
X013280D01*
Y018526D01*
X013380D01*
Y019371D01*
X013162D01*
Y020050D01*
X013162Y020050D01*
X013153Y020118D01*
X013127Y020181D01*
X013085Y020235D01*
X013085Y020235D01*
X012829Y020492D01*
Y021503D01*
X012835Y021505D01*
X012925Y021574D01*
X012961Y021585D01*
X012996Y021574D01*
X013086Y021505D01*
X013092Y021503D01*
Y021046D01*
X013092Y021046D01*
X013101Y020978D01*
X013127Y020915D01*
X013169Y020860D01*
X014111Y019918D01*
X014111Y019918D01*
X014165Y019876D01*
X014229Y019850D01*
X014296Y019841D01*
X014620D01*
Y019608D01*
X016280D01*
Y020599D01*
X014620D01*
Y020366D01*
X014405D01*
X013617Y021154D01*
Y021503D01*
X013622Y021505D01*
X013733Y021590D01*
X013818Y021701D01*
X013872Y021830D01*
X013890Y021969D01*
X013872Y022108D01*
X013831Y022205D01*
X013865Y022255D01*
X014729D01*
Y022034D01*
X014911D01*
Y021897D01*
X014767D01*
Y021103D01*
X015521D01*
Y021203D01*
X015581D01*
Y021500D01*
Y021797D01*
X015521D01*
Y021897D01*
X015400D01*
Y022034D01*
X016271D01*
Y022255D01*
X017696D01*
X017722Y022222D01*
X017803Y022159D01*
X017898Y022120D01*
X018000Y022107D01*
X018102Y022120D01*
X018197Y022159D01*
X018278Y022222D01*
X018341Y022303D01*
X018380Y022398D01*
X018393Y022500D01*
X018380Y022602D01*
X018341Y022697D01*
X018278Y022778D01*
X018197Y022841D01*
X018102Y022880D01*
X018000Y022893D01*
X017898Y022880D01*
X017803Y022841D01*
X017722Y022778D01*
X017696Y022745D01*
X016271D01*
Y022966D01*
X014729D01*
Y022745D01*
X013909D01*
X013862Y022791D01*
X013872Y022815D01*
X013890Y022953D01*
X013872Y023092D01*
X013818Y023221D01*
X013788Y023260D01*
X013810Y023305D01*
X014729D01*
Y023084D01*
X016271D01*
Y023255D01*
X017899D01*
X018555Y022599D01*
Y021800D01*
X018574Y021706D01*
X018627Y021627D01*
X019180Y021074D01*
X019259Y021021D01*
X019353Y021003D01*
X021164D01*
X021189Y020960D01*
X021169Y020921D01*
X020924D01*
Y020748D01*
X020885Y020719D01*
X020795Y020701D01*
X020719Y020650D01*
X020719Y020650D01*
X020334Y020266D01*
X020283Y020190D01*
X020265Y020100D01*
Y019350D01*
X020283Y019260D01*
X020334Y019184D01*
X020734Y018784D01*
X020734Y018784D01*
X020810Y018733D01*
X020900Y018715D01*
X020920D01*
Y018528D01*
X021020D01*
Y018328D01*
X021400D01*
Y018253D01*
X021475D01*
Y017931D01*
X021484D01*
X021503Y017885D01*
X018303Y014685D01*
X016550D01*
X016460Y014667D01*
X016384Y014616D01*
X015634Y013866D01*
X015583Y013790D01*
X015565Y013700D01*
Y012882D01*
X015560Y012880D01*
X015451Y012822D01*
X015356Y012744D01*
X015325Y012706D01*
X015275D01*
X015244Y012744D01*
X015149Y012822D01*
X015040Y012880D01*
X015035Y012882D01*
Y013650D01*
X015017Y013740D01*
X014966Y013816D01*
X010735Y018047D01*
Y019709D01*
X010785Y019722D01*
X010827Y019642D01*
X010928Y019519D01*
X011051Y019418D01*
X011190Y019344D01*
X011342Y019298D01*
X011425Y019289D01*
Y020091D01*
Y020893D01*
X011342Y020884D01*
X011190Y020838D01*
X011051Y020764D01*
X010928Y020663D01*
X010827Y020540D01*
X010785Y020460D01*
X010735Y020473D01*
Y024450D01*
X010785Y024462D01*
X010827Y024382D01*
X010928Y024259D01*
X011051Y024159D01*
X011190Y024084D01*
X011342Y024038D01*
X011425Y024030D01*
Y024831D01*
Y025633D01*
X011342Y025625D01*
X011190Y025578D01*
X011051Y025504D01*
X010928Y025403D01*
X010827Y025281D01*
X010785Y025200D01*
X010735Y025213D01*
Y026502D01*
X010956Y026724D01*
X011615D01*
Y026965D01*
X013735D01*
Y026724D01*
D02*
G37*
G36*
X017812Y025200D02*
X017872Y025122D01*
X017953Y025059D01*
X018048Y025020D01*
X018150Y025007D01*
X018252Y025020D01*
X018274Y025029D01*
X018315Y025001D01*
Y024812D01*
X018272Y024778D01*
X018209Y024697D01*
X018170Y024602D01*
X018157Y024500D01*
X018170Y024398D01*
X018209Y024303D01*
X018272Y024222D01*
X018353Y024159D01*
X018448Y024120D01*
X018507Y024112D01*
X018504Y024062D01*
X018259D01*
X017762Y024559D01*
Y025168D01*
X017807Y025200D01*
X017812Y025200D01*
D02*
G37*
G36*
X015891Y028638D02*
X015913Y028585D01*
X015895Y028535D01*
X015895D01*
Y027465D01*
X016807D01*
Y027738D01*
X017238D01*
Y024450D01*
X017238Y024450D01*
X017247Y024382D01*
X017273Y024319D01*
X017315Y024265D01*
X017788Y023791D01*
X017769Y023745D01*
X016271D01*
Y024016D01*
X015400D01*
Y024153D01*
X015521D01*
Y024253D01*
X015581D01*
Y024550D01*
X015731D01*
Y024253D01*
X015933D01*
Y024358D01*
X015941Y024365D01*
X016320Y024743D01*
X016320Y024743D01*
X016362Y024798D01*
X016388Y024861D01*
X016397Y024929D01*
X016397Y024929D01*
Y025324D01*
X016471D01*
Y025625D01*
X016135D01*
Y025775D01*
X016471D01*
Y026076D01*
X016397D01*
Y026424D01*
X016471D01*
Y026725D01*
X016135D01*
Y026800D01*
X016060D01*
Y027176D01*
X015902D01*
Y027276D01*
X015692D01*
X015682Y027324D01*
X015631Y027400D01*
X015612Y027419D01*
X015632Y027465D01*
X015705D01*
Y028535D01*
X015678D01*
X015651Y028585D01*
X015672Y028616D01*
X015684Y028674D01*
X015886D01*
X015891Y028638D01*
D02*
G37*
G36*
X031515Y017315D02*
X031515Y017315D01*
X031569Y017273D01*
X031632Y017247D01*
X031700Y017238D01*
X031700Y017238D01*
X032760D01*
X032772Y017222D01*
X032853Y017159D01*
X032948Y017120D01*
X033050Y017107D01*
X033152Y017120D01*
X033179Y017131D01*
X033207Y017089D01*
X033003Y016885D01*
X028847D01*
X028562Y017169D01*
X028581Y017215D01*
X028738D01*
X028772Y017172D01*
X028853Y017109D01*
X028948Y017070D01*
X029050Y017057D01*
X029152Y017070D01*
X029247Y017109D01*
X029328Y017172D01*
X029391Y017253D01*
X029398Y017272D01*
X029447Y017282D01*
X029484Y017245D01*
X029484Y017245D01*
X029538Y017204D01*
X029601Y017177D01*
X029669Y017168D01*
X029669Y017168D01*
X029924D01*
Y017094D01*
X030225D01*
Y017431D01*
X030300D01*
Y017506D01*
X030676D01*
Y017664D01*
X030776D01*
Y017838D01*
X030991D01*
X031515Y017315D01*
D02*
G37*
G36*
X019034Y025434D02*
X019110Y025383D01*
X019200Y025365D01*
X020587D01*
X020604Y025315D01*
X020565Y025285D01*
X020565Y025285D01*
X019341Y024062D01*
X018596D01*
X018593Y024112D01*
X018652Y024120D01*
X018747Y024159D01*
X018828Y024222D01*
X018891Y024303D01*
X018930Y024398D01*
X018943Y024500D01*
X018930Y024602D01*
X018891Y024697D01*
X018828Y024778D01*
X018785Y024812D01*
Y025619D01*
X018831Y025638D01*
X019034Y025434D01*
D02*
G37*
G36*
X038975Y025767D02*
X038976Y025767D01*
X039046Y025797D01*
X039100Y025838D01*
X039150Y025825D01*
Y022981D01*
X038703Y022535D01*
X038350D01*
X038341Y022581D01*
X038341Y022585D01*
X038416Y022634D01*
X038696Y022914D01*
X038747Y022990D01*
X038765Y023080D01*
Y025747D01*
X038806Y025775D01*
X038824Y025767D01*
X038825Y025767D01*
Y026050D01*
X038975D01*
Y025767D01*
D02*
G37*
G36*
X026110Y029658D02*
X026108Y029606D01*
X026072Y029578D01*
X026009Y029497D01*
X025970Y029402D01*
X025957Y029300D01*
X025970Y029198D01*
X026009Y029103D01*
X026072Y029022D01*
X026153Y028959D01*
X026248Y028920D01*
X026350Y028907D01*
X026452Y028920D01*
X026547Y028959D01*
X026615Y029012D01*
X026665Y028994D01*
Y028789D01*
X026598Y028780D01*
X026503Y028741D01*
X026422Y028678D01*
X026359Y028597D01*
X026320Y028502D01*
X026307Y028400D01*
X026320Y028298D01*
X026359Y028203D01*
X026422Y028122D01*
X026503Y028059D01*
X026598Y028020D01*
X026700Y028007D01*
X026795Y028019D01*
X026815Y028013D01*
X026845Y027993D01*
Y026102D01*
X026799Y026082D01*
X026466Y026416D01*
X026390Y026467D01*
X026300Y026485D01*
X025797D01*
X025656Y026626D01*
X025668Y026685D01*
X025696Y026697D01*
X025757Y026743D01*
X025803Y026804D01*
X025833Y026874D01*
X025833Y026875D01*
X025550D01*
Y027025D01*
X025833D01*
X025833Y027026D01*
X025812Y027075D01*
Y027500D01*
X025803Y027568D01*
X025777Y027631D01*
X025735Y027685D01*
X025735Y027685D01*
X025112Y028309D01*
Y028821D01*
X025898D01*
Y029536D01*
X025798D01*
Y029648D01*
X025898D01*
Y029731D01*
X026037D01*
X026110Y029658D01*
D02*
G37*
G36*
X019555Y028821D02*
X020265D01*
Y027447D01*
X019955Y027136D01*
X019900Y027143D01*
X019798Y027130D01*
X019703Y027091D01*
X019622Y027028D01*
X019559Y026947D01*
X019520Y026852D01*
X019507Y026750D01*
X019520Y026648D01*
X019559Y026553D01*
X019622Y026472D01*
X019703Y026409D01*
X019798Y026370D01*
X019900Y026357D01*
X020002Y026370D01*
X020097Y026409D01*
X020178Y026472D01*
X020222D01*
X020303Y026409D01*
X020398Y026370D01*
X020500Y026357D01*
X020602Y026370D01*
X020697Y026409D01*
X020743Y026445D01*
X020811Y026436D01*
X020822Y026422D01*
X020903Y026359D01*
X020998Y026320D01*
X021100Y026307D01*
X021202Y026320D01*
X021297Y026359D01*
X021378Y026422D01*
X021441Y026503D01*
X021480Y026598D01*
X021493Y026700D01*
X021486Y026755D01*
X023019Y028288D01*
X023065Y028269D01*
Y028250D01*
X023083Y028160D01*
X023134Y028084D01*
X025038Y026181D01*
X025019Y026135D01*
X022712D01*
X022678Y026178D01*
X022597Y026241D01*
X022502Y026280D01*
X022400Y026293D01*
X022298Y026280D01*
X022203Y026241D01*
X022122Y026178D01*
X022088Y026135D01*
X019547D01*
X019435Y026247D01*
Y029503D01*
X019466Y029534D01*
X019555D01*
Y028821D01*
D02*
G37*
G36*
X017915Y030480D02*
Y025712D01*
X017872Y025678D01*
X017812Y025600D01*
X017807Y025600D01*
X017762Y025632D01*
Y028000D01*
X017753Y028068D01*
X017727Y028131D01*
X017685Y028185D01*
X017631Y028227D01*
X017568Y028253D01*
X017500Y028262D01*
X016807D01*
Y028535D01*
X016609D01*
X016604Y028567D01*
X016579Y028628D01*
X016571Y028674D01*
X016571Y028674D01*
X016571Y028674D01*
Y029206D01*
X017865Y030500D01*
X017915Y030480D01*
D02*
G37*
G36*
X022994Y024624D02*
X023239D01*
X023258Y024596D01*
X023675Y024179D01*
X023658Y024126D01*
X023604Y024103D01*
X023543Y024057D01*
X023497Y023996D01*
X023467Y023926D01*
X023466Y023912D01*
X022649Y023095D01*
X021876D01*
Y023186D01*
X021575D01*
Y022850D01*
X021500D01*
Y022775D01*
X021124D01*
Y022617D01*
X021024D01*
Y022443D01*
X020662D01*
Y022850D01*
X020662Y022850D01*
X020653Y022918D01*
X020627Y022981D01*
X020585Y023035D01*
X020585Y023035D01*
X019821Y023800D01*
X020859Y024838D01*
X022994D01*
Y024624D01*
D02*
G37*
G36*
X024556Y018656D02*
X024574Y018634D01*
X024564Y018562D01*
Y018089D01*
X024575Y018009D01*
X024606Y017934D01*
X024620Y017916D01*
X023286Y016582D01*
X023200Y016593D01*
X023137Y016585D01*
X023114Y016632D01*
X024391Y017910D01*
X024391Y017910D01*
X024442Y017986D01*
X024460Y018076D01*
X024460Y018076D01*
Y018664D01*
X024462D01*
X024534Y018674D01*
X024556Y018656D01*
D02*
G37*
G36*
X028305Y029258D02*
Y028821D01*
X029065D01*
Y025621D01*
X029056Y025576D01*
X028882D01*
Y026376D01*
X028941Y026453D01*
X028980Y026548D01*
X028993Y026650D01*
X028980Y026752D01*
X028941Y026847D01*
X028878Y026928D01*
X028797Y026991D01*
X028702Y027030D01*
X028600Y027043D01*
X028498Y027030D01*
X028403Y026991D01*
X028322Y026928D01*
X028259Y026847D01*
X028220Y026752D01*
X028207Y026650D01*
X028220Y026548D01*
X028259Y026453D01*
X028322Y026372D01*
X028357Y026345D01*
Y025576D01*
X028183D01*
Y025476D01*
X028112D01*
Y026675D01*
X028133Y026724D01*
X028133Y026725D01*
X027850D01*
Y026800D01*
X027775D01*
Y027083D01*
X027774Y027083D01*
X027704Y027053D01*
X027679Y027035D01*
X027629Y027059D01*
Y027111D01*
X027702Y027120D01*
X027797Y027159D01*
X027878Y027222D01*
X027941Y027303D01*
X027980Y027398D01*
X027993Y027500D01*
X027980Y027602D01*
X027941Y027697D01*
X027878Y027778D01*
X027835Y027812D01*
Y028853D01*
X028259Y029277D01*
X028305Y029258D01*
D02*
G37*
G36*
X038807Y031354D02*
X038787Y031307D01*
X038157D01*
Y030816D01*
X038118Y030784D01*
X038084Y030791D01*
X038045D01*
Y031307D01*
X037055D01*
Y030593D01*
Y030238D01*
Y030003D01*
X036969D01*
X036879Y029986D01*
X036803Y029935D01*
X034201Y027332D01*
X034155Y027351D01*
Y028821D01*
X034898D01*
Y029310D01*
X035372D01*
X035372Y029310D01*
X035440Y029319D01*
X035503Y029345D01*
X035557Y029387D01*
X036047Y029876D01*
X036096Y029897D01*
X036157Y029943D01*
X036203Y030004D01*
X036233Y030074D01*
X036233Y030075D01*
X035950D01*
Y030150D01*
X035875D01*
Y030433D01*
X035874Y030433D01*
X035804Y030403D01*
X035743Y030357D01*
X035697Y030296D01*
X035676Y030247D01*
X035263Y029834D01*
X034898D01*
Y030041D01*
Y030593D01*
Y031307D01*
X034062D01*
Y031750D01*
X034062Y031750D01*
X034053Y031818D01*
X034027Y031881D01*
X033985Y031935D01*
X033985Y031935D01*
X033689Y032232D01*
X033708Y032278D01*
X037882D01*
X038807Y031354D01*
D02*
G37*
G36*
X025979Y039679D02*
X026073Y039607D01*
X026183Y039562D01*
X026300Y039546D01*
X026417Y039562D01*
X026515Y039602D01*
X026565Y039580D01*
Y039297D01*
X026043Y038775D01*
X026003Y038804D01*
X026033Y038874D01*
X026033Y038875D01*
X025750D01*
Y038950D01*
X025675D01*
Y039233D01*
X025674Y039233D01*
X025604Y039203D01*
X025550Y039162D01*
X025306D01*
Y039276D01*
X025089D01*
Y039641D01*
X025139Y039681D01*
X025181Y039675D01*
X025673D01*
X025748Y039685D01*
X025818Y039714D01*
X025841Y039732D01*
X025939D01*
X025979Y039679D01*
D02*
G37*
G36*
X022079Y019827D02*
X022109Y019753D01*
X022172Y019672D01*
X022253Y019609D01*
X022305Y019588D01*
X022298Y019537D01*
X022248Y019530D01*
X022153Y019491D01*
X022072Y019428D01*
X022009Y019347D01*
X021970Y019252D01*
X021957Y019150D01*
X021970Y019048D01*
X022009Y018953D01*
X022072Y018872D01*
X022153Y018809D01*
X022248Y018770D01*
X022310Y018762D01*
X022328Y018709D01*
X021826Y018207D01*
X021780Y018226D01*
Y018528D01*
X021880D01*
Y019372D01*
X021880D01*
X021876Y019379D01*
Y019694D01*
X022024Y019842D01*
X022079Y019827D01*
D02*
G37*
G36*
X025843Y041874D02*
X025807Y041827D01*
X025762Y041717D01*
X025746Y041600D01*
X025762Y041483D01*
X025785Y041426D01*
X025757Y041385D01*
X024531D01*
X024512Y041431D01*
X025006Y041924D01*
X025819D01*
X025843Y041874D01*
D02*
G37*
G36*
X034964Y026495D02*
X034953Y026491D01*
X034872Y026428D01*
X034809Y026347D01*
X034770Y026252D01*
X034757Y026150D01*
X034770Y026048D01*
X034809Y025953D01*
X034872Y025872D01*
X034953Y025809D01*
X035048Y025770D01*
X035150Y025757D01*
X035168Y025759D01*
X035215Y025717D01*
Y024350D01*
X035233Y024260D01*
X035284Y024184D01*
X036334Y023134D01*
X036410Y023083D01*
X036500Y023065D01*
X036506D01*
X036516Y023054D01*
X036529Y023015D01*
X036486Y022960D01*
X036454Y022883D01*
X036443Y022800D01*
X036454Y022717D01*
X036486Y022640D01*
X036529Y022584D01*
X036534Y022550D01*
X036529Y022516D01*
X036486Y022460D01*
X036454Y022383D01*
X036443Y022300D01*
X036454Y022217D01*
X036486Y022140D01*
X036529Y022084D01*
X036534Y022050D01*
X036529Y022016D01*
X036486Y021960D01*
X036454Y021883D01*
X036443Y021800D01*
X036454Y021717D01*
X036486Y021640D01*
X036529Y021584D01*
X036534Y021550D01*
X036529Y021516D01*
X036486Y021460D01*
X036454Y021383D01*
X036443Y021300D01*
X036454Y021217D01*
X036486Y021140D01*
X036529Y021084D01*
X036534Y021050D01*
X036529Y021016D01*
X036486Y020960D01*
X036454Y020883D01*
X036443Y020800D01*
X036454Y020717D01*
X036486Y020640D01*
X036529Y020584D01*
X036534Y020550D01*
X036529Y020516D01*
X036486Y020460D01*
X036454Y020383D01*
X036443Y020300D01*
X036454Y020217D01*
X036486Y020140D01*
X036529Y020084D01*
X036534Y020050D01*
X036529Y020016D01*
X036486Y019960D01*
X036454Y019883D01*
X036443Y019800D01*
X036454Y019717D01*
X036486Y019640D01*
X036529Y019584D01*
X036534Y019550D01*
X036529Y019516D01*
X036486Y019460D01*
X036454Y019383D01*
X036443Y019300D01*
X036430Y019285D01*
X035500D01*
X035500Y019285D01*
X035410Y019267D01*
X035334Y019216D01*
X035334Y019216D01*
X033461Y017343D01*
X033419Y017371D01*
X033430Y017398D01*
X033443Y017500D01*
X033430Y017602D01*
X033391Y017697D01*
X033328Y017778D01*
X033247Y017841D01*
X033152Y017880D01*
X033050Y017893D01*
X032948Y017880D01*
X032853Y017841D01*
X032772Y017778D01*
X032760Y017762D01*
X031809D01*
X031285Y018285D01*
X031231Y018327D01*
X031168Y018353D01*
X031100Y018362D01*
X031100Y018362D01*
X030776D01*
Y018536D01*
X030335D01*
X029897Y018974D01*
X029916Y019026D01*
X029997Y019059D01*
X030078Y019122D01*
X030141Y019203D01*
X030180Y019298D01*
X030188Y019360D01*
X030241Y019378D01*
X030284Y019334D01*
X030284Y019334D01*
X030301Y019323D01*
X030309Y019303D01*
X030372Y019222D01*
X030453Y019159D01*
X030548Y019120D01*
X030650Y019107D01*
X030752Y019120D01*
X030847Y019159D01*
X030928Y019222D01*
X030991Y019303D01*
X031030Y019398D01*
X031043Y019500D01*
X031030Y019602D01*
X030991Y019697D01*
X030928Y019778D01*
X030888Y019809D01*
X030893Y019848D01*
X030901Y019862D01*
X030978Y019922D01*
X031041Y020003D01*
X031080Y020098D01*
X031093Y020200D01*
X031080Y020302D01*
X031041Y020397D01*
X030978Y020478D01*
X030897Y020541D01*
X030802Y020580D01*
X030700Y020593D01*
X030654Y020587D01*
X030631Y020635D01*
X031308Y021312D01*
X031333Y021306D01*
X031358Y021291D01*
X031370Y021198D01*
X031409Y021103D01*
X031472Y021022D01*
X031553Y020959D01*
X031648Y020920D01*
X031750Y020907D01*
X031852Y020920D01*
X031938Y020956D01*
X031961Y020941D01*
X031978Y020920D01*
X031970Y020902D01*
X031957Y020800D01*
X031970Y020698D01*
X032008Y020607D01*
X032006Y020602D01*
X031960Y020580D01*
X031947Y020591D01*
X031852Y020630D01*
X031750Y020643D01*
X031648Y020630D01*
X031553Y020591D01*
X031472Y020528D01*
X031409Y020447D01*
X031370Y020352D01*
X031357Y020250D01*
X031370Y020148D01*
X031409Y020053D01*
X031472Y019972D01*
X031553Y019909D01*
X031648Y019870D01*
X031750Y019857D01*
X031852Y019870D01*
X031919Y019898D01*
X031965Y019863D01*
X031957Y019800D01*
X031970Y019698D01*
X032009Y019603D01*
X032072Y019522D01*
X032153Y019459D01*
X032248Y019420D01*
X032350Y019407D01*
X032405Y019414D01*
X032570Y019248D01*
X032542Y019206D01*
X032532Y019210D01*
X032430Y019223D01*
X032328Y019210D01*
X032233Y019171D01*
X032152Y019108D01*
X032089Y019027D01*
X032050Y018932D01*
X032037Y018830D01*
X032050Y018728D01*
X032089Y018633D01*
X032152Y018552D01*
X032233Y018489D01*
X032328Y018450D01*
X032430Y018437D01*
X032532Y018450D01*
X032627Y018489D01*
X032708Y018552D01*
X032719Y018565D01*
X032807D01*
X032864Y018522D01*
X032877Y018517D01*
X032881Y018467D01*
X032867Y018457D01*
X032819Y018385D01*
X032817Y018375D01*
X033280D01*
X033743D01*
X033741Y018385D01*
X033693Y018457D01*
X033678Y018467D01*
X033683Y018517D01*
X033696Y018522D01*
X033763Y018573D01*
X033814Y018640D01*
X033846Y018717D01*
X033857Y018800D01*
X033846Y018883D01*
X033814Y018960D01*
X033771Y019016D01*
X033766Y019050D01*
X033771Y019084D01*
X033814Y019140D01*
X033846Y019217D01*
X033857Y019300D01*
X033846Y019383D01*
X033814Y019460D01*
X033763Y019527D01*
Y019573D01*
X033814Y019640D01*
X033846Y019717D01*
X033857Y019800D01*
X033846Y019883D01*
X033814Y019960D01*
X033763Y020027D01*
Y020073D01*
X033814Y020140D01*
X033846Y020217D01*
X033857Y020300D01*
X033846Y020383D01*
X033814Y020460D01*
X033763Y020527D01*
Y020573D01*
X033814Y020640D01*
X033846Y020717D01*
X033857Y020800D01*
X033846Y020883D01*
X033814Y020960D01*
X033763Y021027D01*
Y021073D01*
X033814Y021140D01*
X033846Y021217D01*
X033857Y021300D01*
X033846Y021383D01*
X033814Y021460D01*
X033763Y021527D01*
Y021573D01*
X033814Y021640D01*
X033846Y021717D01*
X033857Y021800D01*
X033846Y021883D01*
X033814Y021960D01*
X033763Y022027D01*
Y022073D01*
X033814Y022140D01*
X033846Y022217D01*
X033857Y022300D01*
X033846Y022383D01*
X033814Y022460D01*
X033763Y022527D01*
Y022573D01*
X033814Y022640D01*
X033846Y022717D01*
X033857Y022800D01*
X033846Y022883D01*
X033814Y022960D01*
X033763Y023027D01*
Y023073D01*
X033814Y023140D01*
X033846Y023217D01*
X033857Y023300D01*
X033846Y023383D01*
X033814Y023460D01*
X033763Y023527D01*
Y023573D01*
X033814Y023640D01*
X033846Y023717D01*
X033857Y023800D01*
X033846Y023883D01*
X033814Y023960D01*
X033763Y024027D01*
X033696Y024078D01*
X033619Y024110D01*
X033536Y024121D01*
X033024D01*
X032941Y024110D01*
X032864Y024078D01*
X032820Y024045D01*
X032356D01*
X032337Y024091D01*
X034791Y026545D01*
X034955D01*
X034964Y026495D01*
D02*
G37*
G36*
X024029Y015777D02*
Y015285D01*
X020307Y011562D01*
X017369D01*
X017335Y011625D01*
X017363Y011675D01*
X017425D01*
Y012925D01*
X017222D01*
X017203Y012971D01*
X017447Y013215D01*
X017906D01*
X017928Y013171D01*
X017909Y013147D01*
X017870Y013052D01*
X017857Y012950D01*
X017870Y012848D01*
X017909Y012753D01*
X017972Y012672D01*
X018053Y012609D01*
X018148Y012570D01*
X018250Y012557D01*
X018352Y012570D01*
X018447Y012609D01*
X018528Y012672D01*
X018562Y012715D01*
X020800D01*
X020890Y012733D01*
X020966Y012784D01*
X023979Y015797D01*
X024029Y015777D01*
D02*
G37*
G36*
X024621Y040865D02*
X024598Y040831D01*
X024579Y040734D01*
Y039376D01*
X024517D01*
X024480Y039430D01*
X024210Y039701D01*
X024213Y039751D01*
X024225Y039760D01*
X024271Y039821D01*
X024300Y039891D01*
X024310Y039966D01*
X024300Y040041D01*
X024279Y040094D01*
X024300Y040147D01*
X024310Y040222D01*
X024300Y040297D01*
X024279Y040350D01*
X024300Y040403D01*
X024310Y040478D01*
X024300Y040553D01*
X024279Y040606D01*
X024300Y040659D01*
X024310Y040734D01*
X024300Y040809D01*
X024277Y040865D01*
X024301Y040915D01*
X024594D01*
X024621Y040865D01*
D02*
G37*
G36*
X030905Y022594D02*
Y021601D01*
X030271Y020967D01*
X030229Y020996D01*
X030230Y020998D01*
X030243Y021100D01*
X030230Y021202D01*
X030191Y021297D01*
X030128Y021378D01*
X030047Y021441D01*
X029952Y021480D01*
X029850Y021493D01*
X029804Y021487D01*
X029781Y021535D01*
X030859Y022613D01*
X030905Y022594D01*
D02*
G37*
G36*
X014565Y013553D02*
Y012882D01*
X014560Y012880D01*
X014451Y012822D01*
X014356Y012744D01*
X014278Y012649D01*
X014220Y012540D01*
X014184Y012423D01*
X014172Y012300D01*
X014184Y012177D01*
X014220Y012060D01*
X014278Y011951D01*
X014356Y011856D01*
X014451Y011778D01*
X014475Y011765D01*
X014479Y011715D01*
X014426Y011674D01*
X014341Y011565D01*
X014289Y011437D01*
X014280Y011375D01*
X014800D01*
Y011300D01*
X014875D01*
Y010780D01*
X014937Y010789D01*
X015065Y010841D01*
X015174Y010926D01*
X015215Y010979D01*
X015265Y010975D01*
X015278Y010951D01*
X015356Y010856D01*
X015451Y010778D01*
X015560Y010720D01*
X015625Y010700D01*
X015617Y010650D01*
X012475D01*
Y011425D01*
X011500D01*
Y011500D01*
X011425D01*
Y012475D01*
X010600D01*
Y017453D01*
X010646Y017472D01*
X014565Y013553D01*
D02*
G37*
G36*
X039350Y031617D02*
X039304Y031598D01*
X038241Y032661D01*
X038237Y032672D01*
X038195Y032726D01*
X038141Y032768D01*
X038077Y032794D01*
X038009Y032803D01*
X033009D01*
X033009Y032803D01*
X033009Y032803D01*
X030850D01*
X030838Y032819D01*
X030756Y032881D01*
X030661Y032921D01*
X030559Y032934D01*
X030458Y032921D01*
X030363Y032881D01*
X030281Y032819D01*
X030219Y032737D01*
X030179Y032642D01*
X030166Y032541D01*
X030179Y032439D01*
X030219Y032344D01*
X030281Y032262D01*
X030297Y032250D01*
Y031307D01*
X029407D01*
Y030732D01*
X029357Y030711D01*
X029346Y030722D01*
X029295Y030756D01*
Y031307D01*
X028305D01*
Y030593D01*
Y030397D01*
X027314D01*
Y034043D01*
X027998D01*
Y034570D01*
X028033Y034577D01*
X028110Y034628D01*
X028316Y034834D01*
X028367Y034910D01*
X028385Y035000D01*
Y036300D01*
X028367Y036390D01*
X028316Y036466D01*
X028066Y036716D01*
X027990Y036767D01*
X027900Y036785D01*
X025850D01*
X025760Y036767D01*
X025684Y036716D01*
X024934Y035966D01*
X024883Y035890D01*
X024865Y035800D01*
Y031731D01*
X024819Y031712D01*
X024735Y031797D01*
Y035150D01*
X024735Y035150D01*
X024717Y035240D01*
X024666Y035316D01*
X024666Y035316D01*
X024178Y035803D01*
X024102Y035854D01*
X024013Y035872D01*
X023695D01*
Y036585D01*
X023022D01*
X023003Y036632D01*
X023659Y037288D01*
X024175D01*
X024224Y037267D01*
X024225Y037267D01*
Y037550D01*
X024300D01*
Y037625D01*
X024583D01*
X024583Y037626D01*
X024566Y037665D01*
X024599Y037715D01*
X026100D01*
X026190Y037733D01*
X026266Y037784D01*
X027216Y038734D01*
X027267Y038810D01*
X027285Y038900D01*
Y040700D01*
X027267Y040790D01*
X027216Y040866D01*
X026766Y041316D01*
X026690Y041367D01*
X026648Y041375D01*
X026617Y041432D01*
X026638Y041483D01*
X026654Y041600D01*
X026640Y041708D01*
X026856Y041924D01*
X028221D01*
Y042876D01*
X028029D01*
Y043393D01*
X028107D01*
Y044107D01*
X027413D01*
X027413Y044108D01*
X027387Y044172D01*
X027345Y044226D01*
X027345Y044226D01*
X027235Y044335D01*
X027216Y044350D01*
X027233Y044400D01*
X036525D01*
Y043575D01*
X038475D01*
Y044400D01*
X039350D01*
Y031617D01*
D02*
G37*
G36*
X025284Y044350D02*
X025265Y044335D01*
X025265Y044335D01*
X025174Y044245D01*
X025132Y044191D01*
X025106Y044127D01*
X025097Y044059D01*
X025095Y044012D01*
X021100D01*
X021100Y044012D01*
X021100Y044012D01*
X019950D01*
X019950Y044012D01*
X019882Y044003D01*
X019819Y043977D01*
X019765Y043935D01*
X019765Y043935D01*
X019579Y043750D01*
X019515Y043756D01*
X019335Y043935D01*
X019281Y043977D01*
X019218Y044003D01*
X019150Y044012D01*
X019150Y044012D01*
X017950D01*
X017950Y044012D01*
X017882Y044003D01*
X017819Y043977D01*
X017765Y043935D01*
X017765Y043935D01*
X017525Y043696D01*
X017285Y043935D01*
X017231Y043977D01*
X017168Y044003D01*
X017100Y044012D01*
X017100Y044012D01*
X015950D01*
X015950Y044012D01*
X015882Y044003D01*
X015819Y043977D01*
X015765Y043935D01*
X015765Y043935D01*
X015446Y043617D01*
X015425Y043619D01*
Y043150D01*
Y042681D01*
X015474Y042687D01*
X015590Y042735D01*
X015689Y042811D01*
X015765Y042910D01*
X015771Y042925D01*
X015821D01*
X015848Y042860D01*
X015940Y042740D01*
X016060Y042648D01*
X016115Y042625D01*
Y041326D01*
X015874D01*
Y040460D01*
X015720D01*
X015695Y040510D01*
X015743Y040573D01*
X015788Y040683D01*
X015804Y040800D01*
X015788Y040917D01*
X015743Y041027D01*
X015671Y041121D01*
X015577Y041193D01*
X015467Y041238D01*
X015350Y041254D01*
X015233Y041238D01*
X015123Y041193D01*
X015029Y041121D01*
X014957Y041027D01*
X014912Y040917D01*
X014896Y040800D01*
X014912Y040683D01*
X014957Y040573D01*
X015005Y040510D01*
X014980Y040460D01*
X014826D01*
Y041321D01*
X014585D01*
Y042625D01*
X014640Y042648D01*
X014760Y042740D01*
X014852Y042860D01*
X014879Y042925D01*
X014929D01*
X014935Y042910D01*
X015011Y042811D01*
X015110Y042735D01*
X015226Y042687D01*
X015275Y042681D01*
Y043150D01*
Y043619D01*
X015254Y043617D01*
X014885Y043985D01*
X014831Y044027D01*
X014768Y044053D01*
X014700Y044062D01*
X014700Y044062D01*
X014000D01*
X014000Y044062D01*
X013932Y044053D01*
X013869Y044027D01*
X013815Y043985D01*
X013815Y043985D01*
X013446Y043617D01*
X013425Y043619D01*
Y043150D01*
Y042681D01*
X013474Y042687D01*
X013590Y042735D01*
X013689Y042811D01*
X013765Y042910D01*
X013771Y042925D01*
X013821D01*
X013848Y042860D01*
X013940Y042740D01*
X014060Y042648D01*
X014115Y042625D01*
Y041321D01*
X013874D01*
Y040468D01*
Y039779D01*
X014826D01*
Y039951D01*
X015874D01*
Y039785D01*
X016826D01*
Y040474D01*
Y041326D01*
X016585D01*
Y042625D01*
X016640Y042648D01*
X016760Y042740D01*
X016852Y042860D01*
X016879Y042925D01*
X016929D01*
X016935Y042910D01*
X017011Y042811D01*
X017110Y042735D01*
X017226Y042687D01*
X017275Y042681D01*
Y043150D01*
X017425D01*
Y042681D01*
X017474Y042687D01*
X017590Y042735D01*
X017689Y042811D01*
X017765Y042910D01*
X017771Y042925D01*
X017821D01*
X017848Y042860D01*
X017940Y042740D01*
X018060Y042648D01*
X018115Y042625D01*
Y041326D01*
X017874D01*
Y041135D01*
X017720D01*
X017647Y041191D01*
X017552Y041230D01*
X017450Y041243D01*
X017348Y041230D01*
X017253Y041191D01*
X017172Y041128D01*
X017109Y041047D01*
X017070Y040952D01*
X017057Y040850D01*
X017070Y040748D01*
X017109Y040653D01*
X017172Y040572D01*
X017253Y040509D01*
X017348Y040470D01*
X017450Y040457D01*
X017552Y040470D01*
X017647Y040509D01*
X017728Y040572D01*
X017791Y040653D01*
X017796Y040665D01*
X017874D01*
Y040474D01*
Y039785D01*
X018088D01*
Y037609D01*
X017765Y037285D01*
X017723Y037231D01*
X017697Y037168D01*
X017688Y037100D01*
X017688Y037100D01*
Y036490D01*
X017672Y036478D01*
X017609Y036397D01*
X017570Y036302D01*
X017557Y036200D01*
X017570Y036098D01*
X017609Y036003D01*
X017672Y035922D01*
X017688Y035910D01*
Y035076D01*
X017190D01*
Y036243D01*
X017228Y036272D01*
X017291Y036353D01*
X017330Y036448D01*
X017343Y036550D01*
X017330Y036652D01*
X017291Y036747D01*
X017228Y036828D01*
X017147Y036891D01*
X017052Y036930D01*
X016950Y036943D01*
X016848Y036930D01*
X016753Y036891D01*
X016672Y036828D01*
X016609Y036747D01*
X016570Y036652D01*
X016557Y036550D01*
X016570Y036448D01*
X016609Y036353D01*
X016672Y036272D01*
X016721Y036234D01*
Y035076D01*
X016529D01*
Y034873D01*
X016479Y034853D01*
X015694Y035638D01*
X015618Y035689D01*
X015528Y035707D01*
X015121D01*
Y036145D01*
X013619D01*
Y035707D01*
X012720D01*
Y036145D01*
X011217D01*
Y034800D01*
X012720D01*
Y035238D01*
X013619D01*
Y034800D01*
X015121D01*
Y035238D01*
X015431D01*
X016234Y034434D01*
X016310Y034383D01*
X016400Y034365D01*
X016529D01*
Y034124D01*
X017382D01*
Y033226D01*
X016579D01*
Y032985D01*
X015550D01*
X015460Y032967D01*
X015384Y032916D01*
X015003Y032535D01*
X013285D01*
X013195Y032517D01*
X013119Y032466D01*
X012309Y031656D01*
X011217D01*
Y030311D01*
X012720D01*
Y031403D01*
X013382Y032065D01*
X015100D01*
X015190Y032083D01*
X015266Y032134D01*
X015647Y032515D01*
X016579D01*
Y032274D01*
X016771D01*
Y032148D01*
X016753Y032141D01*
X016672Y032078D01*
X016609Y031997D01*
X016570Y031902D01*
X016557Y031800D01*
X016570Y031698D01*
X016609Y031603D01*
X016672Y031522D01*
X016753Y031459D01*
X016848Y031420D01*
X016950Y031407D01*
X017052Y031420D01*
X017147Y031459D01*
X017228Y031522D01*
X017291Y031603D01*
X017330Y031698D01*
X017343Y031800D01*
X017330Y031902D01*
X017291Y031997D01*
X017240Y032063D01*
Y032274D01*
X017432D01*
Y030809D01*
X016249Y029626D01*
X015528D01*
X015456Y029640D01*
X015383Y029626D01*
X015029D01*
Y028674D01*
X015029D01*
X015056Y028624D01*
X015032Y028589D01*
X015021Y028535D01*
X014793D01*
Y027714D01*
X014765Y027676D01*
X013735D01*
Y027435D01*
X011615D01*
Y027676D01*
X010600D01*
Y042525D01*
X011425D01*
Y043500D01*
X011500D01*
Y043575D01*
X012475D01*
Y044400D01*
X025267D01*
X025284Y044350D01*
D02*
G37*
G36*
X021425Y042681D02*
X021474Y042687D01*
X021590Y042735D01*
X021689Y042811D01*
X021725Y042858D01*
X021775Y042841D01*
Y042575D01*
X022115D01*
Y041321D01*
X021874D01*
Y040468D01*
Y039779D01*
X022826D01*
Y039988D01*
X023217D01*
X023236Y039966D01*
X023246Y039891D01*
X023275Y039821D01*
X023321Y039760D01*
X023382Y039714D01*
X023452Y039685D01*
X023527Y039675D01*
X023541D01*
X023593Y039597D01*
X023864Y039326D01*
Y039155D01*
X022306D01*
X021075Y040386D01*
X020992Y040441D01*
X020894Y040460D01*
X020826D01*
Y041321D01*
X020585D01*
Y042625D01*
X020640Y042648D01*
X020760Y042740D01*
X020852Y042860D01*
X020879Y042925D01*
X020929D01*
X020935Y042910D01*
X021011Y042811D01*
X021110Y042735D01*
X021226Y042687D01*
X021275Y042681D01*
Y043150D01*
X021425D01*
Y042681D01*
D02*
G37*
G36*
X025593Y043393D02*
X025715D01*
Y042876D01*
X024835D01*
Y042416D01*
X024153Y041735D01*
X024037D01*
X023971Y041821D01*
X023877Y041893D01*
X023767Y041938D01*
X023650Y041954D01*
X023533Y041938D01*
X023423Y041893D01*
X023329Y041821D01*
X023257Y041727D01*
X023212Y041617D01*
X023196Y041500D01*
X023212Y041383D01*
X023257Y041273D01*
X023329Y041179D01*
X023423Y041107D01*
X023506Y041073D01*
X023499Y041021D01*
X023452Y041015D01*
X023382Y040986D01*
X023321Y040940D01*
X023275Y040879D01*
X023246Y040809D01*
X023236Y040734D01*
X023246Y040659D01*
X023268Y040606D01*
X023246Y040553D01*
X023236Y040478D01*
X023217Y040457D01*
X022826D01*
Y041321D01*
X022585D01*
Y042575D01*
X022925D01*
Y043488D01*
X025359D01*
X025396Y043493D01*
X025593D01*
Y043393D01*
D02*
G37*
G36*
X026897Y043750D02*
X026902Y043714D01*
Y043493D01*
X027123D01*
X027159Y043488D01*
X027196Y043493D01*
X027393D01*
Y043393D01*
X027560D01*
Y042876D01*
X026679D01*
Y042411D01*
X026423Y042154D01*
X026376Y042173D01*
Y042876D01*
X026185D01*
Y043393D01*
X026307D01*
Y043888D01*
X026897D01*
Y043750D01*
D02*
G37*
G36*
X019425Y042681D02*
X019474Y042687D01*
X019590Y042735D01*
X019689Y042811D01*
X019765Y042910D01*
X019771Y042925D01*
X019821D01*
X019848Y042860D01*
X019940Y042740D01*
X020060Y042648D01*
X020115Y042625D01*
Y041321D01*
X019874D01*
Y040460D01*
X019605D01*
Y040528D01*
X019671Y040579D01*
X019743Y040673D01*
X019788Y040783D01*
X019804Y040900D01*
X019788Y041017D01*
X019743Y041127D01*
X019671Y041221D01*
X019577Y041293D01*
X019467Y041338D01*
X019350Y041354D01*
X019233Y041338D01*
X019123Y041293D01*
X019029Y041221D01*
X018957Y041127D01*
X018912Y041017D01*
X018896Y040900D01*
X018912Y040783D01*
X018957Y040673D01*
X019029Y040579D01*
X019095Y040528D01*
Y040460D01*
X018826D01*
Y041326D01*
X018585D01*
Y042625D01*
X018640Y042648D01*
X018760Y042740D01*
X018852Y042860D01*
X018879Y042925D01*
X018929D01*
X018935Y042910D01*
X019011Y042811D01*
X019110Y042735D01*
X019226Y042687D01*
X019275Y042681D01*
Y043150D01*
X019425D01*
Y042681D01*
D02*
G37*
G36*
X023989Y018664D02*
X023991D01*
Y018173D01*
X019503Y013685D01*
X019078D01*
X019066Y013722D01*
X019066Y013735D01*
X023816Y018484D01*
X023816Y018484D01*
X023867Y018560D01*
X023881Y018632D01*
X023896Y018655D01*
X023935Y018671D01*
X023989Y018664D01*
D02*
G37*
G36*
X022815Y016263D02*
X022807Y016200D01*
X022820Y016098D01*
X022859Y016003D01*
X022922Y015922D01*
X023003Y015859D01*
X023098Y015820D01*
X023200Y015807D01*
X023263Y015815D01*
X023286Y015768D01*
X020703Y013185D01*
X019700D01*
X019691Y013231D01*
X019691Y013235D01*
X019766Y013284D01*
X022768Y016286D01*
X022815Y016263D01*
D02*
G37*
G36*
X018471Y037180D02*
X018465Y037150D01*
Y034697D01*
X018117Y034349D01*
X018071Y034368D01*
Y034656D01*
X018135Y034720D01*
X018135Y034720D01*
X018177Y034774D01*
X018203Y034838D01*
X018212Y034906D01*
X018212Y034906D01*
Y035910D01*
X018228Y035922D01*
X018291Y036003D01*
X018330Y036098D01*
X018343Y036200D01*
X018330Y036302D01*
X018291Y036397D01*
X018228Y036478D01*
X018212Y036490D01*
Y036991D01*
X018425Y037204D01*
X018471Y037180D01*
D02*
G37*
G36*
X025905Y034624D02*
Y034043D01*
X026665D01*
Y032521D01*
X026619Y032502D01*
X026376Y032745D01*
X026322Y032787D01*
X026258Y032813D01*
X026191Y032822D01*
X026191Y032822D01*
X025840D01*
X025828Y032838D01*
X025805Y032855D01*
Y034594D01*
X025855Y034644D01*
X025905Y034624D01*
D02*
G37*
G36*
X039350Y022453D02*
Y012475D01*
X038575D01*
Y011500D01*
X038500D01*
Y011425D01*
X037525D01*
Y010650D01*
X016983D01*
X016975Y010700D01*
X017040Y010720D01*
X017149Y010778D01*
X017244Y010856D01*
X017322Y010951D01*
X017369Y011038D01*
X020415D01*
X020415Y011038D01*
X020483Y011047D01*
X020546Y011073D01*
X020601Y011115D01*
X024361Y014874D01*
X024902D01*
Y014974D01*
X025060D01*
Y015350D01*
X025135D01*
Y015425D01*
X025471D01*
Y015726D01*
X025397D01*
Y016026D01*
X025854Y016483D01*
X025901Y016464D01*
Y014794D01*
X025267D01*
Y013606D01*
X026135D01*
Y012876D01*
X025933D01*
Y012776D01*
X025775D01*
Y012400D01*
Y012024D01*
X025933D01*
Y011924D01*
X026806D01*
Y012876D01*
X026604D01*
Y013606D01*
X027833D01*
Y014720D01*
X027879Y014739D01*
X028584Y014034D01*
X028660Y013983D01*
X028750Y013965D01*
X029007D01*
Y013606D01*
X030131D01*
Y012926D01*
X029929D01*
Y011974D01*
X030802D01*
Y012074D01*
X030960D01*
Y012450D01*
Y012826D01*
X030802D01*
Y012926D01*
X030600D01*
Y013606D01*
X031573D01*
Y014794D01*
X029007D01*
Y014435D01*
X028847D01*
X026685Y016597D01*
Y017069D01*
X026731Y017088D01*
X028384Y015434D01*
X028460Y015383D01*
X028550Y015365D01*
X032603D01*
X032862Y015106D01*
X032870Y015048D01*
X032909Y014953D01*
X032972Y014872D01*
X033053Y014809D01*
X033148Y014770D01*
X033250Y014757D01*
X033352Y014770D01*
X033447Y014809D01*
X033528Y014872D01*
X033591Y014953D01*
X033630Y015048D01*
X033643Y015150D01*
X033630Y015252D01*
X033591Y015347D01*
X033528Y015428D01*
X033447Y015491D01*
X033367Y015524D01*
Y015576D01*
X033447Y015609D01*
X033528Y015672D01*
X033591Y015753D01*
X033630Y015848D01*
X033643Y015950D01*
X033630Y016052D01*
X033591Y016147D01*
X033528Y016228D01*
X033473Y016271D01*
X033465Y016334D01*
X035697Y018565D01*
X036506D01*
X036516Y018554D01*
X036529Y018515D01*
X036486Y018460D01*
X036454Y018383D01*
X036443Y018300D01*
X036454Y018217D01*
X036486Y018140D01*
X036537Y018073D01*
X036604Y018022D01*
X036681Y017990D01*
X036764Y017979D01*
X037276D01*
X037359Y017990D01*
X037436Y018022D01*
X037503Y018073D01*
X037554Y018140D01*
X037586Y018217D01*
X037595Y018283D01*
X037756Y018444D01*
X037807Y018520D01*
X037825Y018610D01*
Y018950D01*
X037807Y019040D01*
X037756Y019116D01*
X037757Y019128D01*
X037766Y019134D01*
X038011Y019379D01*
X038215D01*
Y017747D01*
X035153Y014685D01*
X032912D01*
X032878Y014728D01*
X032797Y014791D01*
X032702Y014830D01*
X032600Y014843D01*
X032498Y014830D01*
X032403Y014791D01*
X032322Y014728D01*
X032259Y014647D01*
X032220Y014552D01*
X032207Y014450D01*
X032220Y014348D01*
X032259Y014253D01*
X032322Y014172D01*
X032403Y014109D01*
X032498Y014070D01*
X032600Y014057D01*
X032702Y014070D01*
X032797Y014109D01*
X032878Y014172D01*
X032912Y014215D01*
X035250D01*
X035340Y014233D01*
X035416Y014284D01*
X038616Y017484D01*
X038667Y017560D01*
X038685Y017650D01*
Y019379D01*
X038926D01*
Y020232D01*
X038826D01*
Y020419D01*
X038450D01*
X038074D01*
Y020232D01*
X037974D01*
Y019995D01*
X037940Y019971D01*
X037608Y019640D01*
X037566Y019668D01*
X037586Y019717D01*
X037597Y019800D01*
X037586Y019883D01*
X037554Y019960D01*
X037511Y020016D01*
X037506Y020050D01*
X037511Y020084D01*
X037554Y020140D01*
X037586Y020217D01*
X037597Y020300D01*
X037586Y020383D01*
X037554Y020460D01*
X037511Y020516D01*
X037506Y020550D01*
X037511Y020584D01*
X037554Y020640D01*
X037586Y020717D01*
X037597Y020800D01*
X037586Y020883D01*
X037554Y020960D01*
X037511Y021016D01*
X037506Y021050D01*
X037511Y021084D01*
X037554Y021140D01*
X037586Y021217D01*
X037597Y021300D01*
X037586Y021383D01*
X037554Y021460D01*
X037511Y021516D01*
X037506Y021550D01*
X037511Y021584D01*
X037554Y021640D01*
X037586Y021717D01*
X037597Y021800D01*
X037586Y021883D01*
X037554Y021960D01*
X037512Y022015D01*
X037524Y022054D01*
X037534Y022065D01*
X038800D01*
X038890Y022083D01*
X038966Y022134D01*
X039304Y022472D01*
X039350Y022453D01*
D02*
G37*
G36*
X023415Y019069D02*
Y018747D01*
X018803Y014135D01*
X018122D01*
X018097Y014169D01*
X018116Y014215D01*
X018400D01*
X018490Y014233D01*
X018566Y014284D01*
X023369Y019088D01*
X023415Y019069D01*
D02*
G37*
G36*
X026238Y032141D02*
Y030709D01*
X026151Y030622D01*
X025898D01*
Y031307D01*
X025254D01*
X025235Y031354D01*
X025266Y031384D01*
X025317Y031460D01*
X025335Y031550D01*
X025335Y031550D01*
Y032172D01*
X025385Y032206D01*
X025448Y032179D01*
X025550Y032166D01*
X025652Y032179D01*
X025747Y032219D01*
X025828Y032281D01*
X025840Y032297D01*
X026082D01*
X026238Y032141D01*
D02*
G37*
G36*
X023298Y037669D02*
X022465Y036835D01*
X022423Y036781D01*
X022397Y036718D01*
X022388Y036650D01*
X022388Y036650D01*
Y036585D01*
X021602D01*
Y035870D01*
X021702D01*
Y035759D01*
X021602D01*
Y035309D01*
X020697D01*
X020697Y035309D01*
X020629Y035300D01*
X020566Y035274D01*
X020511Y035232D01*
X020511Y035232D01*
X020470Y035191D01*
X020450Y035193D01*
X020348Y035180D01*
X020253Y035141D01*
X020172Y035078D01*
X020109Y034997D01*
X020070Y034902D01*
X020057Y034800D01*
X020070Y034698D01*
X020109Y034603D01*
X020172Y034522D01*
X020253Y034459D01*
X020348Y034420D01*
X020450Y034407D01*
X020552Y034420D01*
X020647Y034459D01*
X020728Y034522D01*
X020791Y034603D01*
X020830Y034698D01*
X020841Y034785D01*
X021602D01*
Y034099D01*
X022252D01*
X022271Y034053D01*
X022003Y033785D01*
X019750D01*
X019660Y033767D01*
X019584Y033716D01*
X018831Y032962D01*
X018785Y032981D01*
Y033853D01*
X019416Y034484D01*
X019416Y034484D01*
X019467Y034560D01*
X019485Y034650D01*
Y036803D01*
X020397Y037715D01*
X023279D01*
X023298Y037669D01*
D02*
G37*
G36*
X017512Y014165D02*
X017459Y014097D01*
X017420Y014002D01*
X017407Y013900D01*
X017420Y013798D01*
X017446Y013735D01*
X017413Y013685D01*
X017350D01*
X017260Y013667D01*
X017184Y013616D01*
X017184Y013616D01*
X016634Y013066D01*
X016583Y012990D01*
X016570Y012925D01*
X016175D01*
Y012863D01*
X016125Y012835D01*
X016040Y012880D01*
X016035Y012882D01*
Y013603D01*
X016647Y014215D01*
X017494D01*
X017512Y014165D01*
D02*
G37*
G36*
X020038Y038019D02*
X019084Y037066D01*
X019033Y036990D01*
X019015Y036900D01*
Y034747D01*
X018981Y034712D01*
X018935Y034731D01*
Y037053D01*
X019947Y038065D01*
X020019D01*
X020038Y038019D01*
D02*
G37*
G36*
X019874Y039779D02*
X020826D01*
Y039849D01*
X020872Y039868D01*
X022020Y038720D01*
X022102Y038665D01*
X022200Y038645D01*
X023864D01*
Y038535D01*
X019850D01*
X019850Y038535D01*
X019760Y038517D01*
X019684Y038466D01*
X019684Y038466D01*
X018654Y037436D01*
X018607Y037459D01*
X018612Y037500D01*
Y039785D01*
X018826D01*
Y039951D01*
X019874D01*
Y039779D01*
D02*
G37*
%LPC*%
G36*
X022175Y030383D02*
X022174Y030383D01*
X022104Y030353D01*
X022043Y030307D01*
X021997Y030246D01*
X021967Y030176D01*
X021967Y030175D01*
X022175D01*
Y030383D01*
D02*
G37*
G36*
X031275Y030633D02*
Y030425D01*
X031483D01*
X031483Y030426D01*
X031453Y030496D01*
X031407Y030557D01*
X031346Y030603D01*
X031276Y030633D01*
X031275Y030633D01*
D02*
G37*
G36*
X021325Y018178D02*
X021020D01*
Y017931D01*
X021325D01*
Y018178D01*
D02*
G37*
G36*
X017921Y017726D02*
X017660D01*
Y017425D01*
X017921D01*
Y017726D01*
D02*
G37*
G36*
X012825Y018177D02*
X012520D01*
Y017929D01*
X012825D01*
Y018177D01*
D02*
G37*
G36*
X013280D02*
X012975D01*
Y017929D01*
X013280D01*
Y018177D01*
D02*
G37*
G36*
X013275Y017583D02*
Y017375D01*
X013483D01*
X013483Y017376D01*
X013453Y017446D01*
X013407Y017507D01*
X013346Y017553D01*
X013276Y017583D01*
X013275Y017583D01*
D02*
G37*
G36*
X014575Y016125D02*
X014367D01*
X014367Y016124D01*
X014397Y016054D01*
X014443Y015993D01*
X014504Y015947D01*
X014574Y015917D01*
X014575Y015917D01*
Y016125D01*
D02*
G37*
G36*
X017906Y016175D02*
X017644D01*
Y015874D01*
X017906D01*
Y016175D01*
D02*
G37*
G36*
X014933Y016125D02*
X014725D01*
Y015917D01*
X014726Y015917D01*
X014796Y015947D01*
X014857Y015993D01*
X014903Y016054D01*
X014933Y016124D01*
X014933Y016125D01*
D02*
G37*
G36*
X013125Y017225D02*
X012917D01*
X012917Y017224D01*
X012947Y017154D01*
X012993Y017093D01*
X013054Y017047D01*
X013124Y017017D01*
X013125Y017017D01*
Y017225D01*
D02*
G37*
G36*
X013925Y017033D02*
Y016825D01*
X014133D01*
X014133Y016826D01*
X014103Y016896D01*
X014057Y016957D01*
X013996Y017003D01*
X013926Y017033D01*
X013925Y017033D01*
D02*
G37*
G36*
X013483Y017225D02*
X013275D01*
Y017017D01*
X013276Y017017D01*
X013346Y017047D01*
X013407Y017093D01*
X013453Y017154D01*
X013483Y017224D01*
X013483Y017225D01*
D02*
G37*
G36*
X013125Y017583D02*
X013124Y017583D01*
X013054Y017553D01*
X012993Y017507D01*
X012947Y017446D01*
X012917Y017376D01*
X012917Y017375D01*
X013125D01*
Y017583D01*
D02*
G37*
G36*
X014725Y016483D02*
Y016275D01*
X014933D01*
X014933Y016276D01*
X014903Y016346D01*
X014857Y016407D01*
X014796Y016453D01*
X014726Y016483D01*
X014725Y016483D01*
D02*
G37*
G36*
X014575D02*
X014574Y016483D01*
X014504Y016453D01*
X014443Y016407D01*
X014397Y016346D01*
X014367Y016276D01*
X014367Y016275D01*
X014575D01*
Y016483D01*
D02*
G37*
G36*
X013775Y016675D02*
X013567D01*
X013567Y016674D01*
X013597Y016604D01*
X013643Y016543D01*
X013704Y016497D01*
X013774Y016467D01*
X013775Y016467D01*
Y016675D01*
D02*
G37*
G36*
Y017033D02*
X013774Y017033D01*
X013704Y017003D01*
X013643Y016957D01*
X013597Y016896D01*
X013567Y016826D01*
X013567Y016825D01*
X013775D01*
Y017033D01*
D02*
G37*
G36*
X014133Y016675D02*
X013925D01*
Y016467D01*
X013926Y016467D01*
X013996Y016497D01*
X014057Y016543D01*
X014103Y016604D01*
X014133Y016674D01*
X014133Y016675D01*
D02*
G37*
G36*
X015933Y021797D02*
X015731D01*
Y021575D01*
X015933D01*
Y021797D01*
D02*
G37*
G36*
Y021425D02*
X015731D01*
Y021203D01*
X015933D01*
Y021425D01*
D02*
G37*
G36*
X012302Y024756D02*
X011575D01*
Y024030D01*
X011658Y024038D01*
X011810Y024084D01*
X011949Y024159D01*
X012072Y024259D01*
X012173Y024382D01*
X012247Y024522D01*
X012293Y024673D01*
X012302Y024756D01*
D02*
G37*
G36*
Y020016D02*
X011575D01*
Y019289D01*
X011658Y019298D01*
X011810Y019344D01*
X011949Y019418D01*
X012072Y019519D01*
X012173Y019642D01*
X012247Y019781D01*
X012293Y019933D01*
X012302Y020016D01*
D02*
G37*
G36*
X019700Y020443D02*
X019598Y020430D01*
X019503Y020391D01*
X019422Y020328D01*
X019410Y020312D01*
X016952D01*
X016952Y020312D01*
X016884Y020303D01*
X016820Y020277D01*
X016766Y020235D01*
X016766Y020235D01*
X016716Y020185D01*
X016674Y020131D01*
X016648Y020068D01*
X016639Y020000D01*
X016639Y020000D01*
Y018930D01*
X016479D01*
Y018712D01*
X016280D01*
Y018945D01*
X014620D01*
Y017955D01*
X016280D01*
Y018188D01*
X016479D01*
Y017970D01*
X016639D01*
Y017826D01*
X016479D01*
Y016874D01*
X016653D01*
Y016726D01*
X016464D01*
Y015774D01*
X017336D01*
Y015874D01*
X017494D01*
Y016250D01*
X017569D01*
Y016325D01*
X017906D01*
Y016626D01*
X017832D01*
Y016974D01*
X017921D01*
Y017275D01*
X017585D01*
Y017350D01*
X017510D01*
Y017726D01*
X017352D01*
Y017826D01*
X017164D01*
Y017970D01*
X018021D01*
Y018930D01*
X017861D01*
Y018988D01*
X018210D01*
X018222Y018972D01*
X018303Y018909D01*
X018398Y018870D01*
X018500Y018857D01*
X018602Y018870D01*
X018697Y018909D01*
X018778Y018972D01*
X018841Y019053D01*
X018880Y019148D01*
X018893Y019250D01*
X018880Y019352D01*
X018841Y019447D01*
X018778Y019528D01*
X018697Y019591D01*
X018602Y019630D01*
X018500Y019643D01*
X018398Y019630D01*
X018303Y019591D01*
X018222Y019528D01*
X018210Y019512D01*
X017700D01*
X017700Y019512D01*
X017632Y019503D01*
X017569Y019477D01*
X017515Y019435D01*
X017515Y019435D01*
X017413Y019334D01*
X017371Y019280D01*
X017345Y019216D01*
X017336Y019148D01*
X017336Y019148D01*
Y018930D01*
X017164D01*
Y019788D01*
X019410D01*
X019422Y019772D01*
X019503Y019709D01*
X019598Y019670D01*
X019700Y019657D01*
X019802Y019670D01*
X019897Y019709D01*
X019978Y019772D01*
X020041Y019853D01*
X020080Y019948D01*
X020093Y020050D01*
X020080Y020152D01*
X020041Y020247D01*
X019978Y020328D01*
X019897Y020391D01*
X019802Y020430D01*
X019700Y020443D01*
D02*
G37*
G36*
X014425Y024975D02*
X014217D01*
X014217Y024974D01*
X014247Y024904D01*
X014293Y024843D01*
X014354Y024797D01*
X014424Y024767D01*
X014425Y024767D01*
Y024975D01*
D02*
G37*
G36*
X011575Y025633D02*
Y024906D01*
X012302D01*
X012293Y024989D01*
X012247Y025141D01*
X012173Y025281D01*
X012072Y025403D01*
X011949Y025504D01*
X011810Y025578D01*
X011658Y025625D01*
X011575Y025633D01*
D02*
G37*
G36*
X016471Y027176D02*
X016210D01*
Y026875D01*
X016471D01*
Y027176D01*
D02*
G37*
G36*
X030676Y017356D02*
X030375D01*
Y017094D01*
X030676D01*
Y017356D01*
D02*
G37*
G36*
X021425Y023186D02*
X021124D01*
Y022925D01*
X021425D01*
Y023186D01*
D02*
G37*
G36*
X027925Y027083D02*
Y026875D01*
X028133D01*
X028133Y026876D01*
X028103Y026946D01*
X028057Y027007D01*
X027996Y027053D01*
X027926Y027083D01*
X027925Y027083D01*
D02*
G37*
G36*
X036025Y030433D02*
Y030225D01*
X036233D01*
X036233Y030226D01*
X036203Y030296D01*
X036157Y030357D01*
X036096Y030403D01*
X036026Y030433D01*
X036025Y030433D01*
D02*
G37*
G36*
X025825Y039233D02*
Y039025D01*
X026033D01*
X026033Y039026D01*
X026003Y039096D01*
X025957Y039157D01*
X025896Y039203D01*
X025826Y039233D01*
X025825Y039233D01*
D02*
G37*
G36*
X033205Y018225D02*
X032817D01*
X032819Y018215D01*
X032867Y018143D01*
X032939Y018095D01*
X033024Y018078D01*
X033205D01*
Y018225D01*
D02*
G37*
G36*
X033743D02*
X033355D01*
Y018078D01*
X033536D01*
X033621Y018095D01*
X033693Y018143D01*
X033741Y018215D01*
X033743Y018225D01*
D02*
G37*
G36*
X031275Y018575D02*
X031067D01*
X031067Y018574D01*
X031097Y018504D01*
X031143Y018443D01*
X031204Y018397D01*
X031274Y018367D01*
X031275Y018367D01*
Y018575D01*
D02*
G37*
G36*
X031633D02*
X031425D01*
Y018367D01*
X031426Y018367D01*
X031496Y018397D01*
X031557Y018443D01*
X031603Y018504D01*
X031633Y018574D01*
X031633Y018575D01*
D02*
G37*
G36*
X031275Y018933D02*
X031274Y018933D01*
X031204Y018903D01*
X031143Y018857D01*
X031097Y018796D01*
X031067Y018726D01*
X031067Y018725D01*
X031275D01*
Y018933D01*
D02*
G37*
G36*
X034225Y024675D02*
X034017D01*
X034017Y024674D01*
X034047Y024604D01*
X034093Y024543D01*
X034154Y024497D01*
X034224Y024467D01*
X034225Y024467D01*
Y024675D01*
D02*
G37*
G36*
X031425Y018933D02*
Y018725D01*
X031633D01*
X031633Y018726D01*
X031603Y018796D01*
X031557Y018857D01*
X031496Y018903D01*
X031426Y018933D01*
X031425Y018933D01*
D02*
G37*
G36*
X034583Y024675D02*
X034375D01*
Y024467D01*
X034376Y024467D01*
X034446Y024497D01*
X034507Y024543D01*
X034553Y024604D01*
X034583Y024674D01*
X034583Y024675D01*
D02*
G37*
G36*
X034775Y025583D02*
X034774Y025583D01*
X034704Y025553D01*
X034643Y025507D01*
X034597Y025446D01*
X034567Y025376D01*
X034567Y025375D01*
X034775D01*
Y025583D01*
D02*
G37*
G36*
X035133Y025225D02*
X034925D01*
Y025017D01*
X034926Y025017D01*
X034996Y025047D01*
X035057Y025093D01*
X035103Y025154D01*
X035133Y025224D01*
X035133Y025225D01*
D02*
G37*
G36*
X034925Y025583D02*
Y025375D01*
X035133D01*
X035133Y025376D01*
X035103Y025446D01*
X035057Y025507D01*
X034996Y025553D01*
X034926Y025583D01*
X034925Y025583D01*
D02*
G37*
G36*
X034225Y025033D02*
X034224Y025033D01*
X034154Y025003D01*
X034093Y024957D01*
X034047Y024896D01*
X034017Y024826D01*
X034017Y024825D01*
X034225D01*
Y025033D01*
D02*
G37*
G36*
X034375D02*
Y024825D01*
X034583D01*
X034583Y024826D01*
X034553Y024896D01*
X034507Y024957D01*
X034446Y025003D01*
X034376Y025033D01*
X034375Y025033D01*
D02*
G37*
G36*
X034775Y025225D02*
X034567D01*
X034567Y025224D01*
X034597Y025154D01*
X034643Y025093D01*
X034704Y025047D01*
X034774Y025017D01*
X034775Y025017D01*
Y025225D01*
D02*
G37*
G36*
X012475Y012475D02*
X011575D01*
Y011575D01*
X012475D01*
Y012475D01*
D02*
G37*
G36*
X014725Y011225D02*
X014280D01*
X014289Y011163D01*
X014341Y011035D01*
X014426Y010926D01*
X014535Y010841D01*
X014663Y010789D01*
X014725Y010780D01*
Y011225D01*
D02*
G37*
G36*
X031878Y042031D02*
X031263D01*
Y040825D01*
X031878D01*
Y042031D01*
D02*
G37*
G36*
X031113D02*
X030497D01*
Y040825D01*
X031113D01*
Y042031D01*
D02*
G37*
G36*
X037425Y043425D02*
X036525D01*
Y042525D01*
X037425D01*
Y043425D01*
D02*
G37*
G36*
X038475D02*
X037575D01*
Y042525D01*
X038475D01*
Y043425D01*
D02*
G37*
G36*
X024583Y037475D02*
X024375D01*
Y037267D01*
X024376Y037267D01*
X024446Y037297D01*
X024507Y037343D01*
X024553Y037404D01*
X024583Y037474D01*
X024583Y037475D01*
D02*
G37*
G36*
X031113Y040675D02*
X030497D01*
Y039469D01*
X031113D01*
Y040675D01*
D02*
G37*
G36*
X036703Y042131D02*
X035122D01*
Y039369D01*
X036703D01*
Y040505D01*
X037196D01*
X037222Y040472D01*
X037303Y040409D01*
X037398Y040370D01*
X037500Y040357D01*
X037602Y040370D01*
X037697Y040409D01*
X037778Y040472D01*
X037841Y040553D01*
X037880Y040648D01*
X037893Y040750D01*
X037880Y040852D01*
X037841Y040947D01*
X037778Y041028D01*
X037697Y041091D01*
X037602Y041130D01*
X037500Y041143D01*
X037398Y041130D01*
X037303Y041091D01*
X037222Y041028D01*
X037196Y040995D01*
X036703D01*
Y042131D01*
D02*
G37*
G36*
X031878Y040675D02*
X031263D01*
Y039469D01*
X031878D01*
Y040675D01*
D02*
G37*
G36*
X014295Y031556D02*
X013719D01*
Y031059D01*
X014295D01*
Y031556D01*
D02*
G37*
G36*
X013740Y033787D02*
X013595Y033768D01*
X013461Y033712D01*
X013345Y033623D01*
X013256Y033508D01*
X013200Y033373D01*
X013181Y033228D01*
X013200Y033083D01*
X013256Y032948D01*
X013345Y032833D01*
X013461Y032744D01*
X013595Y032688D01*
X013740Y032669D01*
X013885Y032688D01*
X014020Y032744D01*
X014136Y032833D01*
X014224Y032948D01*
X014280Y033083D01*
X014299Y033228D01*
X014280Y033373D01*
X014224Y033508D01*
X014136Y033623D01*
X014020Y033712D01*
X013885Y033768D01*
X013740Y033787D01*
D02*
G37*
G36*
X015021Y031556D02*
X014445D01*
Y031059D01*
X015021D01*
Y031556D01*
D02*
G37*
G36*
X014665Y028897D02*
X014325D01*
Y028596D01*
X014665D01*
Y028897D01*
D02*
G37*
G36*
X011025D02*
X010685D01*
Y028596D01*
X011025D01*
Y028897D01*
D02*
G37*
G36*
Y029347D02*
X010685D01*
Y029047D01*
X011025D01*
Y029347D01*
D02*
G37*
G36*
X015021Y030909D02*
X013719D01*
Y030411D01*
X014015D01*
Y029347D01*
X013835D01*
Y029206D01*
X011515D01*
Y029347D01*
X011175D01*
Y028972D01*
Y028596D01*
X011515D01*
Y028737D01*
X013835D01*
Y028596D01*
X014175D01*
Y028972D01*
X014250D01*
Y029047D01*
X014665D01*
Y029347D01*
X014485D01*
Y030411D01*
X015021D01*
Y030909D01*
D02*
G37*
G36*
X011968Y033747D02*
X011834Y033730D01*
X011709Y033678D01*
X011601Y033595D01*
X011519Y033488D01*
X011467Y033362D01*
X011449Y033228D01*
X011467Y033094D01*
X011519Y032968D01*
X011601Y032861D01*
X011709Y032778D01*
X011834Y032726D01*
X011968Y032709D01*
X012103Y032726D01*
X012228Y032778D01*
X012336Y032861D01*
X012418Y032968D01*
X012470Y033094D01*
X012488Y033228D01*
X012470Y033362D01*
X012418Y033488D01*
X012336Y033595D01*
X012228Y033678D01*
X012103Y033730D01*
X011968Y033747D01*
D02*
G37*
G36*
X013275Y043619D02*
X013226Y043613D01*
X013110Y043565D01*
X013011Y043489D01*
X012953Y043412D01*
X012475D01*
Y043425D01*
X011575D01*
Y042525D01*
X012475D01*
Y042888D01*
X012953D01*
X013011Y042811D01*
X013110Y042735D01*
X013226Y042687D01*
X013275Y042681D01*
Y043150D01*
Y043619D01*
D02*
G37*
G36*
X031371Y012826D02*
X031110D01*
Y012525D01*
X031371D01*
Y012826D01*
D02*
G37*
G36*
X025625Y012776D02*
X025364D01*
Y012475D01*
X025625D01*
Y012776D01*
D02*
G37*
G36*
X025471Y015275D02*
X025210D01*
Y014974D01*
X025471D01*
Y015275D01*
D02*
G37*
G36*
X038425Y012475D02*
X037525D01*
Y011575D01*
X038425D01*
Y012475D01*
D02*
G37*
G36*
X031371Y012375D02*
X031110D01*
Y012074D01*
X031371D01*
Y012375D01*
D02*
G37*
G36*
X025625Y012325D02*
X025364D01*
Y012024D01*
X025625D01*
Y012325D01*
D02*
G37*
G36*
X038826Y020821D02*
X038525D01*
Y020569D01*
X038826D01*
Y020821D01*
D02*
G37*
G36*
X038375D02*
X038074D01*
Y020569D01*
X038375D01*
Y020821D01*
D02*
G37*
%LPD*%
D10*
X035912Y040750D02*
D03*
X031188D02*
D03*
D11*
X029902Y029572D02*
D03*
X028800Y029769D02*
D03*
X029902Y029966D02*
D03*
X028800Y030163D02*
D03*
X029902Y030359D02*
D03*
X028800Y030556D02*
D03*
X038652Y029572D02*
D03*
X037550Y029769D02*
D03*
X038652Y029966D02*
D03*
X037550Y030163D02*
D03*
X038652Y030359D02*
D03*
X037550Y030556D02*
D03*
X033300D02*
D03*
X034402Y030359D02*
D03*
X033300Y030163D02*
D03*
X034402Y029966D02*
D03*
X033300Y029769D02*
D03*
X034402Y029572D02*
D03*
X024300Y030556D02*
D03*
X025402Y030359D02*
D03*
X024300Y030163D02*
D03*
X025402Y029966D02*
D03*
X024300Y029769D02*
D03*
X025402Y029572D02*
D03*
X021152D02*
D03*
X020050Y029769D02*
D03*
X021152Y029966D02*
D03*
X020050Y030163D02*
D03*
X021152Y030359D02*
D03*
X020050Y030556D02*
D03*
X026400Y035778D02*
D03*
X027502Y035581D02*
D03*
X026400Y035384D02*
D03*
X027502Y035187D02*
D03*
X026400Y034991D02*
D03*
X027502Y034794D02*
D03*
X023200Y034850D02*
D03*
X022098Y035047D02*
D03*
X023200Y035244D02*
D03*
X022098Y035441D02*
D03*
X023200Y035637D02*
D03*
X022098Y035834D02*
D03*
D12*
X028800Y029178D02*
D03*
X029902D02*
D03*
Y030950D02*
D03*
X028800D02*
D03*
X037550Y029178D02*
D03*
X038652D02*
D03*
Y030950D02*
D03*
X037550D02*
D03*
X033300D02*
D03*
X034402D02*
D03*
Y029178D02*
D03*
X033300D02*
D03*
X024300Y030950D02*
D03*
X025402D02*
D03*
Y029178D02*
D03*
X024300D02*
D03*
X020050D02*
D03*
X021152D02*
D03*
Y030950D02*
D03*
X020050D02*
D03*
X027502Y036172D02*
D03*
X026400D02*
D03*
Y034400D02*
D03*
X027502D02*
D03*
X023200Y034456D02*
D03*
X022098D02*
D03*
Y036228D02*
D03*
X023200D02*
D03*
D13*
X028619Y025100D02*
D03*
X027950D02*
D03*
X024969Y038900D02*
D03*
X024300D02*
D03*
X016135Y026800D02*
D03*
X015465D02*
D03*
X016135Y025700D02*
D03*
X015465D02*
D03*
X025700Y012400D02*
D03*
X026369D02*
D03*
X031035Y012450D02*
D03*
X030365D02*
D03*
X036465Y025150D02*
D03*
X037135D02*
D03*
X024465Y015350D02*
D03*
X025135D02*
D03*
X017569Y016250D02*
D03*
X016900D02*
D03*
X016915Y017350D02*
D03*
X017585D02*
D03*
X024900Y025100D02*
D03*
X025569D02*
D03*
X023431D02*
D03*
X024100D02*
D03*
D14*
X037020Y018300D02*
D03*
Y018800D02*
D03*
X033280D02*
D03*
Y018300D02*
D03*
Y023800D02*
D03*
Y023300D02*
D03*
Y022800D02*
D03*
Y022300D02*
D03*
Y021800D02*
D03*
Y021300D02*
D03*
Y020800D02*
D03*
Y020300D02*
D03*
Y019800D02*
D03*
Y019300D02*
D03*
X037020Y023800D02*
D03*
Y023300D02*
D03*
Y022800D02*
D03*
Y022300D02*
D03*
Y021800D02*
D03*
Y021300D02*
D03*
Y020800D02*
D03*
Y020300D02*
D03*
Y019800D02*
D03*
Y019300D02*
D03*
D15*
X024226Y022125D02*
D03*
Y021810D02*
D03*
Y021495D02*
D03*
Y021180D02*
D03*
Y020865D02*
D03*
Y020550D02*
D03*
Y020235D02*
D03*
Y019920D02*
D03*
Y019605D02*
D03*
Y019290D02*
D03*
Y018975D02*
D03*
X028674D02*
D03*
Y019290D02*
D03*
Y019605D02*
D03*
Y019920D02*
D03*
Y020235D02*
D03*
Y020550D02*
D03*
Y020865D02*
D03*
Y021180D02*
D03*
Y021495D02*
D03*
Y021810D02*
D03*
Y022125D02*
D03*
D16*
X024875Y018326D02*
D03*
X025190D02*
D03*
X025505D02*
D03*
X025820D02*
D03*
X026135D02*
D03*
X026450D02*
D03*
X026765D02*
D03*
X027080D02*
D03*
X027395D02*
D03*
X027710D02*
D03*
X028025D02*
D03*
Y022774D02*
D03*
X027710D02*
D03*
X027395D02*
D03*
X027080D02*
D03*
X026765D02*
D03*
X026450D02*
D03*
X026135D02*
D03*
X025820D02*
D03*
X025505D02*
D03*
X025190D02*
D03*
X024875D02*
D03*
D17*
X027106Y042400D02*
D03*
X027794D02*
D03*
X025261D02*
D03*
X025950D02*
D03*
X016144Y029150D02*
D03*
X015456D02*
D03*
X016956Y034600D02*
D03*
X017644D02*
D03*
X017006Y032750D02*
D03*
X017694D02*
D03*
D18*
X027159Y043750D02*
D03*
X027750D02*
D03*
X025359D02*
D03*
X025950D02*
D03*
D19*
X022350Y040206D02*
D03*
Y040894D02*
D03*
X016350Y040900D02*
D03*
Y040211D02*
D03*
X018350Y040900D02*
D03*
Y040211D02*
D03*
X014350Y040894D02*
D03*
Y040206D02*
D03*
X038450Y020494D02*
D03*
Y019806D02*
D03*
X020350Y040894D02*
D03*
Y040206D02*
D03*
D20*
X015844Y022500D02*
D03*
Y023550D02*
D03*
X015156Y022500D02*
D03*
Y023550D02*
D03*
D21*
X011968Y035472D02*
D03*
X014370D02*
D03*
X011968Y030984D02*
D03*
X014370D02*
D03*
D22*
X011100Y028972D02*
D03*
X014250D02*
D03*
Y027200D02*
D03*
X011100D02*
D03*
D23*
X016351Y028000D02*
D03*
X015249D02*
D03*
D24*
X026550Y014200D02*
D03*
X030290D02*
D03*
D25*
X021400Y019815D02*
D03*
Y020485D02*
D03*
X030300Y018100D02*
D03*
Y017431D02*
D03*
X021500Y022850D02*
D03*
Y022181D02*
D03*
D26*
X021400Y018950D02*
D03*
Y018253D02*
D03*
X012900Y018252D02*
D03*
Y018948D02*
D03*
D27*
X017598Y018450D02*
D03*
X016902D02*
D03*
D28*
X015144Y024550D02*
D03*
X015656D02*
D03*
X015656Y021500D02*
D03*
X015144D02*
D03*
D29*
X015450Y018450D02*
D03*
Y020104D02*
D03*
D30*
X025427Y039966D02*
D03*
Y040222D02*
D03*
Y040478D02*
D03*
Y040734D02*
D03*
X023773Y039966D02*
D03*
Y040222D02*
D03*
Y040478D02*
D03*
Y040734D02*
D03*
D31*
X024300Y038900D02*
Y039250D01*
X023773Y039777D02*
X024300Y039250D01*
X023773Y039777D02*
Y039966D01*
X022200Y038900D02*
X024300D01*
X020894Y040206D02*
X022200Y038900D01*
X020350Y040206D02*
X020894D01*
X025550Y034700D02*
X025841Y034991D01*
X025550Y032559D02*
Y034700D01*
X025841Y034991D02*
X026400D01*
X020150Y031850D02*
Y032550D01*
Y031850D02*
X020700Y031300D01*
Y030359D02*
Y031300D01*
Y030359D02*
X021152D01*
X024834Y039035D02*
Y040734D01*
X018356Y040206D02*
X019350D01*
X015347D02*
X016344D01*
X014350D02*
X015347D01*
X015350Y040208D02*
Y040800D01*
X015347Y040206D02*
X015350Y040208D01*
X016344Y040206D02*
X016350Y040211D01*
X019350Y040206D02*
X020350D01*
X019350D02*
Y040900D01*
X027000Y042400D02*
X027106D01*
X018350Y040211D02*
X018356Y040206D01*
X024834Y040734D02*
X025427D01*
D32*
X018950Y025850D02*
Y030150D01*
X018963Y030163D02*
X020050D01*
X018950Y030150D02*
Y032750D01*
Y030150D02*
X018963Y030163D01*
X027080Y022774D02*
Y030150D01*
Y035180D01*
X027093Y030163D02*
X028800D01*
X027080Y030150D02*
X027093Y030163D01*
X029000Y021500D02*
X037000Y029500D01*
X037020Y019300D02*
X037600D01*
X038106Y019806D01*
X038450D01*
X037020Y022800D02*
X038250D01*
X038530Y023080D02*
Y028260D01*
X038250Y022800D02*
X038530Y023080D01*
X037590Y018610D02*
Y018950D01*
X037490Y019050D02*
X037590Y018950D01*
X035500Y019050D02*
X037490D01*
X016550Y014450D02*
X018400D01*
X015800Y013700D02*
X016550Y014450D01*
X015800Y012300D02*
Y013700D01*
X011500Y024831D02*
X011769Y025100D01*
X033920Y027220D02*
Y029846D01*
X033200Y026500D02*
X033920Y027220D01*
X033100Y026500D02*
X033200D01*
X026350Y029300D02*
Y029750D01*
X026134Y029966D02*
X026350Y029750D01*
X039384Y022884D02*
Y029800D01*
X038652Y029966D02*
X039218D01*
X039384Y029800D01*
X038800Y022300D02*
X039384Y022884D01*
X038180Y028610D02*
X038530Y028260D01*
X037550Y030556D02*
X038084D01*
X037550Y030163D02*
X037970D01*
X025700Y038900D02*
X025750Y038950D01*
X026800Y039200D02*
Y040300D01*
X025900Y038300D02*
X026800Y039200D01*
X019850Y038300D02*
X025900D01*
X027050Y038900D02*
Y040700D01*
X026100Y037950D02*
X027050Y038900D01*
X020300Y037950D02*
X026100D01*
X022700Y031800D02*
X024050Y033150D01*
X022700Y029000D02*
Y031800D01*
X022350Y028650D02*
X022700Y029000D01*
X029300Y024250D02*
Y030436D01*
X029420Y029820D02*
X029566Y029966D01*
X029420Y025330D02*
Y029820D01*
X029180Y030556D02*
X029300Y030436D01*
X028800Y030556D02*
X029180D01*
X024050Y033150D02*
Y034900D01*
X023706Y035244D02*
X024050Y034900D01*
X024013Y035637D02*
X024500Y035150D01*
Y031700D02*
Y035150D01*
Y031700D02*
X024750Y031450D01*
X023200Y035637D02*
X024013D01*
X023200Y035244D02*
X023706D01*
X022100Y033550D02*
X022650Y034100D01*
X019750Y033550D02*
X022100D01*
X022750Y034850D02*
X023200D01*
X022650Y034750D02*
X022750Y034850D01*
X022650Y034100D02*
Y034750D01*
X018950Y032750D02*
X019750Y033550D01*
X022400Y025900D02*
X025900D01*
X019450D02*
X022400D01*
X025450Y026100D02*
X026000D01*
X023300Y028250D02*
X025450Y026100D01*
X025900Y025900D02*
X026300Y025500D01*
X026000Y026100D02*
X026450Y025650D01*
X025700Y026250D02*
X026300D01*
X023600Y028350D02*
X025700Y026250D01*
X026300D02*
X026765Y025785D01*
X025100Y035800D02*
X025850Y036550D01*
X025100Y031550D02*
Y035800D01*
X024900Y031350D02*
X025100Y031550D01*
X028150Y035000D02*
Y036300D01*
X027900Y036550D02*
X028150Y036300D01*
X025850Y036550D02*
X027900D01*
X027502Y034794D02*
X027944D01*
X028150Y035000D01*
X026900Y028600D02*
Y035462D01*
X026700Y028400D02*
X026900Y028600D01*
X024900Y030050D02*
Y031350D01*
X024619Y029769D02*
X024900Y030050D01*
X024300Y029769D02*
X024619D01*
X026900Y035462D02*
X027019Y035581D01*
X027600Y028950D02*
X028419Y029769D01*
X027600Y027500D02*
Y028950D01*
X027395Y027295D02*
X027600Y027500D01*
X027395Y022774D02*
Y027295D01*
X027019Y035581D02*
X027502D01*
X027087Y035187D02*
X027502D01*
X027080Y035180D02*
X027087Y035187D01*
X024750Y030163D02*
Y031450D01*
X024300Y030163D02*
X024750D01*
X023550Y030556D02*
X024300D01*
X018150Y034050D02*
X018700Y034600D01*
Y037150D01*
X029420Y025330D02*
X029900Y024850D01*
X031800Y030200D02*
X032156Y030556D01*
X031800Y028750D02*
Y030200D01*
X030450Y027400D02*
X031800Y028750D01*
X030450Y025250D02*
Y027400D01*
X032156Y030556D02*
X033300D01*
X029566Y029966D02*
X029902D01*
X025402D02*
X026134D01*
X022950Y029956D02*
X023550Y030556D01*
X022950Y028550D02*
Y029956D01*
X021100Y026700D02*
X022950Y028550D01*
X020700Y027050D02*
Y029850D01*
X020500Y026850D02*
X020700Y027050D01*
X020500Y026750D02*
Y026850D01*
X019900Y026750D02*
X020500Y027350D01*
Y030500D01*
X020444Y030556D02*
X020500Y030500D01*
X019369Y029769D02*
X020050D01*
X019200Y026150D02*
X019450Y025900D01*
X019200Y026150D02*
Y029600D01*
Y025600D02*
X025950D01*
X018950Y025850D02*
X019200Y025600D01*
X020700Y029850D02*
X020816Y029966D01*
X021152D01*
X020050Y030556D02*
X020444D01*
X019250Y036900D02*
X020300Y037950D01*
X019250Y034650D02*
Y036900D01*
X018550Y033950D02*
X019250Y034650D01*
X018700Y037150D02*
X019850Y038300D01*
X018550Y024500D02*
Y033950D01*
X018150Y025400D02*
Y034050D01*
X028680Y021500D02*
X029000D01*
X035150Y026150D02*
X035450Y025850D01*
X032475Y023225D02*
X032550Y023300D01*
X032750Y022700D02*
X032850Y022800D01*
X032050Y022700D02*
X032750D01*
X032350Y022300D02*
X033280D01*
X032150Y022100D02*
X032350Y022300D01*
X031700Y022100D02*
X032150D01*
X032450Y021750D02*
X033230D01*
X033280Y021800D01*
X032850Y022800D02*
X033280D01*
X032550Y023300D02*
X033280D01*
X031750Y021300D02*
X033280D01*
X031750Y020250D02*
X031800Y020300D01*
X033280D01*
X032350Y020800D02*
X033280D01*
X017450Y040850D02*
X017500Y040900D01*
X018350D01*
X030450Y019500D02*
X030650D01*
X030030Y019920D02*
X030450Y019500D01*
X028674Y019920D02*
X030030D01*
X029615Y020865D02*
X029850Y021100D01*
X028709Y020200D02*
X030700D01*
X016956Y034600D02*
Y036544D01*
X016950Y036550D02*
X016956Y036544D01*
X016950Y031800D02*
X017006Y031856D01*
Y032750D01*
X028674Y020865D02*
X029615D01*
X029650Y019400D02*
X029800D01*
X029445Y019605D02*
X029650Y019400D01*
X028674Y019605D02*
X029445D01*
X028025Y017800D02*
Y018326D01*
Y017800D02*
X028375Y017450D01*
X029050D01*
X026600Y041150D02*
X027050Y040700D01*
X024050Y041150D02*
X026600D01*
X023773Y040734D02*
Y040873D01*
X024050Y041150D01*
X025427Y040478D02*
X026622D01*
X026800Y040300D01*
X019200Y029600D02*
X019369Y029769D01*
X015456Y029150D02*
Y029406D01*
X026765Y022774D02*
Y025785D01*
X038084Y030556D02*
X038180Y030460D01*
Y028610D02*
Y030460D01*
X037900Y029500D02*
X037970Y029570D01*
X037000Y029500D02*
X037900D01*
X035450Y024350D02*
Y025850D01*
Y024350D02*
X036500Y023300D01*
X037020D01*
X033920Y029846D02*
X034040Y029966D01*
X034402D01*
X037020Y022300D02*
X038800D01*
X037970Y029570D02*
Y030163D01*
X035250Y014450D02*
X038450Y017650D01*
X032600Y014450D02*
X035250D01*
X037280Y018300D02*
X037590Y018610D01*
X037020Y018300D02*
X037280D01*
X038450Y017650D02*
Y019806D01*
X031700Y025800D02*
Y026050D01*
X028025Y022125D02*
X031700Y025800D01*
X024226Y022125D02*
X028025D01*
X036969Y029769D02*
X037550D01*
X029010Y021810D02*
X036969Y029769D01*
X028674Y021810D02*
X029010D01*
X028674Y021495D02*
X028680Y021500D01*
X028674Y021495D02*
X028876D01*
X032150Y030000D02*
X032313Y030163D01*
X032150Y025900D02*
Y030000D01*
X028674Y022424D02*
X032150Y025900D01*
X032550Y029600D02*
X032719Y029769D01*
X032550Y026000D02*
Y029600D01*
X032719Y029769D02*
X033300D01*
X032313Y030163D02*
X033300D01*
X028674Y022125D02*
Y022424D01*
X028419Y029769D02*
X028800D01*
X023300Y029713D02*
X023750Y030163D01*
X023300Y028250D02*
Y029713D01*
X023600Y029700D02*
X023669Y029769D01*
X023600Y028350D02*
Y029700D01*
X026450Y022774D02*
Y025650D01*
X026300Y024500D02*
Y025500D01*
X026100Y024650D02*
Y025450D01*
X025950Y025600D02*
X026100Y025450D01*
X023669Y029769D02*
X024300D01*
X023750Y030163D02*
X024300D01*
X026135Y024335D02*
X026300Y024500D01*
X026135Y022774D02*
Y024335D01*
X025820Y024370D02*
X026100Y024650D01*
X025820Y022774D02*
Y024370D01*
X032420Y018830D02*
X032430D01*
Y018820D02*
Y018830D01*
Y018820D02*
X032450Y018800D01*
X032400Y018850D02*
X032420Y018830D01*
X032450Y018800D02*
X033280D01*
X033150Y015150D02*
X033250D01*
X032700Y015600D02*
X033150Y015150D01*
X028550Y015600D02*
X032700D01*
X032350Y018800D02*
X032400Y018850D01*
X032350Y019800D02*
X032850Y019300D01*
X033280D01*
X028700Y015950D02*
X033250D01*
X027080Y017570D02*
X028700Y015950D01*
X026765Y017385D02*
X028550Y015600D01*
X033100Y016650D02*
X035500Y019050D01*
X028750Y016650D02*
X033100D01*
X028700Y016350D02*
X033150D01*
X035600Y018800D01*
X037020D01*
X027395Y017655D02*
X028700Y016350D01*
X027710Y017690D02*
X028750Y016650D01*
X026765Y017385D02*
Y018326D01*
X027080Y017570D02*
Y018326D01*
X027395Y017655D02*
Y018326D01*
X027710Y017690D02*
Y018326D01*
X026450Y016500D02*
Y018326D01*
X023740Y019290D02*
X024226D01*
X025190Y017340D02*
Y018326D01*
X023220Y019920D02*
X024226D01*
X021415Y020865D02*
X024226D01*
X022400Y020550D02*
X024226D01*
Y018076D02*
Y018975D01*
X026135Y014615D02*
Y018326D01*
X023555Y019605D02*
X024226D01*
X026450Y016500D02*
X028750Y014200D01*
X026135Y014615D02*
X026550Y014200D01*
X020800Y012950D02*
X025190Y017340D01*
X028750Y014200D02*
X030290D01*
X018900Y013900D02*
X023650Y018650D01*
X017800Y013900D02*
X018900D01*
X023650Y018650D02*
Y019200D01*
X023740Y019290D01*
X019600Y013450D02*
X024226Y018076D01*
X017350Y013450D02*
X019600D01*
X018250Y012950D02*
X020800D01*
X016800Y012900D02*
X017350Y013450D01*
X016800Y012300D02*
Y012900D01*
X014800Y012300D02*
Y013650D01*
X010500Y017950D02*
X014800Y013650D01*
X010500Y017950D02*
Y026600D01*
X018400Y014450D02*
X023555Y019605D01*
X022350Y019150D02*
X022450D01*
X023220Y019920D01*
X015800Y011300D02*
Y011572D01*
X010500Y026600D02*
X011100Y027200D01*
X021665Y019815D02*
X022400Y020550D01*
X026369Y012400D02*
Y014019D01*
X026550Y014200D01*
X030290D02*
X030365Y014125D01*
Y012450D02*
Y014125D01*
X020885Y020485D02*
X021400D01*
X020500Y020100D02*
X020885Y020485D01*
X020500Y019350D02*
Y020100D01*
Y019350D02*
X020900Y018950D01*
X021400D01*
Y020850D02*
X021415Y020865D01*
X021400Y019815D02*
X021665D01*
X021400Y020485D02*
Y020850D01*
X026200Y041600D02*
X027000Y042400D01*
X025150D02*
X025261D01*
X024250Y041500D02*
X025150Y042400D01*
X023650Y041500D02*
X024250D01*
X026266Y039966D02*
X026300Y040000D01*
X025427Y039966D02*
X026266D01*
X024834Y039035D02*
X024969Y038900D01*
X027750Y043750D02*
X027794Y043706D01*
Y042400D02*
Y043706D01*
X025950Y042400D02*
Y043750D01*
X014350Y040894D02*
Y043150D01*
X016350Y040900D02*
Y043150D01*
X018350Y040900D02*
Y043150D01*
X020350Y040894D02*
Y043150D01*
X022350Y040894D02*
Y043150D01*
Y040206D02*
X022367Y040222D01*
X023773D01*
Y040478D01*
X025427Y039966D02*
Y040222D01*
X014250Y030864D02*
X014370Y030984D01*
X014250Y028972D02*
Y030864D01*
X024176Y020600D02*
X024226Y020550D01*
X011968Y030984D02*
X013285Y032300D01*
X015100D01*
X015550Y032750D01*
X017006D01*
X016400Y034600D02*
X016956D01*
X015528Y035472D02*
X016400Y034600D01*
X014370Y035472D02*
X015528D01*
X011968D02*
X014370D01*
X011100Y027200D02*
X014250D01*
X011100Y028972D02*
X014250D01*
X015456Y028706D02*
Y029150D01*
X015249Y028499D02*
X015456Y028706D01*
X015249Y028000D02*
Y028499D01*
Y027451D02*
Y028000D01*
Y027451D02*
X015465Y027235D01*
Y026800D02*
Y027235D01*
Y025700D02*
Y026800D01*
X014250Y027200D02*
X014700D01*
X015100Y026800D01*
X015465D01*
D33*
X015450Y018450D02*
X016902D01*
X013354Y021046D02*
X014296Y020104D01*
X015450D01*
X013354Y021046D02*
Y021969D01*
X015756Y024550D02*
X016135Y024929D01*
X015656Y024550D02*
X015756D01*
X016135Y025100D02*
Y025700D01*
Y024929D02*
Y025100D01*
X014500Y025050D02*
X014550Y025100D01*
X016135D01*
X027159Y043750D02*
Y044041D01*
X027050Y044150D02*
X027159Y044041D01*
X025450Y044150D02*
X027050D01*
X025359Y044059D02*
X025450Y044150D01*
X025359Y043750D02*
Y044059D01*
X019950Y043750D02*
X021100D01*
X025359D01*
X039106Y026506D02*
Y029550D01*
X039128Y029572D01*
X038900Y026300D02*
X039106Y026506D01*
X038900Y026050D02*
Y026300D01*
X024850Y028200D02*
X025550Y027500D01*
Y026950D02*
Y027500D01*
X020450Y034800D02*
X020697Y035047D01*
X022098D01*
X028600Y026650D02*
X028619Y026631D01*
Y025100D02*
Y026631D01*
Y024119D02*
Y025100D01*
X028025Y023525D02*
X028619Y024119D01*
X028025Y022774D02*
Y023525D01*
X027950Y024100D02*
Y025100D01*
X027710Y023860D02*
X027950Y024100D01*
X027710Y022774D02*
Y023860D01*
X027850Y025200D02*
Y026800D01*
Y025200D02*
X027950Y025100D01*
X038652Y029572D02*
X039128D01*
X038652Y030359D02*
X039000D01*
X035850Y025765D02*
Y026500D01*
Y025765D02*
X036465Y025150D01*
X025500Y035500D02*
X025778Y035778D01*
X026400D01*
X023550Y037550D02*
X024300D01*
X022650Y036650D02*
X023550Y037550D01*
X024969Y038900D02*
X025700D01*
X022650Y035950D02*
Y036650D01*
X022534Y035834D02*
X022650Y035950D01*
X022098Y035834D02*
X022534D01*
X035372Y029572D02*
X035950Y030150D01*
X034402Y029572D02*
X035372D01*
X030422D02*
X031200Y030350D01*
X029902Y029572D02*
X030422D01*
X024850Y028200D02*
Y029450D01*
X024972Y029572D01*
X025402D01*
X022250Y029750D02*
Y030100D01*
X022072Y029572D02*
X022250Y029750D01*
X021152Y029572D02*
X022072D01*
X018150Y023800D02*
X019450D01*
X017500Y024450D02*
Y028000D01*
Y024450D02*
X018150Y023800D01*
X016351Y028000D02*
X017500D01*
X031700Y017500D02*
X033050D01*
X031100Y018100D02*
X031700Y017500D01*
X030300Y018100D02*
X031100D01*
X037135Y025150D02*
X038000D01*
X038009Y032522D02*
Y032541D01*
Y032522D02*
X039191Y031341D01*
Y030550D02*
Y031341D01*
X039000Y030359D02*
X039191Y030550D01*
X033009Y032541D02*
X038009D01*
X030559D02*
X033009D01*
X033800Y031750D01*
Y030550D02*
Y031750D01*
Y030550D02*
X033991Y030359D01*
X034402D01*
X029902D02*
X030350D01*
X030559Y030569D01*
Y032541D01*
X025550Y032559D02*
X026191D01*
X026500Y032250D01*
Y030600D02*
Y032250D01*
X026259Y030359D02*
X026500Y030600D01*
X025402Y030359D02*
X026259D01*
X017950Y036200D02*
Y037100D01*
Y034906D02*
Y036200D01*
Y037100D02*
X018350Y037500D01*
Y040211D01*
X017644Y034600D02*
X017950Y034906D01*
X029669Y017431D02*
X030300D01*
X029550Y017550D02*
X029669Y017431D01*
X029550Y017550D02*
Y018100D01*
X028674Y018975D02*
X029550Y018100D01*
X028674Y019290D02*
X029210D01*
X030300Y018200D01*
X017694Y030700D02*
Y032750D01*
X016144Y029150D02*
X017694Y030700D01*
X016144Y028706D02*
Y029150D01*
Y028706D02*
X016351Y028499D01*
X037135Y023915D02*
Y025150D01*
X019450Y023800D02*
X020750Y025100D01*
X023431D01*
X016800Y011300D02*
X020415D01*
X024465Y015350D01*
X023135Y020235D02*
X024226D01*
X021500Y021810D02*
X024226D01*
X025505Y017193D02*
Y018326D01*
X025820Y016820D02*
Y018326D01*
X025135Y016135D02*
X025820Y016820D01*
X025135Y015350D02*
Y016135D01*
X024465Y016153D02*
X025505Y017193D01*
X024465Y015350D02*
Y016153D01*
X022850Y019950D02*
X023135Y020235D01*
X022450Y019950D02*
X022850D01*
X021500Y021810D02*
Y022181D01*
X020400Y022100D02*
X020481Y022181D01*
X021500D01*
X019450Y023800D02*
X020400Y022850D01*
Y022100D02*
Y022850D01*
X016135Y025700D02*
Y026800D01*
X016952Y020050D02*
X019700D01*
X016902Y020000D02*
X016952Y020050D01*
X016902Y018450D02*
Y020000D01*
X017700Y019250D02*
X018500D01*
X017598Y019148D02*
X017700Y019250D01*
X017598Y018450D02*
Y019148D01*
X016351Y028000D02*
Y028499D01*
X017644Y032800D02*
X017694Y032750D01*
X017644Y032800D02*
Y034600D01*
X011500Y043500D02*
X011850Y043150D01*
X013350D01*
X021100Y043750D02*
X021350Y043500D01*
Y043150D02*
Y043500D01*
X019350Y043150D02*
X019950Y043750D01*
X019350Y043150D02*
Y043550D01*
X019150Y043750D02*
X019350Y043550D01*
X017950Y043750D02*
X019150D01*
X017350Y043150D02*
X017950Y043750D01*
X017350Y043150D02*
Y043500D01*
X017100Y043750D02*
X017350Y043500D01*
X015950Y043750D02*
X017100D01*
X015350Y043150D02*
X015950Y043750D01*
X014700Y043800D02*
X015350Y043150D01*
X014000Y043800D02*
X014700D01*
X013350Y043150D02*
X014000Y043800D01*
X017569Y017335D02*
X017585Y017350D01*
X017569Y016250D02*
Y017335D01*
X016900Y016250D02*
X016915Y016265D01*
Y017350D01*
X016902Y017364D02*
X016915Y017350D01*
X016902Y017364D02*
Y018450D01*
X012900Y018948D02*
Y020050D01*
X012567Y020383D02*
X012900Y020050D01*
X012567Y020383D02*
Y021969D01*
D34*
X015156Y024461D02*
X015244Y024550D01*
X015156Y023550D02*
Y024461D01*
Y021589D02*
X015244Y021500D01*
X015156Y021589D02*
Y022500D01*
X036810Y026790D02*
X036950Y026650D01*
X034690Y026790D02*
X036810D01*
X029080Y021180D02*
X034690Y026790D01*
X024875Y022774D02*
Y023325D01*
X023431Y024769D02*
X024875Y023325D01*
X023431Y024769D02*
Y025100D01*
X022750Y022850D02*
X023750Y023850D01*
X021500Y022850D02*
X022750D01*
X024550Y024300D02*
X024900Y024650D01*
Y025100D01*
X024100Y024750D02*
X024550Y024300D01*
X024100Y024750D02*
Y025100D01*
X024550Y024300D02*
X025190Y023660D01*
Y022774D02*
Y023660D01*
X035912Y040750D02*
X037500D01*
X031150Y022700D02*
X032250Y023800D01*
X031150Y021500D02*
Y022700D01*
X032250Y023800D02*
X033280D01*
X028674Y021180D02*
X029080D01*
X030200Y020550D02*
X031150Y021500D01*
X028674Y020550D02*
X030200D01*
X028674Y020235D02*
X028709Y020200D01*
X030300Y018100D02*
Y018200D01*
X024875Y017825D02*
Y018326D01*
X023250Y016200D02*
X024875Y017825D01*
X023200Y016200D02*
X023250D01*
X023841Y021495D02*
X024226D01*
X023841Y021180D02*
X024226D01*
X037020Y023800D02*
X037135Y023915D01*
X019550Y021750D02*
X019873Y021427D01*
X023774D01*
X019550Y021750D02*
Y022500D01*
X018000Y023500D02*
X018800Y022700D01*
Y021800D02*
Y022700D01*
Y021800D02*
X019353Y021247D01*
X023774D01*
X015894Y023500D02*
X018000D01*
X015844Y023550D02*
X015894Y023500D01*
X015844Y022500D02*
X018000D01*
X023774Y021427D02*
X023841Y021495D01*
X023774Y021247D02*
X023841Y021180D01*
X025505Y025036D02*
X025569Y025100D01*
X025505Y022774D02*
Y025036D01*
X013354Y022953D02*
X013808Y022500D01*
X015156D01*
X013164Y023550D02*
X015156D01*
X012567Y022953D02*
X013164Y023550D01*
D35*
X013350Y043150D02*
D03*
X014350D02*
D03*
X015350D02*
D03*
X016350D02*
D03*
X017350D02*
D03*
X018350D02*
D03*
X019350D02*
D03*
X020350D02*
D03*
X021350D02*
D03*
D36*
X022350D02*
D03*
D37*
X014800Y011300D02*
D03*
Y012300D02*
D03*
X015800Y011300D02*
D03*
Y012300D02*
D03*
X016800Y011300D02*
D03*
D38*
Y012300D02*
D03*
D39*
X011500Y043500D02*
D03*
X037500D02*
D03*
X038500Y011500D02*
D03*
X011500D02*
D03*
D40*
X012567Y021969D02*
D03*
Y022953D02*
D03*
X013354D02*
D03*
Y021969D02*
D03*
D41*
X011500Y024831D02*
D03*
Y020091D02*
D03*
D42*
X014650Y016200D02*
D03*
X013850Y016750D02*
D03*
X013200Y017300D02*
D03*
X034850Y025300D02*
D03*
X035900Y024950D02*
D03*
X034300Y024750D02*
D03*
X031350Y018650D02*
D03*
X014500Y025050D02*
D03*
X038900Y026050D02*
D03*
X036950Y026650D02*
D03*
X033100Y026500D02*
D03*
X025550Y026950D02*
D03*
X026350Y029300D02*
D03*
X019700Y020050D02*
D03*
X020450Y034800D02*
D03*
X027850Y026800D02*
D03*
X023750Y023850D02*
D03*
X024550Y024300D02*
D03*
X035850Y026500D02*
D03*
X025500Y035500D02*
D03*
X024300Y037550D02*
D03*
X025750Y038950D02*
D03*
X035950Y030150D02*
D03*
X031200Y030350D02*
D03*
X022250Y030100D02*
D03*
X028600Y026650D02*
D03*
X033050Y017500D02*
D03*
X038000Y025150D02*
D03*
X030559Y032541D02*
D03*
X022350Y028650D02*
D03*
X022400Y025900D02*
D03*
X025550Y032559D02*
D03*
X027600Y027500D02*
D03*
X026700Y028400D02*
D03*
X020150Y032550D02*
D03*
X017950Y036200D02*
D03*
X029900Y024850D02*
D03*
X030450Y025250D02*
D03*
X029300Y024250D02*
D03*
X021100Y026700D02*
D03*
X019900Y026750D02*
D03*
X020500D02*
D03*
X037500Y040750D02*
D03*
X035150Y026150D02*
D03*
X032475Y023225D02*
D03*
X032050Y022700D02*
D03*
X032450Y021750D02*
D03*
X031700Y022100D02*
D03*
X031750Y021300D02*
D03*
X032350Y020800D02*
D03*
X031750Y020250D02*
D03*
X017450Y040850D02*
D03*
X030650Y019500D02*
D03*
X029850Y021100D02*
D03*
X030700Y020200D02*
D03*
X016950Y036550D02*
D03*
Y031800D02*
D03*
X029800Y019400D02*
D03*
X029050Y017450D02*
D03*
X018550Y024500D02*
D03*
X018150Y025400D02*
D03*
X023200Y016200D02*
D03*
X032600Y014450D02*
D03*
X031700Y026050D02*
D03*
X032550Y026000D02*
D03*
X032430Y018830D02*
D03*
X032350Y019800D02*
D03*
X033250Y015950D02*
D03*
Y015150D02*
D03*
X018250Y012950D02*
D03*
X017800Y013900D02*
D03*
X022350Y019150D02*
D03*
X020400Y022100D02*
D03*
X022450Y019950D02*
D03*
X018500Y019250D02*
D03*
X019550Y022500D02*
D03*
X018000D02*
D03*
D43*
X015350Y040800D02*
D03*
X023650Y041500D02*
D03*
X026200Y041600D02*
D03*
X019350Y040900D02*
D03*
X026300Y040000D02*
D03*
M02*
