G04 Layer_Color=32768*
%FSAX24Y24*%
%MOIN*%
G70*
G01*
G75*
%ADD45C,0.0039*%
%ADD85C,0.0020*%
D45*
X026590Y043149D02*
Y044299D01*
X027140D01*
Y043149D02*
Y044299D01*
X026590Y043149D02*
X027140D01*
X028088Y025100D02*
X028482D01*
X028285Y024903D02*
Y025297D01*
X026253Y020550D02*
X026647D01*
X026450Y020353D02*
Y020747D01*
X026703Y040900D02*
X027097D01*
X026900Y040703D02*
Y041097D01*
X024803Y040906D02*
X025197D01*
X025000Y040709D02*
Y041102D01*
X022303Y043600D02*
X022697D01*
X022500Y043403D02*
Y043797D01*
X016303Y043600D02*
X016697D01*
X016500Y043403D02*
Y043797D01*
X018303Y043600D02*
X018697D01*
X018500Y043403D02*
Y043797D01*
X014053Y043600D02*
X014447D01*
X014250Y043403D02*
Y043797D01*
X015800Y027803D02*
Y028197D01*
X015603Y028000D02*
X015997D01*
X015800Y028953D02*
Y029347D01*
X015603Y029150D02*
X015997D01*
X015603Y026800D02*
X015997D01*
X015800Y026603D02*
Y026997D01*
X015603Y025700D02*
X015997D01*
X015800Y025503D02*
Y025897D01*
X025838Y012400D02*
X026232D01*
X026035Y012203D02*
Y012597D01*
X030503Y012450D02*
X030897D01*
X030700Y012253D02*
Y012647D01*
X036603Y025150D02*
X036997D01*
X036800Y024953D02*
Y025347D01*
X038253Y020150D02*
X038647D01*
X038450Y019953D02*
Y020347D01*
X021203Y020150D02*
X021597D01*
X021400Y019953D02*
Y020347D01*
X030300Y017569D02*
Y017962D01*
X030103Y017765D02*
X030497D01*
X024603Y015350D02*
X024997D01*
X024800Y015153D02*
Y015547D01*
X021500Y022318D02*
Y022712D01*
X021303Y022515D02*
X021697D01*
X021203Y018602D02*
X021597D01*
X021400Y018405D02*
Y018798D01*
X017038Y016250D02*
X017431D01*
X017235Y016053D02*
Y016447D01*
X017250Y017153D02*
Y017547D01*
X017053Y017350D02*
X017447D01*
X017250Y018253D02*
Y018647D01*
X017053Y018450D02*
X017447D01*
X015203Y024550D02*
X015597D01*
X015400Y024353D02*
Y024747D01*
X015500Y023353D02*
Y023747D01*
X015303Y023550D02*
X015697D01*
X015203Y021500D02*
X015597D01*
X015400Y021303D02*
Y021697D01*
X015500Y022303D02*
Y022697D01*
X015303Y022500D02*
X015697D01*
X012703Y018600D02*
X013097D01*
X012900Y018403D02*
Y018797D01*
X020203Y043600D02*
X020597D01*
X020400Y043403D02*
Y043797D01*
X025038Y025100D02*
X025431D01*
X025235Y024903D02*
Y025297D01*
X023568Y025100D02*
X023962D01*
X023765Y024903D02*
Y025297D01*
X034953Y021050D02*
X035347D01*
X035150Y020853D02*
Y021247D01*
X017300Y034403D02*
Y034797D01*
X017103Y034600D02*
X017497D01*
X017350Y032553D02*
Y032947D01*
X017153Y032750D02*
X017547D01*
X024700Y043159D02*
Y044309D01*
X025250D01*
Y043159D02*
Y044309D01*
X024700Y043159D02*
X025250D01*
D85*
X028954Y024726D02*
Y025474D01*
X027615Y024726D02*
Y025474D01*
Y024726D02*
X028954D01*
X027615Y025474D02*
X028954D01*
X023793Y017893D02*
Y023207D01*
X029107Y017893D02*
Y023207D01*
X023793D02*
X029107D01*
X023793Y017893D02*
X029107D01*
X026526Y040231D02*
Y041569D01*
X027274Y040231D02*
Y041569D01*
X026526Y040231D02*
X027274D01*
X026526Y041569D02*
X027274D01*
X024626Y040236D02*
Y041575D01*
X025374Y040236D02*
Y041575D01*
X024626Y040236D02*
X025374D01*
X024626Y041575D02*
X025374D01*
X022874Y042931D02*
Y044269D01*
X022126Y042931D02*
Y044269D01*
X022874D01*
X022126Y042931D02*
X022874D01*
X016126Y042931D02*
Y044269D01*
X016874Y042931D02*
Y044269D01*
X016126Y042931D02*
X016874D01*
X016126Y044269D02*
X016874D01*
X018126Y042931D02*
Y044269D01*
X018874Y042931D02*
Y044269D01*
X018126Y042931D02*
X018874D01*
X018126Y044269D02*
X018874D01*
X013876Y042931D02*
Y044269D01*
X014624Y042931D02*
Y044269D01*
X013876Y042931D02*
X014624D01*
X013876Y044269D02*
X014624D01*
X014894Y027567D02*
X016706D01*
X014894Y028433D02*
X016706D01*
Y027567D02*
Y028433D01*
X014894Y027567D02*
Y028433D01*
X015131Y028776D02*
X016469D01*
X015131Y029524D02*
X016469D01*
Y028776D02*
Y029524D01*
X015131Y028776D02*
Y029524D01*
X016469Y026426D02*
Y027174D01*
X015131Y026426D02*
Y027174D01*
Y026426D02*
X016469D01*
X015131Y027174D02*
X016469D01*
Y025326D02*
Y026074D01*
X015131Y025326D02*
Y026074D01*
Y025326D02*
X016469D01*
X015131Y026074D02*
X016469D01*
X025365Y012026D02*
Y012774D01*
X026704Y012026D02*
Y012774D01*
X025365D02*
X026704D01*
X025365Y012026D02*
X026704D01*
X031369Y012076D02*
Y012824D01*
X030031Y012076D02*
Y012824D01*
Y012076D02*
X031369D01*
X030031Y012824D02*
X031369D01*
X036131Y024776D02*
Y025524D01*
X037469Y024776D02*
Y025524D01*
X036131D02*
X037469D01*
X036131Y024776D02*
X037469D01*
X038824Y019481D02*
Y020819D01*
X038076Y019481D02*
Y020819D01*
X038824D01*
X038076Y019481D02*
X038824D01*
X021026D02*
Y020819D01*
X021774Y019481D02*
Y020819D01*
X021026Y019481D02*
X021774D01*
X021026Y020819D02*
X021774D01*
X029926Y018435D02*
X030674D01*
X029926Y017096D02*
X030674D01*
Y018435D01*
X029926Y017096D02*
Y018435D01*
X024131Y014976D02*
Y015724D01*
X025469Y014976D02*
Y015724D01*
X024131D02*
X025469D01*
X024131Y014976D02*
X025469D01*
X021126Y023185D02*
X021874D01*
X021126Y021846D02*
X021874D01*
Y023185D01*
X021126Y021846D02*
Y023185D01*
X021794Y017932D02*
Y019271D01*
X021006Y017932D02*
Y019271D01*
X021794D01*
X021006Y017932D02*
X021794D01*
X017904Y015876D02*
Y016624D01*
X016565Y015876D02*
Y016624D01*
Y015876D02*
X017904D01*
X016565Y016624D02*
X017904D01*
X016581Y017724D02*
X017919D01*
X016581Y016976D02*
X017919D01*
X016581D02*
Y017724D01*
X017919Y016976D02*
Y017724D01*
X016581Y018056D02*
X017919D01*
X016581Y018844D02*
X017919D01*
Y018056D02*
Y018844D01*
X016581Y018056D02*
Y018844D01*
X014869Y024255D02*
Y024845D01*
X015932Y024255D02*
Y024845D01*
X014869D02*
X015932D01*
X014869Y024255D02*
X015932D01*
X014831Y023176D02*
X016169D01*
X014831Y023924D02*
X016169D01*
Y023176D02*
Y023924D01*
X014831Y023176D02*
Y023924D01*
X015932Y021205D02*
Y021795D01*
X014869Y021205D02*
Y021795D01*
Y021205D02*
X015932D01*
X014869Y021795D02*
X015932D01*
X014831Y022126D02*
X016169D01*
X014831Y022874D02*
X016169D01*
Y022126D02*
Y022874D01*
X014831Y022126D02*
Y022874D01*
X012506Y017931D02*
Y019269D01*
X013294Y017931D02*
Y019269D01*
X012506Y017931D02*
X013294D01*
X012506Y019269D02*
X013294D01*
X020026Y042931D02*
Y044269D01*
X020774Y042931D02*
Y044269D01*
X020026Y042931D02*
X020774D01*
X020026Y044269D02*
X020774D01*
X024565Y024726D02*
Y025474D01*
X025904Y024726D02*
Y025474D01*
X024565D02*
X025904D01*
X024565Y024726D02*
X025904D01*
X023096D02*
Y025474D01*
X024435Y024726D02*
Y025474D01*
X023096D02*
X024435D01*
X023096Y024726D02*
X024435D01*
X032817Y017881D02*
Y024219D01*
X037483Y017881D02*
Y024219D01*
X032817D02*
X037483D01*
X032817Y017881D02*
X037483D01*
X016631Y034974D02*
X017969D01*
X016631Y034226D02*
X017969D01*
X016631D02*
Y034974D01*
X017969Y034226D02*
Y034974D01*
X016681Y033124D02*
X018019D01*
X016681Y032376D02*
X018019D01*
X016681D02*
Y033124D01*
X018019Y032376D02*
Y033124D01*
M02*
