G04 Layer_Physical_Order=2*
G04 Layer_Color=16711680*
%FSAX24Y24*%
%MOIN*%
G70*
G01*
G75*
%ADD32C,0.0120*%
%ADD34C,0.0662*%
%ADD35C,0.1410*%
%ADD36C,0.0750*%
%ADD37R,0.0750X0.0750*%
%ADD38C,0.0850*%
%ADD39R,0.0850X0.0850*%
%ADD40R,0.1750X0.1750*%
%ADD41R,0.2000X0.2000*%
%ADD42C,0.0350*%
G36*
X039400Y044241D02*
Y026215D01*
X039250Y026185D01*
X039228Y026239D01*
X039167Y026317D01*
X039089Y026378D01*
X039000Y026414D01*
Y026050D01*
Y025686D01*
X039089Y025722D01*
X039167Y025783D01*
X039228Y025861D01*
X039250Y025915D01*
X039400Y025885D01*
Y012700D01*
X038600D01*
Y011500D01*
X038500D01*
Y011400D01*
X037300D01*
Y010600D01*
X036030D01*
X036008Y010750D01*
X036010Y010751D01*
X036151Y010826D01*
X036273Y010927D01*
X036374Y011049D01*
X036449Y011190D01*
X036495Y011342D01*
X036511Y011500D01*
X036495Y011658D01*
X036449Y011810D01*
X036374Y011951D01*
X036273Y012073D01*
X036151Y012174D01*
X036010Y012249D01*
X035858Y012295D01*
X035700Y012311D01*
X035542Y012295D01*
X035390Y012249D01*
X035249Y012174D01*
X035127Y012073D01*
X035026Y011951D01*
X034951Y011810D01*
X034905Y011658D01*
X034889Y011500D01*
X034905Y011342D01*
X034951Y011190D01*
X035026Y011049D01*
X035127Y010927D01*
X035249Y010826D01*
X035390Y010751D01*
X035392Y010750D01*
X035370Y010600D01*
X017134D01*
X017097Y010750D01*
X017149Y010778D01*
X017244Y010856D01*
X017322Y010951D01*
X017369Y011038D01*
X033000D01*
X033000Y011038D01*
X033068Y011047D01*
X033131Y011073D01*
X033185Y011115D01*
X034635Y012565D01*
X034635Y012565D01*
X034677Y012619D01*
X034703Y012682D01*
X034712Y012750D01*
X034712Y012750D01*
Y015991D01*
X038185Y019465D01*
X038185Y019465D01*
X038227Y019519D01*
X038253Y019582D01*
X038262Y019650D01*
X038262Y019650D01*
Y024879D01*
X038267Y024883D01*
X038328Y024961D01*
X038365Y025052D01*
X038378Y025150D01*
X038365Y025248D01*
X038328Y025339D01*
X038267Y025417D01*
X038189Y025478D01*
X038098Y025515D01*
X038000Y025528D01*
X037914Y025517D01*
X037228Y026203D01*
X037217Y026383D01*
X037278Y026461D01*
X037315Y026552D01*
X037328Y026650D01*
X037315Y026748D01*
X037278Y026839D01*
X037217Y026917D01*
X037139Y026978D01*
X037048Y027015D01*
X036950Y027028D01*
X036943Y027027D01*
X036562Y027409D01*
Y038041D01*
X037685Y039165D01*
X037685Y039165D01*
X037727Y039219D01*
X037753Y039282D01*
X037762Y039350D01*
Y040479D01*
X037767Y040483D01*
X037828Y040561D01*
X037865Y040652D01*
X037878Y040750D01*
X037865Y040848D01*
X037828Y040939D01*
X037767Y041017D01*
X037689Y041078D01*
X037598Y041115D01*
X037500Y041128D01*
X037402Y041115D01*
X037311Y041078D01*
X037233Y041017D01*
X037172Y040939D01*
X037135Y040848D01*
X037122Y040750D01*
X037135Y040652D01*
X037172Y040561D01*
X037233Y040483D01*
X037238Y040479D01*
Y039459D01*
X036115Y038335D01*
X036073Y038281D01*
X036047Y038218D01*
X036038Y038150D01*
X036038Y038150D01*
Y030605D01*
X035950Y030528D01*
X035852Y030515D01*
X035761Y030478D01*
X035683Y030417D01*
X035622Y030339D01*
X035586Y030250D01*
X035950D01*
Y030050D01*
X035586D01*
X035622Y029961D01*
X035683Y029883D01*
X035761Y029822D01*
X035852Y029785D01*
X035950Y029772D01*
X036038Y029695D01*
Y027589D01*
X035899Y027532D01*
X033510Y029920D01*
X033456Y029962D01*
X033393Y029988D01*
X033325Y029997D01*
X033325Y029997D01*
X033114D01*
X030832Y032279D01*
X030887Y032351D01*
X030925Y032443D01*
X030938Y032541D01*
X030925Y032638D01*
X030887Y032730D01*
X030827Y032808D01*
X030749Y032868D01*
X030657Y032906D01*
X030559Y032919D01*
X030462Y032906D01*
X030370Y032868D01*
X030310Y032822D01*
X025821D01*
X025817Y032827D01*
X025739Y032887D01*
X025648Y032925D01*
X025550Y032938D01*
X025452Y032925D01*
X025361Y032887D01*
X025283Y032827D01*
X025271Y032812D01*
X020421D01*
X020417Y032817D01*
X020339Y032878D01*
X020248Y032915D01*
X020150Y032928D01*
X020052Y032915D01*
X019961Y032878D01*
X019883Y032817D01*
X019879Y032812D01*
X019609D01*
X019517Y032904D01*
Y033496D01*
X019935Y033915D01*
X019935Y033915D01*
X020443Y034423D01*
X020450Y034422D01*
X020548Y034435D01*
X020639Y034472D01*
X020717Y034533D01*
X020778Y034611D01*
X020815Y034702D01*
X020828Y034800D01*
X020815Y034898D01*
X020778Y034989D01*
X020717Y035067D01*
X020639Y035128D01*
X020548Y035165D01*
X020450Y035178D01*
X020352Y035165D01*
X020261Y035128D01*
X020183Y035067D01*
X020122Y034989D01*
X020085Y034898D01*
X020072Y034800D01*
X020073Y034793D01*
X019641Y034362D01*
X018619D01*
X018212Y034769D01*
Y035929D01*
X018217Y035933D01*
X018278Y036011D01*
X018315Y036102D01*
X018328Y036200D01*
X018315Y036298D01*
X018278Y036389D01*
X018217Y036467D01*
X018139Y036528D01*
X018048Y036565D01*
X017950Y036578D01*
X017852Y036565D01*
X017761Y036528D01*
X017683Y036467D01*
X017622Y036389D01*
X017585Y036298D01*
X017572Y036200D01*
X017585Y036102D01*
X017622Y036011D01*
X017683Y035933D01*
X017688Y035929D01*
Y034660D01*
X017688Y034660D01*
X017697Y034592D01*
X017723Y034529D01*
X017765Y034475D01*
X018325Y033915D01*
X018325Y033915D01*
X018379Y033873D01*
X018442Y033847D01*
X018510Y033838D01*
X018510Y033838D01*
X018917D01*
X018947Y033810D01*
X019008Y033688D01*
X019002Y033673D01*
X018993Y033605D01*
X018993Y033605D01*
Y032795D01*
X018993Y032795D01*
X019002Y032727D01*
X019028Y032664D01*
X019070Y032610D01*
X019315Y032365D01*
X019315Y032365D01*
X019369Y032323D01*
X019432Y032297D01*
X019500Y032288D01*
X019879D01*
X019883Y032283D01*
X019961Y032222D01*
X020052Y032185D01*
X020150Y032172D01*
X020248Y032185D01*
X020339Y032222D01*
X020417Y032283D01*
X020421Y032288D01*
X025288D01*
X025361Y032232D01*
X025452Y032194D01*
X025550Y032181D01*
X025648Y032194D01*
X025739Y032232D01*
X025817Y032292D01*
X025821Y032297D01*
X030205D01*
X030297Y032181D01*
X030306Y032113D01*
X030332Y032049D01*
X030374Y031995D01*
X032223Y030146D01*
X032177Y029988D01*
X032114Y029962D01*
X032060Y029920D01*
X032060Y029920D01*
X028707Y026567D01*
X028700Y026568D01*
X028602Y026555D01*
X028511Y026518D01*
X028433Y026457D01*
X028372Y026379D01*
X028335Y026288D01*
X028322Y026190D01*
X028335Y026092D01*
X028372Y026001D01*
X028433Y025923D01*
X028511Y025862D01*
X028602Y025825D01*
X028700Y025812D01*
X028798Y025825D01*
X028889Y025862D01*
X028967Y025923D01*
X029028Y026001D01*
X029065Y026092D01*
X029078Y026190D01*
X029077Y026197D01*
X032354Y029473D01*
X033216D01*
X037634Y025055D01*
X037635Y025052D01*
X037672Y024961D01*
X037733Y024883D01*
X037738Y024879D01*
Y019759D01*
X034450Y016471D01*
X033395Y017525D01*
X033341Y017567D01*
X033308Y017581D01*
X033287Y017607D01*
X033209Y017668D01*
X033118Y017705D01*
X033020Y017718D01*
X032922Y017705D01*
X032831Y017668D01*
X032692Y017750D01*
Y018559D01*
X032697Y018563D01*
X032758Y018641D01*
X032795Y018732D01*
X032808Y018830D01*
X032795Y018928D01*
X032758Y019019D01*
X032697Y019097D01*
X032619Y019158D01*
X032528Y019195D01*
X032430Y019208D01*
X032412Y019206D01*
X032352Y019250D01*
X032347Y019286D01*
X032448Y019435D01*
X032539Y019472D01*
X032617Y019533D01*
X032678Y019611D01*
X032715Y019702D01*
X032728Y019800D01*
X032715Y019898D01*
X032678Y019989D01*
X032617Y020067D01*
X032539Y020128D01*
X032448Y020165D01*
X032350Y020178D01*
X032282Y020169D01*
X032168Y020269D01*
X032173Y020310D01*
X032252Y020435D01*
X032350Y020422D01*
X032448Y020435D01*
X032539Y020472D01*
X032617Y020533D01*
X032678Y020611D01*
X032715Y020702D01*
X032728Y020800D01*
X032715Y020898D01*
X032678Y020989D01*
X032617Y021067D01*
X032539Y021128D01*
X032448Y021165D01*
X032350Y021178D01*
X032337Y021177D01*
X032214Y021290D01*
X032350Y021383D01*
X032361Y021384D01*
X032450Y021372D01*
X032548Y021385D01*
X032639Y021422D01*
X032717Y021483D01*
X032778Y021561D01*
X032815Y021652D01*
X032828Y021750D01*
X032815Y021848D01*
X032778Y021939D01*
X032717Y022017D01*
X032639Y022078D01*
X032548Y022115D01*
X032450Y022128D01*
X032352Y022115D01*
X032299Y022093D01*
X032229Y022129D01*
X032207Y022148D01*
X032170Y022197D01*
X032178Y022260D01*
X032167Y022343D01*
X032239Y022372D01*
X032317Y022433D01*
X032378Y022511D01*
X032415Y022602D01*
X032428Y022700D01*
X032428Y022702D01*
X032466Y022820D01*
X032553Y022857D01*
X032573Y022860D01*
X032664Y022897D01*
X032742Y022958D01*
X032803Y023036D01*
X032840Y023127D01*
X032853Y023225D01*
X032840Y023323D01*
X032803Y023414D01*
X032742Y023492D01*
X032664Y023553D01*
X032573Y023590D01*
X032475Y023603D01*
X032468Y023602D01*
X030827Y025243D01*
X030828Y025250D01*
X030815Y025348D01*
X030778Y025439D01*
X030717Y025517D01*
X030639Y025578D01*
X030548Y025615D01*
X030450Y025628D01*
X030352Y025615D01*
X030261Y025578D01*
X030183Y025517D01*
X030122Y025439D01*
X030085Y025348D01*
X030084Y025342D01*
X030015Y025240D01*
X029924Y025225D01*
X029900Y025228D01*
X029802Y025215D01*
X029711Y025178D01*
X029633Y025117D01*
X029572Y025039D01*
X029535Y024948D01*
X029522Y024850D01*
X029523Y024840D01*
X029524Y024745D01*
X029407Y024668D01*
X029394Y024662D01*
X029342Y024623D01*
X029300Y024628D01*
X029202Y024615D01*
X029111Y024578D01*
X029033Y024517D01*
X028972Y024439D01*
X028935Y024348D01*
X028922Y024250D01*
X028935Y024152D01*
X028972Y024061D01*
X029033Y023983D01*
X029111Y023922D01*
X029202Y023885D01*
X029300Y023872D01*
X029398Y023885D01*
X029489Y023922D01*
X029567Y023983D01*
X029604Y023985D01*
X030677Y022912D01*
X030615Y022762D01*
X027509D01*
X026612Y023659D01*
Y027905D01*
X026762Y027967D01*
X027223Y027507D01*
X027222Y027500D01*
X027235Y027402D01*
X027272Y027311D01*
X027333Y027233D01*
X027411Y027172D01*
X027459Y027153D01*
X027519Y027017D01*
X027522Y026993D01*
X027519Y026981D01*
X027486Y026900D01*
X028214D01*
X028178Y026989D01*
X028117Y027067D01*
X028039Y027128D01*
X027991Y027147D01*
X027931Y027283D01*
X027928Y027307D01*
X027931Y027319D01*
X027965Y027402D01*
X027978Y027500D01*
X027965Y027598D01*
X027928Y027689D01*
X027867Y027767D01*
X027789Y027828D01*
X027698Y027865D01*
X027600Y027878D01*
X027593Y027877D01*
X027077Y028393D01*
X027078Y028400D01*
X027065Y028498D01*
X027028Y028589D01*
X026967Y028667D01*
X026889Y028728D01*
X026798Y028765D01*
X026700Y028778D01*
X026612Y028855D01*
Y029029D01*
X026617Y029033D01*
X026678Y029111D01*
X026715Y029202D01*
X026728Y029300D01*
X026715Y029398D01*
X026678Y029489D01*
X026617Y029567D01*
X026539Y029628D01*
X026448Y029665D01*
X026350Y029678D01*
X026252Y029665D01*
X026161Y029628D01*
X026083Y029567D01*
X026022Y029489D01*
X025985Y029398D01*
X025972Y029300D01*
X025985Y029202D01*
X026022Y029111D01*
X026083Y029033D01*
X026088Y029029D01*
Y023550D01*
X026088Y023550D01*
X026097Y023482D01*
X026123Y023419D01*
X026165Y023365D01*
X026878Y022651D01*
X026821Y022512D01*
X024959D01*
X024033Y023438D01*
X024095Y023588D01*
X024100D01*
X024100Y023588D01*
X024168Y023597D01*
X024231Y023623D01*
X024285Y023665D01*
X024543Y023923D01*
X024550Y023922D01*
X024648Y023935D01*
X024739Y023972D01*
X024817Y024033D01*
X024878Y024111D01*
X024914Y024200D01*
X024550D01*
Y024300D01*
X024450D01*
Y024664D01*
X024361Y024628D01*
X024283Y024567D01*
X024222Y024489D01*
X024185Y024398D01*
X024172Y024300D01*
X024173Y024293D01*
X024006Y024127D01*
X023939Y024178D01*
X023850Y024214D01*
Y023850D01*
X023650D01*
Y024214D01*
X023561Y024178D01*
X023483Y024117D01*
X023361Y024110D01*
X021362Y026109D01*
Y026429D01*
X021367Y026433D01*
X021428Y026511D01*
X021465Y026602D01*
X021478Y026700D01*
X021465Y026798D01*
X021428Y026889D01*
X021367Y026967D01*
X021289Y027028D01*
X021198Y027065D01*
X021100Y027078D01*
X021002Y027065D01*
X020911Y027028D01*
X020833Y026967D01*
X020806D01*
X020767Y027017D01*
X020689Y027078D01*
X020598Y027115D01*
X020500Y027128D01*
X020402Y027115D01*
X020311Y027078D01*
X020233Y027017D01*
X020167D01*
X020089Y027078D01*
X019998Y027115D01*
X019900Y027128D01*
X019802Y027115D01*
X019711Y027078D01*
X019633Y027017D01*
X019572Y026939D01*
X019549Y026884D01*
X019442Y026842D01*
X019382Y026839D01*
X017612Y028609D01*
Y032250D01*
X017603Y032318D01*
X017577Y032381D01*
X017535Y032435D01*
X017535Y032435D01*
X017212Y032759D01*
Y036279D01*
X017217Y036283D01*
X017278Y036361D01*
X017315Y036452D01*
X017328Y036550D01*
X017315Y036648D01*
X017278Y036739D01*
X017217Y036817D01*
X017139Y036878D01*
X017048Y036915D01*
X016950Y036928D01*
X016852Y036915D01*
X016818Y036901D01*
X016671Y036984D01*
X016659Y037088D01*
X017235Y037665D01*
X017235Y037665D01*
X017277Y037719D01*
X017303Y037782D01*
X017312Y037850D01*
Y039241D01*
X017485Y039415D01*
X017485Y039415D01*
X017527Y039469D01*
X017553Y039532D01*
X017562Y039600D01*
Y039829D01*
X017567Y039833D01*
X017628Y039911D01*
X017665Y040002D01*
X017678Y040100D01*
X017665Y040198D01*
X017628Y040289D01*
X017567Y040367D01*
X017489Y040428D01*
X017398Y040465D01*
X017300Y040478D01*
X017202Y040465D01*
X017111Y040428D01*
X017033Y040367D01*
X016972Y040289D01*
X016935Y040198D01*
X016922Y040100D01*
X016935Y040002D01*
X016972Y039911D01*
X017033Y039833D01*
X017019Y039690D01*
X016865Y039535D01*
X016823Y039481D01*
X016797Y039418D01*
X016788Y039350D01*
X016788Y039350D01*
Y037959D01*
X016312Y037483D01*
X016162Y037545D01*
Y037950D01*
X016162Y037950D01*
X016153Y038018D01*
X016127Y038081D01*
X016085Y038135D01*
X016085Y038135D01*
X015112Y039109D01*
Y042480D01*
X015250Y042573D01*
Y043150D01*
Y043717D01*
X015200Y043710D01*
X015060Y043652D01*
X014940Y043560D01*
X014925Y043541D01*
X014775D01*
X014760Y043560D01*
X014640Y043652D01*
X014500Y043710D01*
X014350Y043730D01*
X014200Y043710D01*
X014060Y043652D01*
X013940Y043560D01*
X013925Y043541D01*
X013775D01*
X013760Y043560D01*
X013640Y043652D01*
X013500Y043710D01*
X013450Y043717D01*
Y043150D01*
Y042583D01*
X013500Y042590D01*
X013640Y042648D01*
X013760Y042740D01*
X013775Y042759D01*
X013925D01*
X013940Y042740D01*
X014060Y042648D01*
X014200Y042590D01*
X014350Y042570D01*
X014455Y042584D01*
X014564Y042499D01*
X014588Y042465D01*
Y039000D01*
X014588Y039000D01*
X014597Y038932D01*
X014623Y038869D01*
X014665Y038815D01*
X015638Y037841D01*
Y028500D01*
X015638Y028500D01*
X015647Y028432D01*
X015673Y028369D01*
X015715Y028315D01*
X018105Y025924D01*
X018052Y025765D01*
X017961Y025728D01*
X017883Y025667D01*
X017822Y025589D01*
X017785Y025498D01*
X017772Y025400D01*
X017785Y025302D01*
X017822Y025211D01*
X017883Y025133D01*
X017961Y025072D01*
X018052Y025035D01*
X018150Y025022D01*
X018199Y025028D01*
X018304Y024922D01*
X018289Y024773D01*
X018283Y024767D01*
X018222Y024689D01*
X018185Y024598D01*
X018172Y024500D01*
X018173Y024493D01*
X017265Y023585D01*
X017223Y023531D01*
X017197Y023468D01*
X017188Y023400D01*
X017188Y023400D01*
Y021257D01*
X017140Y021222D01*
X017038Y021190D01*
X016989Y021228D01*
X016900Y021264D01*
Y020900D01*
Y020536D01*
X016989Y020572D01*
X017038Y020610D01*
X017140Y020578D01*
X017188Y020543D01*
Y019200D01*
X017188Y019200D01*
X017197Y019132D01*
X017223Y019069D01*
X017265Y019015D01*
X020265Y016015D01*
X020265Y016015D01*
X020319Y015973D01*
X020382Y015947D01*
X020450Y015938D01*
X020450Y015938D01*
X022929D01*
X022933Y015933D01*
X023011Y015872D01*
X023102Y015835D01*
X023200Y015822D01*
X023298Y015835D01*
X023389Y015872D01*
X023467Y015933D01*
X023528Y016011D01*
X023565Y016102D01*
X023578Y016200D01*
X023565Y016298D01*
X023528Y016389D01*
X023467Y016467D01*
X023389Y016528D01*
X023298Y016565D01*
X023200Y016578D01*
X023102Y016565D01*
X023011Y016528D01*
X022933Y016467D01*
X022929Y016462D01*
X020559D01*
X018210Y018810D01*
X018310Y018923D01*
X018311Y018922D01*
X018402Y018885D01*
X018500Y018872D01*
X018598Y018885D01*
X018689Y018922D01*
X018767Y018983D01*
X018828Y019061D01*
X018865Y019152D01*
X018878Y019250D01*
X018865Y019348D01*
X018828Y019439D01*
X018767Y019517D01*
X018762Y019521D01*
Y020211D01*
X020363Y021813D01*
X020370Y021812D01*
X020468Y021825D01*
X020559Y021862D01*
X020637Y021923D01*
X020698Y022001D01*
X020735Y022092D01*
X020748Y022190D01*
X020735Y022288D01*
X020698Y022379D01*
X020819Y022460D01*
X023728Y019551D01*
X023671Y019412D01*
X022718D01*
X022664Y019471D01*
X022658Y019509D01*
X022686Y019659D01*
X022717Y019683D01*
X022778Y019761D01*
X022815Y019852D01*
X022828Y019950D01*
X022815Y020048D01*
X022778Y020139D01*
X022717Y020217D01*
X022639Y020278D01*
X022548Y020315D01*
X022450Y020328D01*
X022412Y020323D01*
X022388Y020333D01*
X022320Y020342D01*
X022320Y020342D01*
X019801D01*
X019797Y020347D01*
X019719Y020408D01*
X019628Y020445D01*
X019530Y020458D01*
X019432Y020445D01*
X019341Y020408D01*
X019263Y020347D01*
X019202Y020269D01*
X019165Y020178D01*
X019152Y020080D01*
X019165Y019982D01*
X019202Y019891D01*
X019263Y019813D01*
X019341Y019752D01*
X019432Y019715D01*
X019530Y019702D01*
X019628Y019715D01*
X019719Y019752D01*
X019797Y019813D01*
X019801Y019818D01*
X022099D01*
X022122Y019761D01*
X022183Y019683D01*
X022218Y019656D01*
X022219Y019649D01*
X022204Y019508D01*
X022195Y019492D01*
X022161Y019478D01*
X022083Y019417D01*
X022022Y019339D01*
X021985Y019248D01*
X021972Y019150D01*
X021985Y019052D01*
X022022Y018961D01*
X022083Y018883D01*
X022161Y018822D01*
X022252Y018785D01*
X022350Y018772D01*
X022448Y018785D01*
X022539Y018822D01*
X022617Y018883D01*
X022621Y018888D01*
X026341D01*
X026488Y018741D01*
Y017400D01*
X026488Y017400D01*
X026497Y017332D01*
X026523Y017269D01*
X026565Y017215D01*
X028365Y015415D01*
X028365Y015415D01*
X028419Y015373D01*
X028482Y015347D01*
X028550Y015338D01*
X030891D01*
X031965Y014265D01*
X031965Y014265D01*
X032019Y014223D01*
X032082Y014197D01*
X032150Y014188D01*
X032150Y014188D01*
X032329D01*
X032333Y014183D01*
X032411Y014122D01*
X032502Y014085D01*
X032600Y014072D01*
X032698Y014085D01*
X032789Y014122D01*
X032867Y014183D01*
X032928Y014261D01*
X032965Y014352D01*
X032978Y014450D01*
X032965Y014548D01*
X032928Y014639D01*
X032867Y014717D01*
X032789Y014778D01*
X032698Y014815D01*
X032600Y014828D01*
X032502Y014815D01*
X032411Y014778D01*
X032333Y014717D01*
X032201Y014770D01*
X031185Y015785D01*
X031131Y015827D01*
X031068Y015853D01*
X031000Y015862D01*
X031000Y015862D01*
X028659D01*
X027012Y017509D01*
Y018850D01*
X027012Y018850D01*
X027004Y018913D01*
X027012Y018923D01*
X027133Y018996D01*
X028673Y017457D01*
X028672Y017450D01*
X028685Y017352D01*
X028722Y017261D01*
X028783Y017183D01*
X028861Y017122D01*
X028952Y017085D01*
X029050Y017072D01*
X029148Y017085D01*
X029239Y017122D01*
X029317Y017183D01*
X029378Y017261D01*
X029415Y017352D01*
X029428Y017450D01*
X029415Y017548D01*
X029378Y017639D01*
X029317Y017717D01*
X029239Y017778D01*
X029148Y017815D01*
X029050Y017828D01*
X029043Y017827D01*
X028583Y018288D01*
X028645Y018438D01*
X030550D01*
X030550Y018438D01*
X030618Y018447D01*
X030681Y018473D01*
X030735Y018515D01*
X030826Y018605D01*
X030985Y018552D01*
X031022Y018461D01*
X031083Y018383D01*
X031161Y018322D01*
X031250Y018286D01*
Y018650D01*
X031450D01*
Y018286D01*
X031539Y018322D01*
X031588Y018360D01*
X031690Y018328D01*
X031738Y018293D01*
Y017577D01*
X031588Y017503D01*
X031569Y017518D01*
X031480Y017554D01*
Y017190D01*
Y016826D01*
X031569Y016862D01*
X031588Y016877D01*
X031738Y016803D01*
Y016300D01*
X031738Y016300D01*
X031747Y016232D01*
X031773Y016169D01*
X031815Y016115D01*
X032785Y015145D01*
X032785Y015145D01*
X032839Y015103D01*
X032902Y015077D01*
X032970Y015068D01*
X032970Y015068D01*
X033179D01*
X033183Y015063D01*
X033261Y015002D01*
X033352Y014965D01*
X033450Y014952D01*
X033548Y014965D01*
X033639Y015002D01*
X033717Y015063D01*
X033778Y015141D01*
X033815Y015232D01*
X033828Y015330D01*
X033815Y015428D01*
X033778Y015519D01*
X033717Y015597D01*
X033639Y015658D01*
X033578Y015761D01*
X033615Y015852D01*
X033628Y015950D01*
X033615Y016048D01*
X033578Y016139D01*
X033517Y016217D01*
X033439Y016278D01*
X033348Y016315D01*
X033250Y016328D01*
X033155Y016316D01*
X032692Y016779D01*
Y016930D01*
X032831Y017012D01*
X032922Y016975D01*
X033020Y016962D01*
X033118Y016975D01*
X033179Y017000D01*
X034188Y015991D01*
Y012859D01*
X032891Y011562D01*
X017515D01*
X017425Y011675D01*
Y012738D01*
X017940D01*
X017983Y012683D01*
X018061Y012622D01*
X018152Y012585D01*
X018250Y012572D01*
X018348Y012585D01*
X018439Y012622D01*
X018517Y012683D01*
X018578Y012761D01*
X018615Y012852D01*
X018628Y012950D01*
X018615Y013048D01*
X018578Y013139D01*
X018517Y013217D01*
X018439Y013278D01*
X018348Y013315D01*
X018250Y013328D01*
X018152Y013315D01*
X018061Y013278D01*
X018041Y013262D01*
X015100D01*
X015100Y013262D01*
X015037Y013254D01*
X015027Y013262D01*
X014954Y013383D01*
X015209Y013638D01*
X017529D01*
X017533Y013633D01*
X017611Y013572D01*
X017702Y013535D01*
X017800Y013522D01*
X017898Y013535D01*
X017989Y013572D01*
X018067Y013633D01*
X018128Y013711D01*
X018165Y013802D01*
X018178Y013900D01*
X018165Y013998D01*
X018128Y014089D01*
X018067Y014167D01*
X017989Y014228D01*
X017898Y014265D01*
X017800Y014278D01*
X017702Y014265D01*
X017611Y014228D01*
X017533Y014167D01*
X017529Y014162D01*
X015100D01*
X015100Y014162D01*
X015032Y014153D01*
X014969Y014127D01*
X014915Y014085D01*
X014915Y014085D01*
X013915Y013085D01*
X013873Y013031D01*
X013847Y012968D01*
X013838Y012900D01*
X013838Y012900D01*
Y010790D01*
X013838Y010790D01*
X013843Y010750D01*
X013806Y010678D01*
X013736Y010600D01*
X012700D01*
Y011400D01*
X011500D01*
Y011500D01*
X011400D01*
Y012700D01*
X010709D01*
X010603Y012806D01*
X010605Y013953D01*
X010751Y013990D01*
X010826Y013849D01*
X010927Y013727D01*
X011049Y013626D01*
X011190Y013551D01*
X011342Y013505D01*
X011500Y013489D01*
X011658Y013505D01*
X011810Y013551D01*
X011951Y013626D01*
X012073Y013727D01*
X012174Y013849D01*
X012249Y013990D01*
X012295Y014142D01*
X012311Y014300D01*
X012295Y014458D01*
X012249Y014610D01*
X012174Y014751D01*
X012073Y014873D01*
X011951Y014974D01*
X011810Y015049D01*
X011658Y015095D01*
X011500Y015111D01*
X011342Y015095D01*
X011190Y015049D01*
X011049Y014974D01*
X010927Y014873D01*
X010826Y014751D01*
X010751Y014610D01*
X010606Y014650D01*
X010613Y019514D01*
X010677Y019549D01*
X010763Y019562D01*
X010857Y019448D01*
X010995Y019335D01*
X011152Y019251D01*
X011323Y019199D01*
X011400Y019191D01*
Y020091D01*
Y020991D01*
X011323Y020983D01*
X011152Y020931D01*
X010995Y020847D01*
X010857Y020734D01*
X010765Y020622D01*
X010669Y020639D01*
X010615Y020670D01*
X010620Y024248D01*
X010641Y024261D01*
X010770Y024294D01*
X010857Y024188D01*
X010995Y024075D01*
X011152Y023991D01*
X011323Y023939D01*
X011400Y023932D01*
Y024831D01*
Y025731D01*
X011323Y025723D01*
X011152Y025671D01*
X010995Y025587D01*
X010857Y025474D01*
X010772Y025371D01*
X010632Y025409D01*
X010622Y025416D01*
X010644Y040371D01*
X010794Y040408D01*
X010826Y040349D01*
X010927Y040227D01*
X011049Y040126D01*
X011190Y040051D01*
X011342Y040005D01*
X011500Y039989D01*
X011658Y040005D01*
X011810Y040051D01*
X011951Y040126D01*
X012073Y040227D01*
X012174Y040349D01*
X012249Y040490D01*
X012295Y040642D01*
X012311Y040800D01*
X012295Y040958D01*
X012249Y041110D01*
X012174Y041251D01*
X012073Y041373D01*
X011951Y041474D01*
X011810Y041549D01*
X011658Y041595D01*
X011500Y041611D01*
X011342Y041595D01*
X011190Y041549D01*
X011049Y041474D01*
X010927Y041373D01*
X010826Y041251D01*
X010795Y041194D01*
X010645Y041231D01*
X010647Y042425D01*
X011400D01*
Y043500D01*
X011500D01*
Y043600D01*
X012575D01*
Y044350D01*
X036300D01*
Y043600D01*
X038700D01*
Y044350D01*
X039300D01*
X039400Y044241D01*
D02*
G37*
%LPC*%
G36*
X024650Y024664D02*
Y024400D01*
X024914D01*
X024878Y024489D01*
X024817Y024567D01*
X024739Y024628D01*
X024650Y024664D01*
D02*
G37*
G36*
X012400Y024731D02*
X011600D01*
Y023932D01*
X011677Y023939D01*
X011848Y023991D01*
X012005Y024075D01*
X012143Y024188D01*
X012256Y024326D01*
X012340Y024483D01*
X012392Y024654D01*
X012400Y024731D01*
D02*
G37*
G36*
X034210Y024840D02*
X033946D01*
X033982Y024751D01*
X034043Y024673D01*
X034121Y024612D01*
X034210Y024576D01*
Y024840D01*
D02*
G37*
G36*
X014450Y025000D02*
X014186D01*
X014222Y024911D01*
X014283Y024833D01*
X014361Y024772D01*
X014450Y024736D01*
Y025000D01*
D02*
G37*
G36*
X034674Y024840D02*
X034410D01*
Y024576D01*
X034499Y024612D01*
X034577Y024673D01*
X034638Y024751D01*
X034674Y024840D01*
D02*
G37*
G36*
X013354Y023489D02*
X013216Y023471D01*
X013086Y023417D01*
X013076Y023409D01*
X012961Y023341D01*
X012845Y023409D01*
X012835Y023417D01*
X012706Y023471D01*
X012567Y023489D01*
X012428Y023471D01*
X012299Y023417D01*
X012188Y023332D01*
X012103Y023221D01*
X012049Y023092D01*
X012031Y022953D01*
X012049Y022815D01*
X012103Y022685D01*
X012188Y022574D01*
X012215Y022554D01*
Y022368D01*
X012188Y022348D01*
X012103Y022237D01*
X012049Y022108D01*
X012031Y021969D01*
X012049Y021830D01*
X012103Y021701D01*
X012188Y021590D01*
X012299Y021505D01*
X012428Y021452D01*
X012567Y021433D01*
X012706Y021452D01*
X012835Y021505D01*
X012845Y021513D01*
X012961Y021581D01*
X013076Y021513D01*
X013086Y021505D01*
X013216Y021452D01*
X013354Y021433D01*
X013493Y021452D01*
X013622Y021505D01*
X013733Y021590D01*
X013818Y021701D01*
X013872Y021830D01*
X013890Y021969D01*
X013872Y022108D01*
X013818Y022237D01*
X013733Y022348D01*
X013706Y022368D01*
Y022554D01*
X013733Y022574D01*
X013818Y022685D01*
X013872Y022815D01*
X013890Y022953D01*
X013872Y023092D01*
X013818Y023221D01*
X013733Y023332D01*
X013622Y023417D01*
X013493Y023471D01*
X013354Y023489D01*
D02*
G37*
G36*
X012400Y019991D02*
X011600D01*
Y019191D01*
X011677Y019199D01*
X011848Y019251D01*
X012005Y019335D01*
X012143Y019448D01*
X012256Y019586D01*
X012340Y019743D01*
X012392Y019914D01*
X012400Y019991D01*
D02*
G37*
G36*
X020510Y017814D02*
Y017550D01*
X020774D01*
X020738Y017639D01*
X020677Y017717D01*
X020599Y017778D01*
X020510Y017814D01*
D02*
G37*
G36*
X011600Y020991D02*
Y020191D01*
X012400D01*
X012392Y020268D01*
X012340Y020439D01*
X012256Y020596D01*
X012143Y020734D01*
X012005Y020847D01*
X011848Y020931D01*
X011677Y020983D01*
X011600Y020991D01*
D02*
G37*
G36*
X016700Y021264D02*
X016611Y021228D01*
X016533Y021167D01*
X016472Y021089D01*
X016436Y021000D01*
X016700D01*
Y021264D01*
D02*
G37*
G36*
Y020800D02*
X016436D01*
X016472Y020711D01*
X016533Y020633D01*
X016611Y020572D01*
X016700Y020536D01*
Y020800D01*
D02*
G37*
G36*
X022350Y029028D02*
X022252Y029015D01*
X022161Y028978D01*
X022083Y028917D01*
X022022Y028839D01*
X021985Y028748D01*
X021972Y028650D01*
X021985Y028552D01*
X022022Y028461D01*
X022083Y028383D01*
X022138Y028340D01*
Y026431D01*
X022133Y026427D01*
X022072Y026349D01*
X022035Y026258D01*
X022022Y026160D01*
X022035Y026062D01*
X022072Y025971D01*
X022133Y025893D01*
X022211Y025832D01*
X022302Y025795D01*
X022400Y025782D01*
X022498Y025795D01*
X022589Y025832D01*
X022667Y025893D01*
X022728Y025971D01*
X022765Y026062D01*
X022778Y026160D01*
X022765Y026258D01*
X022728Y026349D01*
X022667Y026427D01*
X022662Y026431D01*
Y028441D01*
X022678Y028461D01*
X022715Y028552D01*
X022728Y028650D01*
X022715Y028748D01*
X022678Y028839D01*
X022617Y028917D01*
X022539Y028978D01*
X022448Y029015D01*
X022350Y029028D01*
D02*
G37*
G36*
X038800Y025950D02*
X038536D01*
X038572Y025861D01*
X038633Y025783D01*
X038711Y025722D01*
X038800Y025686D01*
Y025950D01*
D02*
G37*
G36*
Y026414D02*
X038711Y026378D01*
X038633Y026317D01*
X038572Y026239D01*
X038536Y026150D01*
X038800D01*
Y026414D01*
D02*
G37*
G36*
X027750Y026700D02*
X027486D01*
X027522Y026611D01*
X027583Y026533D01*
X027661Y026472D01*
X027750Y026436D01*
Y026700D01*
D02*
G37*
G36*
X033100Y026878D02*
X033002Y026865D01*
X032911Y026828D01*
X032833Y026767D01*
X032772Y026689D01*
X032735Y026598D01*
X032722Y026500D01*
X032722Y026497D01*
X032704Y026465D01*
X032592Y026373D01*
X032550Y026378D01*
X032452Y026365D01*
X032361Y026328D01*
X032283Y026267D01*
X032279Y026262D01*
X032010D01*
X031967Y026317D01*
X031889Y026378D01*
X031798Y026415D01*
X031700Y026428D01*
X031602Y026415D01*
X031511Y026378D01*
X031433Y026317D01*
X031372Y026239D01*
X031335Y026148D01*
X031334Y026146D01*
X031323Y026131D01*
X031297Y026068D01*
X031288Y026000D01*
X031297Y025932D01*
X031323Y025869D01*
X031365Y025815D01*
X031419Y025773D01*
X031476Y025749D01*
X031511Y025722D01*
X031602Y025685D01*
X031700Y025672D01*
X031798Y025685D01*
X031889Y025722D01*
X031909Y025738D01*
X032279D01*
X032283Y025733D01*
X032361Y025672D01*
X032452Y025635D01*
X032550Y025622D01*
X032648Y025635D01*
X032739Y025672D01*
X032817Y025733D01*
X032878Y025811D01*
X032915Y025902D01*
X032928Y026000D01*
X032928Y026003D01*
X032946Y026035D01*
X033058Y026127D01*
X033100Y026122D01*
X033198Y026135D01*
X033289Y026172D01*
X033367Y026233D01*
X033371Y026238D01*
X034041D01*
X034315Y025965D01*
X034315Y025965D01*
X034369Y025923D01*
X034432Y025897D01*
X034500Y025888D01*
X034500Y025888D01*
X034879D01*
X034883Y025883D01*
X034961Y025822D01*
X035052Y025785D01*
X035150Y025772D01*
X035248Y025785D01*
X035339Y025822D01*
X035417Y025883D01*
X035478Y025961D01*
X035515Y026052D01*
X035528Y026150D01*
X035515Y026248D01*
X035478Y026339D01*
X035417Y026417D01*
X035339Y026478D01*
X035248Y026515D01*
X035150Y026528D01*
X035052Y026515D01*
X034961Y026478D01*
X034883Y026417D01*
X034879Y026412D01*
X034609D01*
X034335Y026685D01*
X034281Y026727D01*
X034218Y026753D01*
X034150Y026762D01*
X034150Y026762D01*
X033371D01*
X033367Y026767D01*
X033289Y026828D01*
X033198Y026865D01*
X033100Y026878D01*
D02*
G37*
G36*
X014650Y025464D02*
Y025200D01*
X014914D01*
X014878Y025289D01*
X014817Y025367D01*
X014739Y025428D01*
X014650Y025464D01*
D02*
G37*
G36*
X011600Y025731D02*
Y024931D01*
X012400D01*
X012392Y025009D01*
X012340Y025179D01*
X012256Y025336D01*
X012143Y025474D01*
X012005Y025587D01*
X011848Y025671D01*
X011677Y025723D01*
X011600Y025731D01*
D02*
G37*
G36*
X014914Y025000D02*
X014650D01*
Y024736D01*
X014739Y024772D01*
X014817Y024833D01*
X014878Y024911D01*
X014914Y025000D01*
D02*
G37*
G36*
X034210Y025304D02*
X034121Y025268D01*
X034043Y025207D01*
X033982Y025129D01*
X033946Y025040D01*
X034210D01*
Y025304D01*
D02*
G37*
G36*
X014450Y025464D02*
X014361Y025428D01*
X014283Y025367D01*
X014222Y025289D01*
X014186Y025200D01*
X014450D01*
Y025464D01*
D02*
G37*
G36*
X034410Y025304D02*
Y025040D01*
X034674D01*
X034638Y025129D01*
X034577Y025207D01*
X034499Y025268D01*
X034410Y025304D01*
D02*
G37*
G36*
X020310Y017814D02*
X020221Y017778D01*
X020143Y017717D01*
X020082Y017639D01*
X020046Y017550D01*
X020310D01*
Y017814D01*
D02*
G37*
G36*
X024694Y013830D02*
X024430D01*
Y013566D01*
X024519Y013602D01*
X024597Y013663D01*
X024658Y013741D01*
X024694Y013830D01*
D02*
G37*
G36*
X024230D02*
X023966D01*
X024002Y013741D01*
X024063Y013663D01*
X024141Y013602D01*
X024230Y013566D01*
Y013830D01*
D02*
G37*
G36*
Y014294D02*
X024141Y014258D01*
X024063Y014197D01*
X024002Y014119D01*
X023966Y014030D01*
X024230D01*
Y014294D01*
D02*
G37*
G36*
X038720Y015850D02*
X038456D01*
X038492Y015761D01*
X038553Y015683D01*
X038631Y015622D01*
X038720Y015586D01*
Y015850D01*
D02*
G37*
G36*
X024430Y014294D02*
Y014030D01*
X024694D01*
X024658Y014119D01*
X024597Y014197D01*
X024519Y014258D01*
X024430Y014294D01*
D02*
G37*
G36*
X033320Y013464D02*
Y013200D01*
X033584D01*
X033548Y013289D01*
X033487Y013367D01*
X033409Y013428D01*
X033320Y013464D01*
D02*
G37*
G36*
X038400Y012700D02*
X037300D01*
Y011600D01*
X038400D01*
Y012700D01*
D02*
G37*
G36*
X012700D02*
X011600D01*
Y011600D01*
X012700D01*
Y012700D01*
D02*
G37*
G36*
X033120Y013000D02*
X032856D01*
X032892Y012911D01*
X032953Y012833D01*
X033031Y012772D01*
X033120Y012736D01*
Y013000D01*
D02*
G37*
G36*
Y013464D02*
X033031Y013428D01*
X032953Y013367D01*
X032892Y013289D01*
X032856Y013200D01*
X033120D01*
Y013464D01*
D02*
G37*
G36*
X033584Y013000D02*
X033320D01*
Y012736D01*
X033409Y012772D01*
X033487Y012833D01*
X033548Y012911D01*
X033584Y013000D01*
D02*
G37*
G36*
X020774Y017350D02*
X020510D01*
Y017086D01*
X020599Y017122D01*
X020677Y017183D01*
X020738Y017261D01*
X020774Y017350D01*
D02*
G37*
G36*
X020310D02*
X020046D01*
X020082Y017261D01*
X020143Y017183D01*
X020221Y017122D01*
X020310Y017086D01*
Y017350D01*
D02*
G37*
G36*
X013470Y017374D02*
X013381Y017338D01*
X013303Y017277D01*
X013242Y017199D01*
X013206Y017110D01*
X013470D01*
Y017374D01*
D02*
G37*
G36*
X031280Y017554D02*
X031191Y017518D01*
X031113Y017457D01*
X031052Y017379D01*
X031016Y017290D01*
X031280D01*
Y017554D01*
D02*
G37*
G36*
X013670Y017374D02*
Y017110D01*
X013934D01*
X013898Y017199D01*
X013837Y017277D01*
X013759Y017338D01*
X013670Y017374D01*
D02*
G37*
G36*
X031280Y017090D02*
X031016D01*
X031052Y017001D01*
X031113Y016923D01*
X031191Y016862D01*
X031280Y016826D01*
Y017090D01*
D02*
G37*
G36*
X038720Y016314D02*
X038631Y016278D01*
X038553Y016217D01*
X038492Y016139D01*
X038456Y016050D01*
X038720D01*
Y016314D01*
D02*
G37*
G36*
X039184Y015850D02*
X038920D01*
Y015586D01*
X039009Y015622D01*
X039087Y015683D01*
X039148Y015761D01*
X039184Y015850D01*
D02*
G37*
G36*
X038920Y016314D02*
Y016050D01*
X039184D01*
X039148Y016139D01*
X039087Y016217D01*
X039009Y016278D01*
X038920Y016314D01*
D02*
G37*
G36*
X013934Y016910D02*
X013670D01*
Y016646D01*
X013759Y016682D01*
X013837Y016743D01*
X013898Y016821D01*
X013934Y016910D01*
D02*
G37*
G36*
X013470D02*
X013206D01*
X013242Y016821D01*
X013303Y016743D01*
X013381Y016682D01*
X013470Y016646D01*
Y016910D01*
D02*
G37*
G36*
X026300Y040378D02*
X026202Y040365D01*
X026111Y040328D01*
X026033Y040267D01*
X025972Y040189D01*
X025935Y040098D01*
X025922Y040000D01*
X025935Y039902D01*
X025972Y039811D01*
X026033Y039733D01*
X026038Y039729D01*
Y039391D01*
X026013Y039362D01*
X025888Y039299D01*
X025850Y039314D01*
Y038950D01*
Y038586D01*
X025939Y038622D01*
X026017Y038683D01*
X026078Y038761D01*
X026115Y038852D01*
X026121Y038896D01*
X026258Y038955D01*
X026273Y038956D01*
X027165Y038065D01*
X027165Y038065D01*
X027219Y038023D01*
X027282Y037997D01*
X027350Y037988D01*
X027350Y037988D01*
X027479D01*
X027483Y037983D01*
X027561Y037922D01*
X027652Y037885D01*
X027750Y037872D01*
X027848Y037885D01*
X027939Y037922D01*
X028017Y037983D01*
X028078Y038061D01*
X028115Y038152D01*
X028128Y038250D01*
X028115Y038348D01*
X028078Y038439D01*
X028017Y038517D01*
X027939Y038578D01*
X027848Y038615D01*
X027750Y038628D01*
X027652Y038615D01*
X027561Y038578D01*
X027483Y038517D01*
X027363Y038608D01*
X026562Y039409D01*
Y039729D01*
X026567Y039733D01*
X026628Y039811D01*
X026665Y039902D01*
X026678Y040000D01*
X026665Y040098D01*
X026628Y040189D01*
X026567Y040267D01*
X026489Y040328D01*
X026398Y040365D01*
X026300Y040378D01*
D02*
G37*
G36*
X025650Y039314D02*
X025561Y039278D01*
X025483Y039217D01*
X025422Y039139D01*
X025386Y039050D01*
X025650D01*
Y039314D01*
D02*
G37*
G36*
X025900Y042428D02*
X025802Y042415D01*
X025711Y042378D01*
X025633Y042317D01*
X025572Y042239D01*
X025535Y042148D01*
X025522Y042050D01*
X025523Y042043D01*
X025141Y041662D01*
X020600D01*
X020600Y041662D01*
X020532Y041653D01*
X020469Y041627D01*
X020415Y041585D01*
X020415Y041585D01*
X019115Y040285D01*
X019073Y040231D01*
X019047Y040168D01*
X019038Y040100D01*
X019038Y040100D01*
Y039671D01*
X019033Y039667D01*
X018972Y039589D01*
X018935Y039498D01*
X018922Y039400D01*
X018935Y039302D01*
X018972Y039211D01*
X019033Y039133D01*
X019111Y039072D01*
X019202Y039035D01*
X019300Y039022D01*
X019398Y039035D01*
X019489Y039072D01*
X019567Y039133D01*
X019628Y039211D01*
X019665Y039302D01*
X019678Y039400D01*
X019665Y039498D01*
X019628Y039589D01*
X019567Y039667D01*
X019562Y039671D01*
Y039991D01*
X020709Y041138D01*
X025250D01*
X025250Y041138D01*
X025318Y041147D01*
X025381Y041173D01*
X025435Y041215D01*
X025893Y041673D01*
X025900Y041672D01*
X025998Y041685D01*
X026089Y041722D01*
X026167Y041783D01*
X026228Y041861D01*
X026265Y041952D01*
X026278Y042050D01*
X026265Y042148D01*
X026228Y042239D01*
X026167Y042317D01*
X026089Y042378D01*
X025998Y042415D01*
X025900Y042428D01*
D02*
G37*
G36*
X038700Y043400D02*
X037600D01*
Y042300D01*
X038700D01*
Y043400D01*
D02*
G37*
G36*
X037400D02*
X036300D01*
Y042300D01*
X037400D01*
Y043400D01*
D02*
G37*
G36*
X025650Y038850D02*
X025386D01*
X025422Y038761D01*
X025483Y038683D01*
X025561Y038622D01*
X025650Y038586D01*
Y038850D01*
D02*
G37*
G36*
X024200Y037450D02*
X023936D01*
X023972Y037361D01*
X024033Y037283D01*
X024111Y037222D01*
X024200Y037186D01*
Y037450D01*
D02*
G37*
G36*
X025600Y035864D02*
Y035600D01*
X025864D01*
X025828Y035689D01*
X025767Y035767D01*
X025689Y035828D01*
X025600Y035864D01*
D02*
G37*
G36*
X024664Y037450D02*
X024400D01*
Y037186D01*
X024489Y037222D01*
X024567Y037283D01*
X024628Y037361D01*
X024664Y037450D01*
D02*
G37*
G36*
X024400Y037914D02*
Y037650D01*
X024664D01*
X024628Y037739D01*
X024567Y037817D01*
X024489Y037878D01*
X024400Y037914D01*
D02*
G37*
G36*
X024200D02*
X024111Y037878D01*
X024033Y037817D01*
X023972Y037739D01*
X023936Y037650D01*
X024200D01*
Y037914D01*
D02*
G37*
G36*
X016350Y043730D02*
X016200Y043710D01*
X016060Y043652D01*
X015940Y043560D01*
X015925Y043541D01*
X015775D01*
X015760Y043560D01*
X015640Y043652D01*
X015500Y043710D01*
X015450Y043717D01*
Y043150D01*
Y042583D01*
X015500Y042590D01*
X015640Y042648D01*
X015760Y042740D01*
X015775Y042759D01*
X015925D01*
X015940Y042740D01*
X016060Y042648D01*
X016200Y042590D01*
X016350Y042570D01*
X016500Y042590D01*
X016640Y042648D01*
X016760Y042740D01*
X016775Y042759D01*
X016925D01*
X016940Y042740D01*
X017060Y042648D01*
X017200Y042590D01*
X017250Y042583D01*
Y043150D01*
Y043717D01*
X017200Y043710D01*
X017060Y043652D01*
X016940Y043560D01*
X016925Y043541D01*
X016775D01*
X016760Y043560D01*
X016640Y043652D01*
X016500Y043710D01*
X016350Y043730D01*
D02*
G37*
G36*
X026080Y043764D02*
Y043500D01*
X026344D01*
X026308Y043589D01*
X026247Y043667D01*
X026169Y043728D01*
X026080Y043764D01*
D02*
G37*
G36*
X018350Y043730D02*
X018200Y043710D01*
X018060Y043652D01*
X017940Y043560D01*
X017925Y043541D01*
X017775D01*
X017760Y043560D01*
X017640Y043652D01*
X017500Y043710D01*
X017450Y043717D01*
Y043150D01*
Y042583D01*
X017500Y042590D01*
X017640Y042648D01*
X017760Y042740D01*
X017775Y042759D01*
X017925D01*
X017940Y042740D01*
X018060Y042648D01*
X018200Y042590D01*
X018350Y042570D01*
X018500Y042590D01*
X018640Y042648D01*
X018760Y042740D01*
X018775Y042759D01*
X018925D01*
X018940Y042740D01*
X019060Y042648D01*
X019200Y042590D01*
X019250Y042583D01*
Y043150D01*
Y043717D01*
X019200Y043710D01*
X019060Y043652D01*
X018940Y043560D01*
X018925Y043541D01*
X018775D01*
X018760Y043560D01*
X018640Y043652D01*
X018500Y043710D01*
X018350Y043730D01*
D02*
G37*
G36*
X021775Y043725D02*
X021649Y043667D01*
X021625Y043658D01*
X021500Y043710D01*
X021450Y043717D01*
Y043150D01*
Y042583D01*
X021500Y042590D01*
X021625Y042642D01*
X021648Y042633D01*
X021775Y042575D01*
X021775Y042575D01*
X021775Y042575D01*
X022925D01*
Y043725D01*
X021775D01*
Y043725D01*
D02*
G37*
G36*
X020350Y043730D02*
X020200Y043710D01*
X020060Y043652D01*
X019940Y043560D01*
X019925Y043541D01*
X019775D01*
X019760Y043560D01*
X019640Y043652D01*
X019500Y043710D01*
X019450Y043717D01*
Y043150D01*
Y042583D01*
X019500Y042590D01*
X019640Y042648D01*
X019760Y042740D01*
X019775Y042759D01*
X019925D01*
X019940Y042740D01*
X020060Y042648D01*
X020200Y042590D01*
X020350Y042570D01*
X020500Y042590D01*
X020640Y042648D01*
X020760Y042740D01*
X020775Y042759D01*
X020925D01*
X020940Y042740D01*
X021060Y042648D01*
X021200Y042590D01*
X021250Y042583D01*
Y043150D01*
Y043717D01*
X021200Y043710D01*
X021060Y043652D01*
X020940Y043560D01*
X020925Y043541D01*
X020775D01*
X020760Y043560D01*
X020640Y043652D01*
X020500Y043710D01*
X020350Y043730D01*
D02*
G37*
G36*
X025880Y043764D02*
X025791Y043728D01*
X025713Y043667D01*
X025652Y043589D01*
X025616Y043500D01*
X025880D01*
Y043764D01*
D02*
G37*
G36*
X013250Y043050D02*
X012783D01*
X012790Y043000D01*
X012848Y042860D01*
X012940Y042740D01*
X013060Y042648D01*
X013200Y042590D01*
X013250Y042583D01*
Y043050D01*
D02*
G37*
G36*
X012575Y043400D02*
X011600D01*
Y042425D01*
X012575D01*
Y043400D01*
D02*
G37*
G36*
X025880Y043300D02*
X025616D01*
X025652Y043211D01*
X025713Y043133D01*
X025791Y043072D01*
X025880Y043036D01*
Y043300D01*
D02*
G37*
G36*
X013250Y043717D02*
X013200Y043710D01*
X013060Y043652D01*
X012940Y043560D01*
X012848Y043440D01*
X012790Y043300D01*
X012783Y043250D01*
X013250D01*
Y043717D01*
D02*
G37*
G36*
X026344Y043300D02*
X026080D01*
Y043036D01*
X026169Y043072D01*
X026247Y043133D01*
X026308Y043211D01*
X026344Y043300D01*
D02*
G37*
G36*
X025400Y035864D02*
X025311Y035828D01*
X025233Y035767D01*
X025172Y035689D01*
X025136Y035600D01*
X025400D01*
Y035864D01*
D02*
G37*
G36*
X025450Y027314D02*
X025361Y027278D01*
X025283Y027217D01*
X025222Y027139D01*
X025186Y027050D01*
X025450D01*
Y027314D01*
D02*
G37*
G36*
X038080Y027204D02*
Y026940D01*
X038344D01*
X038308Y027029D01*
X038247Y027107D01*
X038169Y027168D01*
X038080Y027204D01*
D02*
G37*
G36*
X025650Y027314D02*
Y027050D01*
X025914D01*
X025878Y027139D01*
X025817Y027217D01*
X025739Y027278D01*
X025650Y027314D01*
D02*
G37*
G36*
X022614Y030000D02*
X022350D01*
Y029736D01*
X022439Y029772D01*
X022517Y029833D01*
X022578Y029911D01*
X022614Y030000D01*
D02*
G37*
G36*
X022150D02*
X021886D01*
X021922Y029911D01*
X021983Y029833D01*
X022061Y029772D01*
X022150Y029736D01*
Y030000D01*
D02*
G37*
G36*
X037880Y027204D02*
X037791Y027168D01*
X037713Y027107D01*
X037652Y027029D01*
X037616Y026940D01*
X037880D01*
Y027204D01*
D02*
G37*
G36*
Y026740D02*
X037616D01*
X037652Y026651D01*
X037713Y026573D01*
X037791Y026512D01*
X037880Y026476D01*
Y026740D01*
D02*
G37*
G36*
X028214Y026700D02*
X027950D01*
Y026436D01*
X028039Y026472D01*
X028117Y026533D01*
X028178Y026611D01*
X028214Y026700D01*
D02*
G37*
G36*
X038344Y026740D02*
X038080D01*
Y026476D01*
X038169Y026512D01*
X038247Y026573D01*
X038308Y026651D01*
X038344Y026740D01*
D02*
G37*
G36*
X025914Y026850D02*
X025650D01*
Y026586D01*
X025739Y026622D01*
X025817Y026683D01*
X025878Y026761D01*
X025914Y026850D01*
D02*
G37*
G36*
X025450D02*
X025186D01*
X025222Y026761D01*
X025283Y026683D01*
X025361Y026622D01*
X025450Y026586D01*
Y026850D01*
D02*
G37*
G36*
X011968Y033747D02*
X011834Y033730D01*
X011709Y033678D01*
X011601Y033595D01*
X011519Y033488D01*
X011467Y033362D01*
X011449Y033228D01*
X011467Y033094D01*
X011519Y032968D01*
X011601Y032861D01*
X011709Y032778D01*
X011834Y032726D01*
X011968Y032709D01*
X012103Y032726D01*
X012228Y032778D01*
X012336Y032861D01*
X012418Y032968D01*
X012470Y033094D01*
X012488Y033228D01*
X012470Y033362D01*
X012418Y033488D01*
X012336Y033595D01*
X012228Y033678D01*
X012103Y033730D01*
X011968Y033747D01*
D02*
G37*
G36*
X013740Y033787D02*
X013595Y033768D01*
X013461Y033712D01*
X013345Y033623D01*
X013256Y033508D01*
X013200Y033373D01*
X013181Y033228D01*
X013200Y033083D01*
X013256Y032948D01*
X013345Y032833D01*
X013461Y032744D01*
X013595Y032688D01*
X013740Y032669D01*
X013885Y032688D01*
X014020Y032744D01*
X014136Y032833D01*
X014224Y032948D01*
X014280Y033083D01*
X014299Y033228D01*
X014280Y033373D01*
X014224Y033508D01*
X014136Y033623D01*
X014020Y033712D01*
X013885Y033768D01*
X013740Y033787D01*
D02*
G37*
G36*
X035860Y035823D02*
X028340D01*
Y034540D01*
X035860D01*
Y035823D01*
D02*
G37*
G36*
X025864Y035400D02*
X025600D01*
Y035136D01*
X025689Y035172D01*
X025767Y035233D01*
X025828Y035311D01*
X025864Y035400D01*
D02*
G37*
G36*
X025400D02*
X025136D01*
X025172Y035311D01*
X025233Y035233D01*
X025311Y035172D01*
X025400Y035136D01*
Y035400D01*
D02*
G37*
G36*
X031300Y030714D02*
Y030450D01*
X031564D01*
X031528Y030539D01*
X031467Y030617D01*
X031389Y030678D01*
X031300Y030714D01*
D02*
G37*
G36*
X031564Y030250D02*
X031300D01*
Y029986D01*
X031389Y030022D01*
X031467Y030083D01*
X031528Y030161D01*
X031564Y030250D01*
D02*
G37*
G36*
X031100D02*
X030836D01*
X030872Y030161D01*
X030933Y030083D01*
X031011Y030022D01*
X031100Y029986D01*
Y030250D01*
D02*
G37*
G36*
X022150Y030464D02*
X022061Y030428D01*
X021983Y030367D01*
X021922Y030289D01*
X021886Y030200D01*
X022150D01*
Y030464D01*
D02*
G37*
G36*
X031100Y030714D02*
X031011Y030678D01*
X030933Y030617D01*
X030872Y030539D01*
X030836Y030450D01*
X031100D01*
Y030714D01*
D02*
G37*
G36*
X022350Y030464D02*
Y030200D01*
X022614D01*
X022578Y030289D01*
X022517Y030367D01*
X022439Y030428D01*
X022350Y030464D01*
D02*
G37*
%LPD*%
G36*
X030035Y034609D02*
X029940D01*
Y034946D01*
X029732Y034609D01*
X029629D01*
Y035122D01*
X029724D01*
Y034778D01*
X029935Y035122D01*
X030035D01*
Y034609D01*
D02*
G37*
G36*
X031150D02*
X031055D01*
Y035012D01*
X030954Y034609D01*
X030854D01*
X030753Y035012D01*
X030752Y034609D01*
X030657D01*
Y035122D01*
X030812D01*
X030903Y034772D01*
X030995Y035122D01*
X031150D01*
Y034609D01*
D02*
G37*
G36*
X035800D02*
X035595D01*
X035585Y034610D01*
X035576Y034611D01*
X035567Y034611D01*
X035559Y034612D01*
X035551Y034613D01*
X035545Y034614D01*
X035539Y034615D01*
X035533Y034616D01*
X035528Y034617D01*
X035524Y034618D01*
X035520Y034618D01*
X035518Y034619D01*
X035516Y034619D01*
X035515Y034620D01*
X035514D01*
X035498Y034626D01*
X035484Y034633D01*
X035471Y034639D01*
X035461Y034646D01*
X035456Y034649D01*
X035453Y034652D01*
X035450Y034654D01*
X035447Y034657D01*
X035445Y034658D01*
X035443Y034660D01*
X035443Y034660D01*
X035442Y034661D01*
X035429Y034675D01*
X035418Y034690D01*
X035409Y034705D01*
X035401Y034719D01*
X035398Y034726D01*
X035395Y034732D01*
X035393Y034738D01*
X035390Y034742D01*
X035389Y034746D01*
X035388Y034749D01*
X035387Y034751D01*
Y034752D01*
X035382Y034769D01*
X035378Y034788D01*
X035375Y034806D01*
X035373Y034823D01*
X035372Y034831D01*
X035372Y034838D01*
Y034844D01*
X035371Y034850D01*
Y034854D01*
Y034858D01*
Y034860D01*
Y034860D01*
Y034874D01*
X035372Y034886D01*
X035373Y034898D01*
X035374Y034910D01*
X035375Y034920D01*
X035377Y034930D01*
X035378Y034940D01*
X035379Y034948D01*
X035381Y034955D01*
X035383Y034962D01*
X035384Y034968D01*
X035385Y034972D01*
X035387Y034976D01*
X035388Y034979D01*
X035388Y034981D01*
Y034981D01*
X035395Y034999D01*
X035403Y035015D01*
X035411Y035030D01*
X035415Y035036D01*
X035419Y035041D01*
X035423Y035047D01*
X035426Y035051D01*
X035429Y035055D01*
X035431Y035058D01*
X035434Y035061D01*
X035435Y035063D01*
X035436Y035064D01*
X035437Y035065D01*
X035450Y035076D01*
X035463Y035086D01*
X035475Y035094D01*
X035488Y035101D01*
X035498Y035106D01*
X035503Y035108D01*
X035506Y035109D01*
X035510Y035110D01*
X035512Y035111D01*
X035514Y035112D01*
X035514D01*
X035521Y035113D01*
X035528Y035115D01*
X035544Y035117D01*
X035560Y035119D01*
X035575Y035121D01*
X035582Y035121D01*
X035595D01*
X035601Y035122D01*
X035800D01*
Y034609D01*
D02*
G37*
G36*
X033414D02*
X033318D01*
Y034946D01*
X033110Y034609D01*
X033007D01*
Y035122D01*
X033103D01*
Y034778D01*
X033314Y035122D01*
X033414D01*
Y034609D01*
D02*
G37*
G36*
X029917Y035242D02*
X029527D01*
Y035328D01*
X029814D01*
Y035468D01*
X029557D01*
Y035554D01*
X029814D01*
Y035668D01*
X029537D01*
Y035754D01*
X029917D01*
Y035242D01*
D02*
G37*
G36*
X028998Y035668D02*
X028846D01*
Y035242D01*
X028743D01*
Y035668D01*
X028592D01*
Y035754D01*
X028998D01*
Y035668D01*
D02*
G37*
G36*
X029282Y035762D02*
X029292Y035761D01*
X029302Y035760D01*
X029310Y035758D01*
X029319Y035757D01*
X029326Y035755D01*
X029333Y035754D01*
X029340Y035751D01*
X029345Y035750D01*
X029350Y035749D01*
X029354Y035747D01*
X029357Y035746D01*
X029360Y035745D01*
X029361Y035744D01*
X029361D01*
X029376Y035737D01*
X029389Y035729D01*
X029400Y035720D01*
X029409Y035712D01*
X029416Y035704D01*
X029421Y035698D01*
X029423Y035696D01*
X029424Y035694D01*
X029425Y035693D01*
Y035693D01*
X029432Y035680D01*
X029438Y035667D01*
X029442Y035654D01*
X029445Y035643D01*
X029446Y035634D01*
X029447Y035629D01*
Y035626D01*
X029447Y035623D01*
Y035621D01*
Y035620D01*
Y035619D01*
X029447Y035608D01*
X029445Y035598D01*
X029443Y035587D01*
X029440Y035578D01*
X029436Y035569D01*
X029432Y035560D01*
X029428Y035552D01*
X029424Y035545D01*
X029420Y035538D01*
X029415Y035533D01*
X029411Y035528D01*
X029408Y035524D01*
X029405Y035521D01*
X029403Y035518D01*
X029401Y035517D01*
X029400Y035516D01*
X029394Y035511D01*
X029386Y035506D01*
X029377Y035501D01*
X029368Y035496D01*
X029349Y035487D01*
X029329Y035479D01*
X029320Y035477D01*
X029312Y035474D01*
X029304Y035471D01*
X029297Y035469D01*
X029292Y035468D01*
X029288Y035467D01*
X029285Y035466D01*
X029284D01*
X029272Y035463D01*
X029262Y035460D01*
X029252Y035458D01*
X029244Y035456D01*
X029236Y035453D01*
X029229Y035452D01*
X029223Y035450D01*
X029218Y035448D01*
X029214Y035447D01*
X029210Y035446D01*
X029207Y035445D01*
X029205Y035444D01*
X029203Y035444D01*
X029202D01*
X029201Y035443D01*
X029192Y035439D01*
X029184Y035436D01*
X029178Y035432D01*
X029172Y035429D01*
X029169Y035426D01*
X029166Y035423D01*
X029164Y035422D01*
X029164Y035421D01*
X029160Y035416D01*
X029157Y035411D01*
X029156Y035406D01*
X029154Y035401D01*
X029153Y035397D01*
X029153Y035393D01*
Y035391D01*
Y035390D01*
Y035385D01*
X029154Y035380D01*
X029157Y035371D01*
X029161Y035362D01*
X029166Y035355D01*
X029170Y035349D01*
X029174Y035345D01*
X029177Y035342D01*
X029178Y035341D01*
X029178D01*
X029183Y035337D01*
X029189Y035333D01*
X029201Y035328D01*
X029214Y035325D01*
X029226Y035322D01*
X029237Y035321D01*
X029242Y035320D01*
X029246D01*
X029249Y035320D01*
X029254D01*
X029271Y035321D01*
X029286Y035324D01*
X029299Y035327D01*
X029310Y035331D01*
X029314Y035333D01*
X029318Y035336D01*
X029322Y035337D01*
X029325Y035339D01*
X029327Y035341D01*
X029329Y035342D01*
X029329Y035343D01*
X029330D01*
X029335Y035348D01*
X029339Y035353D01*
X029347Y035365D01*
X029354Y035377D01*
X029359Y035390D01*
X029362Y035401D01*
X029364Y035405D01*
X029365Y035410D01*
X029365Y035413D01*
X029366Y035416D01*
X029366Y035417D01*
Y035418D01*
X029467Y035408D01*
X029465Y035392D01*
X029461Y035377D01*
X029457Y035364D01*
X029453Y035351D01*
X029448Y035340D01*
X029443Y035328D01*
X029437Y035319D01*
X029432Y035310D01*
X029427Y035302D01*
X029422Y035296D01*
X029417Y035290D01*
X029413Y035285D01*
X029410Y035282D01*
X029407Y035279D01*
X029405Y035277D01*
X029405Y035277D01*
X029394Y035269D01*
X029383Y035262D01*
X029371Y035256D01*
X029359Y035251D01*
X029347Y035247D01*
X029335Y035244D01*
X029323Y035240D01*
X029310Y035238D01*
X029299Y035236D01*
X029289Y035235D01*
X029279Y035234D01*
X029272Y035233D01*
X029265D01*
X029260Y035232D01*
X029243D01*
X029232Y035233D01*
X029220Y035234D01*
X029210Y035235D01*
X029200Y035237D01*
X029190Y035238D01*
X029182Y035240D01*
X029174Y035242D01*
X029168Y035244D01*
X029162Y035245D01*
X029156Y035246D01*
X029152Y035248D01*
X029148Y035249D01*
X029146Y035250D01*
X029144Y035251D01*
X029144D01*
X029128Y035259D01*
X029114Y035267D01*
X029102Y035277D01*
X029092Y035286D01*
X029084Y035295D01*
X029082Y035299D01*
X029079Y035302D01*
X029077Y035304D01*
X029076Y035306D01*
X029075Y035307D01*
Y035308D01*
X029070Y035315D01*
X029066Y035323D01*
X029060Y035337D01*
X029056Y035351D01*
X029053Y035364D01*
X029052Y035370D01*
X029051Y035375D01*
X029050Y035380D01*
Y035383D01*
X029050Y035386D01*
Y035389D01*
Y035390D01*
Y035391D01*
X029051Y035408D01*
X029053Y035424D01*
X029056Y035438D01*
X029058Y035444D01*
X029060Y035449D01*
X029062Y035454D01*
X029063Y035459D01*
X029065Y035463D01*
X029067Y035466D01*
X029068Y035469D01*
X029069Y035471D01*
X029070Y035472D01*
Y035472D01*
X029078Y035484D01*
X029088Y035494D01*
X029097Y035503D01*
X029106Y035511D01*
X029114Y035517D01*
X029121Y035521D01*
X029124Y035522D01*
X029126Y035523D01*
X029127Y035524D01*
X029127D01*
X029134Y035528D01*
X029142Y035532D01*
X029151Y035535D01*
X029160Y035538D01*
X029178Y035544D01*
X029197Y035550D01*
X029205Y035552D01*
X029213Y035554D01*
X029220Y035557D01*
X029227Y035558D01*
X029232Y035559D01*
X029235Y035560D01*
X029238Y035561D01*
X029239D01*
X029252Y035564D01*
X029264Y035568D01*
X029275Y035571D01*
X029285Y035574D01*
X029294Y035577D01*
X029302Y035580D01*
X029309Y035583D01*
X029314Y035585D01*
X029319Y035587D01*
X029324Y035589D01*
X029327Y035591D01*
X029329Y035593D01*
X029331Y035594D01*
X029333Y035595D01*
X029334Y035595D01*
X029339Y035600D01*
X029343Y035605D01*
X029345Y035611D01*
X029347Y035616D01*
X029348Y035620D01*
X029349Y035624D01*
Y035626D01*
Y035627D01*
X029348Y035634D01*
X029346Y035640D01*
X029344Y035645D01*
X029340Y035650D01*
X029338Y035653D01*
X029335Y035656D01*
X029333Y035658D01*
X029333Y035658D01*
X029322Y035664D01*
X029311Y035669D01*
X029299Y035673D01*
X029288Y035675D01*
X029277Y035676D01*
X029273Y035676D01*
X029269Y035677D01*
X029262D01*
X029246Y035676D01*
X029233Y035674D01*
X029222Y035671D01*
X029212Y035668D01*
X029205Y035665D01*
X029200Y035662D01*
X029197Y035660D01*
X029196Y035659D01*
X029188Y035652D01*
X029182Y035643D01*
X029177Y035634D01*
X029173Y035625D01*
X029171Y035617D01*
X029169Y035613D01*
X029168Y035609D01*
X029168Y035607D01*
Y035605D01*
X029167Y035604D01*
Y035603D01*
X029064Y035607D01*
X029065Y035620D01*
X029067Y035632D01*
X029070Y035644D01*
X029073Y035654D01*
X029077Y035664D01*
X029082Y035674D01*
X029086Y035682D01*
X029091Y035690D01*
X029096Y035696D01*
X029100Y035703D01*
X029104Y035708D01*
X029108Y035712D01*
X029111Y035715D01*
X029113Y035718D01*
X029115Y035719D01*
X029116Y035720D01*
X029125Y035728D01*
X029136Y035734D01*
X029147Y035740D01*
X029159Y035745D01*
X029171Y035749D01*
X029183Y035752D01*
X029195Y035755D01*
X029206Y035757D01*
X029217Y035759D01*
X029228Y035760D01*
X029237Y035761D01*
X029245Y035762D01*
X029251Y035763D01*
X029260D01*
X029282Y035762D01*
D02*
G37*
G36*
X035283Y034609D02*
X035180D01*
Y034823D01*
X035147D01*
X035136Y034822D01*
X035127Y034821D01*
X035120Y034820D01*
X035115Y034819D01*
X035111Y034818D01*
X035108Y034818D01*
X035107Y034817D01*
X035101Y034815D01*
X035096Y034811D01*
X035090Y034808D01*
X035086Y034804D01*
X035082Y034801D01*
X035078Y034799D01*
X035077Y034796D01*
X035076Y034796D01*
X035073Y034793D01*
X035070Y034788D01*
X035066Y034783D01*
X035061Y034778D01*
X035052Y034765D01*
X035043Y034753D01*
X035035Y034740D01*
X035031Y034735D01*
X035028Y034730D01*
X035025Y034727D01*
X035023Y034724D01*
X035022Y034722D01*
X035021Y034721D01*
X034946Y034609D01*
X034823D01*
X034885Y034709D01*
X034892Y034720D01*
X034899Y034729D01*
X034905Y034739D01*
X034910Y034747D01*
X034915Y034755D01*
X034920Y034762D01*
X034925Y034768D01*
X034929Y034773D01*
X034932Y034778D01*
X034935Y034781D01*
X034938Y034785D01*
X034940Y034788D01*
X034942Y034789D01*
X034943Y034791D01*
X034944Y034792D01*
X034953Y034800D01*
X034962Y034809D01*
X034971Y034816D01*
X034980Y034822D01*
X034988Y034828D01*
X034994Y034831D01*
X034996Y034833D01*
X034998Y034834D01*
X034999Y034835D01*
X035000D01*
X034987Y034837D01*
X034976Y034840D01*
X034965Y034843D01*
X034955Y034846D01*
X034946Y034850D01*
X034938Y034854D01*
X034930Y034858D01*
X034924Y034863D01*
X034918Y034866D01*
X034913Y034870D01*
X034908Y034874D01*
X034904Y034876D01*
X034901Y034879D01*
X034900Y034881D01*
X034899Y034882D01*
X034898Y034882D01*
X034892Y034890D01*
X034887Y034897D01*
X034883Y034905D01*
X034879Y034914D01*
X034875Y034921D01*
X034873Y034929D01*
X034869Y034945D01*
X034867Y034951D01*
X034866Y034958D01*
X034865Y034964D01*
X034865Y034969D01*
X034864Y034972D01*
Y034975D01*
Y034977D01*
Y034978D01*
X034865Y034995D01*
X034868Y035010D01*
X034871Y035023D01*
X034875Y035035D01*
X034878Y035040D01*
X034880Y035045D01*
X034881Y035049D01*
X034884Y035052D01*
X034885Y035055D01*
X034886Y035057D01*
X034887Y035058D01*
Y035058D01*
X034896Y035071D01*
X034906Y035081D01*
X034915Y035090D01*
X034925Y035097D01*
X034934Y035102D01*
X034937Y035103D01*
X034940Y035105D01*
X034943Y035106D01*
X034945Y035107D01*
X034946Y035108D01*
X034946D01*
X034954Y035110D01*
X034962Y035112D01*
X034971Y035114D01*
X034981Y035116D01*
X035000Y035118D01*
X035020Y035120D01*
X035029Y035121D01*
X035038Y035121D01*
X035046D01*
X035052Y035122D01*
X035283D01*
Y034609D01*
D02*
G37*
G36*
X030605D02*
X030496D01*
X030453Y034726D01*
X030248D01*
X030203Y034609D01*
X030091D01*
X030296Y035122D01*
X030406D01*
X030605Y034609D01*
D02*
G37*
G36*
X034184Y034790D02*
Y034779D01*
X034185Y034769D01*
X034186Y034759D01*
X034187Y034751D01*
X034188Y034743D01*
X034189Y034737D01*
X034190Y034730D01*
X034192Y034725D01*
X034193Y034721D01*
X034194Y034717D01*
X034195Y034714D01*
X034197Y034712D01*
X034198Y034710D01*
X034198Y034709D01*
X034199Y034708D01*
X034205Y034701D01*
X034213Y034697D01*
X034220Y034693D01*
X034229Y034690D01*
X034236Y034689D01*
X034242Y034689D01*
X034244Y034688D01*
X034248D01*
X034254Y034689D01*
X034260Y034689D01*
X034270Y034693D01*
X034279Y034697D01*
X034286Y034702D01*
X034292Y034707D01*
X034295Y034711D01*
X034298Y034714D01*
X034299Y034715D01*
Y034715D01*
X034301Y034719D01*
X034303Y034723D01*
X034305Y034733D01*
X034308Y034743D01*
X034309Y034754D01*
X034310Y034763D01*
X034311Y034767D01*
Y034771D01*
X034311Y034774D01*
Y034776D01*
Y034778D01*
Y034778D01*
X034409Y034767D01*
X034409Y034752D01*
X034408Y034738D01*
X034405Y034725D01*
X034403Y034713D01*
X034400Y034702D01*
X034396Y034692D01*
X034393Y034682D01*
X034389Y034674D01*
X034385Y034667D01*
X034381Y034660D01*
X034378Y034654D01*
X034375Y034650D01*
X034372Y034647D01*
X034370Y034644D01*
X034369Y034643D01*
X034368Y034642D01*
X034360Y034635D01*
X034351Y034628D01*
X034342Y034623D01*
X034333Y034618D01*
X034323Y034614D01*
X034313Y034611D01*
X034304Y034608D01*
X034294Y034606D01*
X034285Y034603D01*
X034278Y034602D01*
X034270Y034601D01*
X034264Y034601D01*
X034259D01*
X034255Y034600D01*
X034252D01*
X034240Y034601D01*
X034228Y034601D01*
X034218Y034602D01*
X034208Y034604D01*
X034199Y034606D01*
X034190Y034608D01*
X034182Y034611D01*
X034175Y034613D01*
X034169Y034616D01*
X034163Y034618D01*
X034158Y034621D01*
X034154Y034623D01*
X034151Y034624D01*
X034149Y034626D01*
X034148Y034626D01*
X034147Y034627D01*
X034140Y034632D01*
X034133Y034638D01*
X034122Y034649D01*
X034113Y034662D01*
X034105Y034673D01*
X034099Y034683D01*
X034097Y034688D01*
X034096Y034692D01*
X034094Y034694D01*
X034093Y034697D01*
X034093Y034698D01*
Y034699D01*
X034091Y034705D01*
X034089Y034713D01*
X034086Y034729D01*
X034084Y034745D01*
X034083Y034760D01*
X034082Y034768D01*
X034082Y034775D01*
Y034781D01*
X034081Y034786D01*
Y034790D01*
Y034794D01*
Y034796D01*
Y034796D01*
Y035122D01*
X034184D01*
Y034790D01*
D02*
G37*
G36*
X033768Y035129D02*
X033789Y035127D01*
X033798Y035125D01*
X033808Y035123D01*
X033816Y035122D01*
X033824Y035120D01*
X033831Y035118D01*
X033837Y035116D01*
X033843Y035114D01*
X033847Y035113D01*
X033850Y035111D01*
X033853Y035111D01*
X033855Y035109D01*
X033855D01*
X033869Y035103D01*
X033881Y035096D01*
X033892Y035088D01*
X033902Y035081D01*
X033910Y035074D01*
X033914Y035071D01*
X033916Y035068D01*
X033919Y035066D01*
X033920Y035065D01*
X033921Y035064D01*
X033922Y035063D01*
X033932Y035051D01*
X033942Y035040D01*
X033950Y035027D01*
X033957Y035017D01*
X033962Y035007D01*
X033964Y035003D01*
X033966Y035000D01*
X033967Y034997D01*
X033969Y034995D01*
X033969Y034993D01*
Y034993D01*
X033973Y034983D01*
X033977Y034972D01*
X033982Y034950D01*
X033987Y034928D01*
X033988Y034917D01*
X033990Y034907D01*
X033990Y034897D01*
X033991Y034889D01*
X033992Y034881D01*
Y034875D01*
X033992Y034869D01*
Y034865D01*
Y034863D01*
Y034861D01*
X033992Y034839D01*
X033990Y034818D01*
X033986Y034798D01*
X033982Y034780D01*
X033977Y034763D01*
X033971Y034747D01*
X033965Y034733D01*
X033959Y034720D01*
X033952Y034708D01*
X033946Y034698D01*
X033941Y034689D01*
X033936Y034682D01*
X033931Y034677D01*
X033928Y034673D01*
X033926Y034670D01*
X033925Y034669D01*
X033912Y034657D01*
X033898Y034647D01*
X033884Y034637D01*
X033869Y034629D01*
X033854Y034623D01*
X033838Y034617D01*
X033824Y034612D01*
X033809Y034609D01*
X033796Y034606D01*
X033784Y034604D01*
X033772Y034602D01*
X033763Y034601D01*
X033755Y034601D01*
X033749Y034600D01*
X033744D01*
X033723Y034601D01*
X033703Y034603D01*
X033685Y034607D01*
X033668Y034611D01*
X033652Y034616D01*
X033637Y034622D01*
X033623Y034628D01*
X033611Y034635D01*
X033600Y034642D01*
X033591Y034648D01*
X033582Y034654D01*
X033576Y034659D01*
X033570Y034663D01*
X033567Y034667D01*
X033564Y034669D01*
X033563Y034670D01*
X033551Y034684D01*
X033541Y034698D01*
X033532Y034714D01*
X033524Y034730D01*
X033518Y034746D01*
X033512Y034762D01*
X033508Y034778D01*
X033504Y034793D01*
X033501Y034808D01*
X033499Y034821D01*
X033498Y034833D01*
X033497Y034844D01*
X033496Y034853D01*
X033496Y034856D01*
Y034859D01*
Y034861D01*
Y034863D01*
Y034864D01*
Y034864D01*
X033496Y034887D01*
X033498Y034909D01*
X033502Y034929D01*
X033506Y034947D01*
X033511Y034965D01*
X033517Y034981D01*
X033523Y034996D01*
X033530Y035008D01*
X033536Y035021D01*
X033542Y035031D01*
X033548Y035040D01*
X033553Y035047D01*
X033558Y035052D01*
X033561Y035056D01*
X033563Y035059D01*
X033564Y035060D01*
X033577Y035072D01*
X033591Y035083D01*
X033606Y035092D01*
X033621Y035100D01*
X033636Y035107D01*
X033651Y035113D01*
X033665Y035117D01*
X033680Y035121D01*
X033693Y035124D01*
X033705Y035126D01*
X033717Y035128D01*
X033726Y035129D01*
X033734Y035129D01*
X033740Y035130D01*
X033745D01*
X033768Y035129D01*
D02*
G37*
G36*
X031718Y034609D02*
X031609D01*
X031566Y034726D01*
X031361D01*
X031316Y034609D01*
X031203D01*
X031409Y035122D01*
X031519D01*
X031718Y034609D01*
D02*
G37*
G36*
X034768D02*
X034669D01*
Y034708D01*
X034768D01*
Y034609D01*
D02*
G37*
G36*
X032699D02*
X032507D01*
X032491Y034610D01*
X032464D01*
X032452Y034611D01*
X032442D01*
X032433Y034611D01*
X032426D01*
X032420Y034612D01*
X032414D01*
X032410Y034612D01*
X032406D01*
X032403Y034613D01*
X032401D01*
X032386Y034615D01*
X032372Y034618D01*
X032360Y034622D01*
X032350Y034627D01*
X032342Y034631D01*
X032339Y034632D01*
X032336Y034633D01*
X032334Y034635D01*
X032332Y034636D01*
X032332Y034637D01*
X032331D01*
X032321Y034644D01*
X032312Y034653D01*
X032305Y034662D01*
X032299Y034670D01*
X032294Y034678D01*
X032290Y034684D01*
X032289Y034686D01*
X032287Y034688D01*
X032287Y034689D01*
Y034689D01*
X032281Y034702D01*
X032277Y034714D01*
X032274Y034725D01*
X032272Y034736D01*
X032271Y034745D01*
X032271Y034749D01*
X032270Y034752D01*
Y034754D01*
Y034756D01*
Y034757D01*
Y034758D01*
Y034766D01*
X032271Y034774D01*
X032274Y034789D01*
X032279Y034801D01*
X032283Y034813D01*
X032285Y034818D01*
X032287Y034822D01*
X032290Y034826D01*
X032292Y034829D01*
X032294Y034831D01*
X032295Y034833D01*
X032295Y034834D01*
X032296Y034835D01*
X032306Y034846D01*
X032317Y034856D01*
X032330Y034864D01*
X032341Y034870D01*
X032351Y034875D01*
X032356Y034877D01*
X032360Y034879D01*
X032363Y034880D01*
X032365Y034881D01*
X032367Y034881D01*
X032367D01*
X032356Y034887D01*
X032345Y034895D01*
X032336Y034902D01*
X032328Y034910D01*
X032322Y034916D01*
X032318Y034921D01*
X032317Y034924D01*
X032316Y034925D01*
X032315Y034926D01*
Y034926D01*
X032308Y034938D01*
X032304Y034949D01*
X032300Y034960D01*
X032297Y034971D01*
X032296Y034980D01*
X032296Y034983D01*
Y034986D01*
X032295Y034989D01*
Y034991D01*
Y034992D01*
Y034992D01*
X032296Y035005D01*
X032297Y035016D01*
X032300Y035026D01*
X032303Y035035D01*
X032306Y035042D01*
X032308Y035048D01*
X032310Y035050D01*
X032311Y035051D01*
X032311Y035052D01*
Y035052D01*
X032317Y035062D01*
X032324Y035070D01*
X032331Y035077D01*
X032337Y035084D01*
X032342Y035088D01*
X032347Y035092D01*
X032350Y035094D01*
X032350Y035095D01*
X032351D01*
X032360Y035101D01*
X032369Y035105D01*
X032378Y035109D01*
X032386Y035112D01*
X032393Y035114D01*
X032399Y035115D01*
X032401Y035116D01*
X032403Y035116D01*
X032404D01*
X032410Y035117D01*
X032416Y035118D01*
X032431Y035119D01*
X032446Y035121D01*
X032461Y035121D01*
X032467D01*
X032474Y035122D01*
X032699D01*
Y034609D01*
D02*
G37*
G36*
X032183D02*
X032079D01*
Y034823D01*
X032046D01*
X032035Y034822D01*
X032027Y034821D01*
X032019Y034820D01*
X032014Y034819D01*
X032010Y034818D01*
X032007Y034818D01*
X032007Y034817D01*
X032000Y034815D01*
X031995Y034811D01*
X031989Y034808D01*
X031985Y034804D01*
X031981Y034801D01*
X031978Y034799D01*
X031976Y034796D01*
X031976Y034796D01*
X031972Y034793D01*
X031969Y034788D01*
X031965Y034783D01*
X031961Y034778D01*
X031952Y034765D01*
X031942Y034753D01*
X031934Y034740D01*
X031930Y034735D01*
X031927Y034730D01*
X031924Y034727D01*
X031922Y034724D01*
X031921Y034722D01*
X031921Y034721D01*
X031846Y034609D01*
X031722D01*
X031785Y034709D01*
X031791Y034720D01*
X031798Y034729D01*
X031804Y034739D01*
X031810Y034747D01*
X031815Y034755D01*
X031820Y034762D01*
X031824Y034768D01*
X031828Y034773D01*
X031831Y034778D01*
X031835Y034781D01*
X031837Y034785D01*
X031840Y034788D01*
X031841Y034789D01*
X031842Y034791D01*
X031843Y034792D01*
X031852Y034800D01*
X031861Y034809D01*
X031871Y034816D01*
X031879Y034822D01*
X031887Y034828D01*
X031893Y034831D01*
X031896Y034833D01*
X031897Y034834D01*
X031898Y034835D01*
X031899D01*
X031887Y034837D01*
X031875Y034840D01*
X031865Y034843D01*
X031855Y034846D01*
X031845Y034850D01*
X031837Y034854D01*
X031830Y034858D01*
X031823Y034863D01*
X031817Y034866D01*
X031812Y034870D01*
X031807Y034874D01*
X031803Y034876D01*
X031801Y034879D01*
X031799Y034881D01*
X031798Y034882D01*
X031797Y034882D01*
X031791Y034890D01*
X031786Y034897D01*
X031782Y034905D01*
X031778Y034914D01*
X031775Y034921D01*
X031772Y034929D01*
X031768Y034945D01*
X031766Y034951D01*
X031765Y034958D01*
X031765Y034964D01*
X031764Y034969D01*
X031763Y034972D01*
Y034975D01*
Y034977D01*
Y034978D01*
X031765Y034995D01*
X031767Y035010D01*
X031771Y035023D01*
X031775Y035035D01*
X031777Y035040D01*
X031779Y035045D01*
X031781Y035049D01*
X031783Y035052D01*
X031784Y035055D01*
X031785Y035057D01*
X031786Y035058D01*
Y035058D01*
X031795Y035071D01*
X031805Y035081D01*
X031815Y035090D01*
X031824Y035097D01*
X031833Y035102D01*
X031836Y035103D01*
X031840Y035105D01*
X031842Y035106D01*
X031844Y035107D01*
X031845Y035108D01*
X031846D01*
X031853Y035110D01*
X031861Y035112D01*
X031871Y035114D01*
X031880Y035116D01*
X031899Y035118D01*
X031919Y035120D01*
X031928Y035121D01*
X031937Y035121D01*
X031945D01*
X031952Y035122D01*
X032183D01*
Y034609D01*
D02*
G37*
G36*
X033851Y035242D02*
X033756D01*
Y035578D01*
X033548Y035242D01*
X033445D01*
Y035754D01*
X033541D01*
Y035410D01*
X033751Y035754D01*
X033851D01*
Y035242D01*
D02*
G37*
G36*
X033335D02*
X033239D01*
Y035578D01*
X033032Y035242D01*
X032928D01*
Y035754D01*
X033024D01*
Y035410D01*
X033235Y035754D01*
X033335D01*
Y035242D01*
D02*
G37*
G36*
X034768D02*
X034669D01*
Y035340D01*
X034768D01*
Y035242D01*
D02*
G37*
G36*
X035800D02*
X035595D01*
X035585Y035242D01*
X035576Y035243D01*
X035567Y035244D01*
X035559Y035244D01*
X035551Y035245D01*
X035545Y035246D01*
X035539Y035247D01*
X035533Y035248D01*
X035528Y035249D01*
X035524Y035250D01*
X035520Y035251D01*
X035518Y035251D01*
X035516Y035252D01*
X035515Y035252D01*
X035514D01*
X035498Y035259D01*
X035484Y035265D01*
X035471Y035272D01*
X035461Y035279D01*
X035456Y035281D01*
X035453Y035284D01*
X035450Y035287D01*
X035447Y035289D01*
X035445Y035291D01*
X035443Y035292D01*
X035443Y035293D01*
X035442Y035294D01*
X035429Y035307D01*
X035418Y035322D01*
X035409Y035337D01*
X035401Y035352D01*
X035398Y035358D01*
X035395Y035365D01*
X035393Y035370D01*
X035390Y035375D01*
X035389Y035378D01*
X035388Y035382D01*
X035387Y035383D01*
Y035384D01*
X035382Y035402D01*
X035378Y035420D01*
X035375Y035438D01*
X035373Y035456D01*
X035372Y035463D01*
X035372Y035471D01*
Y035477D01*
X035371Y035482D01*
Y035487D01*
Y035490D01*
Y035492D01*
Y035493D01*
Y035506D01*
X035372Y035519D01*
X035373Y035531D01*
X035374Y035542D01*
X035375Y035553D01*
X035377Y035563D01*
X035378Y035572D01*
X035379Y035580D01*
X035381Y035588D01*
X035383Y035594D01*
X035384Y035600D01*
X035385Y035605D01*
X035387Y035609D01*
X035388Y035612D01*
X035388Y035613D01*
Y035614D01*
X035395Y035632D01*
X035403Y035648D01*
X035411Y035662D01*
X035415Y035668D01*
X035419Y035674D01*
X035423Y035679D01*
X035426Y035684D01*
X035429Y035688D01*
X035431Y035691D01*
X035434Y035694D01*
X035435Y035695D01*
X035436Y035696D01*
X035437Y035697D01*
X035450Y035709D01*
X035463Y035719D01*
X035475Y035727D01*
X035488Y035733D01*
X035498Y035738D01*
X035503Y035740D01*
X035506Y035741D01*
X035510Y035743D01*
X035512Y035744D01*
X035514Y035744D01*
X035514D01*
X035521Y035746D01*
X035528Y035748D01*
X035544Y035750D01*
X035560Y035752D01*
X035575Y035753D01*
X035582Y035754D01*
X035595D01*
X035601Y035754D01*
X035800D01*
Y035242D01*
D02*
G37*
G36*
X035283D02*
X035180D01*
Y035456D01*
X035147D01*
X035136Y035454D01*
X035127Y035454D01*
X035120Y035453D01*
X035115Y035452D01*
X035111Y035451D01*
X035108Y035450D01*
X035107Y035449D01*
X035101Y035447D01*
X035096Y035444D01*
X035090Y035441D01*
X035086Y035437D01*
X035082Y035433D01*
X035078Y035431D01*
X035077Y035429D01*
X035076Y035428D01*
X035073Y035425D01*
X035070Y035421D01*
X035066Y035416D01*
X035061Y035410D01*
X035052Y035398D01*
X035043Y035385D01*
X035035Y035373D01*
X035031Y035368D01*
X035028Y035363D01*
X035025Y035359D01*
X035023Y035356D01*
X035022Y035354D01*
X035021Y035353D01*
X034946Y035242D01*
X034823D01*
X034885Y035341D01*
X034892Y035352D01*
X034899Y035362D01*
X034905Y035371D01*
X034910Y035380D01*
X034915Y035387D01*
X034920Y035394D01*
X034925Y035400D01*
X034929Y035406D01*
X034932Y035410D01*
X034935Y035414D01*
X034938Y035417D01*
X034940Y035420D01*
X034942Y035422D01*
X034943Y035423D01*
X034944Y035425D01*
X034953Y035433D01*
X034962Y035441D01*
X034971Y035448D01*
X034980Y035454D01*
X034988Y035460D01*
X034994Y035464D01*
X034996Y035466D01*
X034998Y035466D01*
X034999Y035467D01*
X035000D01*
X034987Y035469D01*
X034976Y035472D01*
X034965Y035476D01*
X034955Y035479D01*
X034946Y035483D01*
X034938Y035487D01*
X034930Y035491D01*
X034924Y035495D01*
X034918Y035499D01*
X034913Y035503D01*
X034908Y035506D01*
X034904Y035509D01*
X034901Y035512D01*
X034900Y035513D01*
X034899Y035514D01*
X034898Y035515D01*
X034892Y035522D01*
X034887Y035530D01*
X034883Y035538D01*
X034879Y035546D01*
X034875Y035554D01*
X034873Y035562D01*
X034869Y035577D01*
X034867Y035584D01*
X034866Y035590D01*
X034865Y035596D01*
X034865Y035601D01*
X034864Y035605D01*
Y035608D01*
Y035610D01*
Y035610D01*
X034865Y035627D01*
X034868Y035642D01*
X034871Y035656D01*
X034875Y035668D01*
X034878Y035673D01*
X034880Y035678D01*
X034881Y035681D01*
X034884Y035685D01*
X034885Y035688D01*
X034886Y035689D01*
X034887Y035690D01*
Y035691D01*
X034896Y035703D01*
X034906Y035714D01*
X034915Y035722D01*
X034925Y035729D01*
X034934Y035734D01*
X034937Y035736D01*
X034940Y035738D01*
X034943Y035739D01*
X034945Y035740D01*
X034946Y035740D01*
X034946D01*
X034954Y035743D01*
X034962Y035745D01*
X034971Y035747D01*
X034981Y035748D01*
X035000Y035751D01*
X035020Y035753D01*
X035029Y035753D01*
X035038Y035754D01*
X035046D01*
X035052Y035754D01*
X035283D01*
Y035242D01*
D02*
G37*
G36*
X031625D02*
X031530D01*
Y035578D01*
X031322Y035242D01*
X031219D01*
Y035754D01*
X031314D01*
Y035410D01*
X031525Y035754D01*
X031625D01*
Y035242D01*
D02*
G37*
G36*
X032195D02*
X032086D01*
X032043Y035358D01*
X031838D01*
X031793Y035242D01*
X031681D01*
X031886Y035754D01*
X031996D01*
X032195Y035242D01*
D02*
G37*
G36*
X030394D02*
X030005D01*
Y035328D01*
X030291D01*
Y035468D01*
X030034D01*
Y035554D01*
X030291D01*
Y035668D01*
X030015D01*
Y035754D01*
X030394D01*
Y035242D01*
D02*
G37*
G36*
X034421D02*
X034312D01*
X034269Y035358D01*
X034065D01*
X034020Y035242D01*
X033907D01*
X034112Y035754D01*
X034222D01*
X034421Y035242D01*
D02*
G37*
G36*
X032490D02*
X032379D01*
X032196Y035754D01*
X032306D01*
X032431Y035375D01*
X032561Y035754D01*
X032673D01*
X032490Y035242D01*
D02*
G37*
G36*
X030911D02*
X030808D01*
Y035466D01*
X030605D01*
Y035242D01*
X030501D01*
Y035754D01*
X030605D01*
Y035553D01*
X030808D01*
Y035754D01*
X030911D01*
Y035242D01*
D02*
G37*
%LPC*%
G36*
X035697Y035035D02*
X035629D01*
X035620Y035035D01*
X035611D01*
X035603Y035034D01*
X035596Y035033D01*
X035590Y035033D01*
X035585D01*
X035580Y035032D01*
X035576Y035032D01*
X035572Y035031D01*
X035570Y035031D01*
X035568D01*
X035567Y035030D01*
X035566D01*
X035555Y035027D01*
X035546Y035023D01*
X035537Y035020D01*
X035531Y035016D01*
X035525Y035012D01*
X035521Y035008D01*
X035519Y035006D01*
X035518Y035006D01*
X035511Y034998D01*
X035505Y034991D01*
X035500Y034982D01*
X035496Y034975D01*
X035493Y034967D01*
X035490Y034961D01*
X035489Y034960D01*
X035489Y034958D01*
X035488Y034957D01*
Y034956D01*
X035486Y034950D01*
X035485Y034944D01*
X035482Y034929D01*
X035480Y034914D01*
X035479Y034899D01*
Y034892D01*
X035478Y034886D01*
Y034880D01*
X035478Y034875D01*
Y034871D01*
Y034868D01*
Y034866D01*
Y034865D01*
Y034855D01*
X035478Y034844D01*
X035479Y034835D01*
X035479Y034825D01*
X035480Y034817D01*
X035481Y034810D01*
X035482Y034803D01*
X035483Y034796D01*
X035484Y034790D01*
X035485Y034785D01*
X035486Y034781D01*
X035486Y034778D01*
X035487Y034775D01*
X035488Y034773D01*
X035488Y034772D01*
Y034771D01*
X035493Y034759D01*
X035497Y034749D01*
X035501Y034741D01*
X035506Y034734D01*
X035509Y034729D01*
X035513Y034725D01*
X035515Y034723D01*
X035515Y034722D01*
X035522Y034717D01*
X035529Y034713D01*
X035536Y034709D01*
X035542Y034705D01*
X035548Y034703D01*
X035552Y034702D01*
X035556Y034701D01*
X035556Y034700D01*
X035557D01*
X035561Y034700D01*
X035565Y034699D01*
X035575Y034698D01*
X035585Y034697D01*
X035596Y034697D01*
X035605Y034696D01*
X035697D01*
Y035035D01*
D02*
G37*
G36*
X035180D02*
X035069D01*
X035061Y035035D01*
X035048D01*
X035042Y035034D01*
X035034D01*
X035031Y035033D01*
X035027D01*
X035025Y035033D01*
X035024D01*
X035015Y035031D01*
X035007Y035028D01*
X035000Y035025D01*
X034995Y035021D01*
X034990Y035018D01*
X034987Y035016D01*
X034985Y035013D01*
X034985Y035013D01*
X034980Y035006D01*
X034977Y035000D01*
X034974Y034993D01*
X034972Y034986D01*
X034971Y034980D01*
X034971Y034976D01*
Y034972D01*
Y034972D01*
Y034971D01*
X034971Y034963D01*
X034972Y034955D01*
X034974Y034949D01*
X034976Y034943D01*
X034978Y034939D01*
X034980Y034935D01*
X034981Y034933D01*
X034981Y034932D01*
X034986Y034927D01*
X034990Y034922D01*
X034995Y034919D01*
X035000Y034916D01*
X035004Y034914D01*
X035007Y034912D01*
X035010Y034911D01*
X035011Y034911D01*
X035015Y034910D01*
X035020Y034909D01*
X035026Y034908D01*
X035033Y034907D01*
X035048Y034906D01*
X035064Y034905D01*
X035079D01*
X035086Y034905D01*
X035180D01*
Y035035D01*
D02*
G37*
G36*
X030352Y035002D02*
X030281Y034813D01*
X030421D01*
X030352Y035002D01*
D02*
G37*
G36*
X033750Y035042D02*
X033744D01*
X033732Y035041D01*
X033721Y035040D01*
X033710Y035038D01*
X033701Y035035D01*
X033692Y035032D01*
X033683Y035028D01*
X033675Y035024D01*
X033668Y035020D01*
X033662Y035016D01*
X033657Y035012D01*
X033652Y035008D01*
X033648Y035005D01*
X033645Y035002D01*
X033643Y035000D01*
X033642Y034998D01*
X033641Y034998D01*
X033634Y034990D01*
X033628Y034980D01*
X033623Y034970D01*
X033618Y034959D01*
X033615Y034949D01*
X033612Y034937D01*
X033609Y034926D01*
X033607Y034916D01*
X033606Y034906D01*
X033604Y034896D01*
X033603Y034888D01*
X033603Y034881D01*
X033602Y034875D01*
Y034870D01*
Y034868D01*
Y034866D01*
X033603Y034850D01*
X033604Y034835D01*
X033606Y034821D01*
X033608Y034808D01*
X033612Y034796D01*
X033615Y034785D01*
X033618Y034775D01*
X033622Y034766D01*
X033626Y034758D01*
X033629Y034752D01*
X033633Y034745D01*
X033636Y034741D01*
X033638Y034737D01*
X033640Y034735D01*
X033642Y034733D01*
X033642Y034733D01*
X033650Y034725D01*
X033658Y034718D01*
X033667Y034712D01*
X033675Y034707D01*
X033683Y034703D01*
X033692Y034699D01*
X033700Y034696D01*
X033708Y034694D01*
X033715Y034692D01*
X033722Y034690D01*
X033728Y034689D01*
X033733Y034689D01*
X033738D01*
X033741Y034688D01*
X033744D01*
X033755Y034689D01*
X033766Y034690D01*
X033776Y034693D01*
X033786Y034695D01*
X033795Y034699D01*
X033803Y034703D01*
X033811Y034707D01*
X033818Y034711D01*
X033824Y034715D01*
X033830Y034719D01*
X033835Y034723D01*
X033839Y034726D01*
X033842Y034729D01*
X033844Y034732D01*
X033845Y034733D01*
X033846Y034733D01*
X033853Y034742D01*
X033859Y034752D01*
X033864Y034762D01*
X033869Y034773D01*
X033873Y034784D01*
X033876Y034795D01*
X033879Y034805D01*
X033881Y034816D01*
X033882Y034826D01*
X033884Y034835D01*
X033885Y034844D01*
X033885Y034851D01*
Y034857D01*
X033886Y034861D01*
Y034864D01*
Y034865D01*
X033885Y034881D01*
X033884Y034896D01*
X033882Y034910D01*
X033880Y034923D01*
X033877Y034935D01*
X033874Y034946D01*
X033870Y034956D01*
X033866Y034965D01*
X033862Y034972D01*
X033859Y034979D01*
X033856Y034985D01*
X033853Y034989D01*
X033850Y034993D01*
X033849Y034995D01*
X033848Y034997D01*
X033847Y034997D01*
X033839Y035005D01*
X033831Y035012D01*
X033823Y035018D01*
X033814Y035023D01*
X033805Y035027D01*
X033797Y035031D01*
X033789Y035034D01*
X033780Y035036D01*
X033773Y035038D01*
X033766Y035040D01*
X033760Y035041D01*
X033754Y035041D01*
X033750Y035042D01*
D02*
G37*
G36*
X031465Y035002D02*
X031394Y034813D01*
X031534D01*
X031465Y035002D01*
D02*
G37*
G36*
X032596Y035036D02*
X032501D01*
X032492Y035036D01*
X032477D01*
X032470Y035035D01*
X032461D01*
X032457Y035035D01*
X032452D01*
X032450Y035034D01*
X032448D01*
X032439Y035032D01*
X032431Y035030D01*
X032424Y035027D01*
X032419Y035024D01*
X032415Y035021D01*
X032411Y035018D01*
X032410Y035017D01*
X032409Y035016D01*
X032405Y035010D01*
X032401Y035004D01*
X032399Y034997D01*
X032397Y034991D01*
X032396Y034986D01*
X032396Y034982D01*
Y034979D01*
Y034978D01*
X032396Y034969D01*
X032398Y034961D01*
X032401Y034954D01*
X032403Y034949D01*
X032406Y034944D01*
X032409Y034940D01*
X032411Y034938D01*
X032411Y034937D01*
X032417Y034932D01*
X032424Y034929D01*
X032431Y034925D01*
X032438Y034923D01*
X032443Y034921D01*
X032448Y034920D01*
X032452Y034920D01*
X032456D01*
X032461Y034919D01*
X032466D01*
X032471Y034919D01*
X032483D01*
X032496Y034918D01*
X032596D01*
Y035036D01*
D02*
G37*
G36*
Y034833D02*
X032500D01*
X032488Y034832D01*
X032478D01*
X032468Y034831D01*
X032460Y034831D01*
X032452Y034830D01*
X032446Y034829D01*
X032440Y034829D01*
X032435Y034828D01*
X032431Y034827D01*
X032428Y034826D01*
X032425Y034826D01*
X032423Y034825D01*
X032422D01*
X032421Y034825D01*
X032413Y034821D01*
X032407Y034818D01*
X032401Y034814D01*
X032397Y034810D01*
X032393Y034807D01*
X032391Y034804D01*
X032389Y034802D01*
X032388Y034801D01*
X032385Y034795D01*
X032382Y034789D01*
X032380Y034782D01*
X032378Y034776D01*
X032377Y034771D01*
X032377Y034766D01*
Y034764D01*
Y034763D01*
X032377Y034753D01*
X032379Y034744D01*
X032382Y034737D01*
X032384Y034731D01*
X032387Y034726D01*
X032390Y034722D01*
X032391Y034720D01*
X032392Y034719D01*
X032397Y034714D01*
X032404Y034709D01*
X032410Y034706D01*
X032416Y034703D01*
X032421Y034701D01*
X032426Y034700D01*
X032428Y034699D01*
X032429D01*
X032433Y034698D01*
X032437Y034698D01*
X032442D01*
X032447Y034697D01*
X032458Y034697D01*
X032471D01*
X032482Y034696D01*
X032596D01*
Y034833D01*
D02*
G37*
G36*
X032079Y035035D02*
X031968D01*
X031961Y035035D01*
X031947D01*
X031942Y035034D01*
X031933D01*
X031931Y035033D01*
X031926D01*
X031924Y035033D01*
X031923D01*
X031914Y035031D01*
X031906Y035028D01*
X031899Y035025D01*
X031894Y035021D01*
X031889Y035018D01*
X031887Y035016D01*
X031884Y035013D01*
X031884Y035013D01*
X031879Y035006D01*
X031876Y035000D01*
X031873Y034993D01*
X031872Y034986D01*
X031871Y034980D01*
X031870Y034976D01*
Y034972D01*
Y034972D01*
Y034971D01*
X031871Y034963D01*
X031872Y034955D01*
X031873Y034949D01*
X031875Y034943D01*
X031877Y034939D01*
X031879Y034935D01*
X031880Y034933D01*
X031881Y034932D01*
X031885Y034927D01*
X031889Y034922D01*
X031894Y034919D01*
X031899Y034916D01*
X031903Y034914D01*
X031907Y034912D01*
X031909Y034911D01*
X031910Y034911D01*
X031914Y034910D01*
X031919Y034909D01*
X031926Y034908D01*
X031932Y034907D01*
X031947Y034906D01*
X031963Y034905D01*
X031978D01*
X031985Y034905D01*
X032079D01*
Y035035D01*
D02*
G37*
G36*
X035697Y035668D02*
X035629D01*
X035620Y035667D01*
X035611D01*
X035603Y035666D01*
X035596Y035666D01*
X035590Y035665D01*
X035585D01*
X035580Y035665D01*
X035576Y035664D01*
X035572Y035664D01*
X035570Y035663D01*
X035568D01*
X035567Y035663D01*
X035566D01*
X035555Y035660D01*
X035546Y035656D01*
X035537Y035652D01*
X035531Y035648D01*
X035525Y035644D01*
X035521Y035641D01*
X035519Y035639D01*
X035518Y035638D01*
X035511Y035631D01*
X035505Y035623D01*
X035500Y035615D01*
X035496Y035607D01*
X035493Y035600D01*
X035490Y035594D01*
X035489Y035592D01*
X035489Y035590D01*
X035488Y035589D01*
Y035589D01*
X035486Y035583D01*
X035485Y035576D01*
X035482Y035561D01*
X035480Y035546D01*
X035479Y035532D01*
Y035524D01*
X035478Y035518D01*
Y035513D01*
X035478Y035508D01*
Y035503D01*
Y035501D01*
Y035498D01*
Y035498D01*
Y035487D01*
X035478Y035477D01*
X035479Y035467D01*
X035479Y035458D01*
X035480Y035449D01*
X035481Y035442D01*
X035482Y035435D01*
X035483Y035428D01*
X035484Y035423D01*
X035485Y035418D01*
X035486Y035414D01*
X035486Y035410D01*
X035487Y035407D01*
X035488Y035406D01*
X035488Y035405D01*
Y035404D01*
X035493Y035392D01*
X035497Y035382D01*
X035501Y035373D01*
X035506Y035366D01*
X035509Y035361D01*
X035513Y035357D01*
X035515Y035355D01*
X035515Y035355D01*
X035522Y035350D01*
X035529Y035345D01*
X035536Y035341D01*
X035542Y035338D01*
X035548Y035336D01*
X035552Y035334D01*
X035556Y035333D01*
X035556Y035333D01*
X035557D01*
X035561Y035332D01*
X035565Y035331D01*
X035575Y035330D01*
X035585Y035330D01*
X035596Y035329D01*
X035605Y035328D01*
X035697D01*
Y035668D01*
D02*
G37*
G36*
X035180D02*
X035069D01*
X035061Y035667D01*
X035048D01*
X035042Y035666D01*
X035034D01*
X035031Y035666D01*
X035027D01*
X035025Y035665D01*
X035024D01*
X035015Y035663D01*
X035007Y035660D01*
X035000Y035658D01*
X034995Y035654D01*
X034990Y035651D01*
X034987Y035648D01*
X034985Y035646D01*
X034985Y035645D01*
X034980Y035639D01*
X034977Y035632D01*
X034974Y035625D01*
X034972Y035619D01*
X034971Y035613D01*
X034971Y035608D01*
Y035605D01*
Y035604D01*
Y035604D01*
X034971Y035595D01*
X034972Y035588D01*
X034974Y035581D01*
X034976Y035575D01*
X034978Y035571D01*
X034980Y035568D01*
X034981Y035565D01*
X034981Y035565D01*
X034986Y035559D01*
X034990Y035555D01*
X034995Y035551D01*
X035000Y035548D01*
X035004Y035546D01*
X035007Y035544D01*
X035010Y035544D01*
X035011Y035543D01*
X035015Y035542D01*
X035020Y035541D01*
X035026Y035540D01*
X035033Y035540D01*
X035048Y035539D01*
X035064Y035538D01*
X035079D01*
X035086Y035537D01*
X035180D01*
Y035668D01*
D02*
G37*
G36*
X031942Y035635D02*
X031871Y035445D01*
X032012D01*
X031942Y035635D01*
D02*
G37*
G36*
X034168D02*
X034097Y035445D01*
X034238D01*
X034168Y035635D01*
D02*
G37*
%LPD*%
D32*
X025250Y041400D02*
X025900Y042050D01*
X020600Y041400D02*
X025250D01*
X019300Y040100D02*
X020600Y041400D01*
X019300Y039400D02*
Y040100D01*
X017300Y039600D02*
Y040100D01*
X017050Y039350D02*
X017300Y039600D01*
X029300Y024210D02*
X029525Y024435D01*
X031550Y026000D02*
X032550D01*
X027350Y038250D02*
X027750D01*
X026300Y039300D02*
X027350Y038250D01*
X026300Y039300D02*
Y040000D01*
X020150Y032550D02*
X025541D01*
X025550Y032559D01*
X037500Y039350D02*
Y040750D01*
X036300Y038150D02*
X037500Y039350D01*
X036300Y027300D02*
Y038150D01*
Y027300D02*
X036950Y026650D01*
X034500Y026150D02*
X035150D01*
X034150Y026500D02*
X034500Y026150D01*
X033100Y026500D02*
X034150D01*
X030541Y032559D02*
X030559Y032541D01*
X025550Y032559D02*
X030541D01*
X024100Y023850D02*
X024550Y024300D01*
X023750Y023850D02*
X024100D01*
X034450Y016100D02*
X038000Y019650D01*
Y025150D01*
X032430Y016670D02*
X033150Y015950D01*
X032430Y016670D02*
Y018830D01*
X032000Y016300D02*
Y019450D01*
X032350Y019800D01*
X033150Y015950D02*
X033250D01*
X026700Y028400D02*
X027600Y027500D01*
X019500Y032550D02*
X020150D01*
X029900Y024850D02*
X032050Y022700D01*
X030450Y025250D02*
X032475Y023225D01*
X029300Y024210D02*
Y024250D01*
X021100Y026000D02*
X024850Y022250D01*
X021100Y026000D02*
Y026700D01*
X031150Y020800D02*
X032350D01*
X020500Y026250D02*
X024800Y021950D01*
X020500Y026250D02*
Y026750D01*
X019900Y026450D02*
X024650Y021700D01*
X019900Y026450D02*
Y026750D01*
X030125Y020525D02*
X030300Y020700D01*
X031350Y020250D02*
X031750D01*
X030125Y019775D02*
Y020525D01*
Y019775D02*
X030400Y019500D01*
X029400Y020650D02*
X029850Y021100D01*
X024800Y020650D02*
X029400D01*
X016950Y028500D02*
X024800Y020650D01*
X031100Y019250D02*
Y019800D01*
X028500Y018700D02*
X030550D01*
X031100Y019250D01*
X027400Y019800D02*
X028500Y018700D01*
X030700Y020200D02*
X031100Y019800D01*
X024600D02*
X027400D01*
X015900Y028500D02*
X024600Y019800D01*
X015900Y028500D02*
Y037950D01*
X024650Y020300D02*
X027450D01*
X016350Y028600D02*
X024650Y020300D01*
X016350Y028600D02*
Y037150D01*
X016950Y028500D02*
Y031800D01*
X017350Y028500D02*
Y032250D01*
X016350Y037150D02*
X017050Y037850D01*
Y039350D01*
X014350Y043150D02*
X014850Y042650D01*
Y039000D02*
Y042650D01*
Y039000D02*
X015900Y037950D01*
X027450Y020300D02*
X028150Y019600D01*
X029600D01*
X029800Y019400D01*
X016950Y032650D02*
X017350Y032250D01*
X016950Y032650D02*
Y036550D01*
X030400Y019500D02*
X030650D01*
X018250Y025400D02*
X024300Y019350D01*
X027150D01*
X018150Y025400D02*
X018250D01*
X027150Y019350D02*
X029050Y017450D01*
X017450Y023400D02*
X018550Y024500D01*
X017450Y019200D02*
Y023400D01*
Y019200D02*
X020450Y016200D01*
X023200D01*
X022350Y019150D02*
X026450D01*
X026750Y017400D02*
Y018850D01*
X026450Y019150D02*
X026750Y018850D01*
X031000Y015600D02*
X032150Y014450D01*
X028550Y015600D02*
X031000D01*
X026750Y017400D02*
X028550Y015600D01*
X032150Y014450D02*
X032600D01*
X031550Y026000D02*
X031600Y026050D01*
X031700D01*
X015100Y013000D02*
X018200D01*
X018250Y012950D01*
X014800Y012700D02*
X015100Y013000D01*
X014800Y012300D02*
Y012700D01*
X015100Y013900D02*
X017800D01*
X014100Y012900D02*
X015100Y013900D01*
X018000Y022500D02*
X019550D01*
X026350Y023550D02*
X027400Y022500D01*
X026350Y023550D02*
Y029300D01*
X015800Y010960D02*
Y011300D01*
X015440Y010600D02*
X015800Y010960D01*
X014100Y010790D02*
X014290Y010600D01*
X014100Y010790D02*
Y012900D01*
X014290Y010600D02*
X015440D01*
X028700Y026190D02*
X032245Y029735D01*
X030559Y032181D02*
Y032541D01*
Y032181D02*
X033005Y029735D01*
X032245D02*
X033005D01*
X019255Y032795D02*
Y033605D01*
Y032795D02*
X019500Y032550D01*
X019255Y033605D02*
X019750Y034100D01*
X020450Y034800D01*
X018510Y034100D02*
X019750D01*
X017950Y034660D02*
X018510Y034100D01*
X017950Y034660D02*
Y036200D01*
X022350Y028650D02*
X022400Y028600D01*
X027400Y022500D02*
X030780D01*
X031530Y021750D01*
X032450D01*
X029525Y024435D02*
X031700Y022260D01*
X031800D01*
X030980Y020970D02*
X031150Y020800D01*
X030640Y020960D02*
X031350Y020250D01*
X024850Y022250D02*
X030620D01*
X031570Y021300D01*
X031750D01*
X024800Y021950D02*
X030520D01*
X030980Y021490D01*
Y020970D02*
Y021490D01*
X024650Y021700D02*
X030390D01*
X030640Y021450D01*
Y020960D02*
Y021450D01*
X017350Y028500D02*
X024380Y021470D01*
X030050D02*
X030300Y021220D01*
X024380Y021470D02*
X030050D01*
X030300Y020700D02*
Y021220D01*
X022400Y026160D02*
Y028600D01*
X033005Y029735D02*
X033325D01*
X037910Y025150D01*
X038000D01*
X032000Y016300D02*
X032970Y015330D01*
X033450D01*
X019530Y020080D02*
X022320D01*
X022450Y019950D01*
X033210Y017340D02*
X034450Y016100D01*
X033020Y017340D02*
X033210D01*
X018500Y019250D02*
Y020320D01*
X020370Y022190D01*
X016800Y011300D02*
X033000D01*
X034450Y012750D01*
Y016100D01*
D34*
X012567Y021969D02*
D03*
Y022953D02*
D03*
X013354D02*
D03*
Y021969D02*
D03*
D35*
X011500Y024831D02*
D03*
Y020091D02*
D03*
D36*
X013350Y043150D02*
D03*
X014350D02*
D03*
X015350D02*
D03*
X016350D02*
D03*
X017350D02*
D03*
X018350D02*
D03*
X019350D02*
D03*
X020350D02*
D03*
X021350D02*
D03*
D37*
X022350D02*
D03*
D38*
X014800Y011300D02*
D03*
Y012300D02*
D03*
X015800Y011300D02*
D03*
Y012300D02*
D03*
X016800Y011300D02*
D03*
D39*
Y012300D02*
D03*
D40*
X011500Y043500D02*
D03*
D41*
X037500D02*
D03*
X038500Y011500D02*
D03*
X011500D02*
D03*
D42*
X019300Y039400D02*
D03*
X017300Y040100D02*
D03*
X038820Y015950D02*
D03*
X020410Y017450D02*
D03*
X016800Y020900D02*
D03*
X013570Y017010D02*
D03*
X034310Y024940D02*
D03*
X031350Y018650D02*
D03*
X038900Y026050D02*
D03*
X036950Y026650D02*
D03*
X033100Y026500D02*
D03*
X025550Y026950D02*
D03*
X026350Y029300D02*
D03*
X020450Y034800D02*
D03*
X027850Y026800D02*
D03*
X023750Y023850D02*
D03*
X024550Y024300D02*
D03*
X025500Y035500D02*
D03*
X024300Y037550D02*
D03*
X025750Y038950D02*
D03*
X035950Y030150D02*
D03*
X031200Y030350D02*
D03*
X022250Y030100D02*
D03*
X028700Y026190D02*
D03*
X038000Y025150D02*
D03*
X030559Y032541D02*
D03*
X022350Y028650D02*
D03*
X025550Y032559D02*
D03*
X027600Y027500D02*
D03*
X026700Y028400D02*
D03*
X020150Y032550D02*
D03*
X017950Y036200D02*
D03*
X029900Y024850D02*
D03*
X030450Y025250D02*
D03*
X029300Y024250D02*
D03*
X021100Y026700D02*
D03*
X019900Y026750D02*
D03*
X020500D02*
D03*
X037500Y040750D02*
D03*
X035150Y026150D02*
D03*
X032475Y023225D02*
D03*
X032050Y022700D02*
D03*
X032450Y021750D02*
D03*
X031750Y021300D02*
D03*
X032350Y020800D02*
D03*
X031750Y020250D02*
D03*
X030650Y019500D02*
D03*
X029850Y021100D02*
D03*
X030700Y020200D02*
D03*
X016950Y036550D02*
D03*
Y031800D02*
D03*
X029800Y019400D02*
D03*
X029050Y017450D02*
D03*
X018550Y024500D02*
D03*
X018150Y025400D02*
D03*
X023200Y016200D02*
D03*
X032600Y014450D02*
D03*
X031700Y026050D02*
D03*
X032550Y026000D02*
D03*
X032430Y018830D02*
D03*
X032350Y019800D02*
D03*
X033250Y015950D02*
D03*
X018250Y012950D02*
D03*
X017800Y013900D02*
D03*
X022350Y019150D02*
D03*
X022450Y019950D02*
D03*
X018500Y019250D02*
D03*
X019550Y022500D02*
D03*
X018000D02*
D03*
X027750Y038250D02*
D03*
X026300Y040000D02*
D03*
X037980Y026840D02*
D03*
X031380Y017190D02*
D03*
X014550Y025100D02*
D03*
X031800Y022260D02*
D03*
X022400Y026160D02*
D03*
X024330Y013930D02*
D03*
X033450Y015330D02*
D03*
X033220Y013100D02*
D03*
X019530Y020080D02*
D03*
X033020Y017340D02*
D03*
X020370Y022190D02*
D03*
X025900Y042050D02*
D03*
X025980Y043400D02*
D03*
M02*
