G04 Layer_Color=32896*
%FSAX24Y24*%
%MOIN*%
G70*
G01*
G75*
G36*
X016174Y040031D02*
X016188Y040023D01*
X016200Y040015D01*
X016212Y040007D01*
X016222Y040000D01*
X016232Y039994D01*
X016240Y039988D01*
X016248Y039982D01*
X016255Y039977D01*
X016260Y039973D01*
X016265Y039969D01*
X016269Y039965D01*
X016273Y039963D01*
X016275Y039961D01*
X016277Y039959D01*
X016278Y039958D01*
X016289Y039947D01*
X016299Y039936D01*
X016308Y039924D01*
X016316Y039913D01*
X016323Y039903D01*
X016328Y039895D01*
X016330Y039892D01*
X016330Y039890D01*
X016332Y039889D01*
Y039888D01*
X016335Y039904D01*
X016338Y039918D01*
X016342Y039931D01*
X016346Y039944D01*
X016351Y039956D01*
X016356Y039966D01*
X016361Y039975D01*
X016366Y039983D01*
X016371Y039991D01*
X016376Y039997D01*
X016380Y040003D01*
X016384Y040008D01*
X016387Y040011D01*
X016389Y040013D01*
X016391Y040015D01*
X016391Y040015D01*
X016400Y040023D01*
X016410Y040029D01*
X016420Y040035D01*
X016430Y040040D01*
X016440Y040044D01*
X016450Y040047D01*
X016469Y040052D01*
X016478Y040054D01*
X016486Y040056D01*
X016493Y040056D01*
X016499Y040057D01*
X016504Y040058D01*
X016511D01*
X016532Y040056D01*
X016550Y040054D01*
X016568Y040049D01*
X016582Y040044D01*
X016589Y040041D01*
X016595Y040038D01*
X016600Y040036D01*
X016604Y040033D01*
X016607Y040032D01*
X016609Y040031D01*
X016611Y040029D01*
X016611D01*
X016627Y040018D01*
X016640Y040006D01*
X016650Y039994D01*
X016659Y039982D01*
X016666Y039971D01*
X016668Y039967D01*
X016670Y039963D01*
X016671Y039959D01*
X016673Y039957D01*
X016673Y039956D01*
Y039955D01*
X016676Y039946D01*
X016679Y039936D01*
X016682Y039924D01*
X016683Y039912D01*
X016686Y039888D01*
X016688Y039863D01*
X016689Y039852D01*
X016690Y039840D01*
Y039831D01*
X016691Y039822D01*
Y039815D01*
Y039811D01*
Y039807D01*
Y039806D01*
Y039534D01*
X016050D01*
Y039663D01*
X016317D01*
Y039688D01*
Y039704D01*
X016316Y039718D01*
X016315Y039729D01*
X016314Y039738D01*
X016312Y039745D01*
X016311Y039750D01*
X016310Y039753D01*
X016310Y039754D01*
X016307Y039761D01*
X016303Y039768D01*
X016298Y039775D01*
X016294Y039781D01*
X016289Y039786D01*
X016287Y039790D01*
X016284Y039792D01*
X016283Y039793D01*
X016279Y039797D01*
X016273Y039801D01*
X016267Y039806D01*
X016260Y039811D01*
X016245Y039822D01*
X016229Y039834D01*
X016214Y039845D01*
X016208Y039849D01*
X016201Y039853D01*
X016196Y039856D01*
X016193Y039859D01*
X016190Y039861D01*
X016189Y039861D01*
X016050Y039955D01*
Y040110D01*
X016174Y040031D01*
D02*
G37*
G36*
X016691Y038942D02*
X016582D01*
Y039133D01*
X016050D01*
Y039262D01*
X016582D01*
Y039450D01*
X016691D01*
Y038942D01*
D02*
G37*
G36*
Y040501D02*
Y040364D01*
X016050Y040115D01*
Y040251D01*
X016196Y040305D01*
Y040561D01*
X016050Y040617D01*
Y040758D01*
X016691Y040501D01*
D02*
G37*
G36*
X016258Y041959D02*
X016278Y041956D01*
X016295Y041952D01*
X016303Y041950D01*
X016310Y041947D01*
X016316Y041945D01*
X016321Y041943D01*
X016326Y041940D01*
X016330Y041938D01*
X016334Y041936D01*
X016336Y041936D01*
X016337Y041934D01*
X016338D01*
X016353Y041924D01*
X016366Y041912D01*
X016377Y041900D01*
X016387Y041889D01*
X016394Y041879D01*
X016399Y041870D01*
X016400Y041867D01*
X016402Y041865D01*
X016403Y041863D01*
Y041863D01*
X016407Y041854D01*
X016412Y041844D01*
X016416Y041833D01*
X016421Y041822D01*
X016428Y041799D01*
X016435Y041776D01*
X016438Y041766D01*
X016441Y041755D01*
X016444Y041747D01*
X016446Y041739D01*
X016447Y041732D01*
X016448Y041727D01*
X016449Y041725D01*
Y041723D01*
X016453Y041707D01*
X016457Y041691D01*
X016462Y041677D01*
X016466Y041665D01*
X016469Y041654D01*
X016473Y041644D01*
X016476Y041636D01*
X016479Y041629D01*
X016482Y041623D01*
X016484Y041617D01*
X016487Y041613D01*
X016489Y041610D01*
X016490Y041607D01*
X016491Y041606D01*
X016492Y041605D01*
X016498Y041598D01*
X016505Y041593D01*
X016512Y041591D01*
X016518Y041588D01*
X016523Y041587D01*
X016527Y041586D01*
X016531D01*
X016540Y041587D01*
X016548Y041589D01*
X016555Y041592D01*
X016560Y041596D01*
X016564Y041600D01*
X016568Y041603D01*
X016570Y041605D01*
X016571Y041606D01*
X016578Y041619D01*
X016584Y041633D01*
X016589Y041648D01*
X016591Y041662D01*
X016593Y041675D01*
X016593Y041681D01*
X016594Y041686D01*
Y041689D01*
Y041692D01*
Y041694D01*
Y041695D01*
X016593Y041714D01*
X016591Y041731D01*
X016587Y041745D01*
X016583Y041757D01*
X016579Y041766D01*
X016575Y041772D01*
X016573Y041775D01*
X016572Y041777D01*
X016563Y041786D01*
X016552Y041794D01*
X016540Y041800D01*
X016529Y041805D01*
X016518Y041809D01*
X016514Y041810D01*
X016509Y041811D01*
X016507Y041812D01*
X016504D01*
X016502Y041813D01*
X016502D01*
X016507Y041942D01*
X016523Y041940D01*
X016538Y041938D01*
X016552Y041935D01*
X016566Y041930D01*
X016578Y041925D01*
X016590Y041920D01*
X016600Y041914D01*
X016610Y041909D01*
X016618Y041902D01*
X016626Y041897D01*
X016633Y041892D01*
X016638Y041887D01*
X016642Y041883D01*
X016645Y041880D01*
X016647Y041878D01*
X016648Y041877D01*
X016657Y041866D01*
X016665Y041852D01*
X016673Y041838D01*
X016679Y041823D01*
X016684Y041809D01*
X016688Y041793D01*
X016691Y041778D01*
X016694Y041764D01*
X016697Y041750D01*
X016698Y041737D01*
X016700Y041726D01*
X016700Y041716D01*
X016701Y041708D01*
Y041702D01*
Y041698D01*
Y041697D01*
Y041696D01*
X016700Y041669D01*
X016699Y041657D01*
X016697Y041645D01*
X016695Y041634D01*
X016694Y041623D01*
X016692Y041614D01*
X016690Y041605D01*
X016687Y041597D01*
X016685Y041590D01*
X016684Y041584D01*
X016682Y041579D01*
X016680Y041575D01*
X016679Y041572D01*
X016678Y041571D01*
Y041570D01*
X016669Y041552D01*
X016659Y041535D01*
X016648Y041522D01*
X016638Y041510D01*
X016628Y041502D01*
X016620Y041495D01*
X016618Y041493D01*
X016616Y041491D01*
X016614Y041490D01*
X016614D01*
X016598Y041481D01*
X016582Y041474D01*
X016566Y041469D01*
X016552Y041466D01*
X016540Y041464D01*
X016534Y041463D01*
X016530D01*
X016527Y041462D01*
X016522D01*
X016508Y041463D01*
X016495Y041465D01*
X016482Y041468D01*
X016470Y041471D01*
X016459Y041476D01*
X016448Y041481D01*
X016438Y041487D01*
X016429Y041492D01*
X016421Y041497D01*
X016414Y041503D01*
X016407Y041507D01*
X016403Y041512D01*
X016398Y041516D01*
X016396Y041519D01*
X016394Y041521D01*
X016393Y041521D01*
X016386Y041530D01*
X016380Y041539D01*
X016373Y041550D01*
X016367Y041562D01*
X016357Y041586D01*
X016347Y041610D01*
X016344Y041621D01*
X016340Y041632D01*
X016337Y041641D01*
X016335Y041650D01*
X016332Y041657D01*
X016331Y041662D01*
X016330Y041666D01*
Y041667D01*
X016326Y041682D01*
X016323Y041695D01*
X016320Y041707D01*
X016317Y041717D01*
X016314Y041727D01*
X016312Y041735D01*
X016310Y041743D01*
X016308Y041749D01*
X016307Y041754D01*
X016305Y041759D01*
X016304Y041763D01*
X016303Y041766D01*
X016303Y041768D01*
Y041769D01*
X016302Y041770D01*
X016297Y041782D01*
X016293Y041792D01*
X016288Y041800D01*
X016284Y041807D01*
X016280Y041811D01*
X016277Y041814D01*
X016275Y041816D01*
X016274Y041817D01*
X016268Y041822D01*
X016262Y041825D01*
X016255Y041827D01*
X016248Y041829D01*
X016244Y041830D01*
X016239Y041831D01*
X016229D01*
X016223Y041829D01*
X016211Y041826D01*
X016200Y041820D01*
X016191Y041815D01*
X016184Y041809D01*
X016178Y041804D01*
X016175Y041800D01*
X016174Y041800D01*
Y041799D01*
X016169Y041793D01*
X016165Y041786D01*
X016158Y041770D01*
X016153Y041754D01*
X016151Y041739D01*
X016149Y041725D01*
X016148Y041720D01*
Y041714D01*
X016147Y041710D01*
Y041707D01*
Y041705D01*
Y041704D01*
X016149Y041683D01*
X016152Y041664D01*
X016156Y041648D01*
X016162Y041634D01*
X016165Y041629D01*
X016167Y041624D01*
X016169Y041619D01*
X016171Y041616D01*
X016174Y041613D01*
X016175Y041611D01*
X016176Y041610D01*
Y041609D01*
X016183Y041603D01*
X016189Y041598D01*
X016203Y041588D01*
X016219Y041580D01*
X016235Y041573D01*
X016248Y041569D01*
X016254Y041567D01*
X016260Y041566D01*
X016264Y041565D01*
X016267Y041564D01*
X016269Y041564D01*
X016270D01*
X016258Y041438D01*
X016238Y041441D01*
X016219Y041445D01*
X016203Y041450D01*
X016187Y041455D01*
X016172Y041462D01*
X016158Y041468D01*
X016146Y041475D01*
X016135Y041482D01*
X016126Y041488D01*
X016117Y041494D01*
X016110Y041500D01*
X016104Y041505D01*
X016100Y041510D01*
X016097Y041513D01*
X016094Y041515D01*
X016094Y041516D01*
X016084Y041529D01*
X016076Y041543D01*
X016068Y041557D01*
X016062Y041573D01*
X016056Y041588D01*
X016052Y041603D01*
X016048Y041618D01*
X016045Y041634D01*
X016043Y041648D01*
X016041Y041661D01*
X016040Y041673D01*
X016039Y041682D01*
Y041691D01*
X016038Y041697D01*
Y041701D01*
Y041702D01*
Y041718D01*
X016039Y041732D01*
X016040Y041747D01*
X016042Y041759D01*
X016044Y041772D01*
X016045Y041784D01*
X016047Y041794D01*
X016050Y041804D01*
X016052Y041812D01*
X016054Y041820D01*
X016056Y041827D01*
X016058Y041832D01*
X016059Y041836D01*
X016060Y041839D01*
X016061Y041841D01*
Y041842D01*
X016071Y041862D01*
X016082Y041879D01*
X016094Y041894D01*
X016106Y041906D01*
X016116Y041916D01*
X016121Y041920D01*
X016125Y041923D01*
X016128Y041925D01*
X016130Y041927D01*
X016132Y041929D01*
X016133D01*
X016142Y041934D01*
X016151Y041939D01*
X016169Y041947D01*
X016187Y041952D01*
X016203Y041956D01*
X016210Y041957D01*
X016216Y041959D01*
X016222Y041959D01*
X016227D01*
X016230Y041960D01*
X016236D01*
X016258Y041959D01*
D02*
G37*
G36*
X016691Y041216D02*
X016260D01*
X016691Y040952D01*
Y040827D01*
X016050D01*
Y040947D01*
X016471D01*
X016050Y041206D01*
Y041335D01*
X016691D01*
Y041216D01*
D02*
G37*
G36*
X016507Y038632D02*
X016521Y038631D01*
X016533Y038629D01*
X016545Y038627D01*
X016556Y038625D01*
X016566Y038621D01*
X016575Y038618D01*
X016584Y038614D01*
X016592Y038611D01*
X016598Y038607D01*
X016605Y038604D01*
X016609Y038601D01*
X016613Y038599D01*
X016616Y038597D01*
X016617Y038596D01*
X016618Y038595D01*
X016627Y038588D01*
X016634Y038581D01*
X016641Y038573D01*
X016648Y038565D01*
X016659Y038550D01*
X016668Y038535D01*
X016674Y038523D01*
X016676Y038517D01*
X016678Y038512D01*
X016679Y038509D01*
X016680Y038506D01*
X016681Y038504D01*
Y038503D01*
X016682Y038495D01*
X016684Y038486D01*
X016686Y038476D01*
X016686Y038464D01*
X016687Y038452D01*
X016688Y038439D01*
X016689Y038413D01*
X016690Y038400D01*
Y038389D01*
X016691Y038378D01*
Y038368D01*
Y038361D01*
Y038355D01*
Y038351D01*
Y038350D01*
Y038142D01*
X016050D01*
Y038271D01*
X016292D01*
Y038355D01*
Y038371D01*
X016292Y038387D01*
Y038400D01*
X016293Y038414D01*
X016294Y038425D01*
X016294Y038436D01*
X016295Y038447D01*
X016296Y038456D01*
X016297Y038464D01*
X016298Y038470D01*
X016298Y038477D01*
X016299Y038482D01*
X016300Y038485D01*
Y038488D01*
X016301Y038489D01*
Y038490D01*
X016304Y038502D01*
X016308Y038515D01*
X016313Y038526D01*
X016318Y038536D01*
X016323Y038545D01*
X016327Y038551D01*
X016330Y038555D01*
X016330Y038556D01*
Y038557D01*
X016340Y038568D01*
X016351Y038579D01*
X016361Y038588D01*
X016371Y038597D01*
X016380Y038603D01*
X016387Y038607D01*
X016390Y038609D01*
X016392Y038611D01*
X016393Y038611D01*
X016394D01*
X016409Y038618D01*
X016426Y038624D01*
X016443Y038627D01*
X016458Y038630D01*
X016466Y038631D01*
X016472Y038631D01*
X016478Y038632D01*
X016483Y038633D01*
X016493D01*
X016507Y038632D01*
D02*
G37*
G36*
X015258Y042159D02*
X015278Y042156D01*
X015295Y042152D01*
X015303Y042150D01*
X015310Y042147D01*
X015316Y042145D01*
X015321Y042143D01*
X015326Y042140D01*
X015330Y042138D01*
X015334Y042136D01*
X015336Y042136D01*
X015337Y042134D01*
X015338D01*
X015353Y042124D01*
X015366Y042112D01*
X015377Y042100D01*
X015387Y042089D01*
X015394Y042079D01*
X015399Y042070D01*
X015400Y042067D01*
X015402Y042065D01*
X015403Y042063D01*
Y042063D01*
X015407Y042054D01*
X015412Y042044D01*
X015416Y042033D01*
X015421Y042022D01*
X015428Y041999D01*
X015435Y041976D01*
X015438Y041966D01*
X015441Y041955D01*
X015444Y041947D01*
X015446Y041939D01*
X015447Y041932D01*
X015448Y041927D01*
X015449Y041925D01*
Y041923D01*
X015453Y041907D01*
X015457Y041891D01*
X015462Y041877D01*
X015466Y041865D01*
X015469Y041854D01*
X015473Y041844D01*
X015476Y041836D01*
X015479Y041829D01*
X015482Y041823D01*
X015484Y041817D01*
X015487Y041813D01*
X015489Y041810D01*
X015490Y041807D01*
X015491Y041806D01*
X015492Y041805D01*
X015498Y041798D01*
X015505Y041793D01*
X015512Y041791D01*
X015518Y041788D01*
X015523Y041787D01*
X015527Y041786D01*
X015531D01*
X015540Y041787D01*
X015548Y041789D01*
X015555Y041792D01*
X015560Y041796D01*
X015564Y041800D01*
X015568Y041803D01*
X015570Y041805D01*
X015570Y041806D01*
X015578Y041819D01*
X015584Y041833D01*
X015589Y041848D01*
X015591Y041862D01*
X015593Y041875D01*
X015593Y041881D01*
X015594Y041886D01*
Y041889D01*
Y041892D01*
Y041894D01*
Y041895D01*
X015593Y041914D01*
X015591Y041931D01*
X015587Y041945D01*
X015583Y041957D01*
X015579Y041966D01*
X015575Y041972D01*
X015573Y041975D01*
X015572Y041977D01*
X015563Y041986D01*
X015552Y041994D01*
X015540Y042000D01*
X015529Y042005D01*
X015518Y042009D01*
X015514Y042010D01*
X015509Y042011D01*
X015507Y042012D01*
X015504D01*
X015502Y042013D01*
X015502D01*
X015507Y042142D01*
X015523Y042140D01*
X015538Y042138D01*
X015552Y042135D01*
X015566Y042130D01*
X015578Y042125D01*
X015590Y042120D01*
X015600Y042114D01*
X015610Y042109D01*
X015618Y042102D01*
X015626Y042097D01*
X015633Y042092D01*
X015638Y042087D01*
X015642Y042083D01*
X015645Y042080D01*
X015647Y042078D01*
X015648Y042077D01*
X015657Y042066D01*
X015665Y042052D01*
X015673Y042038D01*
X015679Y042023D01*
X015684Y042009D01*
X015688Y041993D01*
X015691Y041978D01*
X015694Y041964D01*
X015697Y041950D01*
X015698Y041937D01*
X015700Y041926D01*
X015700Y041916D01*
X015701Y041908D01*
Y041902D01*
Y041898D01*
Y041897D01*
Y041896D01*
X015700Y041869D01*
X015699Y041857D01*
X015697Y041845D01*
X015695Y041834D01*
X015694Y041823D01*
X015692Y041814D01*
X015690Y041805D01*
X015687Y041797D01*
X015685Y041790D01*
X015684Y041784D01*
X015682Y041779D01*
X015680Y041775D01*
X015679Y041772D01*
X015678Y041771D01*
Y041770D01*
X015669Y041752D01*
X015659Y041735D01*
X015648Y041722D01*
X015638Y041710D01*
X015628Y041702D01*
X015620Y041695D01*
X015618Y041693D01*
X015616Y041691D01*
X015614Y041690D01*
X015614D01*
X015598Y041681D01*
X015582Y041674D01*
X015566Y041669D01*
X015552Y041666D01*
X015540Y041664D01*
X015534Y041663D01*
X015530D01*
X015527Y041662D01*
X015522D01*
X015508Y041663D01*
X015495Y041665D01*
X015482Y041668D01*
X015470Y041671D01*
X015459Y041676D01*
X015448Y041681D01*
X015438Y041687D01*
X015429Y041692D01*
X015421Y041697D01*
X015414Y041703D01*
X015407Y041707D01*
X015403Y041712D01*
X015398Y041716D01*
X015396Y041719D01*
X015394Y041721D01*
X015393Y041721D01*
X015386Y041730D01*
X015380Y041739D01*
X015373Y041750D01*
X015367Y041762D01*
X015357Y041786D01*
X015347Y041810D01*
X015344Y041821D01*
X015340Y041832D01*
X015337Y041841D01*
X015335Y041850D01*
X015332Y041857D01*
X015331Y041862D01*
X015330Y041866D01*
Y041867D01*
X015326Y041882D01*
X015323Y041895D01*
X015320Y041907D01*
X015317Y041917D01*
X015314Y041927D01*
X015312Y041935D01*
X015310Y041943D01*
X015308Y041949D01*
X015307Y041954D01*
X015305Y041959D01*
X015304Y041963D01*
X015303Y041966D01*
X015303Y041968D01*
Y041969D01*
X015302Y041970D01*
X015297Y041982D01*
X015293Y041992D01*
X015288Y042000D01*
X015284Y042007D01*
X015280Y042011D01*
X015277Y042014D01*
X015275Y042016D01*
X015274Y042017D01*
X015268Y042022D01*
X015262Y042025D01*
X015255Y042027D01*
X015248Y042029D01*
X015244Y042030D01*
X015239Y042031D01*
X015229D01*
X015223Y042029D01*
X015211Y042026D01*
X015200Y042020D01*
X015191Y042015D01*
X015184Y042009D01*
X015178Y042004D01*
X015175Y042000D01*
X015174Y042000D01*
Y041999D01*
X015169Y041993D01*
X015165Y041986D01*
X015158Y041970D01*
X015153Y041954D01*
X015151Y041939D01*
X015149Y041925D01*
X015148Y041920D01*
Y041914D01*
X015147Y041910D01*
Y041907D01*
Y041905D01*
Y041904D01*
X015149Y041883D01*
X015152Y041864D01*
X015156Y041848D01*
X015162Y041834D01*
X015165Y041829D01*
X015167Y041824D01*
X015169Y041819D01*
X015171Y041816D01*
X015174Y041813D01*
X015175Y041811D01*
X015176Y041810D01*
Y041809D01*
X015183Y041803D01*
X015189Y041798D01*
X015203Y041788D01*
X015219Y041780D01*
X015235Y041773D01*
X015248Y041769D01*
X015254Y041767D01*
X015260Y041766D01*
X015264Y041765D01*
X015267Y041764D01*
X015269Y041764D01*
X015270D01*
X015258Y041638D01*
X015238Y041641D01*
X015219Y041645D01*
X015203Y041650D01*
X015187Y041655D01*
X015172Y041662D01*
X015158Y041668D01*
X015146Y041675D01*
X015135Y041682D01*
X015126Y041688D01*
X015117Y041694D01*
X015110Y041700D01*
X015104Y041705D01*
X015100Y041710D01*
X015096Y041713D01*
X015094Y041715D01*
X015094Y041716D01*
X015084Y041729D01*
X015076Y041743D01*
X015068Y041757D01*
X015062Y041773D01*
X015056Y041788D01*
X015052Y041803D01*
X015048Y041818D01*
X015045Y041834D01*
X015043Y041848D01*
X015041Y041861D01*
X015040Y041873D01*
X015039Y041882D01*
Y041891D01*
X015038Y041897D01*
Y041901D01*
Y041902D01*
Y041918D01*
X015039Y041932D01*
X015040Y041947D01*
X015042Y041959D01*
X015044Y041972D01*
X015045Y041984D01*
X015047Y041994D01*
X015050Y042004D01*
X015052Y042012D01*
X015054Y042020D01*
X015056Y042027D01*
X015058Y042032D01*
X015059Y042036D01*
X015060Y042039D01*
X015061Y042041D01*
Y042042D01*
X015071Y042062D01*
X015082Y042079D01*
X015094Y042094D01*
X015106Y042106D01*
X015116Y042116D01*
X015121Y042120D01*
X015125Y042123D01*
X015128Y042125D01*
X015130Y042127D01*
X015132Y042129D01*
X015133D01*
X015142Y042134D01*
X015151Y042139D01*
X015169Y042147D01*
X015187Y042152D01*
X015203Y042156D01*
X015210Y042157D01*
X015216Y042159D01*
X015222Y042159D01*
X015227D01*
X015230Y042160D01*
X015236D01*
X015258Y042159D01*
D02*
G37*
G36*
X015691Y041416D02*
X015260D01*
X015691Y041152D01*
Y041027D01*
X015050D01*
Y041147D01*
X015471D01*
X015050Y041406D01*
Y041535D01*
X015691D01*
Y041416D01*
D02*
G37*
G36*
X015344Y042254D02*
X015221D01*
Y042495D01*
X015344D01*
Y042254D01*
D02*
G37*
G36*
X016174Y037994D02*
X016188Y037985D01*
X016200Y037977D01*
X016212Y037969D01*
X016222Y037962D01*
X016232Y037956D01*
X016240Y037950D01*
X016248Y037944D01*
X016255Y037940D01*
X016260Y037935D01*
X016265Y037931D01*
X016269Y037928D01*
X016273Y037925D01*
X016275Y037923D01*
X016277Y037922D01*
X016278Y037920D01*
X016289Y037910D01*
X016299Y037898D01*
X016308Y037886D01*
X016316Y037875D01*
X016323Y037865D01*
X016328Y037858D01*
X016330Y037855D01*
X016330Y037853D01*
X016332Y037851D01*
Y037851D01*
X016335Y037866D01*
X016338Y037881D01*
X016342Y037894D01*
X016346Y037906D01*
X016351Y037918D01*
X016356Y037928D01*
X016361Y037938D01*
X016366Y037946D01*
X016371Y037953D01*
X016376Y037960D01*
X016380Y037965D01*
X016384Y037970D01*
X016387Y037974D01*
X016389Y037976D01*
X016391Y037977D01*
X016391Y037978D01*
X016400Y037985D01*
X016410Y037992D01*
X016420Y037997D01*
X016430Y038002D01*
X016440Y038006D01*
X016450Y038010D01*
X016469Y038015D01*
X016478Y038017D01*
X016486Y038018D01*
X016493Y038019D01*
X016499Y038019D01*
X016504Y038020D01*
X016511D01*
X016532Y038019D01*
X016550Y038016D01*
X016568Y038011D01*
X016582Y038006D01*
X016589Y038003D01*
X016595Y038001D01*
X016600Y037999D01*
X016604Y037996D01*
X016607Y037994D01*
X016609Y037993D01*
X016611Y037992D01*
X016611D01*
X016627Y037981D01*
X016640Y037968D01*
X016650Y037956D01*
X016659Y037944D01*
X016666Y037933D01*
X016668Y037929D01*
X016670Y037925D01*
X016671Y037922D01*
X016673Y037919D01*
X016673Y037918D01*
Y037917D01*
X016676Y037908D01*
X016679Y037898D01*
X016682Y037886D01*
X016683Y037874D01*
X016686Y037850D01*
X016688Y037825D01*
X016689Y037814D01*
X016690Y037803D01*
Y037793D01*
X016691Y037785D01*
Y037778D01*
Y037773D01*
Y037770D01*
Y037768D01*
Y037496D01*
X016050D01*
Y037625D01*
X016317D01*
Y037651D01*
Y037667D01*
X016316Y037680D01*
X016315Y037691D01*
X016314Y037700D01*
X016312Y037707D01*
X016311Y037712D01*
X016310Y037715D01*
X016310Y037716D01*
X016307Y037724D01*
X016303Y037731D01*
X016298Y037738D01*
X016294Y037743D01*
X016289Y037748D01*
X016287Y037752D01*
X016284Y037754D01*
X016283Y037755D01*
X016279Y037759D01*
X016273Y037763D01*
X016267Y037768D01*
X016260Y037774D01*
X016245Y037785D01*
X016229Y037797D01*
X016214Y037807D01*
X016208Y037812D01*
X016201Y037815D01*
X016196Y037819D01*
X016193Y037822D01*
X016190Y037823D01*
X016189Y037824D01*
X016050Y037917D01*
Y038072D01*
X016174Y037994D01*
D02*
G37*
G36*
X016396Y037386D02*
X016411Y037384D01*
X016425Y037383D01*
X016439Y037382D01*
X016451Y037380D01*
X016463Y037377D01*
X016473Y037376D01*
X016482Y037374D01*
X016491Y037372D01*
X016498Y037370D01*
X016504Y037368D01*
X016509Y037367D01*
X016512Y037366D01*
X016514Y037365D01*
X016515D01*
X016537Y037357D01*
X016557Y037347D01*
X016575Y037336D01*
X016583Y037332D01*
X016590Y037327D01*
X016597Y037322D01*
X016602Y037318D01*
X016607Y037314D01*
X016611Y037311D01*
X016615Y037308D01*
X016617Y037306D01*
X016618Y037305D01*
X016619Y037304D01*
X016634Y037288D01*
X016646Y037272D01*
X016657Y037256D01*
X016664Y037241D01*
X016670Y037228D01*
X016673Y037222D01*
X016675Y037217D01*
X016676Y037213D01*
X016677Y037210D01*
X016678Y037208D01*
Y037207D01*
X016680Y037199D01*
X016682Y037190D01*
X016685Y037171D01*
X016688Y037150D01*
X016689Y037131D01*
X016690Y037122D01*
Y037114D01*
Y037106D01*
X016691Y037099D01*
Y037094D01*
Y037089D01*
Y037087D01*
Y037086D01*
Y036850D01*
X016050D01*
Y037093D01*
Y037106D01*
X016051Y037119D01*
X016051Y037130D01*
X016052Y037141D01*
X016053Y037151D01*
X016054Y037161D01*
X016056Y037169D01*
X016057Y037177D01*
X016058Y037184D01*
X016059Y037190D01*
X016060Y037196D01*
X016061Y037200D01*
X016062Y037203D01*
X016062Y037205D01*
X016063Y037207D01*
Y037207D01*
X016071Y037228D01*
X016079Y037246D01*
X016087Y037261D01*
X016096Y037274D01*
X016099Y037280D01*
X016103Y037284D01*
X016106Y037288D01*
X016109Y037291D01*
X016111Y037294D01*
X016113Y037296D01*
X016114Y037297D01*
X016115Y037298D01*
X016132Y037314D01*
X016151Y037327D01*
X016169Y037339D01*
X016187Y037349D01*
X016196Y037353D01*
X016203Y037357D01*
X016210Y037359D01*
X016216Y037362D01*
X016221Y037364D01*
X016225Y037365D01*
X016227Y037366D01*
X016228D01*
X016250Y037373D01*
X016273Y037378D01*
X016296Y037382D01*
X016317Y037384D01*
X016327Y037385D01*
X016336Y037386D01*
X016344D01*
X016351Y037386D01*
X016380D01*
X016396Y037386D01*
D02*
G37*
G36*
X017344Y042256D02*
X017221D01*
Y042498D01*
X017344D01*
Y042256D01*
D02*
G37*
G36*
X017691Y042068D02*
X017217Y041912D01*
X017691Y041749D01*
Y041610D01*
X017050Y041838D01*
Y041977D01*
X017691Y042206D01*
Y042068D01*
D02*
G37*
G36*
X018691Y038100D02*
X018582D01*
Y038290D01*
X018050D01*
Y038419D01*
X018582D01*
Y038608D01*
X018691D01*
Y038100D01*
D02*
G37*
G36*
X018174Y040083D02*
X018188Y040075D01*
X018200Y040067D01*
X018212Y040059D01*
X018222Y040052D01*
X018232Y040046D01*
X018240Y040040D01*
X018248Y040034D01*
X018255Y040029D01*
X018260Y040025D01*
X018265Y040021D01*
X018269Y040018D01*
X018273Y040015D01*
X018275Y040013D01*
X018277Y040011D01*
X018278Y040010D01*
X018289Y039999D01*
X018299Y039988D01*
X018308Y039976D01*
X018316Y039965D01*
X018323Y039955D01*
X018328Y039947D01*
X018330Y039945D01*
X018330Y039943D01*
X018332Y039941D01*
Y039940D01*
X018335Y039956D01*
X018338Y039970D01*
X018342Y039984D01*
X018346Y039996D01*
X018351Y040008D01*
X018356Y040018D01*
X018361Y040027D01*
X018366Y040036D01*
X018371Y040043D01*
X018376Y040049D01*
X018380Y040055D01*
X018384Y040060D01*
X018387Y040063D01*
X018389Y040065D01*
X018391Y040067D01*
X018391Y040067D01*
X018400Y040075D01*
X018410Y040081D01*
X018420Y040087D01*
X018430Y040092D01*
X018440Y040096D01*
X018450Y040099D01*
X018469Y040104D01*
X018477Y040106D01*
X018486Y040108D01*
X018493Y040108D01*
X018499Y040109D01*
X018504Y040110D01*
X018511D01*
X018532Y040108D01*
X018550Y040106D01*
X018568Y040101D01*
X018582Y040096D01*
X018589Y040093D01*
X018595Y040090D01*
X018600Y040088D01*
X018604Y040086D01*
X018607Y040084D01*
X018609Y040083D01*
X018611Y040081D01*
X018611D01*
X018627Y040070D01*
X018640Y040058D01*
X018650Y040046D01*
X018659Y040034D01*
X018666Y040023D01*
X018668Y040019D01*
X018670Y040015D01*
X018671Y040011D01*
X018673Y040009D01*
X018673Y040008D01*
Y040007D01*
X018676Y039998D01*
X018679Y039988D01*
X018682Y039976D01*
X018683Y039964D01*
X018686Y039940D01*
X018688Y039915D01*
X018689Y039904D01*
X018690Y039893D01*
Y039883D01*
X018691Y039875D01*
Y039868D01*
Y039863D01*
Y039859D01*
Y039858D01*
Y039586D01*
X018050D01*
Y039715D01*
X018317D01*
Y039741D01*
Y039757D01*
X018316Y039770D01*
X018315Y039781D01*
X018314Y039790D01*
X018312Y039797D01*
X018311Y039802D01*
X018310Y039805D01*
X018310Y039806D01*
X018307Y039813D01*
X018303Y039820D01*
X018298Y039827D01*
X018294Y039833D01*
X018289Y039838D01*
X018287Y039842D01*
X018284Y039844D01*
X018283Y039845D01*
X018279Y039849D01*
X018273Y039853D01*
X018267Y039858D01*
X018260Y039863D01*
X018245Y039875D01*
X018229Y039886D01*
X018214Y039897D01*
X018208Y039902D01*
X018201Y039905D01*
X018196Y039909D01*
X018193Y039911D01*
X018190Y039913D01*
X018189Y039913D01*
X018050Y040007D01*
Y040162D01*
X018174Y040083D01*
D02*
G37*
G36*
X018691Y039074D02*
X018439D01*
Y038820D01*
X018691D01*
Y038691D01*
X018050D01*
Y038820D01*
X018330D01*
Y039074D01*
X018050D01*
Y039203D01*
X018691D01*
Y039074D01*
D02*
G37*
G36*
X017285Y041438D02*
X017273Y041435D01*
X017260Y041431D01*
X017249Y041427D01*
X017239Y041423D01*
X017230Y041418D01*
X017221Y041414D01*
X017214Y041409D01*
X017207Y041405D01*
X017201Y041401D01*
X017196Y041397D01*
X017192Y041393D01*
X017188Y041390D01*
X017185Y041388D01*
X017183Y041386D01*
X017183Y041385D01*
X017182Y041384D01*
X017176Y041377D01*
X017171Y041370D01*
X017163Y041355D01*
X017158Y041340D01*
X017153Y041327D01*
X017151Y041314D01*
X017150Y041309D01*
Y041304D01*
X017149Y041301D01*
Y041298D01*
Y041297D01*
Y041296D01*
X017150Y041284D01*
X017151Y041271D01*
X017154Y041259D01*
X017158Y041249D01*
X017161Y041238D01*
X017165Y041229D01*
X017170Y041220D01*
X017175Y041213D01*
X017180Y041206D01*
X017185Y041200D01*
X017189Y041195D01*
X017192Y041190D01*
X017196Y041187D01*
X017199Y041184D01*
X017200Y041183D01*
X017201Y041182D01*
X017211Y041175D01*
X017223Y041168D01*
X017235Y041162D01*
X017249Y041157D01*
X017264Y041153D01*
X017278Y041150D01*
X017306Y041145D01*
X017320Y041143D01*
X017332Y041141D01*
X017344Y041141D01*
X017354Y041140D01*
X017362Y041139D01*
X017373D01*
X017394Y041140D01*
X017414Y041141D01*
X017431Y041143D01*
X017448Y041146D01*
X017463Y041150D01*
X017476Y041153D01*
X017489Y041157D01*
X017499Y041161D01*
X017509Y041165D01*
X017517Y041169D01*
X017524Y041172D01*
X017530Y041176D01*
X017534Y041179D01*
X017537Y041181D01*
X017539Y041182D01*
X017539Y041183D01*
X017548Y041191D01*
X017556Y041201D01*
X017563Y041210D01*
X017569Y041220D01*
X017574Y041229D01*
X017578Y041239D01*
X017582Y041249D01*
X017584Y041258D01*
X017586Y041266D01*
X017588Y041274D01*
X017589Y041281D01*
X017590Y041287D01*
X017591Y041292D01*
Y041295D01*
Y041298D01*
Y041299D01*
X017589Y041318D01*
X017586Y041334D01*
X017582Y041349D01*
X017576Y041362D01*
X017571Y041372D01*
X017568Y041377D01*
X017566Y041380D01*
X017564Y041383D01*
X017563Y041385D01*
X017562Y041386D01*
X017561Y041386D01*
X017550Y041399D01*
X017537Y041409D01*
X017524Y041417D01*
X017512Y041424D01*
X017500Y041429D01*
X017496Y041431D01*
X017491Y041432D01*
X017488Y041433D01*
X017485Y041433D01*
X017484Y041434D01*
X017483D01*
X017514Y041562D01*
X017527Y041558D01*
X017541Y041553D01*
X017552Y041547D01*
X017564Y041542D01*
X017575Y041537D01*
X017584Y041531D01*
X017593Y041526D01*
X017601Y041521D01*
X017608Y041515D01*
X017614Y041511D01*
X017619Y041507D01*
X017623Y041503D01*
X017627Y041500D01*
X017629Y041498D01*
X017630Y041497D01*
X017631Y041496D01*
X017643Y041481D01*
X017654Y041467D01*
X017664Y041451D01*
X017671Y041435D01*
X017678Y041419D01*
X017684Y041403D01*
X017688Y041388D01*
X017692Y041373D01*
X017695Y041359D01*
X017697Y041346D01*
X017699Y041334D01*
X017700Y041324D01*
X017700Y041316D01*
X017701Y041311D01*
Y041306D01*
Y041305D01*
X017700Y041281D01*
X017697Y041257D01*
X017693Y041235D01*
X017687Y041214D01*
X017680Y041195D01*
X017673Y041177D01*
X017665Y041161D01*
X017657Y041146D01*
X017648Y041133D01*
X017641Y041121D01*
X017633Y041111D01*
X017626Y041103D01*
X017620Y041096D01*
X017616Y041092D01*
X017613Y041088D01*
X017612Y041088D01*
X017595Y041073D01*
X017576Y041061D01*
X017557Y041050D01*
X017536Y041041D01*
X017516Y041032D01*
X017495Y041026D01*
X017475Y041020D01*
X017455Y041016D01*
X017437Y041013D01*
X017419Y041010D01*
X017403Y041009D01*
X017390Y041007D01*
X017379Y041007D01*
X017375Y041006D01*
X017364D01*
X017336Y041007D01*
X017310Y041009D01*
X017286Y041014D01*
X017263Y041018D01*
X017242Y041025D01*
X017222Y041032D01*
X017204Y041039D01*
X017188Y041047D01*
X017174Y041054D01*
X017161Y041062D01*
X017151Y041069D01*
X017142Y041075D01*
X017135Y041080D01*
X017130Y041084D01*
X017126Y041087D01*
X017126Y041088D01*
X017110Y041104D01*
X017097Y041120D01*
X017085Y041138D01*
X017076Y041155D01*
X017067Y041172D01*
X017060Y041190D01*
X017054Y041207D01*
X017050Y041223D01*
X017046Y041238D01*
X017044Y041253D01*
X017042Y041265D01*
X017040Y041276D01*
X017040Y041285D01*
X017039Y041292D01*
Y041296D01*
Y041297D01*
Y041297D01*
X017040Y041316D01*
X017041Y041334D01*
X017044Y041352D01*
X017047Y041367D01*
X017051Y041383D01*
X017055Y041397D01*
X017060Y041410D01*
X017065Y041421D01*
X017069Y041432D01*
X017074Y041441D01*
X017078Y041449D01*
X017082Y041456D01*
X017085Y041460D01*
X017087Y041465D01*
X017089Y041467D01*
X017090Y041467D01*
X017100Y041480D01*
X017111Y041491D01*
X017123Y041501D01*
X017136Y041511D01*
X017149Y041519D01*
X017162Y041528D01*
X017175Y041535D01*
X017187Y041541D01*
X017199Y041547D01*
X017210Y041551D01*
X017221Y041555D01*
X017229Y041558D01*
X017237Y041561D01*
X017242Y041562D01*
X017245Y041564D01*
X017246D01*
X017285Y041438D01*
D02*
G37*
G36*
X017691Y038300D02*
X017582D01*
Y038490D01*
X017050D01*
Y038619D01*
X017582D01*
Y038808D01*
X017691D01*
Y038300D01*
D02*
G37*
G36*
X016423Y042321D02*
X016589D01*
Y042209D01*
X016423D01*
Y042041D01*
X016308D01*
Y042209D01*
X016142D01*
Y042321D01*
X016308D01*
Y042489D01*
X016423D01*
Y042321D01*
D02*
G37*
G36*
X017691Y039274D02*
X017439D01*
Y039020D01*
X017691D01*
Y038891D01*
X017050D01*
Y039020D01*
X017330D01*
Y039274D01*
X017050D01*
Y039403D01*
X017691D01*
Y039274D01*
D02*
G37*
G36*
X017158Y040561D02*
X017332D01*
Y040882D01*
X017441D01*
Y040561D01*
X017582D01*
Y040907D01*
X017691D01*
Y040432D01*
X017050D01*
Y040919D01*
X017158D01*
Y040561D01*
D02*
G37*
G36*
X017174Y040283D02*
X017188Y040275D01*
X017200Y040267D01*
X017212Y040259D01*
X017222Y040252D01*
X017232Y040246D01*
X017240Y040240D01*
X017248Y040234D01*
X017255Y040229D01*
X017260Y040225D01*
X017265Y040221D01*
X017269Y040218D01*
X017273Y040215D01*
X017275Y040213D01*
X017277Y040211D01*
X017278Y040210D01*
X017289Y040199D01*
X017299Y040188D01*
X017308Y040176D01*
X017316Y040165D01*
X017323Y040155D01*
X017328Y040147D01*
X017330Y040145D01*
X017330Y040143D01*
X017332Y040141D01*
Y040140D01*
X017335Y040156D01*
X017338Y040170D01*
X017342Y040184D01*
X017346Y040196D01*
X017351Y040208D01*
X017356Y040218D01*
X017361Y040227D01*
X017366Y040236D01*
X017371Y040243D01*
X017376Y040249D01*
X017380Y040255D01*
X017384Y040260D01*
X017387Y040263D01*
X017389Y040265D01*
X017391Y040267D01*
X017391Y040267D01*
X017400Y040275D01*
X017410Y040281D01*
X017420Y040287D01*
X017430Y040292D01*
X017440Y040296D01*
X017450Y040299D01*
X017469Y040304D01*
X017478Y040306D01*
X017486Y040308D01*
X017493Y040308D01*
X017499Y040309D01*
X017504Y040310D01*
X017511D01*
X017532Y040308D01*
X017550Y040306D01*
X017568Y040301D01*
X017582Y040296D01*
X017589Y040293D01*
X017595Y040290D01*
X017600Y040288D01*
X017604Y040286D01*
X017607Y040284D01*
X017609Y040283D01*
X017611Y040281D01*
X017611D01*
X017627Y040270D01*
X017640Y040258D01*
X017650Y040246D01*
X017659Y040234D01*
X017666Y040223D01*
X017668Y040219D01*
X017670Y040215D01*
X017671Y040211D01*
X017673Y040209D01*
X017673Y040208D01*
Y040207D01*
X017676Y040198D01*
X017679Y040188D01*
X017682Y040176D01*
X017683Y040164D01*
X017686Y040140D01*
X017688Y040115D01*
X017689Y040104D01*
X017690Y040093D01*
Y040083D01*
X017691Y040075D01*
Y040068D01*
Y040063D01*
Y040059D01*
Y040058D01*
Y039786D01*
X017050D01*
Y039915D01*
X017317D01*
Y039941D01*
Y039957D01*
X017316Y039970D01*
X017315Y039981D01*
X017314Y039990D01*
X017312Y039997D01*
X017311Y040002D01*
X017310Y040005D01*
X017310Y040006D01*
X017307Y040013D01*
X017303Y040020D01*
X017298Y040027D01*
X017294Y040033D01*
X017289Y040038D01*
X017287Y040042D01*
X017284Y040044D01*
X017283Y040045D01*
X017279Y040049D01*
X017273Y040053D01*
X017267Y040058D01*
X017260Y040063D01*
X017245Y040075D01*
X017229Y040086D01*
X017214Y040097D01*
X017208Y040102D01*
X017201Y040105D01*
X017196Y040109D01*
X017193Y040111D01*
X017190Y040113D01*
X017189Y040113D01*
X017050Y040207D01*
Y040362D01*
X017174Y040283D01*
D02*
G37*
G36*
X013344Y042258D02*
X013221D01*
Y042500D01*
X013344D01*
Y042258D01*
D02*
G37*
G36*
X013691Y042070D02*
X013217Y041913D01*
X013691Y041751D01*
Y041611D01*
X013050Y041840D01*
Y041978D01*
X013691Y042207D01*
Y042070D01*
D02*
G37*
G36*
X014396Y037986D02*
X014411Y037984D01*
X014425Y037983D01*
X014439Y037982D01*
X014451Y037980D01*
X014463Y037977D01*
X014473Y037976D01*
X014482Y037974D01*
X014491Y037972D01*
X014498Y037970D01*
X014504Y037968D01*
X014509Y037967D01*
X014512Y037966D01*
X014514Y037965D01*
X014515D01*
X014537Y037957D01*
X014557Y037947D01*
X014575Y037936D01*
X014583Y037932D01*
X014590Y037927D01*
X014597Y037922D01*
X014602Y037918D01*
X014607Y037914D01*
X014611Y037911D01*
X014615Y037908D01*
X014617Y037906D01*
X014618Y037905D01*
X014619Y037904D01*
X014634Y037888D01*
X014646Y037872D01*
X014657Y037856D01*
X014664Y037841D01*
X014670Y037828D01*
X014673Y037822D01*
X014675Y037817D01*
X014676Y037813D01*
X014677Y037810D01*
X014678Y037808D01*
Y037807D01*
X014680Y037799D01*
X014682Y037790D01*
X014685Y037771D01*
X014688Y037750D01*
X014689Y037731D01*
X014690Y037722D01*
Y037714D01*
Y037706D01*
X014691Y037699D01*
Y037694D01*
Y037689D01*
Y037687D01*
Y037686D01*
Y037450D01*
X014050D01*
Y037693D01*
Y037706D01*
X014051Y037719D01*
X014051Y037730D01*
X014052Y037741D01*
X014053Y037751D01*
X014054Y037761D01*
X014056Y037769D01*
X014057Y037777D01*
X014058Y037784D01*
X014059Y037790D01*
X014060Y037796D01*
X014061Y037800D01*
X014062Y037803D01*
X014062Y037805D01*
X014063Y037807D01*
Y037807D01*
X014071Y037828D01*
X014079Y037846D01*
X014087Y037861D01*
X014096Y037874D01*
X014099Y037880D01*
X014103Y037884D01*
X014106Y037888D01*
X014109Y037891D01*
X014111Y037894D01*
X014113Y037896D01*
X014114Y037897D01*
X014115Y037898D01*
X014132Y037914D01*
X014151Y037927D01*
X014169Y037939D01*
X014187Y037949D01*
X014196Y037953D01*
X014203Y037957D01*
X014210Y037959D01*
X014216Y037962D01*
X014221Y037964D01*
X014225Y037965D01*
X014227Y037966D01*
X014228D01*
X014250Y037973D01*
X014273Y037978D01*
X014296Y037982D01*
X014317Y037984D01*
X014327Y037985D01*
X014336Y037986D01*
X014344D01*
X014351Y037986D01*
X014380D01*
X014396Y037986D01*
D02*
G37*
G36*
X014507Y039232D02*
X014521Y039232D01*
X014533Y039229D01*
X014545Y039227D01*
X014556Y039225D01*
X014566Y039221D01*
X014575Y039218D01*
X014584Y039214D01*
X014592Y039211D01*
X014598Y039207D01*
X014605Y039204D01*
X014609Y039201D01*
X014613Y039199D01*
X014616Y039197D01*
X014617Y039196D01*
X014618Y039195D01*
X014627Y039188D01*
X014634Y039181D01*
X014641Y039173D01*
X014648Y039165D01*
X014659Y039150D01*
X014668Y039135D01*
X014674Y039123D01*
X014676Y039117D01*
X014678Y039112D01*
X014679Y039109D01*
X014680Y039106D01*
X014681Y039104D01*
Y039103D01*
X014682Y039095D01*
X014684Y039086D01*
X014686Y039076D01*
X014686Y039064D01*
X014687Y039052D01*
X014688Y039039D01*
X014689Y039013D01*
X014690Y039000D01*
Y038989D01*
X014691Y038978D01*
Y038968D01*
Y038961D01*
Y038955D01*
Y038951D01*
Y038950D01*
Y038742D01*
X014050D01*
Y038871D01*
X014292D01*
Y038955D01*
Y038971D01*
X014292Y038987D01*
Y039000D01*
X014293Y039014D01*
X014294Y039025D01*
X014294Y039036D01*
X014295Y039047D01*
X014296Y039056D01*
X014297Y039064D01*
X014298Y039070D01*
X014298Y039077D01*
X014299Y039082D01*
X014300Y039085D01*
Y039088D01*
X014301Y039089D01*
Y039090D01*
X014304Y039102D01*
X014308Y039115D01*
X014313Y039126D01*
X014318Y039136D01*
X014323Y039145D01*
X014327Y039151D01*
X014330Y039155D01*
X014330Y039156D01*
Y039157D01*
X014340Y039168D01*
X014351Y039179D01*
X014361Y039188D01*
X014371Y039197D01*
X014380Y039203D01*
X014387Y039207D01*
X014390Y039209D01*
X014392Y039211D01*
X014393Y039211D01*
X014394D01*
X014409Y039218D01*
X014426Y039224D01*
X014443Y039227D01*
X014458Y039230D01*
X014466Y039231D01*
X014472Y039232D01*
X014478Y039232D01*
X014483Y039233D01*
X014493D01*
X014507Y039232D01*
D02*
G37*
G36*
X014174Y038594D02*
X014188Y038585D01*
X014200Y038577D01*
X014212Y038569D01*
X014222Y038562D01*
X014232Y038556D01*
X014240Y038550D01*
X014248Y038544D01*
X014255Y038540D01*
X014260Y038535D01*
X014265Y038531D01*
X014269Y038528D01*
X014273Y038525D01*
X014275Y038523D01*
X014277Y038522D01*
X014278Y038520D01*
X014289Y038510D01*
X014299Y038498D01*
X014308Y038486D01*
X014316Y038475D01*
X014323Y038465D01*
X014328Y038458D01*
X014330Y038455D01*
X014330Y038453D01*
X014332Y038451D01*
Y038451D01*
X014335Y038466D01*
X014338Y038481D01*
X014342Y038494D01*
X014346Y038506D01*
X014351Y038518D01*
X014356Y038528D01*
X014361Y038537D01*
X014366Y038546D01*
X014371Y038553D01*
X014376Y038560D01*
X014380Y038565D01*
X014384Y038570D01*
X014387Y038574D01*
X014389Y038576D01*
X014391Y038577D01*
X014391Y038578D01*
X014400Y038585D01*
X014410Y038592D01*
X014420Y038597D01*
X014430Y038602D01*
X014440Y038606D01*
X014450Y038610D01*
X014469Y038615D01*
X014477Y038617D01*
X014486Y038618D01*
X014493Y038619D01*
X014499Y038619D01*
X014504Y038620D01*
X014511D01*
X014532Y038619D01*
X014550Y038616D01*
X014568Y038611D01*
X014582Y038606D01*
X014589Y038603D01*
X014595Y038601D01*
X014600Y038599D01*
X014604Y038596D01*
X014607Y038594D01*
X014609Y038593D01*
X014611Y038592D01*
X014611D01*
X014627Y038581D01*
X014640Y038568D01*
X014650Y038556D01*
X014659Y038544D01*
X014666Y038533D01*
X014668Y038529D01*
X014670Y038525D01*
X014671Y038522D01*
X014673Y038519D01*
X014673Y038518D01*
Y038517D01*
X014676Y038508D01*
X014679Y038498D01*
X014682Y038486D01*
X014683Y038474D01*
X014686Y038450D01*
X014688Y038425D01*
X014689Y038414D01*
X014690Y038403D01*
Y038393D01*
X014691Y038385D01*
Y038378D01*
Y038373D01*
Y038370D01*
Y038368D01*
Y038096D01*
X014050D01*
Y038225D01*
X014317D01*
Y038251D01*
Y038267D01*
X014316Y038280D01*
X014315Y038291D01*
X014314Y038300D01*
X014312Y038307D01*
X014311Y038312D01*
X014310Y038315D01*
X014310Y038316D01*
X014307Y038324D01*
X014303Y038331D01*
X014298Y038338D01*
X014294Y038343D01*
X014289Y038348D01*
X014287Y038352D01*
X014284Y038354D01*
X014283Y038355D01*
X014279Y038359D01*
X014273Y038363D01*
X014267Y038368D01*
X014260Y038374D01*
X014245Y038385D01*
X014229Y038397D01*
X014214Y038407D01*
X014208Y038412D01*
X014201Y038415D01*
X014196Y038419D01*
X014193Y038422D01*
X014190Y038423D01*
X014189Y038424D01*
X014050Y038517D01*
Y038672D01*
X014174Y038594D01*
D02*
G37*
G36*
X013285Y041440D02*
X013273Y041436D01*
X013260Y041433D01*
X013249Y041429D01*
X013239Y041425D01*
X013230Y041420D01*
X013221Y041416D01*
X013214Y041411D01*
X013207Y041407D01*
X013201Y041402D01*
X013196Y041398D01*
X013192Y041395D01*
X013188Y041392D01*
X013185Y041389D01*
X013183Y041387D01*
X013183Y041386D01*
X013182Y041386D01*
X013176Y041379D01*
X013171Y041371D01*
X013163Y041357D01*
X013158Y041342D01*
X013153Y041328D01*
X013151Y041316D01*
X013150Y041311D01*
Y041306D01*
X013149Y041303D01*
Y041300D01*
Y041298D01*
Y041298D01*
X013150Y041285D01*
X013151Y041273D01*
X013154Y041261D01*
X013158Y041250D01*
X013161Y041240D01*
X013165Y041231D01*
X013170Y041222D01*
X013175Y041214D01*
X013180Y041207D01*
X013185Y041201D01*
X013189Y041196D01*
X013192Y041191D01*
X013196Y041189D01*
X013199Y041186D01*
X013200Y041185D01*
X013201Y041184D01*
X013211Y041176D01*
X013223Y041170D01*
X013235Y041164D01*
X013249Y041159D01*
X013264Y041155D01*
X013278Y041151D01*
X013306Y041146D01*
X013320Y041144D01*
X013332Y041143D01*
X013344Y041142D01*
X013354Y041142D01*
X013362Y041141D01*
X013373D01*
X013394Y041142D01*
X013414Y041143D01*
X013431Y041145D01*
X013448Y041148D01*
X013463Y041151D01*
X013476Y041155D01*
X013489Y041159D01*
X013499Y041163D01*
X013509Y041167D01*
X013517Y041171D01*
X013524Y041174D01*
X013530Y041178D01*
X013534Y041180D01*
X013537Y041182D01*
X013539Y041184D01*
X013539Y041185D01*
X013548Y041193D01*
X013556Y041203D01*
X013563Y041212D01*
X013569Y041221D01*
X013574Y041231D01*
X013578Y041241D01*
X013582Y041250D01*
X013584Y041259D01*
X013586Y041268D01*
X013588Y041275D01*
X013589Y041282D01*
X013590Y041289D01*
X013591Y041294D01*
Y041297D01*
Y041300D01*
Y041300D01*
X013589Y041319D01*
X013586Y041336D01*
X013582Y041350D01*
X013576Y041364D01*
X013570Y041374D01*
X013568Y041378D01*
X013566Y041382D01*
X013564Y041384D01*
X013563Y041386D01*
X013562Y041387D01*
X013561Y041388D01*
X013550Y041400D01*
X013537Y041411D01*
X013524Y041419D01*
X013512Y041425D01*
X013500Y041430D01*
X013496Y041432D01*
X013491Y041434D01*
X013488Y041434D01*
X013485Y041435D01*
X013484Y041436D01*
X013483D01*
X013514Y041563D01*
X013527Y041559D01*
X013541Y041554D01*
X013552Y041549D01*
X013564Y041544D01*
X013575Y041538D01*
X013584Y041533D01*
X013593Y041527D01*
X013601Y041523D01*
X013608Y041517D01*
X013614Y041513D01*
X013619Y041509D01*
X013623Y041504D01*
X013627Y041502D01*
X013629Y041500D01*
X013630Y041498D01*
X013631Y041498D01*
X013643Y041483D01*
X013654Y041468D01*
X013664Y041452D01*
X013671Y041436D01*
X013678Y041420D01*
X013684Y041405D01*
X013688Y041389D01*
X013692Y041375D01*
X013695Y041361D01*
X013698Y041348D01*
X013699Y041336D01*
X013700Y041326D01*
X013700Y041318D01*
X013701Y041312D01*
Y041308D01*
Y041307D01*
X013700Y041282D01*
X013698Y041259D01*
X013693Y041237D01*
X013687Y041216D01*
X013680Y041196D01*
X013673Y041179D01*
X013665Y041162D01*
X013657Y041148D01*
X013648Y041135D01*
X013641Y041123D01*
X013633Y041113D01*
X013626Y041105D01*
X013620Y041098D01*
X013616Y041094D01*
X013613Y041090D01*
X013612Y041089D01*
X013595Y041075D01*
X013576Y041062D01*
X013557Y041051D01*
X013536Y041042D01*
X013516Y041034D01*
X013495Y041028D01*
X013475Y041022D01*
X013455Y041018D01*
X013437Y041015D01*
X013419Y041012D01*
X013403Y041010D01*
X013390Y041009D01*
X013379Y041008D01*
X013375Y041008D01*
X013364D01*
X013336Y041008D01*
X013310Y041011D01*
X013286Y041015D01*
X013263Y041020D01*
X013242Y041026D01*
X013222Y041033D01*
X013204Y041041D01*
X013188Y041049D01*
X013174Y041056D01*
X013161Y041064D01*
X013151Y041071D01*
X013142Y041077D01*
X013135Y041082D01*
X013130Y041086D01*
X013126Y041089D01*
X013126Y041089D01*
X013110Y041105D01*
X013097Y041122D01*
X013085Y041139D01*
X013076Y041157D01*
X013067Y041174D01*
X013060Y041191D01*
X013054Y041209D01*
X013050Y041225D01*
X013046Y041240D01*
X013044Y041255D01*
X013042Y041267D01*
X013040Y041278D01*
X013040Y041287D01*
X013039Y041294D01*
Y041298D01*
Y041298D01*
Y041299D01*
X013040Y041318D01*
X013041Y041336D01*
X013044Y041353D01*
X013047Y041369D01*
X013051Y041384D01*
X013055Y041398D01*
X013060Y041411D01*
X013065Y041423D01*
X013069Y041434D01*
X013074Y041443D01*
X013078Y041450D01*
X013082Y041457D01*
X013085Y041462D01*
X013087Y041466D01*
X013089Y041468D01*
X013090Y041469D01*
X013100Y041482D01*
X013111Y041493D01*
X013123Y041503D01*
X013136Y041513D01*
X013149Y041521D01*
X013162Y041529D01*
X013175Y041536D01*
X013187Y041543D01*
X013199Y041548D01*
X013210Y041553D01*
X013221Y041557D01*
X013229Y041560D01*
X013237Y041563D01*
X013242Y041564D01*
X013245Y041566D01*
X013246D01*
X013285Y041440D01*
D02*
G37*
G36*
X013174Y038794D02*
X013188Y038785D01*
X013200Y038777D01*
X013212Y038769D01*
X013222Y038762D01*
X013232Y038756D01*
X013240Y038750D01*
X013248Y038744D01*
X013255Y038740D01*
X013260Y038735D01*
X013265Y038731D01*
X013269Y038728D01*
X013273Y038725D01*
X013275Y038723D01*
X013277Y038722D01*
X013278Y038720D01*
X013289Y038710D01*
X013299Y038698D01*
X013308Y038686D01*
X013316Y038675D01*
X013323Y038665D01*
X013328Y038658D01*
X013330Y038655D01*
X013330Y038653D01*
X013332Y038651D01*
Y038651D01*
X013335Y038666D01*
X013338Y038681D01*
X013342Y038694D01*
X013346Y038706D01*
X013351Y038718D01*
X013356Y038728D01*
X013361Y038737D01*
X013366Y038746D01*
X013371Y038753D01*
X013376Y038760D01*
X013380Y038765D01*
X013384Y038770D01*
X013387Y038774D01*
X013389Y038776D01*
X013391Y038777D01*
X013391Y038778D01*
X013400Y038785D01*
X013410Y038792D01*
X013420Y038797D01*
X013430Y038802D01*
X013440Y038806D01*
X013450Y038810D01*
X013469Y038815D01*
X013477Y038817D01*
X013486Y038818D01*
X013493Y038819D01*
X013499Y038819D01*
X013504Y038820D01*
X013511D01*
X013532Y038819D01*
X013550Y038816D01*
X013568Y038811D01*
X013582Y038806D01*
X013589Y038803D01*
X013595Y038801D01*
X013600Y038799D01*
X013604Y038796D01*
X013607Y038794D01*
X013609Y038793D01*
X013611Y038792D01*
X013611D01*
X013627Y038781D01*
X013640Y038768D01*
X013650Y038756D01*
X013659Y038744D01*
X013666Y038733D01*
X013668Y038729D01*
X013670Y038725D01*
X013671Y038722D01*
X013673Y038719D01*
X013673Y038718D01*
Y038717D01*
X013676Y038708D01*
X013679Y038698D01*
X013682Y038686D01*
X013683Y038674D01*
X013686Y038650D01*
X013688Y038625D01*
X013689Y038614D01*
X013690Y038603D01*
Y038593D01*
X013691Y038585D01*
Y038578D01*
Y038573D01*
Y038570D01*
Y038568D01*
Y038296D01*
X013050D01*
Y038425D01*
X013317D01*
Y038451D01*
Y038467D01*
X013316Y038480D01*
X013315Y038491D01*
X013314Y038500D01*
X013312Y038507D01*
X013311Y038512D01*
X013310Y038515D01*
X013310Y038516D01*
X013307Y038524D01*
X013303Y038531D01*
X013298Y038538D01*
X013294Y038543D01*
X013289Y038548D01*
X013287Y038552D01*
X013284Y038554D01*
X013283Y038555D01*
X013279Y038559D01*
X013273Y038563D01*
X013267Y038568D01*
X013260Y038574D01*
X013245Y038585D01*
X013229Y038597D01*
X013214Y038607D01*
X013208Y038612D01*
X013201Y038615D01*
X013196Y038619D01*
X013193Y038622D01*
X013190Y038623D01*
X013189Y038624D01*
X013050Y038717D01*
Y038872D01*
X013174Y038794D01*
D02*
G37*
G36*
X013396Y038186D02*
X013411Y038184D01*
X013425Y038183D01*
X013439Y038182D01*
X013451Y038180D01*
X013463Y038177D01*
X013473Y038176D01*
X013482Y038174D01*
X013491Y038172D01*
X013498Y038170D01*
X013504Y038168D01*
X013509Y038167D01*
X013512Y038166D01*
X013514Y038165D01*
X013515D01*
X013537Y038157D01*
X013557Y038147D01*
X013575Y038136D01*
X013583Y038132D01*
X013590Y038127D01*
X013597Y038122D01*
X013602Y038118D01*
X013607Y038114D01*
X013611Y038111D01*
X013615Y038108D01*
X013617Y038106D01*
X013618Y038105D01*
X013619Y038104D01*
X013634Y038088D01*
X013646Y038072D01*
X013657Y038056D01*
X013664Y038041D01*
X013670Y038028D01*
X013673Y038022D01*
X013675Y038017D01*
X013676Y038013D01*
X013677Y038010D01*
X013678Y038008D01*
Y038007D01*
X013680Y037999D01*
X013682Y037990D01*
X013685Y037971D01*
X013688Y037950D01*
X013689Y037931D01*
X013690Y037922D01*
Y037914D01*
Y037906D01*
X013691Y037899D01*
Y037894D01*
Y037889D01*
Y037887D01*
Y037886D01*
Y037650D01*
X013050D01*
Y037893D01*
Y037906D01*
X013051Y037919D01*
X013051Y037930D01*
X013052Y037941D01*
X013053Y037951D01*
X013054Y037961D01*
X013056Y037969D01*
X013057Y037977D01*
X013058Y037984D01*
X013059Y037990D01*
X013060Y037996D01*
X013061Y038000D01*
X013062Y038003D01*
X013062Y038005D01*
X013063Y038007D01*
Y038007D01*
X013071Y038028D01*
X013079Y038046D01*
X013087Y038061D01*
X013096Y038074D01*
X013099Y038080D01*
X013103Y038084D01*
X013106Y038088D01*
X013109Y038091D01*
X013111Y038094D01*
X013113Y038096D01*
X013114Y038097D01*
X013115Y038098D01*
X013132Y038114D01*
X013151Y038127D01*
X013169Y038139D01*
X013187Y038149D01*
X013196Y038153D01*
X013203Y038157D01*
X013210Y038159D01*
X013216Y038162D01*
X013221Y038164D01*
X013225Y038165D01*
X013227Y038166D01*
X013228D01*
X013250Y038173D01*
X013273Y038178D01*
X013296Y038182D01*
X013317Y038184D01*
X013327Y038185D01*
X013336Y038186D01*
X013344D01*
X013350Y038186D01*
X013380D01*
X013396Y038186D01*
D02*
G37*
G36*
X013507Y039432D02*
X013521Y039432D01*
X013533Y039429D01*
X013545Y039427D01*
X013556Y039425D01*
X013566Y039421D01*
X013575Y039418D01*
X013584Y039414D01*
X013592Y039411D01*
X013598Y039407D01*
X013605Y039404D01*
X013609Y039401D01*
X013613Y039399D01*
X013616Y039397D01*
X013617Y039396D01*
X013618Y039395D01*
X013627Y039388D01*
X013634Y039381D01*
X013641Y039373D01*
X013648Y039365D01*
X013659Y039350D01*
X013668Y039335D01*
X013674Y039323D01*
X013676Y039317D01*
X013678Y039312D01*
X013679Y039309D01*
X013680Y039306D01*
X013681Y039304D01*
Y039303D01*
X013682Y039295D01*
X013684Y039286D01*
X013686Y039276D01*
X013686Y039264D01*
X013687Y039252D01*
X013688Y039239D01*
X013689Y039213D01*
X013690Y039200D01*
Y039189D01*
X013691Y039178D01*
Y039168D01*
Y039161D01*
Y039155D01*
Y039151D01*
Y039150D01*
Y038942D01*
X013050D01*
Y039071D01*
X013292D01*
Y039155D01*
Y039171D01*
X013292Y039187D01*
Y039200D01*
X013293Y039214D01*
X013294Y039225D01*
X013294Y039236D01*
X013295Y039247D01*
X013296Y039256D01*
X013297Y039264D01*
X013298Y039270D01*
X013298Y039277D01*
X013299Y039282D01*
X013300Y039285D01*
Y039288D01*
X013301Y039289D01*
Y039290D01*
X013304Y039302D01*
X013308Y039315D01*
X013313Y039326D01*
X013318Y039336D01*
X013323Y039345D01*
X013327Y039351D01*
X013330Y039355D01*
X013330Y039356D01*
Y039357D01*
X013340Y039368D01*
X013350Y039379D01*
X013361Y039388D01*
X013371Y039397D01*
X013380Y039403D01*
X013387Y039407D01*
X013390Y039409D01*
X013392Y039411D01*
X013393Y039411D01*
X013394D01*
X013409Y039418D01*
X013426Y039424D01*
X013443Y039427D01*
X013458Y039430D01*
X013466Y039431D01*
X013472Y039432D01*
X013478Y039432D01*
X013483Y039433D01*
X013493D01*
X013507Y039432D01*
D02*
G37*
G36*
X013158Y040563D02*
X013332D01*
Y040884D01*
X013441D01*
Y040563D01*
X013582D01*
Y040908D01*
X013691D01*
Y040434D01*
X013050D01*
Y040921D01*
X013158D01*
Y040563D01*
D02*
G37*
G36*
X013174Y040285D02*
X013188Y040277D01*
X013200Y040268D01*
X013212Y040261D01*
X013222Y040254D01*
X013232Y040248D01*
X013240Y040241D01*
X013248Y040236D01*
X013255Y040231D01*
X013260Y040227D01*
X013265Y040223D01*
X013269Y040219D01*
X013273Y040216D01*
X013275Y040214D01*
X013277Y040213D01*
X013278Y040212D01*
X013289Y040201D01*
X013299Y040189D01*
X013308Y040178D01*
X013316Y040166D01*
X013323Y040157D01*
X013328Y040149D01*
X013330Y040146D01*
X013330Y040144D01*
X013332Y040143D01*
Y040142D01*
X013335Y040157D01*
X013338Y040172D01*
X013342Y040185D01*
X013346Y040198D01*
X013351Y040209D01*
X013356Y040220D01*
X013361Y040229D01*
X013366Y040237D01*
X013371Y040245D01*
X013376Y040251D01*
X013380Y040257D01*
X013384Y040262D01*
X013387Y040265D01*
X013389Y040267D01*
X013391Y040268D01*
X013391Y040269D01*
X013400Y040277D01*
X013410Y040283D01*
X013420Y040289D01*
X013430Y040293D01*
X013440Y040298D01*
X013450Y040301D01*
X013469Y040306D01*
X013477Y040308D01*
X013486Y040309D01*
X013493Y040310D01*
X013499Y040311D01*
X013504Y040311D01*
X013511D01*
X013532Y040310D01*
X013550Y040307D01*
X013568Y040302D01*
X013582Y040298D01*
X013589Y040295D01*
X013595Y040292D01*
X013600Y040290D01*
X013604Y040287D01*
X013607Y040286D01*
X013609Y040284D01*
X013611Y040283D01*
X013611D01*
X013627Y040272D01*
X013640Y040259D01*
X013650Y040248D01*
X013659Y040236D01*
X013666Y040225D01*
X013668Y040221D01*
X013670Y040216D01*
X013671Y040213D01*
X013673Y040211D01*
X013673Y040209D01*
Y040209D01*
X013676Y040200D01*
X013679Y040189D01*
X013682Y040178D01*
X013683Y040166D01*
X013686Y040141D01*
X013688Y040116D01*
X013689Y040105D01*
X013690Y040094D01*
Y040085D01*
X013691Y040076D01*
Y040069D01*
Y040064D01*
Y040061D01*
Y040060D01*
Y039788D01*
X013050D01*
Y039917D01*
X013317D01*
Y039942D01*
Y039958D01*
X013316Y039971D01*
X013315Y039983D01*
X013314Y039992D01*
X013312Y039999D01*
X013311Y040003D01*
X013310Y040007D01*
X013310Y040008D01*
X013307Y040015D01*
X013303Y040022D01*
X013298Y040029D01*
X013294Y040035D01*
X013289Y040039D01*
X013287Y040044D01*
X013284Y040046D01*
X013283Y040046D01*
X013279Y040051D01*
X013273Y040055D01*
X013267Y040060D01*
X013260Y040065D01*
X013245Y040076D01*
X013229Y040088D01*
X013214Y040098D01*
X013208Y040103D01*
X013201Y040107D01*
X013196Y040110D01*
X013193Y040113D01*
X013190Y040114D01*
X013189Y040115D01*
X013050Y040209D01*
Y040364D01*
X013174Y040285D01*
D02*
G37*
G36*
X015507Y038832D02*
X015521Y038832D01*
X015533Y038829D01*
X015545Y038827D01*
X015556Y038825D01*
X015566Y038821D01*
X015575Y038818D01*
X015584Y038814D01*
X015592Y038811D01*
X015598Y038807D01*
X015605Y038804D01*
X015609Y038801D01*
X015613Y038799D01*
X015616Y038797D01*
X015617Y038796D01*
X015618Y038795D01*
X015627Y038788D01*
X015634Y038781D01*
X015641Y038773D01*
X015648Y038765D01*
X015659Y038750D01*
X015668Y038735D01*
X015674Y038723D01*
X015676Y038717D01*
X015678Y038712D01*
X015679Y038709D01*
X015680Y038706D01*
X015681Y038704D01*
Y038703D01*
X015682Y038695D01*
X015684Y038686D01*
X015686Y038676D01*
X015686Y038664D01*
X015687Y038652D01*
X015688Y038639D01*
X015689Y038613D01*
X015690Y038600D01*
Y038589D01*
X015691Y038578D01*
Y038568D01*
Y038561D01*
Y038555D01*
Y038551D01*
Y038550D01*
Y038342D01*
X015050D01*
Y038471D01*
X015292D01*
Y038555D01*
Y038571D01*
X015292Y038587D01*
Y038600D01*
X015293Y038614D01*
X015294Y038625D01*
X015294Y038636D01*
X015295Y038647D01*
X015296Y038656D01*
X015297Y038664D01*
X015298Y038670D01*
X015298Y038677D01*
X015299Y038682D01*
X015300Y038685D01*
Y038688D01*
X015301Y038689D01*
Y038690D01*
X015304Y038702D01*
X015308Y038715D01*
X015313Y038726D01*
X015318Y038736D01*
X015323Y038745D01*
X015327Y038751D01*
X015330Y038755D01*
X015330Y038756D01*
Y038757D01*
X015340Y038768D01*
X015351Y038779D01*
X015361Y038788D01*
X015371Y038797D01*
X015380Y038803D01*
X015387Y038807D01*
X015390Y038809D01*
X015392Y038811D01*
X015393Y038811D01*
X015394D01*
X015409Y038818D01*
X015426Y038824D01*
X015443Y038827D01*
X015458Y038830D01*
X015466Y038831D01*
X015472Y038832D01*
X015478Y038832D01*
X015483Y038833D01*
X015493D01*
X015507Y038832D01*
D02*
G37*
G36*
X015174Y038194D02*
X015188Y038185D01*
X015200Y038177D01*
X015212Y038169D01*
X015222Y038162D01*
X015232Y038156D01*
X015240Y038150D01*
X015248Y038144D01*
X015255Y038140D01*
X015260Y038135D01*
X015265Y038131D01*
X015269Y038128D01*
X015273Y038125D01*
X015275Y038123D01*
X015277Y038122D01*
X015278Y038120D01*
X015289Y038110D01*
X015299Y038098D01*
X015308Y038086D01*
X015316Y038075D01*
X015323Y038065D01*
X015328Y038058D01*
X015330Y038055D01*
X015330Y038053D01*
X015332Y038051D01*
Y038051D01*
X015335Y038066D01*
X015338Y038081D01*
X015342Y038094D01*
X015346Y038106D01*
X015351Y038118D01*
X015356Y038128D01*
X015361Y038138D01*
X015366Y038146D01*
X015371Y038153D01*
X015376Y038160D01*
X015380Y038165D01*
X015384Y038170D01*
X015387Y038174D01*
X015389Y038176D01*
X015391Y038177D01*
X015391Y038178D01*
X015400Y038185D01*
X015410Y038192D01*
X015420Y038197D01*
X015430Y038202D01*
X015440Y038206D01*
X015450Y038210D01*
X015469Y038215D01*
X015477Y038217D01*
X015486Y038218D01*
X015493Y038219D01*
X015499Y038219D01*
X015504Y038220D01*
X015511D01*
X015532Y038219D01*
X015550Y038216D01*
X015568Y038211D01*
X015582Y038206D01*
X015589Y038203D01*
X015595Y038201D01*
X015600Y038199D01*
X015604Y038196D01*
X015607Y038194D01*
X015609Y038193D01*
X015611Y038192D01*
X015611D01*
X015627Y038181D01*
X015640Y038168D01*
X015650Y038156D01*
X015659Y038144D01*
X015666Y038133D01*
X015668Y038129D01*
X015670Y038125D01*
X015671Y038122D01*
X015673Y038119D01*
X015673Y038118D01*
Y038117D01*
X015676Y038108D01*
X015679Y038098D01*
X015682Y038086D01*
X015683Y038074D01*
X015686Y038050D01*
X015688Y038025D01*
X015689Y038014D01*
X015690Y038003D01*
Y037993D01*
X015691Y037985D01*
Y037978D01*
Y037973D01*
Y037970D01*
Y037968D01*
Y037696D01*
X015050D01*
Y037825D01*
X015317D01*
Y037851D01*
Y037867D01*
X015316Y037880D01*
X015315Y037891D01*
X015314Y037900D01*
X015312Y037907D01*
X015311Y037912D01*
X015310Y037915D01*
X015310Y037916D01*
X015307Y037924D01*
X015303Y037931D01*
X015298Y037938D01*
X015294Y037943D01*
X015289Y037948D01*
X015287Y037952D01*
X015284Y037954D01*
X015283Y037955D01*
X015279Y037959D01*
X015273Y037963D01*
X015267Y037968D01*
X015260Y037974D01*
X015245Y037985D01*
X015229Y037997D01*
X015214Y038007D01*
X015208Y038012D01*
X015201Y038015D01*
X015196Y038019D01*
X015193Y038022D01*
X015190Y038023D01*
X015189Y038024D01*
X015050Y038117D01*
Y038272D01*
X015174Y038194D01*
D02*
G37*
G36*
X015691Y039142D02*
X015582D01*
Y039333D01*
X015050D01*
Y039462D01*
X015582D01*
Y039650D01*
X015691D01*
Y039142D01*
D02*
G37*
G36*
Y040701D02*
Y040564D01*
X015050Y040315D01*
Y040451D01*
X015196Y040505D01*
Y040761D01*
X015050Y040817D01*
Y040958D01*
X015691Y040701D01*
D02*
G37*
G36*
X015174Y040231D02*
X015188Y040223D01*
X015200Y040215D01*
X015212Y040207D01*
X015222Y040200D01*
X015232Y040194D01*
X015240Y040188D01*
X015248Y040182D01*
X015255Y040177D01*
X015260Y040173D01*
X015265Y040169D01*
X015269Y040165D01*
X015273Y040163D01*
X015275Y040161D01*
X015277Y040159D01*
X015278Y040158D01*
X015289Y040147D01*
X015299Y040136D01*
X015308Y040124D01*
X015316Y040113D01*
X015323Y040103D01*
X015328Y040095D01*
X015330Y040093D01*
X015330Y040090D01*
X015332Y040089D01*
Y040088D01*
X015335Y040104D01*
X015338Y040118D01*
X015342Y040131D01*
X015346Y040144D01*
X015351Y040156D01*
X015356Y040166D01*
X015361Y040175D01*
X015366Y040183D01*
X015371Y040191D01*
X015376Y040197D01*
X015380Y040203D01*
X015384Y040208D01*
X015387Y040211D01*
X015389Y040213D01*
X015391Y040215D01*
X015391Y040215D01*
X015400Y040223D01*
X015410Y040229D01*
X015420Y040235D01*
X015430Y040240D01*
X015440Y040244D01*
X015450Y040247D01*
X015469Y040252D01*
X015477Y040254D01*
X015486Y040256D01*
X015493Y040256D01*
X015499Y040257D01*
X015504Y040258D01*
X015511D01*
X015532Y040256D01*
X015550Y040254D01*
X015568Y040249D01*
X015582Y040244D01*
X015589Y040241D01*
X015595Y040238D01*
X015600Y040236D01*
X015604Y040233D01*
X015607Y040232D01*
X015609Y040231D01*
X015611Y040229D01*
X015611D01*
X015627Y040218D01*
X015640Y040206D01*
X015650Y040194D01*
X015659Y040182D01*
X015666Y040171D01*
X015668Y040167D01*
X015670Y040163D01*
X015671Y040159D01*
X015673Y040157D01*
X015673Y040156D01*
Y040155D01*
X015676Y040146D01*
X015679Y040136D01*
X015682Y040124D01*
X015683Y040112D01*
X015686Y040088D01*
X015688Y040063D01*
X015689Y040052D01*
X015690Y040040D01*
Y040031D01*
X015691Y040022D01*
Y040015D01*
Y040011D01*
Y040007D01*
Y040006D01*
Y039734D01*
X015050D01*
Y039863D01*
X015317D01*
Y039888D01*
Y039904D01*
X015316Y039918D01*
X015315Y039929D01*
X015314Y039938D01*
X015312Y039945D01*
X015311Y039950D01*
X015310Y039953D01*
X015310Y039954D01*
X015307Y039961D01*
X015303Y039968D01*
X015298Y039975D01*
X015294Y039981D01*
X015289Y039986D01*
X015287Y039990D01*
X015284Y039992D01*
X015283Y039993D01*
X015279Y039997D01*
X015273Y040001D01*
X015267Y040006D01*
X015260Y040011D01*
X015245Y040022D01*
X015229Y040034D01*
X015214Y040045D01*
X015208Y040049D01*
X015201Y040053D01*
X015196Y040056D01*
X015193Y040059D01*
X015190Y040061D01*
X015189Y040061D01*
X015050Y040155D01*
Y040310D01*
X015174Y040231D01*
D02*
G37*
G36*
X015396Y037586D02*
X015411Y037584D01*
X015425Y037583D01*
X015439Y037582D01*
X015451Y037580D01*
X015463Y037577D01*
X015473Y037576D01*
X015482Y037574D01*
X015491Y037572D01*
X015498Y037570D01*
X015504Y037568D01*
X015509Y037567D01*
X015512Y037566D01*
X015514Y037565D01*
X015515D01*
X015537Y037557D01*
X015557Y037547D01*
X015575Y037536D01*
X015583Y037532D01*
X015590Y037527D01*
X015597Y037522D01*
X015602Y037518D01*
X015607Y037514D01*
X015611Y037511D01*
X015615Y037508D01*
X015617Y037506D01*
X015618Y037505D01*
X015619Y037504D01*
X015634Y037488D01*
X015646Y037472D01*
X015657Y037456D01*
X015664Y037441D01*
X015670Y037428D01*
X015673Y037422D01*
X015675Y037417D01*
X015676Y037413D01*
X015677Y037410D01*
X015678Y037408D01*
Y037407D01*
X015680Y037399D01*
X015682Y037390D01*
X015685Y037371D01*
X015688Y037350D01*
X015689Y037331D01*
X015690Y037322D01*
Y037314D01*
Y037306D01*
X015691Y037299D01*
Y037294D01*
Y037289D01*
Y037287D01*
Y037286D01*
Y037050D01*
X015050D01*
Y037293D01*
Y037306D01*
X015051Y037319D01*
X015051Y037330D01*
X015052Y037341D01*
X015053Y037351D01*
X015054Y037361D01*
X015056Y037369D01*
X015057Y037377D01*
X015058Y037384D01*
X015059Y037390D01*
X015060Y037396D01*
X015061Y037400D01*
X015062Y037403D01*
X015062Y037405D01*
X015063Y037407D01*
Y037407D01*
X015071Y037428D01*
X015079Y037446D01*
X015087Y037461D01*
X015096Y037474D01*
X015099Y037480D01*
X015103Y037484D01*
X015106Y037488D01*
X015109Y037491D01*
X015111Y037494D01*
X015113Y037496D01*
X015114Y037497D01*
X015115Y037498D01*
X015132Y037514D01*
X015151Y037527D01*
X015169Y037539D01*
X015187Y037549D01*
X015196Y037553D01*
X015203Y037557D01*
X015210Y037559D01*
X015216Y037562D01*
X015221Y037564D01*
X015225Y037565D01*
X015227Y037566D01*
X015228D01*
X015250Y037573D01*
X015273Y037578D01*
X015296Y037582D01*
X015317Y037584D01*
X015327Y037585D01*
X015336Y037586D01*
X015344D01*
X015351Y037586D01*
X015380D01*
X015396Y037586D01*
D02*
G37*
G36*
X014158Y040363D02*
X014332D01*
Y040684D01*
X014441D01*
Y040363D01*
X014582D01*
Y040708D01*
X014691D01*
Y040234D01*
X014050D01*
Y040721D01*
X014158D01*
Y040363D01*
D02*
G37*
G36*
X014174Y040085D02*
X014188Y040077D01*
X014200Y040068D01*
X014212Y040061D01*
X014222Y040054D01*
X014232Y040048D01*
X014240Y040041D01*
X014248Y040036D01*
X014255Y040031D01*
X014260Y040027D01*
X014265Y040023D01*
X014269Y040019D01*
X014273Y040016D01*
X014275Y040014D01*
X014277Y040013D01*
X014278Y040012D01*
X014289Y040001D01*
X014299Y039989D01*
X014308Y039978D01*
X014316Y039966D01*
X014323Y039957D01*
X014328Y039949D01*
X014330Y039946D01*
X014330Y039944D01*
X014332Y039943D01*
Y039942D01*
X014335Y039957D01*
X014338Y039972D01*
X014342Y039985D01*
X014346Y039998D01*
X014351Y040009D01*
X014356Y040020D01*
X014361Y040029D01*
X014366Y040037D01*
X014371Y040045D01*
X014376Y040051D01*
X014380Y040057D01*
X014384Y040062D01*
X014387Y040065D01*
X014389Y040067D01*
X014391Y040068D01*
X014391Y040069D01*
X014400Y040077D01*
X014410Y040083D01*
X014420Y040089D01*
X014430Y040093D01*
X014440Y040098D01*
X014450Y040101D01*
X014469Y040106D01*
X014477Y040108D01*
X014486Y040109D01*
X014493Y040110D01*
X014499Y040111D01*
X014504Y040111D01*
X014511D01*
X014532Y040110D01*
X014550Y040107D01*
X014568Y040102D01*
X014582Y040098D01*
X014589Y040095D01*
X014595Y040092D01*
X014600Y040090D01*
X014604Y040087D01*
X014607Y040086D01*
X014609Y040084D01*
X014611Y040083D01*
X014611D01*
X014627Y040072D01*
X014640Y040059D01*
X014650Y040048D01*
X014659Y040036D01*
X014666Y040025D01*
X014668Y040021D01*
X014670Y040016D01*
X014671Y040013D01*
X014673Y040011D01*
X014673Y040009D01*
Y040009D01*
X014676Y040000D01*
X014679Y039989D01*
X014682Y039978D01*
X014683Y039966D01*
X014686Y039941D01*
X014688Y039916D01*
X014689Y039905D01*
X014690Y039894D01*
Y039885D01*
X014691Y039876D01*
Y039869D01*
Y039864D01*
Y039861D01*
Y039860D01*
Y039588D01*
X014050D01*
Y039717D01*
X014317D01*
Y039742D01*
Y039758D01*
X014316Y039771D01*
X014315Y039783D01*
X014314Y039792D01*
X014312Y039799D01*
X014311Y039803D01*
X014310Y039807D01*
X014310Y039808D01*
X014307Y039815D01*
X014303Y039822D01*
X014298Y039829D01*
X014294Y039835D01*
X014289Y039839D01*
X014287Y039844D01*
X014284Y039846D01*
X014283Y039846D01*
X014279Y039851D01*
X014273Y039855D01*
X014267Y039860D01*
X014260Y039865D01*
X014245Y039876D01*
X014229Y039888D01*
X014214Y039898D01*
X014208Y039903D01*
X014201Y039907D01*
X014196Y039910D01*
X014193Y039913D01*
X014190Y039914D01*
X014189Y039915D01*
X014050Y040009D01*
Y040164D01*
X014174Y040085D01*
D02*
G37*
G36*
X014285Y041240D02*
X014273Y041236D01*
X014260Y041233D01*
X014249Y041229D01*
X014239Y041225D01*
X014230Y041220D01*
X014221Y041216D01*
X014214Y041211D01*
X014207Y041207D01*
X014201Y041202D01*
X014196Y041198D01*
X014192Y041195D01*
X014188Y041192D01*
X014185Y041189D01*
X014183Y041187D01*
X014183Y041186D01*
X014182Y041186D01*
X014176Y041179D01*
X014171Y041171D01*
X014163Y041157D01*
X014158Y041142D01*
X014153Y041128D01*
X014151Y041116D01*
X014150Y041111D01*
Y041106D01*
X014149Y041103D01*
Y041100D01*
Y041098D01*
Y041098D01*
X014150Y041085D01*
X014151Y041073D01*
X014154Y041061D01*
X014158Y041050D01*
X014161Y041040D01*
X014165Y041031D01*
X014170Y041022D01*
X014175Y041014D01*
X014180Y041007D01*
X014185Y041001D01*
X014189Y040996D01*
X014192Y040991D01*
X014196Y040989D01*
X014199Y040986D01*
X014200Y040985D01*
X014201Y040984D01*
X014211Y040976D01*
X014223Y040970D01*
X014235Y040964D01*
X014249Y040959D01*
X014264Y040955D01*
X014278Y040951D01*
X014306Y040946D01*
X014320Y040944D01*
X014332Y040943D01*
X014344Y040942D01*
X014354Y040942D01*
X014362Y040941D01*
X014373D01*
X014394Y040942D01*
X014414Y040943D01*
X014431Y040945D01*
X014448Y040948D01*
X014463Y040951D01*
X014476Y040955D01*
X014489Y040959D01*
X014499Y040963D01*
X014509Y040967D01*
X014517Y040971D01*
X014524Y040974D01*
X014530Y040978D01*
X014534Y040980D01*
X014537Y040982D01*
X014539Y040984D01*
X014539Y040985D01*
X014548Y040993D01*
X014556Y041003D01*
X014563Y041012D01*
X014569Y041021D01*
X014574Y041031D01*
X014578Y041041D01*
X014582Y041050D01*
X014584Y041059D01*
X014586Y041068D01*
X014588Y041075D01*
X014589Y041082D01*
X014590Y041089D01*
X014591Y041094D01*
Y041097D01*
Y041100D01*
Y041100D01*
X014589Y041119D01*
X014586Y041136D01*
X014582Y041150D01*
X014576Y041164D01*
X014570Y041174D01*
X014568Y041178D01*
X014566Y041182D01*
X014564Y041184D01*
X014563Y041186D01*
X014562Y041187D01*
X014561Y041188D01*
X014550Y041200D01*
X014537Y041211D01*
X014524Y041219D01*
X014512Y041225D01*
X014500Y041230D01*
X014496Y041232D01*
X014491Y041234D01*
X014488Y041234D01*
X014485Y041235D01*
X014484Y041236D01*
X014483D01*
X014514Y041363D01*
X014527Y041359D01*
X014541Y041354D01*
X014552Y041349D01*
X014564Y041344D01*
X014575Y041338D01*
X014584Y041333D01*
X014593Y041327D01*
X014601Y041323D01*
X014608Y041317D01*
X014614Y041313D01*
X014619Y041309D01*
X014623Y041304D01*
X014627Y041302D01*
X014629Y041300D01*
X014630Y041298D01*
X014631Y041298D01*
X014643Y041283D01*
X014654Y041268D01*
X014663Y041252D01*
X014671Y041236D01*
X014678Y041220D01*
X014684Y041205D01*
X014688Y041189D01*
X014692Y041175D01*
X014695Y041161D01*
X014698Y041148D01*
X014699Y041136D01*
X014700Y041126D01*
X014700Y041118D01*
X014701Y041112D01*
Y041108D01*
Y041107D01*
X014700Y041082D01*
X014698Y041059D01*
X014693Y041037D01*
X014687Y041016D01*
X014680Y040996D01*
X014673Y040979D01*
X014665Y040962D01*
X014657Y040948D01*
X014648Y040935D01*
X014641Y040923D01*
X014633Y040913D01*
X014626Y040905D01*
X014620Y040898D01*
X014616Y040894D01*
X014613Y040890D01*
X014612Y040889D01*
X014595Y040875D01*
X014576Y040862D01*
X014557Y040851D01*
X014536Y040842D01*
X014516Y040834D01*
X014495Y040828D01*
X014475Y040822D01*
X014455Y040818D01*
X014437Y040815D01*
X014419Y040812D01*
X014403Y040810D01*
X014390Y040809D01*
X014379Y040808D01*
X014375Y040808D01*
X014364D01*
X014336Y040808D01*
X014310Y040811D01*
X014286Y040815D01*
X014263Y040820D01*
X014242Y040826D01*
X014222Y040833D01*
X014204Y040841D01*
X014188Y040849D01*
X014174Y040856D01*
X014161Y040864D01*
X014151Y040871D01*
X014142Y040877D01*
X014135Y040882D01*
X014130Y040886D01*
X014126Y040889D01*
X014126Y040889D01*
X014110Y040905D01*
X014097Y040922D01*
X014085Y040939D01*
X014076Y040957D01*
X014067Y040974D01*
X014060Y040991D01*
X014054Y041009D01*
X014050Y041025D01*
X014046Y041040D01*
X014044Y041055D01*
X014042Y041067D01*
X014040Y041078D01*
X014040Y041087D01*
X014039Y041094D01*
Y041098D01*
Y041098D01*
Y041099D01*
X014040Y041118D01*
X014041Y041136D01*
X014044Y041153D01*
X014047Y041169D01*
X014051Y041184D01*
X014055Y041198D01*
X014060Y041211D01*
X014065Y041223D01*
X014069Y041234D01*
X014074Y041243D01*
X014078Y041250D01*
X014082Y041257D01*
X014085Y041262D01*
X014087Y041266D01*
X014089Y041268D01*
X014090Y041269D01*
X014100Y041282D01*
X014111Y041293D01*
X014123Y041303D01*
X014136Y041313D01*
X014149Y041321D01*
X014162Y041329D01*
X014175Y041336D01*
X014187Y041343D01*
X014199Y041348D01*
X014210Y041353D01*
X014221Y041357D01*
X014229Y041360D01*
X014237Y041363D01*
X014242Y041364D01*
X014245Y041366D01*
X014246D01*
X014285Y041240D01*
D02*
G37*
G36*
X014423Y042325D02*
X014589D01*
Y042214D01*
X014423D01*
Y042046D01*
X014308D01*
Y042214D01*
X014142D01*
Y042325D01*
X014308D01*
Y042493D01*
X014423D01*
Y042325D01*
D02*
G37*
G36*
X014691Y041870D02*
X014217Y041713D01*
X014691Y041551D01*
Y041411D01*
X014050Y041640D01*
Y041778D01*
X014691Y042007D01*
Y041870D01*
D02*
G37*
G36*
X020174Y040030D02*
X020188Y040021D01*
X020200Y040013D01*
X020212Y040005D01*
X020222Y039998D01*
X020232Y039992D01*
X020240Y039986D01*
X020248Y039980D01*
X020255Y039976D01*
X020260Y039971D01*
X020265Y039967D01*
X020269Y039964D01*
X020273Y039961D01*
X020275Y039959D01*
X020277Y039957D01*
X020278Y039956D01*
X020289Y039946D01*
X020299Y039934D01*
X020308Y039922D01*
X020316Y039911D01*
X020323Y039901D01*
X020328Y039894D01*
X020330Y039891D01*
X020330Y039889D01*
X020332Y039887D01*
Y039887D01*
X020335Y039902D01*
X020338Y039917D01*
X020342Y039930D01*
X020346Y039942D01*
X020351Y039954D01*
X020356Y039964D01*
X020361Y039973D01*
X020366Y039982D01*
X020371Y039989D01*
X020376Y039996D01*
X020380Y040001D01*
X020384Y040006D01*
X020387Y040009D01*
X020389Y040012D01*
X020391Y040013D01*
X020391Y040014D01*
X020400Y040021D01*
X020410Y040028D01*
X020420Y040033D01*
X020430Y040038D01*
X020440Y040042D01*
X020450Y040046D01*
X020469Y040050D01*
X020477Y040053D01*
X020486Y040054D01*
X020493Y040055D01*
X020499Y040055D01*
X020504Y040056D01*
X020511D01*
X020532Y040055D01*
X020550Y040052D01*
X020568Y040047D01*
X020582Y040042D01*
X020589Y040039D01*
X020595Y040037D01*
X020600Y040034D01*
X020604Y040032D01*
X020607Y040030D01*
X020609Y040029D01*
X020611Y040028D01*
X020611D01*
X020627Y040016D01*
X020640Y040004D01*
X020650Y039992D01*
X020659Y039980D01*
X020666Y039969D01*
X020668Y039965D01*
X020670Y039961D01*
X020671Y039957D01*
X020673Y039955D01*
X020673Y039954D01*
Y039953D01*
X020676Y039944D01*
X020679Y039934D01*
X020682Y039922D01*
X020683Y039910D01*
X020686Y039886D01*
X020688Y039861D01*
X020689Y039850D01*
X020690Y039839D01*
Y039829D01*
X020691Y039821D01*
Y039814D01*
Y039809D01*
Y039805D01*
Y039804D01*
Y039532D01*
X020050D01*
Y039661D01*
X020317D01*
Y039687D01*
Y039703D01*
X020316Y039716D01*
X020315Y039727D01*
X020314Y039736D01*
X020312Y039743D01*
X020311Y039748D01*
X020310Y039751D01*
X020310Y039752D01*
X020307Y039760D01*
X020303Y039767D01*
X020298Y039774D01*
X020294Y039779D01*
X020289Y039784D01*
X020287Y039788D01*
X020284Y039790D01*
X020283Y039791D01*
X020279Y039795D01*
X020273Y039799D01*
X020267Y039804D01*
X020260Y039810D01*
X020245Y039821D01*
X020229Y039833D01*
X020214Y039843D01*
X020208Y039848D01*
X020201Y039851D01*
X020196Y039855D01*
X020193Y039858D01*
X020190Y039859D01*
X020189Y039860D01*
X020050Y039953D01*
Y040108D01*
X020174Y040030D01*
D02*
G37*
G36*
X021691Y039983D02*
X021260D01*
X021691Y039719D01*
Y039594D01*
X021050D01*
Y039714D01*
X021471D01*
X021050Y039973D01*
Y040102D01*
X021691D01*
Y039983D01*
D02*
G37*
G36*
X022691Y039783D02*
X022260D01*
X022691Y039519D01*
Y039394D01*
X022050D01*
Y039514D01*
X022471D01*
X022050Y039773D01*
Y039902D01*
X022691D01*
Y039783D01*
D02*
G37*
G36*
X022158Y040420D02*
X022685D01*
Y040291D01*
X022050D01*
Y040741D01*
X022158D01*
Y040420D01*
D02*
G37*
G36*
X020691Y038474D02*
X020439D01*
Y038220D01*
X020691D01*
Y038091D01*
X020050D01*
Y038220D01*
X020330D01*
Y038474D01*
X020050D01*
Y038603D01*
X020691D01*
Y038474D01*
D02*
G37*
G36*
Y037500D02*
X020582D01*
Y037690D01*
X020050D01*
Y037819D01*
X020582D01*
Y038008D01*
X020691D01*
Y037500D01*
D02*
G37*
G36*
Y038941D02*
X020582D01*
Y039131D01*
X020050D01*
Y039260D01*
X020582D01*
Y039449D01*
X020691D01*
Y038941D01*
D02*
G37*
G36*
X022158Y040963D02*
X022332D01*
Y041284D01*
X022441D01*
Y040963D01*
X022582D01*
Y041308D01*
X022691D01*
Y040834D01*
X022050D01*
Y041321D01*
X022158D01*
Y040963D01*
D02*
G37*
G36*
X020691Y040499D02*
Y040362D01*
X020050Y040113D01*
Y040250D01*
X020196Y040303D01*
Y040559D01*
X020050Y040615D01*
Y040756D01*
X020691Y040499D01*
D02*
G37*
G36*
X021507Y038840D02*
X021521Y038839D01*
X021533Y038837D01*
X021545Y038835D01*
X021556Y038832D01*
X021566Y038829D01*
X021575Y038825D01*
X021584Y038822D01*
X021592Y038818D01*
X021598Y038815D01*
X021605Y038812D01*
X021609Y038809D01*
X021613Y038807D01*
X021616Y038805D01*
X021617Y038804D01*
X021618Y038803D01*
X021627Y038796D01*
X021634Y038789D01*
X021641Y038781D01*
X021648Y038773D01*
X021659Y038757D01*
X021668Y038743D01*
X021674Y038730D01*
X021676Y038725D01*
X021678Y038720D01*
X021679Y038716D01*
X021680Y038714D01*
X021681Y038712D01*
Y038711D01*
X021682Y038703D01*
X021684Y038694D01*
X021686Y038684D01*
X021686Y038672D01*
X021687Y038660D01*
X021688Y038647D01*
X021689Y038621D01*
X021690Y038608D01*
Y038597D01*
X021691Y038586D01*
Y038576D01*
Y038569D01*
Y038562D01*
Y038559D01*
Y038558D01*
Y038350D01*
X021050D01*
Y038479D01*
X021292D01*
Y038563D01*
Y038579D01*
X021292Y038594D01*
Y038608D01*
X021293Y038621D01*
X021294Y038633D01*
X021294Y038644D01*
X021295Y038655D01*
X021296Y038664D01*
X021297Y038671D01*
X021298Y038678D01*
X021298Y038685D01*
X021299Y038689D01*
X021300Y038693D01*
Y038696D01*
X021301Y038697D01*
Y038698D01*
X021304Y038710D01*
X021308Y038723D01*
X021313Y038734D01*
X021318Y038744D01*
X021323Y038753D01*
X021327Y038759D01*
X021330Y038763D01*
X021330Y038764D01*
Y038764D01*
X021340Y038776D01*
X021351Y038787D01*
X021361Y038796D01*
X021371Y038805D01*
X021380Y038811D01*
X021387Y038815D01*
X021390Y038817D01*
X021392Y038818D01*
X021393Y038819D01*
X021394D01*
X021409Y038826D01*
X021426Y038832D01*
X021443Y038835D01*
X021458Y038838D01*
X021466Y038839D01*
X021472Y038839D01*
X021478Y038840D01*
X021483Y038841D01*
X021493D01*
X021507Y038840D01*
D02*
G37*
G36*
X020423Y042319D02*
X020589D01*
Y042207D01*
X020423D01*
Y042039D01*
X020308D01*
Y042207D01*
X020142D01*
Y042319D01*
X020308D01*
Y042487D01*
X020423D01*
Y042319D01*
D02*
G37*
G36*
X022507Y038640D02*
X022521Y038639D01*
X022533Y038637D01*
X022545Y038635D01*
X022556Y038632D01*
X022566Y038629D01*
X022575Y038625D01*
X022584Y038622D01*
X022592Y038618D01*
X022598Y038615D01*
X022605Y038612D01*
X022609Y038609D01*
X022613Y038607D01*
X022616Y038605D01*
X022617Y038604D01*
X022618Y038603D01*
X022627Y038596D01*
X022634Y038589D01*
X022641Y038581D01*
X022648Y038573D01*
X022659Y038557D01*
X022668Y038543D01*
X022674Y038530D01*
X022676Y038525D01*
X022678Y038520D01*
X022679Y038516D01*
X022680Y038514D01*
X022681Y038512D01*
Y038511D01*
X022682Y038503D01*
X022684Y038494D01*
X022686Y038484D01*
X022686Y038472D01*
X022687Y038460D01*
X022688Y038447D01*
X022689Y038421D01*
X022690Y038408D01*
Y038397D01*
X022691Y038386D01*
Y038376D01*
Y038369D01*
Y038362D01*
Y038359D01*
Y038358D01*
Y038150D01*
X022050D01*
Y038279D01*
X022292D01*
Y038363D01*
Y038379D01*
X022292Y038394D01*
Y038408D01*
X022293Y038421D01*
X022294Y038433D01*
X022294Y038444D01*
X022295Y038455D01*
X022296Y038464D01*
X022297Y038471D01*
X022298Y038478D01*
X022298Y038485D01*
X022299Y038489D01*
X022300Y038493D01*
Y038496D01*
X022301Y038497D01*
Y038498D01*
X022304Y038510D01*
X022308Y038523D01*
X022313Y038534D01*
X022318Y038544D01*
X022323Y038553D01*
X022327Y038559D01*
X022330Y038563D01*
X022330Y038564D01*
Y038564D01*
X022340Y038576D01*
X022350Y038587D01*
X022361Y038596D01*
X022371Y038605D01*
X022380Y038611D01*
X022387Y038615D01*
X022390Y038617D01*
X022392Y038618D01*
X022393Y038619D01*
X022394D01*
X022409Y038626D01*
X022426Y038632D01*
X022443Y038635D01*
X022458Y038638D01*
X022466Y038639D01*
X022472Y038639D01*
X022478Y038640D01*
X022483Y038641D01*
X022493D01*
X022507Y038640D01*
D02*
G37*
G36*
X021691Y039268D02*
Y039131D01*
X021050Y038882D01*
Y039018D01*
X021196Y039072D01*
Y039328D01*
X021050Y039384D01*
Y039525D01*
X021691Y039268D01*
D02*
G37*
G36*
X022691Y039068D02*
Y038931D01*
X022050Y038682D01*
Y038818D01*
X022196Y038872D01*
Y039128D01*
X022050Y039184D01*
Y039325D01*
X022691Y039068D01*
D02*
G37*
G36*
X020691Y041214D02*
X020260D01*
X020691Y040951D01*
Y040826D01*
X020050D01*
Y040945D01*
X020471D01*
X020050Y041205D01*
Y041334D01*
X020691D01*
Y041214D01*
D02*
G37*
G36*
X021344Y042261D02*
X021221D01*
Y042503D01*
X021344D01*
Y042261D01*
D02*
G37*
G36*
X020258Y041957D02*
X020278Y041954D01*
X020295Y041950D01*
X020303Y041948D01*
X020310Y041946D01*
X020316Y041943D01*
X020321Y041941D01*
X020326Y041939D01*
X020330Y041937D01*
X020334Y041935D01*
X020336Y041934D01*
X020337Y041933D01*
X020338D01*
X020353Y041922D01*
X020366Y041910D01*
X020377Y041899D01*
X020387Y041887D01*
X020394Y041877D01*
X020399Y041869D01*
X020400Y041865D01*
X020402Y041863D01*
X020403Y041862D01*
Y041861D01*
X020407Y041852D01*
X020412Y041842D01*
X020416Y041831D01*
X020421Y041820D01*
X020428Y041797D01*
X020435Y041774D01*
X020438Y041764D01*
X020441Y041754D01*
X020443Y041745D01*
X020446Y041737D01*
X020447Y041731D01*
X020448Y041726D01*
X020449Y041723D01*
Y041722D01*
X020453Y041705D01*
X020457Y041690D01*
X020462Y041676D01*
X020466Y041663D01*
X020469Y041652D01*
X020473Y041642D01*
X020476Y041634D01*
X020479Y041627D01*
X020482Y041621D01*
X020484Y041615D01*
X020487Y041611D01*
X020489Y041608D01*
X020490Y041606D01*
X020491Y041604D01*
X020492Y041603D01*
X020498Y041597D01*
X020505Y041592D01*
X020512Y041589D01*
X020518Y041586D01*
X020523Y041585D01*
X020527Y041584D01*
X020531D01*
X020540Y041585D01*
X020548Y041588D01*
X020555Y041590D01*
X020560Y041595D01*
X020564Y041598D01*
X020568Y041602D01*
X020570Y041604D01*
X020570Y041604D01*
X020578Y041617D01*
X020584Y041631D01*
X020589Y041647D01*
X020591Y041661D01*
X020593Y041674D01*
X020593Y041679D01*
X020594Y041684D01*
Y041688D01*
Y041690D01*
Y041692D01*
Y041693D01*
X020593Y041713D01*
X020591Y041729D01*
X020587Y041743D01*
X020583Y041755D01*
X020579Y041764D01*
X020575Y041770D01*
X020573Y041774D01*
X020572Y041775D01*
X020563Y041785D01*
X020552Y041792D01*
X020540Y041799D01*
X020529Y041803D01*
X020518Y041807D01*
X020514Y041808D01*
X020509Y041810D01*
X020507Y041810D01*
X020504D01*
X020502Y041811D01*
X020502D01*
X020507Y041940D01*
X020523Y041939D01*
X020538Y041937D01*
X020552Y041933D01*
X020566Y041928D01*
X020578Y041924D01*
X020590Y041918D01*
X020600Y041912D01*
X020610Y041907D01*
X020618Y041901D01*
X020626Y041895D01*
X020633Y041890D01*
X020638Y041885D01*
X020642Y041881D01*
X020645Y041878D01*
X020647Y041876D01*
X020648Y041876D01*
X020657Y041864D01*
X020665Y041851D01*
X020673Y041836D01*
X020679Y041822D01*
X020684Y041807D01*
X020688Y041792D01*
X020691Y041776D01*
X020694Y041763D01*
X020697Y041749D01*
X020698Y041735D01*
X020700Y041724D01*
X020700Y041714D01*
X020701Y041706D01*
Y041700D01*
Y041696D01*
Y041695D01*
Y041695D01*
X020700Y041667D01*
X020699Y041656D01*
X020698Y041643D01*
X020695Y041632D01*
X020694Y041622D01*
X020692Y041613D01*
X020690Y041604D01*
X020687Y041595D01*
X020685Y041588D01*
X020684Y041583D01*
X020682Y041577D01*
X020680Y041574D01*
X020679Y041570D01*
X020678Y041569D01*
Y041568D01*
X020669Y041550D01*
X020659Y041534D01*
X020648Y041520D01*
X020638Y041509D01*
X020628Y041500D01*
X020620Y041493D01*
X020618Y041491D01*
X020616Y041490D01*
X020614Y041488D01*
X020614D01*
X020598Y041479D01*
X020582Y041472D01*
X020566Y041468D01*
X020552Y041464D01*
X020540Y041462D01*
X020534Y041461D01*
X020530D01*
X020527Y041461D01*
X020522D01*
X020508Y041461D01*
X020495Y041463D01*
X020482Y041466D01*
X020470Y041470D01*
X020459Y041475D01*
X020448Y041479D01*
X020438Y041485D01*
X020429Y041491D01*
X020421Y041495D01*
X020414Y041501D01*
X020407Y041506D01*
X020403Y041511D01*
X020398Y041514D01*
X020396Y041517D01*
X020394Y041519D01*
X020393Y041520D01*
X020386Y041528D01*
X020380Y041538D01*
X020373Y041549D01*
X020367Y041560D01*
X020357Y041584D01*
X020347Y041608D01*
X020344Y041620D01*
X020340Y041630D01*
X020337Y041640D01*
X020335Y041649D01*
X020332Y041656D01*
X020331Y041661D01*
X020330Y041664D01*
Y041665D01*
X020326Y041680D01*
X020323Y041693D01*
X020320Y041705D01*
X020317Y041715D01*
X020314Y041725D01*
X020312Y041733D01*
X020310Y041741D01*
X020308Y041747D01*
X020307Y041753D01*
X020305Y041757D01*
X020304Y041761D01*
X020303Y041764D01*
X020303Y041766D01*
Y041767D01*
X020302Y041769D01*
X020297Y041781D01*
X020293Y041790D01*
X020288Y041798D01*
X020284Y041805D01*
X020280Y041809D01*
X020277Y041813D01*
X020275Y041815D01*
X020274Y041815D01*
X020268Y041820D01*
X020262Y041824D01*
X020255Y041826D01*
X020248Y041828D01*
X020244Y041828D01*
X020239Y041829D01*
X020229D01*
X020223Y041828D01*
X020211Y041824D01*
X020200Y041819D01*
X020191Y041813D01*
X020184Y041808D01*
X020178Y041802D01*
X020175Y041799D01*
X020174Y041798D01*
Y041797D01*
X020169Y041791D01*
X020165Y041784D01*
X020158Y041769D01*
X020153Y041753D01*
X020151Y041738D01*
X020149Y041724D01*
X020148Y041718D01*
Y041713D01*
X020147Y041708D01*
Y041705D01*
Y041703D01*
Y041702D01*
X020149Y041681D01*
X020152Y041663D01*
X020156Y041647D01*
X020162Y041633D01*
X020165Y041627D01*
X020167Y041622D01*
X020169Y041617D01*
X020171Y041614D01*
X020174Y041611D01*
X020175Y041609D01*
X020176Y041608D01*
Y041608D01*
X020183Y041602D01*
X020189Y041596D01*
X020203Y041586D01*
X020219Y041578D01*
X020235Y041572D01*
X020248Y041568D01*
X020254Y041565D01*
X020260Y041564D01*
X020264Y041563D01*
X020267Y041563D01*
X020269Y041562D01*
X020270D01*
X020258Y041436D01*
X020238Y041439D01*
X020219Y041443D01*
X020203Y041448D01*
X020187Y041454D01*
X020172Y041460D01*
X020158Y041466D01*
X020146Y041473D01*
X020135Y041480D01*
X020126Y041486D01*
X020117Y041493D01*
X020110Y041499D01*
X020104Y041504D01*
X020100Y041508D01*
X020096Y041511D01*
X020094Y041513D01*
X020094Y041514D01*
X020084Y041527D01*
X020076Y041541D01*
X020068Y041556D01*
X020062Y041571D01*
X020056Y041586D01*
X020052Y041602D01*
X020048Y041617D01*
X020045Y041632D01*
X020043Y041646D01*
X020041Y041659D01*
X020040Y041671D01*
X020039Y041681D01*
Y041689D01*
X020038Y041695D01*
Y041699D01*
Y041701D01*
Y041716D01*
X020039Y041731D01*
X020040Y041745D01*
X020042Y041758D01*
X020044Y041770D01*
X020045Y041782D01*
X020047Y041792D01*
X020050Y041802D01*
X020052Y041810D01*
X020054Y041818D01*
X020056Y041825D01*
X020058Y041831D01*
X020059Y041835D01*
X020060Y041838D01*
X020061Y041840D01*
Y041840D01*
X020071Y041860D01*
X020082Y041878D01*
X020094Y041892D01*
X020106Y041905D01*
X020116Y041915D01*
X020121Y041918D01*
X020125Y041921D01*
X020128Y041924D01*
X020131Y041926D01*
X020132Y041927D01*
X020133D01*
X020142Y041933D01*
X020151Y041937D01*
X020169Y041945D01*
X020187Y041951D01*
X020203Y041954D01*
X020210Y041955D01*
X020216Y041957D01*
X020222Y041958D01*
X020227D01*
X020230Y041958D01*
X020236D01*
X020258Y041957D01*
D02*
G37*
G36*
X021158Y040620D02*
X021685D01*
Y040491D01*
X021050D01*
Y040941D01*
X021158D01*
Y040620D01*
D02*
G37*
G36*
X019691Y039141D02*
X019582D01*
Y039331D01*
X019050D01*
Y039460D01*
X019582D01*
Y039649D01*
X019691D01*
Y039141D01*
D02*
G37*
G36*
Y038674D02*
X019439D01*
Y038420D01*
X019691D01*
Y038291D01*
X019050D01*
Y038420D01*
X019330D01*
Y038674D01*
X019050D01*
Y038803D01*
X019691D01*
Y038674D01*
D02*
G37*
G36*
X022423Y042329D02*
X022589D01*
Y042217D01*
X022423D01*
Y042049D01*
X022308D01*
Y042217D01*
X022142D01*
Y042329D01*
X022308D01*
Y042497D01*
X022423D01*
Y042329D01*
D02*
G37*
G36*
X018158Y040361D02*
X018332D01*
Y040682D01*
X018441D01*
Y040361D01*
X018582D01*
Y040707D01*
X018691D01*
Y040232D01*
X018050D01*
Y040719D01*
X018158D01*
Y040361D01*
D02*
G37*
G36*
X018691Y041868D02*
X018217Y041712D01*
X018691Y041549D01*
Y041410D01*
X018050Y041638D01*
Y041777D01*
X018691Y042006D01*
Y041868D01*
D02*
G37*
G36*
X018285Y041238D02*
X018273Y041235D01*
X018260Y041231D01*
X018249Y041227D01*
X018239Y041223D01*
X018230Y041218D01*
X018221Y041214D01*
X018214Y041209D01*
X018207Y041205D01*
X018201Y041201D01*
X018196Y041197D01*
X018192Y041193D01*
X018188Y041190D01*
X018185Y041188D01*
X018183Y041186D01*
X018183Y041185D01*
X018182Y041184D01*
X018176Y041177D01*
X018171Y041170D01*
X018163Y041155D01*
X018158Y041140D01*
X018153Y041127D01*
X018151Y041114D01*
X018150Y041109D01*
Y041104D01*
X018149Y041101D01*
Y041098D01*
Y041097D01*
Y041096D01*
X018150Y041084D01*
X018151Y041071D01*
X018154Y041059D01*
X018158Y041049D01*
X018161Y041038D01*
X018165Y041029D01*
X018170Y041020D01*
X018175Y041013D01*
X018180Y041006D01*
X018185Y041000D01*
X018189Y040995D01*
X018192Y040990D01*
X018196Y040987D01*
X018199Y040984D01*
X018200Y040983D01*
X018201Y040982D01*
X018211Y040975D01*
X018223Y040968D01*
X018235Y040962D01*
X018249Y040957D01*
X018264Y040953D01*
X018278Y040950D01*
X018306Y040945D01*
X018320Y040943D01*
X018332Y040941D01*
X018344Y040941D01*
X018354Y040940D01*
X018362Y040939D01*
X018373D01*
X018394Y040940D01*
X018414Y040941D01*
X018431Y040943D01*
X018448Y040946D01*
X018463Y040950D01*
X018476Y040953D01*
X018489Y040957D01*
X018499Y040961D01*
X018509Y040965D01*
X018517Y040969D01*
X018524Y040972D01*
X018530Y040976D01*
X018534Y040979D01*
X018537Y040981D01*
X018539Y040982D01*
X018539Y040983D01*
X018548Y040991D01*
X018556Y041001D01*
X018563Y041010D01*
X018569Y041020D01*
X018574Y041029D01*
X018578Y041039D01*
X018582Y041049D01*
X018584Y041058D01*
X018586Y041066D01*
X018588Y041074D01*
X018589Y041081D01*
X018590Y041087D01*
X018591Y041092D01*
Y041095D01*
Y041098D01*
Y041099D01*
X018589Y041118D01*
X018586Y041134D01*
X018582Y041149D01*
X018576Y041162D01*
X018570Y041172D01*
X018568Y041177D01*
X018566Y041180D01*
X018564Y041183D01*
X018563Y041185D01*
X018562Y041186D01*
X018561Y041186D01*
X018550Y041199D01*
X018537Y041209D01*
X018524Y041217D01*
X018512Y041224D01*
X018500Y041229D01*
X018496Y041231D01*
X018491Y041232D01*
X018488Y041233D01*
X018485Y041233D01*
X018484Y041234D01*
X018483D01*
X018514Y041362D01*
X018527Y041358D01*
X018541Y041353D01*
X018552Y041347D01*
X018564Y041342D01*
X018575Y041337D01*
X018584Y041331D01*
X018593Y041326D01*
X018601Y041321D01*
X018608Y041315D01*
X018614Y041311D01*
X018619Y041307D01*
X018623Y041303D01*
X018627Y041300D01*
X018629Y041298D01*
X018630Y041297D01*
X018631Y041296D01*
X018643Y041281D01*
X018654Y041267D01*
X018664Y041251D01*
X018671Y041235D01*
X018678Y041219D01*
X018684Y041203D01*
X018688Y041188D01*
X018692Y041173D01*
X018695Y041159D01*
X018698Y041146D01*
X018699Y041134D01*
X018700Y041124D01*
X018700Y041116D01*
X018701Y041111D01*
Y041106D01*
Y041105D01*
X018700Y041081D01*
X018698Y041057D01*
X018693Y041035D01*
X018687Y041014D01*
X018680Y040995D01*
X018673Y040977D01*
X018665Y040961D01*
X018657Y040946D01*
X018648Y040933D01*
X018641Y040921D01*
X018633Y040911D01*
X018626Y040903D01*
X018620Y040896D01*
X018616Y040892D01*
X018613Y040888D01*
X018612Y040888D01*
X018595Y040873D01*
X018576Y040861D01*
X018557Y040850D01*
X018536Y040841D01*
X018516Y040832D01*
X018495Y040826D01*
X018475Y040820D01*
X018455Y040816D01*
X018437Y040813D01*
X018419Y040810D01*
X018403Y040809D01*
X018390Y040807D01*
X018379Y040807D01*
X018375Y040806D01*
X018364D01*
X018336Y040807D01*
X018310Y040809D01*
X018286Y040814D01*
X018263Y040818D01*
X018242Y040825D01*
X018222Y040832D01*
X018204Y040839D01*
X018188Y040847D01*
X018174Y040854D01*
X018161Y040862D01*
X018151Y040869D01*
X018142Y040875D01*
X018135Y040880D01*
X018130Y040884D01*
X018126Y040887D01*
X018126Y040888D01*
X018110Y040904D01*
X018097Y040920D01*
X018085Y040938D01*
X018076Y040955D01*
X018067Y040972D01*
X018060Y040990D01*
X018054Y041007D01*
X018050Y041023D01*
X018046Y041038D01*
X018044Y041053D01*
X018042Y041065D01*
X018040Y041076D01*
X018040Y041085D01*
X018039Y041092D01*
Y041096D01*
Y041097D01*
Y041097D01*
X018040Y041116D01*
X018041Y041134D01*
X018044Y041152D01*
X018047Y041167D01*
X018051Y041183D01*
X018055Y041197D01*
X018060Y041210D01*
X018065Y041221D01*
X018069Y041232D01*
X018074Y041241D01*
X018078Y041249D01*
X018082Y041256D01*
X018085Y041260D01*
X018087Y041265D01*
X018089Y041267D01*
X018090Y041267D01*
X018100Y041280D01*
X018111Y041291D01*
X018123Y041301D01*
X018136Y041311D01*
X018149Y041319D01*
X018162Y041328D01*
X018175Y041335D01*
X018187Y041341D01*
X018199Y041347D01*
X018210Y041351D01*
X018221Y041355D01*
X018229Y041358D01*
X018237Y041361D01*
X018242Y041362D01*
X018245Y041364D01*
X018246D01*
X018285Y041238D01*
D02*
G37*
G36*
X019691Y037700D02*
X019582D01*
Y037890D01*
X019050D01*
Y038019D01*
X019582D01*
Y038208D01*
X019691D01*
Y037700D01*
D02*
G37*
G36*
X018423Y042324D02*
X018589D01*
Y042212D01*
X018423D01*
Y042044D01*
X018308D01*
Y042212D01*
X018142D01*
Y042324D01*
X018308D01*
Y042492D01*
X018423D01*
Y042324D01*
D02*
G37*
G36*
X019258Y042157D02*
X019278Y042154D01*
X019295Y042150D01*
X019303Y042148D01*
X019310Y042146D01*
X019316Y042143D01*
X019321Y042141D01*
X019326Y042139D01*
X019330Y042137D01*
X019334Y042135D01*
X019336Y042134D01*
X019337Y042133D01*
X019338D01*
X019353Y042122D01*
X019366Y042110D01*
X019377Y042099D01*
X019387Y042087D01*
X019394Y042077D01*
X019399Y042069D01*
X019400Y042065D01*
X019402Y042063D01*
X019403Y042062D01*
Y042061D01*
X019407Y042052D01*
X019412Y042042D01*
X019416Y042031D01*
X019421Y042020D01*
X019428Y041997D01*
X019435Y041974D01*
X019438Y041964D01*
X019441Y041954D01*
X019444Y041945D01*
X019446Y041937D01*
X019447Y041931D01*
X019448Y041926D01*
X019449Y041923D01*
Y041922D01*
X019453Y041905D01*
X019457Y041890D01*
X019462Y041876D01*
X019466Y041863D01*
X019469Y041852D01*
X019473Y041842D01*
X019476Y041834D01*
X019479Y041827D01*
X019482Y041821D01*
X019484Y041815D01*
X019487Y041811D01*
X019489Y041808D01*
X019490Y041806D01*
X019491Y041804D01*
X019492Y041803D01*
X019498Y041797D01*
X019505Y041792D01*
X019512Y041789D01*
X019518Y041786D01*
X019523Y041785D01*
X019527Y041784D01*
X019531D01*
X019540Y041785D01*
X019548Y041788D01*
X019555Y041790D01*
X019560Y041795D01*
X019564Y041798D01*
X019568Y041802D01*
X019570Y041804D01*
X019570Y041804D01*
X019578Y041817D01*
X019584Y041831D01*
X019589Y041847D01*
X019591Y041861D01*
X019593Y041874D01*
X019593Y041879D01*
X019594Y041884D01*
Y041888D01*
Y041890D01*
Y041892D01*
Y041893D01*
X019593Y041913D01*
X019591Y041929D01*
X019587Y041943D01*
X019583Y041955D01*
X019579Y041964D01*
X019575Y041970D01*
X019573Y041974D01*
X019572Y041975D01*
X019563Y041985D01*
X019552Y041992D01*
X019540Y041999D01*
X019529Y042003D01*
X019518Y042007D01*
X019514Y042008D01*
X019509Y042010D01*
X019507Y042010D01*
X019504D01*
X019502Y042011D01*
X019502D01*
X019507Y042140D01*
X019523Y042139D01*
X019538Y042137D01*
X019552Y042133D01*
X019566Y042128D01*
X019578Y042124D01*
X019590Y042118D01*
X019600Y042112D01*
X019610Y042107D01*
X019618Y042101D01*
X019626Y042095D01*
X019633Y042090D01*
X019638Y042085D01*
X019642Y042081D01*
X019645Y042078D01*
X019647Y042076D01*
X019648Y042076D01*
X019657Y042064D01*
X019665Y042051D01*
X019673Y042036D01*
X019679Y042022D01*
X019684Y042007D01*
X019688Y041992D01*
X019691Y041976D01*
X019694Y041963D01*
X019697Y041949D01*
X019698Y041935D01*
X019700Y041924D01*
X019700Y041914D01*
X019701Y041906D01*
Y041900D01*
Y041896D01*
Y041895D01*
Y041895D01*
X019700Y041867D01*
X019699Y041856D01*
X019698Y041843D01*
X019695Y041832D01*
X019694Y041822D01*
X019692Y041813D01*
X019690Y041804D01*
X019687Y041795D01*
X019685Y041788D01*
X019684Y041783D01*
X019682Y041777D01*
X019680Y041774D01*
X019679Y041770D01*
X019678Y041769D01*
Y041768D01*
X019669Y041750D01*
X019659Y041734D01*
X019648Y041720D01*
X019638Y041709D01*
X019628Y041700D01*
X019620Y041693D01*
X019618Y041691D01*
X019616Y041690D01*
X019614Y041688D01*
X019614D01*
X019598Y041679D01*
X019582Y041672D01*
X019566Y041668D01*
X019552Y041664D01*
X019540Y041662D01*
X019534Y041661D01*
X019530D01*
X019527Y041661D01*
X019522D01*
X019508Y041661D01*
X019495Y041663D01*
X019482Y041666D01*
X019470Y041670D01*
X019459Y041675D01*
X019448Y041679D01*
X019438Y041685D01*
X019429Y041691D01*
X019421Y041695D01*
X019414Y041701D01*
X019407Y041706D01*
X019403Y041711D01*
X019398Y041714D01*
X019396Y041717D01*
X019394Y041719D01*
X019393Y041720D01*
X019386Y041728D01*
X019380Y041738D01*
X019373Y041749D01*
X019367Y041760D01*
X019357Y041784D01*
X019347Y041808D01*
X019344Y041820D01*
X019340Y041830D01*
X019337Y041840D01*
X019335Y041849D01*
X019332Y041856D01*
X019331Y041861D01*
X019330Y041864D01*
Y041865D01*
X019326Y041880D01*
X019323Y041893D01*
X019320Y041905D01*
X019317Y041915D01*
X019314Y041925D01*
X019312Y041933D01*
X019310Y041941D01*
X019308Y041947D01*
X019307Y041953D01*
X019305Y041957D01*
X019304Y041961D01*
X019303Y041964D01*
X019303Y041966D01*
Y041967D01*
X019302Y041969D01*
X019297Y041981D01*
X019293Y041990D01*
X019288Y041998D01*
X019284Y042005D01*
X019280Y042009D01*
X019277Y042013D01*
X019275Y042015D01*
X019274Y042015D01*
X019268Y042020D01*
X019262Y042024D01*
X019255Y042026D01*
X019248Y042028D01*
X019244Y042028D01*
X019239Y042029D01*
X019229D01*
X019223Y042028D01*
X019211Y042024D01*
X019200Y042019D01*
X019191Y042013D01*
X019184Y042008D01*
X019178Y042002D01*
X019175Y041999D01*
X019174Y041998D01*
Y041997D01*
X019169Y041991D01*
X019165Y041984D01*
X019158Y041969D01*
X019153Y041953D01*
X019151Y041938D01*
X019149Y041924D01*
X019148Y041918D01*
Y041913D01*
X019147Y041908D01*
Y041905D01*
Y041903D01*
Y041902D01*
X019149Y041881D01*
X019152Y041863D01*
X019156Y041847D01*
X019162Y041833D01*
X019165Y041827D01*
X019167Y041822D01*
X019169Y041817D01*
X019171Y041814D01*
X019174Y041811D01*
X019175Y041809D01*
X019176Y041808D01*
Y041808D01*
X019183Y041802D01*
X019189Y041796D01*
X019203Y041786D01*
X019219Y041778D01*
X019235Y041772D01*
X019248Y041768D01*
X019254Y041765D01*
X019260Y041764D01*
X019264Y041763D01*
X019267Y041763D01*
X019269Y041762D01*
X019270D01*
X019258Y041636D01*
X019238Y041639D01*
X019219Y041643D01*
X019203Y041648D01*
X019187Y041654D01*
X019172Y041660D01*
X019158Y041666D01*
X019146Y041673D01*
X019135Y041680D01*
X019126Y041686D01*
X019117Y041693D01*
X019110Y041699D01*
X019104Y041704D01*
X019100Y041708D01*
X019096Y041711D01*
X019094Y041713D01*
X019094Y041714D01*
X019084Y041727D01*
X019076Y041741D01*
X019068Y041756D01*
X019062Y041771D01*
X019056Y041786D01*
X019052Y041802D01*
X019048Y041817D01*
X019045Y041832D01*
X019043Y041846D01*
X019041Y041859D01*
X019040Y041871D01*
X019039Y041881D01*
Y041889D01*
X019038Y041895D01*
Y041899D01*
Y041901D01*
Y041916D01*
X019039Y041931D01*
X019040Y041945D01*
X019042Y041958D01*
X019044Y041970D01*
X019045Y041982D01*
X019047Y041992D01*
X019050Y042002D01*
X019052Y042010D01*
X019054Y042018D01*
X019056Y042025D01*
X019058Y042031D01*
X019059Y042035D01*
X019060Y042038D01*
X019061Y042040D01*
Y042040D01*
X019071Y042060D01*
X019082Y042078D01*
X019094Y042092D01*
X019106Y042105D01*
X019116Y042115D01*
X019121Y042118D01*
X019125Y042121D01*
X019128Y042124D01*
X019131Y042126D01*
X019132Y042127D01*
X019133D01*
X019142Y042133D01*
X019151Y042137D01*
X019169Y042145D01*
X019187Y042151D01*
X019203Y042154D01*
X019210Y042155D01*
X019216Y042157D01*
X019222Y042158D01*
X019227D01*
X019230Y042158D01*
X019236D01*
X019258Y042157D01*
D02*
G37*
G36*
X019691Y041414D02*
X019260D01*
X019691Y041151D01*
Y041026D01*
X019050D01*
Y041145D01*
X019471D01*
X019050Y041405D01*
Y041534D01*
X019691D01*
Y041414D01*
D02*
G37*
G36*
X019344Y042252D02*
X019221D01*
Y042493D01*
X019344D01*
Y042252D01*
D02*
G37*
G36*
X022396Y041966D02*
X022411Y041965D01*
X022425Y041964D01*
X022439Y041962D01*
X022451Y041960D01*
X022463Y041958D01*
X022473Y041957D01*
X022482Y041955D01*
X022491Y041952D01*
X022498Y041950D01*
X022504Y041949D01*
X022509Y041948D01*
X022512Y041946D01*
X022514Y041945D01*
X022515D01*
X022537Y041937D01*
X022557Y041927D01*
X022575Y041917D01*
X022583Y041912D01*
X022590Y041907D01*
X022597Y041902D01*
X022602Y041898D01*
X022607Y041894D01*
X022611Y041891D01*
X022615Y041889D01*
X022617Y041887D01*
X022618Y041885D01*
X022619Y041884D01*
X022634Y041868D01*
X022646Y041852D01*
X022657Y041837D01*
X022664Y041821D01*
X022670Y041808D01*
X022673Y041803D01*
X022675Y041798D01*
X022676Y041793D01*
X022677Y041791D01*
X022678Y041789D01*
Y041788D01*
X022680Y041780D01*
X022682Y041771D01*
X022685Y041751D01*
X022688Y041731D01*
X022689Y041712D01*
X022690Y041703D01*
Y041694D01*
Y041687D01*
X022691Y041680D01*
Y041674D01*
Y041670D01*
Y041667D01*
Y041666D01*
Y041431D01*
X022050D01*
Y041673D01*
Y041687D01*
X022051Y041699D01*
X022051Y041711D01*
X022052Y041721D01*
X022053Y041732D01*
X022054Y041741D01*
X022056Y041750D01*
X022057Y041757D01*
X022058Y041764D01*
X022059Y041771D01*
X022060Y041776D01*
X022061Y041780D01*
X022062Y041784D01*
X022062Y041786D01*
X022063Y041787D01*
Y041788D01*
X022071Y041808D01*
X022079Y041826D01*
X022087Y041841D01*
X022096Y041855D01*
X022099Y041860D01*
X022103Y041865D01*
X022106Y041868D01*
X022109Y041872D01*
X022111Y041875D01*
X022113Y041877D01*
X022114Y041877D01*
X022115Y041878D01*
X022132Y041894D01*
X022151Y041908D01*
X022169Y041920D01*
X022187Y041930D01*
X022196Y041934D01*
X022203Y041937D01*
X022210Y041940D01*
X022216Y041943D01*
X022221Y041944D01*
X022225Y041945D01*
X022227Y041947D01*
X022228D01*
X022250Y041954D01*
X022273Y041959D01*
X022296Y041962D01*
X022317Y041964D01*
X022327Y041966D01*
X022336Y041966D01*
X022344D01*
X022350Y041967D01*
X022380D01*
X022396Y041966D01*
D02*
G37*
G36*
X021396Y042166D02*
X021411Y042165D01*
X021425Y042164D01*
X021439Y042162D01*
X021451Y042160D01*
X021463Y042158D01*
X021473Y042157D01*
X021482Y042155D01*
X021491Y042152D01*
X021498Y042150D01*
X021504Y042149D01*
X021509Y042148D01*
X021512Y042146D01*
X021514Y042145D01*
X021515D01*
X021537Y042137D01*
X021557Y042127D01*
X021575Y042117D01*
X021583Y042112D01*
X021590Y042107D01*
X021597Y042102D01*
X021602Y042098D01*
X021607Y042094D01*
X021611Y042091D01*
X021615Y042089D01*
X021617Y042087D01*
X021618Y042085D01*
X021619Y042084D01*
X021634Y042068D01*
X021646Y042052D01*
X021657Y042037D01*
X021664Y042021D01*
X021670Y042008D01*
X021673Y042003D01*
X021675Y041998D01*
X021676Y041993D01*
X021677Y041991D01*
X021678Y041989D01*
Y041988D01*
X021680Y041980D01*
X021682Y041971D01*
X021685Y041951D01*
X021688Y041931D01*
X021689Y041912D01*
X021690Y041903D01*
Y041894D01*
Y041887D01*
X021691Y041880D01*
Y041874D01*
Y041870D01*
Y041867D01*
Y041866D01*
Y041631D01*
X021050D01*
Y041873D01*
Y041887D01*
X021051Y041899D01*
X021051Y041911D01*
X021052Y041921D01*
X021053Y041932D01*
X021054Y041941D01*
X021056Y041950D01*
X021057Y041957D01*
X021058Y041964D01*
X021059Y041971D01*
X021060Y041976D01*
X021061Y041980D01*
X021062Y041984D01*
X021062Y041986D01*
X021063Y041987D01*
Y041988D01*
X021071Y042008D01*
X021079Y042026D01*
X021087Y042041D01*
X021096Y042055D01*
X021099Y042060D01*
X021103Y042065D01*
X021106Y042068D01*
X021109Y042072D01*
X021111Y042075D01*
X021113Y042077D01*
X021114Y042077D01*
X021115Y042078D01*
X021132Y042094D01*
X021151Y042108D01*
X021169Y042120D01*
X021187Y042130D01*
X021196Y042134D01*
X021203Y042137D01*
X021210Y042140D01*
X021216Y042143D01*
X021221Y042144D01*
X021225Y042145D01*
X021227Y042147D01*
X021228D01*
X021250Y042154D01*
X021273Y042159D01*
X021296Y042162D01*
X021317Y042164D01*
X021327Y042166D01*
X021336Y042166D01*
X021344D01*
X021351Y042167D01*
X021380D01*
X021396Y042166D01*
D02*
G37*
G36*
X019174Y040230D02*
X019188Y040221D01*
X019200Y040213D01*
X019212Y040205D01*
X019222Y040198D01*
X019232Y040192D01*
X019240Y040186D01*
X019248Y040180D01*
X019255Y040175D01*
X019260Y040171D01*
X019265Y040167D01*
X019269Y040164D01*
X019273Y040161D01*
X019275Y040159D01*
X019277Y040157D01*
X019278Y040156D01*
X019289Y040146D01*
X019299Y040134D01*
X019308Y040122D01*
X019316Y040111D01*
X019323Y040101D01*
X019328Y040094D01*
X019330Y040091D01*
X019330Y040089D01*
X019332Y040087D01*
Y040087D01*
X019335Y040102D01*
X019338Y040117D01*
X019342Y040130D01*
X019346Y040142D01*
X019351Y040154D01*
X019356Y040164D01*
X019361Y040173D01*
X019366Y040182D01*
X019371Y040189D01*
X019376Y040196D01*
X019380Y040201D01*
X019384Y040206D01*
X019387Y040209D01*
X019389Y040212D01*
X019391Y040213D01*
X019391Y040214D01*
X019400Y040221D01*
X019410Y040228D01*
X019420Y040233D01*
X019430Y040238D01*
X019440Y040242D01*
X019450Y040246D01*
X019469Y040250D01*
X019477Y040253D01*
X019486Y040254D01*
X019493Y040255D01*
X019499Y040255D01*
X019504Y040256D01*
X019511D01*
X019532Y040255D01*
X019550Y040252D01*
X019568Y040247D01*
X019582Y040242D01*
X019589Y040239D01*
X019595Y040237D01*
X019600Y040234D01*
X019604Y040232D01*
X019607Y040230D01*
X019609Y040229D01*
X019611Y040228D01*
X019611D01*
X019627Y040216D01*
X019640Y040204D01*
X019650Y040192D01*
X019659Y040180D01*
X019666Y040169D01*
X019668Y040165D01*
X019670Y040161D01*
X019671Y040157D01*
X019673Y040155D01*
X019673Y040154D01*
Y040153D01*
X019676Y040144D01*
X019679Y040134D01*
X019682Y040122D01*
X019683Y040110D01*
X019686Y040086D01*
X019688Y040061D01*
X019689Y040050D01*
X019690Y040039D01*
Y040029D01*
X019691Y040021D01*
Y040014D01*
Y040009D01*
Y040005D01*
Y040004D01*
Y039732D01*
X019050D01*
Y039861D01*
X019317D01*
Y039887D01*
Y039903D01*
X019316Y039916D01*
X019315Y039927D01*
X019314Y039936D01*
X019312Y039943D01*
X019311Y039948D01*
X019310Y039951D01*
X019310Y039952D01*
X019307Y039960D01*
X019303Y039967D01*
X019298Y039974D01*
X019294Y039979D01*
X019289Y039984D01*
X019287Y039988D01*
X019284Y039990D01*
X019283Y039991D01*
X019279Y039995D01*
X019273Y039999D01*
X019267Y040004D01*
X019260Y040010D01*
X019245Y040021D01*
X019229Y040033D01*
X019214Y040043D01*
X019208Y040048D01*
X019201Y040051D01*
X019196Y040055D01*
X019193Y040058D01*
X019190Y040059D01*
X019189Y040060D01*
X019050Y040153D01*
Y040308D01*
X019174Y040230D01*
D02*
G37*
G36*
X021158Y041163D02*
X021332D01*
Y041484D01*
X021441D01*
Y041163D01*
X021582D01*
Y041508D01*
X021691D01*
Y041034D01*
X021050D01*
Y041521D01*
X021158D01*
Y041163D01*
D02*
G37*
G36*
X019691Y040699D02*
Y040562D01*
X019050Y040313D01*
Y040450D01*
X019196Y040503D01*
Y040759D01*
X019050Y040815D01*
Y040956D01*
X019691Y040699D01*
D02*
G37*
%LPC*%
G36*
X016508Y039924D02*
X016502D01*
X016492Y039924D01*
X016482Y039922D01*
X016474Y039920D01*
X016467Y039918D01*
X016462Y039915D01*
X016457Y039913D01*
X016455Y039912D01*
X016454Y039911D01*
X016447Y039906D01*
X016441Y039900D01*
X016437Y039894D01*
X016433Y039888D01*
X016430Y039883D01*
X016428Y039879D01*
X016428Y039876D01*
X016427Y039874D01*
X016425Y039870D01*
X016424Y039863D01*
X016423Y039855D01*
X016423Y039847D01*
X016421Y039828D01*
X016420Y039808D01*
Y039798D01*
Y039789D01*
X016419Y039781D01*
Y039773D01*
Y039768D01*
Y039763D01*
Y039760D01*
Y039759D01*
Y039663D01*
X016582D01*
Y039763D01*
Y039777D01*
Y039790D01*
Y039802D01*
X016582Y039811D01*
Y039820D01*
Y039828D01*
X016581Y039835D01*
Y039840D01*
Y039845D01*
X016580Y039849D01*
Y039852D01*
Y039854D01*
X016580Y039857D01*
Y039858D01*
X016577Y039869D01*
X016573Y039879D01*
X016570Y039888D01*
X016565Y039895D01*
X016561Y039900D01*
X016558Y039904D01*
X016555Y039906D01*
X016555Y039907D01*
X016546Y039913D01*
X016538Y039917D01*
X016530Y039920D01*
X016521Y039922D01*
X016514Y039924D01*
X016508Y039924D01*
D02*
G37*
G36*
X016304Y040520D02*
Y040344D01*
X016541Y040431D01*
X016304Y040520D01*
D02*
G37*
G36*
X016497Y038500D02*
X016491D01*
X016481Y038499D01*
X016471Y038498D01*
X016463Y038495D01*
X016456Y038492D01*
X016450Y038489D01*
X016446Y038486D01*
X016442Y038485D01*
X016441Y038484D01*
X016434Y038479D01*
X016428Y038472D01*
X016422Y038465D01*
X016417Y038459D01*
X016414Y038453D01*
X016412Y038448D01*
X016410Y038446D01*
X016409Y038444D01*
X016408Y038439D01*
X016406Y038432D01*
X016405Y038425D01*
X016404Y038417D01*
X016402Y038400D01*
X016401Y038384D01*
X016400Y038368D01*
X016400Y038361D01*
Y038355D01*
Y038349D01*
Y038346D01*
Y038343D01*
Y038342D01*
Y038271D01*
X016582D01*
Y038334D01*
Y038346D01*
Y038358D01*
X016582Y038368D01*
Y038377D01*
X016581Y038386D01*
Y038393D01*
X016580Y038400D01*
Y038407D01*
X016580Y038412D01*
X016579Y038416D01*
Y038419D01*
X016578Y038422D01*
X016577Y038425D01*
Y038427D01*
X016575Y038438D01*
X016571Y038448D01*
X016566Y038457D01*
X016561Y038464D01*
X016557Y038470D01*
X016552Y038475D01*
X016550Y038478D01*
X016549Y038479D01*
X016540Y038486D01*
X016530Y038491D01*
X016521Y038495D01*
X016512Y038497D01*
X016504Y038498D01*
X016497Y038500D01*
D02*
G37*
G36*
X016508Y037887D02*
X016502D01*
X016492Y037886D01*
X016482Y037885D01*
X016474Y037883D01*
X016467Y037881D01*
X016462Y037878D01*
X016457Y037876D01*
X016455Y037874D01*
X016454Y037874D01*
X016447Y037868D01*
X016441Y037863D01*
X016437Y037856D01*
X016433Y037850D01*
X016430Y037845D01*
X016428Y037841D01*
X016428Y037838D01*
X016427Y037837D01*
X016425Y037832D01*
X016424Y037825D01*
X016423Y037817D01*
X016423Y037809D01*
X016421Y037790D01*
X016420Y037770D01*
Y037761D01*
Y037752D01*
X016419Y037743D01*
Y037736D01*
Y037730D01*
Y037725D01*
Y037722D01*
Y037721D01*
Y037625D01*
X016582D01*
Y037726D01*
Y037740D01*
Y037753D01*
Y037764D01*
X016582Y037774D01*
Y037783D01*
Y037790D01*
X016581Y037797D01*
Y037803D01*
Y037808D01*
X016580Y037811D01*
Y037814D01*
Y037817D01*
X016580Y037820D01*
Y037820D01*
X016577Y037831D01*
X016573Y037842D01*
X016570Y037850D01*
X016565Y037857D01*
X016561Y037863D01*
X016558Y037866D01*
X016555Y037869D01*
X016555Y037869D01*
X016546Y037875D01*
X016538Y037879D01*
X016530Y037883D01*
X016521Y037885D01*
X016514Y037886D01*
X016508Y037887D01*
D02*
G37*
G36*
X016382Y037253D02*
X016357D01*
X016344Y037253D01*
X016332Y037252D01*
X016320Y037251D01*
X016310Y037250D01*
X016301Y037249D01*
X016292Y037248D01*
X016283Y037247D01*
X016276Y037246D01*
X016270Y037244D01*
X016265Y037243D01*
X016260Y037242D01*
X016257Y037241D01*
X016255Y037241D01*
X016253Y037240D01*
X016253D01*
X016237Y037234D01*
X016225Y037229D01*
X016214Y037223D01*
X016205Y037218D01*
X016199Y037214D01*
X016194Y037209D01*
X016192Y037207D01*
X016191Y037206D01*
X016185Y037198D01*
X016179Y037189D01*
X016174Y037180D01*
X016170Y037172D01*
X016167Y037165D01*
X016165Y037160D01*
X016165Y037155D01*
X016164Y037155D01*
Y037154D01*
X016163Y037149D01*
X016162Y037144D01*
X016160Y037132D01*
X016160Y037119D01*
X016159Y037105D01*
X016158Y037094D01*
Y037089D01*
Y037085D01*
Y037080D01*
Y037078D01*
Y037076D01*
Y037076D01*
Y036979D01*
X016582D01*
Y037037D01*
Y037051D01*
Y037064D01*
X016582Y037076D01*
Y037087D01*
X016581Y037096D01*
X016580Y037105D01*
X016580Y037113D01*
Y037119D01*
X016579Y037126D01*
X016578Y037130D01*
X016577Y037135D01*
X016577Y037137D01*
Y037140D01*
X016576Y037141D01*
Y037143D01*
X016573Y037156D01*
X016568Y037168D01*
X016563Y037178D01*
X016558Y037187D01*
X016553Y037194D01*
X016549Y037199D01*
X016546Y037202D01*
X016546Y037203D01*
X016536Y037212D01*
X016527Y037219D01*
X016516Y037225D01*
X016507Y037230D01*
X016498Y037234D01*
X016490Y037238D01*
X016488Y037239D01*
X016486Y037239D01*
X016484Y037240D01*
X016484D01*
X016476Y037242D01*
X016468Y037244D01*
X016449Y037248D01*
X016430Y037250D01*
X016412Y037252D01*
X016403D01*
X016396Y037253D01*
X016389D01*
X016382Y037253D01*
D02*
G37*
G36*
X018508Y039977D02*
X018502D01*
X018492Y039976D01*
X018482Y039974D01*
X018474Y039972D01*
X018467Y039970D01*
X018462Y039968D01*
X018457Y039965D01*
X018455Y039964D01*
X018454Y039963D01*
X018447Y039958D01*
X018441Y039952D01*
X018437Y039946D01*
X018433Y039940D01*
X018430Y039935D01*
X018428Y039931D01*
X018428Y039928D01*
X018427Y039927D01*
X018425Y039922D01*
X018424Y039915D01*
X018423Y039907D01*
X018423Y039899D01*
X018421Y039880D01*
X018420Y039860D01*
Y039850D01*
Y039841D01*
X018419Y039833D01*
Y039825D01*
Y039820D01*
Y039815D01*
Y039812D01*
Y039811D01*
Y039715D01*
X018582D01*
Y039816D01*
Y039829D01*
Y039843D01*
Y039854D01*
X018582Y039863D01*
Y039872D01*
Y039880D01*
X018581Y039887D01*
Y039893D01*
Y039897D01*
X018580Y039901D01*
Y039904D01*
Y039906D01*
X018580Y039909D01*
Y039910D01*
X018577Y039921D01*
X018573Y039931D01*
X018570Y039940D01*
X018565Y039947D01*
X018561Y039952D01*
X018558Y039956D01*
X018555Y039959D01*
X018555Y039959D01*
X018546Y039965D01*
X018538Y039969D01*
X018530Y039972D01*
X018521Y039974D01*
X018514Y039976D01*
X018508Y039977D01*
D02*
G37*
G36*
X017508Y040177D02*
X017502D01*
X017492Y040176D01*
X017482Y040174D01*
X017474Y040172D01*
X017467Y040170D01*
X017462Y040168D01*
X017457Y040165D01*
X017455Y040164D01*
X017454Y040163D01*
X017447Y040158D01*
X017441Y040152D01*
X017437Y040146D01*
X017433Y040140D01*
X017430Y040135D01*
X017428Y040131D01*
X017428Y040128D01*
X017427Y040127D01*
X017425Y040122D01*
X017424Y040115D01*
X017423Y040107D01*
X017423Y040099D01*
X017421Y040080D01*
X017420Y040060D01*
Y040050D01*
Y040041D01*
X017419Y040033D01*
Y040025D01*
Y040020D01*
Y040015D01*
Y040012D01*
Y040011D01*
Y039915D01*
X017582D01*
Y040016D01*
Y040029D01*
Y040043D01*
Y040054D01*
X017582Y040063D01*
Y040072D01*
Y040080D01*
X017581Y040087D01*
Y040093D01*
Y040097D01*
X017580Y040101D01*
Y040104D01*
Y040106D01*
X017580Y040109D01*
Y040110D01*
X017577Y040121D01*
X017573Y040131D01*
X017570Y040140D01*
X017565Y040147D01*
X017561Y040152D01*
X017558Y040156D01*
X017555Y040159D01*
X017555Y040159D01*
X017546Y040165D01*
X017538Y040169D01*
X017530Y040172D01*
X017521Y040174D01*
X017514Y040176D01*
X017508Y040177D01*
D02*
G37*
G36*
X014382Y037853D02*
X014357D01*
X014344Y037853D01*
X014332Y037852D01*
X014320Y037851D01*
X014310Y037850D01*
X014301Y037849D01*
X014292Y037848D01*
X014283Y037847D01*
X014276Y037846D01*
X014270Y037844D01*
X014265Y037843D01*
X014260Y037842D01*
X014257Y037841D01*
X014255Y037841D01*
X014253Y037840D01*
X014253D01*
X014237Y037834D01*
X014225Y037829D01*
X014214Y037823D01*
X014205Y037818D01*
X014199Y037814D01*
X014194Y037809D01*
X014192Y037807D01*
X014191Y037806D01*
X014185Y037798D01*
X014179Y037789D01*
X014174Y037780D01*
X014170Y037772D01*
X014167Y037765D01*
X014165Y037760D01*
X014165Y037755D01*
X014164Y037755D01*
Y037754D01*
X014163Y037749D01*
X014162Y037744D01*
X014160Y037732D01*
X014160Y037719D01*
X014159Y037705D01*
X014158Y037694D01*
Y037689D01*
Y037685D01*
Y037680D01*
Y037678D01*
Y037676D01*
Y037676D01*
Y037579D01*
X014582D01*
Y037637D01*
Y037651D01*
Y037664D01*
X014582Y037676D01*
Y037687D01*
X014581Y037696D01*
X014580Y037705D01*
X014580Y037713D01*
Y037719D01*
X014579Y037726D01*
X014578Y037730D01*
X014577Y037735D01*
X014577Y037737D01*
Y037740D01*
X014576Y037741D01*
Y037743D01*
X014573Y037756D01*
X014568Y037768D01*
X014563Y037778D01*
X014558Y037787D01*
X014553Y037794D01*
X014549Y037799D01*
X014546Y037802D01*
X014546Y037803D01*
X014536Y037812D01*
X014527Y037819D01*
X014516Y037825D01*
X014507Y037830D01*
X014498Y037834D01*
X014490Y037838D01*
X014488Y037839D01*
X014486Y037839D01*
X014484Y037840D01*
X014484D01*
X014476Y037842D01*
X014468Y037844D01*
X014449Y037848D01*
X014430Y037850D01*
X014412Y037852D01*
X014403D01*
X014396Y037853D01*
X014389D01*
X014382Y037853D01*
D02*
G37*
G36*
X014497Y039100D02*
X014491D01*
X014481Y039099D01*
X014471Y039098D01*
X014463Y039095D01*
X014456Y039092D01*
X014450Y039089D01*
X014446Y039086D01*
X014442Y039085D01*
X014441Y039084D01*
X014434Y039079D01*
X014428Y039072D01*
X014422Y039065D01*
X014417Y039059D01*
X014414Y039053D01*
X014412Y039048D01*
X014410Y039046D01*
X014409Y039044D01*
X014408Y039039D01*
X014406Y039032D01*
X014405Y039025D01*
X014404Y039017D01*
X014402Y039000D01*
X014401Y038984D01*
X014400Y038968D01*
X014400Y038961D01*
Y038955D01*
Y038949D01*
Y038946D01*
Y038943D01*
Y038942D01*
Y038871D01*
X014582D01*
Y038934D01*
Y038946D01*
Y038958D01*
X014582Y038968D01*
Y038977D01*
X014581Y038986D01*
Y038993D01*
X014580Y039000D01*
Y039007D01*
X014580Y039011D01*
X014579Y039016D01*
Y039019D01*
X014578Y039022D01*
X014577Y039025D01*
Y039027D01*
X014575Y039038D01*
X014570Y039048D01*
X014566Y039057D01*
X014561Y039064D01*
X014557Y039070D01*
X014552Y039075D01*
X014550Y039078D01*
X014549Y039079D01*
X014540Y039086D01*
X014530Y039091D01*
X014521Y039095D01*
X014512Y039097D01*
X014504Y039098D01*
X014497Y039100D01*
D02*
G37*
G36*
X014508Y038487D02*
X014502D01*
X014492Y038486D01*
X014482Y038485D01*
X014474Y038483D01*
X014467Y038481D01*
X014462Y038478D01*
X014457Y038476D01*
X014455Y038474D01*
X014454Y038474D01*
X014447Y038468D01*
X014441Y038463D01*
X014437Y038456D01*
X014433Y038450D01*
X014430Y038445D01*
X014428Y038441D01*
X014428Y038438D01*
X014427Y038437D01*
X014425Y038432D01*
X014424Y038425D01*
X014423Y038417D01*
X014423Y038409D01*
X014421Y038390D01*
X014420Y038370D01*
Y038361D01*
Y038352D01*
X014419Y038343D01*
Y038336D01*
Y038330D01*
Y038325D01*
Y038322D01*
Y038321D01*
Y038225D01*
X014582D01*
Y038326D01*
Y038340D01*
Y038353D01*
Y038364D01*
X014582Y038374D01*
Y038383D01*
Y038390D01*
X014581Y038397D01*
Y038403D01*
Y038408D01*
X014580Y038411D01*
Y038414D01*
Y038417D01*
X014580Y038420D01*
Y038420D01*
X014577Y038431D01*
X014573Y038442D01*
X014570Y038450D01*
X014565Y038457D01*
X014561Y038463D01*
X014558Y038466D01*
X014555Y038469D01*
X014555Y038469D01*
X014546Y038475D01*
X014538Y038479D01*
X014530Y038483D01*
X014521Y038485D01*
X014514Y038486D01*
X014508Y038487D01*
D02*
G37*
G36*
X013508Y038687D02*
X013502D01*
X013492Y038686D01*
X013482Y038685D01*
X013474Y038683D01*
X013467Y038681D01*
X013462Y038678D01*
X013457Y038676D01*
X013455Y038674D01*
X013454Y038674D01*
X013447Y038668D01*
X013441Y038663D01*
X013437Y038656D01*
X013433Y038650D01*
X013430Y038645D01*
X013428Y038641D01*
X013428Y038638D01*
X013427Y038637D01*
X013425Y038632D01*
X013424Y038625D01*
X013423Y038617D01*
X013423Y038609D01*
X013421Y038590D01*
X013420Y038570D01*
Y038561D01*
Y038552D01*
X013419Y038543D01*
Y038536D01*
Y038530D01*
Y038525D01*
Y038522D01*
Y038521D01*
Y038425D01*
X013582D01*
Y038526D01*
Y038540D01*
Y038553D01*
Y038564D01*
X013582Y038574D01*
Y038583D01*
Y038590D01*
X013581Y038597D01*
Y038603D01*
Y038608D01*
X013580Y038611D01*
Y038614D01*
Y038617D01*
X013580Y038620D01*
Y038620D01*
X013577Y038631D01*
X013573Y038642D01*
X013570Y038650D01*
X013565Y038657D01*
X013561Y038663D01*
X013558Y038666D01*
X013555Y038669D01*
X013555Y038669D01*
X013546Y038675D01*
X013538Y038679D01*
X013530Y038683D01*
X013521Y038685D01*
X013514Y038686D01*
X013508Y038687D01*
D02*
G37*
G36*
X013382Y038053D02*
X013357D01*
X013344Y038053D01*
X013332Y038052D01*
X013320Y038051D01*
X013310Y038050D01*
X013301Y038049D01*
X013292Y038048D01*
X013283Y038047D01*
X013276Y038046D01*
X013270Y038044D01*
X013265Y038043D01*
X013260Y038042D01*
X013257Y038041D01*
X013255Y038041D01*
X013253Y038040D01*
X013253D01*
X013237Y038034D01*
X013225Y038029D01*
X013214Y038023D01*
X013205Y038018D01*
X013199Y038014D01*
X013194Y038009D01*
X013192Y038007D01*
X013191Y038006D01*
X013185Y037998D01*
X013179Y037989D01*
X013174Y037980D01*
X013170Y037972D01*
X013167Y037965D01*
X013165Y037960D01*
X013165Y037955D01*
X013164Y037955D01*
Y037954D01*
X013163Y037949D01*
X013162Y037944D01*
X013160Y037932D01*
X013160Y037919D01*
X013159Y037905D01*
X013158Y037894D01*
Y037889D01*
Y037885D01*
Y037880D01*
Y037878D01*
Y037876D01*
Y037876D01*
Y037779D01*
X013582D01*
Y037837D01*
Y037851D01*
Y037864D01*
X013582Y037876D01*
Y037887D01*
X013581Y037896D01*
X013580Y037905D01*
X013580Y037913D01*
Y037919D01*
X013579Y037926D01*
X013578Y037930D01*
X013577Y037935D01*
X013577Y037937D01*
Y037940D01*
X013576Y037941D01*
Y037943D01*
X013573Y037956D01*
X013568Y037968D01*
X013563Y037978D01*
X013558Y037987D01*
X013553Y037994D01*
X013549Y037999D01*
X013546Y038002D01*
X013546Y038003D01*
X013536Y038012D01*
X013527Y038019D01*
X013516Y038025D01*
X013507Y038030D01*
X013498Y038034D01*
X013490Y038038D01*
X013488Y038039D01*
X013486Y038039D01*
X013484Y038040D01*
X013484D01*
X013476Y038042D01*
X013468Y038044D01*
X013449Y038048D01*
X013430Y038050D01*
X013412Y038052D01*
X013403D01*
X013396Y038053D01*
X013389D01*
X013382Y038053D01*
D02*
G37*
G36*
X013497Y039300D02*
X013491D01*
X013481Y039299D01*
X013471Y039298D01*
X013463Y039295D01*
X013456Y039292D01*
X013450Y039289D01*
X013446Y039286D01*
X013442Y039285D01*
X013441Y039284D01*
X013434Y039279D01*
X013428Y039272D01*
X013422Y039265D01*
X013417Y039259D01*
X013414Y039253D01*
X013412Y039248D01*
X013410Y039246D01*
X013409Y039244D01*
X013408Y039239D01*
X013406Y039232D01*
X013405Y039225D01*
X013404Y039217D01*
X013402Y039200D01*
X013401Y039184D01*
X013400Y039168D01*
X013400Y039161D01*
Y039155D01*
Y039149D01*
Y039146D01*
Y039143D01*
Y039142D01*
Y039071D01*
X013582D01*
Y039134D01*
Y039146D01*
Y039158D01*
X013582Y039168D01*
Y039177D01*
X013581Y039186D01*
Y039193D01*
X013580Y039200D01*
Y039207D01*
X013580Y039211D01*
X013579Y039216D01*
Y039219D01*
X013578Y039222D01*
X013577Y039225D01*
Y039227D01*
X013575Y039238D01*
X013570Y039248D01*
X013566Y039257D01*
X013561Y039264D01*
X013557Y039270D01*
X013552Y039275D01*
X013550Y039278D01*
X013549Y039279D01*
X013540Y039286D01*
X013530Y039291D01*
X013521Y039295D01*
X013512Y039297D01*
X013504Y039298D01*
X013497Y039300D01*
D02*
G37*
G36*
X013508Y040178D02*
X013502D01*
X013492Y040178D01*
X013482Y040176D01*
X013474Y040174D01*
X013467Y040172D01*
X013462Y040169D01*
X013457Y040167D01*
X013455Y040166D01*
X013454Y040165D01*
X013447Y040160D01*
X013441Y040154D01*
X013437Y040148D01*
X013433Y040141D01*
X013430Y040137D01*
X013428Y040132D01*
X013428Y040130D01*
X013427Y040128D01*
X013425Y040123D01*
X013424Y040116D01*
X013423Y040109D01*
X013423Y040101D01*
X013421Y040082D01*
X013420Y040062D01*
Y040052D01*
Y040043D01*
X013419Y040035D01*
Y040027D01*
Y040021D01*
Y040017D01*
Y040014D01*
Y040012D01*
Y039917D01*
X013582D01*
Y040017D01*
Y040031D01*
Y040044D01*
Y040055D01*
X013582Y040065D01*
Y040074D01*
Y040082D01*
X013581Y040089D01*
Y040094D01*
Y040099D01*
X013580Y040103D01*
Y040105D01*
Y040108D01*
X013580Y040111D01*
Y040112D01*
X013577Y040123D01*
X013573Y040133D01*
X013570Y040141D01*
X013565Y040148D01*
X013561Y040154D01*
X013558Y040157D01*
X013555Y040160D01*
X013555Y040161D01*
X013546Y040166D01*
X013538Y040171D01*
X013530Y040174D01*
X013521Y040176D01*
X013514Y040178D01*
X013508Y040178D01*
D02*
G37*
G36*
X015497Y038700D02*
X015491D01*
X015481Y038699D01*
X015471Y038698D01*
X015463Y038695D01*
X015456Y038692D01*
X015450Y038689D01*
X015446Y038686D01*
X015442Y038685D01*
X015441Y038684D01*
X015434Y038679D01*
X015428Y038672D01*
X015422Y038665D01*
X015417Y038659D01*
X015414Y038653D01*
X015412Y038648D01*
X015410Y038646D01*
X015409Y038644D01*
X015408Y038639D01*
X015406Y038632D01*
X015405Y038625D01*
X015404Y038617D01*
X015402Y038600D01*
X015401Y038584D01*
X015400Y038568D01*
X015400Y038561D01*
Y038555D01*
Y038549D01*
Y038546D01*
Y038543D01*
Y038542D01*
Y038471D01*
X015582D01*
Y038534D01*
Y038546D01*
Y038558D01*
X015582Y038568D01*
Y038577D01*
X015581Y038586D01*
Y038593D01*
X015580Y038600D01*
Y038607D01*
X015580Y038612D01*
X015579Y038616D01*
Y038619D01*
X015578Y038622D01*
X015577Y038625D01*
Y038627D01*
X015575Y038638D01*
X015570Y038648D01*
X015566Y038657D01*
X015561Y038664D01*
X015557Y038670D01*
X015552Y038675D01*
X015550Y038678D01*
X015549Y038679D01*
X015540Y038686D01*
X015530Y038691D01*
X015521Y038695D01*
X015512Y038697D01*
X015504Y038698D01*
X015497Y038700D01*
D02*
G37*
G36*
X015508Y038087D02*
X015502D01*
X015492Y038086D01*
X015482Y038085D01*
X015474Y038083D01*
X015467Y038081D01*
X015462Y038078D01*
X015457Y038076D01*
X015455Y038074D01*
X015454Y038074D01*
X015447Y038068D01*
X015441Y038063D01*
X015437Y038056D01*
X015433Y038050D01*
X015430Y038045D01*
X015428Y038041D01*
X015428Y038038D01*
X015427Y038037D01*
X015425Y038032D01*
X015424Y038025D01*
X015423Y038017D01*
X015423Y038009D01*
X015421Y037990D01*
X015420Y037970D01*
Y037961D01*
Y037952D01*
X015419Y037943D01*
Y037936D01*
Y037930D01*
Y037925D01*
Y037922D01*
Y037921D01*
Y037825D01*
X015582D01*
Y037926D01*
Y037940D01*
Y037953D01*
Y037964D01*
X015582Y037974D01*
Y037983D01*
Y037990D01*
X015581Y037997D01*
Y038003D01*
Y038008D01*
X015580Y038011D01*
Y038014D01*
Y038017D01*
X015580Y038020D01*
Y038020D01*
X015577Y038031D01*
X015573Y038042D01*
X015570Y038050D01*
X015565Y038057D01*
X015561Y038063D01*
X015558Y038066D01*
X015555Y038069D01*
X015555Y038069D01*
X015546Y038075D01*
X015538Y038079D01*
X015530Y038083D01*
X015521Y038085D01*
X015514Y038086D01*
X015508Y038087D01*
D02*
G37*
G36*
X015304Y040720D02*
Y040544D01*
X015541Y040631D01*
X015304Y040720D01*
D02*
G37*
G36*
X015508Y040124D02*
X015502D01*
X015492Y040124D01*
X015482Y040122D01*
X015474Y040120D01*
X015467Y040118D01*
X015462Y040115D01*
X015457Y040113D01*
X015455Y040112D01*
X015454Y040111D01*
X015447Y040106D01*
X015441Y040100D01*
X015437Y040094D01*
X015433Y040088D01*
X015430Y040083D01*
X015428Y040079D01*
X015428Y040076D01*
X015427Y040074D01*
X015425Y040070D01*
X015424Y040063D01*
X015423Y040055D01*
X015423Y040047D01*
X015421Y040028D01*
X015420Y040008D01*
Y039998D01*
Y039989D01*
X015419Y039981D01*
Y039973D01*
Y039968D01*
Y039963D01*
Y039960D01*
Y039959D01*
Y039863D01*
X015582D01*
Y039963D01*
Y039977D01*
Y039990D01*
Y040002D01*
X015582Y040011D01*
Y040020D01*
Y040028D01*
X015581Y040035D01*
Y040040D01*
Y040045D01*
X015580Y040049D01*
Y040052D01*
Y040054D01*
X015580Y040057D01*
Y040058D01*
X015577Y040069D01*
X015573Y040079D01*
X015570Y040088D01*
X015565Y040095D01*
X015561Y040100D01*
X015558Y040104D01*
X015555Y040106D01*
X015555Y040107D01*
X015546Y040113D01*
X015538Y040117D01*
X015530Y040120D01*
X015521Y040122D01*
X015514Y040124D01*
X015508Y040124D01*
D02*
G37*
G36*
X015382Y037453D02*
X015357D01*
X015344Y037453D01*
X015332Y037452D01*
X015320Y037451D01*
X015310Y037450D01*
X015301Y037449D01*
X015292Y037448D01*
X015283Y037447D01*
X015276Y037446D01*
X015270Y037444D01*
X015265Y037443D01*
X015260Y037442D01*
X015257Y037441D01*
X015255Y037441D01*
X015253Y037440D01*
X015253D01*
X015237Y037434D01*
X015225Y037429D01*
X015214Y037423D01*
X015205Y037418D01*
X015199Y037414D01*
X015194Y037409D01*
X015192Y037407D01*
X015191Y037406D01*
X015185Y037398D01*
X015179Y037389D01*
X015174Y037380D01*
X015170Y037372D01*
X015167Y037365D01*
X015165Y037360D01*
X015165Y037355D01*
X015164Y037355D01*
Y037354D01*
X015163Y037349D01*
X015162Y037344D01*
X015160Y037332D01*
X015160Y037319D01*
X015159Y037305D01*
X015158Y037294D01*
Y037289D01*
Y037285D01*
Y037280D01*
Y037278D01*
Y037276D01*
Y037276D01*
Y037179D01*
X015582D01*
Y037237D01*
Y037251D01*
Y037264D01*
X015582Y037276D01*
Y037287D01*
X015581Y037296D01*
X015580Y037305D01*
X015580Y037313D01*
Y037319D01*
X015579Y037326D01*
X015578Y037330D01*
X015577Y037335D01*
X015577Y037337D01*
Y037340D01*
X015576Y037341D01*
Y037343D01*
X015573Y037356D01*
X015568Y037368D01*
X015563Y037378D01*
X015558Y037387D01*
X015553Y037394D01*
X015549Y037399D01*
X015546Y037402D01*
X015546Y037403D01*
X015536Y037412D01*
X015527Y037419D01*
X015516Y037425D01*
X015507Y037430D01*
X015498Y037434D01*
X015490Y037438D01*
X015488Y037439D01*
X015486Y037439D01*
X015484Y037440D01*
X015484D01*
X015476Y037442D01*
X015468Y037444D01*
X015449Y037448D01*
X015430Y037450D01*
X015412Y037452D01*
X015403D01*
X015396Y037453D01*
X015389D01*
X015382Y037453D01*
D02*
G37*
G36*
X014508Y039978D02*
X014502D01*
X014492Y039978D01*
X014482Y039976D01*
X014474Y039974D01*
X014467Y039972D01*
X014462Y039969D01*
X014457Y039967D01*
X014455Y039966D01*
X014454Y039965D01*
X014447Y039959D01*
X014441Y039954D01*
X014437Y039948D01*
X014433Y039941D01*
X014430Y039937D01*
X014428Y039932D01*
X014428Y039930D01*
X014427Y039928D01*
X014425Y039923D01*
X014424Y039916D01*
X014423Y039909D01*
X014423Y039901D01*
X014421Y039882D01*
X014420Y039862D01*
Y039852D01*
Y039843D01*
X014419Y039835D01*
Y039827D01*
Y039821D01*
Y039817D01*
Y039814D01*
Y039812D01*
Y039717D01*
X014582D01*
Y039817D01*
Y039831D01*
Y039844D01*
Y039855D01*
X014582Y039865D01*
Y039874D01*
Y039882D01*
X014581Y039889D01*
Y039894D01*
Y039899D01*
X014580Y039903D01*
Y039905D01*
Y039908D01*
X014580Y039911D01*
Y039912D01*
X014577Y039923D01*
X014573Y039933D01*
X014570Y039941D01*
X014565Y039948D01*
X014561Y039954D01*
X014558Y039957D01*
X014555Y039960D01*
X014555Y039961D01*
X014546Y039966D01*
X014538Y039971D01*
X014530Y039974D01*
X014521Y039976D01*
X014514Y039978D01*
X014508Y039978D01*
D02*
G37*
G36*
X020508Y039923D02*
X020502D01*
X020492Y039922D01*
X020482Y039921D01*
X020474Y039919D01*
X020467Y039917D01*
X020462Y039914D01*
X020457Y039912D01*
X020455Y039910D01*
X020454Y039910D01*
X020447Y039904D01*
X020441Y039898D01*
X020437Y039892D01*
X020433Y039886D01*
X020430Y039881D01*
X020428Y039877D01*
X020428Y039874D01*
X020427Y039873D01*
X020425Y039868D01*
X020424Y039861D01*
X020423Y039853D01*
X020423Y039845D01*
X020421Y039826D01*
X020420Y039806D01*
Y039796D01*
Y039787D01*
X020419Y039779D01*
Y039771D01*
Y039766D01*
Y039761D01*
Y039758D01*
Y039757D01*
Y039661D01*
X020582D01*
Y039762D01*
Y039776D01*
Y039789D01*
Y039800D01*
X020582Y039810D01*
Y039819D01*
Y039826D01*
X020581Y039833D01*
Y039839D01*
Y039844D01*
X020580Y039847D01*
Y039850D01*
Y039853D01*
X020580Y039855D01*
Y039856D01*
X020577Y039867D01*
X020573Y039878D01*
X020570Y039886D01*
X020565Y039893D01*
X020561Y039898D01*
X020558Y039902D01*
X020555Y039905D01*
X020555Y039905D01*
X020546Y039911D01*
X020538Y039915D01*
X020530Y039919D01*
X020521Y039921D01*
X020514Y039922D01*
X020508Y039923D01*
D02*
G37*
G36*
X020304Y040518D02*
Y040343D01*
X020541Y040429D01*
X020304Y040518D01*
D02*
G37*
G36*
X021497Y038707D02*
X021491D01*
X021481Y038707D01*
X021471Y038705D01*
X021463Y038703D01*
X021456Y038700D01*
X021450Y038697D01*
X021446Y038694D01*
X021442Y038693D01*
X021441Y038692D01*
X021434Y038687D01*
X021428Y038680D01*
X021422Y038673D01*
X021417Y038666D01*
X021414Y038661D01*
X021412Y038656D01*
X021410Y038653D01*
X021409Y038652D01*
X021408Y038646D01*
X021406Y038640D01*
X021405Y038633D01*
X021404Y038625D01*
X021402Y038608D01*
X021401Y038592D01*
X021400Y038576D01*
X021400Y038569D01*
Y038562D01*
Y038557D01*
Y038553D01*
Y038551D01*
Y038550D01*
Y038479D01*
X021582D01*
Y038542D01*
Y038554D01*
Y038566D01*
X021582Y038576D01*
Y038585D01*
X021581Y038594D01*
Y038601D01*
X021580Y038608D01*
Y038614D01*
X021580Y038619D01*
X021579Y038623D01*
Y038627D01*
X021578Y038630D01*
X021577Y038633D01*
Y038635D01*
X021575Y038646D01*
X021570Y038656D01*
X021566Y038665D01*
X021561Y038672D01*
X021557Y038678D01*
X021552Y038683D01*
X021550Y038686D01*
X021549Y038687D01*
X021540Y038694D01*
X021530Y038698D01*
X021521Y038703D01*
X021512Y038705D01*
X021504Y038706D01*
X021497Y038707D01*
D02*
G37*
G36*
X022497Y038507D02*
X022491D01*
X022481Y038507D01*
X022471Y038505D01*
X022463Y038503D01*
X022456Y038500D01*
X022450Y038497D01*
X022446Y038494D01*
X022442Y038493D01*
X022441Y038492D01*
X022434Y038487D01*
X022428Y038480D01*
X022422Y038473D01*
X022417Y038466D01*
X022414Y038461D01*
X022412Y038456D01*
X022410Y038453D01*
X022409Y038452D01*
X022408Y038446D01*
X022406Y038440D01*
X022405Y038433D01*
X022404Y038425D01*
X022402Y038408D01*
X022401Y038392D01*
X022400Y038376D01*
X022400Y038369D01*
Y038362D01*
Y038357D01*
Y038353D01*
Y038351D01*
Y038350D01*
Y038279D01*
X022582D01*
Y038342D01*
Y038354D01*
Y038366D01*
X022582Y038376D01*
Y038385D01*
X022581Y038394D01*
Y038401D01*
X022580Y038408D01*
Y038414D01*
X022580Y038419D01*
X022579Y038423D01*
Y038427D01*
X022578Y038430D01*
X022577Y038433D01*
Y038435D01*
X022575Y038446D01*
X022571Y038456D01*
X022566Y038465D01*
X022561Y038472D01*
X022557Y038478D01*
X022552Y038483D01*
X022550Y038486D01*
X022549Y038487D01*
X022540Y038494D01*
X022530Y038498D01*
X022521Y038503D01*
X022512Y038505D01*
X022504Y038506D01*
X022497Y038507D01*
D02*
G37*
G36*
X021304Y039287D02*
Y039111D01*
X021541Y039198D01*
X021304Y039287D01*
D02*
G37*
G36*
X022304Y039087D02*
Y038911D01*
X022541Y038998D01*
X022304Y039087D01*
D02*
G37*
G36*
X022382Y041834D02*
X022357D01*
X022344Y041833D01*
X022332Y041832D01*
X022320Y041832D01*
X022310Y041831D01*
X022301Y041830D01*
X022292Y041828D01*
X022283Y041828D01*
X022276Y041826D01*
X022270Y041825D01*
X022265Y041823D01*
X022260Y041823D01*
X022257Y041822D01*
X022255Y041821D01*
X022253Y041821D01*
X022253D01*
X022237Y041815D01*
X022225Y041809D01*
X022214Y041804D01*
X022205Y041798D01*
X022199Y041794D01*
X022194Y041790D01*
X022192Y041787D01*
X022191Y041787D01*
X022185Y041778D01*
X022179Y041770D01*
X022174Y041761D01*
X022170Y041753D01*
X022167Y041746D01*
X022165Y041740D01*
X022165Y041736D01*
X022164Y041735D01*
Y041735D01*
X022163Y041730D01*
X022162Y041724D01*
X022160Y041712D01*
X022160Y041699D01*
X022159Y041686D01*
X022158Y041675D01*
Y041669D01*
Y041665D01*
Y041661D01*
Y041658D01*
Y041657D01*
Y041656D01*
Y041560D01*
X022582D01*
Y041617D01*
Y041632D01*
Y041644D01*
X022582Y041656D01*
Y041667D01*
X022581Y041677D01*
X022580Y041686D01*
X022580Y041694D01*
Y041700D01*
X022579Y041706D01*
X022578Y041711D01*
X022577Y041715D01*
X022577Y041718D01*
Y041721D01*
X022576Y041722D01*
Y041723D01*
X022573Y041737D01*
X022568Y041748D01*
X022563Y041759D01*
X022558Y041767D01*
X022553Y041774D01*
X022549Y041780D01*
X022546Y041782D01*
X022546Y041784D01*
X022536Y041792D01*
X022527Y041800D01*
X022516Y041806D01*
X022507Y041811D01*
X022498Y041815D01*
X022490Y041818D01*
X022488Y041819D01*
X022486Y041820D01*
X022484Y041821D01*
X022484D01*
X022476Y041823D01*
X022468Y041825D01*
X022449Y041828D01*
X022430Y041830D01*
X022412Y041832D01*
X022403D01*
X022396Y041833D01*
X022389D01*
X022382Y041834D01*
D02*
G37*
G36*
X021382Y042034D02*
X021357D01*
X021344Y042033D01*
X021332Y042032D01*
X021320Y042032D01*
X021310Y042031D01*
X021301Y042030D01*
X021292Y042028D01*
X021283Y042028D01*
X021276Y042026D01*
X021270Y042025D01*
X021265Y042023D01*
X021260Y042023D01*
X021257Y042022D01*
X021255Y042021D01*
X021253Y042021D01*
X021253D01*
X021237Y042015D01*
X021225Y042009D01*
X021214Y042004D01*
X021205Y041998D01*
X021199Y041994D01*
X021194Y041990D01*
X021192Y041987D01*
X021191Y041987D01*
X021185Y041978D01*
X021179Y041970D01*
X021174Y041961D01*
X021170Y041953D01*
X021167Y041946D01*
X021165Y041940D01*
X021165Y041936D01*
X021164Y041935D01*
Y041935D01*
X021163Y041930D01*
X021162Y041924D01*
X021160Y041912D01*
X021160Y041899D01*
X021159Y041886D01*
X021158Y041875D01*
Y041869D01*
Y041865D01*
Y041861D01*
Y041858D01*
Y041857D01*
Y041856D01*
Y041760D01*
X021582D01*
Y041817D01*
Y041832D01*
Y041844D01*
X021582Y041856D01*
Y041867D01*
X021581Y041877D01*
X021580Y041886D01*
X021580Y041894D01*
Y041900D01*
X021579Y041906D01*
X021578Y041911D01*
X021577Y041915D01*
X021577Y041918D01*
Y041921D01*
X021576Y041922D01*
Y041923D01*
X021573Y041937D01*
X021568Y041948D01*
X021563Y041959D01*
X021558Y041967D01*
X021553Y041974D01*
X021549Y041980D01*
X021546Y041982D01*
X021546Y041984D01*
X021536Y041992D01*
X021527Y042000D01*
X021516Y042006D01*
X021507Y042011D01*
X021498Y042015D01*
X021490Y042018D01*
X021488Y042019D01*
X021486Y042020D01*
X021484Y042021D01*
X021484D01*
X021476Y042023D01*
X021468Y042025D01*
X021449Y042028D01*
X021430Y042030D01*
X021412Y042032D01*
X021403D01*
X021396Y042033D01*
X021389D01*
X021382Y042034D01*
D02*
G37*
G36*
X019508Y040123D02*
X019502D01*
X019492Y040122D01*
X019482Y040121D01*
X019474Y040119D01*
X019467Y040117D01*
X019462Y040114D01*
X019457Y040112D01*
X019455Y040110D01*
X019454Y040110D01*
X019447Y040104D01*
X019441Y040098D01*
X019437Y040092D01*
X019433Y040086D01*
X019430Y040081D01*
X019428Y040077D01*
X019428Y040074D01*
X019427Y040073D01*
X019425Y040068D01*
X019424Y040061D01*
X019423Y040053D01*
X019423Y040045D01*
X019421Y040026D01*
X019420Y040006D01*
Y039996D01*
Y039987D01*
X019419Y039979D01*
Y039971D01*
Y039966D01*
Y039961D01*
Y039958D01*
Y039957D01*
Y039861D01*
X019582D01*
Y039962D01*
Y039976D01*
Y039989D01*
Y040000D01*
X019582Y040010D01*
Y040019D01*
Y040026D01*
X019581Y040033D01*
Y040039D01*
Y040044D01*
X019580Y040047D01*
Y040050D01*
Y040053D01*
X019580Y040055D01*
Y040056D01*
X019577Y040067D01*
X019573Y040078D01*
X019570Y040086D01*
X019565Y040093D01*
X019561Y040098D01*
X019558Y040102D01*
X019555Y040105D01*
X019555Y040105D01*
X019546Y040111D01*
X019538Y040115D01*
X019530Y040119D01*
X019521Y040121D01*
X019514Y040122D01*
X019508Y040123D01*
D02*
G37*
G36*
X019304Y040718D02*
Y040543D01*
X019541Y040629D01*
X019304Y040718D01*
D02*
G37*
%LPD*%
M02*
