M48
;Layer_Color=9474304
;FILE_FORMAT=2:4
INCH
;TYPE=PLATED
T1F00S00C0.0200
T2F00S00C0.0362
T3F00S00C0.0433
T4F00S00C0.0512
T5F00S00C0.0906
T6F00S00C0.1440
;TYPE=NON_PLATED
T7F00S00C0.0630
T8F00S00C0.0709
%
T01
X018250Y012950
X017800Y013900
X024330Y013930
X032600Y014450
X033450Y015330
X033220Y013100
X033250Y015950
X033020Y017340
X031380Y017190
X031350Y018650
X032430Y018830
X032350Y019800
Y020800
X032450Y021750
X031750Y021300
X031800Y022260
X032050Y022700
X032475Y023225
X032550Y026000
X031700Y026050
X033100Y026500
X035150Y026150
X034310Y024940
X038000Y025150
X037980Y026840
X036950Y026650
X038900Y026050
X035950Y030150
X031750Y020250
X038820Y015950
X029050Y017450
X029800Y019400
X030650Y019500
X030700Y020200
X029850Y021100
X029300Y024250
X029900Y024850
X030450Y025250
X028700Y026190
X027850Y026800
X027600Y027500
X026700Y028400
X026350Y029300
X025550Y026950
X024550Y024300
X023750Y023850
X022400Y026160
X021100Y026700
X020500Y026750
X019900
X018150Y025400
X018550Y024500
X018000Y022500
X019550
X020370Y022190
X019530Y020080
X018500Y019250
X016800Y020900
X022450Y019950
X022350Y019150
X020410Y017450
X023200Y016200
X022350Y028650
X022250Y030100
X031200Y030350
X014550Y025100
X013570Y017010
X015350Y040800
X017450Y040850
X019350Y040900
X017950Y036200
X016950Y036550
Y031800
X020150Y032550
X020450Y034800
X025500Y035500
X025550Y032559
X030559Y032541
X027750Y038250
X025750Y038950
X026300Y040000
X025900Y042050
X025980Y043400
X024300Y037550
X037500Y040750
T02
X012567Y021969
X013354
Y022953
X012567
T03
X013350Y043150
X014350
X015350
X016350
X017350
X018350
X019350
X020350
X021350
X022350
T04
X014800Y011300
Y012300
X015800
X016800
Y011300
X015800
T05
X011500Y020091
Y024831
T06
X011500Y011500
X038500
X011500Y043500
X037500
T07
X011968Y033228
T08
X013740Y033228
M30
