G04 Layer_Physical_Order=1*
G04 Layer_Color=255*
%FSAX24Y24*%
%MOIN*%
G70*
G01*
G75*
%ADD10R,0.0453X0.0551*%
%ADD11O,0.0748X0.0236*%
%ADD12R,0.0472X0.0551*%
%ADD13R,0.0551X0.0453*%
%ADD14R,0.1260X0.0591*%
%ADD15R,0.0559X0.0445*%
%ADD16R,0.0354X0.0394*%
%ADD17R,0.0445X0.0559*%
%ADD18R,0.0551X0.0472*%
%ADD19R,0.2165X0.0787*%
%ADD20R,0.0512X0.0669*%
%ADD21R,0.1102X0.0945*%
%ADD22R,0.0453X0.0532*%
%ADD23O,0.0217X0.0689*%
%ADD24O,0.0689X0.0217*%
%ADD25R,0.0591X0.0236*%
%ADD26R,0.0591X0.0315*%
%ADD27R,0.1181X0.2362*%
%ADD28R,0.0315X0.0315*%
%ADD29R,0.0630X0.0551*%
%ADD30O,0.0669X0.0177*%
%ADD31C,0.0120*%
%ADD32C,0.0200*%
%ADD33R,0.2000X0.2000*%
%ADD34R,0.1750X0.1750*%
%ADD35R,0.0850X0.0850*%
%ADD36C,0.0850*%
%ADD37R,0.0750X0.0750*%
%ADD38C,0.0750*%
%ADD39C,0.1410*%
%ADD40C,0.0662*%
%ADD41C,0.0350*%
G36*
X033538Y031641D02*
Y031307D01*
X032805D01*
Y030819D01*
X032156D01*
X032156Y030819D01*
X032088Y030810D01*
X032025Y030783D01*
X031971Y030742D01*
X031971Y030742D01*
X031708Y030479D01*
X031698Y030476D01*
X031536Y030519D01*
X031528Y030539D01*
X031467Y030617D01*
X031389Y030678D01*
X031300Y030714D01*
Y030350D01*
Y029986D01*
X031389Y030022D01*
X031538Y029947D01*
Y028859D01*
X030265Y027585D01*
X030223Y027531D01*
X030197Y027468D01*
X030188Y027400D01*
X030188Y027400D01*
Y025521D01*
X030183Y025517D01*
X030122Y025439D01*
X030085Y025348D01*
X030084Y025342D01*
X030029Y025262D01*
X029875Y025246D01*
X029722Y025399D01*
Y028821D01*
X030398D01*
Y029254D01*
Y029536D01*
X029902D01*
Y029648D01*
X030398D01*
Y029648D01*
Y030103D01*
X030418Y030106D01*
X030481Y030132D01*
X030535Y030174D01*
X030675Y030314D01*
X030834Y030260D01*
X030835Y030252D01*
X030872Y030161D01*
X030933Y030083D01*
X031011Y030022D01*
X031100Y029986D01*
Y030350D01*
Y030714D01*
X031011Y030678D01*
X030972Y030647D01*
X030843Y030695D01*
X030822Y030713D01*
Y032269D01*
X030827Y032273D01*
X030831Y032278D01*
X032901D01*
X033538Y031641D01*
D02*
G37*
G36*
X037055Y028988D02*
Y028821D01*
X037938D01*
Y028590D01*
X037938Y028590D01*
X037947Y028522D01*
X037973Y028459D01*
X038015Y028405D01*
X038268Y028151D01*
Y027281D01*
X038243Y027252D01*
X038118Y027189D01*
X038080Y027204D01*
Y026840D01*
X037880D01*
Y027204D01*
X037791Y027168D01*
X037713Y027107D01*
X037652Y027029D01*
X037615Y026938D01*
X037602Y026840D01*
X037603Y026833D01*
X037473Y026703D01*
X037315Y026748D01*
X037278Y026839D01*
X037217Y026917D01*
X037139Y026978D01*
X037048Y027015D01*
X036950Y027028D01*
X036943Y027027D01*
X036935Y027035D01*
X036881Y027077D01*
X036818Y027103D01*
X036750Y027112D01*
X036750Y027112D01*
X035179D01*
X035122Y027251D01*
X036916Y029045D01*
X037055Y028988D01*
D02*
G37*
G36*
X038714Y031446D02*
X038657Y031307D01*
X038157D01*
X038157Y031307D01*
X038045D01*
Y031307D01*
X038007Y031307D01*
X037055D01*
Y030593D01*
Y030142D01*
X036969Y030031D01*
X036901Y030022D01*
X036838Y029996D01*
X036783Y029954D01*
X036783Y029954D01*
X034321Y027492D01*
X034182Y027549D01*
Y028821D01*
X034898D01*
Y029310D01*
X035372D01*
X035372Y029310D01*
X035440Y029319D01*
X035503Y029345D01*
X035557Y029387D01*
X035943Y029773D01*
X035950Y029772D01*
X036048Y029785D01*
X036139Y029822D01*
X036217Y029883D01*
X036278Y029961D01*
X036314Y030050D01*
X035950D01*
Y030150D01*
X035850D01*
Y030514D01*
X035761Y030478D01*
X035683Y030417D01*
X035622Y030339D01*
X035585Y030248D01*
X035572Y030150D01*
X035573Y030143D01*
X035263Y029834D01*
X034898D01*
Y030041D01*
Y030593D01*
Y031307D01*
X034062D01*
Y031750D01*
X034062Y031750D01*
X034053Y031818D01*
X034027Y031881D01*
X033985Y031935D01*
X033985Y031935D01*
X033781Y032140D01*
X033839Y032278D01*
X037882D01*
X038714Y031446D01*
D02*
G37*
G36*
X023178Y037549D02*
X022465Y036835D01*
X022423Y036781D01*
X022397Y036718D01*
X022388Y036650D01*
X022265Y036585D01*
X021602D01*
Y035870D01*
Y035870D01*
X022098D01*
Y035759D01*
X021602D01*
Y035516D01*
Y035309D01*
X020697D01*
X020697Y035309D01*
X020629Y035300D01*
X020566Y035274D01*
X020511Y035232D01*
X020511Y035232D01*
X020457Y035177D01*
X020450Y035178D01*
X020352Y035165D01*
X020261Y035128D01*
X020183Y035067D01*
X020122Y034989D01*
X020085Y034898D01*
X020072Y034800D01*
X020085Y034702D01*
X020122Y034611D01*
X020183Y034533D01*
X020261Y034472D01*
X020352Y034435D01*
X020450Y034422D01*
X020548Y034435D01*
X020639Y034472D01*
X020717Y034533D01*
X020778Y034611D01*
X020815Y034702D01*
X020826Y034785D01*
X021602D01*
Y034099D01*
X022082D01*
X022139Y033960D01*
X021991Y033812D01*
X019750D01*
X019750Y033812D01*
X019682Y033803D01*
X019619Y033777D01*
X019565Y033735D01*
X019565Y033735D01*
X018951Y033122D01*
X018812Y033179D01*
Y033841D01*
X019435Y034465D01*
X019435Y034465D01*
X019477Y034519D01*
X019503Y034582D01*
X019512Y034650D01*
Y036791D01*
X020409Y037688D01*
X023121D01*
X023178Y037549D01*
D02*
G37*
G36*
X023695Y034099D02*
X023788Y033987D01*
Y033259D01*
X022515Y031985D01*
X022473Y031931D01*
X022447Y031868D01*
X022438Y031800D01*
X022438Y031800D01*
Y030573D01*
X022350Y030515D01*
Y030100D01*
X022250D01*
Y030000D01*
X021886D01*
X021892Y029984D01*
X021805Y029838D01*
X021799Y029834D01*
X021648D01*
Y030041D01*
Y030593D01*
Y031307D01*
X020967D01*
X020960Y031361D01*
X020934Y031424D01*
X020893Y031478D01*
X020893Y031478D01*
X020412Y031959D01*
Y032279D01*
X020417Y032283D01*
X020478Y032361D01*
X020515Y032452D01*
X020528Y032550D01*
X020515Y032648D01*
X020478Y032739D01*
X020417Y032817D01*
X020339Y032878D01*
X020248Y032915D01*
X020150Y032928D01*
X020052Y032915D01*
X019961Y032878D01*
X019883Y032817D01*
X019822Y032739D01*
X019785Y032648D01*
X019772Y032550D01*
X019785Y032452D01*
X019822Y032361D01*
X019883Y032283D01*
X019888Y032279D01*
Y031850D01*
X019888Y031850D01*
X019897Y031782D01*
X019923Y031719D01*
X019965Y031665D01*
X020183Y031446D01*
X020126Y031307D01*
X019555D01*
Y030593D01*
Y030425D01*
X019212D01*
Y032641D01*
X019859Y033288D01*
X022100D01*
X022100Y033288D01*
X022168Y033297D01*
X022231Y033323D01*
X022285Y033365D01*
X022835Y033915D01*
X022835Y033915D01*
X022877Y033969D01*
X022903Y034032D01*
X022912Y034099D01*
X023695D01*
D02*
G37*
G36*
X026083Y029033D02*
X026161Y028972D01*
X026252Y028935D01*
X026350Y028922D01*
X026448Y028836D01*
Y028679D01*
X026433Y028667D01*
X026372Y028589D01*
X026335Y028498D01*
X026322Y028400D01*
X026335Y028302D01*
X026372Y028211D01*
X026433Y028133D01*
X026511Y028072D01*
X026602Y028035D01*
X026700Y028022D01*
X026805Y027884D01*
Y026924D01*
X026789Y026897D01*
X026660Y026802D01*
X026660Y026802D01*
X026047D01*
X026008Y026850D01*
X025550D01*
Y027050D01*
X025914D01*
X025878Y027139D01*
X025817Y027217D01*
X025812Y027221D01*
Y027500D01*
X025803Y027568D01*
X025777Y027631D01*
X025735Y027685D01*
X025735Y027685D01*
X025112Y028309D01*
Y028821D01*
X025898D01*
Y029040D01*
X025902Y029042D01*
X026048Y029078D01*
X026083Y029033D01*
D02*
G37*
G36*
X038188Y017675D02*
Y017139D01*
X035761Y014712D01*
X032871D01*
X032867Y014717D01*
X032789Y014778D01*
X032698Y014815D01*
X032600Y014828D01*
X032502Y014815D01*
X032411Y014778D01*
X032333Y014717D01*
X032272Y014639D01*
X032235Y014548D01*
X032222Y014450D01*
X032235Y014352D01*
X032272Y014261D01*
X032333Y014183D01*
X032411Y014122D01*
X032502Y014085D01*
X032600Y014072D01*
X032698Y014085D01*
X032789Y014122D01*
X032867Y014183D01*
X032871Y014188D01*
X035870D01*
X035870Y014188D01*
X035938Y014197D01*
X036001Y014223D01*
X036055Y014265D01*
X038635Y016845D01*
X038677Y016899D01*
X038703Y016962D01*
X038848Y016935D01*
Y016475D01*
X038820Y016328D01*
X038722Y016315D01*
X038631Y016278D01*
X038553Y016217D01*
X038492Y016139D01*
X038456Y016050D01*
X038820D01*
Y015950D01*
X038920D01*
Y015586D01*
X039009Y015622D01*
X039087Y015683D01*
X039148Y015761D01*
X039185Y015852D01*
X039200Y015857D01*
X039350Y015745D01*
Y012700D01*
X038600D01*
Y011500D01*
X038500D01*
Y011400D01*
X037300D01*
Y010650D01*
X017223D01*
X017196Y010697D01*
X017176Y010800D01*
X017244Y010856D01*
X017322Y010951D01*
X017369Y011038D01*
X020415D01*
X020415Y011038D01*
X020483Y011047D01*
X020546Y011073D01*
X020601Y011115D01*
X024361Y014874D01*
X024691D01*
X024754Y014724D01*
X024337Y014307D01*
X024330Y014308D01*
X024232Y014295D01*
X024141Y014258D01*
X024063Y014197D01*
X024002Y014119D01*
X023966Y014030D01*
X024330D01*
Y013830D01*
X023966D01*
X024002Y013741D01*
X024063Y013663D01*
X024068Y013659D01*
Y013270D01*
X024068Y013270D01*
X024077Y013202D01*
X024103Y013139D01*
X024145Y013085D01*
X025015Y012215D01*
X025015Y012215D01*
X025069Y012173D01*
X025132Y012147D01*
X025200Y012138D01*
X025264Y012015D01*
Y011924D01*
X026806D01*
Y012876D01*
X026632D01*
Y013606D01*
X027833D01*
Y014550D01*
X027971Y014608D01*
X028565Y014015D01*
X028565Y014015D01*
X028619Y013973D01*
X028682Y013947D01*
X028750Y013938D01*
X028750Y013938D01*
X029007D01*
Y013606D01*
X030103D01*
Y012926D01*
X029929D01*
Y011974D01*
X031471D01*
Y012838D01*
X032949D01*
X032953Y012833D01*
X033031Y012772D01*
X033120Y012736D01*
Y013100D01*
Y013464D01*
X033031Y013428D01*
X032953Y013367D01*
X032949Y013362D01*
X031280D01*
X031280Y013362D01*
X031212Y013353D01*
X031149Y013327D01*
X031095Y013285D01*
X031095Y013285D01*
X030849Y013040D01*
X030808Y012986D01*
X030783Y012926D01*
X030628D01*
Y013606D01*
X031573D01*
Y014794D01*
X029007D01*
Y014465D01*
X028857Y014463D01*
X026712Y016609D01*
Y016871D01*
X026851Y016928D01*
X028365Y015415D01*
X028365Y015415D01*
X028419Y015373D01*
X028482Y015347D01*
X028550Y015338D01*
X032821D01*
X033015Y015145D01*
X033015Y015145D01*
X033069Y015103D01*
X033132Y015077D01*
X033176Y015071D01*
X033183Y015063D01*
X033261Y015002D01*
X033352Y014965D01*
X033450Y014952D01*
X033548Y014965D01*
X033639Y015002D01*
X033717Y015063D01*
X033778Y015141D01*
X033815Y015232D01*
X033828Y015330D01*
X033815Y015428D01*
X033778Y015519D01*
X033717Y015597D01*
X033669Y015634D01*
X033578Y015761D01*
X033615Y015852D01*
X033628Y015950D01*
X033752Y016088D01*
X036280D01*
X036280Y016088D01*
X036348Y016097D01*
X036411Y016123D01*
X036465Y016165D01*
X038038Y017737D01*
X038188Y017675D01*
D02*
G37*
G36*
X014538Y013541D02*
Y012869D01*
X014451Y012822D01*
X014356Y012744D01*
X014278Y012649D01*
X014220Y012540D01*
X014184Y012423D01*
X014172Y012300D01*
X014184Y012177D01*
X014220Y012060D01*
X014278Y011951D01*
X014316Y011905D01*
X014342Y011800D01*
X014316Y011695D01*
X014278Y011649D01*
X014220Y011540D01*
X014184Y011423D01*
X014182Y011400D01*
X014800D01*
Y011200D01*
X014182D01*
X014184Y011177D01*
X014220Y011060D01*
X014278Y010951D01*
X014356Y010856D01*
X014424Y010800D01*
X014404Y010697D01*
X014377Y010650D01*
X012700D01*
Y011400D01*
X011500D01*
Y011500D01*
X011400D01*
Y012700D01*
X010600D01*
Y017283D01*
X010739Y017341D01*
X014538Y013541D01*
D02*
G37*
G36*
X034823Y026340D02*
X034822Y026339D01*
X034785Y026248D01*
X034772Y026150D01*
X034785Y026052D01*
X034822Y025961D01*
X034883Y025883D01*
X034961Y025822D01*
X035052Y025785D01*
X035150Y025772D01*
X035188Y025631D01*
Y024350D01*
X035188Y024350D01*
X035197Y024282D01*
X035223Y024219D01*
X035265Y024165D01*
X036315Y023115D01*
X036315Y023115D01*
X036369Y023073D01*
X036380Y023068D01*
X036438Y023009D01*
X036458Y022892D01*
X036454Y022883D01*
X036443Y022800D01*
X036454Y022717D01*
X036486Y022640D01*
X036527Y022550D01*
X036486Y022460D01*
X036454Y022383D01*
X036443Y022300D01*
X036454Y022217D01*
X036486Y022140D01*
X036527Y022050D01*
X036486Y021960D01*
X036454Y021883D01*
X036443Y021800D01*
X036454Y021717D01*
X036486Y021640D01*
X036527Y021550D01*
X036486Y021460D01*
X036454Y021383D01*
X036443Y021300D01*
X036454Y021217D01*
X036486Y021140D01*
X036527Y021050D01*
X036486Y020960D01*
X036454Y020883D01*
X036443Y020800D01*
X036454Y020717D01*
X036486Y020640D01*
X036527Y020550D01*
X036486Y020460D01*
X036454Y020383D01*
X036443Y020300D01*
X036454Y020217D01*
X036486Y020140D01*
X036527Y020050D01*
X036486Y019960D01*
X036454Y019883D01*
X036443Y019800D01*
X036454Y019717D01*
X036486Y019640D01*
X036527Y019550D01*
X036486Y019460D01*
X036454Y019383D01*
X036443Y019300D01*
X036454Y019217D01*
X036486Y019140D01*
X036527Y019050D01*
X036486Y018960D01*
X036454Y018883D01*
X036443Y018800D01*
X036454Y018717D01*
X036486Y018640D01*
X036527Y018550D01*
X036486Y018460D01*
X036454Y018383D01*
X036443Y018300D01*
X036454Y018217D01*
X036486Y018140D01*
X036537Y018073D01*
X036544Y017895D01*
X035561Y016912D01*
X033325D01*
X033274Y017062D01*
X033287Y017073D01*
X033348Y017151D01*
X033385Y017242D01*
X033398Y017340D01*
X033385Y017438D01*
X033348Y017529D01*
X033287Y017607D01*
X033209Y017668D01*
X033118Y017705D01*
X033020Y017718D01*
X032922Y017705D01*
X032831Y017668D01*
X032753Y017607D01*
X032749Y017602D01*
X031969D01*
X031439Y018132D01*
X031442Y018192D01*
X031484Y018299D01*
X031539Y018322D01*
X031617Y018383D01*
X031678Y018461D01*
X031714Y018550D01*
X030986D01*
X031001Y018512D01*
X030938Y018387D01*
X030926Y018377D01*
X030776Y018405D01*
Y018536D01*
X030335D01*
X029969Y018902D01*
X029988Y019062D01*
X030001Y019082D01*
X030067Y019133D01*
X030128Y019211D01*
X030136Y019231D01*
X030172Y019255D01*
X030292Y019282D01*
X030312Y019278D01*
X030319Y019273D01*
X030367Y019253D01*
X030383Y019233D01*
X030461Y019172D01*
X030552Y019135D01*
X030650Y019122D01*
X030748Y019135D01*
X030839Y019172D01*
X030917Y019233D01*
X030978Y019311D01*
X031015Y019402D01*
X031028Y019500D01*
X031015Y019598D01*
X030978Y019689D01*
X030944Y019733D01*
X030923Y019787D01*
X030958Y019925D01*
X030967Y019933D01*
X031028Y020011D01*
X031065Y020102D01*
X031078Y020200D01*
X031065Y020298D01*
X031028Y020389D01*
X030967Y020467D01*
X030889Y020528D01*
X030798Y020565D01*
X030745Y020724D01*
X031232Y021211D01*
X031292Y021208D01*
X031399Y021166D01*
X031422Y021111D01*
X031483Y021033D01*
X031561Y020972D01*
X031652Y020935D01*
X031750Y020922D01*
X031848Y020935D01*
X031975Y020825D01*
X031972Y020800D01*
X031982Y020722D01*
X031937Y020667D01*
X031860Y020610D01*
X031848Y020615D01*
X031750Y020628D01*
X031652Y020615D01*
X031561Y020578D01*
X031483Y020517D01*
X031422Y020439D01*
X031385Y020348D01*
X031372Y020250D01*
X031385Y020152D01*
X031422Y020061D01*
X031483Y019983D01*
X031561Y019922D01*
X031652Y019885D01*
X031750Y019872D01*
X031831Y019882D01*
X031876Y019864D01*
X031975Y019775D01*
X031985Y019702D01*
X032022Y019611D01*
X032083Y019533D01*
X032161Y019472D01*
X032252Y019435D01*
X032306Y019428D01*
X032366Y019344D01*
X032351Y019278D01*
X032316Y019189D01*
X032241Y019158D01*
X032163Y019097D01*
X032102Y019019D01*
X032065Y018928D01*
X032052Y018830D01*
X032065Y018732D01*
X032102Y018641D01*
X032163Y018563D01*
X032241Y018502D01*
X032332Y018465D01*
X032430Y018452D01*
X032528Y018465D01*
X032597Y018493D01*
X032658Y018457D01*
X032706Y018400D01*
X033280D01*
X033839D01*
X033814Y018460D01*
X033763Y018527D01*
Y018573D01*
X033814Y018640D01*
X033846Y018717D01*
X033857Y018800D01*
X033846Y018883D01*
X033814Y018960D01*
X033763Y019027D01*
Y019073D01*
X033814Y019140D01*
X033846Y019217D01*
X033857Y019300D01*
X033846Y019383D01*
X033814Y019460D01*
X033763Y019527D01*
Y019573D01*
X033814Y019640D01*
X033846Y019717D01*
X033857Y019800D01*
X033846Y019883D01*
X033814Y019960D01*
X033773Y020050D01*
X033814Y020140D01*
X033846Y020217D01*
X033857Y020300D01*
X033846Y020383D01*
X033814Y020460D01*
X033763Y020527D01*
Y020573D01*
X033814Y020640D01*
X033846Y020717D01*
X033857Y020800D01*
X033846Y020883D01*
X033814Y020960D01*
X033763Y021027D01*
Y021073D01*
X033814Y021140D01*
X033846Y021217D01*
X033857Y021300D01*
X033846Y021383D01*
X033814Y021460D01*
X033763Y021527D01*
Y021573D01*
X033814Y021640D01*
X033846Y021717D01*
X033857Y021800D01*
X033846Y021883D01*
X033814Y021960D01*
X033763Y022027D01*
Y022073D01*
X033814Y022140D01*
X033846Y022217D01*
X033857Y022300D01*
X033846Y022383D01*
X033814Y022460D01*
X033763Y022527D01*
Y022573D01*
X033814Y022640D01*
X033846Y022717D01*
X033857Y022800D01*
X033846Y022883D01*
X033814Y022960D01*
X033763Y023027D01*
Y023073D01*
X033814Y023140D01*
X033846Y023217D01*
X033857Y023300D01*
X033846Y023383D01*
X033814Y023460D01*
X033763Y023527D01*
Y023573D01*
X033814Y023640D01*
X033846Y023717D01*
X033857Y023800D01*
X033846Y023883D01*
X033814Y023960D01*
X033763Y024027D01*
X033696Y024078D01*
X033619Y024110D01*
X033536Y024121D01*
X033024D01*
X032941Y024110D01*
X032864Y024078D01*
X032843Y024062D01*
X032529D01*
X032472Y024201D01*
X034710Y026440D01*
X034823Y026340D01*
D02*
G37*
G36*
X028305Y029088D02*
Y028821D01*
X028978D01*
Y026637D01*
X028962Y026617D01*
X028828Y026543D01*
X028798Y026555D01*
X028700Y026568D01*
X028602Y026555D01*
X028511Y026518D01*
X028433Y026457D01*
X028372Y026379D01*
X028335Y026288D01*
X028322Y026190D01*
X028335Y026092D01*
X028357Y026038D01*
Y025576D01*
X028112D01*
Y026529D01*
X028117Y026533D01*
X028178Y026611D01*
X028214Y026700D01*
X027850D01*
Y026900D01*
X028214D01*
X028178Y026989D01*
X028117Y027067D01*
X028039Y027128D01*
X027991Y027147D01*
X027931Y027283D01*
X027928Y027307D01*
X027931Y027319D01*
X027965Y027402D01*
X027978Y027500D01*
X027965Y027598D01*
X027928Y027689D01*
X027867Y027767D01*
X027862Y027771D01*
Y028841D01*
X028166Y029145D01*
X028305Y029088D01*
D02*
G37*
G36*
X013735Y026724D02*
X014765D01*
Y026724D01*
X014793Y026736D01*
X014915Y026615D01*
X014915Y026615D01*
X014969Y026573D01*
X015029Y026548D01*
Y026324D01*
X015029D01*
Y026176D01*
X015029D01*
X015029Y026174D01*
Y025362D01*
X014821D01*
X014817Y025367D01*
X014739Y025428D01*
X014650Y025464D01*
Y025100D01*
Y024711D01*
X014708Y024678D01*
X014767Y024622D01*
Y024153D01*
X014767D01*
X014737Y024016D01*
X014729D01*
Y023812D01*
X013164D01*
X013164Y023812D01*
X013096Y023803D01*
X013033Y023777D01*
X012978Y023735D01*
X012978Y023735D01*
X012711Y023468D01*
X012706Y023471D01*
X012567Y023489D01*
X012428Y023471D01*
X012299Y023417D01*
X012188Y023332D01*
X012103Y023221D01*
X012049Y023092D01*
X012031Y022953D01*
X012049Y022815D01*
X012103Y022685D01*
X012188Y022574D01*
X012215Y022554D01*
Y022368D01*
X012188Y022348D01*
X012103Y022237D01*
X012049Y022108D01*
X012031Y021969D01*
X012049Y021830D01*
X012103Y021701D01*
X012188Y021590D01*
X012264Y021532D01*
Y020823D01*
X012215Y020787D01*
X012114Y020758D01*
X012005Y020847D01*
X011848Y020931D01*
X011677Y020983D01*
X011600Y020991D01*
Y020091D01*
Y019191D01*
X011677Y019199D01*
X011848Y019251D01*
X012005Y019335D01*
X012143Y019448D01*
X012256Y019586D01*
X012340Y019743D01*
X012363Y019820D01*
X012535Y019879D01*
X012597Y019832D01*
Y019371D01*
X012420D01*
Y018526D01*
Y017829D01*
X012597D01*
Y017680D01*
X012608Y017602D01*
X012638Y017529D01*
X012686Y017466D01*
X013199Y016953D01*
X013205Y016912D01*
X013242Y016821D01*
X013303Y016743D01*
X013381Y016682D01*
X013470Y016646D01*
Y017010D01*
X013570D01*
Y017110D01*
X013934D01*
X013898Y017199D01*
X013837Y017277D01*
X013759Y017338D01*
X013668Y017375D01*
X013627Y017381D01*
X013329Y017679D01*
X013380Y017829D01*
X013380D01*
Y018526D01*
Y019371D01*
X013203D01*
Y020050D01*
X013203Y020050D01*
X013192Y020128D01*
X013162Y020201D01*
X013114Y020264D01*
X013114Y020264D01*
X012870Y020508D01*
Y021432D01*
X013010Y021513D01*
X013092Y021464D01*
Y021046D01*
X013092Y021046D01*
X013101Y020978D01*
X013127Y020915D01*
X013169Y020860D01*
X014111Y019918D01*
X014111Y019918D01*
X014165Y019876D01*
X014229Y019850D01*
X014296Y019841D01*
X014620D01*
Y019608D01*
X016280D01*
Y020599D01*
X014620D01*
Y020366D01*
X014405D01*
X013617Y021154D01*
Y021503D01*
X013622Y021505D01*
X013733Y021590D01*
X013818Y021701D01*
X013872Y021830D01*
X013890Y021969D01*
X013874Y022088D01*
X013886Y022125D01*
X013980Y022238D01*
X014729D01*
Y022034D01*
X014737D01*
X014767Y021897D01*
X014767D01*
Y021103D01*
X016033D01*
Y021103D01*
X016183Y021146D01*
X016423Y020907D01*
X016422Y020900D01*
X016435Y020802D01*
X016472Y020711D01*
X016533Y020633D01*
X016611Y020572D01*
X016700Y020536D01*
Y020900D01*
X016800D01*
Y021000D01*
X017164D01*
X017128Y021089D01*
X017067Y021167D01*
X016989Y021228D01*
X016898Y021265D01*
X016800Y021278D01*
X016793Y021277D01*
X016385Y021685D01*
X016331Y021727D01*
X016268Y021753D01*
X016200Y021762D01*
X016200Y021762D01*
X016070D01*
X016060Y021799D01*
X016040Y021894D01*
X016121Y022034D01*
X016271D01*
Y022238D01*
X017729D01*
X017733Y022233D01*
X017811Y022172D01*
X017902Y022135D01*
X018000Y022122D01*
X018098Y022135D01*
X018189Y022172D01*
X018267Y022233D01*
X018328Y022311D01*
X018361Y022392D01*
X018370Y022404D01*
X018525Y022467D01*
X018538Y022459D01*
Y021800D01*
X018538Y021800D01*
X018547Y021732D01*
X018573Y021669D01*
X018615Y021615D01*
X019235Y020994D01*
X019235Y020994D01*
X019289Y020953D01*
X019352Y020927D01*
X019420Y020918D01*
X019420Y020918D01*
X020778D01*
X020801Y020887D01*
X020804Y020861D01*
X020754Y020712D01*
X020699Y020670D01*
X020699Y020670D01*
X020315Y020285D01*
X020273Y020231D01*
X020247Y020168D01*
X020238Y020100D01*
X020238Y020100D01*
Y019350D01*
X020238Y019350D01*
X020247Y019282D01*
X020273Y019219D01*
X020315Y019165D01*
X020715Y018765D01*
X020715Y018765D01*
X020769Y018723D01*
X020832Y018697D01*
X020900Y018688D01*
X020920D01*
Y018528D01*
Y018353D01*
X021400D01*
Y018153D01*
X020920D01*
Y017831D01*
X021214D01*
X021271Y017692D01*
X020926Y017347D01*
X020784Y017417D01*
X020788Y017450D01*
X020775Y017548D01*
X020738Y017639D01*
X020677Y017717D01*
X020599Y017778D01*
X020510Y017814D01*
Y017450D01*
X020310D01*
Y017814D01*
X020221Y017778D01*
X020143Y017717D01*
X020139Y017712D01*
X018109D01*
X018021Y017826D01*
Y017970D01*
X018021D01*
Y018930D01*
X018147Y018988D01*
X018229D01*
X018233Y018983D01*
X018311Y018922D01*
X018402Y018885D01*
X018500Y018872D01*
X018598Y018885D01*
X018689Y018922D01*
X018767Y018983D01*
X018828Y019061D01*
X018865Y019152D01*
X018878Y019250D01*
X018865Y019348D01*
X018828Y019439D01*
X018767Y019517D01*
X018689Y019578D01*
X018598Y019615D01*
X018500Y019628D01*
X018402Y019615D01*
X018311Y019578D01*
X018233Y019517D01*
X018229Y019512D01*
X017700D01*
X017700Y019512D01*
X017632Y019503D01*
X017569Y019477D01*
X017515Y019435D01*
X017515Y019435D01*
X017413Y019334D01*
X017371Y019280D01*
X017345Y019216D01*
X017336Y019148D01*
X017336Y019148D01*
Y018930D01*
X017164D01*
Y019661D01*
X017320Y019818D01*
X019259D01*
X019263Y019813D01*
X019341Y019752D01*
X019432Y019715D01*
X019530Y019702D01*
X019628Y019715D01*
X019719Y019752D01*
X019797Y019813D01*
X019858Y019891D01*
X019895Y019982D01*
X019908Y020080D01*
X019895Y020178D01*
X019858Y020269D01*
X019797Y020347D01*
X019719Y020408D01*
X019628Y020445D01*
X019530Y020458D01*
X019432Y020445D01*
X019341Y020408D01*
X019263Y020347D01*
X019259Y020342D01*
X017212D01*
X017212Y020342D01*
X017144Y020333D01*
X017080Y020307D01*
X017026Y020265D01*
X017026Y020265D01*
X016716Y019955D01*
X016674Y019901D01*
X016648Y019838D01*
X016639Y019770D01*
X016639Y019770D01*
Y018930D01*
X016479D01*
Y018712D01*
X016280D01*
Y018945D01*
X014620D01*
Y017955D01*
X016280D01*
Y018188D01*
X016479D01*
Y017970D01*
X016479D01*
X016479Y017860D01*
X016470Y017710D01*
X016470Y017679D01*
X016467Y016726D01*
X016464D01*
Y015774D01*
X018006D01*
Y016874D01*
X018021D01*
Y017188D01*
X020139D01*
X020143Y017183D01*
X020221Y017122D01*
X020312Y017085D01*
X020410Y017072D01*
X020443Y017076D01*
X020513Y016934D01*
X018291Y014712D01*
X016550D01*
X016550Y014712D01*
X016482Y014703D01*
X016419Y014677D01*
X016365Y014635D01*
X016365Y014635D01*
X015615Y013885D01*
X015573Y013831D01*
X015547Y013768D01*
X015538Y013700D01*
X015538Y013700D01*
Y012869D01*
X015451Y012822D01*
X015356Y012744D01*
X015244D01*
X015149Y012822D01*
X015062Y012869D01*
Y013650D01*
X015053Y013718D01*
X015027Y013781D01*
X014985Y013835D01*
X014985Y013835D01*
X010762Y018059D01*
Y019332D01*
X010912Y019403D01*
X010995Y019335D01*
X011152Y019251D01*
X011323Y019199D01*
X011400Y019191D01*
Y020091D01*
Y020991D01*
X011323Y020983D01*
X011152Y020931D01*
X010995Y020847D01*
X010912Y020779D01*
X010762Y020850D01*
Y024072D01*
X010912Y024143D01*
X010995Y024075D01*
X011152Y023991D01*
X011323Y023939D01*
X011400Y023932D01*
Y024831D01*
Y025731D01*
X011323Y025723D01*
X011152Y025671D01*
X010995Y025587D01*
X010912Y025520D01*
X010762Y025590D01*
Y026491D01*
X010996Y026724D01*
X011615D01*
Y026938D01*
X013735D01*
Y026724D01*
D02*
G37*
G36*
X019450Y042583D02*
X019500Y042590D01*
X019640Y042648D01*
X019760Y042740D01*
X019775Y042759D01*
X019925D01*
X019940Y042740D01*
X020060Y042648D01*
X020088Y042636D01*
Y041321D01*
X019874D01*
Y040939D01*
X019724Y040929D01*
X019715Y040998D01*
X019678Y041089D01*
X019617Y041167D01*
X019539Y041228D01*
X019448Y041265D01*
X019350Y041278D01*
X019252Y041265D01*
X019161Y041228D01*
X019083Y041167D01*
X019022Y041089D01*
X018985Y040998D01*
X018976Y040929D01*
X018826Y040939D01*
Y041326D01*
X018612D01*
Y042636D01*
X018640Y042648D01*
X018760Y042740D01*
X018775Y042759D01*
X018925D01*
X018940Y042740D01*
X019060Y042648D01*
X019200Y042590D01*
X019250Y042583D01*
Y043150D01*
X019450D01*
Y042583D01*
D02*
G37*
G36*
X024482Y044253D02*
X024419Y044227D01*
X024365Y044185D01*
X024365Y044185D01*
X023865Y043685D01*
X023823Y043631D01*
X023797Y043568D01*
X023788Y043500D01*
X023788Y043500D01*
Y041850D01*
X023788Y041850D01*
X023797Y041782D01*
X023823Y041719D01*
X023865Y041665D01*
X023975Y041554D01*
X023977Y041512D01*
X023934Y041383D01*
X023919Y041377D01*
X023865Y041335D01*
X023865Y041335D01*
X023588Y041059D01*
X023562Y041025D01*
X023527D01*
X023452Y041015D01*
X023382Y040986D01*
X023321Y040940D01*
X023275Y040879D01*
X023246Y040809D01*
X023236Y040734D01*
X023246Y040659D01*
X023260Y040625D01*
X023193Y040484D01*
X022826D01*
Y041321D01*
X022612D01*
Y042575D01*
X022925D01*
Y043725D01*
X021775D01*
Y043725D01*
X021649Y043667D01*
X021625Y043658D01*
X021518Y043703D01*
X021285Y043935D01*
X021231Y043977D01*
X021168Y044003D01*
X021100Y044012D01*
X021100Y044012D01*
X019950D01*
X019950Y044012D01*
X019882Y044003D01*
X019819Y043977D01*
X019765Y043935D01*
X019765Y043935D01*
X019650Y043821D01*
X019444Y043827D01*
X019335Y043935D01*
X019281Y043977D01*
X019218Y044003D01*
X019150Y044012D01*
X019150Y044012D01*
X017950D01*
X017950Y044012D01*
X017882Y044003D01*
X017819Y043977D01*
X017765Y043935D01*
X017765Y043935D01*
X017628Y043799D01*
X017420Y043801D01*
X017285Y043935D01*
X017231Y043977D01*
X017168Y044003D01*
X017100Y044012D01*
X017100Y044012D01*
X015950D01*
X015950Y044012D01*
X015882Y044003D01*
X015819Y043977D01*
X015765Y043935D01*
X015765Y043935D01*
X015528Y043699D01*
X015500Y043710D01*
X015450Y043717D01*
Y043150D01*
Y042583D01*
X015500Y042590D01*
X015640Y042648D01*
X015760Y042740D01*
X015775Y042759D01*
X015925D01*
X015940Y042740D01*
X016060Y042648D01*
X016088Y042636D01*
Y041326D01*
X015874D01*
Y040842D01*
X015864Y040838D01*
X015724Y040829D01*
X015715Y040898D01*
X015678Y040989D01*
X015617Y041067D01*
X015539Y041128D01*
X015448Y041165D01*
X015350Y041178D01*
X015252Y041165D01*
X015161Y041128D01*
X015083Y041067D01*
X015022Y040989D01*
X014985Y040898D01*
X014976Y040829D01*
X014826Y040839D01*
Y041321D01*
X014612D01*
Y042636D01*
X014640Y042648D01*
X014760Y042740D01*
X014775Y042759D01*
X014925D01*
X014940Y042740D01*
X015060Y042648D01*
X015200Y042590D01*
X015250Y042583D01*
Y043150D01*
Y043717D01*
X015200Y043710D01*
X015172Y043699D01*
X014885Y043985D01*
X014831Y044027D01*
X014768Y044053D01*
X014700Y044062D01*
X014700Y044062D01*
X014000D01*
X014000Y044062D01*
X013932Y044053D01*
X013869Y044027D01*
X013815Y043985D01*
X013815Y043985D01*
X013528Y043699D01*
X013500Y043710D01*
X013450Y043717D01*
Y043150D01*
Y042583D01*
X013500Y042590D01*
X013640Y042648D01*
X013760Y042740D01*
X013775Y042759D01*
X013925D01*
X013940Y042740D01*
X014060Y042648D01*
X014088Y042636D01*
Y041321D01*
X013874D01*
Y040468D01*
Y039779D01*
X014826D01*
Y039943D01*
X015874D01*
Y039785D01*
X016826D01*
Y040474D01*
Y041326D01*
X016612D01*
Y042636D01*
X016640Y042648D01*
X016760Y042740D01*
X016775Y042759D01*
X016925D01*
X016940Y042740D01*
X017060Y042648D01*
X017200Y042590D01*
X017250Y042583D01*
Y043150D01*
X017450D01*
Y042583D01*
X017500Y042590D01*
X017640Y042648D01*
X017760Y042740D01*
X017775Y042759D01*
X017925D01*
X017940Y042740D01*
X018060Y042648D01*
X018088Y042636D01*
Y041326D01*
X017874D01*
Y041162D01*
X017659D01*
X017639Y041178D01*
X017548Y041215D01*
X017450Y041228D01*
X017352Y041215D01*
X017261Y041178D01*
X017183Y041117D01*
X017122Y041039D01*
X017085Y040948D01*
X017072Y040850D01*
X017085Y040752D01*
X017122Y040661D01*
X017183Y040583D01*
X017261Y040522D01*
X017352Y040485D01*
X017450Y040472D01*
X017548Y040485D01*
X017639Y040522D01*
X017717Y040583D01*
X017724Y040592D01*
X017874Y040541D01*
Y039785D01*
X018088D01*
Y037609D01*
X017765Y037285D01*
X017723Y037231D01*
X017697Y037168D01*
X017688Y037100D01*
X017688Y037100D01*
Y036471D01*
X017683Y036467D01*
X017622Y036389D01*
X017585Y036298D01*
X017572Y036200D01*
X017585Y036102D01*
X017622Y036011D01*
X017683Y035933D01*
X017688Y035929D01*
Y035076D01*
X017218D01*
Y036283D01*
X017278Y036361D01*
X017315Y036452D01*
X017328Y036550D01*
X017315Y036648D01*
X017278Y036739D01*
X017217Y036817D01*
X017139Y036878D01*
X017048Y036915D01*
X016950Y036928D01*
X016852Y036915D01*
X016761Y036878D01*
X016683Y036817D01*
X016622Y036739D01*
X016585Y036648D01*
X016572Y036550D01*
X016585Y036452D01*
X016622Y036361D01*
X016683Y036283D01*
X016693Y036274D01*
Y035076D01*
X016529D01*
Y035054D01*
X016379Y034992D01*
X015713Y035658D01*
X015659Y035699D01*
X015596Y035725D01*
X015528Y035734D01*
X015528Y035734D01*
X015121D01*
Y036145D01*
X013619D01*
Y035734D01*
X012720D01*
Y036145D01*
X011217D01*
Y034800D01*
X012720D01*
Y035210D01*
X013619D01*
Y034800D01*
X015121D01*
Y035210D01*
X015419D01*
X016215Y034415D01*
X016215Y034415D01*
X016269Y034373D01*
X016332Y034347D01*
X016400Y034338D01*
X016529Y034284D01*
Y034124D01*
X017382D01*
Y033226D01*
X016579D01*
Y033012D01*
X015550D01*
X015550Y033012D01*
X015482Y033003D01*
X015419Y032977D01*
X015365Y032935D01*
X015365Y032935D01*
X014991Y032562D01*
X013973D01*
X013944Y032712D01*
X014020Y032744D01*
X014136Y032833D01*
X014224Y032948D01*
X014280Y033083D01*
X014299Y033228D01*
X014280Y033373D01*
X014224Y033508D01*
X014136Y033623D01*
X014020Y033712D01*
X013885Y033768D01*
X013740Y033787D01*
X013595Y033768D01*
X013461Y033712D01*
X013345Y033623D01*
X013256Y033508D01*
X013200Y033373D01*
X013181Y033228D01*
X013200Y033083D01*
X013256Y032948D01*
X013345Y032833D01*
X013461Y032744D01*
X013537Y032712D01*
X013507Y032562D01*
X013285D01*
X013285Y032562D01*
X013217Y032553D01*
X013153Y032527D01*
X013099Y032485D01*
X013099Y032485D01*
X012270Y031656D01*
X011217D01*
Y030311D01*
X012720D01*
Y031364D01*
X013393Y032038D01*
X015100D01*
X015100Y032038D01*
X015168Y032047D01*
X015231Y032073D01*
X015285Y032115D01*
X015659Y032488D01*
X016579D01*
Y032274D01*
X016743D01*
Y032114D01*
X016683Y032067D01*
X016622Y031989D01*
X016585Y031898D01*
X016572Y031800D01*
X016585Y031702D01*
X016622Y031611D01*
X016683Y031533D01*
X016761Y031472D01*
X016852Y031435D01*
X016950Y031422D01*
X017048Y031435D01*
X017139Y031472D01*
X017217Y031533D01*
X017278Y031611D01*
X017282Y031622D01*
X017432Y031592D01*
Y030473D01*
X016681Y029722D01*
X016571Y029626D01*
Y029626D01*
X016571Y029626D01*
X015029D01*
Y028674D01*
X015029Y028674D01*
X014996Y028567D01*
X014991Y028535D01*
X014793Y028535D01*
X014765Y028673D01*
Y028872D01*
X014350D01*
Y028496D01*
X014659D01*
X014765Y028496D01*
X014793Y028358D01*
Y027814D01*
X014765Y027676D01*
X013735D01*
Y027462D01*
X011615D01*
Y027676D01*
X010600D01*
Y028496D01*
X011000D01*
Y028972D01*
Y029447D01*
X010600D01*
Y042425D01*
X011400D01*
Y043500D01*
X011600D01*
Y042425D01*
X012575D01*
Y042888D01*
X012836D01*
X012848Y042860D01*
X012940Y042740D01*
X013060Y042648D01*
X013200Y042590D01*
X013250Y042583D01*
Y043150D01*
Y043717D01*
X013200Y043710D01*
X013060Y043652D01*
X012940Y043560D01*
X012848Y043440D01*
X012836Y043412D01*
X012575D01*
Y044400D01*
X024459D01*
X024482Y044253D01*
D02*
G37*
G36*
X021450Y042583D02*
X021500Y042590D01*
X021625Y042642D01*
X021648Y042633D01*
X021775Y042575D01*
X021775Y042575D01*
X021775Y042575D01*
X022088D01*
Y041321D01*
X021874D01*
Y040468D01*
Y039809D01*
X021748Y039723D01*
X021080Y040391D01*
X021026Y040433D01*
X020962Y040459D01*
X020894Y040468D01*
X020826Y040588D01*
Y041321D01*
X020612D01*
Y042636D01*
X020640Y042648D01*
X020760Y042740D01*
X020775Y042759D01*
X020925D01*
X020940Y042740D01*
X021060Y042648D01*
X021200Y042590D01*
X021250Y042583D01*
Y043150D01*
X021450D01*
Y042583D01*
D02*
G37*
G36*
X039350Y031748D02*
X039211Y031691D01*
X038241Y032661D01*
X038237Y032672D01*
X038195Y032726D01*
X038141Y032768D01*
X038077Y032794D01*
X038009Y032803D01*
X033009D01*
X033009Y032803D01*
X033009Y032803D01*
X030831D01*
X030827Y032808D01*
X030749Y032868D01*
X030657Y032906D01*
X030559Y032919D01*
X030462Y032906D01*
X030370Y032868D01*
X030292Y032808D01*
X030232Y032730D01*
X030194Y032638D01*
X030181Y032541D01*
X030194Y032443D01*
X030232Y032351D01*
X030292Y032273D01*
X030297Y032269D01*
Y031307D01*
X029407D01*
X029407Y031307D01*
X029295D01*
Y031307D01*
X029257Y031307D01*
X028305D01*
Y030593D01*
Y030425D01*
X027350D01*
X027350Y030425D01*
X027329Y030443D01*
Y034043D01*
X027998D01*
Y034539D01*
X028012Y034540D01*
X028075Y034567D01*
X028129Y034608D01*
X028335Y034815D01*
X028335Y034815D01*
X028377Y034869D01*
X028403Y034932D01*
X028412Y035000D01*
X028412Y035000D01*
Y036300D01*
X028403Y036368D01*
X028377Y036431D01*
X028335Y036485D01*
X028335Y036485D01*
X028085Y036735D01*
X028031Y036777D01*
X027968Y036803D01*
X027900Y036812D01*
X027900Y036812D01*
X025850D01*
X025850Y036812D01*
X025782Y036803D01*
X025719Y036777D01*
X025665Y036735D01*
X025665Y036735D01*
X024915Y035985D01*
X024873Y035931D01*
X024847Y035868D01*
X024838Y035800D01*
X024838Y035800D01*
Y035383D01*
X024688Y035332D01*
X024685Y035335D01*
X024685Y035335D01*
X024198Y035823D01*
X024144Y035865D01*
X024080Y035891D01*
X024013Y035900D01*
X024013Y035900D01*
X023695D01*
Y036585D01*
X023152D01*
X023095Y036724D01*
X023659Y037288D01*
X024029D01*
X024033Y037283D01*
X024111Y037222D01*
X024200Y037186D01*
Y037550D01*
X024400D01*
Y037186D01*
X024489Y037222D01*
X024567Y037283D01*
X024628Y037361D01*
X024665Y037452D01*
X024678Y037550D01*
X024802Y037688D01*
X026100D01*
X026100Y037688D01*
X026168Y037697D01*
X026231Y037723D01*
X026285Y037765D01*
X027235Y038715D01*
X027235Y038715D01*
X027277Y038769D01*
X027303Y038832D01*
X027312Y038900D01*
X027312Y038900D01*
Y039231D01*
X027329Y039374D01*
X027488D01*
Y038521D01*
X027483Y038517D01*
X027422Y038439D01*
X027385Y038348D01*
X027372Y038250D01*
X027385Y038152D01*
X027422Y038061D01*
X027483Y037983D01*
X027561Y037922D01*
X027652Y037885D01*
X027750Y037872D01*
X027848Y037885D01*
X027939Y037922D01*
X028017Y037983D01*
X028078Y038061D01*
X028115Y038152D01*
X028128Y038250D01*
X028115Y038348D01*
X028078Y038439D01*
X028017Y038517D01*
X028012Y038521D01*
Y039374D01*
X028871D01*
Y040326D01*
X028849D01*
X028707Y040356D01*
X028698Y040423D01*
X028672Y040487D01*
X028630Y040541D01*
X028630Y040541D01*
X028385Y040785D01*
X028335Y040824D01*
X028333Y040836D01*
X028367Y040974D01*
X028871D01*
Y041926D01*
X028707D01*
Y043056D01*
X028707Y043056D01*
X028698Y043123D01*
X028672Y043187D01*
X028630Y043241D01*
X028630Y043241D01*
X027695Y044176D01*
X027641Y044218D01*
X027577Y044244D01*
X027531Y044250D01*
X027541Y044400D01*
X036300D01*
Y043600D01*
X038700D01*
Y044400D01*
X039350D01*
Y031748D01*
D02*
G37*
%LPC*%
G36*
X036050Y030514D02*
Y030250D01*
X036314D01*
X036278Y030339D01*
X036217Y030417D01*
X036139Y030478D01*
X036050Y030514D01*
D02*
G37*
G36*
X022150Y030464D02*
X022061Y030428D01*
X021983Y030367D01*
X021922Y030289D01*
X021886Y030200D01*
X022150D01*
Y030464D01*
D02*
G37*
G36*
X033584Y013000D02*
X033320D01*
Y012736D01*
X033409Y012772D01*
X033487Y012833D01*
X033548Y012911D01*
X033584Y013000D01*
D02*
G37*
G36*
X038400Y012700D02*
X037300D01*
Y011600D01*
X038400D01*
Y012700D01*
D02*
G37*
G36*
X033320Y013464D02*
Y013200D01*
X033584D01*
X033548Y013289D01*
X033487Y013367D01*
X033409Y013428D01*
X033320Y013464D01*
D02*
G37*
G36*
X038720Y015850D02*
X038456D01*
X038492Y015761D01*
X038553Y015683D01*
X038631Y015622D01*
X038720Y015586D01*
Y015850D01*
D02*
G37*
G36*
X012700Y012700D02*
X011600D01*
Y011600D01*
X012700D01*
Y012700D01*
D02*
G37*
G36*
X031450Y019014D02*
Y018750D01*
X031714D01*
X031678Y018839D01*
X031617Y018917D01*
X031539Y018978D01*
X031450Y019014D01*
D02*
G37*
G36*
X031250D02*
X031161Y018978D01*
X031083Y018917D01*
X031022Y018839D01*
X030986Y018750D01*
X031250D01*
Y019014D01*
D02*
G37*
G36*
X034674Y024840D02*
X034410D01*
Y024576D01*
X034499Y024612D01*
X034577Y024673D01*
X034638Y024751D01*
X034674Y024840D01*
D02*
G37*
G36*
X034210D02*
X033946D01*
X033982Y024751D01*
X034043Y024673D01*
X034121Y024612D01*
X034210Y024576D01*
Y024840D01*
D02*
G37*
G36*
X033839Y018200D02*
X033380D01*
Y017979D01*
X033536D01*
X033619Y017990D01*
X033696Y018022D01*
X033763Y018073D01*
X033814Y018140D01*
X033839Y018200D01*
D02*
G37*
G36*
X033180D02*
X032721D01*
X032746Y018140D01*
X032797Y018073D01*
X032864Y018022D01*
X032941Y017990D01*
X033024Y017979D01*
X033180D01*
Y018200D01*
D02*
G37*
G36*
X034410Y025304D02*
Y025040D01*
X034674D01*
X034638Y025129D01*
X034577Y025207D01*
X034499Y025268D01*
X034410Y025304D01*
D02*
G37*
G36*
X034210D02*
X034121Y025268D01*
X034043Y025207D01*
X033982Y025129D01*
X033946Y025040D01*
X034210D01*
Y025304D01*
D02*
G37*
G36*
X012400Y024731D02*
X011600D01*
Y023932D01*
X011677Y023939D01*
X011848Y023991D01*
X012005Y024075D01*
X012143Y024188D01*
X012256Y024326D01*
X012340Y024483D01*
X012392Y024654D01*
X012400Y024731D01*
D02*
G37*
G36*
X017164Y020800D02*
X016900D01*
Y020536D01*
X016989Y020572D01*
X017067Y020633D01*
X017128Y020711D01*
X017164Y020800D01*
D02*
G37*
G36*
X013934Y016910D02*
X013670D01*
Y016646D01*
X013759Y016682D01*
X013837Y016743D01*
X013898Y016821D01*
X013934Y016910D01*
D02*
G37*
G36*
X014450Y025000D02*
X014186D01*
X014222Y024911D01*
X014283Y024833D01*
X014361Y024772D01*
X014450Y024736D01*
Y025000D01*
D02*
G37*
G36*
Y025464D02*
X014361Y025428D01*
X014283Y025367D01*
X014222Y025289D01*
X014186Y025200D01*
X014450D01*
Y025464D01*
D02*
G37*
G36*
X011600Y025731D02*
Y024931D01*
X012400D01*
X012392Y025009D01*
X012340Y025179D01*
X012256Y025336D01*
X012143Y025474D01*
X012005Y025587D01*
X011848Y025671D01*
X011677Y025723D01*
X011600Y025731D01*
D02*
G37*
G36*
X014270Y031656D02*
X013619D01*
Y031084D01*
X014270D01*
Y031656D01*
D02*
G37*
G36*
X015121D02*
X014470D01*
Y031084D01*
X015121D01*
Y031656D01*
D02*
G37*
G36*
X011968Y033747D02*
X011834Y033730D01*
X011709Y033678D01*
X011601Y033595D01*
X011519Y033488D01*
X011467Y033362D01*
X011449Y033228D01*
X011467Y033094D01*
X011519Y032968D01*
X011601Y032861D01*
X011709Y032778D01*
X011834Y032726D01*
X011968Y032709D01*
X012103Y032726D01*
X012228Y032778D01*
X012336Y032861D01*
X012418Y032968D01*
X012470Y033094D01*
X012488Y033228D01*
X012470Y033362D01*
X012418Y033488D01*
X012336Y033595D01*
X012228Y033678D01*
X012103Y033730D01*
X011968Y033747D01*
D02*
G37*
G36*
X015121Y030884D02*
X013619D01*
Y030311D01*
X013988D01*
Y029447D01*
X013735D01*
Y029234D01*
X011615D01*
Y029447D01*
X011200D01*
Y028972D01*
Y028496D01*
X011615D01*
Y028709D01*
X013735D01*
Y028496D01*
X014150D01*
Y028972D01*
X014250D01*
Y029072D01*
X014765D01*
Y029447D01*
X014512D01*
Y030311D01*
X015121D01*
Y030884D01*
D02*
G37*
G36*
X031488Y040630D02*
X030798D01*
Y039349D01*
X031488D01*
Y040630D01*
D02*
G37*
G36*
X030598D02*
X029907D01*
Y039349D01*
X030598D01*
Y040630D01*
D02*
G37*
G36*
X036213Y042111D02*
X034632D01*
Y039349D01*
X036213D01*
Y040488D01*
X037229D01*
X037233Y040483D01*
X037311Y040422D01*
X037402Y040385D01*
X037500Y040372D01*
X037598Y040385D01*
X037689Y040422D01*
X037767Y040483D01*
X037828Y040561D01*
X037865Y040652D01*
X037878Y040750D01*
X037865Y040848D01*
X037828Y040939D01*
X037767Y041017D01*
X037689Y041078D01*
X037598Y041115D01*
X037500Y041128D01*
X037402Y041115D01*
X037311Y041078D01*
X037233Y041017D01*
X037229Y041012D01*
X036213D01*
Y042111D01*
D02*
G37*
G36*
X031488D02*
X030798D01*
Y040830D01*
X031488D01*
Y042111D01*
D02*
G37*
G36*
X030598D02*
X029907D01*
Y040830D01*
X030598D01*
Y042111D01*
D02*
G37*
G36*
X038700Y043400D02*
X037600D01*
Y042300D01*
X038700D01*
Y043400D01*
D02*
G37*
G36*
X037400D02*
X036300D01*
Y042300D01*
X037400D01*
Y043400D01*
D02*
G37*
%LPD*%
D10*
X017694Y032750D02*
D03*
X017006D02*
D03*
X017644Y034600D02*
D03*
X016956D02*
D03*
X015456Y029150D02*
D03*
X016144D02*
D03*
X028444Y039850D02*
D03*
X027756D02*
D03*
X028444Y041450D02*
D03*
X027756D02*
D03*
D11*
X037020Y019300D02*
D03*
Y019800D02*
D03*
Y020300D02*
D03*
Y020800D02*
D03*
Y021300D02*
D03*
Y021800D02*
D03*
Y022300D02*
D03*
Y022800D02*
D03*
Y023300D02*
D03*
Y023800D02*
D03*
X033280Y019300D02*
D03*
Y019800D02*
D03*
Y020300D02*
D03*
Y020800D02*
D03*
Y021300D02*
D03*
Y021800D02*
D03*
Y022300D02*
D03*
Y022800D02*
D03*
Y023300D02*
D03*
Y023800D02*
D03*
Y018300D02*
D03*
Y018800D02*
D03*
X037020D02*
D03*
Y018300D02*
D03*
D12*
X024100Y025100D02*
D03*
X023431D02*
D03*
X025569D02*
D03*
X024900D02*
D03*
X017585Y017350D02*
D03*
X016915D02*
D03*
X016900Y016250D02*
D03*
X017569D02*
D03*
X025135Y015350D02*
D03*
X024465D02*
D03*
X037135Y025150D02*
D03*
X036465D02*
D03*
X030365Y012450D02*
D03*
X031035D02*
D03*
X026369Y012400D02*
D03*
X025700D02*
D03*
X015465Y025700D02*
D03*
X016135D02*
D03*
X015465Y026800D02*
D03*
X016135D02*
D03*
X024300Y038900D02*
D03*
X024969D02*
D03*
X027950Y025100D02*
D03*
X028619D02*
D03*
D13*
X020350Y040206D02*
D03*
Y040894D02*
D03*
X038450Y019806D02*
D03*
Y020494D02*
D03*
X014350Y040206D02*
D03*
Y040894D02*
D03*
X018350Y040211D02*
D03*
Y040900D02*
D03*
X016350Y040211D02*
D03*
Y040900D02*
D03*
X022350Y040894D02*
D03*
Y040206D02*
D03*
D14*
X015450Y020104D02*
D03*
Y018450D02*
D03*
D15*
X012900Y018948D02*
D03*
Y018252D02*
D03*
X021400Y018253D02*
D03*
Y018950D02*
D03*
D16*
X015144Y021500D02*
D03*
X015656D02*
D03*
X015656Y024550D02*
D03*
X015144D02*
D03*
D17*
X016902Y018450D02*
D03*
X017598D02*
D03*
D18*
X021500Y022181D02*
D03*
Y022850D02*
D03*
X030300Y017431D02*
D03*
Y018100D02*
D03*
X021400Y020485D02*
D03*
Y019815D02*
D03*
D19*
X030290Y014200D02*
D03*
X026550D02*
D03*
D20*
X015249Y028000D02*
D03*
X016351D02*
D03*
D21*
X014370Y030984D02*
D03*
X011968D02*
D03*
X014370Y035472D02*
D03*
X011968D02*
D03*
D22*
X015156Y023550D02*
D03*
Y022500D02*
D03*
X015844Y023550D02*
D03*
Y022500D02*
D03*
D23*
X024875Y022774D02*
D03*
X025190D02*
D03*
X025505D02*
D03*
X025820D02*
D03*
X026135D02*
D03*
X026450D02*
D03*
X026765D02*
D03*
X027080D02*
D03*
X027395D02*
D03*
X027710D02*
D03*
X028025D02*
D03*
Y018326D02*
D03*
X027710D02*
D03*
X027395D02*
D03*
X027080D02*
D03*
X026765D02*
D03*
X026450D02*
D03*
X026135D02*
D03*
X025820D02*
D03*
X025505D02*
D03*
X025190D02*
D03*
X024875D02*
D03*
D24*
X028674Y022125D02*
D03*
Y021810D02*
D03*
Y021495D02*
D03*
Y021180D02*
D03*
Y020865D02*
D03*
Y020550D02*
D03*
Y020235D02*
D03*
Y019920D02*
D03*
Y019605D02*
D03*
Y019290D02*
D03*
Y018975D02*
D03*
X024226D02*
D03*
Y019290D02*
D03*
Y019605D02*
D03*
Y019920D02*
D03*
Y020235D02*
D03*
Y020550D02*
D03*
Y020865D02*
D03*
Y021180D02*
D03*
Y021495D02*
D03*
Y021810D02*
D03*
Y022125D02*
D03*
D25*
X022098Y035834D02*
D03*
X023200Y035637D02*
D03*
X022098Y035441D02*
D03*
X023200Y035244D02*
D03*
X022098Y035047D02*
D03*
X023200Y034850D02*
D03*
X027502Y034794D02*
D03*
X026400Y034991D02*
D03*
X027502Y035187D02*
D03*
X026400Y035384D02*
D03*
X027502Y035581D02*
D03*
X026400Y035778D02*
D03*
X020050Y030556D02*
D03*
X021152Y030359D02*
D03*
X020050Y030163D02*
D03*
X021152Y029966D02*
D03*
X020050Y029769D02*
D03*
X021152Y029572D02*
D03*
X025402D02*
D03*
X024300Y029769D02*
D03*
X025402Y029966D02*
D03*
X024300Y030163D02*
D03*
X025402Y030359D02*
D03*
X024300Y030556D02*
D03*
X034402Y029572D02*
D03*
X033300Y029769D02*
D03*
X034402Y029966D02*
D03*
X033300Y030163D02*
D03*
X034402Y030359D02*
D03*
X033300Y030556D02*
D03*
X037550D02*
D03*
X038652Y030359D02*
D03*
X037550Y030163D02*
D03*
X038652Y029966D02*
D03*
X037550Y029769D02*
D03*
X038652Y029572D02*
D03*
X028800Y030556D02*
D03*
X029902Y030359D02*
D03*
X028800Y030163D02*
D03*
X029902Y029966D02*
D03*
X028800Y029769D02*
D03*
X029902Y029572D02*
D03*
D26*
X023200Y036228D02*
D03*
X022098D02*
D03*
Y034456D02*
D03*
X023200D02*
D03*
X027502Y034400D02*
D03*
X026400D02*
D03*
Y036172D02*
D03*
X027502D02*
D03*
X020050Y030950D02*
D03*
X021152D02*
D03*
Y029178D02*
D03*
X020050D02*
D03*
X024300D02*
D03*
X025402D02*
D03*
Y030950D02*
D03*
X024300D02*
D03*
X033300Y029178D02*
D03*
X034402D02*
D03*
Y030950D02*
D03*
X033300D02*
D03*
X037550D02*
D03*
X038652D02*
D03*
Y029178D02*
D03*
X037550D02*
D03*
X028800Y030950D02*
D03*
X029902D02*
D03*
Y029178D02*
D03*
X028800D02*
D03*
D27*
X030698Y040730D02*
D03*
X035422D02*
D03*
D28*
X024950Y044000D02*
D03*
Y043409D02*
D03*
X026850Y044000D02*
D03*
Y043409D02*
D03*
D29*
X011100Y027200D02*
D03*
X014250D02*
D03*
Y028972D02*
D03*
X011100D02*
D03*
D30*
X023773Y040734D02*
D03*
Y040478D02*
D03*
Y040222D02*
D03*
Y039966D02*
D03*
X025427Y040734D02*
D03*
Y040478D02*
D03*
Y040222D02*
D03*
Y039966D02*
D03*
D31*
X011850Y043150D02*
X013350D01*
X011500Y043500D02*
X011850Y043150D01*
X035442Y040750D02*
X037500D01*
X035422Y040730D02*
X035442Y040750D01*
X016956Y034600D02*
Y036544D01*
X016950Y036550D02*
X016956Y036544D01*
X027350Y030163D02*
X028800D01*
X028419Y029769D02*
X028800D01*
X029460Y025290D02*
Y029860D01*
X029566Y029966D02*
X029902D01*
X018950Y025850D02*
Y030150D01*
Y025850D02*
X019210Y025590D01*
X018950Y030150D02*
X018963Y030163D01*
X024300Y029769D02*
X024619D01*
X023669D02*
X024300D01*
X025402Y029966D02*
X026134D01*
X025402Y030359D02*
X026259D01*
X024300Y030163D02*
X024630D01*
X023750D02*
X024300D01*
X020300Y037950D02*
X026100D01*
X019250Y036900D02*
X020300Y037950D01*
X026100D02*
X027050Y038900D01*
X023200Y035637D02*
X024013D01*
X022650Y034750D02*
X022750Y034850D01*
X022650Y034100D02*
Y034750D01*
X027750Y038250D02*
Y039794D01*
X024550Y044000D02*
X024950D01*
X024050Y043500D02*
X024550Y044000D01*
X026850Y043991D02*
X027509D01*
X028444Y043056D01*
Y041450D02*
Y043056D01*
X024350Y041550D02*
X026650D01*
X024050Y041850D02*
Y043500D01*
Y041850D02*
X024350Y041550D01*
X026650D02*
X027600Y040600D01*
X028200D01*
X028444Y040356D01*
Y039850D02*
Y040356D01*
X027250Y041450D02*
X027756D01*
X026650Y042050D02*
X027250Y041450D01*
X025900Y042050D02*
X026650D01*
X024050Y041150D02*
X026600D01*
X015465Y026800D02*
Y027235D01*
X015249Y027451D02*
X015465Y027235D01*
X015249Y027451D02*
Y028000D01*
X020370Y022190D02*
Y022880D01*
X019450Y023800D02*
X020370Y022880D01*
X026510Y024050D02*
Y026050D01*
X026430Y022794D02*
X026450Y022774D01*
X026430Y022794D02*
Y023970D01*
X026510Y024050D01*
X025569Y024510D02*
Y025100D01*
X025505Y024446D02*
X025569Y024510D01*
X025505Y022774D02*
Y024446D01*
X024550Y024300D02*
X025190Y023660D01*
Y022774D02*
Y023660D01*
X022920Y021810D02*
X024226D01*
X022560Y022170D02*
X022920Y021810D01*
X021740Y022170D02*
X022560D01*
X020481Y022181D02*
X021500D01*
X038450Y017030D02*
Y019806D01*
X035870Y014450D02*
X038450Y017030D01*
X036465Y025150D02*
Y025690D01*
X036631Y025855D02*
X036995D01*
X036465Y025690D02*
X036631Y025855D01*
X027067Y029880D02*
Y035137D01*
Y022787D02*
Y029880D01*
X027350Y030163D01*
X027067Y035137D02*
X027117Y035187D01*
X027502D01*
X027067Y022787D02*
X027080Y022774D01*
X026835Y034185D02*
Y035405D01*
X027011Y035581D02*
X027502D01*
X026835Y035405D02*
X027011Y035581D01*
X026710Y034059D02*
X026835Y034185D01*
X026710Y028410D02*
Y034059D01*
X017694Y030364D02*
Y032750D01*
X016480Y029150D02*
X017694Y030364D01*
X016144Y029150D02*
X016480D01*
X016351Y028000D02*
X017140D01*
X017500Y027640D01*
Y024450D02*
Y027640D01*
X037020Y022300D02*
X038800D01*
X037020Y019300D02*
X037600D01*
X037020Y018800D02*
X037760D01*
X037020Y022800D02*
X038250D01*
X037020Y023800D02*
X037135Y023915D01*
X021500Y022850D02*
X022500Y023850D01*
X023750D01*
X022098Y035834D02*
X022534D01*
X022650Y035950D02*
Y036650D01*
X022534Y035834D02*
X022650Y035950D01*
X031860Y017340D02*
X033020D01*
X031100Y018100D02*
X031860Y017340D01*
X016902Y019770D02*
X017212Y020080D01*
X019530D01*
X019420Y021180D02*
X024226D01*
X018800Y021800D02*
X019420Y021180D01*
X028550Y015600D02*
X032930D01*
X033200Y015330D02*
X033450D01*
X032930Y015600D02*
X033200Y015330D01*
X024330Y013930D02*
X025135Y014735D01*
Y015350D01*
X020485Y027335D02*
Y030515D01*
X020444Y030556D02*
X020485Y030515D01*
X020685Y027035D02*
Y029825D01*
X020826Y029966D01*
X021152D01*
X020500Y026850D02*
X020685Y027035D01*
X019900Y026750D02*
X020485Y027335D01*
X020050Y030556D02*
X020444D01*
X020800Y030359D02*
X021152D01*
X020710Y030449D02*
X020800Y030359D01*
X020710Y030449D02*
Y030725D01*
X020707Y030727D02*
X020710Y030725D01*
X020707Y030727D02*
Y031293D01*
X020150Y031850D02*
X020707Y031293D01*
X024630Y030163D02*
X024747Y030280D01*
X024745Y030281D02*
X024747Y030280D01*
X024745Y030281D02*
Y031170D01*
X024500Y031415D02*
X024745Y031170D01*
X024500Y031415D02*
Y035150D01*
X024957Y030107D02*
Y031170D01*
X025100Y031313D01*
X024619Y029769D02*
X024957Y030107D01*
X025100Y031313D02*
Y035800D01*
X026700Y028400D02*
X026710Y028410D01*
X037550Y030163D02*
X037995D01*
Y029589D02*
Y030163D01*
X038084Y030556D02*
X038205Y030435D01*
X037907Y029500D02*
X037995Y029589D01*
X037000Y029500D02*
X037907D01*
X038205Y029502D02*
Y030435D01*
X038200Y029496D02*
X038205Y029502D01*
X038200Y028590D02*
Y029496D01*
Y028590D02*
X038530Y028260D01*
X037020Y018000D02*
Y018300D01*
X035670Y016650D02*
X037020Y018000D01*
X028750Y016650D02*
X035670D01*
X038000Y018070D02*
Y018550D01*
X037760Y018790D02*
Y018800D01*
Y018790D02*
X038000Y018550D01*
X036280Y016350D02*
X038000Y018070D01*
X032600Y014450D02*
X035870D01*
X028700Y016350D02*
X036280D01*
X029460Y029860D02*
X029566Y029966D01*
X029460Y025290D02*
X029900Y024850D01*
X026280Y026280D02*
X026510Y026050D01*
X025270Y026280D02*
X026280D01*
X023300Y028250D02*
X025270Y026280D01*
X019805Y021495D02*
X024226D01*
X019550Y021750D02*
X019805Y021495D01*
X034402Y029572D02*
X035372D01*
X025890Y026020D02*
X026300Y025610D01*
X022540Y026020D02*
X025890D01*
X022400Y026160D02*
X022540Y026020D01*
X019500Y026160D02*
X022400D01*
X019200Y026460D02*
Y029600D01*
Y026460D02*
X019500Y026160D01*
X026660Y026540D02*
X026765Y026435D01*
X025410Y026540D02*
X026660D01*
X023600Y028350D02*
X025410Y026540D01*
X031840Y022300D02*
X033280D01*
X031800Y022260D02*
X031840Y022300D01*
X036750Y026850D02*
X036950Y026650D01*
X034750Y026850D02*
X036750D01*
X029080Y021180D02*
X034750Y026850D01*
X025960Y025590D02*
X026050Y025500D01*
X019210Y025590D02*
X025960D01*
X029240Y024310D02*
X029300Y024250D01*
X029180Y030556D02*
X029240Y030496D01*
Y024310D02*
Y030496D01*
X028800Y030556D02*
X029180D01*
X029902Y030359D02*
X030350D01*
X024300Y038900D02*
Y039310D01*
X024160Y039450D02*
X024300Y039310D01*
X023950Y039450D02*
X024160D01*
X023773Y039627D02*
X023950Y039450D01*
X023773Y039627D02*
Y039966D01*
X022200Y038900D02*
X024300D01*
X020894Y040206D02*
X022200Y038900D01*
X020350Y040206D02*
X020894D01*
X018350Y040211D02*
X018356Y040206D01*
X019684D01*
X020350D01*
X019350Y040540D02*
X019684Y040206D01*
X019350Y040540D02*
Y040900D01*
X014350Y040206D02*
X015944D01*
X016344D01*
X015350Y040800D02*
X015944Y040206D01*
X024550Y024300D02*
X024900Y024650D01*
Y025100D01*
X024100Y024750D02*
X024550Y024300D01*
X024100Y024750D02*
Y025100D01*
X023431Y024769D02*
X024875Y023325D01*
Y022774D02*
Y023325D01*
X023431Y024769D02*
Y025100D01*
X021665Y019815D02*
X022400Y020550D01*
X021400Y019815D02*
X021665D01*
X022400Y020550D02*
X024226D01*
X021400Y020485D02*
X021875D01*
X022255Y020865D01*
X024226D01*
X020500Y019350D02*
Y020100D01*
X020885Y020485D01*
X021400D01*
X020500Y019350D02*
X020900Y018950D01*
X021400D01*
X028619Y026109D02*
X028700Y026190D01*
X028619Y025100D02*
Y026109D01*
X016902Y018450D02*
Y019770D01*
X015656Y024836D02*
X015920Y025100D01*
X015656Y024550D02*
Y024836D01*
X015920Y025100D02*
X016135Y025315D01*
X014550Y025100D02*
X015920D01*
X016135Y025315D02*
Y025700D01*
X024834Y039035D02*
Y040580D01*
X024970Y040734D02*
X025427D01*
X024970Y040716D02*
Y040734D01*
X024834Y040580D02*
X024970Y040716D01*
X031139Y017431D02*
X031380Y017190D01*
X030300Y017431D02*
X031139D01*
X026300Y024500D02*
Y025610D01*
X026135Y024335D02*
X026300Y024500D01*
X026135Y022774D02*
Y024335D01*
X026050Y024600D02*
Y025500D01*
X025820Y024370D02*
X026050Y024600D01*
X026765Y022774D02*
Y026435D01*
X015100Y026800D02*
X015465D01*
X014700Y027200D02*
X015100Y026800D01*
X014250Y027200D02*
X014700D01*
X015465Y025700D02*
Y026800D01*
X015249Y028000D02*
Y028499D01*
X015456Y028706D01*
X016902Y017364D02*
Y018450D01*
Y017364D02*
X016915Y017350D01*
Y016265D02*
Y017350D01*
X016900Y016250D02*
X016915Y016265D01*
X017569Y016250D02*
Y017335D01*
X011100Y028972D02*
X014250D01*
X011100Y027200D02*
X014250D01*
X011968Y035472D02*
X014370D01*
X015528D01*
X016400Y034600D01*
X016956D01*
X015550Y032750D02*
X017006D01*
X015100Y032300D02*
X015550Y032750D01*
X013285Y032300D02*
X015100D01*
X011968Y030984D02*
X013285Y032300D01*
X024176Y020600D02*
X024226Y020550D01*
X012567Y022953D02*
X013164Y023550D01*
X015156D01*
X013808Y022500D02*
X015156D01*
X013354Y022953D02*
X013808Y022500D01*
X014250Y028972D02*
Y030864D01*
X014370Y030984D01*
X025427Y039966D02*
Y040222D01*
X023773D02*
Y040478D01*
X022367Y040222D02*
X023773D01*
X022350Y040206D02*
X022367Y040222D01*
X022350Y040894D02*
Y043150D01*
X020350Y040894D02*
Y043150D01*
X018350Y040900D02*
Y043150D01*
X016350Y040900D02*
Y043150D01*
X014350Y040894D02*
Y043150D01*
X013350D02*
X014000Y043800D01*
X014700D01*
X015350Y043150D01*
X015950Y043750D01*
X017100D01*
X017350Y043500D01*
Y043150D02*
Y043500D01*
Y043150D02*
X017950Y043750D01*
X019150D01*
X019350Y043550D01*
Y043150D02*
Y043550D01*
Y043150D02*
X019950Y043750D01*
X021350Y043150D02*
Y043500D01*
X021100Y043750D02*
X021350Y043500D01*
X025427Y039966D02*
X026266D01*
X026300Y040000D01*
X016344Y040206D02*
X016350Y040211D01*
X025505Y025036D02*
X025569Y025100D01*
X030365Y012450D02*
Y014125D01*
X030290Y014200D02*
X030365Y014125D01*
X026369Y014019D02*
X026550Y014200D01*
X015844Y022500D02*
X018000D01*
X015844Y023550D02*
X015894Y023500D01*
X018000D01*
X018800Y021800D02*
Y022700D01*
X018000Y023500D02*
X018800Y022700D01*
X019550Y021750D02*
Y022500D01*
X026369Y012400D02*
Y014019D01*
X017644Y032800D02*
Y034600D01*
Y032800D02*
X017694Y032750D01*
X016351Y028000D02*
Y028499D01*
X010500Y026600D02*
X011100Y027200D01*
X015800Y011300D02*
Y011572D01*
X017598Y018450D02*
Y019148D01*
X017700Y019250D01*
X018500D01*
X016135Y025700D02*
Y026800D01*
X022450Y019150D02*
X023220Y019920D01*
X022350Y019150D02*
X022450D01*
Y019950D02*
X022850D01*
X023135Y020235D01*
X018400Y014450D02*
X023555Y019605D01*
X010500Y017950D02*
Y026600D01*
Y017950D02*
X014800Y013650D01*
Y012300D02*
Y013650D01*
X016800Y012300D02*
Y012900D01*
X017350Y013450D01*
X024465Y015350D02*
Y016153D01*
X025505Y017193D01*
X018250Y012950D02*
X020800D01*
X025135Y015350D02*
Y016135D01*
X025820Y016820D01*
X017350Y013450D02*
X019600D01*
X024226Y018076D01*
X023650Y019200D02*
X023740Y019290D01*
X023650Y018650D02*
Y019200D01*
X017800Y013900D02*
X018900D01*
X023650Y018650D01*
X028750Y014200D02*
X030290D01*
X020800Y012950D02*
X025190Y017340D01*
X026135Y014615D02*
X026550Y014200D01*
X026450Y016500D02*
X028750Y014200D01*
X023555Y019605D02*
X024226D01*
X026135Y014615D02*
Y018326D01*
X025820Y016820D02*
Y018326D01*
X024226Y018076D02*
Y018975D01*
X023220Y019920D02*
X024226D01*
X025505Y017193D02*
Y018326D01*
X025190Y017340D02*
Y018326D01*
X023135Y020235D02*
X024226D01*
X023740Y019290D02*
X024226D01*
X026450Y016500D02*
Y018326D01*
X027710Y017690D02*
Y018326D01*
X027395Y017655D02*
Y018326D01*
X027080Y017570D02*
Y018326D01*
X026765Y017385D02*
Y018326D01*
X027710Y017690D02*
X028750Y016650D01*
X027395Y017655D02*
X028700Y016350D01*
X020415Y011300D02*
X024465Y015350D01*
X016800Y011300D02*
X020415D01*
X020750Y025100D02*
X023431D01*
X019450Y023800D02*
X020750Y025100D01*
X026765Y017385D02*
X028550Y015600D01*
X027080Y017570D02*
X028700Y015950D01*
X033250D01*
X032850Y019300D02*
X033280D01*
X032350Y019800D02*
X032850Y019300D01*
X032350Y018800D02*
X032400Y018850D01*
X032450Y018800D02*
X033280D01*
X032400Y018850D02*
X032420Y018830D01*
X032430Y018820D02*
X032450Y018800D01*
X032430Y018820D02*
Y018830D01*
X032420D02*
X032430D01*
X025820Y022774D02*
Y024370D01*
X023600Y028350D02*
Y029700D01*
X023669Y029769D01*
X023300Y028250D02*
Y029713D01*
X023750Y030163D01*
X028674Y022125D02*
Y022424D01*
X032313Y030163D02*
X033300D01*
X032719Y029769D02*
X033300D01*
X032550Y026000D02*
Y029600D01*
X032719Y029769D01*
X028674Y022424D02*
X032150Y025900D01*
Y030000D01*
X032313Y030163D01*
X028674Y021495D02*
X028876D01*
X028674D02*
X028680Y021500D01*
X028674Y021810D02*
X029010D01*
X036969Y029769D01*
X037550D01*
X024226Y022125D02*
X028025D01*
X031700Y025800D01*
Y026050D01*
X037135Y023915D02*
Y025150D01*
X034040Y029966D02*
X034402D01*
X033920Y029846D02*
X034040Y029966D01*
X036500Y023300D02*
X037020D01*
X035450Y024350D02*
X036500Y023300D01*
X035450Y024350D02*
Y025850D01*
X016144Y028706D02*
X016351Y028499D01*
X016144Y028706D02*
Y029150D01*
X019200Y029600D02*
X019369Y029769D01*
X026622Y040478D02*
X026800Y040300D01*
X025427Y040478D02*
X026622D01*
X023773Y040873D02*
X024050Y041150D01*
X023773Y040734D02*
Y040873D01*
X026600Y041150D02*
X027050Y040700D01*
X023200Y016200D02*
X023250D01*
X024875Y017825D01*
Y018326D01*
X028375Y017450D02*
X029050D01*
X028025Y017800D02*
X028375Y017450D01*
X028025Y017800D02*
Y018326D01*
X028674Y019605D02*
X029445D01*
X029210Y019290D02*
X030300Y018200D01*
Y018100D02*
Y018200D01*
X028674Y019290D02*
X029210D01*
X029445Y019605D02*
X029650Y019400D01*
X029800D01*
X028674Y018975D02*
X029550Y018100D01*
Y017550D02*
Y018100D01*
Y017550D02*
X029669Y017431D01*
X030300D01*
X028674Y020235D02*
X028709Y020200D01*
X028674Y020865D02*
X029615D01*
X017006Y031856D02*
Y032750D01*
X016950Y031800D02*
X017006Y031856D01*
X028709Y020200D02*
X030700D01*
X029615Y020865D02*
X029850Y021100D01*
X028674Y020550D02*
X030200D01*
X031150Y021500D01*
X028674Y019920D02*
X030030D01*
X030450Y019500D01*
X030650D01*
X017500Y040900D02*
X018350D01*
X017450Y040850D02*
X017500Y040900D01*
X032350Y020800D02*
X033280D01*
X031800Y020300D02*
X033280D01*
X031750Y020250D02*
X031800Y020300D01*
X031750Y021300D02*
X033280D01*
X032550Y023300D02*
X033280D01*
X032850Y022800D02*
X033280D01*
X033230Y021750D02*
X033280Y021800D01*
X032450Y021750D02*
X033230D01*
X032050Y022700D02*
X032750D01*
X032850Y022800D01*
X032475Y023225D02*
X032550Y023300D01*
X035150Y026150D02*
X035450Y025850D01*
X028674Y021180D02*
X029080D01*
X028680Y021500D02*
X029000D01*
X018150Y025400D02*
Y034050D01*
X018550Y024500D02*
Y033950D01*
X018700Y037150D02*
X019850Y038300D01*
X018550Y033950D02*
X019250Y034650D01*
Y036900D01*
X019369Y029769D02*
X020050D01*
X020500Y026750D02*
Y026850D01*
X021100Y026700D02*
X022950Y028550D01*
Y029956D01*
X023550Y030556D01*
X032250Y023800D02*
X033280D01*
X031150Y021500D02*
Y022700D01*
X032250Y023800D01*
X032156Y030556D02*
X033300D01*
X030450Y025250D02*
Y027400D01*
X031800Y028750D01*
Y030200D01*
X032156Y030556D01*
X017644Y034600D02*
X017950Y034906D01*
X018350Y037500D02*
Y040211D01*
X017950Y037100D02*
X018350Y037500D01*
X017950Y034906D02*
Y036200D01*
Y037100D01*
X018700Y034600D02*
Y037150D01*
X018150Y034050D02*
X018700Y034600D01*
X020150Y031850D02*
Y032550D01*
X023550Y030556D02*
X024300D01*
X027395Y022774D02*
Y027295D01*
X027600Y027500D01*
Y028950D01*
X028419Y029769D01*
X027944Y034794D02*
X028150Y035000D01*
X027502Y034794D02*
X027944D01*
X025850Y036550D02*
X027900D01*
X028150Y036300D01*
Y035000D02*
Y036300D01*
X025841Y034991D02*
X026400D01*
X025550Y032559D02*
Y034700D01*
X025841Y034991D01*
X025100Y035800D02*
X025850Y036550D01*
X018950Y032750D02*
X019750Y033550D01*
X022750Y034850D02*
X023200D01*
X019750Y033550D02*
X022100D01*
X022650Y034100D01*
X023200Y035244D02*
X023706D01*
X024013Y035637D02*
X024500Y035150D01*
X023706Y035244D02*
X024050Y034900D01*
Y033150D02*
Y034900D01*
X026259Y030359D02*
X026500Y030600D01*
Y032250D01*
X026191Y032559D02*
X026500Y032250D01*
X025550Y032559D02*
X026191D01*
X030559Y030569D02*
Y032541D01*
X030350Y030359D02*
X030559Y030569D01*
X033991Y030359D02*
X034402D01*
X033800Y030550D02*
X033991Y030359D01*
X033800Y030550D02*
Y031750D01*
X033009Y032541D02*
X033800Y031750D01*
X030559Y032541D02*
X033009D01*
X038009D01*
X039000Y030359D02*
X039191Y030550D01*
Y031341D01*
X038009Y032522D02*
X039191Y031341D01*
X038009Y032522D02*
Y032541D01*
X037135Y025150D02*
X038000D01*
X030300Y018100D02*
X031100D01*
X017500Y024450D02*
X018150Y023800D01*
X019450D01*
X022350Y028650D02*
X022700Y029000D01*
Y031800D01*
X024050Y033150D01*
X021152Y029572D02*
X022072D01*
X022250Y029750D01*
Y030100D01*
X024972Y029572D02*
X025402D01*
X024850Y029450D02*
X024972Y029572D01*
X024850Y028200D02*
Y029450D01*
X035372Y029572D02*
X035950Y030150D01*
X027050Y038900D02*
Y040700D01*
X019850Y038300D02*
X025900D01*
X026800Y039200D01*
Y040300D01*
X022650Y036650D02*
X023550Y037550D01*
X024300D01*
X025778Y035778D02*
X026400D01*
X025500Y035500D02*
X025778Y035778D01*
X038652Y030359D02*
X039000D01*
X037550Y030556D02*
X038084D01*
X038652Y029572D02*
X039128D01*
X038800Y022300D02*
X039384Y022884D01*
X039218Y029966D02*
X039384Y029800D01*
X038652Y029966D02*
X039218D01*
X039384Y022884D02*
Y029800D01*
X027850Y025200D02*
X027950Y025100D01*
X027850Y025200D02*
Y026800D01*
X027710Y022774D02*
Y023860D01*
X027950Y024100D01*
Y025100D01*
X028025Y022774D02*
Y023525D01*
X028619Y024119D01*
Y025100D01*
X020697Y035047D02*
X022098D01*
X020450Y034800D02*
X020697Y035047D01*
X026134Y029966D02*
X026350Y029750D01*
Y029300D02*
Y029750D01*
X025550Y026950D02*
Y027500D01*
X024850Y028200D02*
X025550Y027500D01*
X033100Y026500D02*
X033200D01*
X033920Y027220D01*
Y029846D01*
X038900Y026050D02*
Y026300D01*
X039106Y026506D01*
Y029550D02*
X039128Y029572D01*
X039106Y026506D02*
Y029550D01*
X019950Y043750D02*
X021100D01*
X011500Y024831D02*
X011769Y025100D01*
X015156Y021589D02*
Y022500D01*
Y023550D02*
Y024461D01*
X013354Y021046D02*
Y021969D01*
X014296Y020104D02*
X015450D01*
X013354Y021046D02*
X014296Y020104D01*
X015450Y018450D02*
X016902D01*
X015800Y012300D02*
Y013700D01*
X016550Y014450D01*
X018400D01*
X038250Y022800D02*
X038530Y023080D01*
Y028260D01*
X038106Y019806D02*
X038450D01*
X037600Y019300D02*
X038106Y019806D01*
X029000Y021500D02*
X037000Y029500D01*
X018950Y030150D02*
Y032750D01*
X018963Y030163D02*
X020050D01*
X036995Y025855D02*
X037980Y026840D01*
X015456Y028706D02*
Y029150D01*
X015656Y021500D02*
X016200D01*
X016800Y020900D01*
X017685Y017450D02*
X020410D01*
X017569Y017335D02*
X017585Y017350D01*
X017685Y017450D01*
X024330Y013270D02*
Y013930D01*
Y013270D02*
X025200Y012400D01*
X025700D01*
X031035Y012450D02*
Y012855D01*
X031280Y013100D01*
X033220D01*
X038820Y015950D02*
X039110Y016240D01*
X038906Y020494D02*
X039110Y020290D01*
Y016240D02*
Y020290D01*
X038450Y020494D02*
X038906D01*
X025700Y038900D02*
X025750Y038950D01*
X024969Y038900D02*
X025700D01*
X024834Y039035D02*
X024969Y038900D01*
X015156Y024461D02*
X015244Y024550D01*
X015156Y021589D02*
X015244Y021500D01*
X024950Y043409D02*
X026850D01*
D32*
X012567Y020383D02*
Y021969D01*
Y020383D02*
X012900Y020050D01*
Y018948D02*
Y020050D01*
Y017680D02*
Y018252D01*
Y017680D02*
X013570Y017010D01*
D33*
X011500Y011500D02*
D03*
X038500D02*
D03*
X037500Y043500D02*
D03*
D34*
X011500D02*
D03*
D35*
X016800Y012300D02*
D03*
D36*
Y011300D02*
D03*
X015800Y012300D02*
D03*
Y011300D02*
D03*
X014800Y012300D02*
D03*
Y011300D02*
D03*
D37*
X022350Y043150D02*
D03*
D38*
X021350D02*
D03*
X020350D02*
D03*
X019350D02*
D03*
X018350D02*
D03*
X017350D02*
D03*
X016350D02*
D03*
X015350D02*
D03*
X014350D02*
D03*
X013350D02*
D03*
D39*
X011500Y020091D02*
D03*
Y024831D02*
D03*
D40*
X013354Y021969D02*
D03*
Y022953D02*
D03*
X012567D02*
D03*
Y021969D02*
D03*
D41*
X025980Y043400D02*
D03*
X025900Y042050D02*
D03*
X020370Y022190D02*
D03*
X033020Y017340D02*
D03*
X019530Y020080D02*
D03*
X033220Y013100D02*
D03*
X033450Y015330D02*
D03*
X024330Y013930D02*
D03*
X022400Y026160D02*
D03*
X031800Y022260D02*
D03*
X014550Y025100D02*
D03*
X031380Y017190D02*
D03*
X037980Y026840D02*
D03*
X026300Y040000D02*
D03*
X019350Y040900D02*
D03*
X027750Y038250D02*
D03*
X015350Y040800D02*
D03*
X018000Y022500D02*
D03*
X019550D02*
D03*
X018500Y019250D02*
D03*
X022450Y019950D02*
D03*
X022350Y019150D02*
D03*
X017800Y013900D02*
D03*
X018250Y012950D02*
D03*
X033250Y015950D02*
D03*
X032350Y019800D02*
D03*
X032430Y018830D02*
D03*
X032550Y026000D02*
D03*
X031700Y026050D02*
D03*
X032600Y014450D02*
D03*
X023200Y016200D02*
D03*
X018150Y025400D02*
D03*
X018550Y024500D02*
D03*
X029050Y017450D02*
D03*
X029800Y019400D02*
D03*
X016950Y031800D02*
D03*
Y036550D02*
D03*
X030700Y020200D02*
D03*
X029850Y021100D02*
D03*
X030650Y019500D02*
D03*
X017450Y040850D02*
D03*
X031750Y020250D02*
D03*
X032350Y020800D02*
D03*
X031750Y021300D02*
D03*
X032450Y021750D02*
D03*
X032050Y022700D02*
D03*
X032475Y023225D02*
D03*
X035150Y026150D02*
D03*
X037500Y040750D02*
D03*
X020500Y026750D02*
D03*
X019900D02*
D03*
X021100Y026700D02*
D03*
X029300Y024250D02*
D03*
X030450Y025250D02*
D03*
X029900Y024850D02*
D03*
X017950Y036200D02*
D03*
X020150Y032550D02*
D03*
X026700Y028400D02*
D03*
X027600Y027500D02*
D03*
X025550Y032559D02*
D03*
X022350Y028650D02*
D03*
X030559Y032541D02*
D03*
X038000Y025150D02*
D03*
X028700Y026190D02*
D03*
X022250Y030100D02*
D03*
X031200Y030350D02*
D03*
X035950Y030150D02*
D03*
X025750Y038950D02*
D03*
X024300Y037550D02*
D03*
X025500Y035500D02*
D03*
X024550Y024300D02*
D03*
X023750Y023850D02*
D03*
X027850Y026800D02*
D03*
X020450Y034800D02*
D03*
X026350Y029300D02*
D03*
X025550Y026950D02*
D03*
X033100Y026500D02*
D03*
X036950Y026650D02*
D03*
X038900Y026050D02*
D03*
X031350Y018650D02*
D03*
X034310Y024940D02*
D03*
X013570Y017010D02*
D03*
X016800Y020900D02*
D03*
X020410Y017450D02*
D03*
X038820Y015950D02*
D03*
M02*
