G04 Layer_Color=8388736*
%FSAX24Y24*%
%MOIN*%
G70*
G01*
G75*
%ADD50R,0.3460X0.0770*%
%ADD51R,0.0770X0.3460*%
%ADD52R,0.0669X0.0039*%
%ADD53R,0.0669X0.0039*%
%ADD54C,0.1200*%
%ADD55R,0.0533X0.0631*%
%ADD56O,0.0828X0.0316*%
%ADD57R,0.0552X0.0631*%
%ADD58R,0.0631X0.0533*%
%ADD59R,0.1340X0.0671*%
%ADD60R,0.0639X0.0525*%
%ADD61R,0.0434X0.0474*%
%ADD62R,0.0525X0.0639*%
%ADD63R,0.0631X0.0552*%
%ADD64R,0.2245X0.0867*%
%ADD65R,0.0592X0.0749*%
%ADD66R,0.1182X0.1025*%
%ADD67R,0.0533X0.0612*%
%ADD68O,0.0297X0.0769*%
%ADD69O,0.0769X0.0297*%
%ADD70R,0.0671X0.0316*%
%ADD71R,0.0671X0.0395*%
%ADD72R,0.1261X0.2442*%
%ADD73R,0.0395X0.0395*%
%ADD74R,0.0710X0.0631*%
%ADD75O,0.0749X0.0257*%
%ADD76R,0.2080X0.2080*%
%ADD77R,0.1830X0.1830*%
%ADD78R,0.0930X0.0930*%
%ADD79C,0.0930*%
%ADD80R,0.0080X0.0080*%
%ADD81R,0.0830X0.0830*%
%ADD82C,0.0830*%
%ADD83C,0.1490*%
%ADD84C,0.0742*%
%ADD85C,0.0430*%
D50*
X026450Y022775D02*
D03*
Y018325D02*
D03*
D51*
X028675Y020550D02*
D03*
X024225D02*
D03*
D52*
X023200Y034673D02*
D03*
X027502Y034617D02*
D03*
X020050Y030733D02*
D03*
X024300Y030733D02*
D03*
X033300Y030733D02*
D03*
X037550Y030733D02*
D03*
X028800Y030733D02*
D03*
D53*
X022098Y036011D02*
D03*
X026400Y035955D02*
D03*
X021152Y029395D02*
D03*
X025402D02*
D03*
X034402D02*
D03*
X038652D02*
D03*
X029902D02*
D03*
D54*
X011500Y040800D02*
D03*
Y014300D02*
D03*
X035700Y011500D02*
D03*
D55*
X017694Y032750D02*
D03*
X017006D02*
D03*
X017644Y034600D02*
D03*
X016956D02*
D03*
X015456Y029150D02*
D03*
X016144D02*
D03*
X028444Y039850D02*
D03*
X027756D02*
D03*
X028444Y041450D02*
D03*
X027756D02*
D03*
D56*
X037020Y019300D02*
D03*
Y019800D02*
D03*
Y020300D02*
D03*
Y020800D02*
D03*
Y021300D02*
D03*
Y021800D02*
D03*
Y022300D02*
D03*
Y022800D02*
D03*
Y023300D02*
D03*
Y023800D02*
D03*
X033280Y019300D02*
D03*
Y019800D02*
D03*
Y020300D02*
D03*
Y020800D02*
D03*
Y021300D02*
D03*
Y021800D02*
D03*
Y022300D02*
D03*
Y022800D02*
D03*
Y023300D02*
D03*
Y023800D02*
D03*
Y018300D02*
D03*
Y018800D02*
D03*
X037020D02*
D03*
Y018300D02*
D03*
D57*
X024100Y025100D02*
D03*
X023431D02*
D03*
X025569D02*
D03*
X024900D02*
D03*
X017585Y017350D02*
D03*
X016915D02*
D03*
X016900Y016250D02*
D03*
X017569D02*
D03*
X025135Y015350D02*
D03*
X024465D02*
D03*
X037135Y025150D02*
D03*
X036465D02*
D03*
X030365Y012450D02*
D03*
X031035D02*
D03*
X026369Y012400D02*
D03*
X025700D02*
D03*
X015465Y025700D02*
D03*
X016135D02*
D03*
X015465Y026800D02*
D03*
X016135D02*
D03*
X024300Y038900D02*
D03*
X024969D02*
D03*
X027950Y025100D02*
D03*
X028619D02*
D03*
D58*
X020350Y040206D02*
D03*
Y040894D02*
D03*
X038450Y019806D02*
D03*
Y020494D02*
D03*
X014350Y040206D02*
D03*
Y040894D02*
D03*
X018350Y040211D02*
D03*
Y040900D02*
D03*
X016350Y040211D02*
D03*
Y040900D02*
D03*
X022350Y040894D02*
D03*
Y040206D02*
D03*
D59*
X015450Y020104D02*
D03*
Y018450D02*
D03*
D60*
X012900Y018948D02*
D03*
Y018252D02*
D03*
X021400Y018253D02*
D03*
Y018950D02*
D03*
D61*
X015144Y021500D02*
D03*
X015656D02*
D03*
X015656Y024550D02*
D03*
X015144D02*
D03*
D62*
X016902Y018450D02*
D03*
X017598D02*
D03*
D63*
X021500Y022181D02*
D03*
Y022850D02*
D03*
X030300Y017431D02*
D03*
Y018100D02*
D03*
X021400Y020485D02*
D03*
Y019815D02*
D03*
D64*
X030290Y014200D02*
D03*
X026550D02*
D03*
D65*
X015249Y028000D02*
D03*
X016351D02*
D03*
D66*
X014370Y030984D02*
D03*
X011968D02*
D03*
X014370Y035472D02*
D03*
X011968D02*
D03*
D67*
X015156Y023550D02*
D03*
Y022500D02*
D03*
X015844Y023550D02*
D03*
Y022500D02*
D03*
D68*
X024875Y022774D02*
D03*
X025190D02*
D03*
X025505D02*
D03*
X025820D02*
D03*
X026135D02*
D03*
X026450D02*
D03*
X026765D02*
D03*
X027080D02*
D03*
X027395D02*
D03*
X027710D02*
D03*
X028025D02*
D03*
Y018326D02*
D03*
X027710D02*
D03*
X027395D02*
D03*
X027080D02*
D03*
X026765D02*
D03*
X026450D02*
D03*
X026135D02*
D03*
X025820D02*
D03*
X025505D02*
D03*
X025190D02*
D03*
X024875D02*
D03*
D69*
X028674Y022125D02*
D03*
Y021810D02*
D03*
Y021495D02*
D03*
Y021180D02*
D03*
Y020865D02*
D03*
Y020550D02*
D03*
Y020235D02*
D03*
Y019920D02*
D03*
Y019605D02*
D03*
Y019290D02*
D03*
Y018975D02*
D03*
X024226D02*
D03*
Y019290D02*
D03*
Y019605D02*
D03*
Y019920D02*
D03*
Y020235D02*
D03*
Y020550D02*
D03*
Y020865D02*
D03*
Y021180D02*
D03*
Y021495D02*
D03*
Y021810D02*
D03*
Y022125D02*
D03*
D70*
X022098Y035834D02*
D03*
X023200Y035637D02*
D03*
X022098Y035441D02*
D03*
X023200Y035244D02*
D03*
X022098Y035047D02*
D03*
X023200Y034850D02*
D03*
X027502Y034794D02*
D03*
X026400Y034991D02*
D03*
X027502Y035187D02*
D03*
X026400Y035384D02*
D03*
X027502Y035581D02*
D03*
X026400Y035778D02*
D03*
X020050Y030556D02*
D03*
X021152Y030359D02*
D03*
X020050Y030163D02*
D03*
X021152Y029966D02*
D03*
X020050Y029769D02*
D03*
X021152Y029572D02*
D03*
X025402D02*
D03*
X024300Y029769D02*
D03*
X025402Y029966D02*
D03*
X024300Y030163D02*
D03*
X025402Y030359D02*
D03*
X024300Y030556D02*
D03*
X034402Y029572D02*
D03*
X033300Y029769D02*
D03*
X034402Y029966D02*
D03*
X033300Y030163D02*
D03*
X034402Y030359D02*
D03*
X033300Y030556D02*
D03*
X037550D02*
D03*
X038652Y030359D02*
D03*
X037550Y030163D02*
D03*
X038652Y029966D02*
D03*
X037550Y029769D02*
D03*
X038652Y029572D02*
D03*
X028800Y030556D02*
D03*
X029902Y030359D02*
D03*
X028800Y030163D02*
D03*
X029902Y029966D02*
D03*
X028800Y029769D02*
D03*
X029902Y029572D02*
D03*
D71*
X023200Y036228D02*
D03*
X022098D02*
D03*
Y034456D02*
D03*
X023200D02*
D03*
X027502Y034400D02*
D03*
X026400D02*
D03*
Y036172D02*
D03*
X027502D02*
D03*
X020050Y030950D02*
D03*
X021152D02*
D03*
Y029178D02*
D03*
X020050D02*
D03*
X024300D02*
D03*
X025402D02*
D03*
Y030950D02*
D03*
X024300D02*
D03*
X033300Y029178D02*
D03*
X034402D02*
D03*
Y030950D02*
D03*
X033300D02*
D03*
X037550D02*
D03*
X038652D02*
D03*
Y029178D02*
D03*
X037550D02*
D03*
X028800Y030950D02*
D03*
X029902D02*
D03*
Y029178D02*
D03*
X028800D02*
D03*
D72*
X030698Y040730D02*
D03*
X035422D02*
D03*
D73*
X024950Y044000D02*
D03*
Y043409D02*
D03*
X026850Y044000D02*
D03*
Y043409D02*
D03*
D74*
X011100Y027200D02*
D03*
X014250D02*
D03*
Y028972D02*
D03*
X011100D02*
D03*
D75*
X023773Y040734D02*
D03*
Y040478D02*
D03*
Y040222D02*
D03*
Y039966D02*
D03*
X025427Y040734D02*
D03*
Y040478D02*
D03*
Y040222D02*
D03*
Y039966D02*
D03*
D76*
X011500Y011500D02*
D03*
X038500D02*
D03*
X037500Y043500D02*
D03*
D77*
X011500D02*
D03*
D78*
X016800Y012300D02*
D03*
D79*
Y011300D02*
D03*
X015800Y012300D02*
D03*
Y011300D02*
D03*
X014800Y012300D02*
D03*
Y011300D02*
D03*
D80*
X013740Y033228D02*
D03*
X011968D02*
D03*
D81*
X022350Y043150D02*
D03*
D82*
X021350D02*
D03*
X020350D02*
D03*
X019350D02*
D03*
X018350D02*
D03*
X017350D02*
D03*
X016350D02*
D03*
X015350D02*
D03*
X014350D02*
D03*
X013350D02*
D03*
D83*
X011500Y020091D02*
D03*
Y024831D02*
D03*
D84*
X013354Y021969D02*
D03*
Y022953D02*
D03*
X012567D02*
D03*
Y021969D02*
D03*
D85*
X020150Y032550D02*
D03*
M02*
