G04 Layer_Color=32896*
%FSAX24Y24*%
%MOIN*%
G70*
G01*
G75*
G36*
X016174Y035731D02*
X016188Y035723D01*
X016200Y035715D01*
X016212Y035707D01*
X016222Y035700D01*
X016232Y035694D01*
X016240Y035688D01*
X016248Y035682D01*
X016255Y035677D01*
X016260Y035673D01*
X016265Y035669D01*
X016269Y035665D01*
X016273Y035663D01*
X016275Y035661D01*
X016277Y035659D01*
X016278Y035658D01*
X016289Y035647D01*
X016299Y035636D01*
X016308Y035624D01*
X016316Y035613D01*
X016323Y035603D01*
X016328Y035595D01*
X016330Y035593D01*
X016330Y035590D01*
X016332Y035589D01*
Y035588D01*
X016335Y035604D01*
X016338Y035618D01*
X016342Y035631D01*
X016346Y035644D01*
X016351Y035656D01*
X016356Y035666D01*
X016361Y035675D01*
X016366Y035683D01*
X016371Y035691D01*
X016376Y035697D01*
X016380Y035703D01*
X016384Y035708D01*
X016387Y035711D01*
X016389Y035713D01*
X016391Y035715D01*
X016391Y035715D01*
X016400Y035723D01*
X016410Y035729D01*
X016420Y035735D01*
X016430Y035740D01*
X016440Y035744D01*
X016450Y035747D01*
X016469Y035752D01*
X016478Y035754D01*
X016486Y035756D01*
X016493Y035756D01*
X016499Y035757D01*
X016504Y035758D01*
X016511D01*
X016532Y035756D01*
X016550Y035754D01*
X016568Y035749D01*
X016582Y035744D01*
X016589Y035741D01*
X016595Y035738D01*
X016600Y035736D01*
X016604Y035733D01*
X016607Y035732D01*
X016609Y035731D01*
X016611Y035729D01*
X016611D01*
X016627Y035718D01*
X016640Y035706D01*
X016650Y035694D01*
X016659Y035682D01*
X016666Y035671D01*
X016668Y035667D01*
X016670Y035663D01*
X016671Y035659D01*
X016673Y035657D01*
X016673Y035656D01*
Y035655D01*
X016676Y035646D01*
X016679Y035636D01*
X016682Y035624D01*
X016683Y035612D01*
X016686Y035588D01*
X016688Y035563D01*
X016689Y035552D01*
X016690Y035540D01*
Y035531D01*
X016691Y035522D01*
Y035515D01*
Y035511D01*
Y035507D01*
Y035506D01*
Y035234D01*
X016050D01*
Y035363D01*
X016317D01*
Y035388D01*
Y035404D01*
X016316Y035418D01*
X016315Y035429D01*
X016314Y035438D01*
X016312Y035445D01*
X016311Y035450D01*
X016310Y035453D01*
X016310Y035454D01*
X016307Y035461D01*
X016303Y035468D01*
X016298Y035475D01*
X016294Y035481D01*
X016289Y035486D01*
X016287Y035490D01*
X016284Y035492D01*
X016283Y035493D01*
X016279Y035497D01*
X016273Y035501D01*
X016267Y035506D01*
X016260Y035511D01*
X016245Y035522D01*
X016229Y035534D01*
X016214Y035545D01*
X016208Y035549D01*
X016201Y035553D01*
X016196Y035556D01*
X016193Y035559D01*
X016190Y035561D01*
X016189Y035561D01*
X016050Y035655D01*
Y035810D01*
X016174Y035731D01*
D02*
G37*
G36*
X016691Y034642D02*
X016582D01*
Y034833D01*
X016050D01*
Y034962D01*
X016582D01*
Y035150D01*
X016691D01*
Y034642D01*
D02*
G37*
G36*
Y036201D02*
Y036064D01*
X016050Y035815D01*
Y035951D01*
X016196Y036005D01*
Y036261D01*
X016050Y036317D01*
Y036458D01*
X016691Y036201D01*
D02*
G37*
G36*
X016258Y037659D02*
X016278Y037656D01*
X016295Y037652D01*
X016303Y037650D01*
X016310Y037647D01*
X016316Y037645D01*
X016321Y037643D01*
X016326Y037640D01*
X016330Y037638D01*
X016334Y037636D01*
X016336Y037636D01*
X016337Y037634D01*
X016338D01*
X016353Y037624D01*
X016366Y037612D01*
X016377Y037600D01*
X016387Y037589D01*
X016394Y037579D01*
X016399Y037570D01*
X016400Y037567D01*
X016402Y037565D01*
X016403Y037563D01*
Y037563D01*
X016407Y037554D01*
X016412Y037544D01*
X016416Y037533D01*
X016421Y037522D01*
X016428Y037499D01*
X016435Y037476D01*
X016438Y037466D01*
X016441Y037455D01*
X016444Y037447D01*
X016446Y037439D01*
X016447Y037432D01*
X016448Y037427D01*
X016449Y037425D01*
Y037423D01*
X016453Y037407D01*
X016457Y037391D01*
X016462Y037377D01*
X016466Y037365D01*
X016469Y037354D01*
X016473Y037344D01*
X016476Y037336D01*
X016479Y037329D01*
X016482Y037323D01*
X016484Y037317D01*
X016487Y037313D01*
X016489Y037310D01*
X016490Y037307D01*
X016491Y037306D01*
X016492Y037305D01*
X016498Y037298D01*
X016505Y037293D01*
X016512Y037291D01*
X016518Y037288D01*
X016523Y037287D01*
X016527Y037286D01*
X016531D01*
X016540Y037287D01*
X016548Y037289D01*
X016555Y037292D01*
X016560Y037296D01*
X016564Y037300D01*
X016568Y037303D01*
X016570Y037305D01*
X016571Y037306D01*
X016578Y037319D01*
X016584Y037333D01*
X016589Y037348D01*
X016591Y037362D01*
X016593Y037375D01*
X016593Y037381D01*
X016594Y037386D01*
Y037389D01*
Y037392D01*
Y037394D01*
Y037395D01*
X016593Y037414D01*
X016591Y037431D01*
X016587Y037445D01*
X016583Y037457D01*
X016579Y037466D01*
X016575Y037472D01*
X016573Y037475D01*
X016572Y037477D01*
X016563Y037486D01*
X016552Y037494D01*
X016540Y037500D01*
X016529Y037505D01*
X016518Y037509D01*
X016514Y037510D01*
X016509Y037511D01*
X016507Y037512D01*
X016504D01*
X016502Y037513D01*
X016502D01*
X016507Y037642D01*
X016523Y037640D01*
X016538Y037638D01*
X016552Y037635D01*
X016566Y037630D01*
X016578Y037625D01*
X016590Y037620D01*
X016600Y037614D01*
X016610Y037609D01*
X016618Y037602D01*
X016626Y037597D01*
X016633Y037592D01*
X016638Y037587D01*
X016642Y037583D01*
X016645Y037580D01*
X016647Y037578D01*
X016648Y037577D01*
X016657Y037566D01*
X016665Y037552D01*
X016673Y037538D01*
X016679Y037523D01*
X016684Y037509D01*
X016688Y037493D01*
X016691Y037478D01*
X016694Y037464D01*
X016697Y037450D01*
X016698Y037437D01*
X016700Y037426D01*
X016700Y037416D01*
X016701Y037408D01*
Y037402D01*
Y037398D01*
Y037397D01*
Y037396D01*
X016700Y037369D01*
X016699Y037357D01*
X016697Y037345D01*
X016695Y037334D01*
X016694Y037323D01*
X016692Y037314D01*
X016690Y037305D01*
X016687Y037297D01*
X016685Y037290D01*
X016684Y037284D01*
X016682Y037279D01*
X016680Y037275D01*
X016679Y037272D01*
X016678Y037271D01*
Y037270D01*
X016669Y037252D01*
X016659Y037235D01*
X016648Y037222D01*
X016638Y037210D01*
X016628Y037202D01*
X016620Y037195D01*
X016618Y037193D01*
X016616Y037191D01*
X016614Y037190D01*
X016614D01*
X016598Y037181D01*
X016582Y037174D01*
X016566Y037169D01*
X016552Y037166D01*
X016540Y037164D01*
X016534Y037163D01*
X016530D01*
X016527Y037162D01*
X016522D01*
X016508Y037163D01*
X016495Y037165D01*
X016482Y037168D01*
X016470Y037171D01*
X016459Y037176D01*
X016448Y037181D01*
X016438Y037187D01*
X016429Y037192D01*
X016421Y037197D01*
X016414Y037203D01*
X016407Y037207D01*
X016403Y037212D01*
X016398Y037216D01*
X016396Y037219D01*
X016394Y037221D01*
X016393Y037221D01*
X016386Y037230D01*
X016380Y037239D01*
X016373Y037250D01*
X016367Y037262D01*
X016357Y037286D01*
X016347Y037310D01*
X016344Y037321D01*
X016340Y037332D01*
X016337Y037341D01*
X016335Y037350D01*
X016332Y037357D01*
X016331Y037362D01*
X016330Y037366D01*
Y037367D01*
X016326Y037382D01*
X016323Y037395D01*
X016320Y037407D01*
X016317Y037417D01*
X016314Y037427D01*
X016312Y037435D01*
X016310Y037443D01*
X016308Y037449D01*
X016307Y037455D01*
X016305Y037459D01*
X016304Y037463D01*
X016303Y037466D01*
X016303Y037468D01*
Y037469D01*
X016302Y037470D01*
X016297Y037482D01*
X016293Y037492D01*
X016288Y037500D01*
X016284Y037507D01*
X016280Y037511D01*
X016277Y037514D01*
X016275Y037516D01*
X016274Y037517D01*
X016268Y037522D01*
X016262Y037525D01*
X016255Y037527D01*
X016248Y037529D01*
X016244Y037530D01*
X016239Y037531D01*
X016229D01*
X016223Y037529D01*
X016211Y037526D01*
X016200Y037520D01*
X016191Y037515D01*
X016184Y037509D01*
X016178Y037504D01*
X016175Y037500D01*
X016174Y037500D01*
Y037499D01*
X016169Y037493D01*
X016165Y037486D01*
X016158Y037470D01*
X016153Y037455D01*
X016151Y037439D01*
X016149Y037425D01*
X016148Y037420D01*
Y037414D01*
X016147Y037410D01*
Y037407D01*
Y037405D01*
Y037404D01*
X016149Y037383D01*
X016152Y037364D01*
X016156Y037348D01*
X016162Y037334D01*
X016165Y037329D01*
X016167Y037324D01*
X016169Y037319D01*
X016171Y037316D01*
X016174Y037313D01*
X016175Y037311D01*
X016176Y037310D01*
Y037309D01*
X016183Y037303D01*
X016189Y037298D01*
X016203Y037288D01*
X016219Y037280D01*
X016235Y037273D01*
X016248Y037269D01*
X016254Y037267D01*
X016260Y037266D01*
X016264Y037265D01*
X016267Y037264D01*
X016269Y037264D01*
X016270D01*
X016258Y037138D01*
X016238Y037141D01*
X016219Y037145D01*
X016203Y037150D01*
X016187Y037155D01*
X016172Y037162D01*
X016158Y037168D01*
X016146Y037175D01*
X016135Y037182D01*
X016126Y037188D01*
X016117Y037194D01*
X016110Y037200D01*
X016104Y037205D01*
X016100Y037210D01*
X016097Y037213D01*
X016094Y037215D01*
X016094Y037216D01*
X016084Y037229D01*
X016076Y037243D01*
X016068Y037257D01*
X016062Y037273D01*
X016056Y037288D01*
X016052Y037303D01*
X016048Y037318D01*
X016045Y037334D01*
X016043Y037348D01*
X016041Y037361D01*
X016040Y037373D01*
X016039Y037382D01*
Y037391D01*
X016038Y037397D01*
Y037401D01*
Y037402D01*
Y037418D01*
X016039Y037432D01*
X016040Y037447D01*
X016042Y037459D01*
X016044Y037472D01*
X016045Y037484D01*
X016047Y037494D01*
X016050Y037504D01*
X016052Y037512D01*
X016054Y037520D01*
X016056Y037527D01*
X016058Y037532D01*
X016059Y037536D01*
X016060Y037539D01*
X016061Y037541D01*
Y037542D01*
X016071Y037562D01*
X016082Y037579D01*
X016094Y037594D01*
X016106Y037606D01*
X016116Y037616D01*
X016121Y037620D01*
X016125Y037623D01*
X016128Y037625D01*
X016130Y037627D01*
X016132Y037629D01*
X016133D01*
X016142Y037634D01*
X016151Y037639D01*
X016169Y037647D01*
X016187Y037652D01*
X016203Y037656D01*
X016210Y037657D01*
X016216Y037659D01*
X016222Y037659D01*
X016227D01*
X016230Y037660D01*
X016236D01*
X016258Y037659D01*
D02*
G37*
G36*
X016691Y036916D02*
X016260D01*
X016691Y036652D01*
Y036527D01*
X016050D01*
Y036647D01*
X016471D01*
X016050Y036906D01*
Y037035D01*
X016691D01*
Y036916D01*
D02*
G37*
G36*
X016507Y034332D02*
X016521Y034332D01*
X016533Y034329D01*
X016545Y034327D01*
X016556Y034325D01*
X016566Y034321D01*
X016575Y034318D01*
X016584Y034314D01*
X016592Y034311D01*
X016598Y034307D01*
X016605Y034304D01*
X016609Y034301D01*
X016613Y034299D01*
X016616Y034297D01*
X016617Y034296D01*
X016618Y034295D01*
X016627Y034288D01*
X016634Y034281D01*
X016641Y034273D01*
X016648Y034265D01*
X016659Y034250D01*
X016668Y034235D01*
X016674Y034223D01*
X016676Y034217D01*
X016678Y034212D01*
X016679Y034209D01*
X016680Y034206D01*
X016681Y034204D01*
Y034203D01*
X016682Y034195D01*
X016684Y034186D01*
X016686Y034176D01*
X016686Y034164D01*
X016687Y034152D01*
X016688Y034139D01*
X016689Y034113D01*
X016690Y034100D01*
Y034089D01*
X016691Y034078D01*
Y034068D01*
Y034061D01*
Y034055D01*
Y034051D01*
Y034050D01*
Y033842D01*
X016050D01*
Y033971D01*
X016292D01*
Y034055D01*
Y034071D01*
X016292Y034087D01*
Y034100D01*
X016293Y034114D01*
X016294Y034125D01*
X016294Y034136D01*
X016295Y034147D01*
X016296Y034156D01*
X016297Y034164D01*
X016298Y034170D01*
X016298Y034177D01*
X016299Y034182D01*
X016300Y034185D01*
Y034188D01*
X016301Y034189D01*
Y034190D01*
X016304Y034202D01*
X016308Y034215D01*
X016313Y034226D01*
X016318Y034236D01*
X016323Y034245D01*
X016327Y034251D01*
X016330Y034255D01*
X016330Y034256D01*
Y034257D01*
X016340Y034268D01*
X016351Y034279D01*
X016361Y034288D01*
X016371Y034297D01*
X016380Y034303D01*
X016387Y034307D01*
X016390Y034309D01*
X016392Y034311D01*
X016393Y034311D01*
X016394D01*
X016409Y034318D01*
X016426Y034324D01*
X016443Y034327D01*
X016458Y034330D01*
X016466Y034331D01*
X016472Y034332D01*
X016478Y034332D01*
X016483Y034333D01*
X016493D01*
X016507Y034332D01*
D02*
G37*
G36*
X015258Y037859D02*
X015278Y037856D01*
X015295Y037852D01*
X015303Y037850D01*
X015310Y037847D01*
X015316Y037845D01*
X015321Y037843D01*
X015326Y037840D01*
X015330Y037838D01*
X015334Y037836D01*
X015336Y037836D01*
X015337Y037834D01*
X015338D01*
X015353Y037824D01*
X015366Y037812D01*
X015377Y037800D01*
X015387Y037789D01*
X015394Y037779D01*
X015399Y037770D01*
X015400Y037767D01*
X015402Y037765D01*
X015403Y037763D01*
Y037763D01*
X015407Y037754D01*
X015412Y037744D01*
X015416Y037733D01*
X015421Y037722D01*
X015428Y037699D01*
X015435Y037676D01*
X015438Y037666D01*
X015441Y037655D01*
X015444Y037647D01*
X015446Y037639D01*
X015447Y037632D01*
X015448Y037627D01*
X015449Y037625D01*
Y037623D01*
X015453Y037607D01*
X015457Y037591D01*
X015462Y037577D01*
X015466Y037565D01*
X015469Y037554D01*
X015473Y037544D01*
X015476Y037536D01*
X015479Y037529D01*
X015482Y037523D01*
X015484Y037517D01*
X015487Y037513D01*
X015489Y037510D01*
X015490Y037507D01*
X015491Y037506D01*
X015492Y037505D01*
X015498Y037498D01*
X015505Y037493D01*
X015512Y037491D01*
X015518Y037488D01*
X015523Y037487D01*
X015527Y037486D01*
X015531D01*
X015540Y037487D01*
X015548Y037489D01*
X015555Y037492D01*
X015560Y037496D01*
X015564Y037500D01*
X015568Y037503D01*
X015570Y037505D01*
X015570Y037506D01*
X015578Y037519D01*
X015584Y037533D01*
X015589Y037548D01*
X015591Y037562D01*
X015593Y037575D01*
X015593Y037581D01*
X015594Y037586D01*
Y037589D01*
Y037592D01*
Y037594D01*
Y037595D01*
X015593Y037614D01*
X015591Y037631D01*
X015587Y037645D01*
X015583Y037657D01*
X015579Y037666D01*
X015575Y037672D01*
X015573Y037675D01*
X015572Y037677D01*
X015563Y037686D01*
X015552Y037694D01*
X015540Y037700D01*
X015529Y037705D01*
X015518Y037709D01*
X015514Y037710D01*
X015509Y037711D01*
X015507Y037712D01*
X015504D01*
X015502Y037713D01*
X015502D01*
X015507Y037842D01*
X015523Y037840D01*
X015538Y037838D01*
X015552Y037835D01*
X015566Y037830D01*
X015578Y037825D01*
X015590Y037820D01*
X015600Y037814D01*
X015610Y037809D01*
X015618Y037802D01*
X015626Y037797D01*
X015633Y037792D01*
X015638Y037787D01*
X015642Y037783D01*
X015645Y037780D01*
X015647Y037778D01*
X015648Y037777D01*
X015657Y037766D01*
X015665Y037752D01*
X015673Y037738D01*
X015679Y037723D01*
X015684Y037709D01*
X015688Y037693D01*
X015691Y037678D01*
X015694Y037664D01*
X015697Y037650D01*
X015698Y037637D01*
X015700Y037626D01*
X015700Y037616D01*
X015701Y037608D01*
Y037602D01*
Y037598D01*
Y037597D01*
Y037596D01*
X015700Y037569D01*
X015699Y037557D01*
X015697Y037545D01*
X015695Y037534D01*
X015694Y037523D01*
X015692Y037514D01*
X015690Y037505D01*
X015687Y037497D01*
X015685Y037490D01*
X015684Y037484D01*
X015682Y037479D01*
X015680Y037475D01*
X015679Y037472D01*
X015678Y037471D01*
Y037470D01*
X015669Y037452D01*
X015659Y037435D01*
X015648Y037422D01*
X015638Y037410D01*
X015628Y037402D01*
X015620Y037395D01*
X015618Y037393D01*
X015616Y037391D01*
X015614Y037390D01*
X015614D01*
X015598Y037381D01*
X015582Y037374D01*
X015566Y037369D01*
X015552Y037366D01*
X015540Y037364D01*
X015534Y037363D01*
X015530D01*
X015527Y037362D01*
X015522D01*
X015508Y037363D01*
X015495Y037365D01*
X015482Y037368D01*
X015470Y037371D01*
X015459Y037376D01*
X015448Y037381D01*
X015438Y037387D01*
X015429Y037392D01*
X015421Y037397D01*
X015414Y037403D01*
X015407Y037407D01*
X015403Y037412D01*
X015398Y037416D01*
X015396Y037419D01*
X015394Y037421D01*
X015393Y037421D01*
X015386Y037430D01*
X015380Y037439D01*
X015373Y037450D01*
X015367Y037462D01*
X015357Y037486D01*
X015347Y037510D01*
X015344Y037521D01*
X015340Y037532D01*
X015337Y037541D01*
X015335Y037550D01*
X015332Y037557D01*
X015331Y037562D01*
X015330Y037566D01*
Y037567D01*
X015326Y037582D01*
X015323Y037595D01*
X015320Y037607D01*
X015317Y037617D01*
X015314Y037627D01*
X015312Y037635D01*
X015310Y037643D01*
X015308Y037649D01*
X015307Y037655D01*
X015305Y037659D01*
X015304Y037663D01*
X015303Y037666D01*
X015303Y037668D01*
Y037669D01*
X015302Y037670D01*
X015297Y037682D01*
X015293Y037692D01*
X015288Y037700D01*
X015284Y037707D01*
X015280Y037711D01*
X015277Y037714D01*
X015275Y037716D01*
X015274Y037717D01*
X015268Y037722D01*
X015262Y037725D01*
X015255Y037727D01*
X015248Y037729D01*
X015244Y037730D01*
X015239Y037731D01*
X015229D01*
X015223Y037729D01*
X015211Y037726D01*
X015200Y037720D01*
X015191Y037715D01*
X015184Y037709D01*
X015178Y037704D01*
X015175Y037700D01*
X015174Y037700D01*
Y037699D01*
X015169Y037693D01*
X015165Y037686D01*
X015158Y037670D01*
X015153Y037655D01*
X015151Y037639D01*
X015149Y037625D01*
X015148Y037620D01*
Y037614D01*
X015147Y037610D01*
Y037607D01*
Y037605D01*
Y037604D01*
X015149Y037583D01*
X015152Y037564D01*
X015156Y037548D01*
X015162Y037534D01*
X015165Y037529D01*
X015167Y037524D01*
X015169Y037519D01*
X015171Y037516D01*
X015174Y037513D01*
X015175Y037511D01*
X015176Y037510D01*
Y037509D01*
X015183Y037503D01*
X015189Y037498D01*
X015203Y037488D01*
X015219Y037480D01*
X015235Y037473D01*
X015248Y037469D01*
X015254Y037467D01*
X015260Y037466D01*
X015264Y037465D01*
X015267Y037464D01*
X015269Y037464D01*
X015270D01*
X015258Y037338D01*
X015238Y037341D01*
X015219Y037345D01*
X015203Y037350D01*
X015187Y037355D01*
X015172Y037362D01*
X015158Y037368D01*
X015146Y037375D01*
X015135Y037382D01*
X015126Y037388D01*
X015117Y037394D01*
X015110Y037400D01*
X015104Y037405D01*
X015100Y037410D01*
X015096Y037413D01*
X015094Y037415D01*
X015094Y037416D01*
X015084Y037429D01*
X015076Y037443D01*
X015068Y037457D01*
X015062Y037473D01*
X015056Y037488D01*
X015052Y037503D01*
X015048Y037518D01*
X015045Y037534D01*
X015043Y037548D01*
X015041Y037561D01*
X015040Y037573D01*
X015039Y037582D01*
Y037591D01*
X015038Y037597D01*
Y037601D01*
Y037602D01*
Y037618D01*
X015039Y037632D01*
X015040Y037647D01*
X015042Y037659D01*
X015044Y037672D01*
X015045Y037684D01*
X015047Y037694D01*
X015050Y037704D01*
X015052Y037712D01*
X015054Y037720D01*
X015056Y037727D01*
X015058Y037732D01*
X015059Y037736D01*
X015060Y037739D01*
X015061Y037741D01*
Y037742D01*
X015071Y037762D01*
X015082Y037779D01*
X015094Y037794D01*
X015106Y037806D01*
X015116Y037816D01*
X015121Y037820D01*
X015125Y037823D01*
X015128Y037825D01*
X015130Y037827D01*
X015132Y037829D01*
X015133D01*
X015142Y037834D01*
X015151Y037839D01*
X015169Y037847D01*
X015187Y037852D01*
X015203Y037856D01*
X015210Y037857D01*
X015216Y037859D01*
X015222Y037859D01*
X015227D01*
X015230Y037860D01*
X015236D01*
X015258Y037859D01*
D02*
G37*
G36*
X015691Y037116D02*
X015260D01*
X015691Y036852D01*
Y036727D01*
X015050D01*
Y036847D01*
X015471D01*
X015050Y037106D01*
Y037235D01*
X015691D01*
Y037116D01*
D02*
G37*
G36*
X015344Y037954D02*
X015221D01*
Y038195D01*
X015344D01*
Y037954D01*
D02*
G37*
G36*
X016174Y033694D02*
X016188Y033685D01*
X016200Y033677D01*
X016212Y033669D01*
X016222Y033662D01*
X016232Y033656D01*
X016240Y033650D01*
X016248Y033644D01*
X016255Y033640D01*
X016260Y033635D01*
X016265Y033631D01*
X016269Y033628D01*
X016273Y033625D01*
X016275Y033623D01*
X016277Y033622D01*
X016278Y033620D01*
X016289Y033610D01*
X016299Y033598D01*
X016308Y033586D01*
X016316Y033575D01*
X016323Y033565D01*
X016328Y033558D01*
X016330Y033555D01*
X016330Y033553D01*
X016332Y033551D01*
Y033551D01*
X016335Y033566D01*
X016338Y033581D01*
X016342Y033594D01*
X016346Y033606D01*
X016351Y033618D01*
X016356Y033628D01*
X016361Y033637D01*
X016366Y033646D01*
X016371Y033653D01*
X016376Y033660D01*
X016380Y033665D01*
X016384Y033670D01*
X016387Y033674D01*
X016389Y033676D01*
X016391Y033677D01*
X016391Y033678D01*
X016400Y033685D01*
X016410Y033692D01*
X016420Y033697D01*
X016430Y033702D01*
X016440Y033706D01*
X016450Y033710D01*
X016469Y033715D01*
X016478Y033717D01*
X016486Y033718D01*
X016493Y033719D01*
X016499Y033719D01*
X016504Y033720D01*
X016511D01*
X016532Y033719D01*
X016550Y033716D01*
X016568Y033711D01*
X016582Y033706D01*
X016589Y033703D01*
X016595Y033701D01*
X016600Y033699D01*
X016604Y033696D01*
X016607Y033694D01*
X016609Y033693D01*
X016611Y033692D01*
X016611D01*
X016627Y033681D01*
X016640Y033668D01*
X016650Y033656D01*
X016659Y033644D01*
X016666Y033633D01*
X016668Y033629D01*
X016670Y033625D01*
X016671Y033622D01*
X016673Y033619D01*
X016673Y033618D01*
Y033617D01*
X016676Y033608D01*
X016679Y033598D01*
X016682Y033586D01*
X016683Y033574D01*
X016686Y033550D01*
X016688Y033525D01*
X016689Y033514D01*
X016690Y033503D01*
Y033493D01*
X016691Y033485D01*
Y033478D01*
Y033473D01*
Y033470D01*
Y033468D01*
Y033196D01*
X016050D01*
Y033325D01*
X016317D01*
Y033351D01*
Y033367D01*
X016316Y033380D01*
X016315Y033391D01*
X016314Y033400D01*
X016312Y033407D01*
X016311Y033412D01*
X016310Y033415D01*
X016310Y033416D01*
X016307Y033424D01*
X016303Y033431D01*
X016298Y033438D01*
X016294Y033443D01*
X016289Y033448D01*
X016287Y033452D01*
X016284Y033454D01*
X016283Y033455D01*
X016279Y033459D01*
X016273Y033463D01*
X016267Y033468D01*
X016260Y033474D01*
X016245Y033485D01*
X016229Y033497D01*
X016214Y033507D01*
X016208Y033512D01*
X016201Y033515D01*
X016196Y033519D01*
X016193Y033522D01*
X016190Y033523D01*
X016189Y033524D01*
X016050Y033617D01*
Y033772D01*
X016174Y033694D01*
D02*
G37*
G36*
X016396Y033086D02*
X016411Y033084D01*
X016425Y033083D01*
X016439Y033082D01*
X016451Y033080D01*
X016463Y033077D01*
X016473Y033076D01*
X016482Y033074D01*
X016491Y033072D01*
X016498Y033070D01*
X016504Y033068D01*
X016509Y033067D01*
X016512Y033066D01*
X016514Y033065D01*
X016515D01*
X016537Y033057D01*
X016557Y033047D01*
X016575Y033036D01*
X016583Y033032D01*
X016590Y033027D01*
X016597Y033022D01*
X016602Y033018D01*
X016607Y033014D01*
X016611Y033011D01*
X016615Y033008D01*
X016617Y033006D01*
X016618Y033005D01*
X016619Y033004D01*
X016634Y032988D01*
X016646Y032972D01*
X016657Y032956D01*
X016664Y032941D01*
X016670Y032928D01*
X016673Y032922D01*
X016675Y032917D01*
X016676Y032913D01*
X016677Y032910D01*
X016678Y032908D01*
Y032907D01*
X016680Y032899D01*
X016682Y032890D01*
X016685Y032871D01*
X016688Y032850D01*
X016689Y032831D01*
X016690Y032822D01*
Y032814D01*
Y032806D01*
X016691Y032799D01*
Y032794D01*
Y032789D01*
Y032787D01*
Y032786D01*
Y032550D01*
X016050D01*
Y032793D01*
Y032806D01*
X016051Y032819D01*
X016051Y032830D01*
X016052Y032841D01*
X016053Y032851D01*
X016054Y032861D01*
X016056Y032869D01*
X016057Y032877D01*
X016058Y032884D01*
X016059Y032890D01*
X016060Y032896D01*
X016061Y032900D01*
X016062Y032903D01*
X016062Y032905D01*
X016063Y032907D01*
Y032907D01*
X016071Y032928D01*
X016079Y032946D01*
X016087Y032961D01*
X016096Y032974D01*
X016099Y032980D01*
X016103Y032984D01*
X016106Y032988D01*
X016109Y032991D01*
X016111Y032994D01*
X016113Y032996D01*
X016114Y032997D01*
X016115Y032998D01*
X016132Y033014D01*
X016151Y033027D01*
X016169Y033039D01*
X016187Y033049D01*
X016196Y033053D01*
X016203Y033057D01*
X016210Y033059D01*
X016216Y033062D01*
X016221Y033064D01*
X016225Y033065D01*
X016227Y033066D01*
X016228D01*
X016250Y033073D01*
X016273Y033078D01*
X016296Y033082D01*
X016317Y033084D01*
X016327Y033085D01*
X016336Y033086D01*
X016344D01*
X016351Y033086D01*
X016380D01*
X016396Y033086D01*
D02*
G37*
G36*
X017344Y037956D02*
X017221D01*
Y038198D01*
X017344D01*
Y037956D01*
D02*
G37*
G36*
X017691Y037768D02*
X017217Y037612D01*
X017691Y037449D01*
Y037310D01*
X017050Y037538D01*
Y037677D01*
X017691Y037906D01*
Y037768D01*
D02*
G37*
G36*
X018691Y033800D02*
X018582D01*
Y033990D01*
X018050D01*
Y034119D01*
X018582D01*
Y034308D01*
X018691D01*
Y033800D01*
D02*
G37*
G36*
X018174Y035783D02*
X018188Y035775D01*
X018200Y035767D01*
X018212Y035759D01*
X018222Y035752D01*
X018232Y035746D01*
X018240Y035740D01*
X018248Y035734D01*
X018255Y035729D01*
X018260Y035725D01*
X018265Y035721D01*
X018269Y035718D01*
X018273Y035715D01*
X018275Y035713D01*
X018277Y035711D01*
X018278Y035710D01*
X018289Y035699D01*
X018299Y035688D01*
X018308Y035676D01*
X018316Y035665D01*
X018323Y035655D01*
X018328Y035647D01*
X018330Y035645D01*
X018330Y035643D01*
X018332Y035641D01*
Y035640D01*
X018335Y035656D01*
X018338Y035670D01*
X018342Y035684D01*
X018346Y035696D01*
X018351Y035708D01*
X018356Y035718D01*
X018361Y035727D01*
X018366Y035736D01*
X018371Y035743D01*
X018376Y035749D01*
X018380Y035755D01*
X018384Y035760D01*
X018387Y035763D01*
X018389Y035765D01*
X018391Y035767D01*
X018391Y035767D01*
X018400Y035775D01*
X018410Y035781D01*
X018420Y035787D01*
X018430Y035792D01*
X018440Y035796D01*
X018450Y035799D01*
X018469Y035804D01*
X018477Y035806D01*
X018486Y035808D01*
X018493Y035808D01*
X018499Y035809D01*
X018504Y035810D01*
X018511D01*
X018532Y035808D01*
X018550Y035806D01*
X018568Y035801D01*
X018582Y035796D01*
X018589Y035793D01*
X018595Y035790D01*
X018600Y035788D01*
X018604Y035786D01*
X018607Y035784D01*
X018609Y035783D01*
X018611Y035781D01*
X018611D01*
X018627Y035770D01*
X018640Y035758D01*
X018650Y035746D01*
X018659Y035734D01*
X018666Y035723D01*
X018668Y035719D01*
X018670Y035715D01*
X018671Y035711D01*
X018673Y035709D01*
X018673Y035708D01*
Y035707D01*
X018676Y035698D01*
X018679Y035688D01*
X018682Y035676D01*
X018683Y035664D01*
X018686Y035640D01*
X018688Y035615D01*
X018689Y035604D01*
X018690Y035593D01*
Y035583D01*
X018691Y035575D01*
Y035568D01*
Y035563D01*
Y035559D01*
Y035558D01*
Y035286D01*
X018050D01*
Y035415D01*
X018317D01*
Y035441D01*
Y035457D01*
X018316Y035470D01*
X018315Y035481D01*
X018314Y035490D01*
X018312Y035497D01*
X018311Y035502D01*
X018310Y035505D01*
X018310Y035506D01*
X018307Y035513D01*
X018303Y035520D01*
X018298Y035527D01*
X018294Y035533D01*
X018289Y035538D01*
X018287Y035542D01*
X018284Y035544D01*
X018283Y035545D01*
X018279Y035549D01*
X018273Y035553D01*
X018267Y035558D01*
X018260Y035563D01*
X018245Y035575D01*
X018229Y035586D01*
X018214Y035597D01*
X018208Y035602D01*
X018201Y035605D01*
X018196Y035609D01*
X018193Y035611D01*
X018190Y035613D01*
X018189Y035613D01*
X018050Y035707D01*
Y035862D01*
X018174Y035783D01*
D02*
G37*
G36*
X018691Y034774D02*
X018439D01*
Y034520D01*
X018691D01*
Y034391D01*
X018050D01*
Y034520D01*
X018330D01*
Y034774D01*
X018050D01*
Y034903D01*
X018691D01*
Y034774D01*
D02*
G37*
G36*
X017285Y037138D02*
X017273Y037135D01*
X017260Y037131D01*
X017249Y037127D01*
X017239Y037123D01*
X017230Y037118D01*
X017221Y037114D01*
X017214Y037109D01*
X017207Y037105D01*
X017201Y037101D01*
X017196Y037097D01*
X017192Y037093D01*
X017188Y037090D01*
X017185Y037088D01*
X017183Y037086D01*
X017183Y037085D01*
X017182Y037084D01*
X017176Y037077D01*
X017171Y037070D01*
X017163Y037055D01*
X017158Y037040D01*
X017153Y037027D01*
X017151Y037014D01*
X017150Y037009D01*
Y037004D01*
X017149Y037001D01*
Y036998D01*
Y036997D01*
Y036996D01*
X017150Y036984D01*
X017151Y036971D01*
X017154Y036959D01*
X017158Y036949D01*
X017161Y036938D01*
X017165Y036929D01*
X017170Y036920D01*
X017175Y036913D01*
X017180Y036906D01*
X017185Y036900D01*
X017189Y036895D01*
X017192Y036890D01*
X017196Y036887D01*
X017199Y036884D01*
X017200Y036883D01*
X017201Y036882D01*
X017211Y036875D01*
X017223Y036868D01*
X017235Y036862D01*
X017249Y036857D01*
X017264Y036853D01*
X017278Y036850D01*
X017306Y036845D01*
X017320Y036843D01*
X017332Y036841D01*
X017344Y036841D01*
X017354Y036840D01*
X017362Y036839D01*
X017373D01*
X017394Y036840D01*
X017414Y036841D01*
X017431Y036843D01*
X017448Y036846D01*
X017463Y036850D01*
X017476Y036853D01*
X017489Y036857D01*
X017499Y036861D01*
X017509Y036865D01*
X017517Y036869D01*
X017524Y036872D01*
X017530Y036876D01*
X017534Y036879D01*
X017537Y036881D01*
X017539Y036882D01*
X017539Y036883D01*
X017548Y036891D01*
X017556Y036901D01*
X017563Y036910D01*
X017569Y036920D01*
X017574Y036929D01*
X017578Y036939D01*
X017582Y036949D01*
X017584Y036958D01*
X017586Y036966D01*
X017588Y036974D01*
X017589Y036981D01*
X017590Y036987D01*
X017591Y036992D01*
Y036995D01*
Y036998D01*
Y036999D01*
X017589Y037018D01*
X017586Y037034D01*
X017582Y037049D01*
X017576Y037062D01*
X017571Y037072D01*
X017568Y037076D01*
X017566Y037080D01*
X017564Y037083D01*
X017563Y037085D01*
X017562Y037086D01*
X017561Y037086D01*
X017550Y037099D01*
X017537Y037109D01*
X017524Y037117D01*
X017512Y037124D01*
X017500Y037129D01*
X017496Y037131D01*
X017491Y037132D01*
X017488Y037133D01*
X017485Y037133D01*
X017484Y037134D01*
X017483D01*
X017514Y037262D01*
X017527Y037258D01*
X017541Y037253D01*
X017552Y037247D01*
X017564Y037242D01*
X017575Y037237D01*
X017584Y037231D01*
X017593Y037226D01*
X017601Y037221D01*
X017608Y037215D01*
X017614Y037211D01*
X017619Y037207D01*
X017623Y037203D01*
X017627Y037200D01*
X017629Y037198D01*
X017630Y037197D01*
X017631Y037196D01*
X017643Y037181D01*
X017654Y037167D01*
X017664Y037151D01*
X017671Y037135D01*
X017678Y037119D01*
X017684Y037103D01*
X017688Y037088D01*
X017692Y037073D01*
X017695Y037059D01*
X017697Y037046D01*
X017699Y037034D01*
X017700Y037024D01*
X017700Y037016D01*
X017701Y037011D01*
Y037006D01*
Y037005D01*
X017700Y036981D01*
X017697Y036957D01*
X017693Y036935D01*
X017687Y036914D01*
X017680Y036895D01*
X017673Y036877D01*
X017665Y036861D01*
X017657Y036846D01*
X017648Y036833D01*
X017641Y036821D01*
X017633Y036811D01*
X017626Y036803D01*
X017620Y036796D01*
X017616Y036792D01*
X017613Y036788D01*
X017612Y036788D01*
X017595Y036773D01*
X017576Y036761D01*
X017557Y036750D01*
X017536Y036741D01*
X017516Y036732D01*
X017495Y036726D01*
X017475Y036720D01*
X017455Y036716D01*
X017437Y036713D01*
X017419Y036710D01*
X017403Y036709D01*
X017390Y036707D01*
X017379Y036707D01*
X017375Y036706D01*
X017364D01*
X017336Y036707D01*
X017310Y036709D01*
X017286Y036714D01*
X017263Y036718D01*
X017242Y036725D01*
X017222Y036732D01*
X017204Y036739D01*
X017188Y036747D01*
X017174Y036754D01*
X017161Y036762D01*
X017151Y036769D01*
X017142Y036775D01*
X017135Y036780D01*
X017130Y036784D01*
X017126Y036787D01*
X017126Y036788D01*
X017110Y036804D01*
X017097Y036820D01*
X017085Y036838D01*
X017076Y036855D01*
X017067Y036872D01*
X017060Y036890D01*
X017054Y036907D01*
X017050Y036923D01*
X017046Y036938D01*
X017044Y036953D01*
X017042Y036965D01*
X017040Y036976D01*
X017040Y036985D01*
X017039Y036992D01*
Y036996D01*
Y036997D01*
Y036997D01*
X017040Y037016D01*
X017041Y037034D01*
X017044Y037052D01*
X017047Y037067D01*
X017051Y037083D01*
X017055Y037097D01*
X017060Y037110D01*
X017065Y037121D01*
X017069Y037132D01*
X017074Y037141D01*
X017078Y037149D01*
X017082Y037156D01*
X017085Y037160D01*
X017087Y037165D01*
X017089Y037167D01*
X017090Y037167D01*
X017100Y037180D01*
X017111Y037191D01*
X017123Y037201D01*
X017136Y037211D01*
X017149Y037219D01*
X017162Y037228D01*
X017175Y037235D01*
X017187Y037241D01*
X017199Y037247D01*
X017210Y037251D01*
X017221Y037255D01*
X017229Y037258D01*
X017237Y037261D01*
X017242Y037262D01*
X017245Y037264D01*
X017246D01*
X017285Y037138D01*
D02*
G37*
G36*
X017691Y034000D02*
X017582D01*
Y034190D01*
X017050D01*
Y034319D01*
X017582D01*
Y034508D01*
X017691D01*
Y034000D01*
D02*
G37*
G36*
X016423Y038021D02*
X016589D01*
Y037909D01*
X016423D01*
Y037741D01*
X016308D01*
Y037909D01*
X016142D01*
Y038021D01*
X016308D01*
Y038189D01*
X016423D01*
Y038021D01*
D02*
G37*
G36*
X017691Y034974D02*
X017439D01*
Y034720D01*
X017691D01*
Y034591D01*
X017050D01*
Y034720D01*
X017330D01*
Y034974D01*
X017050D01*
Y035103D01*
X017691D01*
Y034974D01*
D02*
G37*
G36*
X017158Y036261D02*
X017332D01*
Y036582D01*
X017441D01*
Y036261D01*
X017582D01*
Y036607D01*
X017691D01*
Y036132D01*
X017050D01*
Y036619D01*
X017158D01*
Y036261D01*
D02*
G37*
G36*
X017174Y035983D02*
X017188Y035975D01*
X017200Y035967D01*
X017212Y035959D01*
X017222Y035952D01*
X017232Y035946D01*
X017240Y035940D01*
X017248Y035934D01*
X017255Y035929D01*
X017260Y035925D01*
X017265Y035921D01*
X017269Y035918D01*
X017273Y035915D01*
X017275Y035913D01*
X017277Y035911D01*
X017278Y035910D01*
X017289Y035899D01*
X017299Y035888D01*
X017308Y035876D01*
X017316Y035865D01*
X017323Y035855D01*
X017328Y035847D01*
X017330Y035845D01*
X017330Y035843D01*
X017332Y035841D01*
Y035840D01*
X017335Y035856D01*
X017338Y035870D01*
X017342Y035884D01*
X017346Y035896D01*
X017351Y035908D01*
X017356Y035918D01*
X017361Y035927D01*
X017366Y035936D01*
X017371Y035943D01*
X017376Y035949D01*
X017380Y035955D01*
X017384Y035960D01*
X017387Y035963D01*
X017389Y035965D01*
X017391Y035967D01*
X017391Y035967D01*
X017400Y035975D01*
X017410Y035981D01*
X017420Y035987D01*
X017430Y035992D01*
X017440Y035996D01*
X017450Y035999D01*
X017469Y036004D01*
X017478Y036006D01*
X017486Y036008D01*
X017493Y036008D01*
X017499Y036009D01*
X017504Y036010D01*
X017511D01*
X017532Y036008D01*
X017550Y036006D01*
X017568Y036001D01*
X017582Y035996D01*
X017589Y035993D01*
X017595Y035990D01*
X017600Y035988D01*
X017604Y035986D01*
X017607Y035984D01*
X017609Y035983D01*
X017611Y035981D01*
X017611D01*
X017627Y035970D01*
X017640Y035958D01*
X017650Y035946D01*
X017659Y035934D01*
X017666Y035923D01*
X017668Y035919D01*
X017670Y035915D01*
X017671Y035911D01*
X017673Y035909D01*
X017673Y035908D01*
Y035907D01*
X017676Y035898D01*
X017679Y035888D01*
X017682Y035876D01*
X017683Y035864D01*
X017686Y035840D01*
X017688Y035815D01*
X017689Y035804D01*
X017690Y035793D01*
Y035783D01*
X017691Y035775D01*
Y035768D01*
Y035763D01*
Y035759D01*
Y035758D01*
Y035486D01*
X017050D01*
Y035615D01*
X017317D01*
Y035641D01*
Y035657D01*
X017316Y035670D01*
X017315Y035681D01*
X017314Y035690D01*
X017312Y035697D01*
X017311Y035702D01*
X017310Y035705D01*
X017310Y035706D01*
X017307Y035713D01*
X017303Y035720D01*
X017298Y035727D01*
X017294Y035733D01*
X017289Y035738D01*
X017287Y035742D01*
X017284Y035744D01*
X017283Y035745D01*
X017279Y035749D01*
X017273Y035753D01*
X017267Y035758D01*
X017260Y035763D01*
X017245Y035775D01*
X017229Y035786D01*
X017214Y035797D01*
X017208Y035802D01*
X017201Y035805D01*
X017196Y035809D01*
X017193Y035811D01*
X017190Y035813D01*
X017189Y035813D01*
X017050Y035907D01*
Y036062D01*
X017174Y035983D01*
D02*
G37*
G36*
X013344Y037958D02*
X013221D01*
Y038200D01*
X013344D01*
Y037958D01*
D02*
G37*
G36*
X013691Y037770D02*
X013217Y037613D01*
X013691Y037451D01*
Y037311D01*
X013050Y037540D01*
Y037678D01*
X013691Y037908D01*
Y037770D01*
D02*
G37*
G36*
X014396Y033686D02*
X014411Y033684D01*
X014425Y033683D01*
X014439Y033682D01*
X014451Y033680D01*
X014463Y033677D01*
X014473Y033676D01*
X014482Y033674D01*
X014491Y033672D01*
X014498Y033670D01*
X014504Y033668D01*
X014509Y033667D01*
X014512Y033666D01*
X014514Y033665D01*
X014515D01*
X014537Y033657D01*
X014557Y033647D01*
X014575Y033636D01*
X014583Y033632D01*
X014590Y033627D01*
X014597Y033622D01*
X014602Y033618D01*
X014607Y033614D01*
X014611Y033611D01*
X014615Y033608D01*
X014617Y033606D01*
X014618Y033605D01*
X014619Y033604D01*
X014634Y033588D01*
X014646Y033572D01*
X014657Y033556D01*
X014664Y033541D01*
X014670Y033528D01*
X014673Y033522D01*
X014675Y033517D01*
X014676Y033513D01*
X014677Y033510D01*
X014678Y033508D01*
Y033507D01*
X014680Y033499D01*
X014682Y033490D01*
X014685Y033471D01*
X014688Y033451D01*
X014689Y033431D01*
X014690Y033422D01*
Y033414D01*
Y033406D01*
X014691Y033399D01*
Y033394D01*
Y033389D01*
Y033387D01*
Y033386D01*
Y033150D01*
X014050D01*
Y033393D01*
Y033406D01*
X014051Y033419D01*
X014051Y033430D01*
X014052Y033441D01*
X014053Y033451D01*
X014054Y033461D01*
X014056Y033469D01*
X014057Y033477D01*
X014058Y033484D01*
X014059Y033490D01*
X014060Y033496D01*
X014061Y033500D01*
X014062Y033503D01*
X014062Y033505D01*
X014063Y033507D01*
Y033507D01*
X014071Y033528D01*
X014079Y033546D01*
X014087Y033561D01*
X014096Y033574D01*
X014099Y033580D01*
X014103Y033584D01*
X014106Y033588D01*
X014109Y033591D01*
X014111Y033594D01*
X014113Y033596D01*
X014114Y033597D01*
X014115Y033598D01*
X014132Y033614D01*
X014151Y033627D01*
X014169Y033639D01*
X014187Y033649D01*
X014196Y033653D01*
X014203Y033657D01*
X014210Y033659D01*
X014216Y033662D01*
X014221Y033664D01*
X014225Y033665D01*
X014227Y033666D01*
X014228D01*
X014250Y033673D01*
X014273Y033678D01*
X014296Y033682D01*
X014317Y033684D01*
X014327Y033685D01*
X014336Y033686D01*
X014344D01*
X014351Y033686D01*
X014380D01*
X014396Y033686D01*
D02*
G37*
G36*
X014507Y034932D02*
X014521Y034931D01*
X014533Y034929D01*
X014545Y034927D01*
X014556Y034925D01*
X014566Y034921D01*
X014575Y034918D01*
X014584Y034914D01*
X014592Y034911D01*
X014598Y034907D01*
X014605Y034904D01*
X014609Y034901D01*
X014613Y034899D01*
X014616Y034897D01*
X014617Y034896D01*
X014618Y034895D01*
X014627Y034888D01*
X014634Y034881D01*
X014641Y034873D01*
X014648Y034865D01*
X014659Y034850D01*
X014668Y034835D01*
X014674Y034823D01*
X014676Y034817D01*
X014678Y034812D01*
X014679Y034809D01*
X014680Y034806D01*
X014681Y034804D01*
Y034803D01*
X014682Y034795D01*
X014684Y034786D01*
X014686Y034776D01*
X014686Y034764D01*
X014687Y034752D01*
X014688Y034739D01*
X014689Y034713D01*
X014690Y034700D01*
Y034689D01*
X014691Y034678D01*
Y034668D01*
Y034661D01*
Y034655D01*
Y034651D01*
Y034650D01*
Y034442D01*
X014050D01*
Y034571D01*
X014292D01*
Y034655D01*
Y034671D01*
X014292Y034687D01*
Y034700D01*
X014293Y034714D01*
X014294Y034725D01*
X014294Y034736D01*
X014295Y034747D01*
X014296Y034756D01*
X014297Y034764D01*
X014298Y034770D01*
X014298Y034777D01*
X014299Y034782D01*
X014300Y034785D01*
Y034788D01*
X014301Y034789D01*
Y034790D01*
X014304Y034802D01*
X014308Y034815D01*
X014313Y034826D01*
X014318Y034836D01*
X014323Y034845D01*
X014327Y034851D01*
X014330Y034855D01*
X014330Y034856D01*
Y034857D01*
X014340Y034868D01*
X014351Y034879D01*
X014361Y034888D01*
X014371Y034897D01*
X014380Y034903D01*
X014387Y034907D01*
X014390Y034909D01*
X014392Y034911D01*
X014393Y034911D01*
X014394D01*
X014409Y034918D01*
X014426Y034924D01*
X014443Y034927D01*
X014458Y034930D01*
X014466Y034931D01*
X014472Y034931D01*
X014478Y034932D01*
X014483Y034933D01*
X014493D01*
X014507Y034932D01*
D02*
G37*
G36*
X014174Y034294D02*
X014188Y034285D01*
X014200Y034277D01*
X014212Y034269D01*
X014222Y034262D01*
X014232Y034256D01*
X014240Y034250D01*
X014248Y034244D01*
X014255Y034240D01*
X014260Y034235D01*
X014265Y034231D01*
X014269Y034228D01*
X014273Y034225D01*
X014275Y034223D01*
X014277Y034222D01*
X014278Y034220D01*
X014289Y034210D01*
X014299Y034198D01*
X014308Y034186D01*
X014316Y034175D01*
X014323Y034165D01*
X014328Y034158D01*
X014330Y034155D01*
X014330Y034153D01*
X014332Y034151D01*
Y034151D01*
X014335Y034166D01*
X014338Y034181D01*
X014342Y034194D01*
X014346Y034206D01*
X014351Y034218D01*
X014356Y034228D01*
X014361Y034237D01*
X014366Y034246D01*
X014371Y034253D01*
X014376Y034260D01*
X014380Y034265D01*
X014384Y034270D01*
X014387Y034274D01*
X014389Y034276D01*
X014391Y034277D01*
X014391Y034278D01*
X014400Y034285D01*
X014410Y034292D01*
X014420Y034297D01*
X014430Y034302D01*
X014440Y034306D01*
X014450Y034310D01*
X014469Y034315D01*
X014477Y034317D01*
X014486Y034318D01*
X014493Y034319D01*
X014499Y034319D01*
X014504Y034320D01*
X014511D01*
X014532Y034319D01*
X014550Y034316D01*
X014568Y034311D01*
X014582Y034306D01*
X014589Y034303D01*
X014595Y034301D01*
X014600Y034299D01*
X014604Y034296D01*
X014607Y034294D01*
X014609Y034293D01*
X014611Y034292D01*
X014611D01*
X014627Y034281D01*
X014640Y034268D01*
X014650Y034256D01*
X014659Y034244D01*
X014666Y034233D01*
X014668Y034229D01*
X014670Y034225D01*
X014671Y034222D01*
X014673Y034219D01*
X014673Y034218D01*
Y034217D01*
X014676Y034208D01*
X014679Y034198D01*
X014682Y034186D01*
X014683Y034174D01*
X014686Y034150D01*
X014688Y034125D01*
X014689Y034114D01*
X014690Y034103D01*
Y034093D01*
X014691Y034085D01*
Y034078D01*
Y034073D01*
Y034070D01*
Y034068D01*
Y033796D01*
X014050D01*
Y033925D01*
X014317D01*
Y033951D01*
Y033967D01*
X014316Y033980D01*
X014315Y033991D01*
X014314Y034000D01*
X014312Y034007D01*
X014311Y034012D01*
X014310Y034015D01*
X014310Y034016D01*
X014307Y034024D01*
X014303Y034031D01*
X014298Y034038D01*
X014294Y034043D01*
X014289Y034048D01*
X014287Y034052D01*
X014284Y034054D01*
X014283Y034055D01*
X014279Y034059D01*
X014273Y034063D01*
X014267Y034068D01*
X014260Y034074D01*
X014245Y034085D01*
X014229Y034097D01*
X014214Y034107D01*
X014208Y034112D01*
X014201Y034115D01*
X014196Y034119D01*
X014193Y034122D01*
X014190Y034123D01*
X014189Y034124D01*
X014050Y034217D01*
Y034372D01*
X014174Y034294D01*
D02*
G37*
G36*
X013285Y037140D02*
X013273Y037136D01*
X013260Y037133D01*
X013249Y037129D01*
X013239Y037125D01*
X013230Y037120D01*
X013221Y037116D01*
X013214Y037111D01*
X013207Y037107D01*
X013201Y037102D01*
X013196Y037098D01*
X013192Y037095D01*
X013188Y037092D01*
X013185Y037089D01*
X013183Y037087D01*
X013183Y037087D01*
X013182Y037086D01*
X013176Y037079D01*
X013171Y037071D01*
X013163Y037057D01*
X013158Y037042D01*
X013153Y037028D01*
X013151Y037016D01*
X013150Y037011D01*
Y037006D01*
X013149Y037003D01*
Y037000D01*
Y036998D01*
Y036998D01*
X013150Y036985D01*
X013151Y036973D01*
X013154Y036961D01*
X013158Y036950D01*
X013161Y036940D01*
X013165Y036931D01*
X013170Y036922D01*
X013175Y036914D01*
X013180Y036907D01*
X013185Y036901D01*
X013189Y036896D01*
X013192Y036891D01*
X013196Y036889D01*
X013199Y036886D01*
X013200Y036885D01*
X013201Y036884D01*
X013211Y036876D01*
X013223Y036870D01*
X013235Y036864D01*
X013249Y036859D01*
X013264Y036855D01*
X013278Y036851D01*
X013306Y036846D01*
X013320Y036844D01*
X013332Y036843D01*
X013344Y036842D01*
X013354Y036842D01*
X013362Y036841D01*
X013373D01*
X013394Y036842D01*
X013414Y036843D01*
X013431Y036845D01*
X013448Y036848D01*
X013463Y036851D01*
X013476Y036855D01*
X013489Y036859D01*
X013499Y036863D01*
X013509Y036867D01*
X013517Y036871D01*
X013524Y036874D01*
X013530Y036878D01*
X013534Y036880D01*
X013537Y036882D01*
X013539Y036884D01*
X013539Y036885D01*
X013548Y036893D01*
X013556Y036903D01*
X013563Y036912D01*
X013569Y036921D01*
X013574Y036931D01*
X013578Y036941D01*
X013582Y036950D01*
X013584Y036959D01*
X013586Y036968D01*
X013588Y036975D01*
X013589Y036982D01*
X013590Y036989D01*
X013591Y036994D01*
Y036997D01*
Y037000D01*
Y037000D01*
X013589Y037019D01*
X013586Y037036D01*
X013582Y037050D01*
X013576Y037064D01*
X013570Y037074D01*
X013568Y037078D01*
X013566Y037082D01*
X013564Y037084D01*
X013563Y037087D01*
X013562Y037087D01*
X013561Y037088D01*
X013550Y037100D01*
X013537Y037111D01*
X013524Y037119D01*
X013512Y037125D01*
X013500Y037130D01*
X013496Y037132D01*
X013491Y037134D01*
X013488Y037134D01*
X013485Y037135D01*
X013484Y037136D01*
X013483D01*
X013514Y037263D01*
X013527Y037259D01*
X013541Y037254D01*
X013552Y037249D01*
X013564Y037244D01*
X013575Y037238D01*
X013584Y037233D01*
X013593Y037227D01*
X013601Y037223D01*
X013608Y037217D01*
X013614Y037213D01*
X013619Y037209D01*
X013623Y037204D01*
X013627Y037202D01*
X013629Y037200D01*
X013630Y037198D01*
X013631Y037198D01*
X013643Y037183D01*
X013654Y037168D01*
X013664Y037152D01*
X013671Y037136D01*
X013678Y037120D01*
X013684Y037105D01*
X013688Y037089D01*
X013692Y037075D01*
X013695Y037061D01*
X013698Y037048D01*
X013699Y037036D01*
X013700Y037026D01*
X013700Y037018D01*
X013701Y037012D01*
Y037008D01*
Y037007D01*
X013700Y036982D01*
X013698Y036959D01*
X013693Y036937D01*
X013687Y036916D01*
X013680Y036896D01*
X013673Y036879D01*
X013665Y036862D01*
X013657Y036848D01*
X013648Y036835D01*
X013641Y036823D01*
X013633Y036813D01*
X013626Y036805D01*
X013620Y036798D01*
X013616Y036794D01*
X013613Y036790D01*
X013612Y036789D01*
X013595Y036775D01*
X013576Y036762D01*
X013557Y036751D01*
X013536Y036742D01*
X013516Y036734D01*
X013495Y036728D01*
X013475Y036722D01*
X013455Y036718D01*
X013437Y036715D01*
X013419Y036712D01*
X013403Y036710D01*
X013390Y036709D01*
X013379Y036708D01*
X013375Y036708D01*
X013364D01*
X013336Y036708D01*
X013310Y036711D01*
X013286Y036715D01*
X013263Y036720D01*
X013242Y036726D01*
X013222Y036733D01*
X013204Y036741D01*
X013188Y036749D01*
X013174Y036756D01*
X013161Y036764D01*
X013151Y036771D01*
X013142Y036777D01*
X013135Y036782D01*
X013130Y036786D01*
X013126Y036789D01*
X013126Y036789D01*
X013110Y036805D01*
X013097Y036822D01*
X013085Y036839D01*
X013076Y036857D01*
X013067Y036874D01*
X013060Y036891D01*
X013054Y036909D01*
X013050Y036925D01*
X013046Y036940D01*
X013044Y036955D01*
X013042Y036967D01*
X013040Y036978D01*
X013040Y036987D01*
X013039Y036994D01*
Y036998D01*
Y036998D01*
Y036999D01*
X013040Y037018D01*
X013041Y037036D01*
X013044Y037053D01*
X013047Y037069D01*
X013051Y037084D01*
X013055Y037098D01*
X013060Y037111D01*
X013065Y037123D01*
X013069Y037134D01*
X013074Y037143D01*
X013078Y037150D01*
X013082Y037157D01*
X013085Y037162D01*
X013087Y037166D01*
X013089Y037168D01*
X013090Y037169D01*
X013100Y037182D01*
X013111Y037193D01*
X013123Y037203D01*
X013136Y037213D01*
X013149Y037221D01*
X013162Y037229D01*
X013175Y037236D01*
X013187Y037243D01*
X013199Y037248D01*
X013210Y037253D01*
X013221Y037257D01*
X013229Y037260D01*
X013237Y037263D01*
X013242Y037264D01*
X013245Y037266D01*
X013246D01*
X013285Y037140D01*
D02*
G37*
G36*
X013174Y034494D02*
X013188Y034485D01*
X013200Y034477D01*
X013212Y034469D01*
X013222Y034462D01*
X013232Y034456D01*
X013240Y034450D01*
X013248Y034444D01*
X013255Y034440D01*
X013260Y034435D01*
X013265Y034431D01*
X013269Y034428D01*
X013273Y034425D01*
X013275Y034423D01*
X013277Y034422D01*
X013278Y034420D01*
X013289Y034410D01*
X013299Y034398D01*
X013308Y034386D01*
X013316Y034375D01*
X013323Y034365D01*
X013328Y034358D01*
X013330Y034355D01*
X013330Y034353D01*
X013332Y034351D01*
Y034351D01*
X013335Y034366D01*
X013338Y034381D01*
X013342Y034394D01*
X013346Y034406D01*
X013351Y034418D01*
X013356Y034428D01*
X013361Y034437D01*
X013366Y034446D01*
X013371Y034453D01*
X013376Y034460D01*
X013380Y034465D01*
X013384Y034470D01*
X013387Y034474D01*
X013389Y034476D01*
X013391Y034477D01*
X013391Y034478D01*
X013400Y034485D01*
X013410Y034492D01*
X013420Y034497D01*
X013430Y034502D01*
X013440Y034506D01*
X013450Y034510D01*
X013469Y034515D01*
X013477Y034517D01*
X013486Y034518D01*
X013493Y034519D01*
X013499Y034519D01*
X013504Y034520D01*
X013511D01*
X013532Y034519D01*
X013550Y034516D01*
X013568Y034511D01*
X013582Y034506D01*
X013589Y034503D01*
X013595Y034501D01*
X013600Y034499D01*
X013604Y034496D01*
X013607Y034494D01*
X013609Y034493D01*
X013611Y034492D01*
X013611D01*
X013627Y034481D01*
X013640Y034468D01*
X013650Y034456D01*
X013659Y034444D01*
X013666Y034433D01*
X013668Y034429D01*
X013670Y034425D01*
X013671Y034422D01*
X013673Y034419D01*
X013673Y034418D01*
Y034417D01*
X013676Y034408D01*
X013679Y034398D01*
X013682Y034386D01*
X013683Y034374D01*
X013686Y034350D01*
X013688Y034325D01*
X013689Y034314D01*
X013690Y034303D01*
Y034293D01*
X013691Y034285D01*
Y034278D01*
Y034273D01*
Y034270D01*
Y034268D01*
Y033996D01*
X013050D01*
Y034125D01*
X013317D01*
Y034151D01*
Y034167D01*
X013316Y034180D01*
X013315Y034191D01*
X013314Y034200D01*
X013312Y034207D01*
X013311Y034212D01*
X013310Y034215D01*
X013310Y034216D01*
X013307Y034224D01*
X013303Y034231D01*
X013298Y034238D01*
X013294Y034243D01*
X013289Y034248D01*
X013287Y034252D01*
X013284Y034254D01*
X013283Y034255D01*
X013279Y034259D01*
X013273Y034263D01*
X013267Y034268D01*
X013260Y034274D01*
X013245Y034285D01*
X013229Y034297D01*
X013214Y034307D01*
X013208Y034312D01*
X013201Y034315D01*
X013196Y034319D01*
X013193Y034322D01*
X013190Y034323D01*
X013189Y034324D01*
X013050Y034417D01*
Y034572D01*
X013174Y034494D01*
D02*
G37*
G36*
X013396Y033886D02*
X013411Y033884D01*
X013425Y033883D01*
X013439Y033882D01*
X013451Y033880D01*
X013463Y033877D01*
X013473Y033876D01*
X013482Y033874D01*
X013491Y033872D01*
X013498Y033870D01*
X013504Y033868D01*
X013509Y033867D01*
X013512Y033866D01*
X013514Y033865D01*
X013515D01*
X013537Y033857D01*
X013557Y033847D01*
X013575Y033836D01*
X013583Y033832D01*
X013590Y033827D01*
X013597Y033822D01*
X013602Y033818D01*
X013607Y033814D01*
X013611Y033811D01*
X013615Y033808D01*
X013617Y033806D01*
X013618Y033805D01*
X013619Y033804D01*
X013634Y033788D01*
X013646Y033772D01*
X013657Y033756D01*
X013664Y033741D01*
X013670Y033728D01*
X013673Y033722D01*
X013675Y033717D01*
X013676Y033713D01*
X013677Y033710D01*
X013678Y033708D01*
Y033707D01*
X013680Y033699D01*
X013682Y033690D01*
X013685Y033671D01*
X013688Y033651D01*
X013689Y033631D01*
X013690Y033622D01*
Y033614D01*
Y033606D01*
X013691Y033599D01*
Y033594D01*
Y033589D01*
Y033587D01*
Y033586D01*
Y033350D01*
X013050D01*
Y033593D01*
Y033606D01*
X013051Y033619D01*
X013051Y033630D01*
X013052Y033641D01*
X013053Y033651D01*
X013054Y033661D01*
X013056Y033669D01*
X013057Y033677D01*
X013058Y033684D01*
X013059Y033690D01*
X013060Y033696D01*
X013061Y033700D01*
X013062Y033703D01*
X013062Y033705D01*
X013063Y033707D01*
Y033707D01*
X013071Y033728D01*
X013079Y033746D01*
X013087Y033761D01*
X013096Y033774D01*
X013099Y033780D01*
X013103Y033784D01*
X013106Y033788D01*
X013109Y033791D01*
X013111Y033794D01*
X013113Y033796D01*
X013114Y033797D01*
X013115Y033798D01*
X013132Y033814D01*
X013151Y033827D01*
X013169Y033839D01*
X013187Y033849D01*
X013196Y033853D01*
X013203Y033857D01*
X013210Y033859D01*
X013216Y033862D01*
X013221Y033864D01*
X013225Y033865D01*
X013227Y033866D01*
X013228D01*
X013250Y033873D01*
X013273Y033878D01*
X013296Y033882D01*
X013317Y033884D01*
X013327Y033885D01*
X013336Y033886D01*
X013344D01*
X013350Y033886D01*
X013380D01*
X013396Y033886D01*
D02*
G37*
G36*
X013507Y035132D02*
X013521Y035131D01*
X013533Y035129D01*
X013545Y035127D01*
X013556Y035125D01*
X013566Y035121D01*
X013575Y035118D01*
X013584Y035114D01*
X013592Y035111D01*
X013598Y035107D01*
X013605Y035104D01*
X013609Y035101D01*
X013613Y035099D01*
X013616Y035097D01*
X013617Y035096D01*
X013618Y035095D01*
X013627Y035088D01*
X013634Y035081D01*
X013641Y035073D01*
X013648Y035065D01*
X013659Y035050D01*
X013668Y035035D01*
X013674Y035023D01*
X013676Y035017D01*
X013678Y035012D01*
X013679Y035009D01*
X013680Y035006D01*
X013681Y035004D01*
Y035003D01*
X013682Y034995D01*
X013684Y034986D01*
X013686Y034976D01*
X013686Y034964D01*
X013687Y034952D01*
X013688Y034939D01*
X013689Y034913D01*
X013690Y034900D01*
Y034889D01*
X013691Y034878D01*
Y034868D01*
Y034861D01*
Y034855D01*
Y034851D01*
Y034850D01*
Y034642D01*
X013050D01*
Y034771D01*
X013292D01*
Y034855D01*
Y034871D01*
X013292Y034887D01*
Y034900D01*
X013293Y034914D01*
X013294Y034925D01*
X013294Y034936D01*
X013295Y034947D01*
X013296Y034956D01*
X013297Y034964D01*
X013298Y034970D01*
X013298Y034977D01*
X013299Y034982D01*
X013300Y034985D01*
Y034988D01*
X013301Y034989D01*
Y034990D01*
X013304Y035002D01*
X013308Y035015D01*
X013313Y035026D01*
X013318Y035036D01*
X013323Y035045D01*
X013327Y035051D01*
X013330Y035055D01*
X013330Y035056D01*
Y035057D01*
X013340Y035068D01*
X013350Y035079D01*
X013361Y035088D01*
X013371Y035097D01*
X013380Y035103D01*
X013387Y035107D01*
X013390Y035109D01*
X013392Y035111D01*
X013393Y035111D01*
X013394D01*
X013409Y035118D01*
X013426Y035124D01*
X013443Y035127D01*
X013458Y035130D01*
X013466Y035131D01*
X013472Y035131D01*
X013478Y035132D01*
X013483Y035133D01*
X013493D01*
X013507Y035132D01*
D02*
G37*
G36*
X013158Y036263D02*
X013332D01*
Y036584D01*
X013441D01*
Y036263D01*
X013582D01*
Y036608D01*
X013691D01*
Y036134D01*
X013050D01*
Y036621D01*
X013158D01*
Y036263D01*
D02*
G37*
G36*
X013174Y035985D02*
X013188Y035977D01*
X013200Y035968D01*
X013212Y035961D01*
X013222Y035954D01*
X013232Y035948D01*
X013240Y035941D01*
X013248Y035936D01*
X013255Y035931D01*
X013260Y035927D01*
X013265Y035923D01*
X013269Y035919D01*
X013273Y035916D01*
X013275Y035914D01*
X013277Y035913D01*
X013278Y035912D01*
X013289Y035901D01*
X013299Y035889D01*
X013308Y035878D01*
X013316Y035866D01*
X013323Y035857D01*
X013328Y035849D01*
X013330Y035846D01*
X013330Y035844D01*
X013332Y035843D01*
Y035842D01*
X013335Y035857D01*
X013338Y035872D01*
X013342Y035885D01*
X013346Y035898D01*
X013351Y035909D01*
X013356Y035920D01*
X013361Y035929D01*
X013366Y035937D01*
X013371Y035945D01*
X013376Y035951D01*
X013380Y035957D01*
X013384Y035962D01*
X013387Y035965D01*
X013389Y035967D01*
X013391Y035968D01*
X013391Y035969D01*
X013400Y035977D01*
X013410Y035983D01*
X013420Y035989D01*
X013430Y035993D01*
X013440Y035998D01*
X013450Y036001D01*
X013469Y036006D01*
X013477Y036008D01*
X013486Y036009D01*
X013493Y036010D01*
X013499Y036011D01*
X013504Y036011D01*
X013511D01*
X013532Y036010D01*
X013550Y036007D01*
X013568Y036002D01*
X013582Y035998D01*
X013589Y035995D01*
X013595Y035992D01*
X013600Y035990D01*
X013604Y035987D01*
X013607Y035986D01*
X013609Y035984D01*
X013611Y035983D01*
X013611D01*
X013627Y035972D01*
X013640Y035959D01*
X013650Y035948D01*
X013659Y035936D01*
X013666Y035925D01*
X013668Y035921D01*
X013670Y035916D01*
X013671Y035913D01*
X013673Y035911D01*
X013673Y035909D01*
Y035909D01*
X013676Y035900D01*
X013679Y035889D01*
X013682Y035878D01*
X013683Y035866D01*
X013686Y035841D01*
X013688Y035816D01*
X013689Y035805D01*
X013690Y035794D01*
Y035785D01*
X013691Y035776D01*
Y035769D01*
Y035764D01*
Y035761D01*
Y035760D01*
Y035488D01*
X013050D01*
Y035617D01*
X013317D01*
Y035642D01*
Y035658D01*
X013316Y035671D01*
X013315Y035683D01*
X013314Y035692D01*
X013312Y035698D01*
X013311Y035703D01*
X013310Y035707D01*
X013310Y035708D01*
X013307Y035715D01*
X013303Y035722D01*
X013298Y035729D01*
X013294Y035735D01*
X013289Y035739D01*
X013287Y035744D01*
X013284Y035746D01*
X013283Y035746D01*
X013279Y035751D01*
X013273Y035755D01*
X013267Y035760D01*
X013260Y035765D01*
X013245Y035776D01*
X013229Y035788D01*
X013214Y035798D01*
X013208Y035803D01*
X013201Y035807D01*
X013196Y035810D01*
X013193Y035813D01*
X013190Y035814D01*
X013189Y035815D01*
X013050Y035909D01*
Y036064D01*
X013174Y035985D01*
D02*
G37*
G36*
X015507Y034532D02*
X015521Y034532D01*
X015533Y034529D01*
X015545Y034527D01*
X015556Y034525D01*
X015566Y034521D01*
X015575Y034518D01*
X015584Y034514D01*
X015592Y034511D01*
X015598Y034507D01*
X015605Y034504D01*
X015609Y034501D01*
X015613Y034499D01*
X015616Y034497D01*
X015617Y034496D01*
X015618Y034495D01*
X015627Y034488D01*
X015634Y034481D01*
X015641Y034473D01*
X015648Y034465D01*
X015659Y034450D01*
X015668Y034435D01*
X015674Y034423D01*
X015676Y034417D01*
X015678Y034412D01*
X015679Y034409D01*
X015680Y034406D01*
X015681Y034404D01*
Y034403D01*
X015682Y034395D01*
X015684Y034386D01*
X015686Y034376D01*
X015686Y034364D01*
X015687Y034352D01*
X015688Y034339D01*
X015689Y034313D01*
X015690Y034300D01*
Y034289D01*
X015691Y034278D01*
Y034268D01*
Y034261D01*
Y034255D01*
Y034251D01*
Y034250D01*
Y034042D01*
X015050D01*
Y034171D01*
X015292D01*
Y034255D01*
Y034271D01*
X015292Y034287D01*
Y034300D01*
X015293Y034314D01*
X015294Y034325D01*
X015294Y034336D01*
X015295Y034347D01*
X015296Y034356D01*
X015297Y034364D01*
X015298Y034370D01*
X015298Y034377D01*
X015299Y034382D01*
X015300Y034385D01*
Y034388D01*
X015301Y034389D01*
Y034390D01*
X015304Y034402D01*
X015308Y034415D01*
X015313Y034426D01*
X015318Y034436D01*
X015323Y034445D01*
X015327Y034451D01*
X015330Y034455D01*
X015330Y034456D01*
Y034457D01*
X015340Y034468D01*
X015351Y034479D01*
X015361Y034488D01*
X015371Y034497D01*
X015380Y034503D01*
X015387Y034507D01*
X015390Y034509D01*
X015392Y034511D01*
X015393Y034511D01*
X015394D01*
X015409Y034518D01*
X015426Y034524D01*
X015443Y034527D01*
X015458Y034530D01*
X015466Y034531D01*
X015472Y034532D01*
X015478Y034532D01*
X015483Y034533D01*
X015493D01*
X015507Y034532D01*
D02*
G37*
G36*
X015174Y033894D02*
X015188Y033885D01*
X015200Y033877D01*
X015212Y033869D01*
X015222Y033862D01*
X015232Y033856D01*
X015240Y033850D01*
X015248Y033844D01*
X015255Y033840D01*
X015260Y033835D01*
X015265Y033831D01*
X015269Y033828D01*
X015273Y033825D01*
X015275Y033823D01*
X015277Y033822D01*
X015278Y033820D01*
X015289Y033810D01*
X015299Y033798D01*
X015308Y033786D01*
X015316Y033775D01*
X015323Y033765D01*
X015328Y033758D01*
X015330Y033755D01*
X015330Y033753D01*
X015332Y033751D01*
Y033751D01*
X015335Y033766D01*
X015338Y033781D01*
X015342Y033794D01*
X015346Y033806D01*
X015351Y033818D01*
X015356Y033828D01*
X015361Y033837D01*
X015366Y033846D01*
X015371Y033853D01*
X015376Y033860D01*
X015380Y033865D01*
X015384Y033870D01*
X015387Y033874D01*
X015389Y033876D01*
X015391Y033877D01*
X015391Y033878D01*
X015400Y033885D01*
X015410Y033892D01*
X015420Y033897D01*
X015430Y033902D01*
X015440Y033906D01*
X015450Y033910D01*
X015469Y033915D01*
X015477Y033917D01*
X015486Y033918D01*
X015493Y033919D01*
X015499Y033919D01*
X015504Y033920D01*
X015511D01*
X015532Y033919D01*
X015550Y033916D01*
X015568Y033911D01*
X015582Y033906D01*
X015589Y033903D01*
X015595Y033901D01*
X015600Y033899D01*
X015604Y033896D01*
X015607Y033894D01*
X015609Y033893D01*
X015611Y033892D01*
X015611D01*
X015627Y033881D01*
X015640Y033868D01*
X015650Y033856D01*
X015659Y033844D01*
X015666Y033833D01*
X015668Y033829D01*
X015670Y033825D01*
X015671Y033822D01*
X015673Y033819D01*
X015673Y033818D01*
Y033817D01*
X015676Y033808D01*
X015679Y033798D01*
X015682Y033786D01*
X015683Y033774D01*
X015686Y033750D01*
X015688Y033725D01*
X015689Y033714D01*
X015690Y033703D01*
Y033693D01*
X015691Y033685D01*
Y033678D01*
Y033673D01*
Y033670D01*
Y033668D01*
Y033396D01*
X015050D01*
Y033525D01*
X015317D01*
Y033551D01*
Y033567D01*
X015316Y033580D01*
X015315Y033591D01*
X015314Y033600D01*
X015312Y033607D01*
X015311Y033612D01*
X015310Y033615D01*
X015310Y033616D01*
X015307Y033624D01*
X015303Y033631D01*
X015298Y033638D01*
X015294Y033643D01*
X015289Y033648D01*
X015287Y033652D01*
X015284Y033654D01*
X015283Y033655D01*
X015279Y033659D01*
X015273Y033663D01*
X015267Y033668D01*
X015260Y033674D01*
X015245Y033685D01*
X015229Y033697D01*
X015214Y033707D01*
X015208Y033712D01*
X015201Y033715D01*
X015196Y033719D01*
X015193Y033722D01*
X015190Y033723D01*
X015189Y033724D01*
X015050Y033817D01*
Y033972D01*
X015174Y033894D01*
D02*
G37*
G36*
X015691Y034842D02*
X015582D01*
Y035033D01*
X015050D01*
Y035162D01*
X015582D01*
Y035350D01*
X015691D01*
Y034842D01*
D02*
G37*
G36*
Y036401D02*
Y036264D01*
X015050Y036015D01*
Y036151D01*
X015196Y036205D01*
Y036461D01*
X015050Y036517D01*
Y036658D01*
X015691Y036401D01*
D02*
G37*
G36*
X015174Y035931D02*
X015188Y035923D01*
X015200Y035915D01*
X015212Y035907D01*
X015222Y035900D01*
X015232Y035894D01*
X015240Y035888D01*
X015248Y035882D01*
X015255Y035877D01*
X015260Y035873D01*
X015265Y035869D01*
X015269Y035865D01*
X015273Y035863D01*
X015275Y035861D01*
X015277Y035859D01*
X015278Y035858D01*
X015289Y035847D01*
X015299Y035836D01*
X015308Y035824D01*
X015316Y035813D01*
X015323Y035803D01*
X015328Y035795D01*
X015330Y035793D01*
X015330Y035790D01*
X015332Y035789D01*
Y035788D01*
X015335Y035804D01*
X015338Y035818D01*
X015342Y035831D01*
X015346Y035844D01*
X015351Y035856D01*
X015356Y035866D01*
X015361Y035875D01*
X015366Y035883D01*
X015371Y035891D01*
X015376Y035897D01*
X015380Y035903D01*
X015384Y035908D01*
X015387Y035911D01*
X015389Y035913D01*
X015391Y035915D01*
X015391Y035915D01*
X015400Y035923D01*
X015410Y035929D01*
X015420Y035935D01*
X015430Y035940D01*
X015440Y035944D01*
X015450Y035947D01*
X015469Y035952D01*
X015477Y035954D01*
X015486Y035956D01*
X015493Y035956D01*
X015499Y035957D01*
X015504Y035958D01*
X015511D01*
X015532Y035956D01*
X015550Y035954D01*
X015568Y035949D01*
X015582Y035944D01*
X015589Y035941D01*
X015595Y035938D01*
X015600Y035936D01*
X015604Y035933D01*
X015607Y035932D01*
X015609Y035931D01*
X015611Y035929D01*
X015611D01*
X015627Y035918D01*
X015640Y035906D01*
X015650Y035894D01*
X015659Y035882D01*
X015666Y035871D01*
X015668Y035867D01*
X015670Y035863D01*
X015671Y035859D01*
X015673Y035857D01*
X015673Y035856D01*
Y035855D01*
X015676Y035846D01*
X015679Y035836D01*
X015682Y035824D01*
X015683Y035812D01*
X015686Y035788D01*
X015688Y035763D01*
X015689Y035752D01*
X015690Y035740D01*
Y035731D01*
X015691Y035722D01*
Y035715D01*
Y035711D01*
Y035707D01*
Y035706D01*
Y035434D01*
X015050D01*
Y035563D01*
X015317D01*
Y035588D01*
Y035604D01*
X015316Y035618D01*
X015315Y035629D01*
X015314Y035638D01*
X015312Y035645D01*
X015311Y035650D01*
X015310Y035653D01*
X015310Y035654D01*
X015307Y035661D01*
X015303Y035668D01*
X015298Y035675D01*
X015294Y035681D01*
X015289Y035686D01*
X015287Y035690D01*
X015284Y035692D01*
X015283Y035693D01*
X015279Y035697D01*
X015273Y035701D01*
X015267Y035706D01*
X015260Y035711D01*
X015245Y035722D01*
X015229Y035734D01*
X015214Y035745D01*
X015208Y035749D01*
X015201Y035753D01*
X015196Y035756D01*
X015193Y035759D01*
X015190Y035761D01*
X015189Y035761D01*
X015050Y035855D01*
Y036010D01*
X015174Y035931D01*
D02*
G37*
G36*
X015396Y033286D02*
X015411Y033284D01*
X015425Y033283D01*
X015439Y033282D01*
X015451Y033280D01*
X015463Y033277D01*
X015473Y033276D01*
X015482Y033274D01*
X015491Y033272D01*
X015498Y033270D01*
X015504Y033268D01*
X015509Y033267D01*
X015512Y033266D01*
X015514Y033265D01*
X015515D01*
X015537Y033257D01*
X015557Y033247D01*
X015575Y033236D01*
X015583Y033232D01*
X015590Y033227D01*
X015597Y033222D01*
X015602Y033218D01*
X015607Y033214D01*
X015611Y033211D01*
X015615Y033208D01*
X015617Y033206D01*
X015618Y033205D01*
X015619Y033204D01*
X015634Y033188D01*
X015646Y033172D01*
X015657Y033156D01*
X015664Y033141D01*
X015670Y033128D01*
X015673Y033122D01*
X015675Y033117D01*
X015676Y033113D01*
X015677Y033110D01*
X015678Y033108D01*
Y033107D01*
X015680Y033099D01*
X015682Y033090D01*
X015685Y033071D01*
X015688Y033050D01*
X015689Y033031D01*
X015690Y033022D01*
Y033014D01*
Y033006D01*
X015691Y032999D01*
Y032994D01*
Y032989D01*
Y032987D01*
Y032986D01*
Y032750D01*
X015050D01*
Y032993D01*
Y033006D01*
X015051Y033019D01*
X015051Y033030D01*
X015052Y033041D01*
X015053Y033051D01*
X015054Y033061D01*
X015056Y033069D01*
X015057Y033077D01*
X015058Y033084D01*
X015059Y033090D01*
X015060Y033096D01*
X015061Y033100D01*
X015062Y033103D01*
X015062Y033105D01*
X015063Y033107D01*
Y033107D01*
X015071Y033128D01*
X015079Y033146D01*
X015087Y033161D01*
X015096Y033174D01*
X015099Y033180D01*
X015103Y033184D01*
X015106Y033188D01*
X015109Y033191D01*
X015111Y033194D01*
X015113Y033196D01*
X015114Y033197D01*
X015115Y033198D01*
X015132Y033214D01*
X015151Y033227D01*
X015169Y033239D01*
X015187Y033249D01*
X015196Y033253D01*
X015203Y033257D01*
X015210Y033259D01*
X015216Y033262D01*
X015221Y033264D01*
X015225Y033265D01*
X015227Y033266D01*
X015228D01*
X015250Y033273D01*
X015273Y033278D01*
X015296Y033282D01*
X015317Y033284D01*
X015327Y033285D01*
X015336Y033286D01*
X015344D01*
X015351Y033286D01*
X015380D01*
X015396Y033286D01*
D02*
G37*
G36*
X014158Y036063D02*
X014332D01*
Y036384D01*
X014441D01*
Y036063D01*
X014582D01*
Y036408D01*
X014691D01*
Y035934D01*
X014050D01*
Y036421D01*
X014158D01*
Y036063D01*
D02*
G37*
G36*
X014174Y035785D02*
X014188Y035777D01*
X014200Y035768D01*
X014212Y035761D01*
X014222Y035754D01*
X014232Y035748D01*
X014240Y035741D01*
X014248Y035736D01*
X014255Y035731D01*
X014260Y035727D01*
X014265Y035723D01*
X014269Y035719D01*
X014273Y035716D01*
X014275Y035714D01*
X014277Y035713D01*
X014278Y035712D01*
X014289Y035701D01*
X014299Y035689D01*
X014308Y035678D01*
X014316Y035666D01*
X014323Y035657D01*
X014328Y035649D01*
X014330Y035646D01*
X014330Y035644D01*
X014332Y035643D01*
Y035642D01*
X014335Y035657D01*
X014338Y035672D01*
X014342Y035685D01*
X014346Y035698D01*
X014351Y035709D01*
X014356Y035720D01*
X014361Y035729D01*
X014366Y035737D01*
X014371Y035745D01*
X014376Y035751D01*
X014380Y035757D01*
X014384Y035762D01*
X014387Y035765D01*
X014389Y035767D01*
X014391Y035768D01*
X014391Y035769D01*
X014400Y035777D01*
X014410Y035783D01*
X014420Y035789D01*
X014430Y035793D01*
X014440Y035798D01*
X014450Y035801D01*
X014469Y035806D01*
X014477Y035808D01*
X014486Y035809D01*
X014493Y035810D01*
X014499Y035811D01*
X014504Y035811D01*
X014511D01*
X014532Y035810D01*
X014550Y035807D01*
X014568Y035802D01*
X014582Y035798D01*
X014589Y035795D01*
X014595Y035792D01*
X014600Y035790D01*
X014604Y035787D01*
X014607Y035786D01*
X014609Y035784D01*
X014611Y035783D01*
X014611D01*
X014627Y035772D01*
X014640Y035759D01*
X014650Y035748D01*
X014659Y035736D01*
X014666Y035725D01*
X014668Y035721D01*
X014670Y035716D01*
X014671Y035713D01*
X014673Y035711D01*
X014673Y035709D01*
Y035709D01*
X014676Y035700D01*
X014679Y035689D01*
X014682Y035678D01*
X014683Y035666D01*
X014686Y035641D01*
X014688Y035616D01*
X014689Y035605D01*
X014690Y035594D01*
Y035585D01*
X014691Y035576D01*
Y035569D01*
Y035564D01*
Y035561D01*
Y035560D01*
Y035288D01*
X014050D01*
Y035417D01*
X014317D01*
Y035442D01*
Y035458D01*
X014316Y035471D01*
X014315Y035483D01*
X014314Y035492D01*
X014312Y035498D01*
X014311Y035503D01*
X014310Y035507D01*
X014310Y035508D01*
X014307Y035515D01*
X014303Y035522D01*
X014298Y035529D01*
X014294Y035535D01*
X014289Y035539D01*
X014287Y035544D01*
X014284Y035546D01*
X014283Y035546D01*
X014279Y035551D01*
X014273Y035555D01*
X014267Y035560D01*
X014260Y035565D01*
X014245Y035576D01*
X014229Y035588D01*
X014214Y035598D01*
X014208Y035603D01*
X014201Y035607D01*
X014196Y035610D01*
X014193Y035613D01*
X014190Y035614D01*
X014189Y035615D01*
X014050Y035709D01*
Y035864D01*
X014174Y035785D01*
D02*
G37*
G36*
X014285Y036940D02*
X014273Y036936D01*
X014260Y036933D01*
X014249Y036929D01*
X014239Y036925D01*
X014230Y036920D01*
X014221Y036916D01*
X014214Y036911D01*
X014207Y036907D01*
X014201Y036902D01*
X014196Y036898D01*
X014192Y036895D01*
X014188Y036892D01*
X014185Y036889D01*
X014183Y036887D01*
X014183Y036886D01*
X014182Y036886D01*
X014176Y036879D01*
X014171Y036871D01*
X014163Y036857D01*
X014158Y036842D01*
X014153Y036828D01*
X014151Y036816D01*
X014150Y036811D01*
Y036806D01*
X014149Y036803D01*
Y036800D01*
Y036798D01*
Y036798D01*
X014150Y036785D01*
X014151Y036773D01*
X014154Y036761D01*
X014158Y036750D01*
X014161Y036740D01*
X014165Y036731D01*
X014170Y036722D01*
X014175Y036714D01*
X014180Y036707D01*
X014185Y036701D01*
X014189Y036696D01*
X014192Y036691D01*
X014196Y036689D01*
X014199Y036686D01*
X014200Y036685D01*
X014201Y036684D01*
X014211Y036676D01*
X014223Y036670D01*
X014235Y036664D01*
X014249Y036659D01*
X014264Y036655D01*
X014278Y036651D01*
X014306Y036646D01*
X014320Y036644D01*
X014332Y036643D01*
X014344Y036642D01*
X014354Y036642D01*
X014362Y036641D01*
X014373D01*
X014394Y036642D01*
X014414Y036643D01*
X014431Y036645D01*
X014448Y036648D01*
X014463Y036651D01*
X014476Y036655D01*
X014489Y036659D01*
X014499Y036663D01*
X014509Y036667D01*
X014517Y036671D01*
X014524Y036674D01*
X014530Y036678D01*
X014534Y036680D01*
X014537Y036682D01*
X014539Y036684D01*
X014539Y036685D01*
X014548Y036693D01*
X014556Y036703D01*
X014563Y036712D01*
X014569Y036721D01*
X014574Y036731D01*
X014578Y036741D01*
X014582Y036750D01*
X014584Y036759D01*
X014586Y036768D01*
X014588Y036775D01*
X014589Y036782D01*
X014590Y036789D01*
X014591Y036793D01*
Y036797D01*
Y036800D01*
Y036800D01*
X014589Y036819D01*
X014586Y036836D01*
X014582Y036850D01*
X014576Y036864D01*
X014570Y036874D01*
X014568Y036878D01*
X014566Y036882D01*
X014564Y036884D01*
X014563Y036886D01*
X014562Y036887D01*
X014561Y036888D01*
X014550Y036900D01*
X014537Y036911D01*
X014524Y036919D01*
X014512Y036925D01*
X014500Y036930D01*
X014496Y036932D01*
X014491Y036934D01*
X014488Y036934D01*
X014485Y036935D01*
X014484Y036936D01*
X014483D01*
X014514Y037063D01*
X014527Y037059D01*
X014541Y037054D01*
X014552Y037049D01*
X014564Y037044D01*
X014575Y037038D01*
X014584Y037033D01*
X014593Y037027D01*
X014601Y037023D01*
X014608Y037017D01*
X014614Y037013D01*
X014619Y037009D01*
X014623Y037004D01*
X014627Y037002D01*
X014629Y037000D01*
X014630Y036998D01*
X014631Y036998D01*
X014643Y036983D01*
X014654Y036968D01*
X014663Y036952D01*
X014671Y036936D01*
X014678Y036920D01*
X014684Y036905D01*
X014688Y036889D01*
X014692Y036875D01*
X014695Y036861D01*
X014698Y036848D01*
X014699Y036836D01*
X014700Y036826D01*
X014700Y036818D01*
X014701Y036812D01*
Y036808D01*
Y036807D01*
X014700Y036782D01*
X014698Y036759D01*
X014693Y036737D01*
X014687Y036716D01*
X014680Y036696D01*
X014673Y036679D01*
X014665Y036662D01*
X014657Y036648D01*
X014648Y036635D01*
X014641Y036623D01*
X014633Y036613D01*
X014626Y036605D01*
X014620Y036598D01*
X014616Y036594D01*
X014613Y036590D01*
X014612Y036589D01*
X014595Y036575D01*
X014576Y036562D01*
X014557Y036551D01*
X014536Y036542D01*
X014516Y036534D01*
X014495Y036528D01*
X014475Y036522D01*
X014455Y036518D01*
X014437Y036515D01*
X014419Y036512D01*
X014403Y036510D01*
X014390Y036509D01*
X014379Y036508D01*
X014375Y036508D01*
X014364D01*
X014336Y036508D01*
X014310Y036511D01*
X014286Y036515D01*
X014263Y036520D01*
X014242Y036526D01*
X014222Y036533D01*
X014204Y036541D01*
X014188Y036549D01*
X014174Y036556D01*
X014161Y036564D01*
X014151Y036571D01*
X014142Y036577D01*
X014135Y036582D01*
X014130Y036586D01*
X014126Y036589D01*
X014126Y036589D01*
X014110Y036605D01*
X014097Y036622D01*
X014085Y036639D01*
X014076Y036657D01*
X014067Y036674D01*
X014060Y036691D01*
X014054Y036709D01*
X014050Y036725D01*
X014046Y036740D01*
X014044Y036755D01*
X014042Y036767D01*
X014040Y036778D01*
X014040Y036787D01*
X014039Y036793D01*
Y036798D01*
Y036798D01*
Y036799D01*
X014040Y036818D01*
X014041Y036836D01*
X014044Y036853D01*
X014047Y036869D01*
X014051Y036884D01*
X014055Y036898D01*
X014060Y036911D01*
X014065Y036923D01*
X014069Y036934D01*
X014074Y036943D01*
X014078Y036950D01*
X014082Y036957D01*
X014085Y036962D01*
X014087Y036966D01*
X014089Y036968D01*
X014090Y036969D01*
X014100Y036982D01*
X014111Y036993D01*
X014123Y037003D01*
X014136Y037013D01*
X014149Y037021D01*
X014162Y037029D01*
X014175Y037036D01*
X014187Y037043D01*
X014199Y037048D01*
X014210Y037053D01*
X014221Y037057D01*
X014229Y037060D01*
X014237Y037063D01*
X014242Y037064D01*
X014245Y037066D01*
X014246D01*
X014285Y036940D01*
D02*
G37*
G36*
X014423Y038025D02*
X014589D01*
Y037914D01*
X014423D01*
Y037746D01*
X014308D01*
Y037914D01*
X014142D01*
Y038025D01*
X014308D01*
Y038193D01*
X014423D01*
Y038025D01*
D02*
G37*
G36*
X014691Y037570D02*
X014217Y037413D01*
X014691Y037251D01*
Y037111D01*
X014050Y037340D01*
Y037478D01*
X014691Y037708D01*
Y037570D01*
D02*
G37*
G36*
X020174Y035730D02*
X020188Y035721D01*
X020200Y035713D01*
X020212Y035705D01*
X020222Y035698D01*
X020232Y035692D01*
X020240Y035686D01*
X020248Y035680D01*
X020255Y035675D01*
X020260Y035671D01*
X020265Y035667D01*
X020269Y035664D01*
X020273Y035661D01*
X020275Y035659D01*
X020277Y035657D01*
X020278Y035656D01*
X020289Y035646D01*
X020299Y035634D01*
X020308Y035622D01*
X020316Y035611D01*
X020323Y035601D01*
X020328Y035594D01*
X020330Y035591D01*
X020330Y035589D01*
X020332Y035587D01*
Y035587D01*
X020335Y035602D01*
X020338Y035617D01*
X020342Y035630D01*
X020346Y035642D01*
X020351Y035654D01*
X020356Y035664D01*
X020361Y035673D01*
X020366Y035682D01*
X020371Y035689D01*
X020376Y035696D01*
X020380Y035701D01*
X020384Y035706D01*
X020387Y035710D01*
X020389Y035712D01*
X020391Y035713D01*
X020391Y035714D01*
X020400Y035721D01*
X020410Y035728D01*
X020420Y035733D01*
X020430Y035738D01*
X020440Y035742D01*
X020450Y035746D01*
X020469Y035750D01*
X020477Y035753D01*
X020486Y035754D01*
X020493Y035755D01*
X020499Y035755D01*
X020504Y035756D01*
X020511D01*
X020532Y035755D01*
X020550Y035752D01*
X020568Y035747D01*
X020582Y035742D01*
X020589Y035739D01*
X020595Y035737D01*
X020600Y035734D01*
X020604Y035732D01*
X020607Y035730D01*
X020609Y035729D01*
X020611Y035728D01*
X020611D01*
X020627Y035716D01*
X020640Y035704D01*
X020650Y035692D01*
X020659Y035680D01*
X020666Y035669D01*
X020668Y035665D01*
X020670Y035661D01*
X020671Y035657D01*
X020673Y035655D01*
X020673Y035654D01*
Y035653D01*
X020676Y035644D01*
X020679Y035634D01*
X020682Y035622D01*
X020683Y035610D01*
X020686Y035586D01*
X020688Y035561D01*
X020689Y035550D01*
X020690Y035539D01*
Y035529D01*
X020691Y035521D01*
Y035514D01*
Y035509D01*
Y035505D01*
Y035504D01*
Y035232D01*
X020050D01*
Y035361D01*
X020317D01*
Y035387D01*
Y035403D01*
X020316Y035416D01*
X020315Y035427D01*
X020314Y035436D01*
X020312Y035443D01*
X020311Y035448D01*
X020310Y035451D01*
X020310Y035452D01*
X020307Y035460D01*
X020303Y035467D01*
X020298Y035474D01*
X020294Y035479D01*
X020289Y035484D01*
X020287Y035488D01*
X020284Y035490D01*
X020283Y035491D01*
X020279Y035495D01*
X020273Y035499D01*
X020267Y035504D01*
X020260Y035510D01*
X020245Y035521D01*
X020229Y035533D01*
X020214Y035543D01*
X020208Y035548D01*
X020201Y035551D01*
X020196Y035555D01*
X020193Y035558D01*
X020190Y035559D01*
X020189Y035560D01*
X020050Y035653D01*
Y035808D01*
X020174Y035730D01*
D02*
G37*
G36*
X021691Y035683D02*
X021260D01*
X021691Y035419D01*
Y035294D01*
X021050D01*
Y035414D01*
X021471D01*
X021050Y035673D01*
Y035802D01*
X021691D01*
Y035683D01*
D02*
G37*
G36*
X022691Y035483D02*
X022260D01*
X022691Y035219D01*
Y035094D01*
X022050D01*
Y035214D01*
X022471D01*
X022050Y035473D01*
Y035602D01*
X022691D01*
Y035483D01*
D02*
G37*
G36*
X022158Y036120D02*
X022685D01*
Y035991D01*
X022050D01*
Y036441D01*
X022158D01*
Y036120D01*
D02*
G37*
G36*
X020691Y034174D02*
X020439D01*
Y033920D01*
X020691D01*
Y033791D01*
X020050D01*
Y033920D01*
X020330D01*
Y034174D01*
X020050D01*
Y034303D01*
X020691D01*
Y034174D01*
D02*
G37*
G36*
Y033200D02*
X020582D01*
Y033390D01*
X020050D01*
Y033519D01*
X020582D01*
Y033708D01*
X020691D01*
Y033200D01*
D02*
G37*
G36*
Y034641D02*
X020582D01*
Y034831D01*
X020050D01*
Y034960D01*
X020582D01*
Y035149D01*
X020691D01*
Y034641D01*
D02*
G37*
G36*
X022158Y036663D02*
X022332D01*
Y036984D01*
X022441D01*
Y036663D01*
X022582D01*
Y037008D01*
X022691D01*
Y036534D01*
X022050D01*
Y037021D01*
X022158D01*
Y036663D01*
D02*
G37*
G36*
X020691Y036199D02*
Y036062D01*
X020050Y035813D01*
Y035950D01*
X020196Y036003D01*
Y036259D01*
X020050Y036315D01*
Y036456D01*
X020691Y036199D01*
D02*
G37*
G36*
X021507Y034540D02*
X021521Y034539D01*
X021533Y034537D01*
X021545Y034535D01*
X021556Y034532D01*
X021566Y034529D01*
X021575Y034525D01*
X021584Y034522D01*
X021592Y034518D01*
X021598Y034515D01*
X021605Y034512D01*
X021609Y034509D01*
X021613Y034507D01*
X021616Y034505D01*
X021617Y034504D01*
X021618Y034503D01*
X021627Y034496D01*
X021634Y034489D01*
X021641Y034481D01*
X021648Y034473D01*
X021659Y034457D01*
X021668Y034443D01*
X021674Y034430D01*
X021676Y034425D01*
X021678Y034420D01*
X021679Y034416D01*
X021680Y034414D01*
X021681Y034412D01*
Y034411D01*
X021682Y034403D01*
X021684Y034394D01*
X021686Y034384D01*
X021686Y034372D01*
X021687Y034360D01*
X021688Y034347D01*
X021689Y034321D01*
X021690Y034308D01*
Y034297D01*
X021691Y034286D01*
Y034276D01*
Y034269D01*
Y034262D01*
Y034259D01*
Y034258D01*
Y034050D01*
X021050D01*
Y034179D01*
X021292D01*
Y034263D01*
Y034279D01*
X021292Y034294D01*
Y034308D01*
X021293Y034321D01*
X021294Y034333D01*
X021294Y034344D01*
X021295Y034355D01*
X021296Y034364D01*
X021297Y034371D01*
X021298Y034378D01*
X021298Y034385D01*
X021299Y034389D01*
X021300Y034393D01*
Y034396D01*
X021301Y034397D01*
Y034398D01*
X021304Y034410D01*
X021308Y034423D01*
X021313Y034434D01*
X021318Y034444D01*
X021323Y034453D01*
X021327Y034459D01*
X021330Y034463D01*
X021330Y034464D01*
Y034464D01*
X021340Y034476D01*
X021351Y034487D01*
X021361Y034496D01*
X021371Y034505D01*
X021380Y034511D01*
X021387Y034515D01*
X021390Y034517D01*
X021392Y034518D01*
X021393Y034519D01*
X021394D01*
X021409Y034526D01*
X021426Y034532D01*
X021443Y034535D01*
X021458Y034538D01*
X021466Y034539D01*
X021472Y034539D01*
X021478Y034540D01*
X021483Y034541D01*
X021493D01*
X021507Y034540D01*
D02*
G37*
G36*
X020423Y038019D02*
X020589D01*
Y037907D01*
X020423D01*
Y037739D01*
X020308D01*
Y037907D01*
X020142D01*
Y038019D01*
X020308D01*
Y038187D01*
X020423D01*
Y038019D01*
D02*
G37*
G36*
X022507Y034340D02*
X022521Y034339D01*
X022533Y034337D01*
X022545Y034335D01*
X022556Y034332D01*
X022566Y034329D01*
X022575Y034325D01*
X022584Y034322D01*
X022592Y034318D01*
X022598Y034315D01*
X022605Y034312D01*
X022609Y034309D01*
X022613Y034307D01*
X022616Y034305D01*
X022617Y034304D01*
X022618Y034303D01*
X022627Y034296D01*
X022634Y034289D01*
X022641Y034281D01*
X022648Y034273D01*
X022659Y034257D01*
X022668Y034243D01*
X022674Y034230D01*
X022676Y034225D01*
X022678Y034220D01*
X022679Y034216D01*
X022680Y034214D01*
X022681Y034212D01*
Y034211D01*
X022682Y034203D01*
X022684Y034194D01*
X022686Y034184D01*
X022686Y034172D01*
X022687Y034160D01*
X022688Y034147D01*
X022689Y034121D01*
X022690Y034108D01*
Y034097D01*
X022691Y034086D01*
Y034076D01*
Y034069D01*
Y034062D01*
Y034059D01*
Y034058D01*
Y033850D01*
X022050D01*
Y033979D01*
X022292D01*
Y034063D01*
Y034079D01*
X022292Y034094D01*
Y034108D01*
X022293Y034121D01*
X022294Y034133D01*
X022294Y034144D01*
X022295Y034155D01*
X022296Y034164D01*
X022297Y034171D01*
X022298Y034178D01*
X022298Y034185D01*
X022299Y034189D01*
X022300Y034193D01*
Y034196D01*
X022301Y034197D01*
Y034198D01*
X022304Y034210D01*
X022308Y034223D01*
X022313Y034234D01*
X022318Y034244D01*
X022323Y034253D01*
X022327Y034259D01*
X022330Y034263D01*
X022330Y034264D01*
Y034264D01*
X022340Y034276D01*
X022350Y034287D01*
X022361Y034296D01*
X022371Y034305D01*
X022380Y034311D01*
X022387Y034315D01*
X022390Y034317D01*
X022392Y034318D01*
X022393Y034319D01*
X022394D01*
X022409Y034326D01*
X022426Y034332D01*
X022443Y034335D01*
X022458Y034338D01*
X022466Y034339D01*
X022472Y034339D01*
X022478Y034340D01*
X022483Y034341D01*
X022493D01*
X022507Y034340D01*
D02*
G37*
G36*
X021691Y034968D02*
Y034831D01*
X021050Y034582D01*
Y034718D01*
X021196Y034772D01*
Y035028D01*
X021050Y035084D01*
Y035225D01*
X021691Y034968D01*
D02*
G37*
G36*
X022691Y034768D02*
Y034631D01*
X022050Y034382D01*
Y034518D01*
X022196Y034572D01*
Y034828D01*
X022050Y034884D01*
Y035025D01*
X022691Y034768D01*
D02*
G37*
G36*
X020691Y036914D02*
X020260D01*
X020691Y036651D01*
Y036526D01*
X020050D01*
Y036645D01*
X020471D01*
X020050Y036905D01*
Y037034D01*
X020691D01*
Y036914D01*
D02*
G37*
G36*
X021344Y037961D02*
X021221D01*
Y038203D01*
X021344D01*
Y037961D01*
D02*
G37*
G36*
X020258Y037657D02*
X020278Y037654D01*
X020295Y037650D01*
X020303Y037648D01*
X020310Y037646D01*
X020316Y037643D01*
X020321Y037641D01*
X020326Y037639D01*
X020330Y037637D01*
X020334Y037635D01*
X020336Y037634D01*
X020337Y037633D01*
X020338D01*
X020353Y037622D01*
X020366Y037610D01*
X020377Y037599D01*
X020387Y037587D01*
X020394Y037577D01*
X020399Y037569D01*
X020400Y037565D01*
X020402Y037563D01*
X020403Y037562D01*
Y037561D01*
X020407Y037552D01*
X020412Y037542D01*
X020416Y037531D01*
X020421Y037520D01*
X020428Y037497D01*
X020435Y037474D01*
X020438Y037464D01*
X020441Y037454D01*
X020443Y037445D01*
X020446Y037437D01*
X020447Y037431D01*
X020448Y037426D01*
X020449Y037423D01*
Y037422D01*
X020453Y037405D01*
X020457Y037390D01*
X020462Y037376D01*
X020466Y037363D01*
X020469Y037352D01*
X020473Y037342D01*
X020476Y037334D01*
X020479Y037327D01*
X020482Y037321D01*
X020484Y037315D01*
X020487Y037311D01*
X020489Y037308D01*
X020490Y037306D01*
X020491Y037304D01*
X020492Y037303D01*
X020498Y037297D01*
X020505Y037292D01*
X020512Y037289D01*
X020518Y037286D01*
X020523Y037285D01*
X020527Y037284D01*
X020531D01*
X020540Y037285D01*
X020548Y037288D01*
X020555Y037290D01*
X020560Y037295D01*
X020564Y037298D01*
X020568Y037302D01*
X020570Y037304D01*
X020570Y037304D01*
X020578Y037318D01*
X020584Y037331D01*
X020589Y037347D01*
X020591Y037361D01*
X020593Y037374D01*
X020593Y037379D01*
X020594Y037384D01*
Y037388D01*
Y037390D01*
Y037392D01*
Y037393D01*
X020593Y037413D01*
X020591Y037429D01*
X020587Y037443D01*
X020583Y037455D01*
X020579Y037464D01*
X020575Y037470D01*
X020573Y037474D01*
X020572Y037475D01*
X020563Y037485D01*
X020552Y037492D01*
X020540Y037499D01*
X020529Y037503D01*
X020518Y037507D01*
X020514Y037508D01*
X020509Y037510D01*
X020507Y037510D01*
X020504D01*
X020502Y037511D01*
X020502D01*
X020507Y037640D01*
X020523Y037639D01*
X020538Y037637D01*
X020552Y037633D01*
X020566Y037628D01*
X020578Y037624D01*
X020590Y037618D01*
X020600Y037612D01*
X020610Y037607D01*
X020618Y037601D01*
X020626Y037595D01*
X020633Y037590D01*
X020638Y037585D01*
X020642Y037581D01*
X020645Y037578D01*
X020647Y037576D01*
X020648Y037576D01*
X020657Y037564D01*
X020665Y037551D01*
X020673Y037536D01*
X020679Y037522D01*
X020684Y037507D01*
X020688Y037492D01*
X020691Y037476D01*
X020694Y037463D01*
X020697Y037449D01*
X020698Y037435D01*
X020700Y037424D01*
X020700Y037414D01*
X020701Y037406D01*
Y037400D01*
Y037396D01*
Y037395D01*
Y037395D01*
X020700Y037367D01*
X020699Y037356D01*
X020698Y037343D01*
X020695Y037332D01*
X020694Y037322D01*
X020692Y037313D01*
X020690Y037304D01*
X020687Y037295D01*
X020685Y037288D01*
X020684Y037283D01*
X020682Y037277D01*
X020680Y037274D01*
X020679Y037270D01*
X020678Y037269D01*
Y037268D01*
X020669Y037250D01*
X020659Y037234D01*
X020648Y037220D01*
X020638Y037209D01*
X020628Y037200D01*
X020620Y037193D01*
X020618Y037191D01*
X020616Y037190D01*
X020614Y037188D01*
X020614D01*
X020598Y037179D01*
X020582Y037172D01*
X020566Y037168D01*
X020552Y037164D01*
X020540Y037162D01*
X020534Y037161D01*
X020530D01*
X020527Y037161D01*
X020522D01*
X020508Y037161D01*
X020495Y037163D01*
X020482Y037166D01*
X020470Y037170D01*
X020459Y037175D01*
X020448Y037179D01*
X020438Y037185D01*
X020429Y037190D01*
X020421Y037195D01*
X020414Y037201D01*
X020407Y037206D01*
X020403Y037211D01*
X020398Y037214D01*
X020396Y037217D01*
X020394Y037219D01*
X020393Y037220D01*
X020386Y037228D01*
X020380Y037238D01*
X020373Y037249D01*
X020367Y037260D01*
X020357Y037284D01*
X020347Y037308D01*
X020344Y037320D01*
X020340Y037330D01*
X020337Y037340D01*
X020335Y037349D01*
X020332Y037356D01*
X020331Y037361D01*
X020330Y037364D01*
Y037365D01*
X020326Y037380D01*
X020323Y037393D01*
X020320Y037405D01*
X020317Y037415D01*
X020314Y037425D01*
X020312Y037433D01*
X020310Y037441D01*
X020308Y037447D01*
X020307Y037453D01*
X020305Y037457D01*
X020304Y037461D01*
X020303Y037464D01*
X020303Y037466D01*
Y037467D01*
X020302Y037469D01*
X020297Y037481D01*
X020293Y037490D01*
X020288Y037498D01*
X020284Y037505D01*
X020280Y037509D01*
X020277Y037513D01*
X020275Y037515D01*
X020274Y037515D01*
X020268Y037520D01*
X020262Y037524D01*
X020255Y037526D01*
X020248Y037528D01*
X020244Y037528D01*
X020239Y037529D01*
X020229D01*
X020223Y037528D01*
X020211Y037524D01*
X020200Y037519D01*
X020191Y037513D01*
X020184Y037508D01*
X020178Y037502D01*
X020175Y037499D01*
X020174Y037498D01*
Y037497D01*
X020169Y037491D01*
X020165Y037484D01*
X020158Y037469D01*
X020153Y037453D01*
X020151Y037438D01*
X020149Y037424D01*
X020148Y037418D01*
Y037413D01*
X020147Y037408D01*
Y037405D01*
Y037403D01*
Y037402D01*
X020149Y037381D01*
X020152Y037363D01*
X020156Y037347D01*
X020162Y037333D01*
X020165Y037327D01*
X020167Y037322D01*
X020169Y037318D01*
X020171Y037314D01*
X020174Y037311D01*
X020175Y037309D01*
X020176Y037308D01*
Y037308D01*
X020183Y037302D01*
X020189Y037296D01*
X020203Y037286D01*
X020219Y037278D01*
X020235Y037272D01*
X020248Y037268D01*
X020254Y037265D01*
X020260Y037264D01*
X020264Y037263D01*
X020267Y037263D01*
X020269Y037262D01*
X020270D01*
X020258Y037136D01*
X020238Y037139D01*
X020219Y037143D01*
X020203Y037148D01*
X020187Y037154D01*
X020172Y037160D01*
X020158Y037166D01*
X020146Y037173D01*
X020135Y037180D01*
X020126Y037186D01*
X020117Y037193D01*
X020110Y037199D01*
X020104Y037204D01*
X020100Y037208D01*
X020096Y037211D01*
X020094Y037213D01*
X020094Y037214D01*
X020084Y037227D01*
X020076Y037241D01*
X020068Y037256D01*
X020062Y037271D01*
X020056Y037286D01*
X020052Y037302D01*
X020048Y037317D01*
X020045Y037332D01*
X020043Y037346D01*
X020041Y037359D01*
X020040Y037371D01*
X020039Y037381D01*
Y037389D01*
X020038Y037395D01*
Y037399D01*
Y037401D01*
Y037416D01*
X020039Y037431D01*
X020040Y037445D01*
X020042Y037458D01*
X020044Y037470D01*
X020045Y037482D01*
X020047Y037492D01*
X020050Y037502D01*
X020052Y037510D01*
X020054Y037518D01*
X020056Y037525D01*
X020058Y037531D01*
X020059Y037535D01*
X020060Y037538D01*
X020061Y037540D01*
Y037540D01*
X020071Y037560D01*
X020082Y037578D01*
X020094Y037592D01*
X020106Y037605D01*
X020116Y037615D01*
X020121Y037618D01*
X020125Y037621D01*
X020128Y037624D01*
X020131Y037626D01*
X020132Y037627D01*
X020133D01*
X020142Y037633D01*
X020151Y037637D01*
X020169Y037645D01*
X020187Y037651D01*
X020203Y037654D01*
X020210Y037655D01*
X020216Y037657D01*
X020222Y037658D01*
X020227D01*
X020230Y037658D01*
X020236D01*
X020258Y037657D01*
D02*
G37*
G36*
X021158Y036320D02*
X021685D01*
Y036191D01*
X021050D01*
Y036641D01*
X021158D01*
Y036320D01*
D02*
G37*
G36*
X019691Y034841D02*
X019582D01*
Y035031D01*
X019050D01*
Y035160D01*
X019582D01*
Y035349D01*
X019691D01*
Y034841D01*
D02*
G37*
G36*
Y034374D02*
X019439D01*
Y034120D01*
X019691D01*
Y033991D01*
X019050D01*
Y034120D01*
X019330D01*
Y034374D01*
X019050D01*
Y034503D01*
X019691D01*
Y034374D01*
D02*
G37*
G36*
X022423Y038029D02*
X022589D01*
Y037917D01*
X022423D01*
Y037749D01*
X022308D01*
Y037917D01*
X022142D01*
Y038029D01*
X022308D01*
Y038197D01*
X022423D01*
Y038029D01*
D02*
G37*
G36*
X018158Y036061D02*
X018332D01*
Y036382D01*
X018441D01*
Y036061D01*
X018582D01*
Y036407D01*
X018691D01*
Y035932D01*
X018050D01*
Y036419D01*
X018158D01*
Y036061D01*
D02*
G37*
G36*
X018691Y037568D02*
X018217Y037412D01*
X018691Y037249D01*
Y037110D01*
X018050Y037338D01*
Y037477D01*
X018691Y037706D01*
Y037568D01*
D02*
G37*
G36*
X018285Y036938D02*
X018273Y036935D01*
X018260Y036931D01*
X018249Y036927D01*
X018239Y036923D01*
X018230Y036918D01*
X018221Y036914D01*
X018214Y036909D01*
X018207Y036905D01*
X018201Y036901D01*
X018196Y036897D01*
X018192Y036893D01*
X018188Y036890D01*
X018185Y036888D01*
X018183Y036886D01*
X018183Y036885D01*
X018182Y036884D01*
X018176Y036877D01*
X018171Y036870D01*
X018163Y036855D01*
X018158Y036840D01*
X018153Y036827D01*
X018151Y036814D01*
X018150Y036809D01*
Y036804D01*
X018149Y036801D01*
Y036798D01*
Y036797D01*
Y036796D01*
X018150Y036784D01*
X018151Y036771D01*
X018154Y036759D01*
X018158Y036749D01*
X018161Y036738D01*
X018165Y036729D01*
X018170Y036720D01*
X018175Y036713D01*
X018180Y036706D01*
X018185Y036700D01*
X018189Y036695D01*
X018192Y036690D01*
X018196Y036687D01*
X018199Y036684D01*
X018200Y036683D01*
X018201Y036682D01*
X018211Y036675D01*
X018223Y036668D01*
X018235Y036662D01*
X018249Y036657D01*
X018264Y036653D01*
X018278Y036650D01*
X018306Y036645D01*
X018320Y036643D01*
X018332Y036641D01*
X018344Y036641D01*
X018354Y036640D01*
X018362Y036639D01*
X018373D01*
X018394Y036640D01*
X018414Y036641D01*
X018431Y036643D01*
X018448Y036646D01*
X018463Y036650D01*
X018476Y036653D01*
X018489Y036657D01*
X018499Y036661D01*
X018509Y036665D01*
X018517Y036669D01*
X018524Y036672D01*
X018530Y036676D01*
X018534Y036679D01*
X018537Y036681D01*
X018539Y036682D01*
X018539Y036683D01*
X018548Y036691D01*
X018556Y036701D01*
X018563Y036710D01*
X018569Y036720D01*
X018574Y036729D01*
X018578Y036739D01*
X018582Y036749D01*
X018584Y036758D01*
X018586Y036766D01*
X018588Y036774D01*
X018589Y036781D01*
X018590Y036787D01*
X018591Y036792D01*
Y036795D01*
Y036798D01*
Y036799D01*
X018589Y036818D01*
X018586Y036834D01*
X018582Y036849D01*
X018576Y036862D01*
X018570Y036872D01*
X018568Y036876D01*
X018566Y036880D01*
X018564Y036883D01*
X018563Y036885D01*
X018562Y036886D01*
X018561Y036886D01*
X018550Y036899D01*
X018537Y036909D01*
X018524Y036917D01*
X018512Y036924D01*
X018500Y036929D01*
X018496Y036931D01*
X018491Y036932D01*
X018488Y036933D01*
X018485Y036933D01*
X018484Y036934D01*
X018483D01*
X018514Y037062D01*
X018527Y037058D01*
X018541Y037053D01*
X018552Y037047D01*
X018564Y037042D01*
X018575Y037037D01*
X018584Y037031D01*
X018593Y037026D01*
X018601Y037021D01*
X018608Y037015D01*
X018614Y037011D01*
X018619Y037007D01*
X018623Y037003D01*
X018627Y037000D01*
X018629Y036998D01*
X018630Y036997D01*
X018631Y036996D01*
X018643Y036981D01*
X018654Y036967D01*
X018664Y036951D01*
X018671Y036935D01*
X018678Y036919D01*
X018684Y036903D01*
X018688Y036888D01*
X018692Y036873D01*
X018695Y036859D01*
X018698Y036846D01*
X018699Y036834D01*
X018700Y036824D01*
X018700Y036816D01*
X018701Y036811D01*
Y036806D01*
Y036805D01*
X018700Y036781D01*
X018698Y036757D01*
X018693Y036735D01*
X018687Y036714D01*
X018680Y036695D01*
X018673Y036677D01*
X018665Y036661D01*
X018657Y036646D01*
X018648Y036633D01*
X018641Y036621D01*
X018633Y036611D01*
X018626Y036603D01*
X018620Y036596D01*
X018616Y036592D01*
X018613Y036588D01*
X018612Y036588D01*
X018595Y036573D01*
X018576Y036561D01*
X018557Y036550D01*
X018536Y036541D01*
X018516Y036532D01*
X018495Y036526D01*
X018475Y036520D01*
X018455Y036516D01*
X018437Y036513D01*
X018419Y036510D01*
X018403Y036509D01*
X018390Y036507D01*
X018379Y036507D01*
X018375Y036506D01*
X018364D01*
X018336Y036507D01*
X018310Y036509D01*
X018286Y036514D01*
X018263Y036518D01*
X018242Y036525D01*
X018222Y036532D01*
X018204Y036539D01*
X018188Y036547D01*
X018174Y036554D01*
X018161Y036562D01*
X018151Y036569D01*
X018142Y036575D01*
X018135Y036580D01*
X018130Y036584D01*
X018126Y036587D01*
X018126Y036588D01*
X018110Y036604D01*
X018097Y036620D01*
X018085Y036638D01*
X018076Y036655D01*
X018067Y036672D01*
X018060Y036690D01*
X018054Y036707D01*
X018050Y036723D01*
X018046Y036738D01*
X018044Y036753D01*
X018042Y036765D01*
X018040Y036776D01*
X018040Y036785D01*
X018039Y036792D01*
Y036796D01*
Y036797D01*
Y036797D01*
X018040Y036816D01*
X018041Y036834D01*
X018044Y036852D01*
X018047Y036867D01*
X018051Y036883D01*
X018055Y036897D01*
X018060Y036910D01*
X018065Y036921D01*
X018069Y036932D01*
X018074Y036941D01*
X018078Y036949D01*
X018082Y036956D01*
X018085Y036960D01*
X018087Y036965D01*
X018089Y036967D01*
X018090Y036967D01*
X018100Y036980D01*
X018111Y036991D01*
X018123Y037001D01*
X018136Y037011D01*
X018149Y037019D01*
X018162Y037028D01*
X018175Y037035D01*
X018187Y037041D01*
X018199Y037047D01*
X018210Y037051D01*
X018221Y037055D01*
X018229Y037058D01*
X018237Y037061D01*
X018242Y037062D01*
X018245Y037064D01*
X018246D01*
X018285Y036938D01*
D02*
G37*
G36*
X019691Y033400D02*
X019582D01*
Y033590D01*
X019050D01*
Y033719D01*
X019582D01*
Y033908D01*
X019691D01*
Y033400D01*
D02*
G37*
G36*
X018423Y038024D02*
X018589D01*
Y037912D01*
X018423D01*
Y037744D01*
X018308D01*
Y037912D01*
X018142D01*
Y038024D01*
X018308D01*
Y038192D01*
X018423D01*
Y038024D01*
D02*
G37*
G36*
X019258Y037857D02*
X019278Y037854D01*
X019295Y037850D01*
X019303Y037848D01*
X019310Y037846D01*
X019316Y037843D01*
X019321Y037841D01*
X019326Y037839D01*
X019330Y037837D01*
X019334Y037835D01*
X019336Y037834D01*
X019337Y037833D01*
X019338D01*
X019353Y037822D01*
X019366Y037810D01*
X019377Y037799D01*
X019387Y037787D01*
X019394Y037777D01*
X019399Y037769D01*
X019400Y037765D01*
X019402Y037763D01*
X019403Y037762D01*
Y037761D01*
X019407Y037752D01*
X019412Y037742D01*
X019416Y037731D01*
X019421Y037720D01*
X019428Y037697D01*
X019435Y037674D01*
X019438Y037664D01*
X019441Y037654D01*
X019444Y037645D01*
X019446Y037637D01*
X019447Y037631D01*
X019448Y037626D01*
X019449Y037623D01*
Y037622D01*
X019453Y037605D01*
X019457Y037590D01*
X019462Y037576D01*
X019466Y037563D01*
X019469Y037552D01*
X019473Y037542D01*
X019476Y037534D01*
X019479Y037527D01*
X019482Y037521D01*
X019484Y037515D01*
X019487Y037511D01*
X019489Y037508D01*
X019490Y037506D01*
X019491Y037504D01*
X019492Y037503D01*
X019498Y037497D01*
X019505Y037492D01*
X019512Y037489D01*
X019518Y037486D01*
X019523Y037485D01*
X019527Y037484D01*
X019531D01*
X019540Y037485D01*
X019548Y037488D01*
X019555Y037490D01*
X019560Y037495D01*
X019564Y037498D01*
X019568Y037502D01*
X019570Y037504D01*
X019570Y037504D01*
X019578Y037517D01*
X019584Y037531D01*
X019589Y037547D01*
X019591Y037561D01*
X019593Y037574D01*
X019593Y037579D01*
X019594Y037584D01*
Y037588D01*
Y037590D01*
Y037592D01*
Y037593D01*
X019593Y037613D01*
X019591Y037629D01*
X019587Y037643D01*
X019583Y037655D01*
X019579Y037664D01*
X019575Y037670D01*
X019573Y037674D01*
X019572Y037675D01*
X019563Y037685D01*
X019552Y037692D01*
X019540Y037699D01*
X019529Y037703D01*
X019518Y037707D01*
X019514Y037708D01*
X019509Y037710D01*
X019507Y037710D01*
X019504D01*
X019502Y037711D01*
X019502D01*
X019507Y037840D01*
X019523Y037839D01*
X019538Y037837D01*
X019552Y037833D01*
X019566Y037828D01*
X019578Y037824D01*
X019590Y037818D01*
X019600Y037812D01*
X019610Y037807D01*
X019618Y037801D01*
X019626Y037795D01*
X019633Y037790D01*
X019638Y037785D01*
X019642Y037781D01*
X019645Y037778D01*
X019647Y037776D01*
X019648Y037776D01*
X019657Y037764D01*
X019665Y037751D01*
X019673Y037736D01*
X019679Y037722D01*
X019684Y037707D01*
X019688Y037692D01*
X019691Y037676D01*
X019694Y037663D01*
X019697Y037649D01*
X019698Y037635D01*
X019700Y037624D01*
X019700Y037614D01*
X019701Y037606D01*
Y037600D01*
Y037596D01*
Y037595D01*
Y037595D01*
X019700Y037567D01*
X019699Y037556D01*
X019698Y037543D01*
X019695Y037532D01*
X019694Y037522D01*
X019692Y037513D01*
X019690Y037504D01*
X019687Y037495D01*
X019685Y037488D01*
X019684Y037483D01*
X019682Y037477D01*
X019680Y037474D01*
X019679Y037470D01*
X019678Y037469D01*
Y037468D01*
X019669Y037450D01*
X019659Y037434D01*
X019648Y037420D01*
X019638Y037409D01*
X019628Y037400D01*
X019620Y037393D01*
X019618Y037391D01*
X019616Y037390D01*
X019614Y037388D01*
X019614D01*
X019598Y037379D01*
X019582Y037372D01*
X019566Y037368D01*
X019552Y037364D01*
X019540Y037362D01*
X019534Y037361D01*
X019530D01*
X019527Y037361D01*
X019522D01*
X019508Y037361D01*
X019495Y037363D01*
X019482Y037366D01*
X019470Y037370D01*
X019459Y037375D01*
X019448Y037379D01*
X019438Y037385D01*
X019429Y037390D01*
X019421Y037395D01*
X019414Y037401D01*
X019407Y037406D01*
X019403Y037411D01*
X019398Y037414D01*
X019396Y037417D01*
X019394Y037419D01*
X019393Y037420D01*
X019386Y037428D01*
X019380Y037438D01*
X019373Y037449D01*
X019367Y037460D01*
X019357Y037484D01*
X019347Y037508D01*
X019344Y037520D01*
X019340Y037530D01*
X019337Y037540D01*
X019335Y037549D01*
X019332Y037556D01*
X019331Y037561D01*
X019330Y037564D01*
Y037565D01*
X019326Y037580D01*
X019323Y037593D01*
X019320Y037605D01*
X019317Y037615D01*
X019314Y037625D01*
X019312Y037633D01*
X019310Y037641D01*
X019308Y037647D01*
X019307Y037653D01*
X019305Y037657D01*
X019304Y037661D01*
X019303Y037664D01*
X019303Y037666D01*
Y037667D01*
X019302Y037669D01*
X019297Y037681D01*
X019293Y037690D01*
X019288Y037698D01*
X019284Y037705D01*
X019280Y037709D01*
X019277Y037713D01*
X019275Y037715D01*
X019274Y037715D01*
X019268Y037720D01*
X019262Y037724D01*
X019255Y037726D01*
X019248Y037728D01*
X019244Y037728D01*
X019239Y037729D01*
X019229D01*
X019223Y037728D01*
X019211Y037724D01*
X019200Y037719D01*
X019191Y037713D01*
X019184Y037708D01*
X019178Y037702D01*
X019175Y037699D01*
X019174Y037698D01*
Y037697D01*
X019169Y037691D01*
X019165Y037684D01*
X019158Y037669D01*
X019153Y037653D01*
X019151Y037638D01*
X019149Y037624D01*
X019148Y037618D01*
Y037613D01*
X019147Y037608D01*
Y037605D01*
Y037603D01*
Y037602D01*
X019149Y037581D01*
X019152Y037563D01*
X019156Y037547D01*
X019162Y037533D01*
X019165Y037527D01*
X019167Y037522D01*
X019169Y037517D01*
X019171Y037514D01*
X019174Y037511D01*
X019175Y037509D01*
X019176Y037508D01*
Y037508D01*
X019183Y037502D01*
X019189Y037496D01*
X019203Y037486D01*
X019219Y037478D01*
X019235Y037472D01*
X019248Y037468D01*
X019254Y037465D01*
X019260Y037464D01*
X019264Y037463D01*
X019267Y037463D01*
X019269Y037462D01*
X019270D01*
X019258Y037336D01*
X019238Y037339D01*
X019219Y037343D01*
X019203Y037348D01*
X019187Y037354D01*
X019172Y037360D01*
X019158Y037366D01*
X019146Y037373D01*
X019135Y037380D01*
X019126Y037386D01*
X019117Y037393D01*
X019110Y037399D01*
X019104Y037404D01*
X019100Y037408D01*
X019096Y037411D01*
X019094Y037413D01*
X019094Y037414D01*
X019084Y037427D01*
X019076Y037441D01*
X019068Y037456D01*
X019062Y037471D01*
X019056Y037486D01*
X019052Y037502D01*
X019048Y037517D01*
X019045Y037532D01*
X019043Y037546D01*
X019041Y037559D01*
X019040Y037571D01*
X019039Y037581D01*
Y037589D01*
X019038Y037595D01*
Y037599D01*
Y037601D01*
Y037616D01*
X019039Y037631D01*
X019040Y037645D01*
X019042Y037658D01*
X019044Y037670D01*
X019045Y037682D01*
X019047Y037692D01*
X019050Y037702D01*
X019052Y037710D01*
X019054Y037718D01*
X019056Y037725D01*
X019058Y037731D01*
X019059Y037735D01*
X019060Y037738D01*
X019061Y037740D01*
Y037740D01*
X019071Y037760D01*
X019082Y037778D01*
X019094Y037792D01*
X019106Y037805D01*
X019116Y037815D01*
X019121Y037818D01*
X019125Y037821D01*
X019128Y037824D01*
X019131Y037826D01*
X019132Y037827D01*
X019133D01*
X019142Y037833D01*
X019151Y037837D01*
X019169Y037845D01*
X019187Y037851D01*
X019203Y037854D01*
X019210Y037855D01*
X019216Y037857D01*
X019222Y037858D01*
X019227D01*
X019230Y037858D01*
X019236D01*
X019258Y037857D01*
D02*
G37*
G36*
X019691Y037114D02*
X019260D01*
X019691Y036851D01*
Y036726D01*
X019050D01*
Y036845D01*
X019471D01*
X019050Y037105D01*
Y037234D01*
X019691D01*
Y037114D01*
D02*
G37*
G36*
X019344Y037952D02*
X019221D01*
Y038193D01*
X019344D01*
Y037952D01*
D02*
G37*
G36*
X022396Y037666D02*
X022411Y037665D01*
X022425Y037664D01*
X022439Y037662D01*
X022451Y037660D01*
X022463Y037658D01*
X022473Y037657D01*
X022482Y037655D01*
X022491Y037652D01*
X022498Y037650D01*
X022504Y037649D01*
X022509Y037648D01*
X022512Y037646D01*
X022514Y037645D01*
X022515D01*
X022537Y037637D01*
X022557Y037627D01*
X022575Y037617D01*
X022583Y037612D01*
X022590Y037607D01*
X022597Y037602D01*
X022602Y037598D01*
X022607Y037594D01*
X022611Y037591D01*
X022615Y037589D01*
X022617Y037587D01*
X022618Y037585D01*
X022619Y037584D01*
X022634Y037568D01*
X022646Y037552D01*
X022657Y037537D01*
X022664Y037521D01*
X022670Y037508D01*
X022673Y037503D01*
X022675Y037498D01*
X022676Y037494D01*
X022677Y037491D01*
X022678Y037489D01*
Y037488D01*
X022680Y037480D01*
X022682Y037471D01*
X022685Y037451D01*
X022688Y037431D01*
X022689Y037412D01*
X022690Y037403D01*
Y037394D01*
Y037387D01*
X022691Y037380D01*
Y037374D01*
Y037370D01*
Y037367D01*
Y037366D01*
Y037131D01*
X022050D01*
Y037373D01*
Y037387D01*
X022051Y037399D01*
X022051Y037411D01*
X022052Y037421D01*
X022053Y037432D01*
X022054Y037441D01*
X022056Y037450D01*
X022057Y037457D01*
X022058Y037464D01*
X022059Y037471D01*
X022060Y037476D01*
X022061Y037480D01*
X022062Y037484D01*
X022062Y037486D01*
X022063Y037487D01*
Y037488D01*
X022071Y037508D01*
X022079Y037526D01*
X022087Y037541D01*
X022096Y037555D01*
X022099Y037560D01*
X022103Y037565D01*
X022106Y037568D01*
X022109Y037572D01*
X022111Y037575D01*
X022113Y037577D01*
X022114Y037577D01*
X022115Y037578D01*
X022132Y037594D01*
X022151Y037608D01*
X022169Y037620D01*
X022187Y037630D01*
X022196Y037634D01*
X022203Y037637D01*
X022210Y037640D01*
X022216Y037643D01*
X022221Y037644D01*
X022225Y037645D01*
X022227Y037647D01*
X022228D01*
X022250Y037654D01*
X022273Y037659D01*
X022296Y037662D01*
X022317Y037664D01*
X022327Y037666D01*
X022336Y037666D01*
X022344D01*
X022350Y037667D01*
X022380D01*
X022396Y037666D01*
D02*
G37*
G36*
X021396Y037866D02*
X021411Y037865D01*
X021425Y037864D01*
X021439Y037862D01*
X021451Y037860D01*
X021463Y037858D01*
X021473Y037857D01*
X021482Y037855D01*
X021491Y037852D01*
X021498Y037850D01*
X021504Y037849D01*
X021509Y037848D01*
X021512Y037846D01*
X021514Y037845D01*
X021515D01*
X021537Y037837D01*
X021557Y037827D01*
X021575Y037817D01*
X021583Y037812D01*
X021590Y037807D01*
X021597Y037802D01*
X021602Y037798D01*
X021607Y037794D01*
X021611Y037791D01*
X021615Y037789D01*
X021617Y037787D01*
X021618Y037785D01*
X021619Y037784D01*
X021634Y037768D01*
X021646Y037752D01*
X021657Y037737D01*
X021664Y037721D01*
X021670Y037708D01*
X021673Y037703D01*
X021675Y037698D01*
X021676Y037694D01*
X021677Y037691D01*
X021678Y037689D01*
Y037688D01*
X021680Y037680D01*
X021682Y037671D01*
X021685Y037651D01*
X021688Y037631D01*
X021689Y037612D01*
X021690Y037603D01*
Y037594D01*
Y037587D01*
X021691Y037580D01*
Y037574D01*
Y037570D01*
Y037567D01*
Y037566D01*
Y037331D01*
X021050D01*
Y037573D01*
Y037587D01*
X021051Y037599D01*
X021051Y037611D01*
X021052Y037621D01*
X021053Y037632D01*
X021054Y037641D01*
X021056Y037650D01*
X021057Y037657D01*
X021058Y037664D01*
X021059Y037671D01*
X021060Y037676D01*
X021061Y037680D01*
X021062Y037684D01*
X021062Y037686D01*
X021063Y037687D01*
Y037688D01*
X021071Y037708D01*
X021079Y037726D01*
X021087Y037741D01*
X021096Y037755D01*
X021099Y037760D01*
X021103Y037765D01*
X021106Y037768D01*
X021109Y037772D01*
X021111Y037775D01*
X021113Y037777D01*
X021114Y037777D01*
X021115Y037778D01*
X021132Y037794D01*
X021151Y037808D01*
X021169Y037820D01*
X021187Y037830D01*
X021196Y037834D01*
X021203Y037837D01*
X021210Y037840D01*
X021216Y037843D01*
X021221Y037844D01*
X021225Y037845D01*
X021227Y037847D01*
X021228D01*
X021250Y037854D01*
X021273Y037859D01*
X021296Y037862D01*
X021317Y037864D01*
X021327Y037866D01*
X021336Y037866D01*
X021344D01*
X021351Y037867D01*
X021380D01*
X021396Y037866D01*
D02*
G37*
G36*
X019174Y035930D02*
X019188Y035921D01*
X019200Y035913D01*
X019212Y035905D01*
X019222Y035898D01*
X019232Y035892D01*
X019240Y035886D01*
X019248Y035880D01*
X019255Y035875D01*
X019260Y035871D01*
X019265Y035867D01*
X019269Y035864D01*
X019273Y035861D01*
X019275Y035859D01*
X019277Y035857D01*
X019278Y035856D01*
X019289Y035846D01*
X019299Y035834D01*
X019308Y035822D01*
X019316Y035811D01*
X019323Y035801D01*
X019328Y035794D01*
X019330Y035791D01*
X019330Y035789D01*
X019332Y035787D01*
Y035787D01*
X019335Y035802D01*
X019338Y035817D01*
X019342Y035830D01*
X019346Y035842D01*
X019351Y035854D01*
X019356Y035864D01*
X019361Y035873D01*
X019366Y035882D01*
X019371Y035889D01*
X019376Y035896D01*
X019380Y035901D01*
X019384Y035906D01*
X019387Y035910D01*
X019389Y035912D01*
X019391Y035913D01*
X019391Y035914D01*
X019400Y035921D01*
X019410Y035928D01*
X019420Y035933D01*
X019430Y035938D01*
X019440Y035942D01*
X019450Y035946D01*
X019469Y035950D01*
X019477Y035953D01*
X019486Y035954D01*
X019493Y035955D01*
X019499Y035955D01*
X019504Y035956D01*
X019511D01*
X019532Y035955D01*
X019550Y035952D01*
X019568Y035947D01*
X019582Y035942D01*
X019589Y035939D01*
X019595Y035937D01*
X019600Y035934D01*
X019604Y035932D01*
X019607Y035930D01*
X019609Y035929D01*
X019611Y035928D01*
X019611D01*
X019627Y035916D01*
X019640Y035904D01*
X019650Y035892D01*
X019659Y035880D01*
X019666Y035869D01*
X019668Y035865D01*
X019670Y035861D01*
X019671Y035857D01*
X019673Y035855D01*
X019673Y035854D01*
Y035853D01*
X019676Y035844D01*
X019679Y035834D01*
X019682Y035822D01*
X019683Y035810D01*
X019686Y035786D01*
X019688Y035761D01*
X019689Y035750D01*
X019690Y035739D01*
Y035729D01*
X019691Y035721D01*
Y035714D01*
Y035709D01*
Y035705D01*
Y035704D01*
Y035432D01*
X019050D01*
Y035561D01*
X019317D01*
Y035587D01*
Y035603D01*
X019316Y035616D01*
X019315Y035627D01*
X019314Y035636D01*
X019312Y035643D01*
X019311Y035648D01*
X019310Y035651D01*
X019310Y035652D01*
X019307Y035660D01*
X019303Y035667D01*
X019298Y035674D01*
X019294Y035679D01*
X019289Y035684D01*
X019287Y035688D01*
X019284Y035690D01*
X019283Y035691D01*
X019279Y035695D01*
X019273Y035699D01*
X019267Y035704D01*
X019260Y035710D01*
X019245Y035721D01*
X019229Y035733D01*
X019214Y035743D01*
X019208Y035748D01*
X019201Y035751D01*
X019196Y035755D01*
X019193Y035758D01*
X019190Y035759D01*
X019189Y035760D01*
X019050Y035853D01*
Y036008D01*
X019174Y035930D01*
D02*
G37*
G36*
X021158Y036863D02*
X021332D01*
Y037184D01*
X021441D01*
Y036863D01*
X021582D01*
Y037208D01*
X021691D01*
Y036734D01*
X021050D01*
Y037221D01*
X021158D01*
Y036863D01*
D02*
G37*
G36*
X019691Y036399D02*
Y036262D01*
X019050Y036013D01*
Y036150D01*
X019196Y036203D01*
Y036459D01*
X019050Y036515D01*
Y036656D01*
X019691Y036399D01*
D02*
G37*
%LPC*%
G36*
X016508Y035624D02*
X016502D01*
X016492Y035624D01*
X016482Y035622D01*
X016474Y035620D01*
X016467Y035618D01*
X016462Y035615D01*
X016457Y035613D01*
X016455Y035612D01*
X016454Y035611D01*
X016447Y035606D01*
X016441Y035600D01*
X016437Y035594D01*
X016433Y035588D01*
X016430Y035583D01*
X016428Y035579D01*
X016428Y035576D01*
X016427Y035574D01*
X016425Y035570D01*
X016424Y035563D01*
X016423Y035555D01*
X016423Y035547D01*
X016421Y035528D01*
X016420Y035508D01*
Y035498D01*
Y035489D01*
X016419Y035481D01*
Y035473D01*
Y035468D01*
Y035463D01*
Y035460D01*
Y035459D01*
Y035363D01*
X016582D01*
Y035463D01*
Y035477D01*
Y035490D01*
Y035502D01*
X016582Y035511D01*
Y035520D01*
Y035528D01*
X016581Y035535D01*
Y035540D01*
Y035545D01*
X016580Y035549D01*
Y035552D01*
Y035554D01*
X016580Y035557D01*
Y035558D01*
X016577Y035569D01*
X016573Y035579D01*
X016570Y035588D01*
X016565Y035595D01*
X016561Y035600D01*
X016558Y035604D01*
X016555Y035606D01*
X016555Y035607D01*
X016546Y035613D01*
X016538Y035617D01*
X016530Y035620D01*
X016521Y035622D01*
X016514Y035624D01*
X016508Y035624D01*
D02*
G37*
G36*
X016304Y036220D02*
Y036044D01*
X016541Y036131D01*
X016304Y036220D01*
D02*
G37*
G36*
X016497Y034200D02*
X016491D01*
X016481Y034199D01*
X016471Y034198D01*
X016463Y034195D01*
X016456Y034192D01*
X016450Y034189D01*
X016446Y034186D01*
X016442Y034185D01*
X016441Y034184D01*
X016434Y034179D01*
X016428Y034172D01*
X016422Y034165D01*
X016417Y034159D01*
X016414Y034153D01*
X016412Y034148D01*
X016410Y034146D01*
X016409Y034144D01*
X016408Y034139D01*
X016406Y034132D01*
X016405Y034125D01*
X016404Y034117D01*
X016402Y034100D01*
X016401Y034084D01*
X016400Y034068D01*
X016400Y034061D01*
Y034055D01*
Y034049D01*
Y034046D01*
Y034043D01*
Y034042D01*
Y033971D01*
X016582D01*
Y034034D01*
Y034046D01*
Y034058D01*
X016582Y034068D01*
Y034077D01*
X016581Y034086D01*
Y034093D01*
X016580Y034100D01*
Y034107D01*
X016580Y034111D01*
X016579Y034116D01*
Y034119D01*
X016578Y034122D01*
X016577Y034125D01*
Y034127D01*
X016575Y034138D01*
X016571Y034148D01*
X016566Y034157D01*
X016561Y034164D01*
X016557Y034170D01*
X016552Y034175D01*
X016550Y034178D01*
X016549Y034179D01*
X016540Y034186D01*
X016530Y034191D01*
X016521Y034195D01*
X016512Y034197D01*
X016504Y034198D01*
X016497Y034200D01*
D02*
G37*
G36*
X016508Y033587D02*
X016502D01*
X016492Y033586D01*
X016482Y033585D01*
X016474Y033583D01*
X016467Y033581D01*
X016462Y033578D01*
X016457Y033576D01*
X016455Y033574D01*
X016454Y033574D01*
X016447Y033568D01*
X016441Y033563D01*
X016437Y033556D01*
X016433Y033550D01*
X016430Y033545D01*
X016428Y033541D01*
X016428Y033538D01*
X016427Y033537D01*
X016425Y033532D01*
X016424Y033525D01*
X016423Y033517D01*
X016423Y033509D01*
X016421Y033490D01*
X016420Y033470D01*
Y033461D01*
Y033452D01*
X016419Y033443D01*
Y033436D01*
Y033430D01*
Y033425D01*
Y033422D01*
Y033421D01*
Y033325D01*
X016582D01*
Y033426D01*
Y033440D01*
Y033453D01*
Y033464D01*
X016582Y033474D01*
Y033483D01*
Y033490D01*
X016581Y033497D01*
Y033503D01*
Y033508D01*
X016580Y033511D01*
Y033514D01*
Y033517D01*
X016580Y033520D01*
Y033520D01*
X016577Y033531D01*
X016573Y033542D01*
X016570Y033550D01*
X016565Y033557D01*
X016561Y033563D01*
X016558Y033566D01*
X016555Y033569D01*
X016555Y033569D01*
X016546Y033575D01*
X016538Y033579D01*
X016530Y033583D01*
X016521Y033585D01*
X016514Y033586D01*
X016508Y033587D01*
D02*
G37*
G36*
X016382Y032953D02*
X016357D01*
X016344Y032953D01*
X016332Y032952D01*
X016320Y032951D01*
X016310Y032950D01*
X016301Y032949D01*
X016292Y032948D01*
X016283Y032947D01*
X016276Y032946D01*
X016270Y032944D01*
X016265Y032943D01*
X016260Y032942D01*
X016257Y032941D01*
X016255Y032941D01*
X016253Y032940D01*
X016253D01*
X016237Y032934D01*
X016225Y032929D01*
X016214Y032923D01*
X016205Y032918D01*
X016199Y032914D01*
X016194Y032909D01*
X016192Y032907D01*
X016191Y032906D01*
X016185Y032898D01*
X016179Y032889D01*
X016174Y032880D01*
X016170Y032872D01*
X016167Y032865D01*
X016165Y032860D01*
X016165Y032855D01*
X016164Y032855D01*
Y032854D01*
X016163Y032849D01*
X016162Y032844D01*
X016160Y032832D01*
X016160Y032819D01*
X016159Y032805D01*
X016158Y032794D01*
Y032789D01*
Y032785D01*
Y032780D01*
Y032778D01*
Y032776D01*
Y032776D01*
Y032679D01*
X016582D01*
Y032737D01*
Y032751D01*
Y032764D01*
X016582Y032776D01*
Y032787D01*
X016581Y032796D01*
X016580Y032805D01*
X016580Y032813D01*
Y032819D01*
X016579Y032826D01*
X016578Y032830D01*
X016577Y032835D01*
X016577Y032837D01*
Y032840D01*
X016576Y032841D01*
Y032843D01*
X016573Y032856D01*
X016568Y032868D01*
X016563Y032878D01*
X016558Y032887D01*
X016553Y032894D01*
X016549Y032899D01*
X016546Y032902D01*
X016546Y032903D01*
X016536Y032912D01*
X016527Y032919D01*
X016516Y032925D01*
X016507Y032930D01*
X016498Y032934D01*
X016490Y032938D01*
X016488Y032939D01*
X016486Y032939D01*
X016484Y032940D01*
X016484D01*
X016476Y032942D01*
X016468Y032944D01*
X016449Y032948D01*
X016430Y032950D01*
X016412Y032952D01*
X016403D01*
X016396Y032953D01*
X016389D01*
X016382Y032953D01*
D02*
G37*
G36*
X018508Y035677D02*
X018502D01*
X018492Y035676D01*
X018482Y035674D01*
X018474Y035672D01*
X018467Y035670D01*
X018462Y035668D01*
X018457Y035665D01*
X018455Y035664D01*
X018454Y035663D01*
X018447Y035658D01*
X018441Y035652D01*
X018437Y035646D01*
X018433Y035640D01*
X018430Y035635D01*
X018428Y035631D01*
X018428Y035628D01*
X018427Y035627D01*
X018425Y035622D01*
X018424Y035615D01*
X018423Y035607D01*
X018423Y035599D01*
X018421Y035580D01*
X018420Y035560D01*
Y035550D01*
Y035541D01*
X018419Y035533D01*
Y035525D01*
Y035520D01*
Y035515D01*
Y035512D01*
Y035511D01*
Y035415D01*
X018582D01*
Y035516D01*
Y035529D01*
Y035543D01*
Y035554D01*
X018582Y035563D01*
Y035572D01*
Y035580D01*
X018581Y035587D01*
Y035593D01*
Y035597D01*
X018580Y035601D01*
Y035604D01*
Y035606D01*
X018580Y035609D01*
Y035610D01*
X018577Y035621D01*
X018573Y035631D01*
X018570Y035640D01*
X018565Y035647D01*
X018561Y035652D01*
X018558Y035656D01*
X018555Y035659D01*
X018555Y035659D01*
X018546Y035665D01*
X018538Y035669D01*
X018530Y035672D01*
X018521Y035674D01*
X018514Y035676D01*
X018508Y035677D01*
D02*
G37*
G36*
X017508Y035877D02*
X017502D01*
X017492Y035876D01*
X017482Y035874D01*
X017474Y035872D01*
X017467Y035870D01*
X017462Y035868D01*
X017457Y035865D01*
X017455Y035864D01*
X017454Y035863D01*
X017447Y035858D01*
X017441Y035852D01*
X017437Y035846D01*
X017433Y035840D01*
X017430Y035835D01*
X017428Y035831D01*
X017428Y035828D01*
X017427Y035827D01*
X017425Y035822D01*
X017424Y035815D01*
X017423Y035807D01*
X017423Y035799D01*
X017421Y035780D01*
X017420Y035760D01*
Y035750D01*
Y035741D01*
X017419Y035733D01*
Y035725D01*
Y035720D01*
Y035715D01*
Y035712D01*
Y035711D01*
Y035615D01*
X017582D01*
Y035716D01*
Y035729D01*
Y035743D01*
Y035754D01*
X017582Y035763D01*
Y035772D01*
Y035780D01*
X017581Y035787D01*
Y035793D01*
Y035797D01*
X017580Y035801D01*
Y035804D01*
Y035806D01*
X017580Y035809D01*
Y035810D01*
X017577Y035821D01*
X017573Y035831D01*
X017570Y035840D01*
X017565Y035847D01*
X017561Y035852D01*
X017558Y035856D01*
X017555Y035859D01*
X017555Y035859D01*
X017546Y035865D01*
X017538Y035869D01*
X017530Y035872D01*
X017521Y035874D01*
X017514Y035876D01*
X017508Y035877D01*
D02*
G37*
G36*
X014382Y033553D02*
X014357D01*
X014344Y033553D01*
X014332Y033552D01*
X014320Y033551D01*
X014310Y033550D01*
X014301Y033549D01*
X014292Y033548D01*
X014283Y033547D01*
X014276Y033546D01*
X014270Y033544D01*
X014265Y033543D01*
X014260Y033542D01*
X014257Y033541D01*
X014255Y033541D01*
X014253Y033540D01*
X014253D01*
X014237Y033534D01*
X014225Y033529D01*
X014214Y033523D01*
X014205Y033518D01*
X014199Y033514D01*
X014194Y033509D01*
X014192Y033507D01*
X014191Y033506D01*
X014185Y033498D01*
X014179Y033489D01*
X014174Y033480D01*
X014170Y033472D01*
X014167Y033465D01*
X014165Y033460D01*
X014165Y033455D01*
X014164Y033455D01*
Y033454D01*
X014163Y033449D01*
X014162Y033444D01*
X014160Y033432D01*
X014160Y033419D01*
X014159Y033405D01*
X014158Y033394D01*
Y033389D01*
Y033385D01*
Y033380D01*
Y033378D01*
Y033376D01*
Y033376D01*
Y033279D01*
X014582D01*
Y033337D01*
Y033351D01*
Y033364D01*
X014582Y033376D01*
Y033387D01*
X014581Y033396D01*
X014580Y033405D01*
X014580Y033413D01*
Y033419D01*
X014579Y033426D01*
X014578Y033430D01*
X014577Y033435D01*
X014577Y033437D01*
Y033440D01*
X014576Y033441D01*
Y033443D01*
X014573Y033456D01*
X014568Y033468D01*
X014563Y033478D01*
X014558Y033487D01*
X014553Y033494D01*
X014549Y033499D01*
X014546Y033502D01*
X014546Y033503D01*
X014536Y033512D01*
X014527Y033519D01*
X014516Y033525D01*
X014507Y033530D01*
X014498Y033534D01*
X014490Y033538D01*
X014488Y033539D01*
X014486Y033539D01*
X014484Y033540D01*
X014484D01*
X014476Y033542D01*
X014468Y033544D01*
X014449Y033548D01*
X014430Y033550D01*
X014412Y033552D01*
X014403D01*
X014396Y033553D01*
X014389D01*
X014382Y033553D01*
D02*
G37*
G36*
X014497Y034800D02*
X014491D01*
X014481Y034799D01*
X014471Y034798D01*
X014463Y034795D01*
X014456Y034792D01*
X014450Y034789D01*
X014446Y034786D01*
X014442Y034785D01*
X014441Y034784D01*
X014434Y034779D01*
X014428Y034772D01*
X014422Y034765D01*
X014417Y034759D01*
X014414Y034753D01*
X014412Y034748D01*
X014410Y034746D01*
X014409Y034744D01*
X014408Y034739D01*
X014406Y034732D01*
X014405Y034725D01*
X014404Y034717D01*
X014402Y034700D01*
X014401Y034684D01*
X014400Y034668D01*
X014400Y034661D01*
Y034655D01*
Y034649D01*
Y034646D01*
Y034643D01*
Y034642D01*
Y034571D01*
X014582D01*
Y034634D01*
Y034646D01*
Y034658D01*
X014582Y034668D01*
Y034677D01*
X014581Y034686D01*
Y034693D01*
X014580Y034700D01*
Y034707D01*
X014580Y034711D01*
X014579Y034716D01*
Y034719D01*
X014578Y034722D01*
X014577Y034725D01*
Y034727D01*
X014575Y034738D01*
X014570Y034748D01*
X014566Y034757D01*
X014561Y034764D01*
X014557Y034770D01*
X014552Y034775D01*
X014550Y034778D01*
X014549Y034779D01*
X014540Y034786D01*
X014530Y034791D01*
X014521Y034795D01*
X014512Y034797D01*
X014504Y034798D01*
X014497Y034800D01*
D02*
G37*
G36*
X014508Y034187D02*
X014502D01*
X014492Y034186D01*
X014482Y034185D01*
X014474Y034183D01*
X014467Y034181D01*
X014462Y034178D01*
X014457Y034176D01*
X014455Y034174D01*
X014454Y034174D01*
X014447Y034168D01*
X014441Y034163D01*
X014437Y034156D01*
X014433Y034150D01*
X014430Y034145D01*
X014428Y034141D01*
X014428Y034138D01*
X014427Y034137D01*
X014425Y034132D01*
X014424Y034125D01*
X014423Y034117D01*
X014423Y034109D01*
X014421Y034090D01*
X014420Y034070D01*
Y034061D01*
Y034052D01*
X014419Y034043D01*
Y034036D01*
Y034030D01*
Y034025D01*
Y034022D01*
Y034021D01*
Y033925D01*
X014582D01*
Y034026D01*
Y034040D01*
Y034053D01*
Y034064D01*
X014582Y034074D01*
Y034083D01*
Y034090D01*
X014581Y034097D01*
Y034103D01*
Y034108D01*
X014580Y034111D01*
Y034114D01*
Y034117D01*
X014580Y034120D01*
Y034120D01*
X014577Y034131D01*
X014573Y034142D01*
X014570Y034150D01*
X014565Y034157D01*
X014561Y034163D01*
X014558Y034166D01*
X014555Y034169D01*
X014555Y034169D01*
X014546Y034175D01*
X014538Y034179D01*
X014530Y034183D01*
X014521Y034185D01*
X014514Y034186D01*
X014508Y034187D01*
D02*
G37*
G36*
X013508Y034387D02*
X013502D01*
X013492Y034386D01*
X013482Y034385D01*
X013474Y034383D01*
X013467Y034381D01*
X013462Y034378D01*
X013457Y034376D01*
X013455Y034374D01*
X013454Y034374D01*
X013447Y034368D01*
X013441Y034363D01*
X013437Y034356D01*
X013433Y034350D01*
X013430Y034345D01*
X013428Y034341D01*
X013428Y034338D01*
X013427Y034337D01*
X013425Y034332D01*
X013424Y034325D01*
X013423Y034317D01*
X013423Y034309D01*
X013421Y034290D01*
X013420Y034270D01*
Y034261D01*
Y034252D01*
X013419Y034243D01*
Y034236D01*
Y034230D01*
Y034225D01*
Y034222D01*
Y034221D01*
Y034125D01*
X013582D01*
Y034226D01*
Y034240D01*
Y034253D01*
Y034264D01*
X013582Y034274D01*
Y034283D01*
Y034290D01*
X013581Y034297D01*
Y034303D01*
Y034308D01*
X013580Y034311D01*
Y034314D01*
Y034317D01*
X013580Y034320D01*
Y034320D01*
X013577Y034331D01*
X013573Y034342D01*
X013570Y034350D01*
X013565Y034357D01*
X013561Y034363D01*
X013558Y034366D01*
X013555Y034369D01*
X013555Y034369D01*
X013546Y034375D01*
X013538Y034379D01*
X013530Y034383D01*
X013521Y034385D01*
X013514Y034386D01*
X013508Y034387D01*
D02*
G37*
G36*
X013382Y033753D02*
X013357D01*
X013344Y033753D01*
X013332Y033752D01*
X013320Y033751D01*
X013310Y033750D01*
X013301Y033749D01*
X013292Y033748D01*
X013283Y033747D01*
X013276Y033746D01*
X013270Y033744D01*
X013265Y033743D01*
X013260Y033742D01*
X013257Y033741D01*
X013255Y033741D01*
X013253Y033740D01*
X013253D01*
X013237Y033734D01*
X013225Y033729D01*
X013214Y033723D01*
X013205Y033718D01*
X013199Y033714D01*
X013194Y033709D01*
X013192Y033707D01*
X013191Y033706D01*
X013185Y033698D01*
X013179Y033689D01*
X013174Y033680D01*
X013170Y033672D01*
X013167Y033665D01*
X013165Y033660D01*
X013165Y033655D01*
X013164Y033655D01*
Y033654D01*
X013163Y033649D01*
X013162Y033644D01*
X013160Y033632D01*
X013160Y033619D01*
X013159Y033605D01*
X013158Y033594D01*
Y033589D01*
Y033585D01*
Y033580D01*
Y033578D01*
Y033576D01*
Y033576D01*
Y033479D01*
X013582D01*
Y033537D01*
Y033551D01*
Y033564D01*
X013582Y033576D01*
Y033587D01*
X013581Y033596D01*
X013580Y033605D01*
X013580Y033613D01*
Y033619D01*
X013579Y033626D01*
X013578Y033630D01*
X013577Y033635D01*
X013577Y033637D01*
Y033640D01*
X013576Y033641D01*
Y033643D01*
X013573Y033656D01*
X013568Y033668D01*
X013563Y033678D01*
X013558Y033687D01*
X013553Y033694D01*
X013549Y033699D01*
X013546Y033702D01*
X013546Y033703D01*
X013536Y033712D01*
X013527Y033719D01*
X013516Y033725D01*
X013507Y033730D01*
X013498Y033734D01*
X013490Y033738D01*
X013488Y033739D01*
X013486Y033739D01*
X013484Y033740D01*
X013484D01*
X013476Y033742D01*
X013468Y033744D01*
X013449Y033748D01*
X013430Y033750D01*
X013412Y033752D01*
X013403D01*
X013396Y033753D01*
X013389D01*
X013382Y033753D01*
D02*
G37*
G36*
X013497Y035000D02*
X013491D01*
X013481Y034999D01*
X013471Y034998D01*
X013463Y034995D01*
X013456Y034992D01*
X013450Y034989D01*
X013446Y034986D01*
X013442Y034985D01*
X013441Y034984D01*
X013434Y034979D01*
X013428Y034972D01*
X013422Y034965D01*
X013417Y034959D01*
X013414Y034953D01*
X013412Y034948D01*
X013410Y034946D01*
X013409Y034944D01*
X013408Y034939D01*
X013406Y034932D01*
X013405Y034925D01*
X013404Y034917D01*
X013402Y034900D01*
X013401Y034884D01*
X013400Y034868D01*
X013400Y034861D01*
Y034855D01*
Y034849D01*
Y034846D01*
Y034843D01*
Y034842D01*
Y034771D01*
X013582D01*
Y034834D01*
Y034846D01*
Y034858D01*
X013582Y034868D01*
Y034877D01*
X013581Y034886D01*
Y034893D01*
X013580Y034900D01*
Y034907D01*
X013580Y034911D01*
X013579Y034916D01*
Y034919D01*
X013578Y034922D01*
X013577Y034925D01*
Y034927D01*
X013575Y034938D01*
X013570Y034948D01*
X013566Y034957D01*
X013561Y034964D01*
X013557Y034970D01*
X013552Y034975D01*
X013550Y034978D01*
X013549Y034979D01*
X013540Y034986D01*
X013530Y034991D01*
X013521Y034995D01*
X013512Y034997D01*
X013504Y034998D01*
X013497Y035000D01*
D02*
G37*
G36*
X013508Y035878D02*
X013502D01*
X013492Y035878D01*
X013482Y035876D01*
X013474Y035874D01*
X013467Y035872D01*
X013462Y035869D01*
X013457Y035867D01*
X013455Y035866D01*
X013454Y035865D01*
X013447Y035859D01*
X013441Y035854D01*
X013437Y035848D01*
X013433Y035841D01*
X013430Y035837D01*
X013428Y035832D01*
X013428Y035830D01*
X013427Y035828D01*
X013425Y035823D01*
X013424Y035816D01*
X013423Y035809D01*
X013423Y035801D01*
X013421Y035782D01*
X013420Y035762D01*
Y035752D01*
Y035743D01*
X013419Y035735D01*
Y035727D01*
Y035721D01*
Y035717D01*
Y035714D01*
Y035712D01*
Y035617D01*
X013582D01*
Y035717D01*
Y035731D01*
Y035744D01*
Y035755D01*
X013582Y035765D01*
Y035774D01*
Y035782D01*
X013581Y035789D01*
Y035794D01*
Y035799D01*
X013580Y035803D01*
Y035805D01*
Y035808D01*
X013580Y035811D01*
Y035812D01*
X013577Y035823D01*
X013573Y035833D01*
X013570Y035841D01*
X013565Y035848D01*
X013561Y035854D01*
X013558Y035857D01*
X013555Y035860D01*
X013555Y035861D01*
X013546Y035866D01*
X013538Y035871D01*
X013530Y035874D01*
X013521Y035876D01*
X013514Y035878D01*
X013508Y035878D01*
D02*
G37*
G36*
X015497Y034400D02*
X015491D01*
X015481Y034399D01*
X015471Y034398D01*
X015463Y034395D01*
X015456Y034392D01*
X015450Y034389D01*
X015446Y034386D01*
X015442Y034385D01*
X015441Y034384D01*
X015434Y034379D01*
X015428Y034372D01*
X015422Y034365D01*
X015417Y034359D01*
X015414Y034353D01*
X015412Y034348D01*
X015410Y034346D01*
X015409Y034344D01*
X015408Y034339D01*
X015406Y034332D01*
X015405Y034325D01*
X015404Y034317D01*
X015402Y034300D01*
X015401Y034284D01*
X015400Y034268D01*
X015400Y034261D01*
Y034255D01*
Y034249D01*
Y034246D01*
Y034243D01*
Y034242D01*
Y034171D01*
X015582D01*
Y034234D01*
Y034246D01*
Y034258D01*
X015582Y034268D01*
Y034277D01*
X015581Y034286D01*
Y034293D01*
X015580Y034300D01*
Y034307D01*
X015580Y034311D01*
X015579Y034316D01*
Y034319D01*
X015578Y034322D01*
X015577Y034325D01*
Y034327D01*
X015575Y034338D01*
X015570Y034348D01*
X015566Y034357D01*
X015561Y034364D01*
X015557Y034370D01*
X015552Y034375D01*
X015550Y034378D01*
X015549Y034379D01*
X015540Y034386D01*
X015530Y034391D01*
X015521Y034395D01*
X015512Y034397D01*
X015504Y034398D01*
X015497Y034400D01*
D02*
G37*
G36*
X015508Y033787D02*
X015502D01*
X015492Y033786D01*
X015482Y033785D01*
X015474Y033783D01*
X015467Y033781D01*
X015462Y033778D01*
X015457Y033776D01*
X015455Y033774D01*
X015454Y033774D01*
X015447Y033768D01*
X015441Y033763D01*
X015437Y033756D01*
X015433Y033750D01*
X015430Y033745D01*
X015428Y033741D01*
X015428Y033738D01*
X015427Y033737D01*
X015425Y033732D01*
X015424Y033725D01*
X015423Y033717D01*
X015423Y033709D01*
X015421Y033690D01*
X015420Y033670D01*
Y033661D01*
Y033652D01*
X015419Y033643D01*
Y033636D01*
Y033630D01*
Y033625D01*
Y033622D01*
Y033621D01*
Y033525D01*
X015582D01*
Y033626D01*
Y033640D01*
Y033653D01*
Y033664D01*
X015582Y033674D01*
Y033683D01*
Y033690D01*
X015581Y033697D01*
Y033703D01*
Y033708D01*
X015580Y033711D01*
Y033714D01*
Y033717D01*
X015580Y033720D01*
Y033720D01*
X015577Y033731D01*
X015573Y033742D01*
X015570Y033750D01*
X015565Y033757D01*
X015561Y033763D01*
X015558Y033766D01*
X015555Y033769D01*
X015555Y033769D01*
X015546Y033775D01*
X015538Y033779D01*
X015530Y033783D01*
X015521Y033785D01*
X015514Y033786D01*
X015508Y033787D01*
D02*
G37*
G36*
X015304Y036420D02*
Y036244D01*
X015541Y036331D01*
X015304Y036420D01*
D02*
G37*
G36*
X015508Y035824D02*
X015502D01*
X015492Y035824D01*
X015482Y035822D01*
X015474Y035820D01*
X015467Y035818D01*
X015462Y035815D01*
X015457Y035813D01*
X015455Y035812D01*
X015454Y035811D01*
X015447Y035806D01*
X015441Y035800D01*
X015437Y035794D01*
X015433Y035788D01*
X015430Y035783D01*
X015428Y035779D01*
X015428Y035776D01*
X015427Y035774D01*
X015425Y035770D01*
X015424Y035763D01*
X015423Y035755D01*
X015423Y035747D01*
X015421Y035728D01*
X015420Y035708D01*
Y035698D01*
Y035689D01*
X015419Y035681D01*
Y035673D01*
Y035668D01*
Y035663D01*
Y035660D01*
Y035659D01*
Y035563D01*
X015582D01*
Y035663D01*
Y035677D01*
Y035690D01*
Y035702D01*
X015582Y035711D01*
Y035720D01*
Y035728D01*
X015581Y035735D01*
Y035740D01*
Y035745D01*
X015580Y035749D01*
Y035752D01*
Y035754D01*
X015580Y035757D01*
Y035758D01*
X015577Y035769D01*
X015573Y035779D01*
X015570Y035788D01*
X015565Y035795D01*
X015561Y035800D01*
X015558Y035804D01*
X015555Y035806D01*
X015555Y035807D01*
X015546Y035813D01*
X015538Y035817D01*
X015530Y035820D01*
X015521Y035822D01*
X015514Y035824D01*
X015508Y035824D01*
D02*
G37*
G36*
X015382Y033153D02*
X015357D01*
X015344Y033153D01*
X015332Y033152D01*
X015320Y033151D01*
X015310Y033150D01*
X015301Y033149D01*
X015292Y033148D01*
X015283Y033147D01*
X015276Y033146D01*
X015270Y033144D01*
X015265Y033143D01*
X015260Y033142D01*
X015257Y033141D01*
X015255Y033141D01*
X015253Y033140D01*
X015253D01*
X015237Y033134D01*
X015225Y033129D01*
X015214Y033123D01*
X015205Y033118D01*
X015199Y033114D01*
X015194Y033109D01*
X015192Y033107D01*
X015191Y033106D01*
X015185Y033098D01*
X015179Y033089D01*
X015174Y033080D01*
X015170Y033072D01*
X015167Y033065D01*
X015165Y033060D01*
X015165Y033055D01*
X015164Y033055D01*
Y033054D01*
X015163Y033049D01*
X015162Y033044D01*
X015160Y033032D01*
X015160Y033019D01*
X015159Y033005D01*
X015158Y032994D01*
Y032989D01*
Y032985D01*
Y032980D01*
Y032978D01*
Y032976D01*
Y032976D01*
Y032879D01*
X015582D01*
Y032937D01*
Y032951D01*
Y032964D01*
X015582Y032976D01*
Y032987D01*
X015581Y032996D01*
X015580Y033005D01*
X015580Y033013D01*
Y033019D01*
X015579Y033026D01*
X015578Y033030D01*
X015577Y033035D01*
X015577Y033037D01*
Y033040D01*
X015576Y033041D01*
Y033043D01*
X015573Y033056D01*
X015568Y033068D01*
X015563Y033078D01*
X015558Y033087D01*
X015553Y033094D01*
X015549Y033099D01*
X015546Y033102D01*
X015546Y033103D01*
X015536Y033112D01*
X015527Y033119D01*
X015516Y033125D01*
X015507Y033130D01*
X015498Y033134D01*
X015490Y033138D01*
X015488Y033139D01*
X015486Y033139D01*
X015484Y033140D01*
X015484D01*
X015476Y033142D01*
X015468Y033144D01*
X015449Y033148D01*
X015430Y033150D01*
X015412Y033152D01*
X015403D01*
X015396Y033153D01*
X015389D01*
X015382Y033153D01*
D02*
G37*
G36*
X014508Y035678D02*
X014502D01*
X014492Y035678D01*
X014482Y035676D01*
X014474Y035674D01*
X014467Y035672D01*
X014462Y035669D01*
X014457Y035667D01*
X014455Y035666D01*
X014454Y035665D01*
X014447Y035659D01*
X014441Y035654D01*
X014437Y035648D01*
X014433Y035641D01*
X014430Y035637D01*
X014428Y035632D01*
X014428Y035630D01*
X014427Y035628D01*
X014425Y035623D01*
X014424Y035616D01*
X014423Y035609D01*
X014423Y035601D01*
X014421Y035582D01*
X014420Y035562D01*
Y035552D01*
Y035543D01*
X014419Y035535D01*
Y035527D01*
Y035521D01*
Y035517D01*
Y035514D01*
Y035512D01*
Y035417D01*
X014582D01*
Y035517D01*
Y035531D01*
Y035544D01*
Y035555D01*
X014582Y035565D01*
Y035574D01*
Y035582D01*
X014581Y035589D01*
Y035594D01*
Y035599D01*
X014580Y035603D01*
Y035605D01*
Y035608D01*
X014580Y035611D01*
Y035612D01*
X014577Y035623D01*
X014573Y035633D01*
X014570Y035641D01*
X014565Y035648D01*
X014561Y035654D01*
X014558Y035657D01*
X014555Y035660D01*
X014555Y035661D01*
X014546Y035666D01*
X014538Y035671D01*
X014530Y035674D01*
X014521Y035676D01*
X014514Y035678D01*
X014508Y035678D01*
D02*
G37*
G36*
X020508Y035623D02*
X020502D01*
X020492Y035622D01*
X020482Y035621D01*
X020474Y035619D01*
X020467Y035617D01*
X020462Y035614D01*
X020457Y035612D01*
X020455Y035610D01*
X020454Y035610D01*
X020447Y035604D01*
X020441Y035598D01*
X020437Y035592D01*
X020433Y035586D01*
X020430Y035581D01*
X020428Y035577D01*
X020428Y035574D01*
X020427Y035573D01*
X020425Y035568D01*
X020424Y035561D01*
X020423Y035553D01*
X020423Y035545D01*
X020421Y035526D01*
X020420Y035506D01*
Y035496D01*
Y035487D01*
X020419Y035479D01*
Y035471D01*
Y035466D01*
Y035461D01*
Y035458D01*
Y035457D01*
Y035361D01*
X020582D01*
Y035462D01*
Y035476D01*
Y035489D01*
Y035500D01*
X020582Y035510D01*
Y035519D01*
Y035526D01*
X020581Y035533D01*
Y035539D01*
Y035544D01*
X020580Y035547D01*
Y035550D01*
Y035553D01*
X020580Y035555D01*
Y035556D01*
X020577Y035567D01*
X020573Y035578D01*
X020570Y035586D01*
X020565Y035593D01*
X020561Y035598D01*
X020558Y035602D01*
X020555Y035605D01*
X020555Y035605D01*
X020546Y035611D01*
X020538Y035615D01*
X020530Y035619D01*
X020521Y035621D01*
X020514Y035622D01*
X020508Y035623D01*
D02*
G37*
G36*
X020304Y036218D02*
Y036043D01*
X020541Y036129D01*
X020304Y036218D01*
D02*
G37*
G36*
X021497Y034407D02*
X021491D01*
X021481Y034407D01*
X021471Y034405D01*
X021463Y034403D01*
X021456Y034400D01*
X021450Y034397D01*
X021446Y034394D01*
X021442Y034393D01*
X021441Y034392D01*
X021434Y034387D01*
X021428Y034380D01*
X021422Y034373D01*
X021417Y034366D01*
X021414Y034361D01*
X021412Y034356D01*
X021410Y034353D01*
X021409Y034352D01*
X021408Y034346D01*
X021406Y034340D01*
X021405Y034333D01*
X021404Y034325D01*
X021402Y034308D01*
X021401Y034292D01*
X021400Y034276D01*
X021400Y034269D01*
Y034262D01*
Y034257D01*
Y034253D01*
Y034251D01*
Y034250D01*
Y034179D01*
X021582D01*
Y034242D01*
Y034254D01*
Y034266D01*
X021582Y034276D01*
Y034285D01*
X021581Y034294D01*
Y034301D01*
X021580Y034308D01*
Y034314D01*
X021580Y034319D01*
X021579Y034323D01*
Y034327D01*
X021578Y034330D01*
X021577Y034333D01*
Y034335D01*
X021575Y034346D01*
X021570Y034356D01*
X021566Y034365D01*
X021561Y034372D01*
X021557Y034378D01*
X021552Y034383D01*
X021550Y034386D01*
X021549Y034387D01*
X021540Y034394D01*
X021530Y034398D01*
X021521Y034403D01*
X021512Y034405D01*
X021504Y034406D01*
X021497Y034407D01*
D02*
G37*
G36*
X022497Y034207D02*
X022491D01*
X022481Y034207D01*
X022471Y034205D01*
X022463Y034203D01*
X022456Y034200D01*
X022450Y034197D01*
X022446Y034194D01*
X022442Y034193D01*
X022441Y034192D01*
X022434Y034187D01*
X022428Y034180D01*
X022422Y034173D01*
X022417Y034166D01*
X022414Y034161D01*
X022412Y034156D01*
X022410Y034153D01*
X022409Y034152D01*
X022408Y034146D01*
X022406Y034140D01*
X022405Y034133D01*
X022404Y034125D01*
X022402Y034108D01*
X022401Y034092D01*
X022400Y034076D01*
X022400Y034069D01*
Y034062D01*
Y034057D01*
Y034053D01*
Y034051D01*
Y034050D01*
Y033979D01*
X022582D01*
Y034042D01*
Y034054D01*
Y034066D01*
X022582Y034076D01*
Y034085D01*
X022581Y034094D01*
Y034101D01*
X022580Y034108D01*
Y034114D01*
X022580Y034119D01*
X022579Y034123D01*
Y034127D01*
X022578Y034130D01*
X022577Y034133D01*
Y034135D01*
X022575Y034146D01*
X022571Y034156D01*
X022566Y034165D01*
X022561Y034172D01*
X022557Y034178D01*
X022552Y034183D01*
X022550Y034186D01*
X022549Y034187D01*
X022540Y034194D01*
X022530Y034198D01*
X022521Y034203D01*
X022512Y034205D01*
X022504Y034206D01*
X022497Y034207D01*
D02*
G37*
G36*
X021304Y034987D02*
Y034811D01*
X021541Y034898D01*
X021304Y034987D01*
D02*
G37*
G36*
X022304Y034787D02*
Y034611D01*
X022541Y034698D01*
X022304Y034787D01*
D02*
G37*
G36*
X022382Y037534D02*
X022357D01*
X022344Y037533D01*
X022332Y037532D01*
X022320Y037532D01*
X022310Y037531D01*
X022301Y037530D01*
X022292Y037528D01*
X022283Y037528D01*
X022276Y037526D01*
X022270Y037525D01*
X022265Y037523D01*
X022260Y037523D01*
X022257Y037522D01*
X022255Y037521D01*
X022253Y037521D01*
X022253D01*
X022237Y037515D01*
X022225Y037509D01*
X022214Y037504D01*
X022205Y037498D01*
X022199Y037494D01*
X022194Y037490D01*
X022192Y037487D01*
X022191Y037487D01*
X022185Y037478D01*
X022179Y037470D01*
X022174Y037461D01*
X022170Y037453D01*
X022167Y037446D01*
X022165Y037440D01*
X022165Y037436D01*
X022164Y037435D01*
Y037435D01*
X022163Y037430D01*
X022162Y037424D01*
X022160Y037412D01*
X022160Y037399D01*
X022159Y037386D01*
X022158Y037375D01*
Y037369D01*
Y037365D01*
Y037361D01*
Y037358D01*
Y037357D01*
Y037356D01*
Y037260D01*
X022582D01*
Y037317D01*
Y037332D01*
Y037344D01*
X022582Y037356D01*
Y037367D01*
X022581Y037377D01*
X022580Y037386D01*
X022580Y037394D01*
Y037400D01*
X022579Y037406D01*
X022578Y037411D01*
X022577Y037415D01*
X022577Y037418D01*
Y037421D01*
X022576Y037422D01*
Y037423D01*
X022573Y037437D01*
X022568Y037448D01*
X022563Y037459D01*
X022558Y037467D01*
X022553Y037474D01*
X022549Y037480D01*
X022546Y037482D01*
X022546Y037484D01*
X022536Y037492D01*
X022527Y037500D01*
X022516Y037506D01*
X022507Y037511D01*
X022498Y037515D01*
X022490Y037518D01*
X022488Y037519D01*
X022486Y037520D01*
X022484Y037521D01*
X022484D01*
X022476Y037523D01*
X022468Y037525D01*
X022449Y037528D01*
X022430Y037530D01*
X022412Y037532D01*
X022403D01*
X022396Y037533D01*
X022389D01*
X022382Y037534D01*
D02*
G37*
G36*
X021382Y037734D02*
X021357D01*
X021344Y037733D01*
X021332Y037732D01*
X021320Y037732D01*
X021310Y037731D01*
X021301Y037730D01*
X021292Y037728D01*
X021283Y037728D01*
X021276Y037726D01*
X021270Y037725D01*
X021265Y037723D01*
X021260Y037723D01*
X021257Y037722D01*
X021255Y037721D01*
X021253Y037721D01*
X021253D01*
X021237Y037715D01*
X021225Y037709D01*
X021214Y037704D01*
X021205Y037698D01*
X021199Y037694D01*
X021194Y037690D01*
X021192Y037687D01*
X021191Y037687D01*
X021185Y037678D01*
X021179Y037670D01*
X021174Y037661D01*
X021170Y037653D01*
X021167Y037646D01*
X021165Y037640D01*
X021165Y037636D01*
X021164Y037635D01*
Y037635D01*
X021163Y037630D01*
X021162Y037624D01*
X021160Y037612D01*
X021160Y037599D01*
X021159Y037586D01*
X021158Y037575D01*
Y037569D01*
Y037565D01*
Y037561D01*
Y037558D01*
Y037557D01*
Y037556D01*
Y037460D01*
X021582D01*
Y037517D01*
Y037532D01*
Y037544D01*
X021582Y037556D01*
Y037567D01*
X021581Y037577D01*
X021580Y037586D01*
X021580Y037594D01*
Y037600D01*
X021579Y037606D01*
X021578Y037611D01*
X021577Y037615D01*
X021577Y037618D01*
Y037621D01*
X021576Y037622D01*
Y037623D01*
X021573Y037637D01*
X021568Y037648D01*
X021563Y037659D01*
X021558Y037667D01*
X021553Y037674D01*
X021549Y037680D01*
X021546Y037682D01*
X021546Y037684D01*
X021536Y037692D01*
X021527Y037700D01*
X021516Y037706D01*
X021507Y037711D01*
X021498Y037715D01*
X021490Y037718D01*
X021488Y037719D01*
X021486Y037720D01*
X021484Y037721D01*
X021484D01*
X021476Y037723D01*
X021468Y037725D01*
X021449Y037728D01*
X021430Y037730D01*
X021412Y037732D01*
X021403D01*
X021396Y037733D01*
X021389D01*
X021382Y037734D01*
D02*
G37*
G36*
X019508Y035823D02*
X019502D01*
X019492Y035822D01*
X019482Y035821D01*
X019474Y035819D01*
X019467Y035817D01*
X019462Y035814D01*
X019457Y035812D01*
X019455Y035810D01*
X019454Y035810D01*
X019447Y035804D01*
X019441Y035798D01*
X019437Y035792D01*
X019433Y035786D01*
X019430Y035781D01*
X019428Y035777D01*
X019428Y035774D01*
X019427Y035773D01*
X019425Y035768D01*
X019424Y035761D01*
X019423Y035753D01*
X019423Y035745D01*
X019421Y035726D01*
X019420Y035706D01*
Y035696D01*
Y035687D01*
X019419Y035679D01*
Y035671D01*
Y035666D01*
Y035661D01*
Y035658D01*
Y035657D01*
Y035561D01*
X019582D01*
Y035662D01*
Y035676D01*
Y035689D01*
Y035700D01*
X019582Y035710D01*
Y035719D01*
Y035726D01*
X019581Y035733D01*
Y035739D01*
Y035744D01*
X019580Y035747D01*
Y035750D01*
Y035753D01*
X019580Y035755D01*
Y035756D01*
X019577Y035767D01*
X019573Y035778D01*
X019570Y035786D01*
X019565Y035793D01*
X019561Y035798D01*
X019558Y035802D01*
X019555Y035805D01*
X019555Y035805D01*
X019546Y035811D01*
X019538Y035815D01*
X019530Y035819D01*
X019521Y035821D01*
X019514Y035822D01*
X019508Y035823D01*
D02*
G37*
G36*
X019304Y036418D02*
Y036243D01*
X019541Y036329D01*
X019304Y036418D01*
D02*
G37*
%LPD*%
M02*
