G04 Layer_Physical_Order=2*
G04 Layer_Color=16711680*
%FSAX24Y24*%
%MOIN*%
G70*
G01*
G75*
%ADD31C,0.0100*%
%ADD32C,0.0060*%
%ADD33C,0.0120*%
%ADD34C,0.0080*%
%ADD35C,0.0750*%
%ADD36R,0.0750X0.0750*%
%ADD37C,0.0850*%
%ADD38R,0.0850X0.0850*%
%ADD39R,0.1750X0.1750*%
%ADD40C,0.0662*%
%ADD41C,0.1410*%
%ADD42C,0.0380*%
%ADD43C,0.0500*%
G36*
X039400Y044350D02*
Y012475D01*
X038575D01*
Y011500D01*
X038500D01*
Y011425D01*
X037525D01*
Y010600D01*
X016035D01*
Y010718D01*
X016040Y010720D01*
X016149Y010778D01*
X016244Y010856D01*
X016275Y010894D01*
X016325D01*
X016356Y010856D01*
X016451Y010778D01*
X016560Y010720D01*
X016677Y010684D01*
X016800Y010672D01*
X016923Y010684D01*
X017040Y010720D01*
X017149Y010778D01*
X017244Y010856D01*
X017322Y010951D01*
X017369Y011038D01*
X033450D01*
X033450Y011038D01*
X033518Y011047D01*
X033581Y011073D01*
X033635Y011115D01*
X034635Y012115D01*
X034635Y012115D01*
X034677Y012169D01*
X034703Y012232D01*
X034712Y012300D01*
X034712Y012300D01*
Y015991D01*
X038185Y019465D01*
X038185Y019465D01*
X038227Y019519D01*
X038253Y019582D01*
X038262Y019650D01*
X038262Y019650D01*
Y024860D01*
X038278Y024872D01*
X038341Y024953D01*
X038380Y025048D01*
X038393Y025150D01*
X038380Y025252D01*
X038341Y025347D01*
X038278Y025428D01*
X038197Y025491D01*
X038102Y025530D01*
X038000Y025543D01*
X037980Y025541D01*
X037210Y026311D01*
X037213Y026361D01*
X037228Y026372D01*
X037291Y026453D01*
X037330Y026548D01*
X037343Y026650D01*
X037330Y026752D01*
X037291Y026847D01*
X037228Y026928D01*
X037147Y026991D01*
X037052Y027030D01*
X036950Y027043D01*
X036908Y027038D01*
X036545Y027401D01*
Y038049D01*
X037673Y039177D01*
X037726Y039256D01*
X037745Y039350D01*
Y040446D01*
X037778Y040472D01*
X037841Y040553D01*
X037880Y040648D01*
X037893Y040750D01*
X037880Y040852D01*
X037841Y040947D01*
X037778Y041028D01*
X037697Y041091D01*
X037602Y041130D01*
X037500Y041143D01*
X037398Y041130D01*
X037303Y041091D01*
X037222Y041028D01*
X037159Y040947D01*
X037120Y040852D01*
X037107Y040750D01*
X037120Y040648D01*
X037159Y040553D01*
X037222Y040472D01*
X037255Y040446D01*
Y039451D01*
X036127Y038323D01*
X036074Y038244D01*
X036055Y038150D01*
Y030469D01*
X036025Y030448D01*
Y030150D01*
Y029852D01*
X036055Y029831D01*
Y027531D01*
X036009Y027512D01*
X032735Y030785D01*
X032735Y030785D01*
X030949Y032572D01*
X030939Y032642D01*
X030900Y032737D01*
X030838Y032819D01*
X030756Y032881D01*
X030661Y032921D01*
X030559Y032934D01*
X030458Y032921D01*
X030363Y032881D01*
X030285Y032822D01*
X025840D01*
X025828Y032838D01*
X025747Y032900D01*
X025652Y032939D01*
X025550Y032953D01*
X025448Y032939D01*
X025353Y032900D01*
X025272Y032838D01*
X025252Y032812D01*
X020440D01*
X020428Y032828D01*
X020347Y032891D01*
X020252Y032930D01*
X020150Y032943D01*
X020048Y032930D01*
X019953Y032891D01*
X019872Y032828D01*
X019860Y032812D01*
X019609D01*
X019221Y033200D01*
X020430Y034409D01*
X020450Y034407D01*
X020552Y034420D01*
X020647Y034459D01*
X020728Y034522D01*
X020791Y034603D01*
X020830Y034698D01*
X020843Y034800D01*
X020830Y034902D01*
X020791Y034997D01*
X020728Y035078D01*
X020647Y035141D01*
X020552Y035180D01*
X020450Y035193D01*
X020348Y035180D01*
X020253Y035141D01*
X020172Y035078D01*
X020109Y034997D01*
X020070Y034902D01*
X020057Y034800D01*
X020059Y034780D01*
X018850Y033571D01*
X018212Y034209D01*
Y035910D01*
X018228Y035922D01*
X018291Y036003D01*
X018330Y036098D01*
X018343Y036200D01*
X018330Y036302D01*
X018291Y036397D01*
X018228Y036478D01*
X018147Y036541D01*
X018052Y036580D01*
X017950Y036593D01*
X017848Y036580D01*
X017753Y036541D01*
X017672Y036478D01*
X017609Y036397D01*
X017570Y036302D01*
X017557Y036200D01*
X017570Y036098D01*
X017609Y036003D01*
X017672Y035922D01*
X017688Y035910D01*
Y034100D01*
X017688Y034100D01*
X017697Y034032D01*
X017723Y033969D01*
X017765Y033915D01*
X018640Y033040D01*
X018640Y033040D01*
X019315Y032365D01*
X019315Y032365D01*
X019369Y032323D01*
X019432Y032297D01*
X019500Y032288D01*
X019500Y032288D01*
X019860D01*
X019872Y032272D01*
X019953Y032209D01*
X020048Y032170D01*
X020150Y032157D01*
X020252Y032170D01*
X020347Y032209D01*
X020428Y032272D01*
X020440Y032288D01*
X025267D01*
X025272Y032281D01*
X025353Y032219D01*
X025448Y032179D01*
X025550Y032166D01*
X025652Y032179D01*
X025747Y032219D01*
X025828Y032281D01*
X025840Y032297D01*
X030255D01*
X030281Y032262D01*
X030363Y032200D01*
X030458Y032161D01*
X030559Y032147D01*
X030624Y032156D01*
X032179Y030600D01*
X028620Y027041D01*
X028600Y027043D01*
X028498Y027030D01*
X028403Y026991D01*
X028322Y026928D01*
X028259Y026847D01*
X028220Y026752D01*
X028207Y026650D01*
X028220Y026548D01*
X028259Y026453D01*
X028322Y026372D01*
X028403Y026309D01*
X028498Y026270D01*
X028600Y026257D01*
X028702Y026270D01*
X028797Y026309D01*
X028878Y026372D01*
X028941Y026453D01*
X028980Y026548D01*
X028993Y026650D01*
X028991Y026670D01*
X032550Y030229D01*
X035954Y026825D01*
X035926Y026782D01*
X035926Y026783D01*
X035925Y026783D01*
Y026575D01*
X036133D01*
X036133Y026576D01*
X036132Y026576D01*
X036175Y026604D01*
X037609Y025170D01*
X037607Y025150D01*
X037620Y025048D01*
X037659Y024953D01*
X037722Y024872D01*
X037738Y024860D01*
Y019759D01*
X034450Y016471D01*
X033441Y017480D01*
X033443Y017500D01*
X033430Y017602D01*
X033391Y017697D01*
X033328Y017778D01*
X033247Y017841D01*
X033152Y017880D01*
X033050Y017893D01*
X032948Y017880D01*
X032853Y017841D01*
X032772Y017778D01*
X032715Y017703D01*
X032690Y017706D01*
X032665Y017717D01*
Y018518D01*
X032708Y018552D01*
X032771Y018633D01*
X032810Y018728D01*
X032823Y018830D01*
X032810Y018932D01*
X032771Y019027D01*
X032708Y019108D01*
X032627Y019171D01*
X032532Y019210D01*
X032430Y019223D01*
X032328Y019210D01*
X032276Y019188D01*
X032235Y019216D01*
Y019353D01*
X032295Y019414D01*
X032350Y019407D01*
X032452Y019420D01*
X032547Y019459D01*
X032628Y019522D01*
X032691Y019603D01*
X032730Y019698D01*
X032743Y019800D01*
X032730Y019902D01*
X032691Y019997D01*
X032628Y020078D01*
X032547Y020141D01*
X032452Y020180D01*
X032350Y020193D01*
X032248Y020180D01*
X032181Y020152D01*
X032135Y020187D01*
X032143Y020250D01*
X032130Y020352D01*
X032092Y020443D01*
X032094Y020448D01*
X032140Y020470D01*
X032153Y020459D01*
X032248Y020420D01*
X032350Y020407D01*
X032452Y020420D01*
X032547Y020459D01*
X032628Y020522D01*
X032691Y020603D01*
X032730Y020698D01*
X032743Y020800D01*
X032730Y020902D01*
X032691Y020997D01*
X032628Y021078D01*
X032547Y021141D01*
X032452Y021180D01*
X032350Y021193D01*
X032248Y021180D01*
X032162Y021144D01*
X032139Y021159D01*
X032122Y021180D01*
X032130Y021198D01*
X032143Y021300D01*
X032130Y021402D01*
X032121Y021423D01*
X032154Y021474D01*
X032170Y021475D01*
X032172Y021472D01*
X032253Y021409D01*
X032348Y021370D01*
X032450Y021357D01*
X032552Y021370D01*
X032647Y021409D01*
X032728Y021472D01*
X032791Y021553D01*
X032830Y021648D01*
X032843Y021750D01*
X032830Y021852D01*
X032791Y021947D01*
X032728Y022028D01*
X032647Y022091D01*
X032552Y022130D01*
X032450Y022143D01*
X032348Y022130D01*
X032253Y022091D01*
X032172Y022028D01*
X032163Y022017D01*
X032128Y022017D01*
X032088Y022062D01*
X032093Y022100D01*
X032080Y022202D01*
X032057Y022257D01*
X032089Y022312D01*
X032152Y022320D01*
X032247Y022359D01*
X032328Y022422D01*
X032391Y022503D01*
X032430Y022598D01*
X032443Y022700D01*
X032432Y022787D01*
X032465Y022833D01*
X032475Y022832D01*
X032577Y022845D01*
X032672Y022884D01*
X032753Y022947D01*
X032816Y023028D01*
X032855Y023123D01*
X032868Y023225D01*
X032855Y023327D01*
X032816Y023422D01*
X032753Y023503D01*
X032672Y023566D01*
X032577Y023605D01*
X032475Y023618D01*
X032420Y023611D01*
X030836Y025195D01*
X030843Y025250D01*
X030830Y025352D01*
X030791Y025447D01*
X030728Y025528D01*
X030647Y025591D01*
X030552Y025630D01*
X030450Y025643D01*
X030348Y025630D01*
X030253Y025591D01*
X030172Y025528D01*
X030109Y025447D01*
X030070Y025352D01*
X030058Y025261D01*
X030016Y025224D01*
X030002Y025230D01*
X029900Y025243D01*
X029798Y025230D01*
X029703Y025191D01*
X029622Y025128D01*
X029559Y025047D01*
X029520Y024952D01*
X029507Y024850D01*
X029520Y024748D01*
X029559Y024653D01*
X029622Y024572D01*
X029703Y024509D01*
X029798Y024470D01*
X029900Y024457D01*
X029955Y024464D01*
X031664Y022755D01*
X031657Y022700D01*
X031670Y022598D01*
X031693Y022543D01*
X031661Y022488D01*
X031598Y022480D01*
X031503Y022441D01*
X031423Y022379D01*
X029672Y024129D01*
X029680Y024148D01*
X029693Y024250D01*
X029680Y024352D01*
X029641Y024447D01*
X029578Y024528D01*
X029497Y024591D01*
X029402Y024630D01*
X029300Y024643D01*
X029198Y024630D01*
X029103Y024591D01*
X029022Y024528D01*
X028959Y024447D01*
X028920Y024352D01*
X028907Y024250D01*
X028920Y024148D01*
X028959Y024053D01*
X029022Y023972D01*
X029103Y023909D01*
X029198Y023870D01*
X029279Y023859D01*
X030358Y022781D01*
X030339Y022735D01*
X027497D01*
X026585Y023647D01*
Y027975D01*
X026635Y028015D01*
X026700Y028007D01*
X026755Y028014D01*
X027214Y027555D01*
X027207Y027500D01*
X027220Y027398D01*
X027259Y027303D01*
X027322Y027222D01*
X027403Y027159D01*
X027498Y027120D01*
X027600Y027107D01*
X027702Y027120D01*
X027797Y027159D01*
X027878Y027222D01*
X027941Y027303D01*
X027980Y027398D01*
X027993Y027500D01*
X027980Y027602D01*
X027941Y027697D01*
X027878Y027778D01*
X027797Y027841D01*
X027702Y027880D01*
X027600Y027893D01*
X027545Y027886D01*
X027086Y028345D01*
X027093Y028400D01*
X027080Y028502D01*
X027041Y028597D01*
X026978Y028678D01*
X026897Y028741D01*
X026802Y028780D01*
X026700Y028793D01*
X026635Y028785D01*
X026585Y028825D01*
Y028988D01*
X026628Y029022D01*
X026691Y029103D01*
X026730Y029198D01*
X026743Y029300D01*
X026730Y029402D01*
X026691Y029497D01*
X026628Y029578D01*
X026547Y029641D01*
X026452Y029680D01*
X026350Y029693D01*
X026248Y029680D01*
X026153Y029641D01*
X026072Y029578D01*
X026009Y029497D01*
X025970Y029402D01*
X025957Y029300D01*
X025970Y029198D01*
X026009Y029103D01*
X026072Y029022D01*
X026115Y028988D01*
Y023550D01*
X026133Y023460D01*
X026184Y023384D01*
X027038Y022531D01*
X027019Y022485D01*
X024947D01*
X023885Y023547D01*
X023892Y023582D01*
X023902Y023601D01*
X023907Y023605D01*
X024100D01*
X024194Y023624D01*
X024273Y023677D01*
X024612Y024016D01*
X024626Y024017D01*
X024696Y024047D01*
X024757Y024093D01*
X024803Y024154D01*
X024833Y024224D01*
X024833Y024225D01*
X024550D01*
Y024300D01*
X024475D01*
Y024583D01*
X024474Y024583D01*
X024404Y024553D01*
X024343Y024507D01*
X024297Y024446D01*
X024267Y024376D01*
X024266Y024362D01*
X023999Y024095D01*
X023907D01*
X023896Y024103D01*
X023826Y024133D01*
X023825Y024133D01*
Y023850D01*
X023675D01*
Y024133D01*
X023674Y024133D01*
X023604Y024103D01*
X023543Y024057D01*
X023501Y024002D01*
X023482Y023992D01*
X023447Y023985D01*
X021335Y026097D01*
Y026388D01*
X021378Y026422D01*
X021441Y026503D01*
X021480Y026598D01*
X021493Y026700D01*
X021480Y026802D01*
X021441Y026897D01*
X021378Y026978D01*
X021297Y027041D01*
X021202Y027080D01*
X021100Y027093D01*
X020998Y027080D01*
X020903Y027041D01*
X020857Y027005D01*
X020789Y027014D01*
X020778Y027028D01*
X020697Y027091D01*
X020602Y027130D01*
X020500Y027143D01*
X020398Y027130D01*
X020303Y027091D01*
X020222Y027028D01*
X020178D01*
X020097Y027091D01*
X020002Y027130D01*
X019900Y027143D01*
X019798Y027130D01*
X019703Y027091D01*
X019622Y027028D01*
X019559Y026947D01*
X019520Y026852D01*
X019507Y026750D01*
X019508Y026741D01*
X019463Y026719D01*
X017585Y028597D01*
Y032250D01*
X017567Y032340D01*
X017516Y032416D01*
X017516Y032416D01*
X017185Y032747D01*
Y036238D01*
X017228Y036272D01*
X017291Y036353D01*
X017330Y036448D01*
X017343Y036550D01*
X017330Y036652D01*
X017291Y036747D01*
X017228Y036828D01*
X017147Y036891D01*
X017052Y036930D01*
X016950Y036943D01*
X016848Y036930D01*
X016753Y036891D01*
X016672Y036828D01*
X016635Y036779D01*
X016585Y036796D01*
Y037053D01*
X017216Y037684D01*
X017216Y037684D01*
X017267Y037760D01*
X017285Y037850D01*
Y039253D01*
X017616Y039584D01*
X017616Y039584D01*
X017667Y039660D01*
X017685Y039750D01*
Y040538D01*
X017728Y040572D01*
X017791Y040653D01*
X017830Y040748D01*
X017843Y040850D01*
X017830Y040952D01*
X017791Y041047D01*
X017728Y041128D01*
X017647Y041191D01*
X017552Y041230D01*
X017450Y041243D01*
X017348Y041230D01*
X017253Y041191D01*
X017172Y041128D01*
X017109Y041047D01*
X017070Y040952D01*
X017057Y040850D01*
X017070Y040748D01*
X017109Y040653D01*
X017172Y040572D01*
X017215Y040538D01*
Y039847D01*
X016884Y039516D01*
X016833Y039440D01*
X016815Y039350D01*
Y037947D01*
X016185Y037316D01*
X016172Y037316D01*
X016135Y037328D01*
Y037950D01*
X016117Y038040D01*
X016066Y038116D01*
X015085Y039097D01*
Y040380D01*
X015135Y040402D01*
X015233Y040362D01*
X015350Y040346D01*
X015467Y040362D01*
X015577Y040407D01*
X015671Y040479D01*
X015743Y040573D01*
X015788Y040683D01*
X015804Y040800D01*
X015793Y040883D01*
X016856Y041945D01*
X019095D01*
Y041272D01*
X019029Y041221D01*
X018957Y041127D01*
X018912Y041017D01*
X018896Y040900D01*
X018912Y040783D01*
X018957Y040673D01*
X019029Y040579D01*
X019123Y040507D01*
X019233Y040462D01*
X019350Y040446D01*
X019467Y040462D01*
X019577Y040507D01*
X019671Y040579D01*
X019743Y040673D01*
X019788Y040783D01*
X019804Y040900D01*
X019788Y041017D01*
X019743Y041127D01*
X019671Y041221D01*
X019605Y041272D01*
Y041945D01*
X023418D01*
X023428Y041895D01*
X023423Y041893D01*
X023329Y041821D01*
X023257Y041727D01*
X023212Y041617D01*
X023196Y041500D01*
X023212Y041383D01*
X023257Y041273D01*
X023329Y041179D01*
X023423Y041107D01*
X023533Y041062D01*
X023650Y041046D01*
X023758Y041060D01*
X023834Y040984D01*
X023910Y040933D01*
X024000Y040915D01*
X025753D01*
X026065Y040603D01*
Y040387D01*
X025979Y040321D01*
X025907Y040227D01*
X025862Y040117D01*
X025846Y040000D01*
X025862Y039883D01*
X025907Y039773D01*
X025979Y039679D01*
X026073Y039607D01*
X026183Y039562D01*
X026300Y039546D01*
X026417Y039562D01*
X026527Y039607D01*
X026621Y039679D01*
X026693Y039773D01*
X026738Y039883D01*
X026754Y040000D01*
X026738Y040117D01*
X026693Y040227D01*
X026621Y040321D01*
X026535Y040387D01*
Y040700D01*
X026517Y040790D01*
X026466Y040866D01*
X026232Y041100D01*
X026250Y041153D01*
X026317Y041162D01*
X026427Y041207D01*
X026521Y041279D01*
X026593Y041373D01*
X026638Y041483D01*
X026654Y041600D01*
X026638Y041717D01*
X026593Y041827D01*
X026521Y041921D01*
X026427Y041993D01*
X026317Y042038D01*
X026200Y042054D01*
X026083Y042038D01*
X025973Y041993D01*
X025879Y041921D01*
X025828Y041855D01*
X024756D01*
X024230Y042380D01*
X024148Y042435D01*
X024050Y042455D01*
X016750D01*
X016652Y042435D01*
X016570Y042380D01*
X015433Y041243D01*
X015350Y041254D01*
X015233Y041238D01*
X015135Y041198D01*
X015085Y041220D01*
Y042650D01*
X015075Y042700D01*
X015093Y042717D01*
X015119Y042731D01*
X015226Y042687D01*
X015275Y042681D01*
Y043150D01*
Y043619D01*
X015226Y043613D01*
X015110Y043565D01*
X015011Y043489D01*
X014935Y043390D01*
X014929Y043375D01*
X014879D01*
X014852Y043440D01*
X014760Y043560D01*
X014640Y043652D01*
X014500Y043710D01*
X014350Y043730D01*
X014200Y043710D01*
X014060Y043652D01*
X013940Y043560D01*
X013848Y043440D01*
X013821Y043375D01*
X013771D01*
X013765Y043390D01*
X013689Y043489D01*
X013590Y043565D01*
X013474Y043613D01*
X013425Y043619D01*
Y043150D01*
Y042681D01*
X013474Y042687D01*
X013590Y042735D01*
X013689Y042811D01*
X013765Y042910D01*
X013771Y042925D01*
X013821D01*
X013848Y042860D01*
X013940Y042740D01*
X014060Y042648D01*
X014200Y042590D01*
X014350Y042570D01*
X014500Y042590D01*
X014556Y042613D01*
X014615Y042553D01*
Y039000D01*
X014633Y038910D01*
X014684Y038834D01*
X015665Y037853D01*
Y028500D01*
X015683Y028410D01*
X015734Y028334D01*
X018236Y025832D01*
X018213Y025785D01*
X018150Y025793D01*
X018048Y025780D01*
X017953Y025741D01*
X017872Y025678D01*
X017809Y025597D01*
X017770Y025502D01*
X017757Y025400D01*
X017770Y025298D01*
X017809Y025203D01*
X017872Y025122D01*
X017953Y025059D01*
X018048Y025020D01*
X018150Y025007D01*
X018252Y025020D01*
X018285Y025034D01*
X018409Y024909D01*
X018400Y024860D01*
X018353Y024841D01*
X018272Y024778D01*
X018209Y024697D01*
X018170Y024602D01*
X018157Y024500D01*
X018162Y024458D01*
X017277Y023573D01*
X017224Y023494D01*
X017205Y023400D01*
Y019200D01*
X017224Y019106D01*
X017277Y019027D01*
X020277Y016027D01*
X020356Y015974D01*
X020450Y015955D01*
X022896D01*
X022922Y015922D01*
X023003Y015859D01*
X023098Y015820D01*
X023200Y015807D01*
X023302Y015820D01*
X023397Y015859D01*
X023478Y015922D01*
X023541Y016003D01*
X023580Y016098D01*
X023593Y016200D01*
X023580Y016302D01*
X023541Y016397D01*
X023478Y016478D01*
X023397Y016541D01*
X023302Y016580D01*
X023200Y016593D01*
X023098Y016580D01*
X023003Y016541D01*
X022922Y016478D01*
X022896Y016445D01*
X020551D01*
X017695Y019301D01*
Y022180D01*
X017745Y022204D01*
X017803Y022159D01*
X017898Y022120D01*
X018000Y022107D01*
X018102Y022120D01*
X018197Y022159D01*
X018278Y022222D01*
X018304Y022255D01*
X019246D01*
X019272Y022222D01*
X019353Y022159D01*
X019448Y022120D01*
X019550Y022107D01*
X019652Y022120D01*
X019747Y022159D01*
X019828Y022222D01*
X019891Y022303D01*
X019930Y022398D01*
X019943Y022500D01*
X019930Y022602D01*
X019891Y022697D01*
X019828Y022778D01*
X019747Y022841D01*
X019652Y022880D01*
X019550Y022893D01*
X019448Y022880D01*
X019353Y022841D01*
X019272Y022778D01*
X019246Y022745D01*
X018304D01*
X018278Y022778D01*
X018197Y022841D01*
X018102Y022880D01*
X018000Y022893D01*
X017898Y022880D01*
X017803Y022841D01*
X017745Y022796D01*
X017695Y022820D01*
Y023299D01*
X018508Y024112D01*
X018550Y024107D01*
X018652Y024120D01*
X018747Y024159D01*
X018828Y024222D01*
X018891Y024303D01*
X018910Y024350D01*
X018959Y024359D01*
X023888Y019431D01*
X023869Y019385D01*
X022662D01*
X022628Y019428D01*
X022547Y019491D01*
X022495Y019512D01*
X022502Y019563D01*
X022552Y019570D01*
X022647Y019609D01*
X022728Y019672D01*
X022791Y019753D01*
X022830Y019848D01*
X022843Y019950D01*
X022830Y020052D01*
X022791Y020147D01*
X022728Y020228D01*
X022647Y020291D01*
X022552Y020330D01*
X022450Y020343D01*
X022348Y020330D01*
X022305Y020312D01*
X019990D01*
X019978Y020328D01*
X019897Y020391D01*
X019802Y020430D01*
X019700Y020443D01*
X019598Y020430D01*
X019503Y020391D01*
X019422Y020328D01*
X019359Y020247D01*
X019320Y020152D01*
X019307Y020050D01*
X019320Y019948D01*
X019359Y019853D01*
X019422Y019772D01*
X019503Y019709D01*
X019598Y019670D01*
X019700Y019657D01*
X019802Y019670D01*
X019897Y019709D01*
X019978Y019772D01*
X019990Y019788D01*
X022095D01*
X022109Y019753D01*
X022172Y019672D01*
X022253Y019609D01*
X022305Y019588D01*
X022298Y019537D01*
X022248Y019530D01*
X022153Y019491D01*
X022072Y019428D01*
X022009Y019347D01*
X021970Y019252D01*
X021957Y019150D01*
X021970Y019048D01*
X022009Y018953D01*
X022072Y018872D01*
X022153Y018809D01*
X022248Y018770D01*
X022350Y018757D01*
X022452Y018770D01*
X022547Y018809D01*
X022628Y018872D01*
X022662Y018915D01*
X026353D01*
X026515Y018753D01*
Y017400D01*
X026533Y017310D01*
X026584Y017234D01*
X028384Y015434D01*
X028384Y015434D01*
X028460Y015383D01*
X028550Y015365D01*
X030903D01*
X031984Y014284D01*
X031984Y014284D01*
X032060Y014233D01*
X032150Y014215D01*
X032150Y014215D01*
X032288D01*
X032322Y014172D01*
X032403Y014109D01*
X032498Y014070D01*
X032600Y014057D01*
X032702Y014070D01*
X032797Y014109D01*
X032878Y014172D01*
X032941Y014253D01*
X032980Y014348D01*
X032993Y014450D01*
X032980Y014552D01*
X032941Y014647D01*
X032878Y014728D01*
X032797Y014791D01*
X032702Y014830D01*
X032600Y014843D01*
X032498Y014830D01*
X032403Y014791D01*
X032322Y014728D01*
X032294Y014692D01*
X032242Y014690D01*
X031166Y015766D01*
X031090Y015817D01*
X031000Y015835D01*
X028647D01*
X026985Y017497D01*
Y018850D01*
X026967Y018940D01*
X026916Y019016D01*
X026862Y019069D01*
X026881Y019115D01*
X027053D01*
X028664Y017505D01*
X028657Y017450D01*
X028670Y017348D01*
X028709Y017253D01*
X028772Y017172D01*
X028853Y017109D01*
X028948Y017070D01*
X029050Y017057D01*
X029152Y017070D01*
X029247Y017109D01*
X029328Y017172D01*
X029391Y017253D01*
X029430Y017348D01*
X029443Y017450D01*
X029430Y017552D01*
X029391Y017647D01*
X029328Y017728D01*
X029247Y017791D01*
X029152Y017830D01*
X029050Y017843D01*
X028995Y017836D01*
X028392Y018440D01*
X028393Y018444D01*
X028421Y018481D01*
X028500Y018465D01*
X030550D01*
X030640Y018483D01*
X030716Y018534D01*
X031266Y019084D01*
X031266Y019084D01*
X031317Y019160D01*
X031335Y019250D01*
Y019800D01*
X031317Y019890D01*
X031266Y019966D01*
X031263Y019982D01*
X031307Y020024D01*
X031350Y020015D01*
X031350Y020015D01*
X031438D01*
X031472Y019972D01*
X031553Y019909D01*
X031648Y019870D01*
X031750Y019857D01*
X031852Y019870D01*
X031919Y019898D01*
X031965Y019863D01*
X031957Y019800D01*
X031964Y019745D01*
X031834Y019616D01*
X031783Y019540D01*
X031765Y019450D01*
Y016300D01*
X031783Y016210D01*
X031834Y016134D01*
X032862Y015106D01*
X032870Y015048D01*
X032909Y014953D01*
X032972Y014872D01*
X033053Y014809D01*
X033148Y014770D01*
X033250Y014757D01*
X033352Y014770D01*
X033447Y014809D01*
X033528Y014872D01*
X033591Y014953D01*
X033630Y015048D01*
X033643Y015150D01*
X033630Y015252D01*
X033591Y015347D01*
X033528Y015428D01*
X033447Y015491D01*
X033367Y015524D01*
Y015576D01*
X033447Y015609D01*
X033528Y015672D01*
X033591Y015753D01*
X033630Y015848D01*
X033643Y015950D01*
X033630Y016052D01*
X033591Y016147D01*
X033528Y016228D01*
X033447Y016291D01*
X033352Y016330D01*
X033250Y016343D01*
X033148Y016330D01*
X033115Y016316D01*
X032665Y016767D01*
Y017283D01*
X032690Y017294D01*
X032715Y017297D01*
X032772Y017222D01*
X032853Y017159D01*
X032948Y017120D01*
X033050Y017107D01*
X033070Y017109D01*
X034188Y015991D01*
Y012409D01*
X033341Y011562D01*
X017369D01*
X017335Y011625D01*
X017363Y011675D01*
X017425D01*
Y012765D01*
X017904D01*
X017909Y012753D01*
X017972Y012672D01*
X018053Y012609D01*
X018148Y012570D01*
X018250Y012557D01*
X018352Y012570D01*
X018447Y012609D01*
X018528Y012672D01*
X018591Y012753D01*
X018630Y012848D01*
X018643Y012950D01*
X018630Y013052D01*
X018591Y013147D01*
X018528Y013228D01*
X018447Y013291D01*
X018352Y013330D01*
X018250Y013343D01*
X018148Y013330D01*
X018053Y013291D01*
X017980Y013235D01*
X015100D01*
X015010Y013217D01*
X014934Y013166D01*
X014685Y012917D01*
X014677Y012916D01*
X014560Y012880D01*
X014451Y012822D01*
X014421Y012797D01*
X014367Y012818D01*
X014364Y012832D01*
X015197Y013665D01*
X017488D01*
X017522Y013622D01*
X017603Y013559D01*
X017698Y013520D01*
X017800Y013507D01*
X017902Y013520D01*
X017997Y013559D01*
X018078Y013622D01*
X018141Y013703D01*
X018180Y013798D01*
X018193Y013900D01*
X018180Y014002D01*
X018141Y014097D01*
X018078Y014178D01*
X017997Y014241D01*
X017902Y014280D01*
X017800Y014293D01*
X017698Y014280D01*
X017603Y014241D01*
X017522Y014178D01*
X017488Y014135D01*
X015100D01*
X015100Y014135D01*
X015010Y014117D01*
X014934Y014066D01*
X014934Y014066D01*
X013934Y013066D01*
X013883Y012990D01*
X013865Y012900D01*
Y010600D01*
X012475D01*
Y011425D01*
X011500D01*
Y011500D01*
X011425D01*
Y012475D01*
X010638D01*
X010603Y012510D01*
X010647Y042525D01*
X011425D01*
Y043500D01*
X011500D01*
Y043575D01*
X012475D01*
Y044350D01*
X036525D01*
Y043575D01*
X038475D01*
Y044350D01*
X039300D01*
X039350Y044400D01*
X039400Y044350D01*
D02*
G37*
%LPC*%
G36*
X014425Y024975D02*
X014217D01*
X014217Y024974D01*
X014247Y024904D01*
X014293Y024843D01*
X014354Y024797D01*
X014424Y024767D01*
X014425Y024767D01*
Y024975D01*
D02*
G37*
G36*
X036183Y024875D02*
X035975D01*
Y024667D01*
X035976Y024667D01*
X036046Y024697D01*
X036107Y024743D01*
X036153Y024804D01*
X036183Y024874D01*
X036183Y024875D01*
D02*
G37*
G36*
X014783Y024975D02*
X014575D01*
Y024767D01*
X014576Y024767D01*
X014646Y024797D01*
X014707Y024843D01*
X014753Y024904D01*
X014783Y024974D01*
X014783Y024975D01*
D02*
G37*
G36*
X034375Y025033D02*
Y024825D01*
X034583D01*
X034583Y024826D01*
X034553Y024896D01*
X034507Y024957D01*
X034446Y025003D01*
X034376Y025033D01*
X034375Y025033D01*
D02*
G37*
G36*
X034225D02*
X034224Y025033D01*
X034154Y025003D01*
X034093Y024957D01*
X034047Y024896D01*
X034017Y024826D01*
X034017Y024825D01*
X034225D01*
Y025033D01*
D02*
G37*
G36*
X035825Y024875D02*
X035617D01*
X035617Y024874D01*
X035647Y024804D01*
X035693Y024743D01*
X035754Y024697D01*
X035824Y024667D01*
X035825Y024667D01*
Y024875D01*
D02*
G37*
G36*
X012302Y024756D02*
X011575D01*
Y024030D01*
X011658Y024038D01*
X011810Y024084D01*
X011949Y024159D01*
X012072Y024259D01*
X012173Y024382D01*
X012247Y024522D01*
X012293Y024673D01*
X012302Y024756D01*
D02*
G37*
G36*
X011425D02*
X010698D01*
X010707Y024673D01*
X010753Y024522D01*
X010827Y024382D01*
X010928Y024259D01*
X011051Y024159D01*
X011190Y024084D01*
X011342Y024038D01*
X011425Y024030D01*
Y024756D01*
D02*
G37*
G36*
X024625Y024583D02*
Y024375D01*
X024833D01*
X024833Y024376D01*
X024803Y024446D01*
X024757Y024507D01*
X024696Y024553D01*
X024626Y024583D01*
X024625Y024583D01*
D02*
G37*
G36*
X034583Y024675D02*
X034375D01*
Y024467D01*
X034376Y024467D01*
X034446Y024497D01*
X034507Y024543D01*
X034553Y024604D01*
X034583Y024674D01*
X034583Y024675D01*
D02*
G37*
G36*
X034225D02*
X034017D01*
X034017Y024674D01*
X034047Y024604D01*
X034093Y024543D01*
X034154Y024497D01*
X034224Y024467D01*
X034225Y024467D01*
Y024675D01*
D02*
G37*
G36*
X011425Y025633D02*
X011342Y025625D01*
X011190Y025578D01*
X011051Y025504D01*
X010928Y025403D01*
X010827Y025281D01*
X010753Y025141D01*
X010707Y024989D01*
X010698Y024906D01*
X011425D01*
Y025633D01*
D02*
G37*
G36*
X034775Y025583D02*
X034774Y025583D01*
X034704Y025553D01*
X034643Y025507D01*
X034597Y025446D01*
X034567Y025376D01*
X034567Y025375D01*
X034775D01*
Y025583D01*
D02*
G37*
G36*
X014575Y025333D02*
Y025125D01*
X014783D01*
X014783Y025126D01*
X014753Y025196D01*
X014707Y025257D01*
X014646Y025303D01*
X014576Y025333D01*
X014575Y025333D01*
D02*
G37*
G36*
X034925Y025583D02*
Y025375D01*
X035133D01*
X035133Y025376D01*
X035103Y025446D01*
X035057Y025507D01*
X034996Y025553D01*
X034926Y025583D01*
X034925Y025583D01*
D02*
G37*
G36*
X038825Y025975D02*
X038617D01*
X038617Y025974D01*
X038647Y025904D01*
X038693Y025843D01*
X038754Y025797D01*
X038824Y025767D01*
X038825Y025767D01*
Y025975D01*
D02*
G37*
G36*
X022350Y029043D02*
X022248Y029030D01*
X022153Y028991D01*
X022072Y028928D01*
X022009Y028847D01*
X021970Y028752D01*
X021957Y028650D01*
X021970Y028548D01*
X022009Y028453D01*
X022072Y028372D01*
X022153Y028309D01*
X022165Y028304D01*
Y026212D01*
X022122Y026178D01*
X022059Y026097D01*
X022020Y026002D01*
X022007Y025900D01*
X022020Y025798D01*
X022059Y025703D01*
X022122Y025622D01*
X022203Y025559D01*
X022298Y025520D01*
X022400Y025507D01*
X022502Y025520D01*
X022597Y025559D01*
X022678Y025622D01*
X022741Y025703D01*
X022780Y025798D01*
X022793Y025900D01*
X022780Y026002D01*
X022741Y026097D01*
X022678Y026178D01*
X022635Y026212D01*
Y028380D01*
X022691Y028453D01*
X022730Y028548D01*
X022743Y028650D01*
X022730Y028752D01*
X022691Y028847D01*
X022628Y028928D01*
X022547Y028991D01*
X022452Y029030D01*
X022350Y029043D01*
D02*
G37*
G36*
X014425Y025333D02*
X014424Y025333D01*
X014354Y025303D01*
X014293Y025257D01*
X014247Y025196D01*
X014217Y025126D01*
X014217Y025125D01*
X014425D01*
Y025333D01*
D02*
G37*
G36*
X034775Y025225D02*
X034567D01*
X034567Y025224D01*
X034597Y025154D01*
X034643Y025093D01*
X034704Y025047D01*
X034774Y025017D01*
X034775Y025017D01*
Y025225D01*
D02*
G37*
G36*
X011575Y025633D02*
Y024906D01*
X012302D01*
X012293Y024989D01*
X012247Y025141D01*
X012173Y025281D01*
X012072Y025403D01*
X011949Y025504D01*
X011810Y025578D01*
X011658Y025625D01*
X011575Y025633D01*
D02*
G37*
G36*
X035133Y025225D02*
X034925D01*
Y025017D01*
X034926Y025017D01*
X034996Y025047D01*
X035057Y025093D01*
X035103Y025154D01*
X035133Y025224D01*
X035133Y025225D01*
D02*
G37*
G36*
X035975Y025233D02*
Y025025D01*
X036183D01*
X036183Y025026D01*
X036153Y025096D01*
X036107Y025157D01*
X036046Y025203D01*
X035976Y025233D01*
X035975Y025233D01*
D02*
G37*
G36*
X035825D02*
X035824Y025233D01*
X035754Y025203D01*
X035693Y025157D01*
X035647Y025096D01*
X035617Y025026D01*
X035617Y025025D01*
X035825D01*
Y025233D01*
D02*
G37*
G36*
X013354Y023489D02*
X013216Y023471D01*
X013086Y023417D01*
X012996Y023348D01*
X012961Y023337D01*
X012925Y023348D01*
X012835Y023417D01*
X012706Y023471D01*
X012567Y023489D01*
X012428Y023471D01*
X012299Y023417D01*
X012188Y023332D01*
X012103Y023221D01*
X012049Y023092D01*
X012031Y022953D01*
X012049Y022815D01*
X012103Y022685D01*
X012188Y022574D01*
X012299Y022489D01*
X012307Y022486D01*
Y022436D01*
X012299Y022433D01*
X012188Y022348D01*
X012103Y022237D01*
X012049Y022108D01*
X012031Y021969D01*
X012049Y021830D01*
X012103Y021701D01*
X012188Y021590D01*
X012299Y021505D01*
X012428Y021452D01*
X012567Y021433D01*
X012706Y021452D01*
X012835Y021505D01*
X012925Y021574D01*
X012961Y021585D01*
X012996Y021574D01*
X013086Y021505D01*
X013216Y021452D01*
X013354Y021433D01*
X013493Y021452D01*
X013622Y021505D01*
X013733Y021590D01*
X013818Y021701D01*
X013872Y021830D01*
X013890Y021969D01*
X013872Y022108D01*
X013818Y022237D01*
X013733Y022348D01*
X013622Y022433D01*
X013614Y022436D01*
Y022486D01*
X013622Y022489D01*
X013733Y022574D01*
X013818Y022685D01*
X013872Y022815D01*
X013890Y022953D01*
X013872Y023092D01*
X013818Y023221D01*
X013733Y023332D01*
X013622Y023417D01*
X013493Y023471D01*
X013354Y023489D01*
D02*
G37*
G36*
X014133Y016675D02*
X013925D01*
Y016467D01*
X013926Y016467D01*
X013996Y016497D01*
X014057Y016543D01*
X014103Y016604D01*
X014133Y016674D01*
X014133Y016675D01*
D02*
G37*
G36*
X013775D02*
X013567D01*
X013567Y016674D01*
X013597Y016604D01*
X013643Y016543D01*
X013704Y016497D01*
X013774Y016467D01*
X013775Y016467D01*
Y016675D01*
D02*
G37*
G36*
Y017033D02*
X013774Y017033D01*
X013704Y017003D01*
X013643Y016957D01*
X013597Y016896D01*
X013567Y016826D01*
X013567Y016825D01*
X013775D01*
Y017033D01*
D02*
G37*
G36*
X013125Y017225D02*
X012917D01*
X012917Y017224D01*
X012947Y017154D01*
X012993Y017093D01*
X013054Y017047D01*
X013124Y017017D01*
X013125Y017017D01*
Y017225D01*
D02*
G37*
G36*
X013925Y017033D02*
Y016825D01*
X014133D01*
X014133Y016826D01*
X014103Y016896D01*
X014057Y016957D01*
X013996Y017003D01*
X013926Y017033D01*
X013925Y017033D01*
D02*
G37*
G36*
X014725Y016483D02*
Y016275D01*
X014933D01*
X014933Y016276D01*
X014903Y016346D01*
X014857Y016407D01*
X014796Y016453D01*
X014726Y016483D01*
X014725Y016483D01*
D02*
G37*
G36*
X038425Y012475D02*
X037525D01*
Y011575D01*
X038425D01*
Y012475D01*
D02*
G37*
G36*
X012475D02*
X011575D01*
Y011575D01*
X012475D01*
Y012475D01*
D02*
G37*
G36*
X014575Y016125D02*
X014367D01*
X014367Y016124D01*
X014397Y016054D01*
X014443Y015993D01*
X014504Y015947D01*
X014574Y015917D01*
X014575Y015917D01*
Y016125D01*
D02*
G37*
G36*
Y016483D02*
X014574Y016483D01*
X014504Y016453D01*
X014443Y016407D01*
X014397Y016346D01*
X014367Y016276D01*
X014367Y016275D01*
X014575D01*
Y016483D01*
D02*
G37*
G36*
X014933Y016125D02*
X014725D01*
Y015917D01*
X014726Y015917D01*
X014796Y015947D01*
X014857Y015993D01*
X014903Y016054D01*
X014933Y016124D01*
X014933Y016125D01*
D02*
G37*
G36*
X013483Y017225D02*
X013275D01*
Y017017D01*
X013276Y017017D01*
X013346Y017047D01*
X013407Y017093D01*
X013453Y017154D01*
X013483Y017224D01*
X013483Y017225D01*
D02*
G37*
G36*
X012302Y020016D02*
X011575D01*
Y019289D01*
X011658Y019298D01*
X011810Y019344D01*
X011949Y019418D01*
X012072Y019519D01*
X012173Y019642D01*
X012247Y019781D01*
X012293Y019933D01*
X012302Y020016D01*
D02*
G37*
G36*
X011425D02*
X010698D01*
X010707Y019933D01*
X010753Y019781D01*
X010827Y019642D01*
X010928Y019519D01*
X011051Y019418D01*
X011190Y019344D01*
X011342Y019298D01*
X011425Y019289D01*
Y020016D01*
D02*
G37*
G36*
Y020893D02*
X011342Y020884D01*
X011190Y020838D01*
X011051Y020764D01*
X010928Y020663D01*
X010827Y020540D01*
X010753Y020401D01*
X010707Y020249D01*
X010698Y020166D01*
X011425D01*
Y020893D01*
D02*
G37*
G36*
X020400Y022493D02*
X020298Y022480D01*
X020203Y022441D01*
X020122Y022378D01*
X020059Y022297D01*
X020020Y022202D01*
X020007Y022100D01*
X020009Y022080D01*
X018315Y020385D01*
X018273Y020331D01*
X018247Y020268D01*
X018238Y020200D01*
X018238Y020200D01*
Y019540D01*
X018222Y019528D01*
X018159Y019447D01*
X018120Y019352D01*
X018107Y019250D01*
X018120Y019148D01*
X018159Y019053D01*
X018222Y018972D01*
X018303Y018909D01*
X018398Y018870D01*
X018500Y018857D01*
X018602Y018870D01*
X018697Y018909D01*
X018778Y018972D01*
X018841Y019053D01*
X018880Y019148D01*
X018893Y019250D01*
X018880Y019352D01*
X018841Y019447D01*
X018778Y019528D01*
X018762Y019540D01*
Y020091D01*
X020380Y021709D01*
X020400Y021707D01*
X020502Y021720D01*
X020597Y021759D01*
X020678Y021822D01*
X020741Y021903D01*
X020780Y021998D01*
X020793Y022100D01*
X020780Y022202D01*
X020741Y022297D01*
X020678Y022378D01*
X020597Y022441D01*
X020502Y022480D01*
X020400Y022493D01*
D02*
G37*
G36*
X011575Y020893D02*
Y020166D01*
X012302D01*
X012293Y020249D01*
X012247Y020401D01*
X012173Y020540D01*
X012072Y020663D01*
X011949Y020764D01*
X011810Y020838D01*
X011658Y020884D01*
X011575Y020893D01*
D02*
G37*
G36*
X031425Y018933D02*
Y018725D01*
X031633D01*
X031633Y018726D01*
X031603Y018796D01*
X031557Y018857D01*
X031496Y018903D01*
X031426Y018933D01*
X031425Y018933D01*
D02*
G37*
G36*
X013275Y017583D02*
Y017375D01*
X013483D01*
X013483Y017376D01*
X013453Y017446D01*
X013407Y017507D01*
X013346Y017553D01*
X013276Y017583D01*
X013275Y017583D01*
D02*
G37*
G36*
X013125D02*
X013124Y017583D01*
X013054Y017553D01*
X012993Y017507D01*
X012947Y017446D01*
X012917Y017376D01*
X012917Y017375D01*
X013125D01*
Y017583D01*
D02*
G37*
G36*
X031275Y018575D02*
X031067D01*
X031067Y018574D01*
X031097Y018504D01*
X031143Y018443D01*
X031204Y018397D01*
X031274Y018367D01*
X031275Y018367D01*
Y018575D01*
D02*
G37*
G36*
Y018933D02*
X031274Y018933D01*
X031204Y018903D01*
X031143Y018857D01*
X031097Y018796D01*
X031067Y018726D01*
X031067Y018725D01*
X031275D01*
Y018933D01*
D02*
G37*
G36*
X031633Y018575D02*
X031425D01*
Y018367D01*
X031426Y018367D01*
X031496Y018397D01*
X031557Y018443D01*
X031603Y018504D01*
X031633Y018574D01*
X031633Y018575D01*
D02*
G37*
G36*
X039183Y025975D02*
X038975D01*
Y025767D01*
X038976Y025767D01*
X039046Y025797D01*
X039107Y025843D01*
X039153Y025904D01*
X039183Y025974D01*
X039183Y025975D01*
D02*
G37*
G36*
X024583Y037475D02*
X024375D01*
Y037267D01*
X024376Y037267D01*
X024446Y037297D01*
X024507Y037343D01*
X024553Y037404D01*
X024583Y037474D01*
X024583Y037475D01*
D02*
G37*
G36*
X024225D02*
X024017D01*
X024017Y037474D01*
X024047Y037404D01*
X024093Y037343D01*
X024154Y037297D01*
X024224Y037267D01*
X024225Y037267D01*
Y037475D01*
D02*
G37*
G36*
Y037833D02*
X024224Y037833D01*
X024154Y037803D01*
X024093Y037757D01*
X024047Y037696D01*
X024017Y037626D01*
X024017Y037625D01*
X024225D01*
Y037833D01*
D02*
G37*
G36*
X025675Y038875D02*
X025467D01*
X025467Y038874D01*
X025497Y038804D01*
X025543Y038743D01*
X025604Y038697D01*
X025674Y038667D01*
X025675Y038667D01*
Y038875D01*
D02*
G37*
G36*
X024375Y037833D02*
Y037625D01*
X024583D01*
X024583Y037626D01*
X024553Y037696D01*
X024507Y037757D01*
X024446Y037803D01*
X024376Y037833D01*
X024375Y037833D01*
D02*
G37*
G36*
X025575Y035783D02*
Y035575D01*
X025783D01*
X025783Y035576D01*
X025753Y035646D01*
X025707Y035707D01*
X025646Y035753D01*
X025576Y035783D01*
X025575Y035783D01*
D02*
G37*
G36*
X011968Y033747D02*
X011834Y033730D01*
X011709Y033678D01*
X011601Y033595D01*
X011519Y033488D01*
X011467Y033362D01*
X011449Y033228D01*
X011467Y033094D01*
X011519Y032968D01*
X011601Y032861D01*
X011709Y032778D01*
X011834Y032726D01*
X011968Y032709D01*
X012103Y032726D01*
X012228Y032778D01*
X012336Y032861D01*
X012418Y032968D01*
X012470Y033094D01*
X012488Y033228D01*
X012470Y033362D01*
X012418Y033488D01*
X012336Y033595D01*
X012228Y033678D01*
X012103Y033730D01*
X011968Y033747D01*
D02*
G37*
G36*
X013740Y033787D02*
X013595Y033768D01*
X013461Y033712D01*
X013345Y033623D01*
X013256Y033508D01*
X013200Y033373D01*
X013181Y033228D01*
X013200Y033083D01*
X013256Y032948D01*
X013345Y032833D01*
X013461Y032744D01*
X013595Y032688D01*
X013740Y032669D01*
X013885Y032688D01*
X014020Y032744D01*
X014136Y032833D01*
X014224Y032948D01*
X014280Y033083D01*
X014299Y033228D01*
X014280Y033373D01*
X014224Y033508D01*
X014136Y033623D01*
X014020Y033712D01*
X013885Y033768D01*
X013740Y033787D01*
D02*
G37*
G36*
X025425Y035425D02*
X025217D01*
X025217Y035424D01*
X025247Y035354D01*
X025293Y035293D01*
X025354Y035247D01*
X025424Y035217D01*
X025425Y035217D01*
Y035425D01*
D02*
G37*
G36*
Y035783D02*
X025424Y035783D01*
X025354Y035753D01*
X025293Y035707D01*
X025247Y035646D01*
X025217Y035576D01*
X025217Y035575D01*
X025425D01*
Y035783D01*
D02*
G37*
G36*
X025783Y035425D02*
X025575D01*
Y035217D01*
X025576Y035217D01*
X025646Y035247D01*
X025707Y035293D01*
X025753Y035354D01*
X025783Y035424D01*
X025783Y035425D01*
D02*
G37*
G36*
X026033Y038875D02*
X025825D01*
Y038667D01*
X025826Y038667D01*
X025896Y038697D01*
X025957Y038743D01*
X026003Y038804D01*
X026033Y038874D01*
X026033Y038875D01*
D02*
G37*
G36*
X016350Y043730D02*
X016200Y043710D01*
X016060Y043652D01*
X015940Y043560D01*
X015848Y043440D01*
X015821Y043375D01*
X015771D01*
X015765Y043390D01*
X015689Y043489D01*
X015590Y043565D01*
X015474Y043613D01*
X015425Y043619D01*
Y043150D01*
Y042681D01*
X015474Y042687D01*
X015590Y042735D01*
X015689Y042811D01*
X015765Y042910D01*
X015771Y042925D01*
X015821D01*
X015848Y042860D01*
X015940Y042740D01*
X016060Y042648D01*
X016200Y042590D01*
X016350Y042570D01*
X016500Y042590D01*
X016640Y042648D01*
X016760Y042740D01*
X016852Y042860D01*
X016879Y042925D01*
X016929D01*
X016935Y042910D01*
X017011Y042811D01*
X017110Y042735D01*
X017226Y042687D01*
X017275Y042681D01*
Y043150D01*
Y043619D01*
X017226Y043613D01*
X017110Y043565D01*
X017011Y043489D01*
X016935Y043390D01*
X016929Y043375D01*
X016879D01*
X016852Y043440D01*
X016760Y043560D01*
X016640Y043652D01*
X016500Y043710D01*
X016350Y043730D01*
D02*
G37*
G36*
X013275Y043619D02*
X013226Y043613D01*
X013110Y043565D01*
X013011Y043489D01*
X012935Y043390D01*
X012887Y043274D01*
X012881Y043225D01*
X013275D01*
Y043619D01*
D02*
G37*
G36*
X018350Y043730D02*
X018200Y043710D01*
X018060Y043652D01*
X017940Y043560D01*
X017848Y043440D01*
X017821Y043375D01*
X017771D01*
X017765Y043390D01*
X017689Y043489D01*
X017590Y043565D01*
X017474Y043613D01*
X017425Y043619D01*
Y043150D01*
Y042681D01*
X017474Y042687D01*
X017590Y042735D01*
X017689Y042811D01*
X017765Y042910D01*
X017771Y042925D01*
X017821D01*
X017848Y042860D01*
X017940Y042740D01*
X018060Y042648D01*
X018200Y042590D01*
X018350Y042570D01*
X018500Y042590D01*
X018640Y042648D01*
X018760Y042740D01*
X018852Y042860D01*
X018879Y042925D01*
X018929D01*
X018935Y042910D01*
X019011Y042811D01*
X019110Y042735D01*
X019226Y042687D01*
X019275Y042681D01*
Y043150D01*
Y043619D01*
X019226Y043613D01*
X019110Y043565D01*
X019011Y043489D01*
X018935Y043390D01*
X018929Y043375D01*
X018879D01*
X018852Y043440D01*
X018760Y043560D01*
X018640Y043652D01*
X018500Y043710D01*
X018350Y043730D01*
D02*
G37*
G36*
X022925Y043725D02*
X021775D01*
Y043459D01*
X021725Y043442D01*
X021689Y043489D01*
X021590Y043565D01*
X021474Y043613D01*
X021425Y043619D01*
Y043150D01*
Y042681D01*
X021474Y042687D01*
X021590Y042735D01*
X021689Y042811D01*
X021725Y042858D01*
X021775Y042841D01*
Y042575D01*
X022925D01*
Y043725D01*
D02*
G37*
G36*
X020350Y043730D02*
X020200Y043710D01*
X020060Y043652D01*
X019940Y043560D01*
X019848Y043440D01*
X019821Y043375D01*
X019771D01*
X019765Y043390D01*
X019689Y043489D01*
X019590Y043565D01*
X019474Y043613D01*
X019425Y043619D01*
Y043150D01*
Y042681D01*
X019474Y042687D01*
X019590Y042735D01*
X019689Y042811D01*
X019765Y042910D01*
X019771Y042925D01*
X019821D01*
X019848Y042860D01*
X019940Y042740D01*
X020060Y042648D01*
X020200Y042590D01*
X020350Y042570D01*
X020500Y042590D01*
X020640Y042648D01*
X020760Y042740D01*
X020852Y042860D01*
X020879Y042925D01*
X020929D01*
X020935Y042910D01*
X021011Y042811D01*
X021110Y042735D01*
X021226Y042687D01*
X021275Y042681D01*
Y043150D01*
Y043619D01*
X021226Y043613D01*
X021110Y043565D01*
X021011Y043489D01*
X020935Y043390D01*
X020929Y043375D01*
X020879D01*
X020852Y043440D01*
X020760Y043560D01*
X020640Y043652D01*
X020500Y043710D01*
X020350Y043730D01*
D02*
G37*
G36*
X013275Y043075D02*
X012881D01*
X012887Y043026D01*
X012935Y042910D01*
X013011Y042811D01*
X013110Y042735D01*
X013226Y042687D01*
X013275Y042681D01*
Y043075D01*
D02*
G37*
G36*
X025825Y039233D02*
Y039025D01*
X026033D01*
X026033Y039026D01*
X026003Y039096D01*
X025957Y039157D01*
X025896Y039203D01*
X025826Y039233D01*
X025825Y039233D01*
D02*
G37*
G36*
X025675D02*
X025674Y039233D01*
X025604Y039203D01*
X025543Y039157D01*
X025497Y039096D01*
X025467Y039026D01*
X025467Y039025D01*
X025675D01*
Y039233D01*
D02*
G37*
G36*
X012475Y043425D02*
X011575D01*
Y042525D01*
X012475D01*
Y043425D01*
D02*
G37*
G36*
X038475D02*
X037575D01*
Y042525D01*
X038475D01*
Y043425D01*
D02*
G37*
G36*
X037425D02*
X036525D01*
Y042525D01*
X037425D01*
Y043425D01*
D02*
G37*
G36*
X031275Y030633D02*
Y030425D01*
X031483D01*
X031483Y030426D01*
X031453Y030496D01*
X031407Y030557D01*
X031346Y030603D01*
X031276Y030633D01*
X031275Y030633D01*
D02*
G37*
G36*
X035775Y026783D02*
X035774Y026783D01*
X035704Y026753D01*
X035643Y026707D01*
X035597Y026646D01*
X035567Y026576D01*
X035567Y026575D01*
X035775D01*
Y026783D01*
D02*
G37*
G36*
X028133Y026725D02*
X027925D01*
Y026517D01*
X027926Y026517D01*
X027996Y026547D01*
X028057Y026593D01*
X028103Y026654D01*
X028133Y026724D01*
X028133Y026725D01*
D02*
G37*
G36*
X025475Y026875D02*
X025267D01*
X025267Y026874D01*
X025297Y026804D01*
X025343Y026743D01*
X025404Y026697D01*
X025474Y026667D01*
X025475Y026667D01*
Y026875D01*
D02*
G37*
G36*
X027775Y027083D02*
X027774Y027083D01*
X027704Y027053D01*
X027643Y027007D01*
X027597Y026946D01*
X027567Y026876D01*
X027567Y026875D01*
X027775D01*
Y027083D01*
D02*
G37*
G36*
X025833Y026875D02*
X025625D01*
Y026667D01*
X025626Y026667D01*
X025696Y026697D01*
X025757Y026743D01*
X025803Y026804D01*
X025833Y026874D01*
X025833Y026875D01*
D02*
G37*
G36*
X027775Y026725D02*
X027567D01*
X027567Y026724D01*
X027597Y026654D01*
X027643Y026593D01*
X027704Y026547D01*
X027774Y026517D01*
X027775Y026517D01*
Y026725D01*
D02*
G37*
G36*
X038975Y026333D02*
Y026125D01*
X039183D01*
X039183Y026126D01*
X039153Y026196D01*
X039107Y026257D01*
X039046Y026303D01*
X038976Y026333D01*
X038975Y026333D01*
D02*
G37*
G36*
X038825D02*
X038824Y026333D01*
X038754Y026303D01*
X038693Y026257D01*
X038647Y026196D01*
X038617Y026126D01*
X038617Y026125D01*
X038825D01*
Y026333D01*
D02*
G37*
G36*
X035775Y026425D02*
X035567D01*
X035567Y026424D01*
X035597Y026354D01*
X035643Y026293D01*
X035704Y026247D01*
X035774Y026217D01*
X035775Y026217D01*
Y026425D01*
D02*
G37*
G36*
X033100Y026893D02*
X032998Y026880D01*
X032903Y026841D01*
X032822Y026778D01*
X032759Y026697D01*
X032720Y026602D01*
X032707Y026500D01*
X032719Y026406D01*
X032685Y026366D01*
X032652Y026380D01*
X032550Y026393D01*
X032448Y026380D01*
X032353Y026341D01*
X032272Y026278D01*
X032238Y026235D01*
X032046D01*
X032041Y026247D01*
X031978Y026328D01*
X031897Y026391D01*
X031802Y026430D01*
X031700Y026443D01*
X031598Y026430D01*
X031503Y026391D01*
X031422Y026328D01*
X031359Y026247D01*
X031320Y026152D01*
X031307Y026050D01*
X031320Y025948D01*
X031331Y025921D01*
X031333Y025910D01*
X031340Y025901D01*
X031359Y025853D01*
X031422Y025772D01*
X031503Y025709D01*
X031598Y025670D01*
X031700Y025657D01*
X031802Y025670D01*
X031897Y025709D01*
X031970Y025765D01*
X032238D01*
X032272Y025722D01*
X032353Y025659D01*
X032448Y025620D01*
X032550Y025607D01*
X032652Y025620D01*
X032747Y025659D01*
X032828Y025722D01*
X032891Y025803D01*
X032930Y025898D01*
X032943Y026000D01*
X032931Y026094D01*
X032965Y026134D01*
X032998Y026120D01*
X033100Y026107D01*
X033202Y026120D01*
X033297Y026159D01*
X033378Y026222D01*
X033412Y026265D01*
X034053D01*
X034334Y025984D01*
X034410Y025933D01*
X034500Y025915D01*
X034838D01*
X034872Y025872D01*
X034953Y025809D01*
X035048Y025770D01*
X035150Y025757D01*
X035252Y025770D01*
X035347Y025809D01*
X035428Y025872D01*
X035491Y025953D01*
X035530Y026048D01*
X035543Y026150D01*
X035530Y026252D01*
X035491Y026347D01*
X035428Y026428D01*
X035347Y026491D01*
X035252Y026530D01*
X035150Y026543D01*
X035048Y026530D01*
X034953Y026491D01*
X034872Y026428D01*
X034838Y026385D01*
X034597D01*
X034316Y026666D01*
X034240Y026717D01*
X034150Y026735D01*
X033412D01*
X033378Y026778D01*
X033297Y026841D01*
X033202Y026880D01*
X033100Y026893D01*
D02*
G37*
G36*
X036133Y026425D02*
X035925D01*
Y026217D01*
X035926Y026217D01*
X035996Y026247D01*
X036057Y026293D01*
X036103Y026354D01*
X036133Y026424D01*
X036133Y026425D01*
D02*
G37*
G36*
X027925Y027083D02*
Y026875D01*
X028133D01*
X028133Y026876D01*
X028103Y026946D01*
X028057Y027007D01*
X027996Y027053D01*
X027926Y027083D01*
X027925Y027083D01*
D02*
G37*
G36*
X022175Y030383D02*
X022174Y030383D01*
X022104Y030353D01*
X022043Y030307D01*
X021997Y030246D01*
X021967Y030176D01*
X021967Y030175D01*
X022175D01*
Y030383D01*
D02*
G37*
G36*
X031483Y030275D02*
X031275D01*
Y030067D01*
X031276Y030067D01*
X031346Y030097D01*
X031407Y030143D01*
X031453Y030204D01*
X031483Y030274D01*
X031483Y030275D01*
D02*
G37*
G36*
X022325Y030383D02*
Y030175D01*
X022533D01*
X022533Y030176D01*
X022503Y030246D01*
X022457Y030307D01*
X022396Y030353D01*
X022326Y030383D01*
X022325Y030383D01*
D02*
G37*
G36*
X031125Y030633D02*
X031124Y030633D01*
X031054Y030603D01*
X030993Y030557D01*
X030947Y030496D01*
X030917Y030426D01*
X030917Y030425D01*
X031125D01*
Y030633D01*
D02*
G37*
G36*
X035875Y030433D02*
X035874Y030433D01*
X035804Y030403D01*
X035743Y030357D01*
X035697Y030296D01*
X035667Y030226D01*
X035667Y030225D01*
X035875D01*
Y030433D01*
D02*
G37*
G36*
X031125Y030275D02*
X030917D01*
X030917Y030274D01*
X030947Y030204D01*
X030993Y030143D01*
X031054Y030097D01*
X031124Y030067D01*
X031125Y030067D01*
Y030275D01*
D02*
G37*
G36*
X025625Y027233D02*
Y027025D01*
X025833D01*
X025833Y027026D01*
X025803Y027096D01*
X025757Y027157D01*
X025696Y027203D01*
X025626Y027233D01*
X025625Y027233D01*
D02*
G37*
G36*
X025475D02*
X025474Y027233D01*
X025404Y027203D01*
X025343Y027157D01*
X025297Y027096D01*
X025267Y027026D01*
X025267Y027025D01*
X025475D01*
Y027233D01*
D02*
G37*
G36*
X022175Y030025D02*
X021967D01*
X021967Y030024D01*
X021997Y029954D01*
X022043Y029893D01*
X022104Y029847D01*
X022174Y029817D01*
X022175Y029817D01*
Y030025D01*
D02*
G37*
G36*
X035875Y030075D02*
X035667D01*
X035667Y030074D01*
X035697Y030004D01*
X035743Y029943D01*
X035804Y029897D01*
X035874Y029867D01*
X035875Y029867D01*
Y030075D01*
D02*
G37*
G36*
X022533Y030025D02*
X022325D01*
Y029817D01*
X022326Y029817D01*
X022396Y029847D01*
X022457Y029893D01*
X022503Y029954D01*
X022533Y030024D01*
X022533Y030025D01*
D02*
G37*
%LPD*%
D31*
X016750Y042200D02*
X019350D01*
Y040900D02*
Y042200D01*
X015350Y040800D02*
X016750Y042200D01*
X019350D02*
X024050D01*
X024650Y041600D01*
X026200D01*
D32*
X031550Y026000D02*
X032550D01*
X034500Y026150D02*
X035150D01*
X034150Y026500D02*
X034500Y026150D01*
X033100Y026500D02*
X034150D01*
X026350Y023550D02*
Y029300D01*
Y023550D02*
X027400Y022500D01*
X032430Y016670D02*
X033150Y015950D01*
X032430Y016670D02*
Y018830D01*
X032000Y016300D02*
Y019450D01*
Y016300D02*
X033150Y015150D01*
X032000Y019450D02*
X032350Y019800D01*
X033150Y015950D02*
X033250D01*
X022350Y028650D02*
X022400Y028600D01*
Y025900D02*
Y028600D01*
X026700Y028400D02*
X027600Y027500D01*
X029900Y024850D02*
X032050Y022700D01*
X030450Y025250D02*
X032475Y023225D01*
X029300Y024210D02*
Y024250D01*
X029280Y024190D02*
X029300Y024210D01*
X029280Y024190D02*
X031370Y022100D01*
X031700D01*
X027400Y022500D02*
X030500D01*
X021100Y026000D02*
X024850Y022250D01*
X021100Y026000D02*
Y026700D01*
X030500Y022500D02*
X031250Y021750D01*
X032450D01*
X031050Y021300D02*
X031750D01*
X030850Y021500D02*
X031050Y021300D01*
X030850Y021500D02*
Y021800D01*
X031150Y020800D02*
X032350D01*
X030700Y021250D02*
X031150Y020800D01*
X030700Y021250D02*
Y021600D01*
X030400Y022250D02*
X030850Y021800D01*
X024850Y022250D02*
X030400D01*
X030350Y021950D02*
X030700Y021600D01*
X024800Y021950D02*
X030350D01*
X020500Y026250D02*
X024800Y021950D01*
X020500Y026250D02*
Y026750D01*
X024650Y021700D02*
X030300D01*
X019900Y026450D02*
X024650Y021700D01*
X019900Y026450D02*
Y026750D01*
X024350Y021500D02*
X030200D01*
X030300Y021400D01*
Y020700D02*
Y021400D01*
Y021700D02*
X030500Y021500D01*
Y021100D02*
Y021500D01*
Y021100D02*
X031350Y020250D01*
X030125Y020525D02*
X030300Y020700D01*
X031350Y020250D02*
X031750D01*
X030125Y019775D02*
Y020525D01*
Y019775D02*
X030400Y019500D01*
X029400Y020650D02*
X029850Y021100D01*
X024800Y020650D02*
X029400D01*
X016950Y028500D02*
X024800Y020650D01*
X031100Y019250D02*
Y019800D01*
X028500Y018700D02*
X030550D01*
X031100Y019250D01*
X027400Y019800D02*
X028500Y018700D01*
X030700Y020200D02*
X031100Y019800D01*
X017350Y028500D02*
X024350Y021500D01*
X024600Y019800D02*
X027400D01*
X015900Y028500D02*
X024600Y019800D01*
X015900Y028500D02*
Y037950D01*
X024650Y020300D02*
X027450D01*
X016350Y028600D02*
X024650Y020300D01*
X016350Y028600D02*
Y037150D01*
X016950Y028500D02*
Y031800D01*
X017350Y028500D02*
Y032250D01*
X016350Y037150D02*
X017050Y037850D01*
Y039350D01*
X014350Y043150D02*
X014850Y042650D01*
Y039000D02*
Y042650D01*
Y039000D02*
X015900Y037950D01*
X017450Y039750D02*
Y040850D01*
X017050Y039350D02*
X017450Y039750D01*
X027450Y020300D02*
X028150Y019600D01*
X029600D01*
X029800Y019400D01*
X016950Y032650D02*
X017350Y032250D01*
X016950Y032650D02*
Y036550D01*
X030400Y019500D02*
X030650D01*
X018250Y025400D02*
X024300Y019350D01*
X027150D01*
X018150Y025400D02*
X018250D01*
X027150Y019350D02*
X029050Y017450D01*
X022350Y019150D02*
X026450D01*
X026750Y017400D02*
Y018850D01*
X026450Y019150D02*
X026750Y018850D01*
X031000Y015600D02*
X032150Y014450D01*
X028550Y015600D02*
X031000D01*
X026750Y017400D02*
X028550Y015600D01*
X032150Y014450D02*
X032600D01*
X031550Y026000D02*
X031600Y026050D01*
X031700D01*
X033150Y015150D02*
X033250D01*
X015100Y013000D02*
X018200D01*
X018250Y012950D01*
X014800Y012700D02*
X015100Y013000D01*
X014800Y012300D02*
Y012700D01*
X014100Y010600D02*
Y012900D01*
X015100Y013900D02*
X017800D01*
X014100Y012900D02*
X015100Y013900D01*
X014100Y010600D02*
X015800D01*
Y011300D01*
X025850Y041150D02*
X026300Y040700D01*
X024000Y041150D02*
X025850D01*
X023650Y041500D02*
X024000Y041150D01*
X026300Y040000D02*
Y040700D01*
D33*
X032550Y030600D02*
X038000Y025150D01*
X030609Y032541D02*
X032550Y030600D01*
X028600Y026650D02*
X032550Y030600D01*
X020150Y032550D02*
X025541D01*
X025550Y032559D01*
X030541D02*
X030559Y032541D01*
X025550Y032559D02*
X030541D01*
X018825Y033225D02*
X019500Y032550D01*
X017950Y034100D02*
X018825Y033225D01*
X018875D01*
X020450Y034800D01*
X033050Y017500D02*
X034450Y016100D01*
X038000Y019650D01*
X034450Y012300D02*
Y016100D01*
X033450Y011300D02*
X034450Y012300D01*
X016800Y011300D02*
X033450D01*
X038000Y019650D02*
Y025150D01*
X019500Y032550D02*
X020150D01*
X017950Y034100D02*
Y036200D01*
X018500Y020200D02*
X020400Y022100D01*
X018500Y019250D02*
Y020200D01*
X022350Y020050D02*
X022450Y019950D01*
X019700Y020050D02*
X022350D01*
D34*
X037500Y039350D02*
Y040750D01*
X036300Y038150D02*
X037500Y039350D01*
X036300Y027300D02*
Y038150D01*
Y027300D02*
X036950Y026650D01*
X024100Y023850D02*
X024550Y024300D01*
X023750Y023850D02*
X024100D01*
X030559Y032541D02*
X030609D01*
X017450Y023400D02*
X018550Y024500D01*
X017450Y019200D02*
Y023400D01*
Y019200D02*
X020450Y016200D01*
X023200D01*
X018000Y022500D02*
X019550D01*
D35*
X013350Y043150D02*
D03*
X014350D02*
D03*
X015350D02*
D03*
X016350D02*
D03*
X017350D02*
D03*
X018350D02*
D03*
X019350D02*
D03*
X020350D02*
D03*
X021350D02*
D03*
D36*
X022350D02*
D03*
D37*
X014800Y011300D02*
D03*
Y012300D02*
D03*
X015800Y011300D02*
D03*
Y012300D02*
D03*
X016800Y011300D02*
D03*
D38*
Y012300D02*
D03*
D39*
X011500Y043500D02*
D03*
X037500D02*
D03*
X038500Y011500D02*
D03*
X011500D02*
D03*
D40*
X012567Y021969D02*
D03*
Y022953D02*
D03*
X013354D02*
D03*
Y021969D02*
D03*
D41*
X011500Y024831D02*
D03*
Y020091D02*
D03*
D42*
X014650Y016200D02*
D03*
X013850Y016750D02*
D03*
X013200Y017300D02*
D03*
X034850Y025300D02*
D03*
X035900Y024950D02*
D03*
X034300Y024750D02*
D03*
X031350Y018650D02*
D03*
X014500Y025050D02*
D03*
X038900Y026050D02*
D03*
X036950Y026650D02*
D03*
X033100Y026500D02*
D03*
X025550Y026950D02*
D03*
X026350Y029300D02*
D03*
X019700Y020050D02*
D03*
X020450Y034800D02*
D03*
X027850Y026800D02*
D03*
X023750Y023850D02*
D03*
X024550Y024300D02*
D03*
X035850Y026500D02*
D03*
X025500Y035500D02*
D03*
X024300Y037550D02*
D03*
X025750Y038950D02*
D03*
X035950Y030150D02*
D03*
X031200Y030350D02*
D03*
X022250Y030100D02*
D03*
X028600Y026650D02*
D03*
X033050Y017500D02*
D03*
X038000Y025150D02*
D03*
X030559Y032541D02*
D03*
X022350Y028650D02*
D03*
X022400Y025900D02*
D03*
X025550Y032559D02*
D03*
X027600Y027500D02*
D03*
X026700Y028400D02*
D03*
X020150Y032550D02*
D03*
X017950Y036200D02*
D03*
X029900Y024850D02*
D03*
X030450Y025250D02*
D03*
X029300Y024250D02*
D03*
X021100Y026700D02*
D03*
X019900Y026750D02*
D03*
X020500D02*
D03*
X037500Y040750D02*
D03*
X035150Y026150D02*
D03*
X032475Y023225D02*
D03*
X032050Y022700D02*
D03*
X032450Y021750D02*
D03*
X031700Y022100D02*
D03*
X031750Y021300D02*
D03*
X032350Y020800D02*
D03*
X031750Y020250D02*
D03*
X017450Y040850D02*
D03*
X030650Y019500D02*
D03*
X029850Y021100D02*
D03*
X030700Y020200D02*
D03*
X016950Y036550D02*
D03*
Y031800D02*
D03*
X029800Y019400D02*
D03*
X029050Y017450D02*
D03*
X018550Y024500D02*
D03*
X018150Y025400D02*
D03*
X023200Y016200D02*
D03*
X032600Y014450D02*
D03*
X031700Y026050D02*
D03*
X032550Y026000D02*
D03*
X032430Y018830D02*
D03*
X032350Y019800D02*
D03*
X033250Y015950D02*
D03*
Y015150D02*
D03*
X018250Y012950D02*
D03*
X017800Y013900D02*
D03*
X022350Y019150D02*
D03*
X020400Y022100D02*
D03*
X022450Y019950D02*
D03*
X018500Y019250D02*
D03*
X019550Y022500D02*
D03*
X018000D02*
D03*
D43*
X015350Y040800D02*
D03*
X023650Y041500D02*
D03*
X026200Y041600D02*
D03*
X019350Y040900D02*
D03*
X026300Y040000D02*
D03*
M02*
