G04 Layer_Color=65535*
%FSAX24Y24*%
%MOIN*%
G70*
G01*
G75*
%ADD18C,0.0040*%
%ADD19C,0.0100*%
G36*
X015290Y023071D02*
X015295Y023071D01*
X015301Y023070D01*
X015308Y023069D01*
X015315Y023068D01*
X015323Y023067D01*
X015331Y023065D01*
X015340Y023063D01*
X015349Y023061D01*
X015358Y023058D01*
X015367Y023055D01*
X015376Y023051D01*
X015385Y023047D01*
X015385Y023047D01*
X015387Y023046D01*
X015389Y023044D01*
X015393Y023042D01*
X015396Y023040D01*
X015401Y023037D01*
X015406Y023033D01*
X015411Y023028D01*
X015417Y023024D01*
X015423Y023018D01*
X015428Y023012D01*
X015434Y023006D01*
X015440Y022999D01*
X015445Y022991D01*
X015451Y022983D01*
X015456Y022974D01*
X015456Y022974D01*
X015457Y022973D01*
X015457Y022971D01*
X015459Y022968D01*
X015460Y022964D01*
X015462Y022960D01*
X015464Y022955D01*
X015465Y022949D01*
X015467Y022943D01*
X015468Y022936D01*
X015470Y022929D01*
X015472Y022921D01*
X015473Y022912D01*
X015474Y022903D01*
X015475Y022894D01*
Y022884D01*
Y022883D01*
Y022883D01*
Y022880D01*
Y022877D01*
X015474Y022872D01*
X015474Y022866D01*
X015473Y022859D01*
X015472Y022852D01*
X015471Y022844D01*
X015469Y022835D01*
X015467Y022826D01*
X015465Y022817D01*
X015462Y022807D01*
X015459Y022798D01*
X015455Y022790D01*
X015450Y022782D01*
X015445Y022774D01*
X015445Y022773D01*
X015444Y022772D01*
X015442Y022770D01*
X015440Y022767D01*
X015436Y022764D01*
X015433Y022761D01*
X015429Y022757D01*
X015424Y022753D01*
X015418Y022748D01*
X015412Y022744D01*
X015405Y022739D01*
X015398Y022735D01*
X015391Y022732D01*
X015382Y022728D01*
X015373Y022725D01*
X015363Y022723D01*
X015349Y022798D01*
X015350D01*
X015350Y022799D01*
X015352Y022799D01*
X015354Y022800D01*
X015356Y022801D01*
X015359Y022802D01*
X015365Y022805D01*
X015372Y022810D01*
X015379Y022815D01*
X015386Y022821D01*
X015393Y022829D01*
Y022829D01*
X015394Y022830D01*
X015395Y022831D01*
X015395Y022833D01*
X015397Y022835D01*
X015398Y022837D01*
X015400Y022841D01*
X015401Y022844D01*
X015404Y022852D01*
X015407Y022861D01*
X015409Y022872D01*
X015409Y022884D01*
Y022884D01*
Y022886D01*
Y022889D01*
X015409Y022892D01*
X015409Y022896D01*
X015408Y022901D01*
X015407Y022907D01*
X015405Y022912D01*
X015404Y022919D01*
X015402Y022925D01*
X015399Y022932D01*
X015396Y022938D01*
X015392Y022945D01*
X015388Y022951D01*
X015383Y022958D01*
X015377Y022963D01*
X015377Y022964D01*
X015376Y022964D01*
X015374Y022966D01*
X015371Y022968D01*
X015368Y022970D01*
X015364Y022973D01*
X015359Y022975D01*
X015354Y022978D01*
X015347Y022981D01*
X015341Y022983D01*
X015333Y022986D01*
X015324Y022988D01*
X015315Y022990D01*
X015305Y022992D01*
X015295Y022992D01*
X015283Y022993D01*
X015280D01*
X015277Y022992D01*
X015272D01*
X015266Y022992D01*
X015260Y022991D01*
X015253Y022990D01*
X015245Y022989D01*
X015237Y022987D01*
X015229Y022985D01*
X015220Y022983D01*
X015212Y022980D01*
X015204Y022977D01*
X015196Y022973D01*
X015188Y022968D01*
X015182Y022963D01*
X015181Y022962D01*
X015181Y022962D01*
X015179Y022960D01*
X015177Y022958D01*
X015174Y022954D01*
X015171Y022951D01*
X015168Y022946D01*
X015165Y022942D01*
X015162Y022937D01*
X015159Y022930D01*
X015156Y022924D01*
X015154Y022917D01*
X015151Y022910D01*
X015150Y022902D01*
X015149Y022894D01*
X015148Y022885D01*
Y022884D01*
Y022883D01*
Y022882D01*
Y022880D01*
X015149Y022878D01*
Y022876D01*
X015149Y022869D01*
X015151Y022862D01*
X015152Y022854D01*
X015154Y022846D01*
X015158Y022837D01*
Y022836D01*
X015158Y022835D01*
X015158Y022834D01*
X015159Y022832D01*
X015161Y022828D01*
X015164Y022822D01*
X015167Y022816D01*
X015171Y022809D01*
X015175Y022802D01*
X015180Y022795D01*
X015229D01*
Y022882D01*
X015293D01*
Y022718D01*
X015141D01*
X015141Y022718D01*
X015140Y022719D01*
X015139Y022720D01*
X015138Y022722D01*
X015136Y022725D01*
X015133Y022728D01*
X015131Y022731D01*
X015128Y022735D01*
X015124Y022740D01*
X015121Y022745D01*
X015118Y022751D01*
X015115Y022757D01*
X015111Y022764D01*
X015108Y022771D01*
X015104Y022779D01*
X015101Y022787D01*
Y022788D01*
X015100Y022789D01*
X015099Y022792D01*
X015098Y022795D01*
X015097Y022799D01*
X015095Y022804D01*
X015094Y022810D01*
X015092Y022816D01*
X015090Y022823D01*
X015089Y022830D01*
X015087Y022837D01*
X015086Y022846D01*
X015084Y022862D01*
X015083Y022871D01*
X015083Y022880D01*
Y022880D01*
Y022882D01*
Y022885D01*
X015083Y022889D01*
X015084Y022895D01*
X015084Y022901D01*
X015085Y022908D01*
X015086Y022915D01*
X015088Y022923D01*
X015089Y022931D01*
X015091Y022939D01*
X015093Y022949D01*
X015096Y022958D01*
X015099Y022966D01*
X015103Y022975D01*
X015108Y022983D01*
X015108Y022984D01*
X015109Y022985D01*
X015110Y022987D01*
X015112Y022991D01*
X015115Y022994D01*
X015118Y022999D01*
X015122Y023003D01*
X015126Y023008D01*
X015131Y023013D01*
X015136Y023019D01*
X015142Y023024D01*
X015148Y023030D01*
X015155Y023035D01*
X015163Y023040D01*
X015170Y023045D01*
X015179Y023049D01*
X015179Y023050D01*
X015181Y023050D01*
X015183Y023051D01*
X015187Y023053D01*
X015191Y023054D01*
X015197Y023056D01*
X015202Y023058D01*
X015209Y023060D01*
X015216Y023062D01*
X015224Y023065D01*
X015232Y023066D01*
X015241Y023068D01*
X015250Y023069D01*
X015260Y023071D01*
X015270Y023071D01*
X015280Y023072D01*
X015286D01*
X015290Y023071D01*
D02*
G37*
G36*
X015968Y021466D02*
Y021384D01*
X015590Y021233D01*
Y021316D01*
X015676Y021349D01*
Y021500D01*
X015590Y021532D01*
Y021613D01*
X015968Y021466D01*
D02*
G37*
G36*
X015468Y022367D02*
X015404D01*
Y022571D01*
X015321D01*
Y022381D01*
X015257D01*
Y022571D01*
X015154D01*
Y022359D01*
X015090D01*
Y022647D01*
X015468D01*
Y022367D01*
D02*
G37*
G36*
X015968Y020671D02*
Y020671D01*
Y020669D01*
Y020667D01*
Y020664D01*
X015968Y020659D01*
Y020655D01*
Y020650D01*
X015968Y020645D01*
X015967Y020633D01*
X015965Y020621D01*
X015964Y020610D01*
X015962Y020605D01*
X015961Y020600D01*
Y020599D01*
X015961Y020598D01*
X015960Y020596D01*
X015959Y020594D01*
X015958Y020591D01*
X015957Y020588D01*
X015953Y020580D01*
X015948Y020571D01*
X015942Y020561D01*
X015935Y020552D01*
X015926Y020543D01*
X015926Y020542D01*
X015925Y020541D01*
X015924Y020540D01*
X015922Y020539D01*
X015919Y020537D01*
X015916Y020534D01*
X015913Y020532D01*
X015909Y020529D01*
X015905Y020526D01*
X015900Y020523D01*
X015890Y020517D01*
X015878Y020511D01*
X015865Y020507D01*
X015864D01*
X015863Y020506D01*
X015861Y020505D01*
X015858Y020505D01*
X015855Y020504D01*
X015850Y020502D01*
X015845Y020501D01*
X015840Y020500D01*
X015834Y020499D01*
X015827Y020498D01*
X015820Y020497D01*
X015812Y020496D01*
X015803Y020495D01*
X015795Y020494D01*
X015785Y020494D01*
X015768D01*
X015763Y020494D01*
X015759D01*
X015754Y020495D01*
X015748Y020495D01*
X015735Y020497D01*
X015722Y020499D01*
X015708Y020502D01*
X015695Y020506D01*
X015695D01*
X015693Y020507D01*
X015691Y020507D01*
X015688Y020508D01*
X015685Y020510D01*
X015681Y020511D01*
X015676Y020514D01*
X015671Y020516D01*
X015661Y020522D01*
X015649Y020529D01*
X015638Y020537D01*
X015628Y020546D01*
X015628Y020547D01*
X015627Y020547D01*
X015626Y020548D01*
X015625Y020550D01*
X015623Y020552D01*
X015621Y020554D01*
X015619Y020557D01*
X015617Y020560D01*
X015612Y020568D01*
X015607Y020577D01*
X015602Y020588D01*
X015598Y020600D01*
Y020600D01*
X015597Y020601D01*
X015597Y020602D01*
X015597Y020604D01*
X015596Y020607D01*
X015595Y020610D01*
X015595Y020614D01*
X015594Y020618D01*
X015593Y020622D01*
X015592Y020627D01*
X015592Y020633D01*
X015591Y020639D01*
X015591Y020645D01*
X015590Y020652D01*
X015590Y020659D01*
Y020667D01*
Y020811D01*
X015968D01*
Y020671D01*
D02*
G37*
G36*
X015468Y023331D02*
Y023250D01*
X015090Y023099D01*
Y023182D01*
X015176Y023215D01*
Y023366D01*
X015090Y023398D01*
Y023479D01*
X015468Y023331D01*
D02*
G37*
G36*
X015968Y021032D02*
Y021031D01*
Y021029D01*
Y021026D01*
Y021022D01*
X015968Y021017D01*
Y021011D01*
X015968Y021005D01*
X015967Y020998D01*
X015966Y020983D01*
X015964Y020969D01*
X015963Y020962D01*
X015961Y020955D01*
X015960Y020949D01*
X015958Y020944D01*
Y020943D01*
X015958Y020942D01*
X015957Y020941D01*
X015956Y020939D01*
X015955Y020937D01*
X015954Y020934D01*
X015950Y020928D01*
X015945Y020921D01*
X015939Y020914D01*
X015931Y020906D01*
X015922Y020900D01*
X015921D01*
X015920Y020899D01*
X015919Y020898D01*
X015917Y020897D01*
X015915Y020896D01*
X015912Y020894D01*
X015908Y020893D01*
X015904Y020891D01*
X015896Y020888D01*
X015886Y020885D01*
X015875Y020884D01*
X015862Y020883D01*
X015858D01*
X015855Y020883D01*
X015852Y020884D01*
X015847Y020884D01*
X015843Y020885D01*
X015838Y020886D01*
X015826Y020889D01*
X015820Y020891D01*
X015815Y020894D01*
X015809Y020896D01*
X015803Y020900D01*
X015797Y020903D01*
X015792Y020908D01*
X015791Y020908D01*
X015790Y020909D01*
X015789Y020910D01*
X015787Y020912D01*
X015785Y020915D01*
X015783Y020919D01*
X015780Y020922D01*
X015777Y020927D01*
X015774Y020932D01*
X015771Y020937D01*
X015768Y020943D01*
X015765Y020950D01*
X015763Y020958D01*
X015760Y020965D01*
X015758Y020974D01*
X015756Y020983D01*
Y020983D01*
X015756Y020982D01*
X015755Y020981D01*
X015754Y020979D01*
X015751Y020974D01*
X015747Y020969D01*
X015743Y020962D01*
X015737Y020955D01*
X015731Y020948D01*
X015725Y020942D01*
X015724Y020941D01*
X015723Y020940D01*
X015722Y020939D01*
X015720Y020937D01*
X015717Y020935D01*
X015714Y020933D01*
X015711Y020930D01*
X015707Y020928D01*
X015702Y020924D01*
X015697Y020921D01*
X015692Y020917D01*
X015686Y020913D01*
X015679Y020908D01*
X015672Y020903D01*
X015663Y020899D01*
X015590Y020852D01*
Y020944D01*
X015672Y020999D01*
X015673Y020999D01*
X015674Y021000D01*
X015677Y021002D01*
X015679Y021004D01*
X015683Y021006D01*
X015687Y021009D01*
X015696Y021015D01*
X015705Y021022D01*
X015714Y021028D01*
X015718Y021032D01*
X015722Y021035D01*
X015725Y021037D01*
X015728Y021040D01*
X015728Y021040D01*
X015730Y021041D01*
X015731Y021044D01*
X015734Y021047D01*
X015737Y021050D01*
X015739Y021054D01*
X015742Y021058D01*
X015743Y021063D01*
X015744Y021063D01*
X015744Y021065D01*
X015745Y021068D01*
X015746Y021072D01*
X015747Y021077D01*
X015747Y021084D01*
X015748Y021092D01*
Y021101D01*
Y021116D01*
X015590D01*
Y021192D01*
X015968D01*
Y021032D01*
D02*
G37*
G36*
X015786Y022001D02*
X015791D01*
X015797Y022000D01*
X015803Y021999D01*
X015810Y021999D01*
X015818Y021998D01*
X015825Y021997D01*
X015842Y021994D01*
X015858Y021990D01*
X015866Y021987D01*
X015873Y021984D01*
X015874D01*
X015875Y021983D01*
X015876Y021983D01*
X015878Y021981D01*
X015881Y021980D01*
X015884Y021978D01*
X015891Y021975D01*
X015899Y021970D01*
X015908Y021964D01*
X015916Y021957D01*
X015925Y021949D01*
X015926Y021949D01*
X015926Y021948D01*
X015927Y021946D01*
X015929Y021945D01*
X015931Y021943D01*
X015933Y021940D01*
X015938Y021934D01*
X015944Y021927D01*
X015950Y021919D01*
X015955Y021910D01*
X015959Y021900D01*
Y021899D01*
X015960Y021898D01*
X015961Y021896D01*
X015962Y021894D01*
X015963Y021890D01*
X015964Y021886D01*
X015966Y021882D01*
X015967Y021876D01*
X015968Y021871D01*
X015970Y021864D01*
X015971Y021858D01*
X015972Y021851D01*
X015974Y021835D01*
X015975Y021818D01*
Y021818D01*
Y021817D01*
Y021816D01*
Y021814D01*
X015974Y021810D01*
X015974Y021804D01*
X015973Y021797D01*
X015972Y021789D01*
X015970Y021780D01*
X015968Y021770D01*
X015965Y021760D01*
X015962Y021749D01*
X015958Y021738D01*
X015952Y021726D01*
X015947Y021715D01*
X015940Y021705D01*
X015932Y021694D01*
X015923Y021684D01*
X015922Y021684D01*
X015920Y021682D01*
X015917Y021680D01*
X015913Y021677D01*
X015908Y021673D01*
X015901Y021668D01*
X015894Y021664D01*
X015885Y021659D01*
X015875Y021655D01*
X015864Y021650D01*
X015852Y021646D01*
X015840Y021642D01*
X015826Y021639D01*
X015811Y021636D01*
X015795Y021634D01*
X015778Y021634D01*
X015772D01*
X015770Y021634D01*
X015763Y021635D01*
X015755Y021636D01*
X015747Y021637D01*
X015736Y021638D01*
X015726Y021640D01*
X015715Y021643D01*
X015703Y021646D01*
X015691Y021650D01*
X015679Y021655D01*
X015667Y021661D01*
X015656Y021668D01*
X015645Y021675D01*
X015635Y021684D01*
X015634Y021684D01*
X015633Y021687D01*
X015630Y021689D01*
X015626Y021693D01*
X015623Y021698D01*
X015618Y021704D01*
X015614Y021711D01*
X015609Y021719D01*
X015604Y021728D01*
X015599Y021738D01*
X015595Y021749D01*
X015591Y021761D01*
X015588Y021774D01*
X015585Y021787D01*
X015583Y021802D01*
X015583Y021817D01*
Y021818D01*
Y021818D01*
Y021819D01*
Y021821D01*
X015583Y021826D01*
X015584Y021831D01*
X015585Y021838D01*
X015586Y021847D01*
X015587Y021856D01*
X015590Y021866D01*
X015592Y021876D01*
X015596Y021887D01*
X015600Y021899D01*
X015605Y021910D01*
X015611Y021921D01*
X015617Y021931D01*
X015625Y021942D01*
X015634Y021951D01*
X015635Y021952D01*
X015637Y021953D01*
X015640Y021956D01*
X015644Y021959D01*
X015649Y021963D01*
X015656Y021967D01*
X015663Y021971D01*
X015672Y021976D01*
X015681Y021981D01*
X015692Y021985D01*
X015703Y021990D01*
X015716Y021993D01*
X015729Y021996D01*
X015744Y021999D01*
X015760Y022001D01*
X015776Y022001D01*
X015782D01*
X015786Y022001D01*
D02*
G37*
G36*
X015284Y021516D02*
X015291Y021515D01*
X015299Y021514D01*
X015308Y021514D01*
X015318Y021512D01*
X015329Y021510D01*
X015341Y021507D01*
X015353Y021504D01*
X015365Y021500D01*
X015377Y021495D01*
X015389Y021490D01*
X015401Y021484D01*
X015412Y021476D01*
X015422Y021468D01*
X015423Y021467D01*
X015425Y021465D01*
X015427Y021463D01*
X015430Y021459D01*
X015434Y021454D01*
X015439Y021448D01*
X015443Y021441D01*
X015448Y021433D01*
X015453Y021425D01*
X015458Y021415D01*
X015462Y021404D01*
X015466Y021393D01*
X015470Y021381D01*
X015473Y021368D01*
X015474Y021354D01*
X015475Y021339D01*
Y021338D01*
Y021336D01*
X015474Y021333D01*
X015474Y021328D01*
X015473Y021322D01*
X015473Y021315D01*
X015471Y021307D01*
X015469Y021299D01*
X015467Y021290D01*
X015464Y021281D01*
X015461Y021272D01*
X015457Y021263D01*
X015452Y021253D01*
X015447Y021244D01*
X015441Y021235D01*
X015433Y021227D01*
X015433Y021226D01*
X015432Y021225D01*
X015431Y021224D01*
X015429Y021222D01*
X015426Y021220D01*
X015423Y021217D01*
X015420Y021215D01*
X015416Y021212D01*
X015411Y021209D01*
X015406Y021206D01*
X015400Y021202D01*
X015394Y021199D01*
X015387Y021196D01*
X015380Y021193D01*
X015372Y021190D01*
X015364Y021188D01*
X015346Y021263D01*
X015346D01*
X015347Y021263D01*
X015349Y021264D01*
X015351Y021264D01*
X015353Y021265D01*
X015356Y021266D01*
X015363Y021269D01*
X015370Y021273D01*
X015378Y021278D01*
X015385Y021284D01*
X015392Y021291D01*
X015393Y021292D01*
X015393Y021292D01*
X015394Y021293D01*
X015395Y021295D01*
X015396Y021297D01*
X015397Y021299D01*
X015401Y021306D01*
X015404Y021313D01*
X015407Y021322D01*
X015409Y021332D01*
X015409Y021343D01*
Y021343D01*
Y021345D01*
Y021347D01*
X015409Y021350D01*
X015409Y021354D01*
X015408Y021358D01*
X015407Y021362D01*
X015406Y021367D01*
X015404Y021372D01*
X015402Y021378D01*
X015400Y021384D01*
X015397Y021390D01*
X015393Y021395D01*
X015389Y021401D01*
X015384Y021407D01*
X015379Y021411D01*
X015379Y021412D01*
X015378Y021413D01*
X015376Y021414D01*
X015373Y021416D01*
X015370Y021418D01*
X015366Y021420D01*
X015361Y021422D01*
X015355Y021424D01*
X015349Y021427D01*
X015342Y021429D01*
X015334Y021431D01*
X015325Y021433D01*
X015315Y021435D01*
X015305Y021436D01*
X015293Y021437D01*
X015281Y021437D01*
X015274D01*
X015270Y021437D01*
X015263Y021436D01*
X015257Y021436D01*
X015249Y021435D01*
X015241Y021434D01*
X015224Y021431D01*
X015216Y021429D01*
X015208Y021427D01*
X015199Y021424D01*
X015192Y021420D01*
X015185Y021416D01*
X015179Y021412D01*
X015179Y021411D01*
X015178Y021411D01*
X015176Y021409D01*
X015174Y021407D01*
X015172Y021404D01*
X015170Y021402D01*
X015167Y021398D01*
X015164Y021394D01*
X015161Y021389D01*
X015158Y021384D01*
X015156Y021379D01*
X015154Y021372D01*
X015151Y021366D01*
X015150Y021359D01*
X015149Y021352D01*
X015149Y021345D01*
Y021344D01*
Y021343D01*
Y021342D01*
X015149Y021340D01*
Y021337D01*
X015150Y021334D01*
X015151Y021327D01*
X015154Y021318D01*
X015157Y021310D01*
X015162Y021301D01*
X015165Y021297D01*
X015168Y021293D01*
X015168Y021292D01*
X015169Y021292D01*
X015170Y021290D01*
X015172Y021289D01*
X015174Y021287D01*
X015176Y021285D01*
X015179Y021283D01*
X015183Y021280D01*
X015187Y021278D01*
X015191Y021275D01*
X015196Y021272D01*
X015202Y021270D01*
X015208Y021267D01*
X015214Y021265D01*
X015222Y021263D01*
X015229Y021261D01*
X015206Y021186D01*
X015205D01*
X015203Y021187D01*
X015200Y021188D01*
X015196Y021190D01*
X015191Y021192D01*
X015185Y021194D01*
X015178Y021197D01*
X015171Y021200D01*
X015164Y021204D01*
X015156Y021208D01*
X015148Y021213D01*
X015141Y021217D01*
X015133Y021223D01*
X015126Y021229D01*
X015120Y021236D01*
X015113Y021243D01*
X015113Y021244D01*
X015112Y021245D01*
X015110Y021247D01*
X015109Y021250D01*
X015106Y021254D01*
X015104Y021259D01*
X015101Y021264D01*
X015099Y021271D01*
X015096Y021277D01*
X015093Y021285D01*
X015090Y021293D01*
X015088Y021302D01*
X015086Y021312D01*
X015085Y021322D01*
X015084Y021333D01*
X015083Y021344D01*
Y021344D01*
Y021345D01*
Y021347D01*
X015084Y021351D01*
X015084Y021356D01*
X015085Y021363D01*
X015086Y021370D01*
X015088Y021379D01*
X015090Y021388D01*
X015092Y021397D01*
X015096Y021407D01*
X015100Y021418D01*
X015105Y021428D01*
X015111Y021438D01*
X015118Y021448D01*
X015126Y021458D01*
X015135Y021468D01*
X015135Y021468D01*
X015137Y021470D01*
X015140Y021472D01*
X015144Y021475D01*
X015149Y021479D01*
X015156Y021483D01*
X015163Y021487D01*
X015172Y021492D01*
X015181Y021496D01*
X015192Y021501D01*
X015203Y021505D01*
X015216Y021509D01*
X015229Y021511D01*
X015244Y021514D01*
X015259Y021516D01*
X015275Y021516D01*
X015282D01*
X015284Y021516D01*
D02*
G37*
G36*
X015968Y022819D02*
X015820D01*
Y022669D01*
X015968D01*
Y022593D01*
X015590D01*
Y022669D01*
X015756D01*
Y022819D01*
X015590D01*
Y022896D01*
X015968D01*
Y022819D01*
D02*
G37*
G36*
X015784Y023290D02*
X015791Y023290D01*
X015799Y023289D01*
X015808Y023288D01*
X015818Y023287D01*
X015829Y023285D01*
X015841Y023282D01*
X015853Y023279D01*
X015865Y023275D01*
X015877Y023270D01*
X015889Y023265D01*
X015901Y023258D01*
X015912Y023251D01*
X015922Y023242D01*
X015923Y023242D01*
X015925Y023240D01*
X015927Y023238D01*
X015930Y023233D01*
X015934Y023229D01*
X015939Y023223D01*
X015943Y023216D01*
X015948Y023208D01*
X015953Y023199D01*
X015958Y023190D01*
X015962Y023179D01*
X015966Y023168D01*
X015970Y023156D01*
X015973Y023142D01*
X015974Y023128D01*
X015975Y023114D01*
Y023113D01*
Y023111D01*
X015974Y023108D01*
X015974Y023103D01*
X015973Y023097D01*
X015973Y023090D01*
X015971Y023082D01*
X015969Y023074D01*
X015967Y023065D01*
X015964Y023056D01*
X015961Y023047D01*
X015957Y023037D01*
X015952Y023028D01*
X015947Y023019D01*
X015941Y023010D01*
X015933Y023001D01*
X015933Y023001D01*
X015932Y023000D01*
X015931Y022999D01*
X015929Y022997D01*
X015926Y022995D01*
X015923Y022992D01*
X015920Y022990D01*
X015916Y022987D01*
X015911Y022984D01*
X015906Y022980D01*
X015900Y022977D01*
X015894Y022974D01*
X015887Y022971D01*
X015880Y022968D01*
X015872Y022965D01*
X015864Y022962D01*
X015846Y023038D01*
X015846D01*
X015847Y023038D01*
X015849Y023039D01*
X015851Y023039D01*
X015853Y023040D01*
X015856Y023041D01*
X015863Y023044D01*
X015870Y023048D01*
X015878Y023053D01*
X015885Y023059D01*
X015892Y023066D01*
X015893Y023067D01*
X015893Y023067D01*
X015894Y023068D01*
X015895Y023070D01*
X015896Y023072D01*
X015898Y023074D01*
X015901Y023081D01*
X015904Y023088D01*
X015907Y023097D01*
X015909Y023107D01*
X015909Y023118D01*
Y023118D01*
Y023120D01*
Y023122D01*
X015909Y023125D01*
X015909Y023128D01*
X015908Y023133D01*
X015907Y023137D01*
X015906Y023142D01*
X015904Y023147D01*
X015902Y023153D01*
X015900Y023159D01*
X015897Y023165D01*
X015893Y023170D01*
X015889Y023176D01*
X015884Y023181D01*
X015879Y023186D01*
X015879Y023187D01*
X015878Y023188D01*
X015876Y023189D01*
X015873Y023190D01*
X015870Y023192D01*
X015866Y023195D01*
X015861Y023197D01*
X015855Y023199D01*
X015849Y023201D01*
X015842Y023204D01*
X015834Y023206D01*
X015825Y023208D01*
X015815Y023210D01*
X015805Y023211D01*
X015793Y023212D01*
X015781Y023212D01*
X015774D01*
X015770Y023212D01*
X015763Y023211D01*
X015757Y023211D01*
X015749Y023210D01*
X015741Y023209D01*
X015724Y023206D01*
X015716Y023204D01*
X015708Y023201D01*
X015699Y023199D01*
X015692Y023195D01*
X015685Y023191D01*
X015679Y023187D01*
X015679Y023186D01*
X015678Y023185D01*
X015676Y023184D01*
X015674Y023182D01*
X015672Y023179D01*
X015670Y023176D01*
X015667Y023173D01*
X015664Y023169D01*
X015661Y023164D01*
X015658Y023159D01*
X015656Y023154D01*
X015654Y023147D01*
X015652Y023141D01*
X015650Y023134D01*
X015649Y023127D01*
X015649Y023119D01*
Y023119D01*
Y023118D01*
Y023117D01*
X015649Y023115D01*
Y023112D01*
X015650Y023109D01*
X015651Y023101D01*
X015654Y023093D01*
X015657Y023085D01*
X015662Y023076D01*
X015665Y023072D01*
X015668Y023067D01*
X015668Y023067D01*
X015669Y023067D01*
X015670Y023065D01*
X015672Y023064D01*
X015674Y023062D01*
X015676Y023060D01*
X015679Y023058D01*
X015683Y023055D01*
X015687Y023053D01*
X015691Y023050D01*
X015696Y023047D01*
X015702Y023044D01*
X015708Y023042D01*
X015714Y023040D01*
X015722Y023037D01*
X015729Y023035D01*
X015706Y022961D01*
X015705D01*
X015703Y022962D01*
X015700Y022963D01*
X015696Y022964D01*
X015691Y022967D01*
X015685Y022969D01*
X015678Y022971D01*
X015671Y022975D01*
X015664Y022978D01*
X015656Y022983D01*
X015648Y022987D01*
X015641Y022992D01*
X015633Y022998D01*
X015626Y023004D01*
X015620Y023011D01*
X015613Y023018D01*
X015613Y023019D01*
X015612Y023020D01*
X015611Y023022D01*
X015609Y023025D01*
X015606Y023029D01*
X015604Y023034D01*
X015601Y023039D01*
X015599Y023046D01*
X015596Y023052D01*
X015593Y023060D01*
X015590Y023068D01*
X015588Y023077D01*
X015586Y023087D01*
X015585Y023097D01*
X015584Y023108D01*
X015583Y023119D01*
Y023119D01*
Y023119D01*
Y023122D01*
X015584Y023126D01*
X015584Y023131D01*
X015585Y023138D01*
X015586Y023145D01*
X015588Y023154D01*
X015590Y023163D01*
X015592Y023172D01*
X015596Y023182D01*
X015600Y023192D01*
X015605Y023203D01*
X015611Y023213D01*
X015618Y023223D01*
X015626Y023233D01*
X015635Y023242D01*
X015635Y023243D01*
X015637Y023245D01*
X015640Y023247D01*
X015644Y023250D01*
X015649Y023254D01*
X015656Y023258D01*
X015663Y023262D01*
X015672Y023267D01*
X015681Y023271D01*
X015692Y023276D01*
X015703Y023280D01*
X015716Y023283D01*
X015729Y023286D01*
X015744Y023289D01*
X015759Y023290D01*
X015775Y023291D01*
X015782D01*
X015784Y023290D01*
D02*
G37*
G36*
X015465Y022069D02*
X015154D01*
Y021880D01*
X015090D01*
Y022146D01*
X015465D01*
Y022069D01*
D02*
G37*
G36*
X015968Y022216D02*
Y022215D01*
Y022214D01*
Y022212D01*
Y022208D01*
Y022205D01*
Y022201D01*
X015968Y022196D01*
Y022191D01*
X015968Y022180D01*
X015967Y022169D01*
X015966Y022158D01*
X015965Y022154D01*
X015964Y022149D01*
Y022149D01*
Y022148D01*
X015964Y022147D01*
X015964Y022145D01*
X015963Y022141D01*
X015961Y022136D01*
X015959Y022130D01*
X015956Y022123D01*
X015953Y022116D01*
X015949Y022110D01*
Y022109D01*
X015948Y022109D01*
X015947Y022107D01*
X015944Y022104D01*
X015941Y022099D01*
X015936Y022095D01*
X015930Y022090D01*
X015924Y022085D01*
X015917Y022081D01*
X015917D01*
X015916Y022080D01*
X015915Y022079D01*
X015914Y022078D01*
X015910Y022077D01*
X015904Y022074D01*
X015898Y022072D01*
X015890Y022070D01*
X015882Y022069D01*
X015873Y022069D01*
X015870D01*
X015868Y022069D01*
X015866D01*
X015863Y022069D01*
X015857Y022070D01*
X015849Y022072D01*
X015841Y022075D01*
X015833Y022078D01*
X015824Y022083D01*
X015824D01*
X015823Y022084D01*
X015822Y022085D01*
X015820Y022085D01*
X015817Y022089D01*
X015812Y022093D01*
X015806Y022099D01*
X015801Y022106D01*
X015795Y022113D01*
X015791Y022122D01*
Y022122D01*
X015790Y022120D01*
X015790Y022119D01*
X015789Y022116D01*
X015788Y022113D01*
X015786Y022110D01*
X015783Y022102D01*
X015778Y022094D01*
X015772Y022085D01*
X015765Y022076D01*
X015756Y022069D01*
X015756Y022069D01*
X015755Y022068D01*
X015754Y022067D01*
X015752Y022066D01*
X015750Y022065D01*
X015747Y022063D01*
X015744Y022061D01*
X015740Y022060D01*
X015732Y022056D01*
X015722Y022053D01*
X015711Y022051D01*
X015706Y022050D01*
X015695D01*
X015693Y022051D01*
X015690Y022051D01*
X015683Y022052D01*
X015676Y022053D01*
X015667Y022056D01*
X015658Y022058D01*
X015649Y022062D01*
X015649D01*
X015648Y022063D01*
X015647Y022064D01*
X015645Y022065D01*
X015640Y022067D01*
X015635Y022071D01*
X015629Y022076D01*
X015622Y022081D01*
X015616Y022088D01*
X015610Y022095D01*
Y022096D01*
X015610Y022096D01*
X015609Y022097D01*
X015608Y022099D01*
X015607Y022101D01*
X015606Y022104D01*
X015603Y022109D01*
X015599Y022117D01*
X015597Y022126D01*
X015594Y022135D01*
X015592Y022147D01*
Y022147D01*
Y022147D01*
Y022149D01*
X015592Y022151D01*
Y022153D01*
X015592Y022156D01*
Y022160D01*
X015591Y022165D01*
Y022171D01*
X015591Y022177D01*
Y022185D01*
X015590Y022193D01*
Y022203D01*
Y022213D01*
X015590Y022225D01*
Y022238D01*
Y022367D01*
X015968D01*
Y022216D01*
D02*
G37*
G36*
X015465Y021747D02*
X015154D01*
Y021557D01*
X015090D01*
Y021823D01*
X015465D01*
Y021747D01*
D02*
G37*
G36*
X015468Y028240D02*
X015404D01*
Y028444D01*
X015321D01*
Y028254D01*
X015257D01*
Y028444D01*
X015154D01*
Y028232D01*
X015090D01*
Y028520D01*
X015468D01*
Y028240D01*
D02*
G37*
G36*
Y024418D02*
Y024336D01*
X015090Y024185D01*
Y024268D01*
X015176Y024301D01*
Y024452D01*
X015090Y024484D01*
Y024565D01*
X015468Y024418D01*
D02*
G37*
G36*
X015284Y026184D02*
X015291Y026183D01*
X015299Y026183D01*
X015308Y026182D01*
X015318Y026180D01*
X015329Y026178D01*
X015341Y026176D01*
X015353Y026172D01*
X015365Y026169D01*
X015377Y026164D01*
X015389Y026158D01*
X015401Y026152D01*
X015412Y026144D01*
X015422Y026136D01*
X015423Y026135D01*
X015425Y026133D01*
X015427Y026131D01*
X015430Y026127D01*
X015434Y026122D01*
X015439Y026116D01*
X015443Y026109D01*
X015448Y026101D01*
X015453Y026093D01*
X015458Y026083D01*
X015462Y026073D01*
X015466Y026061D01*
X015470Y026049D01*
X015473Y026036D01*
X015474Y026022D01*
X015475Y026008D01*
Y026007D01*
Y026004D01*
X015474Y026001D01*
X015474Y025996D01*
X015473Y025990D01*
X015473Y025983D01*
X015471Y025976D01*
X015469Y025967D01*
X015467Y025959D01*
X015464Y025950D01*
X015461Y025940D01*
X015457Y025931D01*
X015452Y025921D01*
X015447Y025912D01*
X015441Y025903D01*
X015433Y025895D01*
X015433Y025894D01*
X015432Y025894D01*
X015431Y025892D01*
X015429Y025891D01*
X015426Y025888D01*
X015423Y025886D01*
X015420Y025883D01*
X015416Y025880D01*
X015411Y025877D01*
X015406Y025874D01*
X015400Y025871D01*
X015394Y025867D01*
X015387Y025864D01*
X015380Y025861D01*
X015372Y025858D01*
X015364Y025856D01*
X015346Y025931D01*
X015346D01*
X015347Y025932D01*
X015349Y025932D01*
X015351Y025932D01*
X015353Y025933D01*
X015356Y025935D01*
X015363Y025937D01*
X015370Y025941D01*
X015378Y025946D01*
X015385Y025952D01*
X015392Y025960D01*
X015393Y025960D01*
X015393Y025960D01*
X015394Y025962D01*
X015395Y025963D01*
X015396Y025965D01*
X015397Y025968D01*
X015401Y025974D01*
X015404Y025982D01*
X015407Y025990D01*
X015409Y026000D01*
X015409Y026011D01*
Y026012D01*
Y026013D01*
Y026015D01*
X015409Y026018D01*
X015409Y026022D01*
X015408Y026026D01*
X015407Y026030D01*
X015406Y026035D01*
X015404Y026041D01*
X015402Y026046D01*
X015400Y026052D01*
X015397Y026058D01*
X015393Y026064D01*
X015389Y026069D01*
X015384Y026075D01*
X015379Y026080D01*
X015379Y026080D01*
X015378Y026081D01*
X015376Y026082D01*
X015373Y026084D01*
X015370Y026086D01*
X015366Y026088D01*
X015361Y026090D01*
X015355Y026092D01*
X015349Y026095D01*
X015342Y026097D01*
X015334Y026099D01*
X015325Y026101D01*
X015315Y026103D01*
X015305Y026104D01*
X015293Y026105D01*
X015281Y026106D01*
X015274D01*
X015270Y026105D01*
X015263Y026105D01*
X015257Y026104D01*
X015249Y026103D01*
X015241Y026102D01*
X015224Y026099D01*
X015216Y026097D01*
X015208Y026095D01*
X015199Y026092D01*
X015192Y026088D01*
X015185Y026085D01*
X015179Y026080D01*
X015179Y026080D01*
X015178Y026079D01*
X015176Y026077D01*
X015174Y026076D01*
X015172Y026073D01*
X015170Y026070D01*
X015167Y026066D01*
X015164Y026062D01*
X015161Y026058D01*
X015158Y026052D01*
X015156Y026047D01*
X015154Y026041D01*
X015151Y026035D01*
X015150Y026028D01*
X015149Y026020D01*
X015149Y026013D01*
Y026012D01*
Y026012D01*
Y026010D01*
X015149Y026008D01*
Y026005D01*
X015150Y026002D01*
X015151Y025995D01*
X015154Y025987D01*
X015157Y025978D01*
X015162Y025969D01*
X015165Y025965D01*
X015168Y025961D01*
X015168Y025960D01*
X015169Y025960D01*
X015170Y025959D01*
X015172Y025957D01*
X015174Y025955D01*
X015176Y025953D01*
X015179Y025951D01*
X015183Y025948D01*
X015187Y025946D01*
X015191Y025943D01*
X015196Y025941D01*
X015202Y025938D01*
X015208Y025935D01*
X015214Y025933D01*
X015222Y025931D01*
X015229Y025929D01*
X015206Y025855D01*
X015205D01*
X015203Y025855D01*
X015200Y025856D01*
X015196Y025858D01*
X015191Y025860D01*
X015185Y025862D01*
X015178Y025865D01*
X015171Y025868D01*
X015164Y025872D01*
X015156Y025876D01*
X015148Y025881D01*
X015141Y025886D01*
X015133Y025891D01*
X015126Y025898D01*
X015120Y025904D01*
X015113Y025912D01*
X015113Y025912D01*
X015112Y025913D01*
X015110Y025916D01*
X015109Y025919D01*
X015106Y025923D01*
X015104Y025927D01*
X015101Y025932D01*
X015099Y025939D01*
X015096Y025946D01*
X015093Y025953D01*
X015090Y025962D01*
X015088Y025971D01*
X015086Y025980D01*
X015085Y025990D01*
X015084Y026001D01*
X015083Y026012D01*
Y026012D01*
Y026013D01*
Y026015D01*
X015084Y026019D01*
X015084Y026025D01*
X015085Y026031D01*
X015086Y026038D01*
X015088Y026047D01*
X015090Y026056D01*
X015092Y026065D01*
X015096Y026076D01*
X015100Y026086D01*
X015105Y026096D01*
X015111Y026106D01*
X015118Y026117D01*
X015126Y026126D01*
X015135Y026136D01*
X015135Y026136D01*
X015137Y026138D01*
X015140Y026140D01*
X015144Y026143D01*
X015149Y026147D01*
X015156Y026151D01*
X015163Y026156D01*
X015172Y026160D01*
X015181Y026165D01*
X015192Y026169D01*
X015203Y026173D01*
X015216Y026177D01*
X015229Y026180D01*
X015244Y026182D01*
X015259Y026184D01*
X015275Y026184D01*
X015282D01*
X015284Y026184D01*
D02*
G37*
G36*
X015468Y026244D02*
X015090D01*
Y026320D01*
X015468D01*
Y026244D01*
D02*
G37*
G36*
Y024835D02*
X015188Y024739D01*
X015468Y024646D01*
Y024565D01*
X015090Y024700D01*
Y024782D01*
X015468Y024917D01*
Y024835D01*
D02*
G37*
G36*
Y025121D02*
Y025121D01*
Y025119D01*
Y025117D01*
Y025113D01*
X015468Y025109D01*
Y025105D01*
Y025100D01*
X015468Y025094D01*
X015467Y025083D01*
X015465Y025071D01*
X015464Y025060D01*
X015462Y025054D01*
X015461Y025049D01*
Y025049D01*
X015461Y025048D01*
X015460Y025046D01*
X015459Y025044D01*
X015458Y025041D01*
X015457Y025037D01*
X015453Y025030D01*
X015448Y025021D01*
X015442Y025011D01*
X015435Y025002D01*
X015426Y024992D01*
X015426Y024992D01*
X015425Y024991D01*
X015424Y024990D01*
X015422Y024988D01*
X015419Y024987D01*
X015416Y024984D01*
X015413Y024982D01*
X015409Y024979D01*
X015405Y024976D01*
X015400Y024973D01*
X015390Y024967D01*
X015378Y024961D01*
X015365Y024956D01*
X015364D01*
X015363Y024956D01*
X015361Y024955D01*
X015358Y024954D01*
X015355Y024953D01*
X015350Y024952D01*
X015345Y024951D01*
X015340Y024950D01*
X015334Y024949D01*
X015327Y024948D01*
X015320Y024946D01*
X015312Y024946D01*
X015303Y024945D01*
X015295Y024944D01*
X015285Y024944D01*
X015268D01*
X015263Y024944D01*
X015259D01*
X015254Y024944D01*
X015248Y024945D01*
X015235Y024946D01*
X015222Y024948D01*
X015208Y024951D01*
X015195Y024955D01*
X015195D01*
X015193Y024956D01*
X015191Y024957D01*
X015188Y024958D01*
X015185Y024960D01*
X015181Y024961D01*
X015176Y024963D01*
X015171Y024966D01*
X015161Y024971D01*
X015149Y024978D01*
X015138Y024987D01*
X015128Y024996D01*
X015128Y024996D01*
X015127Y024997D01*
X015126Y024998D01*
X015125Y025000D01*
X015123Y025002D01*
X015121Y025004D01*
X015119Y025007D01*
X015117Y025010D01*
X015112Y025018D01*
X015107Y025027D01*
X015102Y025037D01*
X015098Y025049D01*
Y025050D01*
X015097Y025051D01*
X015097Y025052D01*
X015097Y025054D01*
X015096Y025056D01*
X015095Y025060D01*
X015095Y025063D01*
X015094Y025067D01*
X015093Y025072D01*
X015092Y025077D01*
X015092Y025083D01*
X015091Y025089D01*
X015091Y025095D01*
X015090Y025102D01*
X015090Y025109D01*
Y025117D01*
Y025261D01*
X015468D01*
Y025121D01*
D02*
G37*
G36*
Y025534D02*
Y025452D01*
X015090Y025301D01*
Y025384D01*
X015176Y025417D01*
Y025568D01*
X015090Y025600D01*
Y025681D01*
X015468Y025534D01*
D02*
G37*
G36*
Y026547D02*
Y026547D01*
Y026545D01*
Y026541D01*
Y026536D01*
Y026531D01*
X015468Y026524D01*
Y026518D01*
X015468Y026510D01*
X015467Y026495D01*
X015466Y026487D01*
X015466Y026480D01*
X015466Y026473D01*
X015465Y026467D01*
X015464Y026461D01*
X015463Y026457D01*
Y026456D01*
X015462Y026455D01*
X015462Y026454D01*
X015461Y026452D01*
X015460Y026449D01*
X015459Y026445D01*
X015455Y026438D01*
X015450Y026429D01*
X015443Y026420D01*
X015439Y026415D01*
X015435Y026411D01*
X015431Y026406D01*
X015425Y026402D01*
X015425Y026402D01*
X015424Y026402D01*
X015423Y026400D01*
X015420Y026399D01*
X015418Y026397D01*
X015414Y026395D01*
X015410Y026393D01*
X015406Y026391D01*
X015400Y026389D01*
X015395Y026387D01*
X015389Y026385D01*
X015382Y026383D01*
X015375Y026382D01*
X015368Y026381D01*
X015360Y026381D01*
X015352Y026380D01*
X015346D01*
X015343Y026381D01*
X015339Y026381D01*
X015336Y026381D01*
X015331Y026382D01*
X015322Y026383D01*
X015312Y026386D01*
X015302Y026389D01*
X015293Y026393D01*
X015293D01*
X015292Y026393D01*
X015291Y026394D01*
X015289Y026395D01*
X015285Y026398D01*
X015279Y026402D01*
X015274Y026406D01*
X015268Y026412D01*
X015261Y026418D01*
X015256Y026425D01*
Y026426D01*
X015255Y026426D01*
X015254Y026429D01*
X015251Y026432D01*
X015248Y026438D01*
X015245Y026443D01*
X015243Y026450D01*
X015240Y026457D01*
X015238Y026465D01*
Y026465D01*
X015238Y026466D01*
Y026468D01*
X015237Y026470D01*
X015237Y026472D01*
X015236Y026476D01*
X015236Y026480D01*
X015236Y026485D01*
X015235Y026490D01*
X015234Y026496D01*
X015234Y026503D01*
X015234Y026510D01*
X015233Y026518D01*
Y026526D01*
X015233Y026535D01*
Y026544D01*
Y026594D01*
X015090D01*
Y026670D01*
X015468D01*
Y026547D01*
D02*
G37*
G36*
Y027302D02*
Y027301D01*
Y027299D01*
Y027297D01*
Y027292D01*
X015468Y027288D01*
Y027282D01*
X015468Y027275D01*
X015467Y027269D01*
X015466Y027254D01*
X015464Y027240D01*
X015463Y027233D01*
X015461Y027226D01*
X015460Y027219D01*
X015458Y027214D01*
Y027214D01*
X015458Y027213D01*
X015457Y027212D01*
X015456Y027210D01*
X015455Y027207D01*
X015454Y027205D01*
X015450Y027198D01*
X015445Y027191D01*
X015438Y027184D01*
X015431Y027177D01*
X015422Y027170D01*
X015421D01*
X015420Y027169D01*
X015419Y027169D01*
X015417Y027168D01*
X015415Y027166D01*
X015412Y027165D01*
X015408Y027163D01*
X015404Y027162D01*
X015396Y027159D01*
X015386Y027156D01*
X015375Y027154D01*
X015362Y027153D01*
X015358D01*
X015355Y027154D01*
X015352Y027154D01*
X015347Y027155D01*
X015343Y027156D01*
X015338Y027157D01*
X015326Y027160D01*
X015320Y027162D01*
X015315Y027164D01*
X015309Y027167D01*
X015303Y027170D01*
X015297Y027174D01*
X015292Y027178D01*
X015291Y027179D01*
X015290Y027180D01*
X015289Y027181D01*
X015287Y027183D01*
X015285Y027186D01*
X015283Y027189D01*
X015280Y027193D01*
X015277Y027197D01*
X015274Y027202D01*
X015271Y027208D01*
X015268Y027214D01*
X015265Y027221D01*
X015263Y027228D01*
X015260Y027236D01*
X015258Y027244D01*
X015256Y027254D01*
Y027253D01*
X015256Y027252D01*
X015255Y027251D01*
X015254Y027249D01*
X015251Y027245D01*
X015247Y027239D01*
X015243Y027233D01*
X015237Y027226D01*
X015231Y027219D01*
X015225Y027213D01*
X015224Y027212D01*
X015223Y027211D01*
X015222Y027210D01*
X015220Y027208D01*
X015217Y027206D01*
X015214Y027203D01*
X015211Y027201D01*
X015207Y027198D01*
X015202Y027195D01*
X015197Y027191D01*
X015192Y027188D01*
X015186Y027183D01*
X015179Y027179D01*
X015172Y027174D01*
X015163Y027169D01*
X015090Y027123D01*
Y027214D01*
X015172Y027269D01*
X015173Y027270D01*
X015174Y027271D01*
X015177Y027272D01*
X015179Y027274D01*
X015183Y027276D01*
X015187Y027279D01*
X015196Y027285D01*
X015205Y027292D01*
X015214Y027299D01*
X015218Y027302D01*
X015222Y027305D01*
X015225Y027308D01*
X015228Y027310D01*
X015228Y027311D01*
X015230Y027312D01*
X015231Y027314D01*
X015234Y027317D01*
X015237Y027320D01*
X015239Y027324D01*
X015242Y027329D01*
X015243Y027333D01*
X015244Y027333D01*
X015244Y027336D01*
X015245Y027338D01*
X015246Y027342D01*
X015247Y027348D01*
X015247Y027354D01*
X015248Y027362D01*
Y027372D01*
Y027387D01*
X015090D01*
Y027463D01*
X015468D01*
Y027302D01*
D02*
G37*
G36*
Y027512D02*
X015404D01*
Y027624D01*
X015090D01*
Y027700D01*
X015404D01*
Y027812D01*
X015468D01*
Y027512D01*
D02*
G37*
G36*
Y028093D02*
X015214Y027937D01*
X015468D01*
Y027866D01*
X015090D01*
Y027943D01*
X015338Y028096D01*
X015090D01*
Y028167D01*
X015468D01*
Y028093D01*
D02*
G37*
G36*
Y024070D02*
X015214Y023914D01*
X015468D01*
Y023844D01*
X015090D01*
Y023920D01*
X015338Y024073D01*
X015090D01*
Y024144D01*
X015468D01*
Y024070D01*
D02*
G37*
G36*
X015286Y027096D02*
X015291D01*
X015297Y027096D01*
X015303Y027095D01*
X015310Y027095D01*
X015318Y027094D01*
X015325Y027093D01*
X015342Y027090D01*
X015358Y027085D01*
X015366Y027083D01*
X015373Y027080D01*
X015374D01*
X015375Y027079D01*
X015376Y027078D01*
X015378Y027077D01*
X015381Y027076D01*
X015384Y027074D01*
X015391Y027071D01*
X015399Y027066D01*
X015408Y027060D01*
X015416Y027053D01*
X015425Y027045D01*
X015426Y027044D01*
X015426Y027044D01*
X015427Y027042D01*
X015429Y027041D01*
X015431Y027039D01*
X015433Y027036D01*
X015438Y027030D01*
X015444Y027023D01*
X015450Y027014D01*
X015455Y027005D01*
X015459Y026996D01*
Y026995D01*
X015460Y026994D01*
X015461Y026992D01*
X015462Y026989D01*
X015463Y026986D01*
X015464Y026982D01*
X015466Y026978D01*
X015467Y026972D01*
X015468Y026967D01*
X015470Y026960D01*
X015471Y026953D01*
X015472Y026946D01*
X015474Y026931D01*
X015475Y026914D01*
Y026914D01*
Y026913D01*
Y026912D01*
Y026910D01*
X015474Y026906D01*
X015474Y026900D01*
X015473Y026893D01*
X015472Y026885D01*
X015470Y026876D01*
X015468Y026866D01*
X015465Y026855D01*
X015462Y026845D01*
X015458Y026834D01*
X015452Y026822D01*
X015447Y026811D01*
X015440Y026800D01*
X015432Y026790D01*
X015423Y026780D01*
X015422Y026780D01*
X015420Y026778D01*
X015417Y026776D01*
X015413Y026773D01*
X015408Y026768D01*
X015401Y026764D01*
X015394Y026760D01*
X015385Y026755D01*
X015375Y026750D01*
X015364Y026746D01*
X015352Y026741D01*
X015340Y026738D01*
X015326Y026734D01*
X015311Y026732D01*
X015295Y026730D01*
X015278Y026730D01*
X015272D01*
X015270Y026730D01*
X015263Y026731D01*
X015255Y026732D01*
X015247Y026732D01*
X015236Y026734D01*
X015226Y026736D01*
X015215Y026739D01*
X015203Y026742D01*
X015191Y026746D01*
X015179Y026751D01*
X015167Y026757D01*
X015156Y026764D01*
X015145Y026771D01*
X015135Y026780D01*
X015134Y026780D01*
X015133Y026782D01*
X015130Y026785D01*
X015126Y026789D01*
X015123Y026794D01*
X015118Y026800D01*
X015114Y026807D01*
X015109Y026815D01*
X015104Y026824D01*
X015099Y026834D01*
X015095Y026845D01*
X015091Y026857D01*
X015088Y026870D01*
X015085Y026883D01*
X015083Y026898D01*
X015083Y026913D01*
Y026914D01*
Y026914D01*
Y026915D01*
Y026917D01*
X015083Y026921D01*
X015084Y026927D01*
X015085Y026934D01*
X015086Y026943D01*
X015087Y026952D01*
X015090Y026962D01*
X015092Y026972D01*
X015096Y026983D01*
X015100Y026994D01*
X015105Y027005D01*
X015110Y027017D01*
X015117Y027027D01*
X015125Y027037D01*
X015134Y027047D01*
X015135Y027048D01*
X015137Y027049D01*
X015140Y027052D01*
X015144Y027055D01*
X015149Y027059D01*
X015156Y027063D01*
X015163Y027067D01*
X015172Y027072D01*
X015181Y027077D01*
X015192Y027081D01*
X015203Y027085D01*
X015216Y027089D01*
X015229Y027092D01*
X015244Y027095D01*
X015260Y027096D01*
X015276Y027097D01*
X015282D01*
X015286Y027096D01*
D02*
G37*
G36*
X015468Y023489D02*
X015404D01*
Y023601D01*
X015090D01*
Y023677D01*
X015404D01*
Y023789D01*
X015468D01*
Y023489D01*
D02*
G37*
G36*
X015968Y027932D02*
Y027932D01*
Y027930D01*
Y027927D01*
Y027923D01*
X015968Y027918D01*
Y027912D01*
X015968Y027905D01*
X015967Y027899D01*
X015966Y027884D01*
X015964Y027870D01*
X015963Y027863D01*
X015961Y027856D01*
X015960Y027850D01*
X015958Y027844D01*
Y027844D01*
X015958Y027843D01*
X015957Y027842D01*
X015956Y027840D01*
X015955Y027837D01*
X015954Y027835D01*
X015950Y027828D01*
X015945Y027821D01*
X015939Y027814D01*
X015931Y027807D01*
X015922Y027800D01*
X015921D01*
X015920Y027800D01*
X015919Y027799D01*
X015917Y027798D01*
X015915Y027796D01*
X015912Y027795D01*
X015908Y027793D01*
X015904Y027792D01*
X015896Y027789D01*
X015886Y027786D01*
X015875Y027784D01*
X015862Y027784D01*
X015858D01*
X015855Y027784D01*
X015852Y027784D01*
X015847Y027785D01*
X015843Y027786D01*
X015838Y027787D01*
X015826Y027790D01*
X015820Y027792D01*
X015815Y027794D01*
X015809Y027797D01*
X015803Y027800D01*
X015797Y027804D01*
X015792Y027809D01*
X015791Y027809D01*
X015790Y027810D01*
X015789Y027811D01*
X015787Y027813D01*
X015785Y027816D01*
X015783Y027819D01*
X015780Y027823D01*
X015777Y027828D01*
X015774Y027832D01*
X015771Y027838D01*
X015768Y027844D01*
X015765Y027851D01*
X015763Y027858D01*
X015760Y027866D01*
X015758Y027875D01*
X015756Y027884D01*
Y027883D01*
X015756Y027882D01*
X015755Y027881D01*
X015754Y027880D01*
X015751Y027875D01*
X015747Y027869D01*
X015743Y027863D01*
X015737Y027856D01*
X015731Y027849D01*
X015725Y027843D01*
X015724Y027842D01*
X015723Y027841D01*
X015722Y027840D01*
X015720Y027838D01*
X015717Y027836D01*
X015714Y027834D01*
X015711Y027831D01*
X015707Y027828D01*
X015702Y027825D01*
X015697Y027821D01*
X015692Y027818D01*
X015686Y027814D01*
X015679Y027809D01*
X015672Y027804D01*
X015663Y027799D01*
X015590Y027753D01*
Y027844D01*
X015672Y027900D01*
X015673Y027900D01*
X015674Y027901D01*
X015677Y027903D01*
X015679Y027905D01*
X015683Y027907D01*
X015687Y027910D01*
X015696Y027916D01*
X015705Y027923D01*
X015714Y027929D01*
X015718Y027932D01*
X015722Y027935D01*
X015725Y027938D01*
X015728Y027940D01*
X015728Y027941D01*
X015730Y027942D01*
X015731Y027944D01*
X015734Y027947D01*
X015737Y027951D01*
X015739Y027955D01*
X015742Y027959D01*
X015743Y027963D01*
X015744Y027964D01*
X015744Y027966D01*
X015745Y027969D01*
X015746Y027973D01*
X015747Y027978D01*
X015747Y027985D01*
X015748Y027992D01*
Y028002D01*
Y028017D01*
X015590D01*
Y028093D01*
X015968D01*
Y027932D01*
D02*
G37*
G36*
X015786Y028520D02*
X015791D01*
X015797Y028519D01*
X015803Y028518D01*
X015810Y028518D01*
X015818Y028517D01*
X015825Y028516D01*
X015842Y028513D01*
X015858Y028509D01*
X015866Y028506D01*
X015873Y028503D01*
X015874D01*
X015875Y028502D01*
X015876Y028502D01*
X015878Y028500D01*
X015881Y028499D01*
X015884Y028497D01*
X015891Y028494D01*
X015899Y028489D01*
X015908Y028483D01*
X015916Y028476D01*
X015925Y028468D01*
X015926Y028468D01*
X015926Y028467D01*
X015927Y028465D01*
X015929Y028464D01*
X015931Y028462D01*
X015933Y028459D01*
X015938Y028453D01*
X015944Y028446D01*
X015950Y028438D01*
X015955Y028429D01*
X015959Y028419D01*
Y028418D01*
X015960Y028417D01*
X015961Y028415D01*
X015962Y028413D01*
X015963Y028409D01*
X015964Y028405D01*
X015966Y028401D01*
X015967Y028395D01*
X015968Y028390D01*
X015970Y028383D01*
X015971Y028377D01*
X015972Y028370D01*
X015974Y028354D01*
X015975Y028337D01*
Y028337D01*
Y028336D01*
Y028335D01*
Y028333D01*
X015974Y028329D01*
X015974Y028323D01*
X015973Y028316D01*
X015972Y028308D01*
X015970Y028299D01*
X015968Y028289D01*
X015965Y028279D01*
X015962Y028268D01*
X015958Y028257D01*
X015952Y028245D01*
X015947Y028234D01*
X015940Y028224D01*
X015932Y028213D01*
X015923Y028203D01*
X015922Y028203D01*
X015920Y028201D01*
X015917Y028199D01*
X015913Y028196D01*
X015908Y028192D01*
X015901Y028187D01*
X015894Y028183D01*
X015885Y028178D01*
X015875Y028174D01*
X015864Y028169D01*
X015852Y028165D01*
X015840Y028161D01*
X015826Y028158D01*
X015811Y028155D01*
X015795Y028153D01*
X015778Y028153D01*
X015772D01*
X015770Y028153D01*
X015763Y028154D01*
X015755Y028155D01*
X015747Y028156D01*
X015736Y028157D01*
X015726Y028159D01*
X015715Y028162D01*
X015703Y028165D01*
X015691Y028169D01*
X015679Y028174D01*
X015667Y028180D01*
X015656Y028187D01*
X015645Y028194D01*
X015635Y028203D01*
X015634Y028203D01*
X015633Y028206D01*
X015630Y028208D01*
X015626Y028212D01*
X015623Y028217D01*
X015618Y028223D01*
X015614Y028230D01*
X015609Y028238D01*
X015604Y028247D01*
X015599Y028257D01*
X015595Y028268D01*
X015591Y028280D01*
X015588Y028293D01*
X015585Y028306D01*
X015583Y028321D01*
X015583Y028336D01*
Y028337D01*
Y028337D01*
Y028338D01*
Y028340D01*
X015583Y028345D01*
X015584Y028350D01*
X015585Y028357D01*
X015586Y028366D01*
X015587Y028375D01*
X015590Y028385D01*
X015592Y028395D01*
X015596Y028406D01*
X015600Y028417D01*
X015605Y028429D01*
X015611Y028440D01*
X015617Y028450D01*
X015625Y028461D01*
X015634Y028470D01*
X015635Y028471D01*
X015637Y028472D01*
X015640Y028475D01*
X015644Y028478D01*
X015649Y028482D01*
X015656Y028486D01*
X015663Y028490D01*
X015672Y028495D01*
X015681Y028500D01*
X015692Y028504D01*
X015703Y028509D01*
X015716Y028512D01*
X015729Y028515D01*
X015744Y028518D01*
X015760Y028520D01*
X015776Y028520D01*
X015782D01*
X015786Y028520D01*
D02*
G37*
G36*
X015283Y020108D02*
X015290D01*
X015299Y020107D01*
X015309Y020106D01*
X015320Y020105D01*
X015331Y020103D01*
X015343Y020101D01*
X015356Y020099D01*
X015368Y020096D01*
X015381Y020092D01*
X015393Y020088D01*
X015404Y020083D01*
X015414Y020076D01*
X015423Y020070D01*
X015424Y020069D01*
X015425Y020068D01*
X015427Y020066D01*
X015431Y020063D01*
X015434Y020059D01*
X015438Y020054D01*
X015442Y020049D01*
X015447Y020043D01*
X015451Y020036D01*
X015455Y020028D01*
X015459Y020020D01*
X015462Y020011D01*
X015466Y020002D01*
X015468Y019992D01*
X015469Y019981D01*
X015470Y019970D01*
Y019969D01*
Y019968D01*
Y019966D01*
X015469Y019962D01*
X015469Y019959D01*
X015468Y019955D01*
X015468Y019950D01*
X015467Y019945D01*
X015464Y019933D01*
X015462Y019928D01*
X015459Y019921D01*
X015457Y019916D01*
X015453Y019910D01*
X015450Y019904D01*
X015445Y019899D01*
X015445Y019898D01*
X015444Y019897D01*
X015443Y019896D01*
X015441Y019894D01*
X015438Y019892D01*
X015435Y019889D01*
X015432Y019886D01*
X015427Y019883D01*
X015423Y019880D01*
X015417Y019877D01*
X015411Y019874D01*
X015405Y019871D01*
X015398Y019869D01*
X015391Y019866D01*
X015383Y019864D01*
X015375Y019862D01*
X015367Y019933D01*
X015368D01*
X015371Y019933D01*
X015375Y019934D01*
X015379Y019935D01*
X015384Y019937D01*
X015389Y019940D01*
X015395Y019943D01*
X015399Y019946D01*
X015399Y019947D01*
X015400Y019949D01*
X015402Y019951D01*
X015404Y019954D01*
X015406Y019958D01*
X015408Y019963D01*
X015409Y019968D01*
X015409Y019974D01*
Y019975D01*
Y019975D01*
Y019976D01*
X015409Y019978D01*
X015408Y019983D01*
X015407Y019988D01*
X015404Y019994D01*
X015401Y020001D01*
X015398Y020004D01*
X015395Y020007D01*
X015392Y020010D01*
X015388Y020013D01*
X015388D01*
X015388Y020014D01*
X015386Y020015D01*
X015384Y020016D01*
X015382Y020017D01*
X015379Y020019D01*
X015375Y020020D01*
X015370Y020022D01*
X015365Y020023D01*
X015359Y020025D01*
X015352Y020027D01*
X015343Y020028D01*
X015335Y020030D01*
X015325Y020031D01*
X015314Y020033D01*
X015302Y020033D01*
X015303Y020033D01*
X015304Y020032D01*
X015305Y020031D01*
X015307Y020028D01*
X015310Y020026D01*
X015313Y020023D01*
X015316Y020019D01*
X015319Y020015D01*
X015322Y020010D01*
X015325Y020005D01*
X015327Y019999D01*
X015330Y019993D01*
X015332Y019987D01*
X015334Y019980D01*
X015334Y019973D01*
X015335Y019966D01*
Y019965D01*
Y019964D01*
X015334Y019961D01*
Y019958D01*
X015334Y019954D01*
X015333Y019950D01*
X015332Y019944D01*
X015330Y019939D01*
X015329Y019933D01*
X015326Y019927D01*
X015323Y019920D01*
X015320Y019914D01*
X015316Y019907D01*
X015311Y019901D01*
X015306Y019894D01*
X015300Y019888D01*
X015300Y019887D01*
X015298Y019887D01*
X015296Y019885D01*
X015294Y019883D01*
X015290Y019880D01*
X015286Y019878D01*
X015281Y019875D01*
X015276Y019871D01*
X015270Y019869D01*
X015263Y019866D01*
X015256Y019863D01*
X015248Y019860D01*
X015239Y019858D01*
X015231Y019857D01*
X015221Y019856D01*
X015211Y019855D01*
X015208D01*
X015205Y019856D01*
X015202D01*
X015197Y019857D01*
X015191Y019857D01*
X015184Y019858D01*
X015177Y019860D01*
X015170Y019862D01*
X015163Y019864D01*
X015155Y019867D01*
X015147Y019870D01*
X015140Y019874D01*
X015132Y019878D01*
X015125Y019884D01*
X015118Y019890D01*
X015117Y019890D01*
X015116Y019892D01*
X015115Y019893D01*
X015113Y019896D01*
X015110Y019899D01*
X015107Y019903D01*
X015104Y019908D01*
X015101Y019914D01*
X015097Y019919D01*
X015094Y019926D01*
X015091Y019933D01*
X015088Y019941D01*
X015086Y019949D01*
X015085Y019958D01*
X015083Y019967D01*
X015083Y019977D01*
Y019978D01*
Y019980D01*
X015083Y019983D01*
X015084Y019987D01*
X015084Y019992D01*
X015085Y019997D01*
X015087Y020003D01*
X015089Y020010D01*
X015091Y020018D01*
X015094Y020026D01*
X015097Y020033D01*
X015102Y020041D01*
X015107Y020049D01*
X015113Y020057D01*
X015120Y020065D01*
X015127Y020072D01*
X015128Y020072D01*
X015129Y020073D01*
X015132Y020075D01*
X015136Y020077D01*
X015141Y020080D01*
X015147Y020083D01*
X015154Y020086D01*
X015162Y020090D01*
X015172Y020093D01*
X015183Y020097D01*
X015195Y020099D01*
X015208Y020102D01*
X015222Y020105D01*
X015238Y020106D01*
X015255Y020108D01*
X015273Y020108D01*
X015280D01*
X015283Y020108D01*
D02*
G37*
G36*
X015374Y020382D02*
X015374Y020382D01*
X015375Y020380D01*
X015375Y020378D01*
X015377Y020375D01*
X015378Y020372D01*
X015379Y020368D01*
X015382Y020364D01*
X015386Y020355D01*
X015392Y020345D01*
X015400Y020334D01*
X015409Y020321D01*
X015409Y020321D01*
X015410Y020320D01*
X015411Y020318D01*
X015413Y020316D01*
X015416Y020313D01*
X015419Y020310D01*
X015422Y020307D01*
X015426Y020303D01*
X015435Y020295D01*
X015445Y020288D01*
X015457Y020281D01*
X015463Y020278D01*
X015470Y020276D01*
Y020217D01*
X015090D01*
Y020289D01*
X015363D01*
X015362Y020290D01*
X015361Y020291D01*
X015359Y020293D01*
X015357Y020296D01*
X015354Y020300D01*
X015350Y020305D01*
X015346Y020310D01*
X015342Y020316D01*
X015337Y020322D01*
X015333Y020329D01*
X015328Y020337D01*
X015324Y020345D01*
X015319Y020354D01*
X015315Y020363D01*
X015311Y020373D01*
X015308Y020383D01*
X015374D01*
Y020382D01*
D02*
G37*
G36*
X015968Y027313D02*
X015820D01*
Y027162D01*
X015968D01*
Y027086D01*
X015590D01*
Y027162D01*
X015756D01*
Y027313D01*
X015590D01*
Y027389D01*
X015968D01*
Y027313D01*
D02*
G37*
G36*
Y027438D02*
X015904D01*
Y027550D01*
X015590D01*
Y027626D01*
X015904D01*
Y027738D01*
X015968D01*
Y027438D01*
D02*
G37*
G36*
X016374Y027294D02*
X016374Y027293D01*
X016375Y027291D01*
X016375Y027289D01*
X016377Y027286D01*
X016378Y027283D01*
X016379Y027280D01*
X016382Y027276D01*
X016386Y027267D01*
X016392Y027256D01*
X016400Y027245D01*
X016409Y027233D01*
X016409Y027232D01*
X016410Y027231D01*
X016411Y027229D01*
X016413Y027227D01*
X016416Y027224D01*
X016419Y027222D01*
X016422Y027218D01*
X016426Y027215D01*
X016435Y027207D01*
X016445Y027199D01*
X016457Y027192D01*
X016463Y027190D01*
X016470Y027187D01*
Y027128D01*
X016090D01*
Y027201D01*
X016363D01*
X016362Y027201D01*
X016361Y027202D01*
X016359Y027205D01*
X016357Y027208D01*
X016354Y027211D01*
X016350Y027216D01*
X016346Y027221D01*
X016342Y027227D01*
X016337Y027234D01*
X016333Y027241D01*
X016328Y027249D01*
X016324Y027257D01*
X016319Y027265D01*
X016315Y027275D01*
X016311Y027284D01*
X016308Y027294D01*
X016374D01*
Y027294D01*
D02*
G37*
G36*
X016287Y028195D02*
X016294D01*
X016303Y028194D01*
X016313Y028193D01*
X016324Y028192D01*
X016336Y028191D01*
X016349Y028189D01*
X016361Y028186D01*
X016374Y028183D01*
X016387Y028180D01*
X016399Y028176D01*
X016411Y028171D01*
X016421Y028165D01*
X016431Y028158D01*
X016431Y028158D01*
X016432Y028157D01*
X016434Y028155D01*
X016437Y028153D01*
X016440Y028149D01*
X016443Y028146D01*
X016447Y028141D01*
X016450Y028136D01*
X016454Y028130D01*
X016457Y028124D01*
X016461Y028117D01*
X016464Y028109D01*
X016466Y028101D01*
X016468Y028092D01*
X016469Y028083D01*
X016470Y028073D01*
Y028072D01*
Y028070D01*
X016469Y028067D01*
Y028064D01*
X016468Y028059D01*
X016468Y028054D01*
X016466Y028048D01*
X016465Y028041D01*
X016463Y028035D01*
X016460Y028028D01*
X016457Y028020D01*
X016453Y028013D01*
X016449Y028006D01*
X016443Y027999D01*
X016437Y027993D01*
X016430Y027987D01*
X016430Y027986D01*
X016428Y027985D01*
X016425Y027983D01*
X016421Y027981D01*
X016416Y027978D01*
X016410Y027975D01*
X016402Y027971D01*
X016393Y027968D01*
X016384Y027965D01*
X016372Y027961D01*
X016359Y027958D01*
X016345Y027955D01*
X016330Y027953D01*
X016313Y027951D01*
X016295Y027950D01*
X016276Y027950D01*
X016269D01*
X016266Y027950D01*
X016259D01*
X016250Y027951D01*
X016240Y027952D01*
X016229Y027953D01*
X016217Y027954D01*
X016204Y027956D01*
X016191Y027959D01*
X016178Y027962D01*
X016165Y027965D01*
X016154Y027970D01*
X016142Y027975D01*
X016131Y027980D01*
X016122Y027987D01*
X016121Y027987D01*
X016120Y027988D01*
X016118Y027990D01*
X016115Y027993D01*
X016113Y027996D01*
X016109Y028000D01*
X016106Y028004D01*
X016102Y028009D01*
X016099Y028015D01*
X016095Y028021D01*
X016092Y028028D01*
X016089Y028036D01*
X016087Y028044D01*
X016085Y028053D01*
X016083Y028063D01*
X016083Y028073D01*
Y028073D01*
Y028075D01*
X016083Y028078D01*
X016084Y028082D01*
X016084Y028087D01*
X016085Y028092D01*
X016087Y028098D01*
X016088Y028105D01*
X016090Y028112D01*
X016093Y028119D01*
X016097Y028126D01*
X016101Y028133D01*
X016106Y028141D01*
X016111Y028148D01*
X016118Y028155D01*
X016125Y028162D01*
X016126Y028162D01*
X016127Y028163D01*
X016130Y028165D01*
X016133Y028167D01*
X016138Y028169D01*
X016145Y028172D01*
X016152Y028175D01*
X016160Y028178D01*
X016170Y028182D01*
X016181Y028185D01*
X016193Y028187D01*
X016207Y028190D01*
X016222Y028192D01*
X016239Y028194D01*
X016257Y028195D01*
X016277Y028195D01*
X016284D01*
X016287Y028195D01*
D02*
G37*
G36*
X013012Y013207D02*
X013011Y013202D01*
Y013196D01*
X013010Y013189D01*
X013009Y013174D01*
X013008Y013160D01*
X013008Y013154D01*
X013007Y013147D01*
X013007Y013142D01*
X013006Y013137D01*
X013006Y013132D01*
X013005Y013129D01*
Y013127D01*
Y013126D01*
X013010Y013129D01*
X013015Y013132D01*
X013028Y013138D01*
X013041Y013143D01*
X013054Y013148D01*
X013066Y013153D01*
X013071Y013155D01*
X013075Y013156D01*
X013079Y013158D01*
X013082Y013159D01*
X013084Y013160D01*
X013084D01*
X013100Y013111D01*
X013085Y013107D01*
X013070Y013103D01*
X013056Y013100D01*
X013043Y013097D01*
X013037Y013096D01*
X013032Y013095D01*
X013027Y013094D01*
X013024Y013093D01*
X013020Y013093D01*
X013018Y013092D01*
X013016Y013091D01*
X013016D01*
X013019Y013088D01*
X013024Y013084D01*
X013028Y013080D01*
X013032Y013075D01*
X013042Y013064D01*
X013051Y013054D01*
X013060Y013043D01*
X013063Y013039D01*
X013067Y013035D01*
X013069Y013032D01*
X013072Y013029D01*
X013073Y013028D01*
X013073Y013027D01*
X013032Y012998D01*
X013025Y013008D01*
X013018Y013020D01*
X013010Y013033D01*
X013003Y013044D01*
X012997Y013055D01*
X012995Y013059D01*
X012992Y013064D01*
X012990Y013067D01*
X012989Y013069D01*
X012988Y013071D01*
Y013071D01*
X012978Y013055D01*
X012969Y013040D01*
X012961Y013028D01*
X012954Y013017D01*
X012951Y013013D01*
X012948Y013009D01*
X012946Y013006D01*
X012944Y013003D01*
X012943Y013001D01*
X012942Y012999D01*
X012941Y012999D01*
Y012998D01*
X012900Y013027D01*
X012907Y013035D01*
X012913Y013043D01*
X012919Y013050D01*
X012925Y013057D01*
X012930Y013063D01*
X012935Y013068D01*
X012939Y013072D01*
X012943Y013077D01*
X012950Y013083D01*
X012955Y013088D01*
X012957Y013090D01*
X012959Y013091D01*
X012943Y013094D01*
X012927Y013096D01*
X012913Y013100D01*
X012900Y013103D01*
X012894Y013105D01*
X012889Y013106D01*
X012884Y013107D01*
X012881Y013109D01*
X012877Y013110D01*
X012875Y013111D01*
X012873Y013111D01*
X012873D01*
X012889Y013160D01*
X012905Y013154D01*
X012921Y013148D01*
X012935Y013142D01*
X012947Y013137D01*
X012951Y013135D01*
X012956Y013133D01*
X012960Y013131D01*
X012964Y013130D01*
X012966Y013128D01*
X012968Y013128D01*
X012970Y013126D01*
X012970D01*
X012968Y013145D01*
X012966Y013161D01*
X012965Y013169D01*
X012965Y013176D01*
X012964Y013183D01*
Y013189D01*
X012963Y013194D01*
X012962Y013198D01*
Y013203D01*
X012962Y013206D01*
Y013209D01*
Y013211D01*
Y013212D01*
Y013212D01*
X013012D01*
Y013207D01*
D02*
G37*
G36*
X016468Y028488D02*
X016188Y028392D01*
X016468Y028299D01*
Y028218D01*
X016090Y028353D01*
Y028435D01*
X016468Y028570D01*
Y028488D01*
D02*
G37*
G36*
X016163Y027372D02*
X016090D01*
Y027445D01*
X016163D01*
Y027372D01*
D02*
G37*
G36*
X016374Y027734D02*
X016374Y027734D01*
X016375Y027732D01*
X016375Y027730D01*
X016377Y027727D01*
X016378Y027724D01*
X016379Y027720D01*
X016382Y027716D01*
X016386Y027707D01*
X016392Y027697D01*
X016400Y027686D01*
X016409Y027673D01*
X016409Y027673D01*
X016410Y027672D01*
X016411Y027670D01*
X016413Y027668D01*
X016416Y027665D01*
X016419Y027662D01*
X016422Y027659D01*
X016426Y027655D01*
X016435Y027648D01*
X016445Y027640D01*
X016457Y027633D01*
X016463Y027630D01*
X016470Y027628D01*
Y027569D01*
X016090D01*
Y027641D01*
X016363D01*
X016362Y027642D01*
X016361Y027643D01*
X016359Y027645D01*
X016357Y027648D01*
X016354Y027652D01*
X016350Y027657D01*
X016346Y027662D01*
X016342Y027668D01*
X016337Y027675D01*
X016333Y027682D01*
X016328Y027689D01*
X016324Y027698D01*
X016319Y027706D01*
X016315Y027716D01*
X016311Y027725D01*
X016308Y027735D01*
X016374D01*
Y027734D01*
D02*
G37*
G36*
X016163Y027813D02*
X016090D01*
Y027886D01*
X016163D01*
Y027813D01*
D02*
G37*
G36*
X015720Y025044D02*
X015720D01*
X015718Y025043D01*
X015716Y025043D01*
X015714Y025042D01*
X015711Y025042D01*
X015707Y025040D01*
X015699Y025038D01*
X015690Y025034D01*
X015681Y025029D01*
X015672Y025024D01*
X015668Y025020D01*
X015665Y025017D01*
Y025016D01*
X015664Y025016D01*
X015663Y025015D01*
X015662Y025013D01*
X015661Y025011D01*
X015659Y025008D01*
X015658Y025005D01*
X015656Y025002D01*
X015653Y024994D01*
X015650Y024984D01*
X015648Y024973D01*
X015647Y024961D01*
Y024960D01*
Y024959D01*
Y024957D01*
X015648Y024955D01*
Y024951D01*
X015648Y024948D01*
X015649Y024940D01*
X015651Y024931D01*
X015654Y024921D01*
X015658Y024912D01*
X015660Y024908D01*
X015663Y024905D01*
Y024904D01*
X015664Y024904D01*
X015666Y024902D01*
X015669Y024898D01*
X015673Y024895D01*
X015679Y024892D01*
X015685Y024889D01*
X015692Y024887D01*
X015696Y024886D01*
X015702D01*
X015704Y024886D01*
X015707Y024887D01*
X015711Y024888D01*
X015715Y024889D01*
X015719Y024891D01*
X015722Y024894D01*
X015723Y024894D01*
X015724Y024896D01*
X015726Y024898D01*
X015728Y024900D01*
X015731Y024904D01*
X015733Y024909D01*
X015736Y024914D01*
X015739Y024921D01*
X015739Y024922D01*
Y024923D01*
X015740Y024924D01*
X015740Y024926D01*
X015741Y024928D01*
X015742Y024931D01*
X015743Y024934D01*
X015744Y024938D01*
X015745Y024942D01*
X015746Y024947D01*
X015748Y024953D01*
X015749Y024959D01*
X015751Y024966D01*
X015753Y024974D01*
X015755Y024983D01*
Y024983D01*
X015756Y024985D01*
X015757Y024988D01*
X015758Y024992D01*
X015759Y024998D01*
X015761Y025003D01*
X015763Y025010D01*
X015765Y025016D01*
X015771Y025030D01*
X015777Y025045D01*
X015781Y025051D01*
X015785Y025058D01*
X015788Y025064D01*
X015793Y025069D01*
X015793Y025069D01*
X015794Y025070D01*
X015796Y025072D01*
X015798Y025074D01*
X015801Y025077D01*
X015805Y025080D01*
X015809Y025083D01*
X015814Y025086D01*
X015819Y025089D01*
X015825Y025092D01*
X015831Y025095D01*
X015838Y025098D01*
X015845Y025100D01*
X015853Y025102D01*
X015861Y025103D01*
X015869Y025103D01*
X015872D01*
X015874Y025103D01*
X015876D01*
X015879Y025103D01*
X015886Y025101D01*
X015895Y025099D01*
X015904Y025096D01*
X015913Y025092D01*
X015923Y025087D01*
X015923D01*
X015924Y025086D01*
X015925Y025085D01*
X015927Y025084D01*
X015932Y025080D01*
X015937Y025075D01*
X015943Y025068D01*
X015950Y025060D01*
X015956Y025051D01*
X015961Y025040D01*
Y025040D01*
X015961Y025039D01*
X015962Y025037D01*
X015963Y025035D01*
X015964Y025031D01*
X015965Y025028D01*
X015966Y025024D01*
X015968Y025019D01*
X015969Y025014D01*
X015970Y025008D01*
X015971Y025002D01*
X015973Y024996D01*
X015973Y024988D01*
X015974Y024981D01*
X015975Y024965D01*
Y024965D01*
Y024964D01*
Y024962D01*
Y024958D01*
X015974Y024954D01*
X015974Y024948D01*
X015973Y024941D01*
X015972Y024933D01*
X015970Y024925D01*
X015969Y024917D01*
X015967Y024908D01*
X015964Y024899D01*
X015961Y024890D01*
X015958Y024882D01*
X015953Y024873D01*
X015949Y024865D01*
X015943Y024858D01*
X015943Y024858D01*
X015942Y024857D01*
X015940Y024855D01*
X015937Y024853D01*
X015934Y024850D01*
X015930Y024847D01*
X015926Y024844D01*
X015921Y024840D01*
X015915Y024837D01*
X015909Y024833D01*
X015902Y024830D01*
X015895Y024827D01*
X015887Y024824D01*
X015878Y024822D01*
X015869Y024821D01*
X015860Y024820D01*
X015857Y024896D01*
X015857D01*
X015858Y024897D01*
X015860D01*
X015861Y024897D01*
X015864Y024898D01*
X015867Y024899D01*
X015873Y024901D01*
X015879Y024904D01*
X015886Y024907D01*
X015893Y024912D01*
X015898Y024918D01*
X015899Y024919D01*
X015900Y024921D01*
X015902Y024924D01*
X015905Y024930D01*
X015907Y024937D01*
X015909Y024945D01*
X015911Y024955D01*
X015911Y024966D01*
Y024967D01*
Y024968D01*
Y024969D01*
Y024971D01*
X015911Y024974D01*
X015911Y024978D01*
X015910Y024985D01*
X015908Y024994D01*
X015906Y025003D01*
X015902Y025011D01*
X015898Y025019D01*
X015897Y025019D01*
X015896Y025020D01*
X015894Y025022D01*
X015891Y025024D01*
X015888Y025027D01*
X015884Y025028D01*
X015879Y025030D01*
X015874Y025030D01*
X015872D01*
X015869Y025030D01*
X015866Y025029D01*
X015863Y025028D01*
X015859Y025026D01*
X015855Y025023D01*
X015851Y025019D01*
X015851Y025019D01*
X015850Y025018D01*
X015849Y025016D01*
X015848Y025015D01*
X015847Y025012D01*
X015845Y025009D01*
X015843Y025005D01*
X015842Y025001D01*
X015840Y024996D01*
X015838Y024990D01*
X015836Y024984D01*
X015833Y024976D01*
X015831Y024968D01*
X015828Y024959D01*
X015826Y024949D01*
Y024948D01*
X015825Y024947D01*
X015825Y024944D01*
X015824Y024940D01*
X015822Y024935D01*
X015821Y024930D01*
X015819Y024924D01*
X015818Y024918D01*
X015813Y024905D01*
X015809Y024891D01*
X015806Y024885D01*
X015804Y024878D01*
X015801Y024872D01*
X015799Y024867D01*
Y024866D01*
X015798Y024866D01*
X015797Y024864D01*
X015796Y024862D01*
X015793Y024857D01*
X015789Y024851D01*
X015783Y024845D01*
X015777Y024838D01*
X015769Y024831D01*
X015760Y024825D01*
X015760D01*
X015759Y024824D01*
X015758Y024823D01*
X015756Y024822D01*
X015753Y024821D01*
X015750Y024820D01*
X015747Y024819D01*
X015743Y024817D01*
X015739Y024816D01*
X015735Y024814D01*
X015724Y024812D01*
X015713Y024810D01*
X015700Y024810D01*
X015697D01*
X015695Y024810D01*
X015692D01*
X015688Y024810D01*
X015684Y024811D01*
X015680Y024812D01*
X015671Y024814D01*
X015661Y024817D01*
X015650Y024822D01*
X015644Y024825D01*
X015639Y024828D01*
X015638D01*
X015638Y024829D01*
X015636Y024830D01*
X015634Y024831D01*
X015632Y024833D01*
X015629Y024835D01*
X015623Y024841D01*
X015616Y024848D01*
X015609Y024857D01*
X015602Y024867D01*
X015597Y024879D01*
Y024880D01*
X015596Y024881D01*
X015595Y024882D01*
X015595Y024885D01*
X015593Y024888D01*
X015592Y024892D01*
X015591Y024897D01*
X015590Y024902D01*
X015588Y024907D01*
X015587Y024914D01*
X015586Y024921D01*
X015585Y024928D01*
X015584Y024935D01*
X015583Y024944D01*
X015583Y024953D01*
Y024962D01*
Y024962D01*
Y024965D01*
X015583Y024969D01*
Y024973D01*
X015584Y024979D01*
X015585Y024986D01*
X015586Y024994D01*
X015587Y025002D01*
X015589Y025011D01*
X015591Y025020D01*
X015594Y025029D01*
X015597Y025038D01*
X015601Y025047D01*
X015605Y025056D01*
X015610Y025064D01*
X015616Y025072D01*
X015616Y025072D01*
X015617Y025074D01*
X015620Y025076D01*
X015622Y025078D01*
X015626Y025081D01*
X015630Y025085D01*
X015635Y025088D01*
X015640Y025092D01*
X015647Y025096D01*
X015654Y025100D01*
X015662Y025104D01*
X015671Y025108D01*
X015680Y025111D01*
X015690Y025114D01*
X015701Y025116D01*
X015713Y025118D01*
X015720Y025044D01*
D02*
G37*
G36*
X015968Y025170D02*
X015904D01*
Y025374D01*
X015821D01*
Y025184D01*
X015757D01*
Y025374D01*
X015654D01*
Y025163D01*
X015590D01*
Y025450D01*
X015968D01*
Y025170D01*
D02*
G37*
G36*
X015787Y025710D02*
X015968Y025829D01*
Y025740D01*
X015855Y025665D01*
X015968Y025590D01*
Y025501D01*
X015787Y025620D01*
X015590Y025490D01*
Y025582D01*
X015718Y025666D01*
X015590Y025750D01*
Y025841D01*
X015787Y025710D01*
D02*
G37*
G36*
X015720Y024544D02*
X015720D01*
X015718Y024544D01*
X015716Y024543D01*
X015714Y024543D01*
X015711Y024542D01*
X015707Y024541D01*
X015699Y024538D01*
X015690Y024535D01*
X015681Y024530D01*
X015672Y024524D01*
X015668Y024521D01*
X015665Y024517D01*
Y024517D01*
X015664Y024516D01*
X015663Y024515D01*
X015662Y024513D01*
X015661Y024511D01*
X015659Y024509D01*
X015658Y024506D01*
X015656Y024502D01*
X015653Y024494D01*
X015650Y024485D01*
X015648Y024474D01*
X015647Y024461D01*
Y024461D01*
Y024460D01*
Y024458D01*
X015648Y024455D01*
Y024452D01*
X015648Y024449D01*
X015649Y024441D01*
X015651Y024431D01*
X015654Y024422D01*
X015658Y024413D01*
X015660Y024409D01*
X015663Y024405D01*
Y024405D01*
X015664Y024404D01*
X015666Y024402D01*
X015669Y024399D01*
X015673Y024396D01*
X015679Y024393D01*
X015685Y024389D01*
X015692Y024387D01*
X015696Y024386D01*
X015702D01*
X015704Y024387D01*
X015707Y024387D01*
X015711Y024388D01*
X015715Y024390D01*
X015719Y024392D01*
X015722Y024395D01*
X015723Y024395D01*
X015724Y024396D01*
X015726Y024398D01*
X015728Y024401D01*
X015731Y024405D01*
X015733Y024409D01*
X015736Y024415D01*
X015739Y024422D01*
X015739Y024423D01*
Y024424D01*
X015740Y024425D01*
X015740Y024427D01*
X015741Y024429D01*
X015742Y024431D01*
X015743Y024435D01*
X015744Y024438D01*
X015745Y024443D01*
X015746Y024448D01*
X015748Y024454D01*
X015749Y024460D01*
X015751Y024467D01*
X015753Y024475D01*
X015755Y024483D01*
Y024484D01*
X015756Y024486D01*
X015757Y024489D01*
X015758Y024493D01*
X015759Y024498D01*
X015761Y024504D01*
X015763Y024510D01*
X015765Y024517D01*
X015771Y024531D01*
X015777Y024545D01*
X015781Y024552D01*
X015785Y024559D01*
X015788Y024564D01*
X015793Y024569D01*
X015793Y024570D01*
X015794Y024571D01*
X015796Y024573D01*
X015798Y024575D01*
X015801Y024577D01*
X015805Y024580D01*
X015809Y024584D01*
X015814Y024586D01*
X015819Y024590D01*
X015825Y024593D01*
X015831Y024596D01*
X015838Y024599D01*
X015845Y024601D01*
X015853Y024602D01*
X015861Y024604D01*
X015869Y024604D01*
X015872D01*
X015874Y024604D01*
X015876D01*
X015879Y024603D01*
X015886Y024602D01*
X015895Y024600D01*
X015904Y024597D01*
X015913Y024593D01*
X015923Y024588D01*
X015923D01*
X015924Y024587D01*
X015925Y024586D01*
X015927Y024585D01*
X015932Y024581D01*
X015937Y024576D01*
X015943Y024569D01*
X015950Y024561D01*
X015956Y024551D01*
X015961Y024541D01*
Y024540D01*
X015961Y024539D01*
X015962Y024537D01*
X015963Y024535D01*
X015964Y024532D01*
X015965Y024529D01*
X015966Y024525D01*
X015968Y024520D01*
X015969Y024514D01*
X015970Y024509D01*
X015971Y024503D01*
X015973Y024496D01*
X015973Y024489D01*
X015974Y024482D01*
X015975Y024466D01*
Y024466D01*
Y024465D01*
Y024463D01*
Y024459D01*
X015974Y024454D01*
X015974Y024448D01*
X015973Y024442D01*
X015972Y024434D01*
X015970Y024426D01*
X015969Y024418D01*
X015967Y024409D01*
X015964Y024399D01*
X015961Y024391D01*
X015958Y024382D01*
X015953Y024374D01*
X015949Y024366D01*
X015943Y024359D01*
X015943Y024358D01*
X015942Y024357D01*
X015940Y024356D01*
X015937Y024353D01*
X015934Y024350D01*
X015930Y024347D01*
X015926Y024344D01*
X015921Y024340D01*
X015915Y024337D01*
X015909Y024334D01*
X015902Y024331D01*
X015895Y024328D01*
X015887Y024325D01*
X015878Y024323D01*
X015869Y024322D01*
X015860Y024321D01*
X015857Y024397D01*
X015857D01*
X015858Y024397D01*
X015860D01*
X015861Y024398D01*
X015864Y024399D01*
X015867Y024399D01*
X015873Y024402D01*
X015879Y024404D01*
X015886Y024408D01*
X015893Y024413D01*
X015898Y024418D01*
X015899Y024419D01*
X015900Y024421D01*
X015902Y024425D01*
X015905Y024430D01*
X015907Y024437D01*
X015909Y024445D01*
X015911Y024455D01*
X015911Y024467D01*
Y024467D01*
Y024468D01*
Y024470D01*
Y024472D01*
X015911Y024475D01*
X015911Y024478D01*
X015910Y024486D01*
X015908Y024494D01*
X015906Y024503D01*
X015902Y024511D01*
X015898Y024519D01*
X015897Y024520D01*
X015896Y024521D01*
X015894Y024523D01*
X015891Y024525D01*
X015888Y024527D01*
X015884Y024529D01*
X015879Y024531D01*
X015874Y024531D01*
X015872D01*
X015869Y024531D01*
X015866Y024530D01*
X015863Y024528D01*
X015859Y024527D01*
X015855Y024524D01*
X015851Y024520D01*
X015851Y024519D01*
X015850Y024518D01*
X015849Y024517D01*
X015848Y024515D01*
X015847Y024513D01*
X015845Y024509D01*
X015843Y024506D01*
X015842Y024502D01*
X015840Y024497D01*
X015838Y024491D01*
X015836Y024484D01*
X015833Y024477D01*
X015831Y024469D01*
X015828Y024460D01*
X015826Y024450D01*
Y024449D01*
X015825Y024447D01*
X015825Y024445D01*
X015824Y024441D01*
X015822Y024436D01*
X015821Y024431D01*
X015819Y024425D01*
X015818Y024419D01*
X015813Y024405D01*
X015809Y024392D01*
X015806Y024385D01*
X015804Y024379D01*
X015801Y024373D01*
X015799Y024368D01*
Y024367D01*
X015798Y024366D01*
X015797Y024365D01*
X015796Y024363D01*
X015793Y024358D01*
X015789Y024352D01*
X015783Y024345D01*
X015777Y024338D01*
X015769Y024331D01*
X015760Y024325D01*
X015760D01*
X015759Y024324D01*
X015758Y024324D01*
X015756Y024323D01*
X015753Y024322D01*
X015750Y024320D01*
X015747Y024319D01*
X015743Y024318D01*
X015739Y024316D01*
X015735Y024315D01*
X015724Y024313D01*
X015713Y024311D01*
X015700Y024310D01*
X015697D01*
X015695Y024311D01*
X015692D01*
X015688Y024311D01*
X015684Y024312D01*
X015680Y024313D01*
X015671Y024315D01*
X015661Y024318D01*
X015650Y024322D01*
X015644Y024325D01*
X015639Y024329D01*
X015638D01*
X015638Y024329D01*
X015636Y024331D01*
X015634Y024332D01*
X015632Y024334D01*
X015629Y024336D01*
X015623Y024342D01*
X015616Y024349D01*
X015609Y024358D01*
X015602Y024368D01*
X015597Y024380D01*
Y024380D01*
X015596Y024381D01*
X015595Y024383D01*
X015595Y024386D01*
X015593Y024389D01*
X015592Y024393D01*
X015591Y024397D01*
X015590Y024402D01*
X015588Y024408D01*
X015587Y024414D01*
X015586Y024421D01*
X015585Y024429D01*
X015584Y024436D01*
X015583Y024445D01*
X015583Y024453D01*
Y024462D01*
Y024463D01*
Y024466D01*
X015583Y024469D01*
Y024474D01*
X015584Y024480D01*
X015585Y024487D01*
X015586Y024495D01*
X015587Y024503D01*
X015589Y024512D01*
X015591Y024521D01*
X015594Y024530D01*
X015597Y024539D01*
X015601Y024548D01*
X015605Y024557D01*
X015610Y024565D01*
X015616Y024573D01*
X015616Y024573D01*
X015617Y024574D01*
X015620Y024576D01*
X015622Y024579D01*
X015626Y024582D01*
X015630Y024585D01*
X015635Y024589D01*
X015640Y024593D01*
X015647Y024597D01*
X015654Y024601D01*
X015662Y024604D01*
X015671Y024608D01*
X015680Y024611D01*
X015690Y024614D01*
X015701Y024617D01*
X015713Y024618D01*
X015720Y024544D01*
D02*
G37*
G36*
X015968Y023327D02*
X015904D01*
Y023438D01*
X015590D01*
Y023514D01*
X015904D01*
Y023627D01*
X015968D01*
Y023327D01*
D02*
G37*
G36*
Y023673D02*
X015590D01*
Y023749D01*
X015968D01*
Y023673D01*
D02*
G37*
G36*
Y024204D02*
X015708Y024148D01*
X015968Y024078D01*
Y023987D01*
X015704Y023921D01*
X015968Y023864D01*
Y023787D01*
X015590Y023878D01*
Y023960D01*
X015873Y024035D01*
X015590Y024110D01*
Y024193D01*
X015968Y024283D01*
Y024204D01*
D02*
G37*
G36*
X015786Y026229D02*
X015791D01*
X015797Y026229D01*
X015803Y026228D01*
X015810Y026228D01*
X015818Y026226D01*
X015825Y026226D01*
X015842Y026222D01*
X015858Y026218D01*
X015866Y026215D01*
X015873Y026213D01*
X015874D01*
X015875Y026212D01*
X015876Y026211D01*
X015878Y026210D01*
X015881Y026209D01*
X015884Y026207D01*
X015891Y026203D01*
X015899Y026199D01*
X015908Y026192D01*
X015916Y026185D01*
X015925Y026178D01*
X015926Y026177D01*
X015926Y026176D01*
X015927Y026175D01*
X015929Y026174D01*
X015931Y026172D01*
X015933Y026169D01*
X015938Y026163D01*
X015944Y026156D01*
X015950Y026147D01*
X015955Y026138D01*
X015959Y026128D01*
Y026128D01*
X015960Y026127D01*
X015961Y026125D01*
X015962Y026122D01*
X015963Y026119D01*
X015964Y026115D01*
X015966Y026110D01*
X015967Y026105D01*
X015968Y026099D01*
X015970Y026093D01*
X015971Y026086D01*
X015972Y026079D01*
X015974Y026064D01*
X015975Y026047D01*
Y026046D01*
Y026046D01*
Y026045D01*
Y026043D01*
X015974Y026039D01*
X015974Y026033D01*
X015973Y026026D01*
X015972Y026018D01*
X015970Y026009D01*
X015968Y025999D01*
X015965Y025988D01*
X015962Y025978D01*
X015958Y025967D01*
X015952Y025955D01*
X015947Y025944D01*
X015940Y025933D01*
X015932Y025923D01*
X015923Y025913D01*
X015922Y025913D01*
X015920Y025911D01*
X015917Y025909D01*
X015913Y025905D01*
X015908Y025901D01*
X015901Y025897D01*
X015894Y025893D01*
X015885Y025888D01*
X015875Y025883D01*
X015864Y025879D01*
X015852Y025874D01*
X015840Y025871D01*
X015826Y025867D01*
X015811Y025865D01*
X015795Y025863D01*
X015778Y025863D01*
X015772D01*
X015770Y025863D01*
X015763Y025864D01*
X015755Y025864D01*
X015747Y025865D01*
X015736Y025867D01*
X015726Y025869D01*
X015715Y025872D01*
X015703Y025875D01*
X015691Y025879D01*
X015679Y025884D01*
X015667Y025889D01*
X015656Y025896D01*
X015645Y025904D01*
X015635Y025913D01*
X015634Y025913D01*
X015633Y025915D01*
X015630Y025918D01*
X015626Y025922D01*
X015623Y025927D01*
X015618Y025933D01*
X015614Y025940D01*
X015609Y025948D01*
X015604Y025957D01*
X015599Y025967D01*
X015595Y025978D01*
X015591Y025990D01*
X015588Y026003D01*
X015585Y026016D01*
X015583Y026031D01*
X015583Y026046D01*
Y026046D01*
Y026047D01*
Y026048D01*
Y026050D01*
X015583Y026054D01*
X015584Y026060D01*
X015585Y026067D01*
X015586Y026076D01*
X015587Y026085D01*
X015590Y026094D01*
X015592Y026105D01*
X015596Y026116D01*
X015600Y026127D01*
X015605Y026138D01*
X015611Y026149D01*
X015617Y026160D01*
X015625Y026170D01*
X015634Y026180D01*
X015635Y026181D01*
X015637Y026182D01*
X015640Y026185D01*
X015644Y026188D01*
X015649Y026192D01*
X015656Y026196D01*
X015663Y026200D01*
X015672Y026205D01*
X015681Y026210D01*
X015692Y026214D01*
X015703Y026218D01*
X015716Y026222D01*
X015729Y026225D01*
X015744Y026228D01*
X015760Y026229D01*
X015776Y026230D01*
X015782D01*
X015786Y026229D01*
D02*
G37*
G36*
X015968Y026445D02*
Y026444D01*
Y026443D01*
Y026440D01*
Y026437D01*
Y026434D01*
Y026429D01*
X015968Y026424D01*
Y026420D01*
X015968Y026409D01*
X015967Y026397D01*
X015966Y026387D01*
X015965Y026382D01*
X015964Y026378D01*
Y026377D01*
Y026377D01*
X015964Y026376D01*
X015964Y026374D01*
X015963Y026370D01*
X015961Y026365D01*
X015959Y026358D01*
X015956Y026352D01*
X015953Y026345D01*
X015949Y026338D01*
Y026338D01*
X015948Y026338D01*
X015947Y026336D01*
X015944Y026332D01*
X015941Y026328D01*
X015936Y026324D01*
X015930Y026319D01*
X015924Y026314D01*
X015917Y026309D01*
X015917D01*
X015916Y026309D01*
X015915Y026308D01*
X015914Y026307D01*
X015910Y026306D01*
X015904Y026303D01*
X015898Y026301D01*
X015890Y026299D01*
X015882Y026298D01*
X015873Y026297D01*
X015870D01*
X015868Y026298D01*
X015866D01*
X015863Y026298D01*
X015857Y026299D01*
X015849Y026301D01*
X015841Y026304D01*
X015833Y026307D01*
X015824Y026312D01*
X015824D01*
X015823Y026313D01*
X015822Y026313D01*
X015820Y026314D01*
X015817Y026317D01*
X015812Y026322D01*
X015806Y026328D01*
X015801Y026334D01*
X015795Y026342D01*
X015791Y026351D01*
Y026350D01*
X015790Y026349D01*
X015790Y026347D01*
X015789Y026345D01*
X015788Y026342D01*
X015786Y026339D01*
X015783Y026331D01*
X015778Y026323D01*
X015772Y026314D01*
X015765Y026305D01*
X015756Y026298D01*
X015756Y026297D01*
X015755Y026297D01*
X015754Y026296D01*
X015752Y026295D01*
X015750Y026293D01*
X015747Y026292D01*
X015744Y026290D01*
X015740Y026288D01*
X015732Y026285D01*
X015722Y026282D01*
X015711Y026280D01*
X015706Y026279D01*
X015695D01*
X015693Y026279D01*
X015690Y026280D01*
X015683Y026281D01*
X015676Y026282D01*
X015667Y026284D01*
X015658Y026287D01*
X015649Y026291D01*
X015649D01*
X015648Y026292D01*
X015647Y026292D01*
X015645Y026293D01*
X015640Y026296D01*
X015635Y026300D01*
X015629Y026304D01*
X015622Y026310D01*
X015616Y026317D01*
X015610Y026324D01*
Y026324D01*
X015610Y026325D01*
X015609Y026326D01*
X015608Y026328D01*
X015607Y026330D01*
X015606Y026332D01*
X015603Y026338D01*
X015599Y026345D01*
X015597Y026354D01*
X015594Y026364D01*
X015592Y026375D01*
Y026376D01*
Y026376D01*
Y026377D01*
X015592Y026379D01*
Y026382D01*
X015592Y026385D01*
Y026389D01*
X015591Y026394D01*
Y026399D01*
X015591Y026406D01*
Y026413D01*
X015590Y026422D01*
Y026431D01*
Y026442D01*
X015590Y026454D01*
Y026467D01*
Y026596D01*
X015968D01*
Y026445D01*
D02*
G37*
G36*
X015287Y020696D02*
X015294D01*
X015303Y020695D01*
X015313Y020694D01*
X015324Y020693D01*
X015336Y020692D01*
X015349Y020690D01*
X015361Y020687D01*
X015374Y020684D01*
X015387Y020681D01*
X015399Y020677D01*
X015411Y020672D01*
X015421Y020666D01*
X015431Y020659D01*
X015431Y020659D01*
X015432Y020658D01*
X015434Y020656D01*
X015437Y020654D01*
X015440Y020650D01*
X015443Y020647D01*
X015447Y020642D01*
X015450Y020637D01*
X015454Y020632D01*
X015457Y020625D01*
X015461Y020618D01*
X015464Y020610D01*
X015466Y020602D01*
X015468Y020593D01*
X015469Y020584D01*
X015470Y020574D01*
Y020573D01*
Y020571D01*
X015469Y020568D01*
Y020565D01*
X015468Y020560D01*
X015468Y020555D01*
X015466Y020549D01*
X015465Y020542D01*
X015463Y020536D01*
X015460Y020529D01*
X015457Y020521D01*
X015453Y020514D01*
X015449Y020507D01*
X015443Y020500D01*
X015437Y020494D01*
X015430Y020488D01*
X015430Y020487D01*
X015428Y020486D01*
X015425Y020484D01*
X015421Y020482D01*
X015416Y020479D01*
X015410Y020476D01*
X015402Y020473D01*
X015393Y020469D01*
X015384Y020466D01*
X015372Y020462D01*
X015359Y020459D01*
X015345Y020457D01*
X015330Y020454D01*
X015313Y020452D01*
X015295Y020451D01*
X015276Y020451D01*
X015269D01*
X015266Y020451D01*
X015259D01*
X015250Y020452D01*
X015240Y020453D01*
X015229Y020454D01*
X015217Y020455D01*
X015204Y020457D01*
X015191Y020460D01*
X015178Y020463D01*
X015165Y020466D01*
X015154Y020471D01*
X015142Y020476D01*
X015131Y020482D01*
X015122Y020488D01*
X015121Y020489D01*
X015120Y020489D01*
X015118Y020491D01*
X015115Y020494D01*
X015113Y020497D01*
X015109Y020501D01*
X015106Y020505D01*
X015102Y020510D01*
X015099Y020516D01*
X015095Y020523D01*
X015092Y020530D01*
X015089Y020537D01*
X015087Y020545D01*
X015085Y020555D01*
X015083Y020564D01*
X015083Y020574D01*
Y020575D01*
Y020576D01*
X015083Y020579D01*
X015084Y020583D01*
X015084Y020588D01*
X015085Y020593D01*
X015087Y020599D01*
X015088Y020606D01*
X015090Y020613D01*
X015093Y020620D01*
X015097Y020627D01*
X015101Y020634D01*
X015106Y020642D01*
X015111Y020649D01*
X015118Y020656D01*
X015125Y020663D01*
X015126Y020663D01*
X015127Y020664D01*
X015130Y020666D01*
X015133Y020668D01*
X015138Y020671D01*
X015145Y020673D01*
X015152Y020676D01*
X015160Y020680D01*
X015170Y020683D01*
X015181Y020686D01*
X015193Y020689D01*
X015207Y020691D01*
X015222Y020693D01*
X015239Y020695D01*
X015257Y020696D01*
X015277Y020696D01*
X015284D01*
X015287Y020696D01*
D02*
G37*
G36*
X015092Y020999D02*
X015094D01*
X015097Y020999D01*
X015100Y020998D01*
X015104Y020997D01*
X015108Y020996D01*
X015113Y020995D01*
X015124Y020992D01*
X015137Y020987D01*
X015149Y020982D01*
X015162Y020975D01*
X015163Y020974D01*
X015164Y020974D01*
X015166Y020972D01*
X015168Y020971D01*
X015172Y020968D01*
X015176Y020965D01*
X015181Y020961D01*
X015186Y020957D01*
X015193Y020952D01*
X015199Y020946D01*
X015207Y020939D01*
X015215Y020932D01*
X015223Y020924D01*
X015233Y020914D01*
X015243Y020904D01*
X015253Y020893D01*
X015253Y020893D01*
X015255Y020891D01*
X015257Y020889D01*
X015260Y020885D01*
X015264Y020881D01*
X015268Y020877D01*
X015273Y020872D01*
X015278Y020867D01*
X015288Y020857D01*
X015298Y020847D01*
X015303Y020843D01*
X015307Y020839D01*
X015311Y020835D01*
X015315Y020833D01*
X015315D01*
X015316Y020832D01*
X015317Y020832D01*
X015318Y020830D01*
X015323Y020828D01*
X015329Y020825D01*
X015335Y020823D01*
X015343Y020820D01*
X015351Y020819D01*
X015359Y020818D01*
X015363D01*
X015367Y020819D01*
X015373Y020819D01*
X015379Y020821D01*
X015385Y020823D01*
X015391Y020826D01*
X015396Y020831D01*
X015397Y020831D01*
X015398Y020833D01*
X015400Y020836D01*
X015403Y020840D01*
X015405Y020846D01*
X015407Y020852D01*
X015409Y020859D01*
X015409Y020867D01*
Y020867D01*
Y020868D01*
Y020869D01*
Y020871D01*
X015409Y020875D01*
X015408Y020880D01*
X015406Y020886D01*
X015404Y020892D01*
X015400Y020898D01*
X015395Y020903D01*
X015395Y020904D01*
X015393Y020905D01*
X015390Y020908D01*
X015385Y020910D01*
X015379Y020913D01*
X015371Y020915D01*
X015361Y020917D01*
X015356Y020918D01*
X015350Y020919D01*
X015357Y020991D01*
X015358D01*
X015360Y020990D01*
X015363Y020990D01*
X015367Y020989D01*
X015372Y020988D01*
X015378Y020987D01*
X015384Y020985D01*
X015391Y020983D01*
X015397Y020981D01*
X015404Y020978D01*
X015412Y020975D01*
X015419Y020971D01*
X015426Y020967D01*
X015432Y020962D01*
X015438Y020957D01*
X015443Y020951D01*
X015444Y020950D01*
X015445Y020949D01*
X015446Y020947D01*
X015448Y020944D01*
X015450Y020941D01*
X015452Y020937D01*
X015454Y020933D01*
X015457Y020927D01*
X015459Y020921D01*
X015461Y020915D01*
X015464Y020908D01*
X015466Y020900D01*
X015467Y020892D01*
X015468Y020884D01*
X015469Y020875D01*
X015470Y020865D01*
Y020864D01*
Y020863D01*
Y020860D01*
X015469Y020856D01*
X015469Y020851D01*
X015468Y020846D01*
X015467Y020840D01*
X015466Y020833D01*
X015464Y020826D01*
X015462Y020819D01*
X015460Y020812D01*
X015457Y020805D01*
X015453Y020798D01*
X015449Y020791D01*
X015445Y020784D01*
X015439Y020778D01*
X015439Y020777D01*
X015438Y020776D01*
X015436Y020775D01*
X015434Y020773D01*
X015431Y020770D01*
X015427Y020767D01*
X015423Y020764D01*
X015418Y020761D01*
X015413Y020758D01*
X015408Y020755D01*
X015402Y020753D01*
X015395Y020750D01*
X015388Y020748D01*
X015380Y020746D01*
X015372Y020746D01*
X015364Y020745D01*
X015360D01*
X015358Y020746D01*
X015355D01*
X015349Y020746D01*
X015341Y020748D01*
X015333Y020749D01*
X015324Y020751D01*
X015316Y020755D01*
X015315D01*
X015315Y020755D01*
X015313Y020755D01*
X015311Y020756D01*
X015309Y020757D01*
X015307Y020759D01*
X015301Y020762D01*
X015294Y020766D01*
X015286Y020771D01*
X015277Y020777D01*
X015267Y020784D01*
X015266Y020785D01*
X015264Y020786D01*
X015260Y020790D01*
X015255Y020794D01*
X015252Y020798D01*
X015248Y020801D01*
X015244Y020805D01*
X015240Y020809D01*
X015235Y020814D01*
X015230Y020819D01*
X015224Y020825D01*
X015219Y020831D01*
X015218Y020832D01*
X015218Y020833D01*
X015216Y020835D01*
X015214Y020837D01*
X015211Y020839D01*
X015208Y020843D01*
X015202Y020850D01*
X015195Y020857D01*
X015188Y020864D01*
X015185Y020867D01*
X015182Y020870D01*
X015179Y020873D01*
X015177Y020875D01*
X015177Y020875D01*
X015175Y020876D01*
X015173Y020878D01*
X015171Y020880D01*
X015167Y020882D01*
X015164Y020885D01*
X015157Y020889D01*
Y020745D01*
X015090D01*
Y020999D01*
X015090D01*
X015092Y020999D01*
D02*
G37*
G36*
X015786Y027022D02*
X015791D01*
X015797Y027022D01*
X015803Y027021D01*
X015810Y027021D01*
X015818Y027019D01*
X015825Y027019D01*
X015842Y027015D01*
X015858Y027011D01*
X015866Y027008D01*
X015873Y027005D01*
X015874D01*
X015875Y027005D01*
X015876Y027004D01*
X015878Y027003D01*
X015881Y027002D01*
X015884Y027000D01*
X015891Y026996D01*
X015899Y026992D01*
X015908Y026985D01*
X015916Y026978D01*
X015925Y026971D01*
X015926Y026970D01*
X015926Y026969D01*
X015927Y026968D01*
X015929Y026967D01*
X015931Y026964D01*
X015933Y026962D01*
X015938Y026956D01*
X015944Y026949D01*
X015950Y026940D01*
X015955Y026931D01*
X015959Y026921D01*
Y026921D01*
X015960Y026920D01*
X015961Y026918D01*
X015962Y026915D01*
X015963Y026912D01*
X015964Y026908D01*
X015966Y026903D01*
X015967Y026898D01*
X015968Y026892D01*
X015970Y026886D01*
X015971Y026879D01*
X015972Y026872D01*
X015974Y026857D01*
X015975Y026840D01*
Y026839D01*
Y026839D01*
Y026838D01*
Y026836D01*
X015974Y026832D01*
X015974Y026826D01*
X015973Y026819D01*
X015972Y026811D01*
X015970Y026802D01*
X015968Y026792D01*
X015965Y026781D01*
X015962Y026771D01*
X015958Y026759D01*
X015952Y026748D01*
X015947Y026737D01*
X015940Y026726D01*
X015932Y026716D01*
X015923Y026706D01*
X015922Y026706D01*
X015920Y026704D01*
X015917Y026702D01*
X015913Y026698D01*
X015908Y026694D01*
X015901Y026690D01*
X015894Y026686D01*
X015885Y026681D01*
X015875Y026676D01*
X015864Y026672D01*
X015852Y026667D01*
X015840Y026664D01*
X015826Y026660D01*
X015811Y026658D01*
X015795Y026656D01*
X015778Y026656D01*
X015772D01*
X015770Y026656D01*
X015763Y026657D01*
X015755Y026657D01*
X015747Y026658D01*
X015736Y026660D01*
X015726Y026662D01*
X015715Y026665D01*
X015703Y026668D01*
X015691Y026672D01*
X015679Y026677D01*
X015667Y026682D01*
X015656Y026689D01*
X015645Y026697D01*
X015635Y026706D01*
X015634Y026706D01*
X015633Y026708D01*
X015630Y026711D01*
X015626Y026715D01*
X015623Y026720D01*
X015618Y026726D01*
X015614Y026733D01*
X015609Y026741D01*
X015604Y026750D01*
X015599Y026760D01*
X015595Y026771D01*
X015591Y026783D01*
X015588Y026796D01*
X015585Y026809D01*
X015583Y026824D01*
X015583Y026839D01*
Y026839D01*
Y026840D01*
Y026841D01*
Y026843D01*
X015583Y026847D01*
X015584Y026853D01*
X015585Y026860D01*
X015586Y026869D01*
X015587Y026878D01*
X015590Y026887D01*
X015592Y026898D01*
X015596Y026909D01*
X015600Y026920D01*
X015605Y026931D01*
X015611Y026942D01*
X015617Y026953D01*
X015625Y026963D01*
X015634Y026973D01*
X015635Y026973D01*
X015637Y026975D01*
X015640Y026978D01*
X015644Y026981D01*
X015649Y026985D01*
X015656Y026989D01*
X015663Y026993D01*
X015672Y026998D01*
X015681Y027003D01*
X015692Y027007D01*
X015703Y027011D01*
X015716Y027015D01*
X015729Y027018D01*
X015744Y027021D01*
X015760Y027022D01*
X015776Y027023D01*
X015782D01*
X015786Y027022D01*
D02*
G37*
%LPC*%
G36*
X015740Y021477D02*
Y021373D01*
X015880Y021426D01*
X015740Y021477D01*
D02*
G37*
G36*
X015904Y020735D02*
X015654D01*
Y020678D01*
Y020677D01*
Y020676D01*
Y020675D01*
Y020672D01*
Y020670D01*
Y020666D01*
X015654Y020660D01*
X015655Y020652D01*
X015655Y020644D01*
X015656Y020637D01*
X015657Y020634D01*
X015657Y020631D01*
Y020631D01*
X015658Y020630D01*
X015658Y020628D01*
X015659Y020625D01*
X015661Y020621D01*
X015663Y020616D01*
X015666Y020610D01*
X015670Y020605D01*
X015673Y020600D01*
X015674Y020600D01*
X015675Y020598D01*
X015678Y020596D01*
X015682Y020593D01*
X015687Y020590D01*
X015693Y020587D01*
X015701Y020584D01*
X015710Y020580D01*
X015710D01*
X015711Y020580D01*
X015712Y020580D01*
X015714Y020579D01*
X015717Y020579D01*
X015720Y020578D01*
X015724Y020577D01*
X015728Y020576D01*
X015733Y020576D01*
X015738Y020575D01*
X015743Y020574D01*
X015749Y020574D01*
X015756Y020573D01*
X015763Y020573D01*
X015771Y020573D01*
X015786D01*
X015790Y020573D01*
X015794D01*
X015799Y020573D01*
X015804D01*
X015815Y020575D01*
X015826Y020576D01*
X015837Y020578D01*
X015842Y020579D01*
X015846Y020580D01*
X015847D01*
X015847Y020581D01*
X015849Y020581D01*
X015850Y020582D01*
X015854Y020584D01*
X015860Y020586D01*
X015866Y020589D01*
X015872Y020593D01*
X015877Y020597D01*
X015883Y020602D01*
X015883Y020603D01*
X015885Y020605D01*
X015887Y020608D01*
X015890Y020612D01*
X015893Y020617D01*
X015896Y020623D01*
X015899Y020630D01*
X015901Y020638D01*
Y020639D01*
X015901Y020639D01*
Y020641D01*
X015902Y020643D01*
X015902Y020645D01*
X015902Y020648D01*
X015903Y020652D01*
Y020655D01*
X015903Y020660D01*
X015904Y020665D01*
X015904Y020671D01*
Y020678D01*
X015904Y020684D01*
Y020692D01*
Y020700D01*
Y020735D01*
D02*
G37*
G36*
X015240Y023343D02*
Y023239D01*
X015380Y023292D01*
X015240Y023343D01*
D02*
G37*
G36*
X015904Y021116D02*
X015808D01*
Y021060D01*
Y021059D01*
Y021057D01*
Y021054D01*
Y021051D01*
Y021047D01*
X015809Y021042D01*
Y021036D01*
Y021031D01*
X015809Y021019D01*
X015810Y021008D01*
X015811Y021003D01*
X015811Y020998D01*
X015812Y020994D01*
X015813Y020991D01*
X015813Y020990D01*
X015813Y020989D01*
X015815Y020986D01*
X015816Y020983D01*
X015818Y020980D01*
X015821Y020976D01*
X015825Y020973D01*
X015829Y020969D01*
X015829Y020969D01*
X015831Y020968D01*
X015833Y020967D01*
X015836Y020965D01*
X015841Y020964D01*
X015845Y020963D01*
X015851Y020962D01*
X015857Y020962D01*
X015861D01*
X015864Y020962D01*
X015868Y020963D01*
X015873Y020964D01*
X015878Y020966D01*
X015883Y020969D01*
X015888Y020972D01*
X015888Y020972D01*
X015890Y020974D01*
X015892Y020976D01*
X015894Y020979D01*
X015897Y020983D01*
X015899Y020988D01*
X015901Y020994D01*
X015903Y021001D01*
Y021001D01*
X015903Y021003D01*
Y021005D01*
Y021006D01*
X015904Y021008D01*
Y021011D01*
Y021015D01*
X015904Y021019D01*
Y021023D01*
Y021028D01*
X015904Y021034D01*
Y021041D01*
Y021049D01*
Y021057D01*
Y021116D01*
D02*
G37*
G36*
X015779Y021922D02*
X015776D01*
X015773Y021922D01*
X015768D01*
X015763Y021921D01*
X015757Y021921D01*
X015750Y021920D01*
X015743Y021919D01*
X015735Y021917D01*
X015727Y021915D01*
X015719Y021913D01*
X015711Y021910D01*
X015703Y021906D01*
X015695Y021903D01*
X015688Y021898D01*
X015681Y021893D01*
X015681Y021892D01*
X015680Y021892D01*
X015679Y021890D01*
X015676Y021887D01*
X015674Y021885D01*
X015671Y021881D01*
X015668Y021877D01*
X015665Y021872D01*
X015662Y021867D01*
X015659Y021861D01*
X015656Y021855D01*
X015654Y021848D01*
X015652Y021842D01*
X015650Y021834D01*
X015649Y021826D01*
X015648Y021817D01*
Y021817D01*
Y021815D01*
X015649Y021813D01*
Y021810D01*
X015649Y021806D01*
X015650Y021801D01*
X015651Y021796D01*
X015652Y021791D01*
X015654Y021785D01*
X015656Y021779D01*
X015659Y021773D01*
X015662Y021766D01*
X015666Y021760D01*
X015670Y021754D01*
X015675Y021748D01*
X015681Y021742D01*
X015681Y021742D01*
X015683Y021741D01*
X015684Y021739D01*
X015687Y021738D01*
X015690Y021735D01*
X015695Y021733D01*
X015700Y021730D01*
X015706Y021728D01*
X015712Y021725D01*
X015720Y021722D01*
X015728Y021720D01*
X015736Y021717D01*
X015746Y021716D01*
X015756Y021714D01*
X015768Y021713D01*
X015780Y021713D01*
X015786D01*
X015790Y021713D01*
X015796Y021714D01*
X015802Y021714D01*
X015809Y021715D01*
X015816Y021716D01*
X015824Y021718D01*
X015832Y021720D01*
X015841Y021722D01*
X015848Y021725D01*
X015856Y021728D01*
X015863Y021732D01*
X015871Y021737D01*
X015877Y021741D01*
X015877Y021742D01*
X015878Y021743D01*
X015880Y021744D01*
X015882Y021747D01*
X015884Y021750D01*
X015887Y021753D01*
X015890Y021757D01*
X015893Y021762D01*
X015896Y021767D01*
X015899Y021773D01*
X015902Y021779D01*
X015904Y021786D01*
X015907Y021793D01*
X015908Y021801D01*
X015909Y021809D01*
X015909Y021817D01*
Y021818D01*
Y021819D01*
Y021822D01*
X015909Y021825D01*
X015909Y021829D01*
X015908Y021834D01*
X015907Y021839D01*
X015905Y021844D01*
X015904Y021851D01*
X015902Y021857D01*
X015899Y021863D01*
X015895Y021869D01*
X015892Y021876D01*
X015887Y021882D01*
X015882Y021888D01*
X015877Y021894D01*
X015876Y021894D01*
X015875Y021895D01*
X015873Y021896D01*
X015870Y021898D01*
X015867Y021900D01*
X015863Y021903D01*
X015858Y021905D01*
X015852Y021908D01*
X015846Y021910D01*
X015838Y021913D01*
X015831Y021916D01*
X015822Y021918D01*
X015812Y021920D01*
X015802Y021921D01*
X015791Y021922D01*
X015779Y021922D01*
D02*
G37*
G36*
X015755Y022291D02*
X015654D01*
Y022220D01*
Y022220D01*
Y022219D01*
Y022216D01*
Y022214D01*
Y022211D01*
Y022207D01*
X015654Y022198D01*
Y022189D01*
X015655Y022181D01*
X015655Y022177D01*
Y022173D01*
X015656Y022170D01*
X015656Y022168D01*
Y022167D01*
X015657Y022165D01*
X015658Y022162D01*
X015659Y022158D01*
X015661Y022154D01*
X015664Y022149D01*
X015667Y022144D01*
X015671Y022140D01*
X015672Y022140D01*
X015673Y022138D01*
X015676Y022136D01*
X015680Y022134D01*
X015684Y022133D01*
X015690Y022131D01*
X015696Y022129D01*
X015703Y022129D01*
X015706D01*
X015709Y022129D01*
X015713Y022130D01*
X015718Y022131D01*
X015722Y022133D01*
X015727Y022135D01*
X015732Y022138D01*
X015732Y022138D01*
X015734Y022139D01*
X015736Y022141D01*
X015738Y022144D01*
X015741Y022147D01*
X015744Y022151D01*
X015747Y022156D01*
X015749Y022161D01*
X015749Y022162D01*
Y022163D01*
X015750Y022165D01*
X015750Y022167D01*
X015751Y022169D01*
X015752Y022172D01*
X015752Y022176D01*
X015752Y022180D01*
X015753Y022185D01*
X015754Y022190D01*
X015754Y022197D01*
X015754Y022204D01*
Y022211D01*
X015755Y022220D01*
Y022229D01*
Y022291D01*
D02*
G37*
G36*
X015905D02*
X015818D01*
Y022241D01*
Y022240D01*
Y022239D01*
Y022237D01*
Y022234D01*
Y022230D01*
Y022226D01*
Y022217D01*
X015818Y022208D01*
Y022199D01*
X015819Y022195D01*
Y022191D01*
X015819Y022188D01*
Y022185D01*
Y022185D01*
Y022184D01*
X015820Y022182D01*
X015820Y022178D01*
X015822Y022174D01*
X015823Y022169D01*
X015826Y022164D01*
X015829Y022159D01*
X015832Y022154D01*
X015833Y022154D01*
X015834Y022153D01*
X015837Y022151D01*
X015841Y022149D01*
X015845Y022147D01*
X015850Y022144D01*
X015856Y022143D01*
X015862Y022143D01*
X015865D01*
X015868Y022143D01*
X015872Y022144D01*
X015877Y022145D01*
X015882Y022147D01*
X015886Y022149D01*
X015891Y022153D01*
X015891Y022153D01*
X015892Y022154D01*
X015894Y022157D01*
X015896Y022160D01*
X015899Y022164D01*
X015901Y022169D01*
X015902Y022175D01*
X015904Y022182D01*
Y022182D01*
Y022183D01*
X015904Y022184D01*
Y022186D01*
Y022188D01*
X015904Y022191D01*
Y022194D01*
Y022198D01*
X015905Y022203D01*
Y022208D01*
Y022214D01*
X015905Y022221D01*
Y022229D01*
Y022237D01*
Y022247D01*
Y022291D01*
D02*
G37*
G36*
X015240Y024429D02*
Y024325D01*
X015380Y024378D01*
X015240Y024429D01*
D02*
G37*
G36*
X015404Y025184D02*
X015154D01*
Y025127D01*
Y025127D01*
Y025126D01*
Y025124D01*
Y025122D01*
Y025119D01*
Y025116D01*
X015154Y025110D01*
X015155Y025102D01*
X015155Y025094D01*
X015156Y025087D01*
X015157Y025084D01*
X015157Y025081D01*
Y025081D01*
X015158Y025080D01*
X015158Y025078D01*
X015159Y025074D01*
X015161Y025070D01*
X015163Y025065D01*
X015166Y025060D01*
X015170Y025055D01*
X015173Y025050D01*
X015174Y025050D01*
X015175Y025048D01*
X015178Y025046D01*
X015182Y025043D01*
X015187Y025040D01*
X015193Y025037D01*
X015201Y025033D01*
X015210Y025030D01*
X015210D01*
X015211Y025030D01*
X015212Y025029D01*
X015214Y025029D01*
X015217Y025028D01*
X015220Y025028D01*
X015224Y025027D01*
X015228Y025026D01*
X015233Y025026D01*
X015238Y025025D01*
X015243Y025024D01*
X015249Y025024D01*
X015256Y025023D01*
X015263Y025023D01*
X015271Y025022D01*
X015286D01*
X015290Y025023D01*
X015294D01*
X015299Y025023D01*
X015304D01*
X015315Y025024D01*
X015326Y025026D01*
X015337Y025028D01*
X015342Y025029D01*
X015346Y025030D01*
X015347D01*
X015347Y025030D01*
X015349Y025031D01*
X015350Y025031D01*
X015354Y025033D01*
X015360Y025036D01*
X015366Y025039D01*
X015372Y025042D01*
X015377Y025047D01*
X015383Y025052D01*
X015383Y025053D01*
X015385Y025054D01*
X015387Y025058D01*
X015390Y025062D01*
X015393Y025067D01*
X015396Y025073D01*
X015399Y025080D01*
X015401Y025087D01*
Y025088D01*
X015401Y025089D01*
Y025091D01*
X015402Y025092D01*
X015402Y025095D01*
X015402Y025098D01*
X015403Y025101D01*
Y025105D01*
X015403Y025110D01*
X015404Y025115D01*
X015404Y025121D01*
Y025127D01*
X015404Y025134D01*
Y025142D01*
Y025150D01*
Y025184D01*
D02*
G37*
G36*
X015240Y025545D02*
Y025441D01*
X015380Y025494D01*
X015240Y025545D01*
D02*
G37*
G36*
X015404Y026594D02*
X015297D01*
Y026552D01*
Y026552D01*
Y026550D01*
Y026548D01*
Y026545D01*
Y026541D01*
X015297Y026537D01*
X015297Y026527D01*
X015298Y026518D01*
X015299Y026508D01*
X015300Y026503D01*
X015300Y026499D01*
X015302Y026495D01*
X015302Y026492D01*
X015303Y026491D01*
X015304Y026489D01*
X015305Y026486D01*
X015307Y026483D01*
X015310Y026479D01*
X015313Y026475D01*
X015317Y026471D01*
X015321Y026468D01*
X015322Y026468D01*
X015324Y026467D01*
X015326Y026465D01*
X015330Y026463D01*
X015334Y026462D01*
X015339Y026460D01*
X015345Y026459D01*
X015351Y026459D01*
X015354D01*
X015358Y026460D01*
X015363Y026461D01*
X015368Y026462D01*
X015374Y026464D01*
X015379Y026467D01*
X015385Y026471D01*
X015385Y026472D01*
X015387Y026473D01*
X015389Y026476D01*
X015392Y026480D01*
X015395Y026484D01*
X015397Y026489D01*
X015400Y026495D01*
X015402Y026502D01*
Y026503D01*
X015402Y026505D01*
X015402Y026506D01*
Y026509D01*
X015403Y026511D01*
X015403Y026514D01*
Y026518D01*
X015404Y026522D01*
Y026526D01*
X015404Y026531D01*
Y026536D01*
X015404Y026543D01*
Y026550D01*
Y026557D01*
Y026594D01*
D02*
G37*
G36*
Y027387D02*
X015308D01*
Y027330D01*
Y027329D01*
Y027328D01*
Y027325D01*
Y027322D01*
Y027317D01*
X015309Y027312D01*
Y027307D01*
Y027301D01*
X015309Y027289D01*
X015310Y027278D01*
X015311Y027273D01*
X015311Y027269D01*
X015312Y027265D01*
X015313Y027262D01*
X015313Y027261D01*
X015313Y027259D01*
X015315Y027257D01*
X015316Y027254D01*
X015318Y027250D01*
X015321Y027247D01*
X015325Y027243D01*
X015329Y027240D01*
X015329Y027240D01*
X015331Y027239D01*
X015333Y027238D01*
X015336Y027236D01*
X015341Y027235D01*
X015345Y027233D01*
X015351Y027233D01*
X015357Y027232D01*
X015361D01*
X015364Y027233D01*
X015368Y027233D01*
X015373Y027235D01*
X015378Y027237D01*
X015383Y027239D01*
X015388Y027242D01*
X015388Y027243D01*
X015390Y027244D01*
X015392Y027247D01*
X015394Y027250D01*
X015397Y027254D01*
X015399Y027259D01*
X015401Y027265D01*
X015403Y027272D01*
Y027272D01*
X015403Y027274D01*
Y027275D01*
Y027277D01*
X015404Y027279D01*
Y027282D01*
Y027285D01*
X015404Y027289D01*
Y027294D01*
Y027299D01*
X015404Y027305D01*
Y027311D01*
Y027319D01*
Y027327D01*
Y027387D01*
D02*
G37*
G36*
X015279Y027018D02*
X015276D01*
X015273Y027018D01*
X015268D01*
X015263Y027017D01*
X015257Y027017D01*
X015250Y027016D01*
X015243Y027014D01*
X015235Y027013D01*
X015227Y027011D01*
X015219Y027009D01*
X015211Y027006D01*
X015203Y027002D01*
X015195Y026998D01*
X015188Y026994D01*
X015181Y026989D01*
X015181Y026988D01*
X015180Y026987D01*
X015179Y026986D01*
X015176Y026983D01*
X015174Y026980D01*
X015171Y026977D01*
X015168Y026973D01*
X015165Y026968D01*
X015162Y026963D01*
X015159Y026957D01*
X015156Y026951D01*
X015154Y026944D01*
X015151Y026937D01*
X015150Y026930D01*
X015149Y026921D01*
X015148Y026913D01*
Y026913D01*
Y026911D01*
X015149Y026909D01*
Y026905D01*
X015149Y026902D01*
X015150Y026897D01*
X015151Y026892D01*
X015152Y026887D01*
X015154Y026881D01*
X015156Y026875D01*
X015159Y026869D01*
X015162Y026862D01*
X015166Y026856D01*
X015170Y026850D01*
X015175Y026844D01*
X015181Y026838D01*
X015181Y026838D01*
X015183Y026837D01*
X015184Y026835D01*
X015187Y026834D01*
X015190Y026831D01*
X015195Y026829D01*
X015200Y026826D01*
X015206Y026823D01*
X015212Y026821D01*
X015220Y026818D01*
X015228Y026816D01*
X015236Y026813D01*
X015246Y026812D01*
X015256Y026810D01*
X015268Y026809D01*
X015280Y026809D01*
X015286D01*
X015290Y026809D01*
X015296Y026809D01*
X015302Y026810D01*
X015309Y026811D01*
X015316Y026812D01*
X015324Y026814D01*
X015332Y026816D01*
X015341Y026818D01*
X015348Y026821D01*
X015356Y026824D01*
X015363Y026828D01*
X015371Y026832D01*
X015377Y026837D01*
X015377Y026838D01*
X015378Y026839D01*
X015380Y026840D01*
X015382Y026843D01*
X015384Y026846D01*
X015387Y026849D01*
X015390Y026853D01*
X015393Y026857D01*
X015396Y026863D01*
X015399Y026869D01*
X015402Y026875D01*
X015404Y026882D01*
X015407Y026889D01*
X015408Y026896D01*
X015409Y026905D01*
X015409Y026913D01*
Y026914D01*
Y026915D01*
Y026918D01*
X015409Y026921D01*
X015409Y026925D01*
X015408Y026930D01*
X015407Y026935D01*
X015405Y026940D01*
X015404Y026946D01*
X015402Y026953D01*
X015399Y026959D01*
X015395Y026965D01*
X015392Y026971D01*
X015387Y026978D01*
X015382Y026984D01*
X015377Y026989D01*
X015376Y026990D01*
X015375Y026991D01*
X015373Y026992D01*
X015370Y026994D01*
X015367Y026996D01*
X015363Y026998D01*
X015358Y027001D01*
X015352Y027004D01*
X015346Y027006D01*
X015338Y027009D01*
X015331Y027012D01*
X015322Y027014D01*
X015312Y027016D01*
X015302Y027017D01*
X015291Y027018D01*
X015279Y027018D01*
D02*
G37*
G36*
X015904Y028017D02*
X015808D01*
Y027960D01*
Y027960D01*
Y027958D01*
Y027955D01*
Y027952D01*
Y027947D01*
X015809Y027942D01*
Y027937D01*
Y027931D01*
X015809Y027919D01*
X015810Y027908D01*
X015811Y027903D01*
X015811Y027899D01*
X015812Y027895D01*
X015813Y027892D01*
X015813Y027891D01*
X015813Y027889D01*
X015815Y027887D01*
X015816Y027884D01*
X015818Y027880D01*
X015821Y027877D01*
X015825Y027873D01*
X015829Y027870D01*
X015829Y027870D01*
X015831Y027869D01*
X015833Y027868D01*
X015836Y027866D01*
X015841Y027865D01*
X015845Y027864D01*
X015851Y027863D01*
X015857Y027862D01*
X015861D01*
X015864Y027863D01*
X015868Y027864D01*
X015873Y027865D01*
X015878Y027867D01*
X015883Y027869D01*
X015888Y027873D01*
X015888Y027873D01*
X015890Y027875D01*
X015892Y027877D01*
X015894Y027880D01*
X015897Y027884D01*
X015899Y027889D01*
X015901Y027895D01*
X015903Y027902D01*
Y027902D01*
X015903Y027904D01*
Y027905D01*
Y027907D01*
X015904Y027909D01*
Y027912D01*
Y027915D01*
X015904Y027919D01*
Y027924D01*
Y027929D01*
X015904Y027935D01*
Y027941D01*
Y027949D01*
Y027957D01*
Y028017D01*
D02*
G37*
G36*
X015779Y028441D02*
X015776D01*
X015773Y028441D01*
X015768D01*
X015763Y028440D01*
X015757Y028440D01*
X015750Y028439D01*
X015743Y028438D01*
X015735Y028436D01*
X015727Y028434D01*
X015719Y028432D01*
X015711Y028429D01*
X015703Y028425D01*
X015695Y028422D01*
X015688Y028417D01*
X015681Y028412D01*
X015681Y028411D01*
X015680Y028411D01*
X015679Y028409D01*
X015676Y028406D01*
X015674Y028404D01*
X015671Y028400D01*
X015668Y028396D01*
X015665Y028391D01*
X015662Y028386D01*
X015659Y028380D01*
X015656Y028374D01*
X015654Y028367D01*
X015652Y028361D01*
X015650Y028353D01*
X015649Y028345D01*
X015648Y028336D01*
Y028336D01*
Y028334D01*
X015649Y028332D01*
Y028329D01*
X015649Y028325D01*
X015650Y028320D01*
X015651Y028315D01*
X015652Y028310D01*
X015654Y028304D01*
X015656Y028298D01*
X015659Y028292D01*
X015662Y028285D01*
X015666Y028279D01*
X015670Y028273D01*
X015675Y028267D01*
X015681Y028261D01*
X015681Y028261D01*
X015683Y028260D01*
X015684Y028258D01*
X015687Y028257D01*
X015690Y028254D01*
X015695Y028252D01*
X015700Y028249D01*
X015706Y028247D01*
X015712Y028244D01*
X015720Y028241D01*
X015728Y028239D01*
X015736Y028236D01*
X015746Y028235D01*
X015756Y028233D01*
X015768Y028232D01*
X015780Y028232D01*
X015786D01*
X015790Y028232D01*
X015796Y028233D01*
X015802Y028233D01*
X015809Y028234D01*
X015816Y028235D01*
X015824Y028237D01*
X015832Y028239D01*
X015841Y028241D01*
X015848Y028244D01*
X015856Y028247D01*
X015863Y028251D01*
X015871Y028256D01*
X015877Y028260D01*
X015877Y028261D01*
X015878Y028262D01*
X015880Y028263D01*
X015882Y028266D01*
X015884Y028269D01*
X015887Y028272D01*
X015890Y028276D01*
X015893Y028281D01*
X015896Y028286D01*
X015899Y028292D01*
X015902Y028298D01*
X015904Y028305D01*
X015907Y028312D01*
X015908Y028320D01*
X015909Y028328D01*
X015909Y028336D01*
Y028337D01*
Y028338D01*
Y028341D01*
X015909Y028344D01*
X015909Y028348D01*
X015908Y028353D01*
X015907Y028358D01*
X015905Y028363D01*
X015904Y028370D01*
X015902Y028376D01*
X015899Y028382D01*
X015895Y028388D01*
X015892Y028395D01*
X015887Y028401D01*
X015882Y028407D01*
X015877Y028413D01*
X015876Y028413D01*
X015875Y028414D01*
X015873Y028415D01*
X015870Y028417D01*
X015867Y028419D01*
X015863Y028422D01*
X015858Y028424D01*
X015852Y028427D01*
X015846Y028429D01*
X015838Y028432D01*
X015831Y028435D01*
X015822Y028437D01*
X015812Y028439D01*
X015802Y028440D01*
X015791Y028441D01*
X015779Y028441D01*
D02*
G37*
G36*
X015217Y020027D02*
X015213D01*
X015211Y020026D01*
X015208D01*
X015204Y020026D01*
X015197Y020025D01*
X015188Y020023D01*
X015179Y020020D01*
X015170Y020016D01*
X015162Y020011D01*
X015161Y020010D01*
X015159Y020008D01*
X015156Y020005D01*
X015153Y020000D01*
X015149Y019994D01*
X015146Y019988D01*
X015144Y019981D01*
X015144Y019977D01*
X015143Y019974D01*
Y019973D01*
Y019973D01*
X015144Y019970D01*
X015144Y019967D01*
X015145Y019962D01*
X015147Y019956D01*
X015150Y019951D01*
X015154Y019945D01*
X015159Y019940D01*
X015160Y019940D01*
X015162Y019938D01*
X015166Y019936D01*
X015168Y019935D01*
X015171Y019933D01*
X015174Y019932D01*
X015178Y019930D01*
X015182Y019930D01*
X015187Y019928D01*
X015192Y019928D01*
X015198Y019927D01*
X015204Y019926D01*
X015214D01*
X015216Y019927D01*
X015219D01*
X015223Y019927D01*
X015231Y019928D01*
X015240Y019930D01*
X015249Y019933D01*
X015257Y019936D01*
X015261Y019939D01*
X015264Y019941D01*
X015265Y019942D01*
X015267Y019944D01*
X015270Y019947D01*
X015273Y019951D01*
X015276Y019956D01*
X015279Y019962D01*
X015281Y019969D01*
X015281Y019977D01*
Y019978D01*
Y019978D01*
X015281Y019981D01*
X015281Y019985D01*
X015279Y019990D01*
X015277Y019995D01*
X015274Y020001D01*
X015270Y020007D01*
X015265Y020013D01*
X015264Y020013D01*
X015262Y020015D01*
X015258Y020017D01*
X015253Y020019D01*
X015246Y020022D01*
X015238Y020024D01*
X015228Y020026D01*
X015217Y020027D01*
D02*
G37*
G36*
X016288Y028119D02*
X016265D01*
X016260Y028119D01*
X016247D01*
X016240Y028119D01*
X016224Y028118D01*
X016209Y028117D01*
X016202Y028116D01*
X016195Y028115D01*
X016190Y028114D01*
X016184Y028113D01*
X016184D01*
X016183Y028112D01*
X016182Y028112D01*
X016180Y028112D01*
X016176Y028110D01*
X016171Y028108D01*
X016165Y028106D01*
X016160Y028103D01*
X016155Y028100D01*
X016151Y028096D01*
X016151Y028096D01*
X016150Y028094D01*
X016149Y028092D01*
X016147Y028089D01*
X016146Y028086D01*
X016145Y028082D01*
X016144Y028078D01*
X016143Y028073D01*
Y028072D01*
Y028071D01*
X016144Y028068D01*
X016145Y028065D01*
X016145Y028061D01*
X016147Y028057D01*
X016149Y028053D01*
X016151Y028049D01*
X016152Y028049D01*
X016153Y028048D01*
X016155Y028046D01*
X016158Y028044D01*
X016163Y028041D01*
X016167Y028038D01*
X016174Y028036D01*
X016181Y028033D01*
X016182D01*
X016183Y028033D01*
X016184Y028032D01*
X016187Y028032D01*
X016190Y028032D01*
X016194Y028031D01*
X016198Y028030D01*
X016204Y028029D01*
X016210Y028029D01*
X016217Y028028D01*
X016224Y028027D01*
X016233Y028027D01*
X016243Y028026D01*
X016253Y028026D01*
X016264Y028026D01*
X016292D01*
X016299Y028026D01*
X016305D01*
X016313Y028026D01*
X016328Y028027D01*
X016343Y028028D01*
X016350Y028029D01*
X016357Y028030D01*
X016362Y028031D01*
X016368Y028032D01*
X016368D01*
X016369Y028033D01*
X016370Y028033D01*
X016372Y028034D01*
X016376Y028035D01*
X016381Y028037D01*
X016387Y028039D01*
X016392Y028042D01*
X016397Y028046D01*
X016401Y028049D01*
X016401Y028050D01*
X016402Y028051D01*
X016404Y028053D01*
X016405Y028056D01*
X016407Y028060D01*
X016408Y028064D01*
X016409Y028068D01*
X016409Y028073D01*
Y028073D01*
Y028075D01*
X016409Y028077D01*
X016408Y028080D01*
X016407Y028084D01*
X016406Y028088D01*
X016404Y028092D01*
X016401Y028096D01*
X016400Y028096D01*
X016399Y028098D01*
X016397Y028100D01*
X016394Y028102D01*
X016390Y028104D01*
X016385Y028107D01*
X016378Y028110D01*
X016371Y028112D01*
X016370D01*
X016370Y028112D01*
X016368Y028113D01*
X016366Y028113D01*
X016362Y028114D01*
X016359Y028114D01*
X016354Y028115D01*
X016348Y028116D01*
X016342Y028117D01*
X016335Y028117D01*
X016327Y028118D01*
X016319Y028118D01*
X016310Y028119D01*
X016299Y028119D01*
X016288Y028119D01*
D02*
G37*
G36*
X015779Y026151D02*
X015776D01*
X015773Y026151D01*
X015768D01*
X015763Y026150D01*
X015757Y026149D01*
X015750Y026149D01*
X015743Y026147D01*
X015735Y026146D01*
X015727Y026144D01*
X015719Y026142D01*
X015711Y026139D01*
X015703Y026135D01*
X015695Y026131D01*
X015688Y026127D01*
X015681Y026121D01*
X015681Y026121D01*
X015680Y026120D01*
X015679Y026119D01*
X015676Y026116D01*
X015674Y026113D01*
X015671Y026110D01*
X015668Y026106D01*
X015665Y026101D01*
X015662Y026096D01*
X015659Y026090D01*
X015656Y026084D01*
X015654Y026077D01*
X015652Y026070D01*
X015650Y026062D01*
X015649Y026054D01*
X015648Y026046D01*
Y026046D01*
Y026044D01*
X015649Y026042D01*
Y026038D01*
X015649Y026035D01*
X015650Y026030D01*
X015651Y026025D01*
X015652Y026019D01*
X015654Y026014D01*
X015656Y026008D01*
X015659Y026001D01*
X015662Y025995D01*
X015666Y025989D01*
X015670Y025983D01*
X015675Y025977D01*
X015681Y025971D01*
X015681Y025971D01*
X015683Y025970D01*
X015684Y025968D01*
X015687Y025967D01*
X015690Y025964D01*
X015695Y025962D01*
X015700Y025959D01*
X015706Y025956D01*
X015712Y025953D01*
X015720Y025951D01*
X015728Y025948D01*
X015736Y025946D01*
X015746Y025944D01*
X015756Y025943D01*
X015768Y025942D01*
X015780Y025942D01*
X015786D01*
X015790Y025942D01*
X015796Y025942D01*
X015802Y025943D01*
X015809Y025944D01*
X015816Y025945D01*
X015824Y025946D01*
X015832Y025948D01*
X015841Y025951D01*
X015848Y025953D01*
X015856Y025957D01*
X015863Y025961D01*
X015871Y025965D01*
X015877Y025970D01*
X015877Y025971D01*
X015878Y025971D01*
X015880Y025973D01*
X015882Y025976D01*
X015884Y025978D01*
X015887Y025982D01*
X015890Y025986D01*
X015893Y025990D01*
X015896Y025996D01*
X015899Y026001D01*
X015902Y026008D01*
X015904Y026014D01*
X015907Y026021D01*
X015908Y026029D01*
X015909Y026037D01*
X015909Y026046D01*
Y026046D01*
Y026048D01*
Y026051D01*
X015909Y026054D01*
X015909Y026058D01*
X015908Y026062D01*
X015907Y026068D01*
X015905Y026073D01*
X015904Y026079D01*
X015902Y026085D01*
X015899Y026092D01*
X015895Y026098D01*
X015892Y026104D01*
X015887Y026111D01*
X015882Y026117D01*
X015877Y026122D01*
X015876Y026123D01*
X015875Y026124D01*
X015873Y026125D01*
X015870Y026127D01*
X015867Y026129D01*
X015863Y026131D01*
X015858Y026134D01*
X015852Y026137D01*
X015846Y026139D01*
X015838Y026142D01*
X015831Y026144D01*
X015822Y026147D01*
X015812Y026149D01*
X015802Y026150D01*
X015791Y026151D01*
X015779Y026151D01*
D02*
G37*
G36*
X015755Y026520D02*
X015654D01*
Y026449D01*
Y026449D01*
Y026447D01*
Y026445D01*
Y026443D01*
Y026439D01*
Y026436D01*
X015654Y026427D01*
Y026418D01*
X015655Y026409D01*
X015655Y026406D01*
Y026402D01*
X015656Y026399D01*
X015656Y026397D01*
Y026396D01*
X015657Y026394D01*
X015658Y026390D01*
X015659Y026387D01*
X015661Y026382D01*
X015664Y026378D01*
X015667Y026373D01*
X015671Y026369D01*
X015672Y026368D01*
X015673Y026367D01*
X015676Y026365D01*
X015680Y026363D01*
X015684Y026361D01*
X015690Y026359D01*
X015696Y026358D01*
X015703Y026358D01*
X015706D01*
X015709Y026358D01*
X015713Y026359D01*
X015718Y026360D01*
X015722Y026361D01*
X015727Y026363D01*
X015732Y026366D01*
X015732Y026367D01*
X015734Y026368D01*
X015736Y026370D01*
X015738Y026372D01*
X015741Y026376D01*
X015744Y026380D01*
X015747Y026385D01*
X015749Y026390D01*
X015749Y026391D01*
Y026392D01*
X015750Y026393D01*
X015750Y026395D01*
X015751Y026398D01*
X015752Y026401D01*
X015752Y026404D01*
X015752Y026409D01*
X015753Y026413D01*
X015754Y026419D01*
X015754Y026425D01*
X015754Y026432D01*
Y026440D01*
X015755Y026449D01*
Y026458D01*
Y026520D01*
D02*
G37*
G36*
X015905D02*
X015818D01*
Y026470D01*
Y026469D01*
Y026468D01*
Y026465D01*
Y026463D01*
Y026459D01*
Y026455D01*
Y026446D01*
X015818Y026436D01*
Y026427D01*
X015819Y026423D01*
Y026420D01*
X015819Y026416D01*
Y026414D01*
Y026413D01*
Y026413D01*
X015820Y026411D01*
X015820Y026407D01*
X015822Y026403D01*
X015823Y026398D01*
X015826Y026393D01*
X015829Y026388D01*
X015832Y026383D01*
X015833Y026383D01*
X015834Y026381D01*
X015837Y026379D01*
X015841Y026377D01*
X015845Y026375D01*
X015850Y026373D01*
X015856Y026372D01*
X015862Y026372D01*
X015865D01*
X015868Y026372D01*
X015872Y026373D01*
X015877Y026374D01*
X015882Y026376D01*
X015886Y026378D01*
X015891Y026381D01*
X015891Y026382D01*
X015892Y026383D01*
X015894Y026386D01*
X015896Y026389D01*
X015899Y026393D01*
X015901Y026398D01*
X015902Y026404D01*
X015904Y026411D01*
Y026411D01*
Y026412D01*
X015904Y026413D01*
Y026415D01*
Y026417D01*
X015904Y026420D01*
Y026423D01*
Y026427D01*
X015905Y026431D01*
Y026437D01*
Y026443D01*
X015905Y026449D01*
Y026457D01*
Y026466D01*
Y026476D01*
Y026520D01*
D02*
G37*
G36*
X015288Y020621D02*
X015265D01*
X015260Y020620D01*
X015247D01*
X015240Y020620D01*
X015224Y020619D01*
X015209Y020618D01*
X015202Y020617D01*
X015195Y020616D01*
X015190Y020615D01*
X015184Y020614D01*
X015184D01*
X015183Y020614D01*
X015182Y020613D01*
X015180Y020613D01*
X015176Y020612D01*
X015171Y020609D01*
X015165Y020607D01*
X015160Y020604D01*
X015155Y020601D01*
X015151Y020597D01*
X015151Y020597D01*
X015150Y020596D01*
X015149Y020593D01*
X015147Y020590D01*
X015146Y020587D01*
X015145Y020583D01*
X015144Y020579D01*
X015143Y020574D01*
Y020573D01*
Y020572D01*
X015144Y020569D01*
X015145Y020566D01*
X015145Y020562D01*
X015147Y020558D01*
X015149Y020555D01*
X015151Y020550D01*
X015152Y020550D01*
X015153Y020549D01*
X015155Y020547D01*
X015158Y020545D01*
X015163Y020542D01*
X015167Y020539D01*
X015174Y020537D01*
X015181Y020534D01*
X015182D01*
X015183Y020534D01*
X015184Y020534D01*
X015187Y020533D01*
X015190Y020533D01*
X015194Y020532D01*
X015198Y020531D01*
X015204Y020530D01*
X015210Y020530D01*
X015217Y020529D01*
X015224Y020528D01*
X015233Y020528D01*
X015243Y020527D01*
X015253Y020527D01*
X015264Y020527D01*
X015292D01*
X015299Y020527D01*
X015305D01*
X015313Y020527D01*
X015328Y020528D01*
X015343Y020530D01*
X015350Y020530D01*
X015357Y020531D01*
X015362Y020532D01*
X015368Y020534D01*
X015368D01*
X015369Y020534D01*
X015370Y020534D01*
X015372Y020535D01*
X015376Y020536D01*
X015381Y020538D01*
X015387Y020541D01*
X015392Y020543D01*
X015397Y020547D01*
X015401Y020550D01*
X015401Y020551D01*
X015402Y020552D01*
X015404Y020555D01*
X015405Y020557D01*
X015407Y020561D01*
X015408Y020565D01*
X015409Y020569D01*
X015409Y020574D01*
Y020574D01*
Y020576D01*
X015409Y020578D01*
X015408Y020582D01*
X015407Y020585D01*
X015406Y020589D01*
X015404Y020593D01*
X015401Y020597D01*
X015400Y020598D01*
X015399Y020599D01*
X015397Y020601D01*
X015394Y020603D01*
X015390Y020605D01*
X015385Y020608D01*
X015378Y020611D01*
X015371Y020613D01*
X015370D01*
X015370Y020614D01*
X015368Y020614D01*
X015366Y020614D01*
X015362Y020615D01*
X015359Y020616D01*
X015354Y020616D01*
X015348Y020617D01*
X015342Y020618D01*
X015335Y020618D01*
X015327Y020619D01*
X015319Y020619D01*
X015310Y020620D01*
X015299Y020620D01*
X015288Y020621D01*
D02*
G37*
G36*
X015779Y026944D02*
X015776D01*
X015773Y026944D01*
X015768D01*
X015763Y026943D01*
X015757Y026942D01*
X015750Y026941D01*
X015743Y026940D01*
X015735Y026939D01*
X015727Y026937D01*
X015719Y026935D01*
X015711Y026932D01*
X015703Y026928D01*
X015695Y026924D01*
X015688Y026920D01*
X015681Y026914D01*
X015681Y026914D01*
X015680Y026913D01*
X015679Y026912D01*
X015676Y026909D01*
X015674Y026906D01*
X015671Y026903D01*
X015668Y026898D01*
X015665Y026894D01*
X015662Y026889D01*
X015659Y026883D01*
X015656Y026877D01*
X015654Y026870D01*
X015652Y026863D01*
X015650Y026855D01*
X015649Y026847D01*
X015648Y026839D01*
Y026839D01*
Y026837D01*
X015649Y026834D01*
Y026831D01*
X015649Y026828D01*
X015650Y026823D01*
X015651Y026818D01*
X015652Y026812D01*
X015654Y026807D01*
X015656Y026801D01*
X015659Y026794D01*
X015662Y026788D01*
X015666Y026782D01*
X015670Y026776D01*
X015675Y026770D01*
X015681Y026764D01*
X015681Y026764D01*
X015683Y026763D01*
X015684Y026761D01*
X015687Y026759D01*
X015690Y026757D01*
X015695Y026755D01*
X015700Y026752D01*
X015706Y026749D01*
X015712Y026746D01*
X015720Y026744D01*
X015728Y026741D01*
X015736Y026739D01*
X015746Y026737D01*
X015756Y026736D01*
X015768Y026735D01*
X015780Y026734D01*
X015786D01*
X015790Y026735D01*
X015796Y026735D01*
X015802Y026736D01*
X015809Y026737D01*
X015816Y026738D01*
X015824Y026739D01*
X015832Y026741D01*
X015841Y026744D01*
X015848Y026746D01*
X015856Y026750D01*
X015863Y026754D01*
X015871Y026758D01*
X015877Y026763D01*
X015877Y026764D01*
X015878Y026764D01*
X015880Y026766D01*
X015882Y026768D01*
X015884Y026771D01*
X015887Y026775D01*
X015890Y026779D01*
X015893Y026783D01*
X015896Y026789D01*
X015899Y026794D01*
X015902Y026800D01*
X015904Y026807D01*
X015907Y026814D01*
X015908Y026822D01*
X015909Y026830D01*
X015909Y026839D01*
Y026839D01*
Y026841D01*
Y026844D01*
X015909Y026847D01*
X015909Y026851D01*
X015908Y026855D01*
X015907Y026861D01*
X015905Y026866D01*
X015904Y026872D01*
X015902Y026878D01*
X015899Y026885D01*
X015895Y026891D01*
X015892Y026897D01*
X015887Y026904D01*
X015882Y026910D01*
X015877Y026915D01*
X015876Y026916D01*
X015875Y026916D01*
X015873Y026918D01*
X015870Y026920D01*
X015867Y026922D01*
X015863Y026924D01*
X015858Y026927D01*
X015852Y026930D01*
X015846Y026932D01*
X015838Y026935D01*
X015831Y026937D01*
X015822Y026939D01*
X015812Y026941D01*
X015802Y026943D01*
X015791Y026944D01*
X015779Y026944D01*
D02*
G37*
%LPD*%
D18*
X012597Y012797D02*
X014397D01*
X012817Y011241D02*
X014187D01*
D19*
X013467Y011000D02*
X013333D01*
X013400D01*
Y010667D01*
X013333Y010600D01*
X013267D01*
X013200Y010667D01*
X013600Y010600D02*
X013733D01*
X013667D01*
Y011000D01*
X013600Y010933D01*
X014350Y018800D02*
Y019400D01*
X014650D01*
X014750Y019300D01*
Y019100D01*
X014650Y019000D01*
X014350D01*
X014550D02*
X014750Y018800D01*
X015250D02*
Y019400D01*
X014950Y019100D01*
X015350D01*
X014350Y017450D02*
Y018050D01*
X014650D01*
X014750Y017950D01*
Y017750D01*
X014650Y017650D01*
X014350D01*
X014550D02*
X014750Y017450D01*
X014950Y017950D02*
X015050Y018050D01*
X015250D01*
X015350Y017950D01*
Y017850D01*
X015250Y017750D01*
X015150D01*
X015250D01*
X015350Y017650D01*
Y017550D01*
X015250Y017450D01*
X015050D01*
X014950Y017550D01*
X012930Y026500D02*
Y027100D01*
X013230D01*
X013330Y027000D01*
Y026800D01*
X013230Y026700D01*
X012930D01*
X013130D02*
X013330Y026500D01*
X013930D02*
X013530D01*
X013930Y026900D01*
Y027000D01*
X013830Y027100D01*
X013630D01*
X013530Y027000D01*
X013030Y024840D02*
Y025440D01*
X013330D01*
X013430Y025340D01*
Y025140D01*
X013330Y025040D01*
X013030D01*
X013230D02*
X013430Y024840D01*
X013630D02*
X013830D01*
X013730D01*
Y025440D01*
X013630Y025340D01*
M02*
