G04 Layer_Color=65535*
%FSAX24Y24*%
%MOIN*%
G70*
G01*
G75*
%ADD14C,0.0100*%
%ADD18C,0.0040*%
G36*
X013012Y013207D02*
X013011Y013202D01*
Y013196D01*
X013010Y013189D01*
X013009Y013174D01*
X013008Y013160D01*
X013008Y013154D01*
X013007Y013147D01*
X013007Y013142D01*
X013006Y013137D01*
X013006Y013132D01*
X013005Y013129D01*
Y013127D01*
Y013126D01*
X013010Y013129D01*
X013015Y013132D01*
X013028Y013138D01*
X013041Y013143D01*
X013054Y013148D01*
X013066Y013153D01*
X013071Y013155D01*
X013075Y013156D01*
X013079Y013158D01*
X013082Y013159D01*
X013084Y013160D01*
X013084D01*
X013100Y013111D01*
X013085Y013107D01*
X013070Y013103D01*
X013056Y013100D01*
X013043Y013097D01*
X013037Y013096D01*
X013032Y013095D01*
X013027Y013094D01*
X013024Y013093D01*
X013020Y013093D01*
X013018Y013092D01*
X013016Y013091D01*
X013016D01*
X013019Y013088D01*
X013024Y013084D01*
X013028Y013080D01*
X013032Y013075D01*
X013042Y013064D01*
X013051Y013054D01*
X013060Y013043D01*
X013063Y013039D01*
X013067Y013035D01*
X013069Y013032D01*
X013072Y013029D01*
X013073Y013028D01*
X013073Y013027D01*
X013032Y012998D01*
X013025Y013008D01*
X013018Y013020D01*
X013010Y013033D01*
X013003Y013044D01*
X012997Y013055D01*
X012995Y013059D01*
X012992Y013064D01*
X012990Y013067D01*
X012989Y013069D01*
X012988Y013071D01*
Y013071D01*
X012978Y013055D01*
X012969Y013040D01*
X012961Y013028D01*
X012954Y013017D01*
X012951Y013013D01*
X012948Y013009D01*
X012946Y013006D01*
X012944Y013003D01*
X012943Y013001D01*
X012942Y012999D01*
X012941Y012999D01*
Y012998D01*
X012900Y013027D01*
X012907Y013035D01*
X012913Y013043D01*
X012919Y013050D01*
X012925Y013057D01*
X012930Y013063D01*
X012935Y013068D01*
X012939Y013072D01*
X012943Y013077D01*
X012950Y013083D01*
X012955Y013088D01*
X012957Y013090D01*
X012959Y013091D01*
X012943Y013094D01*
X012927Y013096D01*
X012913Y013100D01*
X012900Y013103D01*
X012894Y013105D01*
X012889Y013106D01*
X012884Y013107D01*
X012881Y013109D01*
X012877Y013110D01*
X012875Y013111D01*
X012873Y013111D01*
X012873D01*
X012889Y013160D01*
X012905Y013154D01*
X012921Y013148D01*
X012935Y013142D01*
X012947Y013137D01*
X012951Y013135D01*
X012956Y013133D01*
X012960Y013131D01*
X012964Y013130D01*
X012966Y013128D01*
X012968Y013128D01*
X012970Y013126D01*
X012970D01*
X012968Y013145D01*
X012966Y013161D01*
X012965Y013169D01*
X012965Y013176D01*
X012964Y013183D01*
Y013189D01*
X012963Y013194D01*
X012962Y013198D01*
Y013203D01*
X012962Y013206D01*
Y013209D01*
Y013211D01*
Y013212D01*
Y013212D01*
X013012D01*
Y013207D01*
D02*
G37*
D14*
X014400Y025700D02*
Y026300D01*
X014700D01*
X014800Y026200D01*
Y026000D01*
X014700Y025900D01*
X014400D01*
X014600D02*
X014800Y025700D01*
X015000D02*
X015200D01*
X015100D01*
Y026300D01*
X015000Y026200D01*
X014400Y027300D02*
Y027900D01*
X014700D01*
X014800Y027800D01*
Y027600D01*
X014700Y027500D01*
X014400D01*
X014600D02*
X014800Y027300D01*
X015400D02*
X015000D01*
X015400Y027700D01*
Y027800D01*
X015300Y027900D01*
X015100D01*
X015000Y027800D01*
X014350Y017450D02*
Y018050D01*
X014650D01*
X014750Y017950D01*
Y017750D01*
X014650Y017650D01*
X014350D01*
X014550D02*
X014750Y017450D01*
X014950Y017950D02*
X015050Y018050D01*
X015250D01*
X015350Y017950D01*
Y017850D01*
X015250Y017750D01*
X015150D01*
X015250D01*
X015350Y017650D01*
Y017550D01*
X015250Y017450D01*
X015050D01*
X014950Y017550D01*
X014350Y018800D02*
Y019400D01*
X014650D01*
X014750Y019300D01*
Y019100D01*
X014650Y019000D01*
X014350D01*
X014550D02*
X014750Y018800D01*
X015250D02*
Y019400D01*
X014950Y019100D01*
X015350D01*
X013467Y011000D02*
X013333D01*
X013400D01*
Y010667D01*
X013333Y010600D01*
X013267D01*
X013200Y010667D01*
X013600Y010600D02*
X013733D01*
X013667D01*
Y011000D01*
X013600Y010933D01*
D18*
X012817Y011241D02*
X014187D01*
X012597Y012797D02*
X014397D01*
M02*
