G04 Layer_Color=32896*
%FSAX24Y24*%
%MOIN*%
G70*
G01*
G75*
%ADD19C,0.0100*%
G36*
X015576Y030503D02*
X015750D01*
Y030429D01*
X015576D01*
Y030253D01*
X015502D01*
Y030429D01*
X015327D01*
Y030503D01*
X015502D01*
Y030677D01*
X015576D01*
Y030503D01*
D02*
G37*
G36*
X015476Y015053D02*
X015650D01*
Y014979D01*
X015476D01*
Y014803D01*
X015402D01*
Y014979D01*
X015227D01*
Y015053D01*
X015402D01*
Y015227D01*
X015476D01*
Y015053D01*
D02*
G37*
D19*
X011220Y015400D02*
X011120Y015500D01*
Y015700D01*
X011220Y015800D01*
X011320D01*
X011420Y015700D01*
Y015500D01*
X011520Y015400D01*
X011620D01*
X011720Y015500D01*
Y015700D01*
X011620Y015800D01*
X011120Y015200D02*
X011720D01*
X011520Y015000D01*
X011720Y014800D01*
X011120D01*
X011720Y014201D02*
Y014600D01*
X011320Y014201D01*
X011220D01*
X011120Y014300D01*
Y014500D01*
X011220Y014600D01*
Y030800D02*
X011120Y030900D01*
Y031100D01*
X011220Y031200D01*
X011320D01*
X011420Y031100D01*
Y030900D01*
X011520Y030800D01*
X011620D01*
X011720Y030900D01*
Y031100D01*
X011620Y031200D01*
X011120Y030600D02*
X011720D01*
X011520Y030400D01*
X011720Y030200D01*
X011120D01*
X011720Y030000D02*
Y029800D01*
Y029900D01*
X011120D01*
X011220Y030000D01*
M02*
