G04 Layer_Physical_Order=2*
G04 Layer_Color=16711680*
%FSAX24Y24*%
%MOIN*%
G70*
G01*
G75*
%ADD13C,0.0120*%
%ADD14R,0.1400X0.1400*%
%ADD15R,0.1800X0.1800*%
%ADD16C,0.0750*%
%ADD17C,0.0400*%
G36*
X015000Y033125D02*
X015800D01*
Y033050D01*
X015875D01*
Y032250D01*
X016600D01*
Y012200D01*
X015875D01*
Y011200D01*
X015800D01*
Y011125D01*
X014800D01*
Y010450D01*
X012200D01*
Y011125D01*
X011200D01*
Y011200D01*
X011125D01*
Y012200D01*
X010400D01*
Y032250D01*
X011125D01*
Y033050D01*
X011200D01*
Y033125D01*
X012000D01*
Y033800D01*
X015000D01*
Y033125D01*
D02*
G37*
%LPC*%
G36*
X012512Y015469D02*
Y015075D01*
X012906D01*
X012900Y015124D01*
X012852Y015239D01*
X012776Y015338D01*
X012676Y015414D01*
X012561Y015462D01*
X012512Y015469D01*
D02*
G37*
G36*
X012362D02*
X012313Y015462D01*
X012197Y015414D01*
X012098Y015338D01*
X012022Y015239D01*
X011974Y015124D01*
X011968Y015075D01*
X012362D01*
Y015469D01*
D02*
G37*
G36*
X012906Y014925D02*
X012512D01*
Y014530D01*
X012561Y014537D01*
X012676Y014585D01*
X012776Y014661D01*
X012852Y014760D01*
X012900Y014876D01*
X012906Y014925D01*
D02*
G37*
G36*
X012539Y016205D02*
X012145D01*
X012151Y016156D01*
X012199Y016040D01*
X012275Y015941D01*
X012374Y015865D01*
X012490Y015817D01*
X012539Y015811D01*
Y016205D01*
D02*
G37*
G36*
X012689Y016749D02*
Y016355D01*
X013083D01*
X013077Y016404D01*
X013029Y016520D01*
X012953Y016619D01*
X012854Y016695D01*
X012738Y016743D01*
X012689Y016749D01*
D02*
G37*
G36*
X012539D02*
X012490Y016743D01*
X012374Y016695D01*
X012275Y016619D01*
X012199Y016520D01*
X012151Y016404D01*
X012145Y016355D01*
X012539D01*
Y016749D01*
D02*
G37*
G36*
X013083Y016205D02*
X012689D01*
Y015811D01*
X012738Y015817D01*
X012854Y015865D01*
X012953Y015941D01*
X013029Y016040D01*
X013077Y016156D01*
X013083Y016205D01*
D02*
G37*
G36*
X012362Y014925D02*
X011968D01*
X011974Y014876D01*
X012022Y014760D01*
X012098Y014661D01*
X012197Y014585D01*
X012313Y014537D01*
X012362Y014530D01*
Y014925D01*
D02*
G37*
G36*
X014384Y016860D02*
X014234Y016840D01*
X014094Y016782D01*
X013974Y016690D01*
X013882Y016570D01*
X013824Y016430D01*
X013804Y016280D01*
X013824Y016130D01*
X013882Y015990D01*
X013974Y015870D01*
X014094Y015778D01*
X014234Y015720D01*
X014384Y015700D01*
X014413Y015560D01*
X014273Y015502D01*
X014153Y015410D01*
X014061Y015290D01*
X014003Y015150D01*
X013983Y015000D01*
X014003Y014849D01*
X014061Y014710D01*
X014153Y014589D01*
X014273Y014497D01*
X014413Y014439D01*
X014384Y014300D01*
X014234Y014280D01*
X014094Y014222D01*
X013974Y014130D01*
X013882Y014010D01*
X013824Y013870D01*
X013804Y013720D01*
X013824Y013570D01*
X013882Y013430D01*
X013974Y013310D01*
X014094Y013218D01*
X014234Y013160D01*
X014384Y013140D01*
X014534Y013160D01*
X014674Y013218D01*
X014794Y013310D01*
X014886Y013430D01*
X014944Y013570D01*
X014964Y013720D01*
X014944Y013870D01*
X014933Y013898D01*
X015435Y014401D01*
X015435Y014401D01*
X015477Y014455D01*
X015503Y014518D01*
X015512Y014586D01*
X015512Y014586D01*
Y015450D01*
X015512Y015450D01*
X015503Y015518D01*
X015477Y015581D01*
X015435Y015635D01*
X015435Y015635D01*
X014943Y016128D01*
X014944Y016130D01*
X014964Y016280D01*
X014944Y016430D01*
X014886Y016570D01*
X014794Y016690D01*
X014674Y016782D01*
X014534Y016840D01*
X014384Y016860D01*
D02*
G37*
G36*
X015725Y012200D02*
X014800D01*
Y011275D01*
X015725D01*
Y012200D01*
D02*
G37*
G36*
X012200D02*
X011275D01*
Y011275D01*
X012200D01*
Y012200D01*
D02*
G37*
G36*
X012539Y013645D02*
X012145D01*
X012151Y013596D01*
X012199Y013480D01*
X012275Y013381D01*
X012374Y013305D01*
X012490Y013257D01*
X012539Y013251D01*
Y013645D01*
D02*
G37*
G36*
X012689Y014189D02*
Y013795D01*
X013083D01*
X013077Y013844D01*
X013029Y013960D01*
X012953Y014059D01*
X012854Y014135D01*
X012738Y014183D01*
X012689Y014189D01*
D02*
G37*
G36*
X012539D02*
X012490Y014183D01*
X012374Y014135D01*
X012275Y014059D01*
X012199Y013960D01*
X012151Y013844D01*
X012145Y013795D01*
X012539D01*
Y014189D01*
D02*
G37*
G36*
X013083Y013645D02*
X012689D01*
Y013251D01*
X012738Y013257D01*
X012854Y013305D01*
X012953Y013381D01*
X013029Y013480D01*
X013077Y013596D01*
X013083Y013645D01*
D02*
G37*
G36*
X012300Y027303D02*
X012196Y027290D01*
X012098Y027249D01*
X012015Y027185D01*
X011951Y027102D01*
X011910Y027004D01*
X011897Y026900D01*
X011910Y026796D01*
X011951Y026698D01*
X012015Y026615D01*
X012038Y026597D01*
Y018609D01*
X011315Y017885D01*
X011273Y017831D01*
X011247Y017768D01*
X011238Y017700D01*
X011238Y017700D01*
Y017353D01*
X011215Y017335D01*
X011151Y017252D01*
X011110Y017154D01*
X011097Y017050D01*
X011110Y016946D01*
X011151Y016848D01*
X011215Y016765D01*
X011298Y016701D01*
X011396Y016660D01*
X011500Y016647D01*
X011604Y016660D01*
X011702Y016701D01*
X011785Y016765D01*
X011849Y016848D01*
X011890Y016946D01*
X011903Y017050D01*
X011890Y017154D01*
X011849Y017252D01*
X011785Y017335D01*
X011762Y017353D01*
Y017591D01*
X012535Y018365D01*
X012535Y018365D01*
X012577Y018419D01*
X012603Y018482D01*
X012612Y018550D01*
X012603Y018618D01*
X012577Y018681D01*
X012562Y018700D01*
Y026597D01*
X012585Y026615D01*
X012649Y026698D01*
X012690Y026796D01*
X012703Y026900D01*
X012690Y027004D01*
X012649Y027102D01*
X012585Y027185D01*
X012502Y027249D01*
X012404Y027290D01*
X012300Y027303D01*
D02*
G37*
G36*
X012539Y031705D02*
X012145D01*
X012151Y031656D01*
X012199Y031540D01*
X012275Y031441D01*
X012374Y031365D01*
X012490Y031317D01*
X012539Y031311D01*
Y031705D01*
D02*
G37*
G36*
X013083D02*
X012689D01*
Y031311D01*
X012738Y031317D01*
X012854Y031365D01*
X012953Y031441D01*
X013029Y031540D01*
X013077Y031656D01*
X013083Y031705D01*
D02*
G37*
G36*
X012362Y030969D02*
X012313Y030962D01*
X012197Y030914D01*
X012098Y030838D01*
X012022Y030739D01*
X011974Y030624D01*
X011968Y030575D01*
X012362D01*
Y030969D01*
D02*
G37*
G36*
X012512D02*
Y030575D01*
X012906D01*
X012900Y030624D01*
X012852Y030739D01*
X012776Y030838D01*
X012676Y030914D01*
X012561Y030962D01*
X012512Y030969D01*
D02*
G37*
G36*
X012000Y032975D02*
X011275D01*
Y032250D01*
X012000D01*
Y032975D01*
D02*
G37*
G36*
X015725D02*
X015000D01*
Y032250D01*
X015725D01*
Y032975D01*
D02*
G37*
G36*
X012539Y032249D02*
X012490Y032243D01*
X012374Y032195D01*
X012275Y032119D01*
X012199Y032020D01*
X012151Y031904D01*
X012145Y031855D01*
X012539D01*
Y032249D01*
D02*
G37*
G36*
X012689D02*
Y031855D01*
X013083D01*
X013077Y031904D01*
X013029Y032020D01*
X012953Y032119D01*
X012854Y032195D01*
X012738Y032243D01*
X012689Y032249D01*
D02*
G37*
G36*
X012539Y029145D02*
X012145D01*
X012151Y029096D01*
X012199Y028980D01*
X012275Y028881D01*
X012374Y028805D01*
X012490Y028757D01*
X012539Y028751D01*
Y029145D01*
D02*
G37*
G36*
X013083D02*
X012689D01*
Y028751D01*
X012738Y028757D01*
X012854Y028805D01*
X012953Y028881D01*
X013029Y028980D01*
X013077Y029096D01*
X013083Y029145D01*
D02*
G37*
G36*
X011400Y026403D02*
X011296Y026390D01*
X011198Y026349D01*
X011115Y026285D01*
X011051Y026202D01*
X011010Y026104D01*
X010997Y026000D01*
X011010Y025896D01*
X011038Y025829D01*
Y021953D01*
X011015Y021935D01*
X010951Y021852D01*
X010910Y021754D01*
X010897Y021650D01*
X010910Y021546D01*
X010951Y021448D01*
X011015Y021365D01*
X011098Y021301D01*
X011196Y021260D01*
X011300Y021247D01*
X011404Y021260D01*
X011502Y021301D01*
X011585Y021365D01*
X011649Y021448D01*
X011690Y021546D01*
X011703Y021650D01*
X011690Y021754D01*
X011649Y021852D01*
X011585Y021935D01*
X011562Y021953D01*
Y025634D01*
X011602Y025651D01*
X011685Y025715D01*
X011749Y025798D01*
X011790Y025896D01*
X011803Y026000D01*
X011790Y026104D01*
X011749Y026202D01*
X011685Y026285D01*
X011602Y026349D01*
X011504Y026390D01*
X011400Y026403D01*
D02*
G37*
G36*
X014384Y032360D02*
X014234Y032340D01*
X014094Y032282D01*
X013974Y032190D01*
X013882Y032070D01*
X013824Y031930D01*
X013804Y031780D01*
X013824Y031630D01*
X013882Y031490D01*
X013974Y031370D01*
X014094Y031278D01*
X014234Y031220D01*
X014384Y031200D01*
X014413Y031060D01*
X014273Y031002D01*
X014153Y030910D01*
X014061Y030790D01*
X014003Y030650D01*
X013983Y030500D01*
X014003Y030349D01*
X014061Y030210D01*
X014153Y030089D01*
X014273Y029997D01*
X014413Y029939D01*
X014384Y029800D01*
X014234Y029780D01*
X014094Y029722D01*
X013974Y029630D01*
X013882Y029510D01*
X013824Y029370D01*
X013804Y029220D01*
X013824Y029070D01*
X013882Y028930D01*
X013974Y028810D01*
X014094Y028718D01*
X014234Y028660D01*
X014384Y028640D01*
X014534Y028660D01*
X014674Y028718D01*
X014794Y028810D01*
X014886Y028930D01*
X014898Y028958D01*
X015220D01*
X015288Y028967D01*
X015351Y028993D01*
X015405Y029035D01*
X015447Y029089D01*
X015473Y029152D01*
X015482Y029220D01*
Y031780D01*
X015473Y031848D01*
X015447Y031911D01*
X015405Y031965D01*
X015351Y032007D01*
X015288Y032033D01*
X015220Y032042D01*
X014898D01*
X014886Y032070D01*
X014794Y032190D01*
X014674Y032282D01*
X014534Y032340D01*
X014384Y032360D01*
D02*
G37*
G36*
X012362Y030425D02*
X011968D01*
X011974Y030376D01*
X012022Y030260D01*
X012098Y030161D01*
X012197Y030085D01*
X012313Y030037D01*
X012362Y030030D01*
Y030425D01*
D02*
G37*
G36*
X012906D02*
X012512D01*
Y030030D01*
X012561Y030037D01*
X012676Y030085D01*
X012776Y030161D01*
X012852Y030260D01*
X012900Y030376D01*
X012906Y030425D01*
D02*
G37*
G36*
X012539Y029689D02*
X012490Y029683D01*
X012374Y029635D01*
X012275Y029559D01*
X012199Y029460D01*
X012151Y029344D01*
X012145Y029295D01*
X012539D01*
Y029689D01*
D02*
G37*
G36*
X012689D02*
Y029295D01*
X013083D01*
X013077Y029344D01*
X013029Y029460D01*
X012953Y029559D01*
X012854Y029635D01*
X012738Y029683D01*
X012689Y029689D01*
D02*
G37*
%LPD*%
D13*
X012300Y018600D02*
Y026900D01*
Y018600D02*
X012350Y018550D01*
X011300Y025900D02*
X011400Y026000D01*
X011300Y021650D02*
Y025900D01*
X015220Y029220D02*
Y031780D01*
X014384Y029220D02*
X015220D01*
X014384Y031780D02*
X015220D01*
X011500Y017700D02*
X012350Y018550D01*
X011500Y017050D02*
Y017700D01*
X014420Y016280D02*
X015250Y015450D01*
X014384Y016280D02*
X014420D01*
X014384Y013720D02*
X015250Y014586D01*
Y015450D01*
D14*
X011200Y033050D02*
D03*
X015800D02*
D03*
D15*
Y011200D02*
D03*
X011200D02*
D03*
D16*
X012437Y030500D02*
D03*
X014563D02*
D03*
X014384Y029220D02*
D03*
Y031780D02*
D03*
X012614D02*
D03*
Y029220D02*
D03*
X012437Y015000D02*
D03*
X014563D02*
D03*
X014384Y013720D02*
D03*
Y016280D02*
D03*
X012614D02*
D03*
Y013720D02*
D03*
D17*
X012300Y026900D02*
D03*
X011400Y026000D02*
D03*
X011300Y021650D02*
D03*
X011500Y017050D02*
D03*
M02*
