G04 Layer_Physical_Order=1*
G04 Layer_Color=255*
%FSAX24Y24*%
%MOIN*%
G70*
G01*
G75*
%ADD10R,0.0118X0.0276*%
%ADD11R,0.0118X0.0394*%
%ADD12R,0.0453X0.0551*%
%ADD13C,0.0120*%
%ADD14R,0.1400X0.1400*%
%ADD15R,0.1800X0.1800*%
%ADD16C,0.0750*%
%ADD17C,0.0400*%
D10*
X013992Y012540D02*
D03*
X013795D02*
D03*
X013598D02*
D03*
X013402D02*
D03*
X013205D02*
D03*
X013008D02*
D03*
D11*
X014303Y011497D02*
D03*
X012697D02*
D03*
D12*
X013744Y026000D02*
D03*
X013056D02*
D03*
X013744Y027600D02*
D03*
X013056D02*
D03*
X013794Y017700D02*
D03*
X013106D02*
D03*
X013794Y019100D02*
D03*
X013106D02*
D03*
D13*
X013744Y025344D02*
Y026000D01*
X010550Y022150D02*
X013744Y025344D01*
X014384Y026134D02*
Y029220D01*
X014250Y026000D02*
X014384Y026134D01*
X012300Y026900D02*
Y027550D01*
X012350Y027600D01*
X010550Y013500D02*
Y022150D01*
X011400Y026000D02*
X013056D01*
X013744D02*
X014250D01*
X013744Y027600D02*
Y028156D01*
X013450Y028450D02*
X013744Y028156D01*
X013450Y028450D02*
Y029387D01*
X014563Y030500D01*
X012350Y027600D02*
X013056D01*
X013992Y012800D02*
X015700D01*
X015750Y013100D02*
X015950Y013300D01*
X013945Y013100D02*
X015750D01*
X013795Y012950D02*
X013945Y013100D01*
X015700Y012800D02*
X015800Y012700D01*
Y011200D02*
Y012700D01*
X015250Y015687D02*
Y018600D01*
X014750Y019100D02*
X015250Y018600D01*
X013794Y019100D02*
X014750D01*
X014563Y015000D02*
X015250Y015687D01*
X012250Y017700D02*
X013106D01*
X011400Y018550D02*
X012250Y017700D01*
X010900Y018550D02*
X011400D01*
X010900D02*
Y021250D01*
Y013500D02*
Y018550D01*
Y013500D02*
X011350Y013050D01*
X010900Y021250D02*
X011300Y021650D01*
X013106Y019100D02*
Y019594D01*
X013100Y019600D02*
X013106Y019594D01*
X013100Y019600D02*
X013450Y019950D01*
X015250D01*
X015950Y019250D01*
Y013300D02*
Y019250D01*
X013100Y017050D02*
X013402Y016748D01*
X011500Y017050D02*
X013100D01*
X013820Y013720D02*
X014384D01*
X013598Y013498D02*
X013820Y013720D01*
X011350Y013050D02*
X013050D01*
X013205Y012895D01*
X010550Y013500D02*
X011258Y012792D01*
X013794Y017206D02*
X014384Y016616D01*
Y016280D02*
Y016616D01*
X013794Y017206D02*
Y017700D01*
X011258Y012792D02*
X013008D01*
X013992Y012540D02*
Y012800D01*
X013795Y012540D02*
Y012950D01*
X013598Y012540D02*
Y013498D01*
X013402Y012540D02*
Y016748D01*
X013205Y012540D02*
Y012895D01*
X013008Y012540D02*
Y012792D01*
D14*
X011200Y033050D02*
D03*
X015800D02*
D03*
D15*
Y011200D02*
D03*
X011200D02*
D03*
D16*
X012437Y030500D02*
D03*
X014563D02*
D03*
X014384Y029220D02*
D03*
Y031780D02*
D03*
X012614D02*
D03*
Y029220D02*
D03*
X012437Y015000D02*
D03*
X014563D02*
D03*
X014384Y013720D02*
D03*
Y016280D02*
D03*
X012614D02*
D03*
Y013720D02*
D03*
D17*
X012300Y026900D02*
D03*
X011400Y026000D02*
D03*
X011300Y021650D02*
D03*
X011500Y017050D02*
D03*
M02*
