%FSDAX24Y24*%
%MOIN*%
%SFA1B1*%

%IPPOS*%
%ADD10C,0.040000*%
%ADD14C,0.012000*%
%ADD15R,0.140000X0.140000*%
%ADD16R,0.180000X0.180000*%
%ADD17C,0.075000*%
%LNpokey-switch-board-1*%
%LPD*%
G36*
X015000Y033125D02*
X015800D01*
Y033050*
X015875*
Y032250*
X016600*
Y012200*
X015875*
Y011200*
X015800*
Y011125*
X014800*
Y010450*
X012200*
Y011125*
X011200*
Y011200*
X011125*
Y012200*
X010400*
Y028244*
X010550Y028314*
X010609Y028266*
X010750Y028191*
X010902Y028145*
X011060Y028129*
X011218Y028145*
X011370Y028191*
X011511Y028266*
X011633Y028367*
X011734Y028489*
X011809Y028630*
X011855Y028782*
X011871Y028940*
X011855Y029098*
X011809Y029250*
X011734Y029391*
X011633Y029513*
X011511Y029614*
X011370Y029689*
X011218Y029735*
X011060Y029751*
X010902Y029735*
X010750Y029689*
X010609Y029614*
X010550Y029566*
X010400Y029636*
Y032250*
X011125*
Y033050*
X011200*
Y033125*
X012000*
Y033800*
X012754*
X012826Y033651*
X012751Y033510*
X012705Y033358*
X012689Y033200*
X012705Y033042*
X012751Y032890*
X012826Y032749*
X012927Y032627*
X013049Y032526*
X013190Y032451*
X013342Y032405*
X013500Y032389*
X013658Y032405*
X013810Y032451*
X013951Y032526*
X014073Y032627*
X014174Y032749*
X014249Y032890*
X014295Y033042*
X014311Y033200*
X014295Y033358*
X014249Y033510*
X014174Y033651*
X014246Y033800*
X015000*
Y033125*
G37*
%LNpokey-switch-board-2*%
%LPC*%
G36*
X012512Y015469D02*
Y015075D01*
X012906*
X012900Y015124*
X012852Y015239*
X012776Y015338*
X012676Y015414*
X012561Y015462*
X012512Y015469*
G37*
G36*
X012539Y016205D02*
X012145D01*
X012151Y016156*
X012199Y016040*
X012275Y015941*
X012374Y015865*
X012490Y015817*
X012539Y015811*
Y016205*
G37*
G36*
X012906Y014925D02*
X012512D01*
Y014530*
X012561Y014537*
X012676Y014585*
X012776Y014661*
X012852Y014760*
X012900Y014876*
X012906Y014925*
G37*
G36*
X012362Y015469D02*
X012313Y015462D01*
X012197Y015414*
X012098Y015338*
X012022Y015239*
X011974Y015124*
X011968Y015075*
X012362*
Y015469*
G37*
G36*
X012689Y016749D02*
Y016355D01*
X013083*
X013077Y016404*
X013029Y016520*
X012953Y016619*
X012854Y016695*
X012738Y016743*
X012689Y016749*
G37*
G36*
X012300Y027303D02*
X012196Y027290D01*
X012098Y027249*
X012015Y027185*
X011951Y027102*
X011910Y027004*
X011897Y026900*
X011910Y026796*
X011951Y026698*
X012015Y026615*
X012038Y026597*
Y018709*
X011315Y017985*
X011273Y017931*
X011247Y017868*
X011238Y017800*
Y017353*
X011215Y017335*
X011151Y017252*
X011110Y017154*
X011097Y017050*
X011110Y016946*
X011151Y016848*
X011215Y016765*
X011298Y016701*
X011396Y016660*
X011500Y016647*
X011604Y016660*
X011702Y016701*
X011785Y016765*
X011849Y016848*
X011890Y016946*
X011903Y017050*
X011890Y017154*
X011849Y017252*
X011785Y017335*
X011762Y017353*
Y017691*
X012485Y018415*
X012527Y018469*
X012553Y018532*
X012562Y018600*
Y020691*
X012712Y020714*
X012741Y020620*
X012816Y020479*
X012917Y020357*
X013039Y020256*
X013180Y020181*
X013332Y020135*
X013490Y020119*
X013648Y020135*
X013800Y020181*
X013941Y020256*
X014063Y020357*
X014164Y020479*
X014239Y020620*
X014285Y020772*
X014301Y020930*
X014285Y021088*
X014239Y021240*
X014164Y021381*
X014063Y021503*
X013941Y021604*
X013800Y021679*
X013648Y021725*
X013490Y021741*
X013332Y021725*
X013180Y021679*
X013039Y021604*
X012917Y021503*
X012816Y021381*
X012741Y021240*
X012712Y021146*
X012562Y021169*
Y026597*
X012585Y026615*
X012649Y026698*
X012690Y026796*
X012703Y026900*
X012690Y027004*
X012649Y027102*
X012585Y027185*
X012502Y027249*
X012404Y027290*
X012300Y027303*
G37*
G36*
X013083Y016205D02*
X012689D01*
Y015811*
X012738Y015817*
X012854Y015865*
X012953Y015941*
X013029Y016040*
X013077Y016156*
X013083Y016205*
G37*
G36*
X012539Y016749D02*
X012490Y016743D01*
X012374Y016695*
X012275Y016619*
X012199Y016520*
X012151Y016404*
X012145Y016355*
X012539*
Y016749*
G37*
G36*
X014384Y016860D02*
X014234Y016840D01*
X014094Y016782*
X013974Y016690*
X013882Y016570*
X013824Y016430*
X013804Y016280*
X013824Y016130*
X013882Y015990*
X013974Y015870*
X014094Y015778*
X014234Y015720*
X014384Y015700*
X014413Y015560*
X014273Y015502*
X014153Y015410*
X014061Y015290*
X014003Y015150*
X013983Y015000*
X014003Y014849*
X014061Y014710*
X014153Y014589*
X014273Y014497*
X014413Y014439*
X014384Y014300*
X014234Y014280*
X014094Y014222*
X013974Y014130*
X013882Y014010*
X013824Y013870*
X013804Y013720*
X013824Y013570*
X013882Y013430*
X013974Y013310*
X014094Y013218*
X014234Y013160*
X014384Y013140*
X014534Y013160*
X014674Y013218*
X014794Y013310*
X014886Y013430*
X014944Y013570*
X014964Y013720*
X014944Y013870*
X014933Y013898*
X015435Y014401*
X015477Y014455*
X015503Y014518*
X015512Y014586*
Y015450*
X015503Y015518*
X015477Y015581*
X015435Y015635*
X014943Y016128*
X014944Y016130*
X014964Y016280*
X014944Y016430*
X014886Y016570*
X014794Y016690*
X014674Y016782*
X014534Y016840*
X014384Y016860*
G37*
G36*
X012539Y013645D02*
X012145D01*
X012151Y013596*
X012199Y013480*
X012275Y013381*
X012374Y013305*
X012490Y013257*
X012539Y013251*
Y013645*
G37*
G36*
X012200Y012200D02*
X011275D01*
Y011275*
X012200*
Y012200*
G37*
G36*
X015725D02*
X014800D01*
Y011275*
X015725*
Y012200*
G37*
G36*
X012689Y014189D02*
Y013795D01*
X013083*
X013077Y013844*
X013029Y013960*
X012953Y014059*
X012854Y014135*
X012738Y014183*
X012689Y014189*
G37*
G36*
X012362Y014925D02*
X011968D01*
X011974Y014876*
X012022Y014760*
X012098Y014661*
X012197Y014585*
X012313Y014537*
X012362Y014530*
Y014925*
G37*
G36*
X013083Y013645D02*
X012689D01*
Y013251*
X012738Y013257*
X012854Y013305*
X012953Y013381*
X013029Y013480*
X013077Y013596*
X013083Y013645*
G37*
G36*
X012539Y014189D02*
X012490Y014183D01*
X012374Y014135*
X012275Y014059*
X012199Y013960*
X012151Y013844*
X012145Y013795*
X012539*
Y014189*
G37*
G36*
Y031705D02*
X012145D01*
X012151Y031656*
X012199Y031540*
X012275Y031441*
X012374Y031365*
X012490Y031317*
X012539Y031311*
Y031705*
G37*
G36*
X013083D02*
X012689D01*
Y031311*
X012738Y031317*
X012854Y031365*
X012953Y031441*
X013029Y031540*
X013077Y031656*
X013083Y031705*
G37*
G36*
X012362Y030969D02*
X012313Y030962D01*
X012197Y030914*
X012098Y030838*
X012022Y030739*
X011974Y030624*
X011968Y030575*
X012362*
Y030969*
G37*
G36*
X012512D02*
Y030575D01*
X012906*
X012900Y030624*
X012852Y030739*
X012776Y030838*
X012676Y030914*
X012561Y030962*
X012512Y030969*
G37*
G36*
X012000Y032975D02*
X011275D01*
Y032250*
X012000*
Y032975*
G37*
G36*
X015725D02*
X015000D01*
Y032250*
X015725*
Y032975*
G37*
G36*
X012539Y032249D02*
X012490Y032243D01*
X012374Y032195*
X012275Y032119*
X012199Y032020*
X012151Y031904*
X012145Y031855*
X012539*
Y032249*
G37*
G36*
X012689D02*
Y031855D01*
X013083*
X013077Y031904*
X013029Y032020*
X012953Y032119*
X012854Y032195*
X012738Y032243*
X012689Y032249*
G37*
G36*
X012539Y029145D02*
X012145D01*
X012151Y029096*
X012199Y028980*
X012275Y028881*
X012374Y028805*
X012490Y028757*
X012539Y028751*
Y029145*
G37*
G36*
X013083D02*
X012689D01*
Y028751*
X012738Y028757*
X012854Y028805*
X012953Y028881*
X013029Y028980*
X013077Y029096*
X013083Y029145*
G37*
G36*
X011400Y026403D02*
X011296Y026390D01*
X011198Y026349*
X011115Y026285*
X011051Y026202*
X011010Y026104*
X010997Y026000*
X011010Y025896*
X011038Y025829*
Y021953*
X011015Y021935*
X010951Y021852*
X010910Y021754*
X010897Y021650*
X010910Y021546*
X010951Y021448*
X011015Y021365*
X011098Y021301*
X011196Y021260*
X011300Y021247*
X011404Y021260*
X011502Y021301*
X011585Y021365*
X011649Y021448*
X011690Y021546*
X011703Y021650*
X011690Y021754*
X011649Y021852*
X011585Y021935*
X011562Y021953*
Y025634*
X011602Y025651*
X011685Y025715*
X011749Y025798*
X011790Y025896*
X011803Y026000*
X011790Y026104*
X011749Y026202*
X011685Y026285*
X011602Y026349*
X011504Y026390*
X011400Y026403*
G37*
G36*
X014384Y032360D02*
X014234Y032340D01*
X014094Y032282*
X013974Y032190*
X013882Y032070*
X013824Y031930*
X013804Y031780*
X013824Y031630*
X013882Y031490*
X013974Y031370*
X014094Y031278*
X014234Y031220*
X014384Y031200*
X014413Y031060*
X014273Y031002*
X014153Y030910*
X014061Y030790*
X014003Y030650*
X013983Y030500*
X014003Y030349*
X014061Y030210*
X014153Y030089*
X014273Y029997*
X014413Y029939*
X014384Y029800*
X014234Y029780*
X014094Y029722*
X013974Y029630*
X013882Y029510*
X013824Y029370*
X013804Y029220*
X013824Y029070*
X013882Y028930*
X013974Y028810*
X014094Y028718*
X014234Y028660*
X014384Y028640*
X014534Y028660*
X014674Y028718*
X014794Y028810*
X014886Y028930*
X014898Y028958*
X015220*
X015288Y028967*
X015351Y028993*
X015405Y029035*
X015447Y029089*
X015473Y029152*
X015482Y029220*
Y031780*
X015473Y031848*
X015447Y031911*
X015405Y031965*
X015351Y032007*
X015288Y032033*
X015220Y032042*
X014898*
X014886Y032070*
X014794Y032190*
X014674Y032282*
X014534Y032340*
X014384Y032360*
G37*
G36*
X012362Y030425D02*
X011968D01*
X011974Y030376*
X012022Y030260*
X012098Y030161*
X012197Y030085*
X012313Y030037*
X012362Y030030*
Y030425*
G37*
G36*
X012906D02*
X012512D01*
Y030030*
X012561Y030037*
X012676Y030085*
X012776Y030161*
X012852Y030260*
X012900Y030376*
X012906Y030425*
G37*
G36*
X012539Y029689D02*
X012490Y029683D01*
X012374Y029635*
X012275Y029559*
X012199Y029460*
X012151Y029344*
X012145Y029295*
X012539*
Y029689*
G37*
G36*
X012689D02*
Y029295D01*
X013083*
X013077Y029344*
X013029Y029460*
X012953Y029559*
X012854Y029635*
X012738Y029683*
X012689Y029689*
G37*
%LNpokey-switch-board-3*%
%LPD*%
G54D10*
X012300Y026900D03*
X011400Y026000D03*
X011300Y021650D03*
X011500Y017050D03*
G54D14*
X012300Y018600D02*
Y026900D01*
X011300Y025900D02*
X011400Y026000D01*
X011300Y021650D02*
Y025900D01*
X015220Y029220D02*
Y031780D01*
X014384Y029220D02*
X015220D01*
X014384Y031780D02*
X015220D01*
X014420Y016280D02*
X015250Y015450D01*
X014384Y016280D02*
X014420D01*
X014384Y013720D02*
X015250Y014586D01*
Y015450*
X011500Y017050D02*
Y017800D01*
X012300Y018600*
G54D15*
X011200Y033050D03*
X015800D03*
G54D16*
X015800Y011200D03*
X011200D03*
G54D17*
X012437Y030500D03*
X014563D03*
X014384Y029220D03*
Y031780D03*
X012614D03*
Y029220D03*
X012437Y015000D03*
X014563D03*
X014384Y013720D03*
Y016280D03*
X012614D03*
Y013720D03*
M02*