%FSDAX24Y24*%
%MOIN*%
%SFA1B1*%

%IPPOS*%
%ADD10C,0.040000*%
%ADD11R,0.011800X0.027600*%
%ADD12R,0.011800X0.039400*%
%ADD13R,0.045300X0.055100*%
%ADD14C,0.012000*%
%ADD15R,0.140000X0.140000*%
%ADD16R,0.180000X0.180000*%
%ADD17C,0.075000*%
%LNpokey-switch-board-1*%
%LPD*%
G54D10*
X013500Y033200D03*
X013490Y020930D03*
X011060Y028940D03*
X012300Y026900D03*
X011400Y026000D03*
X011300Y021650D03*
X011500Y017050D03*
G54D11*
X013992Y012540D03*
X013795D03*
X013598D03*
X013402D03*
X013205D03*
X013008D03*
G54D12*
X014303Y011497D03*
X012697D03*
G54D13*
X013744Y026000D03*
X013056D03*
X013744Y027600D03*
X013056D03*
X013794Y017700D03*
X013106D03*
X013794Y019100D03*
X013106D03*
G54D14*
X013744Y025344D02*
Y026000D01*
X010550Y022150D02*
X013744Y025344D01*
X014384Y026134D02*
Y029220D01*
X014250Y026000D02*
X014384Y026134D01*
X012300Y026900D02*
Y027550D01*
X012350Y027600*
X010550Y013500D02*
Y022150D01*
X011400Y026000D02*
X013056D01*
X013744D02*
X014250D01*
X013744Y027600D02*
Y028156D01*
X013450Y028450D02*
X013744Y028156D01*
X013450Y028450D02*
Y029387D01*
X014563Y030500*
X012350Y027600D02*
X013056D01*
X013992Y012800D02*
X015700D01*
X015750Y013100D02*
X015950Y013300D01*
X013945Y013100D02*
X015750D01*
X013795Y012950D02*
X013945Y013100D01*
X015700Y012800D02*
X015800Y012700D01*
Y011200D02*
Y012700D01*
X015250Y015687D02*
Y018600D01*
X014750Y019100D02*
X015250Y018600D01*
X013794Y019100D02*
X014750D01*
X014563Y015000D02*
X015250Y015687D01*
X012250Y017700D02*
X013106D01*
X011400Y018550D02*
X012250Y017700D01*
X010900Y018550D02*
X011400D01*
X010900D02*
Y021250D01*
Y013500D02*
Y018550D01*
Y013500D02*
X011350Y013050D01*
X010900Y021250D02*
X011300Y021650D01*
X013106Y019100D02*
Y019594D01*
X013100Y019600D02*
X013106Y019594D01*
X013100Y019600D02*
X013450Y019950D01*
X015250*
X015950Y019250*
Y013300D02*
Y019250D01*
X013100Y017050D02*
X013402Y016748D01*
X011500Y017050D02*
X013100D01*
X013820Y013720D02*
X014384D01*
X013598Y013498D02*
X013820Y013720D01*
X011350Y013050D02*
X013050D01*
X013205Y012895*
X010550Y013500D02*
X011258Y012792D01*
X013794Y017206D02*
X014384Y016616D01*
Y016280D02*
Y016616D01*
X013794Y017206D02*
Y017700D01*
X011258Y012792D02*
X013008D01*
X013992Y012540D02*
Y012800D01*
X013795Y012540D02*
Y012950D01*
X013598Y012540D02*
Y013498D01*
X013402Y012540D02*
Y016748D01*
X013205Y012540D02*
Y012895D01*
X013008Y012540D02*
Y012792D01*
G54D15*
X011200Y033050D03*
X015800D03*
G54D16*
X015800Y011200D03*
X011200D03*
G54D17*
X012437Y030500D03*
X014563D03*
X014384Y029220D03*
Y031780D03*
X012614D03*
Y029220D03*
X012437Y015000D03*
X014563D03*
X014384Y013720D03*
Y016280D03*
X012614D03*
Y013720D03*
M02*