M48
;Layer_Color=9474304
;FILE_FORMAT=2:4
INCH
;TYPE=PLATED
T1F00S00C0.0150
T2F00S00C0.0390
T3F00S00C0.1160
%
T01
X011500Y017050
X011300Y021650
X011400Y026000
X012300Y026900
T02
X012614Y013720
X012437Y015000
X014563
X014384Y013720
Y016280
X012614
Y029220
X012437Y030500
X014563
X014384Y029220
Y031780
X012614
T03
X011200Y011200
X015800
X011200Y033050
X015800
M30
