%FSDAX24Y24*%
%MOIN*%
%SFA1B1*%

%IPPOS*%
%LNmotherboard-1*%
%LPD*%
G36*
X016174Y035731D02*
X016188Y035723D01*
X016200Y035715*
X016212Y035707*
X016222Y035700*
X016232Y035694*
X016240Y035688*
X016248Y035682*
X016255Y035677*
X016260Y035673*
X016265Y035669*
X016269Y035665*
X016273Y035663*
X016275Y035661*
X016277Y035659*
X016278Y035658*
X016289Y035647*
X016299Y035636*
X016308Y035624*
X016316Y035613*
X016323Y035603*
X016328Y035595*
X016330Y035593*
Y035590*
X016332Y035589*
Y035588*
X016335Y035604*
X016338Y035618*
X016342Y035631*
X016346Y035644*
X016351Y035656*
X016356Y035666*
X016361Y035675*
X016366Y035683*
X016371Y035691*
X016376Y035697*
X016380Y035703*
X016384Y035708*
X016387Y035711*
X016389Y035713*
X016391Y035715*
X016400Y035723*
X016410Y035729*
X016420Y035735*
X016430Y035740*
X016440Y035744*
X016450Y035747*
X016469Y035752*
X016478Y035754*
X016486Y035756*
X016493*
X016499Y035757*
X016504Y035758*
X016511*
X016532Y035756*
X016550Y035754*
X016568Y035749*
X016582Y035744*
X016589Y035741*
X016595Y035738*
X016600Y035736*
X016604Y035733*
X016607Y035732*
X016609Y035731*
X016611Y035729*
X016627Y035718*
X016640Y035706*
X016650Y035694*
X016659Y035682*
X016666Y035671*
X016668Y035667*
X016670Y035663*
X016671Y035659*
X016673Y035657*
Y035656*
Y035655*
X016676Y035646*
X016679Y035636*
X016682Y035624*
X016683Y035612*
X016686Y035588*
X016688Y035563*
X016689Y035552*
X016690Y035540*
Y035531*
X016691Y035522*
Y035515*
Y035511*
Y035507*
Y035506*
Y035234*
X016050*
Y035363*
X016317*
Y035388*
Y035404*
X016316Y035418*
X016315Y035429*
X016314Y035438*
X016312Y035445*
X016311Y035450*
X016310Y035453*
Y035454*
X016307Y035461*
X016303Y035468*
X016298Y035475*
X016294Y035481*
X016289Y035486*
X016287Y035490*
X016284Y035492*
X016283Y035493*
X016279Y035497*
X016273Y035501*
X016267Y035506*
X016260Y035511*
X016245Y035522*
X016229Y035534*
X016214Y035545*
X016208Y035549*
X016201Y035553*
X016196Y035556*
X016193Y035559*
X016190Y035561*
X016189*
X016050Y035655*
Y035810*
X016174Y035731*
G37*
G36*
X016691Y034642D02*
X016582D01*
Y034833*
X016050*
Y034962*
X016582*
Y035150*
X016691*
Y034642*
G37*
G36*
Y036201D02*
Y036064D01*
X016050Y035815*
Y035951*
X016196Y036005*
Y036261*
X016050Y036317*
Y036458*
X016691Y036201*
G37*
G36*
X016258Y037659D02*
X016278Y037656D01*
X016295Y037652*
X016303Y037650*
X016310Y037647*
X016316Y037645*
X016321Y037643*
X016326Y037640*
X016330Y037638*
X016334Y037636*
X016336*
X016337Y037634*
X016338*
X016353Y037624*
X016366Y037612*
X016377Y037600*
X016387Y037589*
X016394Y037579*
X016399Y037570*
X016400Y037567*
X016402Y037565*
X016403Y037563*
X016407Y037554*
X016412Y037544*
X016416Y037533*
X016421Y037522*
X016428Y037499*
X016435Y037476*
X016438Y037466*
X016441Y037455*
X016444Y037447*
X016446Y037439*
X016447Y037432*
X016448Y037427*
X016449Y037425*
Y037423*
X016453Y037407*
X016457Y037391*
X016462Y037377*
X016466Y037365*
X016469Y037354*
X016473Y037344*
X016476Y037336*
X016479Y037329*
X016482Y037323*
X016484Y037317*
X016487Y037313*
X016489Y037310*
X016490Y037307*
X016491Y037306*
X016492Y037305*
X016498Y037298*
X016505Y037293*
X016512Y037291*
X016518Y037288*
X016523Y037287*
X016527Y037286*
X016531*
X016540Y037287*
X016548Y037289*
X016555Y037292*
X016560Y037296*
X016564Y037300*
X016568Y037303*
X016570Y037305*
X016571Y037306*
X016578Y037319*
X016584Y037333*
X016589Y037348*
X016591Y037362*
X016593Y037375*
Y037381*
X016594Y037386*
Y037389*
Y037392*
Y037394*
Y037395*
X016593Y037414*
X016591Y037431*
X016587Y037445*
X016583Y037457*
X016579Y037466*
X016575Y037472*
X016573Y037475*
X016572Y037477*
X016563Y037486*
X016552Y037494*
X016540Y037500*
X016529Y037505*
X016518Y037509*
X016514Y037510*
X016509Y037511*
X016507Y037512*
X016504*
X016502Y037513*
X016507Y037642*
X016523Y037640*
X016538Y037638*
X016552Y037635*
X016566Y037630*
X016578Y037625*
X016590Y037620*
X016600Y037614*
X016610Y037609*
X016618Y037602*
X016626Y037597*
X016633Y037592*
X016638Y037587*
X016642Y037583*
X016645Y037580*
X016647Y037578*
X016648Y037577*
X016657Y037566*
X016665Y037552*
X016673Y037538*
X016679Y037523*
X016684Y037509*
X016688Y037493*
X016691Y037478*
X016694Y037464*
X016697Y037450*
X016698Y037437*
X016700Y037426*
Y037416*
X016701Y037408*
Y037402*
Y037398*
Y037397*
Y037396*
X016700Y037369*
X016699Y037357*
X016697Y037345*
X016695Y037334*
X016694Y037323*
X016692Y037314*
X016690Y037305*
X016687Y037297*
X016685Y037290*
X016684Y037284*
X016682Y037279*
X016680Y037275*
X016679Y037272*
X016678Y037271*
Y037270*
X016669Y037252*
X016659Y037235*
X016648Y037222*
X016638Y037210*
X016628Y037202*
X016620Y037195*
X016618Y037193*
X016616Y037191*
X016614Y037190*
X016598Y037181*
X016582Y037174*
X016566Y037169*
X016552Y037166*
X016540Y037164*
X016534Y037163*
X016530*
X016527Y037162*
X016522*
X016508Y037163*
X016495Y037165*
X016482Y037168*
X016470Y037171*
X016459Y037176*
X016448Y037181*
X016438Y037187*
X016429Y037192*
X016421Y037197*
X016414Y037203*
X016407Y037207*
X016403Y037212*
X016398Y037216*
X016396Y037219*
X016394Y037221*
X016393*
X016386Y037230*
X016380Y037239*
X016373Y037250*
X016367Y037262*
X016357Y037286*
X016347Y037310*
X016344Y037321*
X016340Y037332*
X016337Y037341*
X016335Y037350*
X016332Y037357*
X016331Y037362*
X016330Y037366*
Y037367*
X016326Y037382*
X016323Y037395*
X016320Y037407*
X016317Y037417*
X016314Y037427*
X016312Y037435*
X016310Y037443*
X016308Y037449*
X016307Y037455*
X016305Y037459*
X016304Y037463*
X016303Y037466*
Y037468*
Y037469*
X016302Y037470*
X016297Y037482*
X016293Y037492*
X016288Y037500*
X016284Y037507*
X016280Y037511*
X016277Y037514*
X016275Y037516*
X016274Y037517*
X016268Y037522*
X016262Y037525*
X016255Y037527*
X016248Y037529*
X016244Y037530*
X016239Y037531*
X016229*
X016223Y037529*
X016211Y037526*
X016200Y037520*
X016191Y037515*
X016184Y037509*
X016178Y037504*
X016175Y037500*
X016174*
Y037499*
X016169Y037493*
X016165Y037486*
X016158Y037470*
X016153Y037455*
X016151Y037439*
X016149Y037425*
X016148Y037420*
Y037414*
X016147Y037410*
Y037407*
Y037405*
Y037404*
X016149Y037383*
X016152Y037364*
X016156Y037348*
X016162Y037334*
X016165Y037329*
X016167Y037324*
X016169Y037319*
X016171Y037316*
X016174Y037313*
X016175Y037311*
X016176Y037310*
Y037309*
X016183Y037303*
X016189Y037298*
X016203Y037288*
X016219Y037280*
X016235Y037273*
X016248Y037269*
X016254Y037267*
X016260Y037266*
X016264Y037265*
X016267Y037264*
X016269*
X016270*
X016258Y037138*
X016238Y037141*
X016219Y037145*
X016203Y037150*
X016187Y037155*
X016172Y037162*
X016158Y037168*
X016146Y037175*
X016135Y037182*
X016126Y037188*
X016117Y037194*
X016110Y037200*
X016104Y037205*
X016100Y037210*
X016097Y037213*
X016094Y037215*
Y037216*
X016084Y037229*
X016076Y037243*
X016068Y037257*
X016062Y037273*
X016056Y037288*
X016052Y037303*
X016048Y037318*
X016045Y037334*
X016043Y037348*
X016041Y037361*
X016040Y037373*
X016039Y037382*
Y037391*
X016038Y037397*
Y037401*
Y037402*
Y037418*
X016039Y037432*
X016040Y037447*
X016042Y037459*
X016044Y037472*
X016045Y037484*
X016047Y037494*
X016050Y037504*
X016052Y037512*
X016054Y037520*
X016056Y037527*
X016058Y037532*
X016059Y037536*
X016060Y037539*
X016061Y037541*
Y037542*
X016071Y037562*
X016082Y037579*
X016094Y037594*
X016106Y037606*
X016116Y037616*
X016121Y037620*
X016125Y037623*
X016128Y037625*
X016130Y037627*
X016132Y037629*
X016133*
X016142Y037634*
X016151Y037639*
X016169Y037647*
X016187Y037652*
X016203Y037656*
X016210Y037657*
X016216Y037659*
X016222*
X016227*
X016230Y037660*
X016236*
X016258Y037659*
G37*
G36*
X016691Y036916D02*
X016260D01*
X016691Y036652*
Y036527*
X016050*
Y036647*
X016471*
X016050Y036906*
Y037035*
X016691*
Y036916*
G37*
G36*
X016507Y034332D02*
X016521D01*
X016533Y034329*
X016545Y034327*
X016556Y034325*
X016566Y034321*
X016575Y034318*
X016584Y034314*
X016592Y034311*
X016598Y034307*
X016605Y034304*
X016609Y034301*
X016613Y034299*
X016616Y034297*
X016617Y034296*
X016618Y034295*
X016627Y034288*
X016634Y034281*
X016641Y034273*
X016648Y034265*
X016659Y034250*
X016668Y034235*
X016674Y034223*
X016676Y034217*
X016678Y034212*
X016679Y034209*
X016680Y034206*
X016681Y034204*
Y034203*
X016682Y034195*
X016684Y034186*
X016686Y034176*
Y034164*
X016687Y034152*
X016688Y034139*
X016689Y034113*
X016690Y034100*
Y034089*
X016691Y034078*
Y034068*
Y034061*
Y034055*
Y034051*
Y034050*
Y033842*
X016050*
Y033971*
X016292*
Y034055*
Y034071*
Y034087*
Y034100*
X016293Y034114*
X016294Y034125*
Y034136*
X016295Y034147*
X016296Y034156*
X016297Y034164*
X016298Y034170*
Y034177*
X016299Y034182*
X016300Y034185*
Y034188*
X016301Y034189*
Y034190*
X016304Y034202*
X016308Y034215*
X016313Y034226*
X016318Y034236*
X016323Y034245*
X016327Y034251*
X016330Y034255*
Y034256*
Y034257*
X016340Y034268*
X016351Y034279*
X016361Y034288*
X016371Y034297*
X016380Y034303*
X016387Y034307*
X016390Y034309*
X016392Y034311*
X016393*
X016394*
X016409Y034318*
X016426Y034324*
X016443Y034327*
X016458Y034330*
X016466Y034331*
X016472Y034332*
X016478*
X016483Y034333*
X016493*
X016507Y034332*
G37*
G36*
X015258Y037859D02*
X015278Y037856D01*
X015295Y037852*
X015303Y037850*
X015310Y037847*
X015316Y037845*
X015321Y037843*
X015326Y037840*
X015330Y037838*
X015334Y037836*
X015336*
X015337Y037834*
X015338*
X015353Y037824*
X015366Y037812*
X015377Y037800*
X015387Y037789*
X015394Y037779*
X015399Y037770*
X015400Y037767*
X015402Y037765*
X015403Y037763*
X015407Y037754*
X015412Y037744*
X015416Y037733*
X015421Y037722*
X015428Y037699*
X015435Y037676*
X015438Y037666*
X015441Y037655*
X015444Y037647*
X015446Y037639*
X015447Y037632*
X015448Y037627*
X015449Y037625*
Y037623*
X015453Y037607*
X015457Y037591*
X015462Y037577*
X015466Y037565*
X015469Y037554*
X015473Y037544*
X015476Y037536*
X015479Y037529*
X015482Y037523*
X015484Y037517*
X015487Y037513*
X015489Y037510*
X015490Y037507*
X015491Y037506*
X015492Y037505*
X015498Y037498*
X015505Y037493*
X015512Y037491*
X015518Y037488*
X015523Y037487*
X015527Y037486*
X015531*
X015540Y037487*
X015548Y037489*
X015555Y037492*
X015560Y037496*
X015564Y037500*
X015568Y037503*
X015570Y037505*
Y037506*
X015578Y037519*
X015584Y037533*
X015589Y037548*
X015591Y037562*
X015593Y037575*
Y037581*
X015594Y037586*
Y037589*
Y037592*
Y037594*
Y037595*
X015593Y037614*
X015591Y037631*
X015587Y037645*
X015583Y037657*
X015579Y037666*
X015575Y037672*
X015573Y037675*
X015572Y037677*
X015563Y037686*
X015552Y037694*
X015540Y037700*
X015529Y037705*
X015518Y037709*
X015514Y037710*
X015509Y037711*
X015507Y037712*
X015504*
X015502Y037713*
X015507Y037842*
X015523Y037840*
X015538Y037838*
X015552Y037835*
X015566Y037830*
X015578Y037825*
X015590Y037820*
X015600Y037814*
X015610Y037809*
X015618Y037802*
X015626Y037797*
X015633Y037792*
X015638Y037787*
X015642Y037783*
X015645Y037780*
X015647Y037778*
X015648Y037777*
X015657Y037766*
X015665Y037752*
X015673Y037738*
X015679Y037723*
X015684Y037709*
X015688Y037693*
X015691Y037678*
X015694Y037664*
X015697Y037650*
X015698Y037637*
X015700Y037626*
Y037616*
X015701Y037608*
Y037602*
Y037598*
Y037597*
Y037596*
X015700Y037569*
X015699Y037557*
X015697Y037545*
X015695Y037534*
X015694Y037523*
X015692Y037514*
X015690Y037505*
X015687Y037497*
X015685Y037490*
X015684Y037484*
X015682Y037479*
X015680Y037475*
X015679Y037472*
X015678Y037471*
Y037470*
X015669Y037452*
X015659Y037435*
X015648Y037422*
X015638Y037410*
X015628Y037402*
X015620Y037395*
X015618Y037393*
X015616Y037391*
X015614Y037390*
X015598Y037381*
X015582Y037374*
X015566Y037369*
X015552Y037366*
X015540Y037364*
X015534Y037363*
X015530*
X015527Y037362*
X015522*
X015508Y037363*
X015495Y037365*
X015482Y037368*
X015470Y037371*
X015459Y037376*
X015448Y037381*
X015438Y037387*
X015429Y037392*
X015421Y037397*
X015414Y037403*
X015407Y037407*
X015403Y037412*
X015398Y037416*
X015396Y037419*
X015394Y037421*
X015393*
X015386Y037430*
X015380Y037439*
X015373Y037450*
X015367Y037462*
X015357Y037486*
X015347Y037510*
X015344Y037521*
X015340Y037532*
X015337Y037541*
X015335Y037550*
X015332Y037557*
X015331Y037562*
X015330Y037566*
Y037567*
X015326Y037582*
X015323Y037595*
X015320Y037607*
X015317Y037617*
X015314Y037627*
X015312Y037635*
X015310Y037643*
X015308Y037649*
X015307Y037655*
X015305Y037659*
X015304Y037663*
X015303Y037666*
Y037668*
Y037669*
X015302Y037670*
X015297Y037682*
X015293Y037692*
X015288Y037700*
X015284Y037707*
X015280Y037711*
X015277Y037714*
X015275Y037716*
X015274Y037717*
X015268Y037722*
X015262Y037725*
X015255Y037727*
X015248Y037729*
X015244Y037730*
X015239Y037731*
X015229*
X015223Y037729*
X015211Y037726*
X015200Y037720*
X015191Y037715*
X015184Y037709*
X015178Y037704*
X015175Y037700*
X015174*
Y037699*
X015169Y037693*
X015165Y037686*
X015158Y037670*
X015153Y037655*
X015151Y037639*
X015149Y037625*
X015148Y037620*
Y037614*
X015147Y037610*
Y037607*
Y037605*
Y037604*
X015149Y037583*
X015152Y037564*
X015156Y037548*
X015162Y037534*
X015165Y037529*
X015167Y037524*
X015169Y037519*
X015171Y037516*
X015174Y037513*
X015175Y037511*
X015176Y037510*
Y037509*
X015183Y037503*
X015189Y037498*
X015203Y037488*
X015219Y037480*
X015235Y037473*
X015248Y037469*
X015254Y037467*
X015260Y037466*
X015264Y037465*
X015267Y037464*
X015269*
X015270*
X015258Y037338*
X015238Y037341*
X015219Y037345*
X015203Y037350*
X015187Y037355*
X015172Y037362*
X015158Y037368*
X015146Y037375*
X015135Y037382*
X015126Y037388*
X015117Y037394*
X015110Y037400*
X015104Y037405*
X015100Y037410*
X015096Y037413*
X015094Y037415*
Y037416*
X015084Y037429*
X015076Y037443*
X015068Y037457*
X015062Y037473*
X015056Y037488*
X015052Y037503*
X015048Y037518*
X015045Y037534*
X015043Y037548*
X015041Y037561*
X015040Y037573*
X015039Y037582*
Y037591*
X015038Y037597*
Y037601*
Y037602*
Y037618*
X015039Y037632*
X015040Y037647*
X015042Y037659*
X015044Y037672*
X015045Y037684*
X015047Y037694*
X015050Y037704*
X015052Y037712*
X015054Y037720*
X015056Y037727*
X015058Y037732*
X015059Y037736*
X015060Y037739*
X015061Y037741*
Y037742*
X015071Y037762*
X015082Y037779*
X015094Y037794*
X015106Y037806*
X015116Y037816*
X015121Y037820*
X015125Y037823*
X015128Y037825*
X015130Y037827*
X015132Y037829*
X015133*
X015142Y037834*
X015151Y037839*
X015169Y037847*
X015187Y037852*
X015203Y037856*
X015210Y037857*
X015216Y037859*
X015222*
X015227*
X015230Y037860*
X015236*
X015258Y037859*
G37*
G36*
X015691Y037116D02*
X015260D01*
X015691Y036852*
Y036727*
X015050*
Y036847*
X015471*
X015050Y037106*
Y037235*
X015691*
Y037116*
G37*
G36*
X015344Y037954D02*
X015221D01*
Y038195*
X015344*
Y037954*
G37*
G36*
X016174Y033694D02*
X016188Y033685D01*
X016200Y033677*
X016212Y033669*
X016222Y033662*
X016232Y033656*
X016240Y033650*
X016248Y033644*
X016255Y033640*
X016260Y033635*
X016265Y033631*
X016269Y033628*
X016273Y033625*
X016275Y033623*
X016277Y033622*
X016278Y033620*
X016289Y033610*
X016299Y033598*
X016308Y033586*
X016316Y033575*
X016323Y033565*
X016328Y033558*
X016330Y033555*
Y033553*
X016332Y033551*
X016335Y033566*
X016338Y033581*
X016342Y033594*
X016346Y033606*
X016351Y033618*
X016356Y033628*
X016361Y033637*
X016366Y033646*
X016371Y033653*
X016376Y033660*
X016380Y033665*
X016384Y033670*
X016387Y033674*
X016389Y033676*
X016391Y033677*
Y033678*
X016400Y033685*
X016410Y033692*
X016420Y033697*
X016430Y033702*
X016440Y033706*
X016450Y033710*
X016469Y033715*
X016478Y033717*
X016486Y033718*
X016493Y033719*
X016499*
X016504Y033720*
X016511*
X016532Y033719*
X016550Y033716*
X016568Y033711*
X016582Y033706*
X016589Y033703*
X016595Y033701*
X016600Y033699*
X016604Y033696*
X016607Y033694*
X016609Y033693*
X016611Y033692*
X016627Y033681*
X016640Y033668*
X016650Y033656*
X016659Y033644*
X016666Y033633*
X016668Y033629*
X016670Y033625*
X016671Y033622*
X016673Y033619*
Y033618*
Y033617*
X016676Y033608*
X016679Y033598*
X016682Y033586*
X016683Y033574*
X016686Y033550*
X016688Y033525*
X016689Y033514*
X016690Y033503*
Y033493*
X016691Y033485*
Y033478*
Y033473*
Y033470*
Y033468*
Y033196*
X016050*
Y033325*
X016317*
Y033351*
Y033367*
X016316Y033380*
X016315Y033391*
X016314Y033400*
X016312Y033407*
X016311Y033412*
X016310Y033415*
Y033416*
X016307Y033424*
X016303Y033431*
X016298Y033438*
X016294Y033443*
X016289Y033448*
X016287Y033452*
X016284Y033454*
X016283Y033455*
X016279Y033459*
X016273Y033463*
X016267Y033468*
X016260Y033474*
X016245Y033485*
X016229Y033497*
X016214Y033507*
X016208Y033512*
X016201Y033515*
X016196Y033519*
X016193Y033522*
X016190Y033523*
X016189Y033524*
X016050Y033617*
Y033772*
X016174Y033694*
G37*
G36*
X016396Y033086D02*
X016411Y033084D01*
X016425Y033083*
X016439Y033082*
X016451Y033080*
X016463Y033077*
X016473Y033076*
X016482Y033074*
X016491Y033072*
X016498Y033070*
X016504Y033068*
X016509Y033067*
X016512Y033066*
X016514Y033065*
X016515*
X016537Y033057*
X016557Y033047*
X016575Y033036*
X016583Y033032*
X016590Y033027*
X016597Y033022*
X016602Y033018*
X016607Y033014*
X016611Y033011*
X016615Y033008*
X016617Y033006*
X016618Y033005*
X016619Y033004*
X016634Y032988*
X016646Y032972*
X016657Y032956*
X016664Y032941*
X016670Y032928*
X016673Y032922*
X016675Y032917*
X016676Y032913*
X016677Y032910*
X016678Y032908*
Y032907*
X016680Y032899*
X016682Y032890*
X016685Y032871*
X016688Y032850*
X016689Y032831*
X016690Y032822*
Y032814*
Y032806*
X016691Y032799*
Y032794*
Y032789*
Y032787*
Y032786*
Y032550*
X016050*
Y032793*
Y032806*
X016051Y032819*
Y032830*
X016052Y032841*
X016053Y032851*
X016054Y032861*
X016056Y032869*
X016057Y032877*
X016058Y032884*
X016059Y032890*
X016060Y032896*
X016061Y032900*
X016062Y032903*
Y032905*
X016063Y032907*
X016071Y032928*
X016079Y032946*
X016087Y032961*
X016096Y032974*
X016099Y032980*
X016103Y032984*
X016106Y032988*
X016109Y032991*
X016111Y032994*
X016113Y032996*
X016114Y032997*
X016115Y032998*
X016132Y033014*
X016151Y033027*
X016169Y033039*
X016187Y033049*
X016196Y033053*
X016203Y033057*
X016210Y033059*
X016216Y033062*
X016221Y033064*
X016225Y033065*
X016227Y033066*
X016228*
X016250Y033073*
X016273Y033078*
X016296Y033082*
X016317Y033084*
X016327Y033085*
X016336Y033086*
X016344*
X016351*
X016380*
X016396*
G37*
G36*
X017344Y037956D02*
X017221D01*
Y038198*
X017344*
Y037956*
G37*
G36*
X017691Y037768D02*
X017217Y037612D01*
X017691Y037449*
Y037310*
X017050Y037538*
Y037677*
X017691Y037906*
Y037768*
G37*
G36*
X018691Y033800D02*
X018582D01*
Y033990*
X018050*
Y034119*
X018582*
Y034308*
X018691*
Y033800*
G37*
G36*
X018174Y035783D02*
X018188Y035775D01*
X018200Y035767*
X018212Y035759*
X018222Y035752*
X018232Y035746*
X018240Y035740*
X018248Y035734*
X018255Y035729*
X018260Y035725*
X018265Y035721*
X018269Y035718*
X018273Y035715*
X018275Y035713*
X018277Y035711*
X018278Y035710*
X018289Y035699*
X018299Y035688*
X018308Y035676*
X018316Y035665*
X018323Y035655*
X018328Y035647*
X018330Y035645*
Y035643*
X018332Y035641*
Y035640*
X018335Y035656*
X018338Y035670*
X018342Y035684*
X018346Y035696*
X018351Y035708*
X018356Y035718*
X018361Y035727*
X018366Y035736*
X018371Y035743*
X018376Y035749*
X018380Y035755*
X018384Y035760*
X018387Y035763*
X018389Y035765*
X018391Y035767*
X018400Y035775*
X018410Y035781*
X018420Y035787*
X018430Y035792*
X018440Y035796*
X018450Y035799*
X018469Y035804*
X018477Y035806*
X018486Y035808*
X018493*
X018499Y035809*
X018504Y035810*
X018511*
X018532Y035808*
X018550Y035806*
X018568Y035801*
X018582Y035796*
X018589Y035793*
X018595Y035790*
X018600Y035788*
X018604Y035786*
X018607Y035784*
X018609Y035783*
X018611Y035781*
X018627Y035770*
X018640Y035758*
X018650Y035746*
X018659Y035734*
X018666Y035723*
X018668Y035719*
X018670Y035715*
X018671Y035711*
X018673Y035709*
Y035708*
Y035707*
X018676Y035698*
X018679Y035688*
X018682Y035676*
X018683Y035664*
X018686Y035640*
X018688Y035615*
X018689Y035604*
X018690Y035593*
Y035583*
X018691Y035575*
Y035568*
Y035563*
Y035559*
Y035558*
Y035286*
X018050*
Y035415*
X018317*
Y035441*
Y035457*
X018316Y035470*
X018315Y035481*
X018314Y035490*
X018312Y035497*
X018311Y035502*
X018310Y035505*
Y035506*
X018307Y035513*
X018303Y035520*
X018298Y035527*
X018294Y035533*
X018289Y035538*
X018287Y035542*
X018284Y035544*
X018283Y035545*
X018279Y035549*
X018273Y035553*
X018267Y035558*
X018260Y035563*
X018245Y035575*
X018229Y035586*
X018214Y035597*
X018208Y035602*
X018201Y035605*
X018196Y035609*
X018193Y035611*
X018190Y035613*
X018189*
X018050Y035707*
Y035862*
X018174Y035783*
G37*
G36*
X018691Y034774D02*
X018439D01*
Y034520*
X018691*
Y034391*
X018050*
Y034520*
X018330*
Y034774*
X018050*
Y034903*
X018691*
Y034774*
G37*
G36*
X017285Y037138D02*
X017273Y037135D01*
X017260Y037131*
X017249Y037127*
X017239Y037123*
X017230Y037118*
X017221Y037114*
X017214Y037109*
X017207Y037105*
X017201Y037101*
X017196Y037097*
X017192Y037093*
X017188Y037090*
X017185Y037088*
X017183Y037086*
Y037085*
X017182Y037084*
X017176Y037077*
X017171Y037070*
X017163Y037055*
X017158Y037040*
X017153Y037027*
X017151Y037014*
X017150Y037009*
Y037004*
X017149Y037001*
Y036998*
Y036997*
Y036996*
X017150Y036984*
X017151Y036971*
X017154Y036959*
X017158Y036949*
X017161Y036938*
X017165Y036929*
X017170Y036920*
X017175Y036913*
X017180Y036906*
X017185Y036900*
X017189Y036895*
X017192Y036890*
X017196Y036887*
X017199Y036884*
X017200Y036883*
X017201Y036882*
X017211Y036875*
X017223Y036868*
X017235Y036862*
X017249Y036857*
X017264Y036853*
X017278Y036850*
X017306Y036845*
X017320Y036843*
X017332Y036841*
X017344*
X017354Y036840*
X017362Y036839*
X017373*
X017394Y036840*
X017414Y036841*
X017431Y036843*
X017448Y036846*
X017463Y036850*
X017476Y036853*
X017489Y036857*
X017499Y036861*
X017509Y036865*
X017517Y036869*
X017524Y036872*
X017530Y036876*
X017534Y036879*
X017537Y036881*
X017539Y036882*
Y036883*
X017548Y036891*
X017556Y036901*
X017563Y036910*
X017569Y036920*
X017574Y036929*
X017578Y036939*
X017582Y036949*
X017584Y036958*
X017586Y036966*
X017588Y036974*
X017589Y036981*
X017590Y036987*
X017591Y036992*
Y036995*
Y036998*
Y036999*
X017589Y037018*
X017586Y037034*
X017582Y037049*
X017576Y037062*
X017571Y037072*
X017568Y037076*
X017566Y037080*
X017564Y037083*
X017563Y037085*
X017562Y037086*
X017561*
X017550Y037099*
X017537Y037109*
X017524Y037117*
X017512Y037124*
X017500Y037129*
X017496Y037131*
X017491Y037132*
X017488Y037133*
X017485*
X017484Y037134*
X017483*
X017514Y037262*
X017527Y037258*
X017541Y037253*
X017552Y037247*
X017564Y037242*
X017575Y037237*
X017584Y037231*
X017593Y037226*
X017601Y037221*
X017608Y037215*
X017614Y037211*
X017619Y037207*
X017623Y037203*
X017627Y037200*
X017629Y037198*
X017630Y037197*
X017631Y037196*
X017643Y037181*
X017654Y037167*
X017664Y037151*
X017671Y037135*
X017678Y037119*
X017684Y037103*
X017688Y037088*
X017692Y037073*
X017695Y037059*
X017697Y037046*
X017699Y037034*
X017700Y037024*
Y037016*
X017701Y037011*
Y037006*
Y037005*
X017700Y036981*
X017697Y036957*
X017693Y036935*
X017687Y036914*
X017680Y036895*
X017673Y036877*
X017665Y036861*
X017657Y036846*
X017648Y036833*
X017641Y036821*
X017633Y036811*
X017626Y036803*
X017620Y036796*
X017616Y036792*
X017613Y036788*
X017612*
X017595Y036773*
X017576Y036761*
X017557Y036750*
X017536Y036741*
X017516Y036732*
X017495Y036726*
X017475Y036720*
X017455Y036716*
X017437Y036713*
X017419Y036710*
X017403Y036709*
X017390Y036707*
X017379*
X017375Y036706*
X017364*
X017336Y036707*
X017310Y036709*
X017286Y036714*
X017263Y036718*
X017242Y036725*
X017222Y036732*
X017204Y036739*
X017188Y036747*
X017174Y036754*
X017161Y036762*
X017151Y036769*
X017142Y036775*
X017135Y036780*
X017130Y036784*
X017126Y036787*
Y036788*
X017110Y036804*
X017097Y036820*
X017085Y036838*
X017076Y036855*
X017067Y036872*
X017060Y036890*
X017054Y036907*
X017050Y036923*
X017046Y036938*
X017044Y036953*
X017042Y036965*
X017040Y036976*
Y036985*
X017039Y036992*
Y036996*
Y036997*
X017040Y037016*
X017041Y037034*
X017044Y037052*
X017047Y037067*
X017051Y037083*
X017055Y037097*
X017060Y037110*
X017065Y037121*
X017069Y037132*
X017074Y037141*
X017078Y037149*
X017082Y037156*
X017085Y037160*
X017087Y037165*
X017089Y037167*
X017090*
X017100Y037180*
X017111Y037191*
X017123Y037201*
X017136Y037211*
X017149Y037219*
X017162Y037228*
X017175Y037235*
X017187Y037241*
X017199Y037247*
X017210Y037251*
X017221Y037255*
X017229Y037258*
X017237Y037261*
X017242Y037262*
X017245Y037264*
X017246*
X017285Y037138*
G37*
G36*
X017691Y034000D02*
X017582D01*
Y034190*
X017050*
Y034319*
X017582*
Y034508*
X017691*
Y034000*
G37*
G36*
X016423Y038021D02*
X016589D01*
Y037909*
X016423*
Y037741*
X016308*
Y037909*
X016142*
Y038021*
X016308*
Y038189*
X016423*
Y038021*
G37*
G36*
X017691Y034974D02*
X017439D01*
Y034720*
X017691*
Y034591*
X017050*
Y034720*
X017330*
Y034974*
X017050*
Y035103*
X017691*
Y034974*
G37*
G36*
X017158Y036261D02*
X017332D01*
Y036582*
X017441*
Y036261*
X017582*
Y036607*
X017691*
Y036132*
X017050*
Y036619*
X017158*
Y036261*
G37*
G36*
X017174Y035983D02*
X017188Y035975D01*
X017200Y035967*
X017212Y035959*
X017222Y035952*
X017232Y035946*
X017240Y035940*
X017248Y035934*
X017255Y035929*
X017260Y035925*
X017265Y035921*
X017269Y035918*
X017273Y035915*
X017275Y035913*
X017277Y035911*
X017278Y035910*
X017289Y035899*
X017299Y035888*
X017308Y035876*
X017316Y035865*
X017323Y035855*
X017328Y035847*
X017330Y035845*
Y035843*
X017332Y035841*
Y035840*
X017335Y035856*
X017338Y035870*
X017342Y035884*
X017346Y035896*
X017351Y035908*
X017356Y035918*
X017361Y035927*
X017366Y035936*
X017371Y035943*
X017376Y035949*
X017380Y035955*
X017384Y035960*
X017387Y035963*
X017389Y035965*
X017391Y035967*
X017400Y035975*
X017410Y035981*
X017420Y035987*
X017430Y035992*
X017440Y035996*
X017450Y035999*
X017469Y036004*
X017478Y036006*
X017486Y036008*
X017493*
X017499Y036009*
X017504Y036010*
X017511*
X017532Y036008*
X017550Y036006*
X017568Y036001*
X017582Y035996*
X017589Y035993*
X017595Y035990*
X017600Y035988*
X017604Y035986*
X017607Y035984*
X017609Y035983*
X017611Y035981*
X017627Y035970*
X017640Y035958*
X017650Y035946*
X017659Y035934*
X017666Y035923*
X017668Y035919*
X017670Y035915*
X017671Y035911*
X017673Y035909*
Y035908*
Y035907*
X017676Y035898*
X017679Y035888*
X017682Y035876*
X017683Y035864*
X017686Y035840*
X017688Y035815*
X017689Y035804*
X017690Y035793*
Y035783*
X017691Y035775*
Y035768*
Y035763*
Y035759*
Y035758*
Y035486*
X017050*
Y035615*
X017317*
Y035641*
Y035657*
X017316Y035670*
X017315Y035681*
X017314Y035690*
X017312Y035697*
X017311Y035702*
X017310Y035705*
Y035706*
X017307Y035713*
X017303Y035720*
X017298Y035727*
X017294Y035733*
X017289Y035738*
X017287Y035742*
X017284Y035744*
X017283Y035745*
X017279Y035749*
X017273Y035753*
X017267Y035758*
X017260Y035763*
X017245Y035775*
X017229Y035786*
X017214Y035797*
X017208Y035802*
X017201Y035805*
X017196Y035809*
X017193Y035811*
X017190Y035813*
X017189*
X017050Y035907*
Y036062*
X017174Y035983*
G37*
G36*
X013344Y037958D02*
X013221D01*
Y038200*
X013344*
Y037958*
G37*
G36*
X013691Y037770D02*
X013217Y037613D01*
X013691Y037451*
Y037311*
X013050Y037540*
Y037678*
X013691Y037908*
Y037770*
G37*
G36*
X014396Y033686D02*
X014411Y033684D01*
X014425Y033683*
X014439Y033682*
X014451Y033680*
X014463Y033677*
X014473Y033676*
X014482Y033674*
X014491Y033672*
X014498Y033670*
X014504Y033668*
X014509Y033667*
X014512Y033666*
X014514Y033665*
X014515*
X014537Y033657*
X014557Y033647*
X014575Y033636*
X014583Y033632*
X014590Y033627*
X014597Y033622*
X014602Y033618*
X014607Y033614*
X014611Y033611*
X014615Y033608*
X014617Y033606*
X014618Y033605*
X014619Y033604*
X014634Y033588*
X014646Y033572*
X014657Y033556*
X014664Y033541*
X014670Y033528*
X014673Y033522*
X014675Y033517*
X014676Y033513*
X014677Y033510*
X014678Y033508*
Y033507*
X014680Y033499*
X014682Y033490*
X014685Y033471*
X014688Y033451*
X014689Y033431*
X014690Y033422*
Y033414*
Y033406*
X014691Y033399*
Y033394*
Y033389*
Y033387*
Y033386*
Y033150*
X014050*
Y033393*
Y033406*
X014051Y033419*
Y033430*
X014052Y033441*
X014053Y033451*
X014054Y033461*
X014056Y033469*
X014057Y033477*
X014058Y033484*
X014059Y033490*
X014060Y033496*
X014061Y033500*
X014062Y033503*
Y033505*
X014063Y033507*
X014071Y033528*
X014079Y033546*
X014087Y033561*
X014096Y033574*
X014099Y033580*
X014103Y033584*
X014106Y033588*
X014109Y033591*
X014111Y033594*
X014113Y033596*
X014114Y033597*
X014115Y033598*
X014132Y033614*
X014151Y033627*
X014169Y033639*
X014187Y033649*
X014196Y033653*
X014203Y033657*
X014210Y033659*
X014216Y033662*
X014221Y033664*
X014225Y033665*
X014227Y033666*
X014228*
X014250Y033673*
X014273Y033678*
X014296Y033682*
X014317Y033684*
X014327Y033685*
X014336Y033686*
X014344*
X014351*
X014380*
X014396*
G37*
G36*
X014507Y034932D02*
X014521Y034931D01*
X014533Y034929*
X014545Y034927*
X014556Y034925*
X014566Y034921*
X014575Y034918*
X014584Y034914*
X014592Y034911*
X014598Y034907*
X014605Y034904*
X014609Y034901*
X014613Y034899*
X014616Y034897*
X014617Y034896*
X014618Y034895*
X014627Y034888*
X014634Y034881*
X014641Y034873*
X014648Y034865*
X014659Y034850*
X014668Y034835*
X014674Y034823*
X014676Y034817*
X014678Y034812*
X014679Y034809*
X014680Y034806*
X014681Y034804*
Y034803*
X014682Y034795*
X014684Y034786*
X014686Y034776*
Y034764*
X014687Y034752*
X014688Y034739*
X014689Y034713*
X014690Y034700*
Y034689*
X014691Y034678*
Y034668*
Y034661*
Y034655*
Y034651*
Y034650*
Y034442*
X014050*
Y034571*
X014292*
Y034655*
Y034671*
Y034687*
Y034700*
X014293Y034714*
X014294Y034725*
Y034736*
X014295Y034747*
X014296Y034756*
X014297Y034764*
X014298Y034770*
Y034777*
X014299Y034782*
X014300Y034785*
Y034788*
X014301Y034789*
Y034790*
X014304Y034802*
X014308Y034815*
X014313Y034826*
X014318Y034836*
X014323Y034845*
X014327Y034851*
X014330Y034855*
Y034856*
Y034857*
X014340Y034868*
X014351Y034879*
X014361Y034888*
X014371Y034897*
X014380Y034903*
X014387Y034907*
X014390Y034909*
X014392Y034911*
X014393*
X014394*
X014409Y034918*
X014426Y034924*
X014443Y034927*
X014458Y034930*
X014466Y034931*
X014472*
X014478Y034932*
X014483Y034933*
X014493*
X014507Y034932*
G37*
G36*
X014174Y034294D02*
X014188Y034285D01*
X014200Y034277*
X014212Y034269*
X014222Y034262*
X014232Y034256*
X014240Y034250*
X014248Y034244*
X014255Y034240*
X014260Y034235*
X014265Y034231*
X014269Y034228*
X014273Y034225*
X014275Y034223*
X014277Y034222*
X014278Y034220*
X014289Y034210*
X014299Y034198*
X014308Y034186*
X014316Y034175*
X014323Y034165*
X014328Y034158*
X014330Y034155*
Y034153*
X014332Y034151*
X014335Y034166*
X014338Y034181*
X014342Y034194*
X014346Y034206*
X014351Y034218*
X014356Y034228*
X014361Y034237*
X014366Y034246*
X014371Y034253*
X014376Y034260*
X014380Y034265*
X014384Y034270*
X014387Y034274*
X014389Y034276*
X014391Y034277*
Y034278*
X014400Y034285*
X014410Y034292*
X014420Y034297*
X014430Y034302*
X014440Y034306*
X014450Y034310*
X014469Y034315*
X014477Y034317*
X014486Y034318*
X014493Y034319*
X014499*
X014504Y034320*
X014511*
X014532Y034319*
X014550Y034316*
X014568Y034311*
X014582Y034306*
X014589Y034303*
X014595Y034301*
X014600Y034299*
X014604Y034296*
X014607Y034294*
X014609Y034293*
X014611Y034292*
X014627Y034281*
X014640Y034268*
X014650Y034256*
X014659Y034244*
X014666Y034233*
X014668Y034229*
X014670Y034225*
X014671Y034222*
X014673Y034219*
Y034218*
Y034217*
X014676Y034208*
X014679Y034198*
X014682Y034186*
X014683Y034174*
X014686Y034150*
X014688Y034125*
X014689Y034114*
X014690Y034103*
Y034093*
X014691Y034085*
Y034078*
Y034073*
Y034070*
Y034068*
Y033796*
X014050*
Y033925*
X014317*
Y033951*
Y033967*
X014316Y033980*
X014315Y033991*
X014314Y034000*
X014312Y034007*
X014311Y034012*
X014310Y034015*
Y034016*
X014307Y034024*
X014303Y034031*
X014298Y034038*
X014294Y034043*
X014289Y034048*
X014287Y034052*
X014284Y034054*
X014283Y034055*
X014279Y034059*
X014273Y034063*
X014267Y034068*
X014260Y034074*
X014245Y034085*
X014229Y034097*
X014214Y034107*
X014208Y034112*
X014201Y034115*
X014196Y034119*
X014193Y034122*
X014190Y034123*
X014189Y034124*
X014050Y034217*
Y034372*
X014174Y034294*
G37*
G36*
X013285Y037140D02*
X013273Y037136D01*
X013260Y037133*
X013249Y037129*
X013239Y037125*
X013230Y037120*
X013221Y037116*
X013214Y037111*
X013207Y037107*
X013201Y037102*
X013196Y037098*
X013192Y037095*
X013188Y037092*
X013185Y037089*
X013183Y037087*
X013182Y037086*
X013176Y037079*
X013171Y037071*
X013163Y037057*
X013158Y037042*
X013153Y037028*
X013151Y037016*
X013150Y037011*
Y037006*
X013149Y037003*
Y037000*
Y036998*
X013150Y036985*
X013151Y036973*
X013154Y036961*
X013158Y036950*
X013161Y036940*
X013165Y036931*
X013170Y036922*
X013175Y036914*
X013180Y036907*
X013185Y036901*
X013189Y036896*
X013192Y036891*
X013196Y036889*
X013199Y036886*
X013200Y036885*
X013201Y036884*
X013211Y036876*
X013223Y036870*
X013235Y036864*
X013249Y036859*
X013264Y036855*
X013278Y036851*
X013306Y036846*
X013320Y036844*
X013332Y036843*
X013344Y036842*
X013354*
X013362Y036841*
X013373*
X013394Y036842*
X013414Y036843*
X013431Y036845*
X013448Y036848*
X013463Y036851*
X013476Y036855*
X013489Y036859*
X013499Y036863*
X013509Y036867*
X013517Y036871*
X013524Y036874*
X013530Y036878*
X013534Y036880*
X013537Y036882*
X013539Y036884*
Y036885*
X013548Y036893*
X013556Y036903*
X013563Y036912*
X013569Y036921*
X013574Y036931*
X013578Y036941*
X013582Y036950*
X013584Y036959*
X013586Y036968*
X013588Y036975*
X013589Y036982*
X013590Y036989*
X013591Y036994*
Y036997*
Y037000*
X013589Y037019*
X013586Y037036*
X013582Y037050*
X013576Y037064*
X013570Y037074*
X013568Y037078*
X013566Y037082*
X013564Y037084*
X013563Y037087*
X013562*
X013561Y037088*
X013550Y037100*
X013537Y037111*
X013524Y037119*
X013512Y037125*
X013500Y037130*
X013496Y037132*
X013491Y037134*
X013488*
X013485Y037135*
X013484Y037136*
X013483*
X013514Y037263*
X013527Y037259*
X013541Y037254*
X013552Y037249*
X013564Y037244*
X013575Y037238*
X013584Y037233*
X013593Y037227*
X013601Y037223*
X013608Y037217*
X013614Y037213*
X013619Y037209*
X013623Y037204*
X013627Y037202*
X013629Y037200*
X013630Y037198*
X013631*
X013643Y037183*
X013654Y037168*
X013664Y037152*
X013671Y037136*
X013678Y037120*
X013684Y037105*
X013688Y037089*
X013692Y037075*
X013695Y037061*
X013698Y037048*
X013699Y037036*
X013700Y037026*
Y037018*
X013701Y037012*
Y037008*
Y037007*
X013700Y036982*
X013698Y036959*
X013693Y036937*
X013687Y036916*
X013680Y036896*
X013673Y036879*
X013665Y036862*
X013657Y036848*
X013648Y036835*
X013641Y036823*
X013633Y036813*
X013626Y036805*
X013620Y036798*
X013616Y036794*
X013613Y036790*
X013612Y036789*
X013595Y036775*
X013576Y036762*
X013557Y036751*
X013536Y036742*
X013516Y036734*
X013495Y036728*
X013475Y036722*
X013455Y036718*
X013437Y036715*
X013419Y036712*
X013403Y036710*
X013390Y036709*
X013379Y036708*
X013375*
X013364*
X013336*
X013310Y036711*
X013286Y036715*
X013263Y036720*
X013242Y036726*
X013222Y036733*
X013204Y036741*
X013188Y036749*
X013174Y036756*
X013161Y036764*
X013151Y036771*
X013142Y036777*
X013135Y036782*
X013130Y036786*
X013126Y036789*
X013110Y036805*
X013097Y036822*
X013085Y036839*
X013076Y036857*
X013067Y036874*
X013060Y036891*
X013054Y036909*
X013050Y036925*
X013046Y036940*
X013044Y036955*
X013042Y036967*
X013040Y036978*
Y036987*
X013039Y036994*
Y036998*
Y036999*
X013040Y037018*
X013041Y037036*
X013044Y037053*
X013047Y037069*
X013051Y037084*
X013055Y037098*
X013060Y037111*
X013065Y037123*
X013069Y037134*
X013074Y037143*
X013078Y037150*
X013082Y037157*
X013085Y037162*
X013087Y037166*
X013089Y037168*
X013090Y037169*
X013100Y037182*
X013111Y037193*
X013123Y037203*
X013136Y037213*
X013149Y037221*
X013162Y037229*
X013175Y037236*
X013187Y037243*
X013199Y037248*
X013210Y037253*
X013221Y037257*
X013229Y037260*
X013237Y037263*
X013242Y037264*
X013245Y037266*
X013246*
X013285Y037140*
G37*
G36*
X013174Y034494D02*
X013188Y034485D01*
X013200Y034477*
X013212Y034469*
X013222Y034462*
X013232Y034456*
X013240Y034450*
X013248Y034444*
X013255Y034440*
X013260Y034435*
X013265Y034431*
X013269Y034428*
X013273Y034425*
X013275Y034423*
X013277Y034422*
X013278Y034420*
X013289Y034410*
X013299Y034398*
X013308Y034386*
X013316Y034375*
X013323Y034365*
X013328Y034358*
X013330Y034355*
Y034353*
X013332Y034351*
X013335Y034366*
X013338Y034381*
X013342Y034394*
X013346Y034406*
X013351Y034418*
X013356Y034428*
X013361Y034437*
X013366Y034446*
X013371Y034453*
X013376Y034460*
X013380Y034465*
X013384Y034470*
X013387Y034474*
X013389Y034476*
X013391Y034477*
Y034478*
X013400Y034485*
X013410Y034492*
X013420Y034497*
X013430Y034502*
X013440Y034506*
X013450Y034510*
X013469Y034515*
X013477Y034517*
X013486Y034518*
X013493Y034519*
X013499*
X013504Y034520*
X013511*
X013532Y034519*
X013550Y034516*
X013568Y034511*
X013582Y034506*
X013589Y034503*
X013595Y034501*
X013600Y034499*
X013604Y034496*
X013607Y034494*
X013609Y034493*
X013611Y034492*
X013627Y034481*
X013640Y034468*
X013650Y034456*
X013659Y034444*
X013666Y034433*
X013668Y034429*
X013670Y034425*
X013671Y034422*
X013673Y034419*
Y034418*
Y034417*
X013676Y034408*
X013679Y034398*
X013682Y034386*
X013683Y034374*
X013686Y034350*
X013688Y034325*
X013689Y034314*
X013690Y034303*
Y034293*
X013691Y034285*
Y034278*
Y034273*
Y034270*
Y034268*
Y033996*
X013050*
Y034125*
X013317*
Y034151*
Y034167*
X013316Y034180*
X013315Y034191*
X013314Y034200*
X013312Y034207*
X013311Y034212*
X013310Y034215*
Y034216*
X013307Y034224*
X013303Y034231*
X013298Y034238*
X013294Y034243*
X013289Y034248*
X013287Y034252*
X013284Y034254*
X013283Y034255*
X013279Y034259*
X013273Y034263*
X013267Y034268*
X013260Y034274*
X013245Y034285*
X013229Y034297*
X013214Y034307*
X013208Y034312*
X013201Y034315*
X013196Y034319*
X013193Y034322*
X013190Y034323*
X013189Y034324*
X013050Y034417*
Y034572*
X013174Y034494*
G37*
G36*
X013396Y033886D02*
X013411Y033884D01*
X013425Y033883*
X013439Y033882*
X013451Y033880*
X013463Y033877*
X013473Y033876*
X013482Y033874*
X013491Y033872*
X013498Y033870*
X013504Y033868*
X013509Y033867*
X013512Y033866*
X013514Y033865*
X013515*
X013537Y033857*
X013557Y033847*
X013575Y033836*
X013583Y033832*
X013590Y033827*
X013597Y033822*
X013602Y033818*
X013607Y033814*
X013611Y033811*
X013615Y033808*
X013617Y033806*
X013618Y033805*
X013619Y033804*
X013634Y033788*
X013646Y033772*
X013657Y033756*
X013664Y033741*
X013670Y033728*
X013673Y033722*
X013675Y033717*
X013676Y033713*
X013677Y033710*
X013678Y033708*
Y033707*
X013680Y033699*
X013682Y033690*
X013685Y033671*
X013688Y033651*
X013689Y033631*
X013690Y033622*
Y033614*
Y033606*
X013691Y033599*
Y033594*
Y033589*
Y033587*
Y033586*
Y033350*
X013050*
Y033593*
Y033606*
X013051Y033619*
Y033630*
X013052Y033641*
X013053Y033651*
X013054Y033661*
X013056Y033669*
X013057Y033677*
X013058Y033684*
X013059Y033690*
X013060Y033696*
X013061Y033700*
X013062Y033703*
Y033705*
X013063Y033707*
X013071Y033728*
X013079Y033746*
X013087Y033761*
X013096Y033774*
X013099Y033780*
X013103Y033784*
X013106Y033788*
X013109Y033791*
X013111Y033794*
X013113Y033796*
X013114Y033797*
X013115Y033798*
X013132Y033814*
X013151Y033827*
X013169Y033839*
X013187Y033849*
X013196Y033853*
X013203Y033857*
X013210Y033859*
X013216Y033862*
X013221Y033864*
X013225Y033865*
X013227Y033866*
X013228*
X013250Y033873*
X013273Y033878*
X013296Y033882*
X013317Y033884*
X013327Y033885*
X013336Y033886*
X013344*
X013350*
X013380*
X013396*
G37*
G36*
X013507Y035132D02*
X013521Y035131D01*
X013533Y035129*
X013545Y035127*
X013556Y035125*
X013566Y035121*
X013575Y035118*
X013584Y035114*
X013592Y035111*
X013598Y035107*
X013605Y035104*
X013609Y035101*
X013613Y035099*
X013616Y035097*
X013617Y035096*
X013618Y035095*
X013627Y035088*
X013634Y035081*
X013641Y035073*
X013648Y035065*
X013659Y035050*
X013668Y035035*
X013674Y035023*
X013676Y035017*
X013678Y035012*
X013679Y035009*
X013680Y035006*
X013681Y035004*
Y035003*
X013682Y034995*
X013684Y034986*
X013686Y034976*
Y034964*
X013687Y034952*
X013688Y034939*
X013689Y034913*
X013690Y034900*
Y034889*
X013691Y034878*
Y034868*
Y034861*
Y034855*
Y034851*
Y034850*
Y034642*
X013050*
Y034771*
X013292*
Y034855*
Y034871*
Y034887*
Y034900*
X013293Y034914*
X013294Y034925*
Y034936*
X013295Y034947*
X013296Y034956*
X013297Y034964*
X013298Y034970*
Y034977*
X013299Y034982*
X013300Y034985*
Y034988*
X013301Y034989*
Y034990*
X013304Y035002*
X013308Y035015*
X013313Y035026*
X013318Y035036*
X013323Y035045*
X013327Y035051*
X013330Y035055*
Y035056*
Y035057*
X013340Y035068*
X013350Y035079*
X013361Y035088*
X013371Y035097*
X013380Y035103*
X013387Y035107*
X013390Y035109*
X013392Y035111*
X013393*
X013394*
X013409Y035118*
X013426Y035124*
X013443Y035127*
X013458Y035130*
X013466Y035131*
X013472*
X013478Y035132*
X013483Y035133*
X013493*
X013507Y035132*
G37*
G36*
X013158Y036263D02*
X013332D01*
Y036584*
X013441*
Y036263*
X013582*
Y036608*
X013691*
Y036134*
X013050*
Y036621*
X013158*
Y036263*
G37*
G36*
X013174Y035985D02*
X013188Y035977D01*
X013200Y035968*
X013212Y035961*
X013222Y035954*
X013232Y035948*
X013240Y035941*
X013248Y035936*
X013255Y035931*
X013260Y035927*
X013265Y035923*
X013269Y035919*
X013273Y035916*
X013275Y035914*
X013277Y035913*
X013278Y035912*
X013289Y035901*
X013299Y035889*
X013308Y035878*
X013316Y035866*
X013323Y035857*
X013328Y035849*
X013330Y035846*
Y035844*
X013332Y035843*
Y035842*
X013335Y035857*
X013338Y035872*
X013342Y035885*
X013346Y035898*
X013351Y035909*
X013356Y035920*
X013361Y035929*
X013366Y035937*
X013371Y035945*
X013376Y035951*
X013380Y035957*
X013384Y035962*
X013387Y035965*
X013389Y035967*
X013391Y035968*
Y035969*
X013400Y035977*
X013410Y035983*
X013420Y035989*
X013430Y035993*
X013440Y035998*
X013450Y036001*
X013469Y036006*
X013477Y036008*
X013486Y036009*
X013493Y036010*
X013499Y036011*
X013504*
X013511*
X013532Y036010*
X013550Y036007*
X013568Y036002*
X013582Y035998*
X013589Y035995*
X013595Y035992*
X013600Y035990*
X013604Y035987*
X013607Y035986*
X013609Y035984*
X013611Y035983*
X013627Y035972*
X013640Y035959*
X013650Y035948*
X013659Y035936*
X013666Y035925*
X013668Y035921*
X013670Y035916*
X013671Y035913*
X013673Y035911*
Y035909*
X013676Y035900*
X013679Y035889*
X013682Y035878*
X013683Y035866*
X013686Y035841*
X013688Y035816*
X013689Y035805*
X013690Y035794*
Y035785*
X013691Y035776*
Y035769*
Y035764*
Y035761*
Y035760*
Y035488*
X013050*
Y035617*
X013317*
Y035642*
Y035658*
X013316Y035671*
X013315Y035683*
X013314Y035692*
X013312Y035698*
X013311Y035703*
X013310Y035707*
Y035708*
X013307Y035715*
X013303Y035722*
X013298Y035729*
X013294Y035735*
X013289Y035739*
X013287Y035744*
X013284Y035746*
X013283*
X013279Y035751*
X013273Y035755*
X013267Y035760*
X013260Y035765*
X013245Y035776*
X013229Y035788*
X013214Y035798*
X013208Y035803*
X013201Y035807*
X013196Y035810*
X013193Y035813*
X013190Y035814*
X013189Y035815*
X013050Y035909*
Y036064*
X013174Y035985*
G37*
G36*
X015507Y034532D02*
X015521D01*
X015533Y034529*
X015545Y034527*
X015556Y034525*
X015566Y034521*
X015575Y034518*
X015584Y034514*
X015592Y034511*
X015598Y034507*
X015605Y034504*
X015609Y034501*
X015613Y034499*
X015616Y034497*
X015617Y034496*
X015618Y034495*
X015627Y034488*
X015634Y034481*
X015641Y034473*
X015648Y034465*
X015659Y034450*
X015668Y034435*
X015674Y034423*
X015676Y034417*
X015678Y034412*
X015679Y034409*
X015680Y034406*
X015681Y034404*
Y034403*
X015682Y034395*
X015684Y034386*
X015686Y034376*
Y034364*
X015687Y034352*
X015688Y034339*
X015689Y034313*
X015690Y034300*
Y034289*
X015691Y034278*
Y034268*
Y034261*
Y034255*
Y034251*
Y034250*
Y034042*
X015050*
Y034171*
X015292*
Y034255*
Y034271*
Y034287*
Y034300*
X015293Y034314*
X015294Y034325*
Y034336*
X015295Y034347*
X015296Y034356*
X015297Y034364*
X015298Y034370*
Y034377*
X015299Y034382*
X015300Y034385*
Y034388*
X015301Y034389*
Y034390*
X015304Y034402*
X015308Y034415*
X015313Y034426*
X015318Y034436*
X015323Y034445*
X015327Y034451*
X015330Y034455*
Y034456*
Y034457*
X015340Y034468*
X015351Y034479*
X015361Y034488*
X015371Y034497*
X015380Y034503*
X015387Y034507*
X015390Y034509*
X015392Y034511*
X015393*
X015394*
X015409Y034518*
X015426Y034524*
X015443Y034527*
X015458Y034530*
X015466Y034531*
X015472Y034532*
X015478*
X015483Y034533*
X015493*
X015507Y034532*
G37*
G36*
X015174Y033894D02*
X015188Y033885D01*
X015200Y033877*
X015212Y033869*
X015222Y033862*
X015232Y033856*
X015240Y033850*
X015248Y033844*
X015255Y033840*
X015260Y033835*
X015265Y033831*
X015269Y033828*
X015273Y033825*
X015275Y033823*
X015277Y033822*
X015278Y033820*
X015289Y033810*
X015299Y033798*
X015308Y033786*
X015316Y033775*
X015323Y033765*
X015328Y033758*
X015330Y033755*
Y033753*
X015332Y033751*
X015335Y033766*
X015338Y033781*
X015342Y033794*
X015346Y033806*
X015351Y033818*
X015356Y033828*
X015361Y033837*
X015366Y033846*
X015371Y033853*
X015376Y033860*
X015380Y033865*
X015384Y033870*
X015387Y033874*
X015389Y033876*
X015391Y033877*
Y033878*
X015400Y033885*
X015410Y033892*
X015420Y033897*
X015430Y033902*
X015440Y033906*
X015450Y033910*
X015469Y033915*
X015477Y033917*
X015486Y033918*
X015493Y033919*
X015499*
X015504Y033920*
X015511*
X015532Y033919*
X015550Y033916*
X015568Y033911*
X015582Y033906*
X015589Y033903*
X015595Y033901*
X015600Y033899*
X015604Y033896*
X015607Y033894*
X015609Y033893*
X015611Y033892*
X015627Y033881*
X015640Y033868*
X015650Y033856*
X015659Y033844*
X015666Y033833*
X015668Y033829*
X015670Y033825*
X015671Y033822*
X015673Y033819*
Y033818*
Y033817*
X015676Y033808*
X015679Y033798*
X015682Y033786*
X015683Y033774*
X015686Y033750*
X015688Y033725*
X015689Y033714*
X015690Y033703*
Y033693*
X015691Y033685*
Y033678*
Y033673*
Y033670*
Y033668*
Y033396*
X015050*
Y033525*
X015317*
Y033551*
Y033567*
X015316Y033580*
X015315Y033591*
X015314Y033600*
X015312Y033607*
X015311Y033612*
X015310Y033615*
Y033616*
X015307Y033624*
X015303Y033631*
X015298Y033638*
X015294Y033643*
X015289Y033648*
X015287Y033652*
X015284Y033654*
X015283Y033655*
X015279Y033659*
X015273Y033663*
X015267Y033668*
X015260Y033674*
X015245Y033685*
X015229Y033697*
X015214Y033707*
X015208Y033712*
X015201Y033715*
X015196Y033719*
X015193Y033722*
X015190Y033723*
X015189Y033724*
X015050Y033817*
Y033972*
X015174Y033894*
G37*
G36*
X015691Y034842D02*
X015582D01*
Y035033*
X015050*
Y035162*
X015582*
Y035350*
X015691*
Y034842*
G37*
G36*
Y036401D02*
Y036264D01*
X015050Y036015*
Y036151*
X015196Y036205*
Y036461*
X015050Y036517*
Y036658*
X015691Y036401*
G37*
G36*
X015174Y035931D02*
X015188Y035923D01*
X015200Y035915*
X015212Y035907*
X015222Y035900*
X015232Y035894*
X015240Y035888*
X015248Y035882*
X015255Y035877*
X015260Y035873*
X015265Y035869*
X015269Y035865*
X015273Y035863*
X015275Y035861*
X015277Y035859*
X015278Y035858*
X015289Y035847*
X015299Y035836*
X015308Y035824*
X015316Y035813*
X015323Y035803*
X015328Y035795*
X015330Y035793*
Y035790*
X015332Y035789*
Y035788*
X015335Y035804*
X015338Y035818*
X015342Y035831*
X015346Y035844*
X015351Y035856*
X015356Y035866*
X015361Y035875*
X015366Y035883*
X015371Y035891*
X015376Y035897*
X015380Y035903*
X015384Y035908*
X015387Y035911*
X015389Y035913*
X015391Y035915*
X015400Y035923*
X015410Y035929*
X015420Y035935*
X015430Y035940*
X015440Y035944*
X015450Y035947*
X015469Y035952*
X015477Y035954*
X015486Y035956*
X015493*
X015499Y035957*
X015504Y035958*
X015511*
X015532Y035956*
X015550Y035954*
X015568Y035949*
X015582Y035944*
X015589Y035941*
X015595Y035938*
X015600Y035936*
X015604Y035933*
X015607Y035932*
X015609Y035931*
X015611Y035929*
X015627Y035918*
X015640Y035906*
X015650Y035894*
X015659Y035882*
X015666Y035871*
X015668Y035867*
X015670Y035863*
X015671Y035859*
X015673Y035857*
Y035856*
Y035855*
X015676Y035846*
X015679Y035836*
X015682Y035824*
X015683Y035812*
X015686Y035788*
X015688Y035763*
X015689Y035752*
X015690Y035740*
Y035731*
X015691Y035722*
Y035715*
Y035711*
Y035707*
Y035706*
Y035434*
X015050*
Y035563*
X015317*
Y035588*
Y035604*
X015316Y035618*
X015315Y035629*
X015314Y035638*
X015312Y035645*
X015311Y035650*
X015310Y035653*
Y035654*
X015307Y035661*
X015303Y035668*
X015298Y035675*
X015294Y035681*
X015289Y035686*
X015287Y035690*
X015284Y035692*
X015283Y035693*
X015279Y035697*
X015273Y035701*
X015267Y035706*
X015260Y035711*
X015245Y035722*
X015229Y035734*
X015214Y035745*
X015208Y035749*
X015201Y035753*
X015196Y035756*
X015193Y035759*
X015190Y035761*
X015189*
X015050Y035855*
Y036010*
X015174Y035931*
G37*
G36*
X015396Y033286D02*
X015411Y033284D01*
X015425Y033283*
X015439Y033282*
X015451Y033280*
X015463Y033277*
X015473Y033276*
X015482Y033274*
X015491Y033272*
X015498Y033270*
X015504Y033268*
X015509Y033267*
X015512Y033266*
X015514Y033265*
X015515*
X015537Y033257*
X015557Y033247*
X015575Y033236*
X015583Y033232*
X015590Y033227*
X015597Y033222*
X015602Y033218*
X015607Y033214*
X015611Y033211*
X015615Y033208*
X015617Y033206*
X015618Y033205*
X015619Y033204*
X015634Y033188*
X015646Y033172*
X015657Y033156*
X015664Y033141*
X015670Y033128*
X015673Y033122*
X015675Y033117*
X015676Y033113*
X015677Y033110*
X015678Y033108*
Y033107*
X015680Y033099*
X015682Y033090*
X015685Y033071*
X015688Y033050*
X015689Y033031*
X015690Y033022*
Y033014*
Y033006*
X015691Y032999*
Y032994*
Y032989*
Y032987*
Y032986*
Y032750*
X015050*
Y032993*
Y033006*
X015051Y033019*
Y033030*
X015052Y033041*
X015053Y033051*
X015054Y033061*
X015056Y033069*
X015057Y033077*
X015058Y033084*
X015059Y033090*
X015060Y033096*
X015061Y033100*
X015062Y033103*
Y033105*
X015063Y033107*
X015071Y033128*
X015079Y033146*
X015087Y033161*
X015096Y033174*
X015099Y033180*
X015103Y033184*
X015106Y033188*
X015109Y033191*
X015111Y033194*
X015113Y033196*
X015114Y033197*
X015115Y033198*
X015132Y033214*
X015151Y033227*
X015169Y033239*
X015187Y033249*
X015196Y033253*
X015203Y033257*
X015210Y033259*
X015216Y033262*
X015221Y033264*
X015225Y033265*
X015227Y033266*
X015228*
X015250Y033273*
X015273Y033278*
X015296Y033282*
X015317Y033284*
X015327Y033285*
X015336Y033286*
X015344*
X015351*
X015380*
X015396*
G37*
G36*
X014158Y036063D02*
X014332D01*
Y036384*
X014441*
Y036063*
X014582*
Y036408*
X014691*
Y035934*
X014050*
Y036421*
X014158*
Y036063*
G37*
G36*
X014174Y035785D02*
X014188Y035777D01*
X014200Y035768*
X014212Y035761*
X014222Y035754*
X014232Y035748*
X014240Y035741*
X014248Y035736*
X014255Y035731*
X014260Y035727*
X014265Y035723*
X014269Y035719*
X014273Y035716*
X014275Y035714*
X014277Y035713*
X014278Y035712*
X014289Y035701*
X014299Y035689*
X014308Y035678*
X014316Y035666*
X014323Y035657*
X014328Y035649*
X014330Y035646*
Y035644*
X014332Y035643*
Y035642*
X014335Y035657*
X014338Y035672*
X014342Y035685*
X014346Y035698*
X014351Y035709*
X014356Y035720*
X014361Y035729*
X014366Y035737*
X014371Y035745*
X014376Y035751*
X014380Y035757*
X014384Y035762*
X014387Y035765*
X014389Y035767*
X014391Y035768*
Y035769*
X014400Y035777*
X014410Y035783*
X014420Y035789*
X014430Y035793*
X014440Y035798*
X014450Y035801*
X014469Y035806*
X014477Y035808*
X014486Y035809*
X014493Y035810*
X014499Y035811*
X014504*
X014511*
X014532Y035810*
X014550Y035807*
X014568Y035802*
X014582Y035798*
X014589Y035795*
X014595Y035792*
X014600Y035790*
X014604Y035787*
X014607Y035786*
X014609Y035784*
X014611Y035783*
X014627Y035772*
X014640Y035759*
X014650Y035748*
X014659Y035736*
X014666Y035725*
X014668Y035721*
X014670Y035716*
X014671Y035713*
X014673Y035711*
Y035709*
X014676Y035700*
X014679Y035689*
X014682Y035678*
X014683Y035666*
X014686Y035641*
X014688Y035616*
X014689Y035605*
X014690Y035594*
Y035585*
X014691Y035576*
Y035569*
Y035564*
Y035561*
Y035560*
Y035288*
X014050*
Y035417*
X014317*
Y035442*
Y035458*
X014316Y035471*
X014315Y035483*
X014314Y035492*
X014312Y035498*
X014311Y035503*
X014310Y035507*
Y035508*
X014307Y035515*
X014303Y035522*
X014298Y035529*
X014294Y035535*
X014289Y035539*
X014287Y035544*
X014284Y035546*
X014283*
X014279Y035551*
X014273Y035555*
X014267Y035560*
X014260Y035565*
X014245Y035576*
X014229Y035588*
X014214Y035598*
X014208Y035603*
X014201Y035607*
X014196Y035610*
X014193Y035613*
X014190Y035614*
X014189Y035615*
X014050Y035709*
Y035864*
X014174Y035785*
G37*
G36*
X014285Y036940D02*
X014273Y036936D01*
X014260Y036933*
X014249Y036929*
X014239Y036925*
X014230Y036920*
X014221Y036916*
X014214Y036911*
X014207Y036907*
X014201Y036902*
X014196Y036898*
X014192Y036895*
X014188Y036892*
X014185Y036889*
X014183Y036887*
Y036886*
X014182*
X014176Y036879*
X014171Y036871*
X014163Y036857*
X014158Y036842*
X014153Y036828*
X014151Y036816*
X014150Y036811*
Y036806*
X014149Y036803*
Y036800*
Y036798*
X014150Y036785*
X014151Y036773*
X014154Y036761*
X014158Y036750*
X014161Y036740*
X014165Y036731*
X014170Y036722*
X014175Y036714*
X014180Y036707*
X014185Y036701*
X014189Y036696*
X014192Y036691*
X014196Y036689*
X014199Y036686*
X014200Y036685*
X014201Y036684*
X014211Y036676*
X014223Y036670*
X014235Y036664*
X014249Y036659*
X014264Y036655*
X014278Y036651*
X014306Y036646*
X014320Y036644*
X014332Y036643*
X014344Y036642*
X014354*
X014362Y036641*
X014373*
X014394Y036642*
X014414Y036643*
X014431Y036645*
X014448Y036648*
X014463Y036651*
X014476Y036655*
X014489Y036659*
X014499Y036663*
X014509Y036667*
X014517Y036671*
X014524Y036674*
X014530Y036678*
X014534Y036680*
X014537Y036682*
X014539Y036684*
Y036685*
X014548Y036693*
X014556Y036703*
X014563Y036712*
X014569Y036721*
X014574Y036731*
X014578Y036741*
X014582Y036750*
X014584Y036759*
X014586Y036768*
X014588Y036775*
X014589Y036782*
X014590Y036789*
X014591Y036793*
Y036797*
Y036800*
X014589Y036819*
X014586Y036836*
X014582Y036850*
X014576Y036864*
X014570Y036874*
X014568Y036878*
X014566Y036882*
X014564Y036884*
X014563Y036886*
X014562Y036887*
X014561Y036888*
X014550Y036900*
X014537Y036911*
X014524Y036919*
X014512Y036925*
X014500Y036930*
X014496Y036932*
X014491Y036934*
X014488*
X014485Y036935*
X014484Y036936*
X014483*
X014514Y037063*
X014527Y037059*
X014541Y037054*
X014552Y037049*
X014564Y037044*
X014575Y037038*
X014584Y037033*
X014593Y037027*
X014601Y037023*
X014608Y037017*
X014614Y037013*
X014619Y037009*
X014623Y037004*
X014627Y037002*
X014629Y037000*
X014630Y036998*
X014631*
X014643Y036983*
X014654Y036968*
X014663Y036952*
X014671Y036936*
X014678Y036920*
X014684Y036905*
X014688Y036889*
X014692Y036875*
X014695Y036861*
X014698Y036848*
X014699Y036836*
X014700Y036826*
Y036818*
X014701Y036812*
Y036808*
Y036807*
X014700Y036782*
X014698Y036759*
X014693Y036737*
X014687Y036716*
X014680Y036696*
X014673Y036679*
X014665Y036662*
X014657Y036648*
X014648Y036635*
X014641Y036623*
X014633Y036613*
X014626Y036605*
X014620Y036598*
X014616Y036594*
X014613Y036590*
X014612Y036589*
X014595Y036575*
X014576Y036562*
X014557Y036551*
X014536Y036542*
X014516Y036534*
X014495Y036528*
X014475Y036522*
X014455Y036518*
X014437Y036515*
X014419Y036512*
X014403Y036510*
X014390Y036509*
X014379Y036508*
X014375*
X014364*
X014336*
X014310Y036511*
X014286Y036515*
X014263Y036520*
X014242Y036526*
X014222Y036533*
X014204Y036541*
X014188Y036549*
X014174Y036556*
X014161Y036564*
X014151Y036571*
X014142Y036577*
X014135Y036582*
X014130Y036586*
X014126Y036589*
X014110Y036605*
X014097Y036622*
X014085Y036639*
X014076Y036657*
X014067Y036674*
X014060Y036691*
X014054Y036709*
X014050Y036725*
X014046Y036740*
X014044Y036755*
X014042Y036767*
X014040Y036778*
Y036787*
X014039Y036793*
Y036798*
Y036799*
X014040Y036818*
X014041Y036836*
X014044Y036853*
X014047Y036869*
X014051Y036884*
X014055Y036898*
X014060Y036911*
X014065Y036923*
X014069Y036934*
X014074Y036943*
X014078Y036950*
X014082Y036957*
X014085Y036962*
X014087Y036966*
X014089Y036968*
X014090Y036969*
X014100Y036982*
X014111Y036993*
X014123Y037003*
X014136Y037013*
X014149Y037021*
X014162Y037029*
X014175Y037036*
X014187Y037043*
X014199Y037048*
X014210Y037053*
X014221Y037057*
X014229Y037060*
X014237Y037063*
X014242Y037064*
X014245Y037066*
X014246*
X014285Y036940*
G37*
G36*
X014423Y038025D02*
X014589D01*
Y037914*
X014423*
Y037746*
X014308*
Y037914*
X014142*
Y038025*
X014308*
Y038193*
X014423*
Y038025*
G37*
G36*
X014691Y037570D02*
X014217Y037413D01*
X014691Y037251*
Y037111*
X014050Y037340*
Y037478*
X014691Y037708*
Y037570*
G37*
G36*
X020174Y035730D02*
X020188Y035721D01*
X020200Y035713*
X020212Y035705*
X020222Y035698*
X020232Y035692*
X020240Y035686*
X020248Y035680*
X020255Y035675*
X020260Y035671*
X020265Y035667*
X020269Y035664*
X020273Y035661*
X020275Y035659*
X020277Y035657*
X020278Y035656*
X020289Y035646*
X020299Y035634*
X020308Y035622*
X020316Y035611*
X020323Y035601*
X020328Y035594*
X020330Y035591*
Y035589*
X020332Y035587*
X020335Y035602*
X020338Y035617*
X020342Y035630*
X020346Y035642*
X020351Y035654*
X020356Y035664*
X020361Y035673*
X020366Y035682*
X020371Y035689*
X020376Y035696*
X020380Y035701*
X020384Y035706*
X020387Y035710*
X020389Y035712*
X020391Y035713*
Y035714*
X020400Y035721*
X020410Y035728*
X020420Y035733*
X020430Y035738*
X020440Y035742*
X020450Y035746*
X020469Y035750*
X020477Y035753*
X020486Y035754*
X020493Y035755*
X020499*
X020504Y035756*
X020511*
X020532Y035755*
X020550Y035752*
X020568Y035747*
X020582Y035742*
X020589Y035739*
X020595Y035737*
X020600Y035734*
X020604Y035732*
X020607Y035730*
X020609Y035729*
X020611Y035728*
X020627Y035716*
X020640Y035704*
X020650Y035692*
X020659Y035680*
X020666Y035669*
X020668Y035665*
X020670Y035661*
X020671Y035657*
X020673Y035655*
Y035654*
Y035653*
X020676Y035644*
X020679Y035634*
X020682Y035622*
X020683Y035610*
X020686Y035586*
X020688Y035561*
X020689Y035550*
X020690Y035539*
Y035529*
X020691Y035521*
Y035514*
Y035509*
Y035505*
Y035504*
Y035232*
X020050*
Y035361*
X020317*
Y035387*
Y035403*
X020316Y035416*
X020315Y035427*
X020314Y035436*
X020312Y035443*
X020311Y035448*
X020310Y035451*
Y035452*
X020307Y035460*
X020303Y035467*
X020298Y035474*
X020294Y035479*
X020289Y035484*
X020287Y035488*
X020284Y035490*
X020283Y035491*
X020279Y035495*
X020273Y035499*
X020267Y035504*
X020260Y035510*
X020245Y035521*
X020229Y035533*
X020214Y035543*
X020208Y035548*
X020201Y035551*
X020196Y035555*
X020193Y035558*
X020190Y035559*
X020189Y035560*
X020050Y035653*
Y035808*
X020174Y035730*
G37*
G36*
X021691Y035683D02*
X021260D01*
X021691Y035419*
Y035294*
X021050*
Y035414*
X021471*
X021050Y035673*
Y035802*
X021691*
Y035683*
G37*
G36*
X022691Y035483D02*
X022260D01*
X022691Y035219*
Y035094*
X022050*
Y035214*
X022471*
X022050Y035473*
Y035602*
X022691*
Y035483*
G37*
G36*
X022158Y036120D02*
X022685D01*
Y035991*
X022050*
Y036441*
X022158*
Y036120*
G37*
G36*
X020691Y034174D02*
X020439D01*
Y033920*
X020691*
Y033791*
X020050*
Y033920*
X020330*
Y034174*
X020050*
Y034303*
X020691*
Y034174*
G37*
G36*
Y033200D02*
X020582D01*
Y033390*
X020050*
Y033519*
X020582*
Y033708*
X020691*
Y033200*
G37*
G36*
Y034641D02*
X020582D01*
Y034831*
X020050*
Y034960*
X020582*
Y035149*
X020691*
Y034641*
G37*
G36*
X022158Y036663D02*
X022332D01*
Y036984*
X022441*
Y036663*
X022582*
Y037008*
X022691*
Y036534*
X022050*
Y037021*
X022158*
Y036663*
G37*
G36*
X020691Y036199D02*
Y036062D01*
X020050Y035813*
Y035950*
X020196Y036003*
Y036259*
X020050Y036315*
Y036456*
X020691Y036199*
G37*
G36*
X021507Y034540D02*
X021521Y034539D01*
X021533Y034537*
X021545Y034535*
X021556Y034532*
X021566Y034529*
X021575Y034525*
X021584Y034522*
X021592Y034518*
X021598Y034515*
X021605Y034512*
X021609Y034509*
X021613Y034507*
X021616Y034505*
X021617Y034504*
X021618Y034503*
X021627Y034496*
X021634Y034489*
X021641Y034481*
X021648Y034473*
X021659Y034457*
X021668Y034443*
X021674Y034430*
X021676Y034425*
X021678Y034420*
X021679Y034416*
X021680Y034414*
X021681Y034412*
Y034411*
X021682Y034403*
X021684Y034394*
X021686Y034384*
Y034372*
X021687Y034360*
X021688Y034347*
X021689Y034321*
X021690Y034308*
Y034297*
X021691Y034286*
Y034276*
Y034269*
Y034262*
Y034259*
Y034258*
Y034050*
X021050*
Y034179*
X021292*
Y034263*
Y034279*
Y034294*
Y034308*
X021293Y034321*
X021294Y034333*
Y034344*
X021295Y034355*
X021296Y034364*
X021297Y034371*
X021298Y034378*
Y034385*
X021299Y034389*
X021300Y034393*
Y034396*
X021301Y034397*
Y034398*
X021304Y034410*
X021308Y034423*
X021313Y034434*
X021318Y034444*
X021323Y034453*
X021327Y034459*
X021330Y034463*
Y034464*
X021340Y034476*
X021351Y034487*
X021361Y034496*
X021371Y034505*
X021380Y034511*
X021387Y034515*
X021390Y034517*
X021392Y034518*
X021393Y034519*
X021394*
X021409Y034526*
X021426Y034532*
X021443Y034535*
X021458Y034538*
X021466Y034539*
X021472*
X021478Y034540*
X021483Y034541*
X021493*
X021507Y034540*
G37*
G36*
X020423Y038019D02*
X020589D01*
Y037907*
X020423*
Y037739*
X020308*
Y037907*
X020142*
Y038019*
X020308*
Y038187*
X020423*
Y038019*
G37*
G36*
X022507Y034340D02*
X022521Y034339D01*
X022533Y034337*
X022545Y034335*
X022556Y034332*
X022566Y034329*
X022575Y034325*
X022584Y034322*
X022592Y034318*
X022598Y034315*
X022605Y034312*
X022609Y034309*
X022613Y034307*
X022616Y034305*
X022617Y034304*
X022618Y034303*
X022627Y034296*
X022634Y034289*
X022641Y034281*
X022648Y034273*
X022659Y034257*
X022668Y034243*
X022674Y034230*
X022676Y034225*
X022678Y034220*
X022679Y034216*
X022680Y034214*
X022681Y034212*
Y034211*
X022682Y034203*
X022684Y034194*
X022686Y034184*
Y034172*
X022687Y034160*
X022688Y034147*
X022689Y034121*
X022690Y034108*
Y034097*
X022691Y034086*
Y034076*
Y034069*
Y034062*
Y034059*
Y034058*
Y033850*
X022050*
Y033979*
X022292*
Y034063*
Y034079*
Y034094*
Y034108*
X022293Y034121*
X022294Y034133*
Y034144*
X022295Y034155*
X022296Y034164*
X022297Y034171*
X022298Y034178*
Y034185*
X022299Y034189*
X022300Y034193*
Y034196*
X022301Y034197*
Y034198*
X022304Y034210*
X022308Y034223*
X022313Y034234*
X022318Y034244*
X022323Y034253*
X022327Y034259*
X022330Y034263*
Y034264*
X022340Y034276*
X022350Y034287*
X022361Y034296*
X022371Y034305*
X022380Y034311*
X022387Y034315*
X022390Y034317*
X022392Y034318*
X022393Y034319*
X022394*
X022409Y034326*
X022426Y034332*
X022443Y034335*
X022458Y034338*
X022466Y034339*
X022472*
X022478Y034340*
X022483Y034341*
X022493*
X022507Y034340*
G37*
G36*
X021691Y034968D02*
Y034831D01*
X021050Y034582*
Y034718*
X021196Y034772*
Y035028*
X021050Y035084*
Y035225*
X021691Y034968*
G37*
G36*
X022691Y034768D02*
Y034631D01*
X022050Y034382*
Y034518*
X022196Y034572*
Y034828*
X022050Y034884*
Y035025*
X022691Y034768*
G37*
G36*
X020691Y036914D02*
X020260D01*
X020691Y036651*
Y036526*
X020050*
Y036645*
X020471*
X020050Y036905*
Y037034*
X020691*
Y036914*
G37*
G36*
X021344Y037961D02*
X021221D01*
Y038203*
X021344*
Y037961*
G37*
G36*
X020258Y037657D02*
X020278Y037654D01*
X020295Y037650*
X020303Y037648*
X020310Y037646*
X020316Y037643*
X020321Y037641*
X020326Y037639*
X020330Y037637*
X020334Y037635*
X020336Y037634*
X020337Y037633*
X020338*
X020353Y037622*
X020366Y037610*
X020377Y037599*
X020387Y037587*
X020394Y037577*
X020399Y037569*
X020400Y037565*
X020402Y037563*
X020403Y037562*
Y037561*
X020407Y037552*
X020412Y037542*
X020416Y037531*
X020421Y037520*
X020428Y037497*
X020435Y037474*
X020438Y037464*
X020441Y037454*
X020443Y037445*
X020446Y037437*
X020447Y037431*
X020448Y037426*
X020449Y037423*
Y037422*
X020453Y037405*
X020457Y037390*
X020462Y037376*
X020466Y037363*
X020469Y037352*
X020473Y037342*
X020476Y037334*
X020479Y037327*
X020482Y037321*
X020484Y037315*
X020487Y037311*
X020489Y037308*
X020490Y037306*
X020491Y037304*
X020492Y037303*
X020498Y037297*
X020505Y037292*
X020512Y037289*
X020518Y037286*
X020523Y037285*
X020527Y037284*
X020531*
X020540Y037285*
X020548Y037288*
X020555Y037290*
X020560Y037295*
X020564Y037298*
X020568Y037302*
X020570Y037304*
X020578Y037318*
X020584Y037331*
X020589Y037347*
X020591Y037361*
X020593Y037374*
Y037379*
X020594Y037384*
Y037388*
Y037390*
Y037392*
Y037393*
X020593Y037413*
X020591Y037429*
X020587Y037443*
X020583Y037455*
X020579Y037464*
X020575Y037470*
X020573Y037474*
X020572Y037475*
X020563Y037485*
X020552Y037492*
X020540Y037499*
X020529Y037503*
X020518Y037507*
X020514Y037508*
X020509Y037510*
X020507*
X020504*
X020502Y037511*
X020507Y037640*
X020523Y037639*
X020538Y037637*
X020552Y037633*
X020566Y037628*
X020578Y037624*
X020590Y037618*
X020600Y037612*
X020610Y037607*
X020618Y037601*
X020626Y037595*
X020633Y037590*
X020638Y037585*
X020642Y037581*
X020645Y037578*
X020647Y037576*
X020648*
X020657Y037564*
X020665Y037551*
X020673Y037536*
X020679Y037522*
X020684Y037507*
X020688Y037492*
X020691Y037476*
X020694Y037463*
X020697Y037449*
X020698Y037435*
X020700Y037424*
Y037414*
X020701Y037406*
Y037400*
Y037396*
Y037395*
X020700Y037367*
X020699Y037356*
X020698Y037343*
X020695Y037332*
X020694Y037322*
X020692Y037313*
X020690Y037304*
X020687Y037295*
X020685Y037288*
X020684Y037283*
X020682Y037277*
X020680Y037274*
X020679Y037270*
X020678Y037269*
Y037268*
X020669Y037250*
X020659Y037234*
X020648Y037220*
X020638Y037209*
X020628Y037200*
X020620Y037193*
X020618Y037191*
X020616Y037190*
X020614Y037188*
X020598Y037179*
X020582Y037172*
X020566Y037168*
X020552Y037164*
X020540Y037162*
X020534Y037161*
X020530*
X020527*
X020522*
X020508*
X020495Y037163*
X020482Y037166*
X020470Y037170*
X020459Y037175*
X020448Y037179*
X020438Y037185*
X020429Y037190*
X020421Y037195*
X020414Y037201*
X020407Y037206*
X020403Y037211*
X020398Y037214*
X020396Y037217*
X020394Y037219*
X020393Y037220*
X020386Y037228*
X020380Y037238*
X020373Y037249*
X020367Y037260*
X020357Y037284*
X020347Y037308*
X020344Y037320*
X020340Y037330*
X020337Y037340*
X020335Y037349*
X020332Y037356*
X020331Y037361*
X020330Y037364*
Y037365*
X020326Y037380*
X020323Y037393*
X020320Y037405*
X020317Y037415*
X020314Y037425*
X020312Y037433*
X020310Y037441*
X020308Y037447*
X020307Y037453*
X020305Y037457*
X020304Y037461*
X020303Y037464*
Y037466*
Y037467*
X020302Y037469*
X020297Y037481*
X020293Y037490*
X020288Y037498*
X020284Y037505*
X020280Y037509*
X020277Y037513*
X020275Y037515*
X020274*
X020268Y037520*
X020262Y037524*
X020255Y037526*
X020248Y037528*
X020244*
X020239Y037529*
X020229*
X020223Y037528*
X020211Y037524*
X020200Y037519*
X020191Y037513*
X020184Y037508*
X020178Y037502*
X020175Y037499*
X020174Y037498*
Y037497*
X020169Y037491*
X020165Y037484*
X020158Y037469*
X020153Y037453*
X020151Y037438*
X020149Y037424*
X020148Y037418*
Y037413*
X020147Y037408*
Y037405*
Y037403*
Y037402*
X020149Y037381*
X020152Y037363*
X020156Y037347*
X020162Y037333*
X020165Y037327*
X020167Y037322*
X020169Y037318*
X020171Y037314*
X020174Y037311*
X020175Y037309*
X020176Y037308*
X020183Y037302*
X020189Y037296*
X020203Y037286*
X020219Y037278*
X020235Y037272*
X020248Y037268*
X020254Y037265*
X020260Y037264*
X020264Y037263*
X020267*
X020269Y037262*
X020270*
X020258Y037136*
X020238Y037139*
X020219Y037143*
X020203Y037148*
X020187Y037154*
X020172Y037160*
X020158Y037166*
X020146Y037173*
X020135Y037180*
X020126Y037186*
X020117Y037193*
X020110Y037199*
X020104Y037204*
X020100Y037208*
X020096Y037211*
X020094Y037213*
Y037214*
X020084Y037227*
X020076Y037241*
X020068Y037256*
X020062Y037271*
X020056Y037286*
X020052Y037302*
X020048Y037317*
X020045Y037332*
X020043Y037346*
X020041Y037359*
X020040Y037371*
X020039Y037381*
Y037389*
X020038Y037395*
Y037399*
Y037401*
Y037416*
X020039Y037431*
X020040Y037445*
X020042Y037458*
X020044Y037470*
X020045Y037482*
X020047Y037492*
X020050Y037502*
X020052Y037510*
X020054Y037518*
X020056Y037525*
X020058Y037531*
X020059Y037535*
X020060Y037538*
X020061Y037540*
X020071Y037560*
X020082Y037578*
X020094Y037592*
X020106Y037605*
X020116Y037615*
X020121Y037618*
X020125Y037621*
X020128Y037624*
X020131Y037626*
X020132Y037627*
X020133*
X020142Y037633*
X020151Y037637*
X020169Y037645*
X020187Y037651*
X020203Y037654*
X020210Y037655*
X020216Y037657*
X020222Y037658*
X020227*
X020230*
X020236*
X020258Y037657*
G37*
G36*
X021158Y036320D02*
X021685D01*
Y036191*
X021050*
Y036641*
X021158*
Y036320*
G37*
G36*
X019691Y034841D02*
X019582D01*
Y035031*
X019050*
Y035160*
X019582*
Y035349*
X019691*
Y034841*
G37*
G36*
Y034374D02*
X019439D01*
Y034120*
X019691*
Y033991*
X019050*
Y034120*
X019330*
Y034374*
X019050*
Y034503*
X019691*
Y034374*
G37*
G36*
X022423Y038029D02*
X022589D01*
Y037917*
X022423*
Y037749*
X022308*
Y037917*
X022142*
Y038029*
X022308*
Y038197*
X022423*
Y038029*
G37*
G36*
X018158Y036061D02*
X018332D01*
Y036382*
X018441*
Y036061*
X018582*
Y036407*
X018691*
Y035932*
X018050*
Y036419*
X018158*
Y036061*
G37*
G36*
X018691Y037568D02*
X018217Y037412D01*
X018691Y037249*
Y037110*
X018050Y037338*
Y037477*
X018691Y037706*
Y037568*
G37*
G36*
X018285Y036938D02*
X018273Y036935D01*
X018260Y036931*
X018249Y036927*
X018239Y036923*
X018230Y036918*
X018221Y036914*
X018214Y036909*
X018207Y036905*
X018201Y036901*
X018196Y036897*
X018192Y036893*
X018188Y036890*
X018185Y036888*
X018183Y036886*
Y036885*
X018182Y036884*
X018176Y036877*
X018171Y036870*
X018163Y036855*
X018158Y036840*
X018153Y036827*
X018151Y036814*
X018150Y036809*
Y036804*
X018149Y036801*
Y036798*
Y036797*
Y036796*
X018150Y036784*
X018151Y036771*
X018154Y036759*
X018158Y036749*
X018161Y036738*
X018165Y036729*
X018170Y036720*
X018175Y036713*
X018180Y036706*
X018185Y036700*
X018189Y036695*
X018192Y036690*
X018196Y036687*
X018199Y036684*
X018200Y036683*
X018201Y036682*
X018211Y036675*
X018223Y036668*
X018235Y036662*
X018249Y036657*
X018264Y036653*
X018278Y036650*
X018306Y036645*
X018320Y036643*
X018332Y036641*
X018344*
X018354Y036640*
X018362Y036639*
X018373*
X018394Y036640*
X018414Y036641*
X018431Y036643*
X018448Y036646*
X018463Y036650*
X018476Y036653*
X018489Y036657*
X018499Y036661*
X018509Y036665*
X018517Y036669*
X018524Y036672*
X018530Y036676*
X018534Y036679*
X018537Y036681*
X018539Y036682*
Y036683*
X018548Y036691*
X018556Y036701*
X018563Y036710*
X018569Y036720*
X018574Y036729*
X018578Y036739*
X018582Y036749*
X018584Y036758*
X018586Y036766*
X018588Y036774*
X018589Y036781*
X018590Y036787*
X018591Y036792*
Y036795*
Y036798*
Y036799*
X018589Y036818*
X018586Y036834*
X018582Y036849*
X018576Y036862*
X018570Y036872*
X018568Y036876*
X018566Y036880*
X018564Y036883*
X018563Y036885*
X018562Y036886*
X018561*
X018550Y036899*
X018537Y036909*
X018524Y036917*
X018512Y036924*
X018500Y036929*
X018496Y036931*
X018491Y036932*
X018488Y036933*
X018485*
X018484Y036934*
X018483*
X018514Y037062*
X018527Y037058*
X018541Y037053*
X018552Y037047*
X018564Y037042*
X018575Y037037*
X018584Y037031*
X018593Y037026*
X018601Y037021*
X018608Y037015*
X018614Y037011*
X018619Y037007*
X018623Y037003*
X018627Y037000*
X018629Y036998*
X018630Y036997*
X018631Y036996*
X018643Y036981*
X018654Y036967*
X018664Y036951*
X018671Y036935*
X018678Y036919*
X018684Y036903*
X018688Y036888*
X018692Y036873*
X018695Y036859*
X018698Y036846*
X018699Y036834*
X018700Y036824*
Y036816*
X018701Y036811*
Y036806*
Y036805*
X018700Y036781*
X018698Y036757*
X018693Y036735*
X018687Y036714*
X018680Y036695*
X018673Y036677*
X018665Y036661*
X018657Y036646*
X018648Y036633*
X018641Y036621*
X018633Y036611*
X018626Y036603*
X018620Y036596*
X018616Y036592*
X018613Y036588*
X018612*
X018595Y036573*
X018576Y036561*
X018557Y036550*
X018536Y036541*
X018516Y036532*
X018495Y036526*
X018475Y036520*
X018455Y036516*
X018437Y036513*
X018419Y036510*
X018403Y036509*
X018390Y036507*
X018379*
X018375Y036506*
X018364*
X018336Y036507*
X018310Y036509*
X018286Y036514*
X018263Y036518*
X018242Y036525*
X018222Y036532*
X018204Y036539*
X018188Y036547*
X018174Y036554*
X018161Y036562*
X018151Y036569*
X018142Y036575*
X018135Y036580*
X018130Y036584*
X018126Y036587*
Y036588*
X018110Y036604*
X018097Y036620*
X018085Y036638*
X018076Y036655*
X018067Y036672*
X018060Y036690*
X018054Y036707*
X018050Y036723*
X018046Y036738*
X018044Y036753*
X018042Y036765*
X018040Y036776*
Y036785*
X018039Y036792*
Y036796*
Y036797*
X018040Y036816*
X018041Y036834*
X018044Y036852*
X018047Y036867*
X018051Y036883*
X018055Y036897*
X018060Y036910*
X018065Y036921*
X018069Y036932*
X018074Y036941*
X018078Y036949*
X018082Y036956*
X018085Y036960*
X018087Y036965*
X018089Y036967*
X018090*
X018100Y036980*
X018111Y036991*
X018123Y037001*
X018136Y037011*
X018149Y037019*
X018162Y037028*
X018175Y037035*
X018187Y037041*
X018199Y037047*
X018210Y037051*
X018221Y037055*
X018229Y037058*
X018237Y037061*
X018242Y037062*
X018245Y037064*
X018246*
X018285Y036938*
G37*
G36*
X019691Y033400D02*
X019582D01*
Y033590*
X019050*
Y033719*
X019582*
Y033908*
X019691*
Y033400*
G37*
G36*
X018423Y038024D02*
X018589D01*
Y037912*
X018423*
Y037744*
X018308*
Y037912*
X018142*
Y038024*
X018308*
Y038192*
X018423*
Y038024*
G37*
G36*
X019258Y037857D02*
X019278Y037854D01*
X019295Y037850*
X019303Y037848*
X019310Y037846*
X019316Y037843*
X019321Y037841*
X019326Y037839*
X019330Y037837*
X019334Y037835*
X019336Y037834*
X019337Y037833*
X019338*
X019353Y037822*
X019366Y037810*
X019377Y037799*
X019387Y037787*
X019394Y037777*
X019399Y037769*
X019400Y037765*
X019402Y037763*
X019403Y037762*
Y037761*
X019407Y037752*
X019412Y037742*
X019416Y037731*
X019421Y037720*
X019428Y037697*
X019435Y037674*
X019438Y037664*
X019441Y037654*
X019444Y037645*
X019446Y037637*
X019447Y037631*
X019448Y037626*
X019449Y037623*
Y037622*
X019453Y037605*
X019457Y037590*
X019462Y037576*
X019466Y037563*
X019469Y037552*
X019473Y037542*
X019476Y037534*
X019479Y037527*
X019482Y037521*
X019484Y037515*
X019487Y037511*
X019489Y037508*
X019490Y037506*
X019491Y037504*
X019492Y037503*
X019498Y037497*
X019505Y037492*
X019512Y037489*
X019518Y037486*
X019523Y037485*
X019527Y037484*
X019531*
X019540Y037485*
X019548Y037488*
X019555Y037490*
X019560Y037495*
X019564Y037498*
X019568Y037502*
X019570Y037504*
X019578Y037517*
X019584Y037531*
X019589Y037547*
X019591Y037561*
X019593Y037574*
Y037579*
X019594Y037584*
Y037588*
Y037590*
Y037592*
Y037593*
X019593Y037613*
X019591Y037629*
X019587Y037643*
X019583Y037655*
X019579Y037664*
X019575Y037670*
X019573Y037674*
X019572Y037675*
X019563Y037685*
X019552Y037692*
X019540Y037699*
X019529Y037703*
X019518Y037707*
X019514Y037708*
X019509Y037710*
X019507*
X019504*
X019502Y037711*
X019507Y037840*
X019523Y037839*
X019538Y037837*
X019552Y037833*
X019566Y037828*
X019578Y037824*
X019590Y037818*
X019600Y037812*
X019610Y037807*
X019618Y037801*
X019626Y037795*
X019633Y037790*
X019638Y037785*
X019642Y037781*
X019645Y037778*
X019647Y037776*
X019648*
X019657Y037764*
X019665Y037751*
X019673Y037736*
X019679Y037722*
X019684Y037707*
X019688Y037692*
X019691Y037676*
X019694Y037663*
X019697Y037649*
X019698Y037635*
X019700Y037624*
Y037614*
X019701Y037606*
Y037600*
Y037596*
Y037595*
X019700Y037567*
X019699Y037556*
X019698Y037543*
X019695Y037532*
X019694Y037522*
X019692Y037513*
X019690Y037504*
X019687Y037495*
X019685Y037488*
X019684Y037483*
X019682Y037477*
X019680Y037474*
X019679Y037470*
X019678Y037469*
Y037468*
X019669Y037450*
X019659Y037434*
X019648Y037420*
X019638Y037409*
X019628Y037400*
X019620Y037393*
X019618Y037391*
X019616Y037390*
X019614Y037388*
X019598Y037379*
X019582Y037372*
X019566Y037368*
X019552Y037364*
X019540Y037362*
X019534Y037361*
X019530*
X019527*
X019522*
X019508*
X019495Y037363*
X019482Y037366*
X019470Y037370*
X019459Y037375*
X019448Y037379*
X019438Y037385*
X019429Y037390*
X019421Y037395*
X019414Y037401*
X019407Y037406*
X019403Y037411*
X019398Y037414*
X019396Y037417*
X019394Y037419*
X019393Y037420*
X019386Y037428*
X019380Y037438*
X019373Y037449*
X019367Y037460*
X019357Y037484*
X019347Y037508*
X019344Y037520*
X019340Y037530*
X019337Y037540*
X019335Y037549*
X019332Y037556*
X019331Y037561*
X019330Y037564*
Y037565*
X019326Y037580*
X019323Y037593*
X019320Y037605*
X019317Y037615*
X019314Y037625*
X019312Y037633*
X019310Y037641*
X019308Y037647*
X019307Y037653*
X019305Y037657*
X019304Y037661*
X019303Y037664*
Y037666*
Y037667*
X019302Y037669*
X019297Y037681*
X019293Y037690*
X019288Y037698*
X019284Y037705*
X019280Y037709*
X019277Y037713*
X019275Y037715*
X019274*
X019268Y037720*
X019262Y037724*
X019255Y037726*
X019248Y037728*
X019244*
X019239Y037729*
X019229*
X019223Y037728*
X019211Y037724*
X019200Y037719*
X019191Y037713*
X019184Y037708*
X019178Y037702*
X019175Y037699*
X019174Y037698*
Y037697*
X019169Y037691*
X019165Y037684*
X019158Y037669*
X019153Y037653*
X019151Y037638*
X019149Y037624*
X019148Y037618*
Y037613*
X019147Y037608*
Y037605*
Y037603*
Y037602*
X019149Y037581*
X019152Y037563*
X019156Y037547*
X019162Y037533*
X019165Y037527*
X019167Y037522*
X019169Y037517*
X019171Y037514*
X019174Y037511*
X019175Y037509*
X019176Y037508*
X019183Y037502*
X019189Y037496*
X019203Y037486*
X019219Y037478*
X019235Y037472*
X019248Y037468*
X019254Y037465*
X019260Y037464*
X019264Y037463*
X019267*
X019269Y037462*
X019270*
X019258Y037336*
X019238Y037339*
X019219Y037343*
X019203Y037348*
X019187Y037354*
X019172Y037360*
X019158Y037366*
X019146Y037373*
X019135Y037380*
X019126Y037386*
X019117Y037393*
X019110Y037399*
X019104Y037404*
X019100Y037408*
X019096Y037411*
X019094Y037413*
Y037414*
X019084Y037427*
X019076Y037441*
X019068Y037456*
X019062Y037471*
X019056Y037486*
X019052Y037502*
X019048Y037517*
X019045Y037532*
X019043Y037546*
X019041Y037559*
X019040Y037571*
X019039Y037581*
Y037589*
X019038Y037595*
Y037599*
Y037601*
Y037616*
X019039Y037631*
X019040Y037645*
X019042Y037658*
X019044Y037670*
X019045Y037682*
X019047Y037692*
X019050Y037702*
X019052Y037710*
X019054Y037718*
X019056Y037725*
X019058Y037731*
X019059Y037735*
X019060Y037738*
X019061Y037740*
X019071Y037760*
X019082Y037778*
X019094Y037792*
X019106Y037805*
X019116Y037815*
X019121Y037818*
X019125Y037821*
X019128Y037824*
X019131Y037826*
X019132Y037827*
X019133*
X019142Y037833*
X019151Y037837*
X019169Y037845*
X019187Y037851*
X019203Y037854*
X019210Y037855*
X019216Y037857*
X019222Y037858*
X019227*
X019230*
X019236*
X019258Y037857*
G37*
G36*
X019691Y037114D02*
X019260D01*
X019691Y036851*
Y036726*
X019050*
Y036845*
X019471*
X019050Y037105*
Y037234*
X019691*
Y037114*
G37*
G36*
X019344Y037952D02*
X019221D01*
Y038193*
X019344*
Y037952*
G37*
G36*
X022396Y037666D02*
X022411Y037665D01*
X022425Y037664*
X022439Y037662*
X022451Y037660*
X022463Y037658*
X022473Y037657*
X022482Y037655*
X022491Y037652*
X022498Y037650*
X022504Y037649*
X022509Y037648*
X022512Y037646*
X022514Y037645*
X022515*
X022537Y037637*
X022557Y037627*
X022575Y037617*
X022583Y037612*
X022590Y037607*
X022597Y037602*
X022602Y037598*
X022607Y037594*
X022611Y037591*
X022615Y037589*
X022617Y037587*
X022618Y037585*
X022619Y037584*
X022634Y037568*
X022646Y037552*
X022657Y037537*
X022664Y037521*
X022670Y037508*
X022673Y037503*
X022675Y037498*
X022676Y037494*
X022677Y037491*
X022678Y037489*
Y037488*
X022680Y037480*
X022682Y037471*
X022685Y037451*
X022688Y037431*
X022689Y037412*
X022690Y037403*
Y037394*
Y037387*
X022691Y037380*
Y037374*
Y037370*
Y037367*
Y037366*
Y037131*
X022050*
Y037373*
Y037387*
X022051Y037399*
Y037411*
X022052Y037421*
X022053Y037432*
X022054Y037441*
X022056Y037450*
X022057Y037457*
X022058Y037464*
X022059Y037471*
X022060Y037476*
X022061Y037480*
X022062Y037484*
Y037486*
X022063Y037487*
Y037488*
X022071Y037508*
X022079Y037526*
X022087Y037541*
X022096Y037555*
X022099Y037560*
X022103Y037565*
X022106Y037568*
X022109Y037572*
X022111Y037575*
X022113Y037577*
X022114*
X022115Y037578*
X022132Y037594*
X022151Y037608*
X022169Y037620*
X022187Y037630*
X022196Y037634*
X022203Y037637*
X022210Y037640*
X022216Y037643*
X022221Y037644*
X022225Y037645*
X022227Y037647*
X022228*
X022250Y037654*
X022273Y037659*
X022296Y037662*
X022317Y037664*
X022327Y037666*
X022336*
X022344*
X022350Y037667*
X022380*
X022396Y037666*
G37*
G36*
X021396Y037866D02*
X021411Y037865D01*
X021425Y037864*
X021439Y037862*
X021451Y037860*
X021463Y037858*
X021473Y037857*
X021482Y037855*
X021491Y037852*
X021498Y037850*
X021504Y037849*
X021509Y037848*
X021512Y037846*
X021514Y037845*
X021515*
X021537Y037837*
X021557Y037827*
X021575Y037817*
X021583Y037812*
X021590Y037807*
X021597Y037802*
X021602Y037798*
X021607Y037794*
X021611Y037791*
X021615Y037789*
X021617Y037787*
X021618Y037785*
X021619Y037784*
X021634Y037768*
X021646Y037752*
X021657Y037737*
X021664Y037721*
X021670Y037708*
X021673Y037703*
X021675Y037698*
X021676Y037694*
X021677Y037691*
X021678Y037689*
Y037688*
X021680Y037680*
X021682Y037671*
X021685Y037651*
X021688Y037631*
X021689Y037612*
X021690Y037603*
Y037594*
Y037587*
X021691Y037580*
Y037574*
Y037570*
Y037567*
Y037566*
Y037331*
X021050*
Y037573*
Y037587*
X021051Y037599*
Y037611*
X021052Y037621*
X021053Y037632*
X021054Y037641*
X021056Y037650*
X021057Y037657*
X021058Y037664*
X021059Y037671*
X021060Y037676*
X021061Y037680*
X021062Y037684*
Y037686*
X021063Y037687*
Y037688*
X021071Y037708*
X021079Y037726*
X021087Y037741*
X021096Y037755*
X021099Y037760*
X021103Y037765*
X021106Y037768*
X021109Y037772*
X021111Y037775*
X021113Y037777*
X021114*
X021115Y037778*
X021132Y037794*
X021151Y037808*
X021169Y037820*
X021187Y037830*
X021196Y037834*
X021203Y037837*
X021210Y037840*
X021216Y037843*
X021221Y037844*
X021225Y037845*
X021227Y037847*
X021228*
X021250Y037854*
X021273Y037859*
X021296Y037862*
X021317Y037864*
X021327Y037866*
X021336*
X021344*
X021351Y037867*
X021380*
X021396Y037866*
G37*
G36*
X019174Y035930D02*
X019188Y035921D01*
X019200Y035913*
X019212Y035905*
X019222Y035898*
X019232Y035892*
X019240Y035886*
X019248Y035880*
X019255Y035875*
X019260Y035871*
X019265Y035867*
X019269Y035864*
X019273Y035861*
X019275Y035859*
X019277Y035857*
X019278Y035856*
X019289Y035846*
X019299Y035834*
X019308Y035822*
X019316Y035811*
X019323Y035801*
X019328Y035794*
X019330Y035791*
Y035789*
X019332Y035787*
X019335Y035802*
X019338Y035817*
X019342Y035830*
X019346Y035842*
X019351Y035854*
X019356Y035864*
X019361Y035873*
X019366Y035882*
X019371Y035889*
X019376Y035896*
X019380Y035901*
X019384Y035906*
X019387Y035910*
X019389Y035912*
X019391Y035913*
Y035914*
X019400Y035921*
X019410Y035928*
X019420Y035933*
X019430Y035938*
X019440Y035942*
X019450Y035946*
X019469Y035950*
X019477Y035953*
X019486Y035954*
X019493Y035955*
X019499*
X019504Y035956*
X019511*
X019532Y035955*
X019550Y035952*
X019568Y035947*
X019582Y035942*
X019589Y035939*
X019595Y035937*
X019600Y035934*
X019604Y035932*
X019607Y035930*
X019609Y035929*
X019611Y035928*
X019627Y035916*
X019640Y035904*
X019650Y035892*
X019659Y035880*
X019666Y035869*
X019668Y035865*
X019670Y035861*
X019671Y035857*
X019673Y035855*
Y035854*
Y035853*
X019676Y035844*
X019679Y035834*
X019682Y035822*
X019683Y035810*
X019686Y035786*
X019688Y035761*
X019689Y035750*
X019690Y035739*
Y035729*
X019691Y035721*
Y035714*
Y035709*
Y035705*
Y035704*
Y035432*
X019050*
Y035561*
X019317*
Y035587*
Y035603*
X019316Y035616*
X019315Y035627*
X019314Y035636*
X019312Y035643*
X019311Y035648*
X019310Y035651*
Y035652*
X019307Y035660*
X019303Y035667*
X019298Y035674*
X019294Y035679*
X019289Y035684*
X019287Y035688*
X019284Y035690*
X019283Y035691*
X019279Y035695*
X019273Y035699*
X019267Y035704*
X019260Y035710*
X019245Y035721*
X019229Y035733*
X019214Y035743*
X019208Y035748*
X019201Y035751*
X019196Y035755*
X019193Y035758*
X019190Y035759*
X019189Y035760*
X019050Y035853*
Y036008*
X019174Y035930*
G37*
G36*
X021158Y036863D02*
X021332D01*
Y037184*
X021441*
Y036863*
X021582*
Y037208*
X021691*
Y036734*
X021050*
Y037221*
X021158*
Y036863*
G37*
G36*
X019691Y036399D02*
Y036262D01*
X019050Y036013*
Y036150*
X019196Y036203*
Y036459*
X019050Y036515*
Y036656*
X019691Y036399*
G37*
%LNmotherboard-2*%
%LPC*%
G36*
X016508Y035624D02*
X016502D01*
X016492*
X016482Y035622*
X016474Y035620*
X016467Y035618*
X016462Y035615*
X016457Y035613*
X016455Y035612*
X016454Y035611*
X016447Y035606*
X016441Y035600*
X016437Y035594*
X016433Y035588*
X016430Y035583*
X016428Y035579*
Y035576*
X016427Y035574*
X016425Y035570*
X016424Y035563*
X016423Y035555*
Y035547*
X016421Y035528*
X016420Y035508*
Y035498*
Y035489*
X016419Y035481*
Y035473*
Y035468*
Y035463*
Y035460*
Y035459*
Y035363*
X016582*
Y035463*
Y035477*
Y035490*
Y035502*
Y035511*
Y035520*
Y035528*
X016581Y035535*
Y035540*
Y035545*
X016580Y035549*
Y035552*
Y035554*
Y035557*
Y035558*
X016577Y035569*
X016573Y035579*
X016570Y035588*
X016565Y035595*
X016561Y035600*
X016558Y035604*
X016555Y035606*
Y035607*
X016546Y035613*
X016538Y035617*
X016530Y035620*
X016521Y035622*
X016514Y035624*
X016508*
G37*
G36*
X016304Y036220D02*
Y036044D01*
X016541Y036131*
X016304Y036220*
G37*
G36*
X016497Y034200D02*
X016491D01*
X016481Y034199*
X016471Y034198*
X016463Y034195*
X016456Y034192*
X016450Y034189*
X016446Y034186*
X016442Y034185*
X016441Y034184*
X016434Y034179*
X016428Y034172*
X016422Y034165*
X016417Y034159*
X016414Y034153*
X016412Y034148*
X016410Y034146*
X016409Y034144*
X016408Y034139*
X016406Y034132*
X016405Y034125*
X016404Y034117*
X016402Y034100*
X016401Y034084*
X016400Y034068*
Y034061*
Y034055*
Y034049*
Y034046*
Y034043*
Y034042*
Y033971*
X016582*
Y034034*
Y034046*
Y034058*
Y034068*
Y034077*
X016581Y034086*
Y034093*
X016580Y034100*
Y034107*
Y034111*
X016579Y034116*
Y034119*
X016578Y034122*
X016577Y034125*
Y034127*
X016575Y034138*
X016571Y034148*
X016566Y034157*
X016561Y034164*
X016557Y034170*
X016552Y034175*
X016550Y034178*
X016549Y034179*
X016540Y034186*
X016530Y034191*
X016521Y034195*
X016512Y034197*
X016504Y034198*
X016497Y034200*
G37*
G36*
X016508Y033587D02*
X016502D01*
X016492Y033586*
X016482Y033585*
X016474Y033583*
X016467Y033581*
X016462Y033578*
X016457Y033576*
X016455Y033574*
X016454*
X016447Y033568*
X016441Y033563*
X016437Y033556*
X016433Y033550*
X016430Y033545*
X016428Y033541*
Y033538*
X016427Y033537*
X016425Y033532*
X016424Y033525*
X016423Y033517*
Y033509*
X016421Y033490*
X016420Y033470*
Y033461*
Y033452*
X016419Y033443*
Y033436*
Y033430*
Y033425*
Y033422*
Y033421*
Y033325*
X016582*
Y033426*
Y033440*
Y033453*
Y033464*
Y033474*
Y033483*
Y033490*
X016581Y033497*
Y033503*
Y033508*
X016580Y033511*
Y033514*
Y033517*
Y033520*
X016577Y033531*
X016573Y033542*
X016570Y033550*
X016565Y033557*
X016561Y033563*
X016558Y033566*
X016555Y033569*
X016546Y033575*
X016538Y033579*
X016530Y033583*
X016521Y033585*
X016514Y033586*
X016508Y033587*
G37*
G36*
X016382Y032953D02*
X016357D01*
X016344*
X016332Y032952*
X016320Y032951*
X016310Y032950*
X016301Y032949*
X016292Y032948*
X016283Y032947*
X016276Y032946*
X016270Y032944*
X016265Y032943*
X016260Y032942*
X016257Y032941*
X016255*
X016253Y032940*
X016237Y032934*
X016225Y032929*
X016214Y032923*
X016205Y032918*
X016199Y032914*
X016194Y032909*
X016192Y032907*
X016191Y032906*
X016185Y032898*
X016179Y032889*
X016174Y032880*
X016170Y032872*
X016167Y032865*
X016165Y032860*
Y032855*
X016164*
Y032854*
X016163Y032849*
X016162Y032844*
X016160Y032832*
Y032819*
X016159Y032805*
X016158Y032794*
Y032789*
Y032785*
Y032780*
Y032778*
Y032776*
Y032679*
X016582*
Y032737*
Y032751*
Y032764*
Y032776*
Y032787*
X016581Y032796*
X016580Y032805*
Y032813*
Y032819*
X016579Y032826*
X016578Y032830*
X016577Y032835*
Y032837*
Y032840*
X016576Y032841*
Y032843*
X016573Y032856*
X016568Y032868*
X016563Y032878*
X016558Y032887*
X016553Y032894*
X016549Y032899*
X016546Y032902*
Y032903*
X016536Y032912*
X016527Y032919*
X016516Y032925*
X016507Y032930*
X016498Y032934*
X016490Y032938*
X016488Y032939*
X016486*
X016484Y032940*
X016476Y032942*
X016468Y032944*
X016449Y032948*
X016430Y032950*
X016412Y032952*
X016403*
X016396Y032953*
X016389*
X016382*
G37*
G36*
X018508Y035677D02*
X018502D01*
X018492Y035676*
X018482Y035674*
X018474Y035672*
X018467Y035670*
X018462Y035668*
X018457Y035665*
X018455Y035664*
X018454Y035663*
X018447Y035658*
X018441Y035652*
X018437Y035646*
X018433Y035640*
X018430Y035635*
X018428Y035631*
Y035628*
X018427Y035627*
X018425Y035622*
X018424Y035615*
X018423Y035607*
Y035599*
X018421Y035580*
X018420Y035560*
Y035550*
Y035541*
X018419Y035533*
Y035525*
Y035520*
Y035515*
Y035512*
Y035511*
Y035415*
X018582*
Y035516*
Y035529*
Y035543*
Y035554*
Y035563*
Y035572*
Y035580*
X018581Y035587*
Y035593*
Y035597*
X018580Y035601*
Y035604*
Y035606*
Y035609*
Y035610*
X018577Y035621*
X018573Y035631*
X018570Y035640*
X018565Y035647*
X018561Y035652*
X018558Y035656*
X018555Y035659*
X018546Y035665*
X018538Y035669*
X018530Y035672*
X018521Y035674*
X018514Y035676*
X018508Y035677*
G37*
G36*
X017508Y035877D02*
X017502D01*
X017492Y035876*
X017482Y035874*
X017474Y035872*
X017467Y035870*
X017462Y035868*
X017457Y035865*
X017455Y035864*
X017454Y035863*
X017447Y035858*
X017441Y035852*
X017437Y035846*
X017433Y035840*
X017430Y035835*
X017428Y035831*
Y035828*
X017427Y035827*
X017425Y035822*
X017424Y035815*
X017423Y035807*
Y035799*
X017421Y035780*
X017420Y035760*
Y035750*
Y035741*
X017419Y035733*
Y035725*
Y035720*
Y035715*
Y035712*
Y035711*
Y035615*
X017582*
Y035716*
Y035729*
Y035743*
Y035754*
Y035763*
Y035772*
Y035780*
X017581Y035787*
Y035793*
Y035797*
X017580Y035801*
Y035804*
Y035806*
Y035809*
Y035810*
X017577Y035821*
X017573Y035831*
X017570Y035840*
X017565Y035847*
X017561Y035852*
X017558Y035856*
X017555Y035859*
X017546Y035865*
X017538Y035869*
X017530Y035872*
X017521Y035874*
X017514Y035876*
X017508Y035877*
G37*
G36*
X014382Y033553D02*
X014357D01*
X014344*
X014332Y033552*
X014320Y033551*
X014310Y033550*
X014301Y033549*
X014292Y033548*
X014283Y033547*
X014276Y033546*
X014270Y033544*
X014265Y033543*
X014260Y033542*
X014257Y033541*
X014255*
X014253Y033540*
X014237Y033534*
X014225Y033529*
X014214Y033523*
X014205Y033518*
X014199Y033514*
X014194Y033509*
X014192Y033507*
X014191Y033506*
X014185Y033498*
X014179Y033489*
X014174Y033480*
X014170Y033472*
X014167Y033465*
X014165Y033460*
Y033455*
X014164*
Y033454*
X014163Y033449*
X014162Y033444*
X014160Y033432*
Y033419*
X014159Y033405*
X014158Y033394*
Y033389*
Y033385*
Y033380*
Y033378*
Y033376*
Y033279*
X014582*
Y033337*
Y033351*
Y033364*
Y033376*
Y033387*
X014581Y033396*
X014580Y033405*
Y033413*
Y033419*
X014579Y033426*
X014578Y033430*
X014577Y033435*
Y033437*
Y033440*
X014576Y033441*
Y033443*
X014573Y033456*
X014568Y033468*
X014563Y033478*
X014558Y033487*
X014553Y033494*
X014549Y033499*
X014546Y033502*
Y033503*
X014536Y033512*
X014527Y033519*
X014516Y033525*
X014507Y033530*
X014498Y033534*
X014490Y033538*
X014488Y033539*
X014486*
X014484Y033540*
X014476Y033542*
X014468Y033544*
X014449Y033548*
X014430Y033550*
X014412Y033552*
X014403*
X014396Y033553*
X014389*
X014382*
G37*
G36*
X014497Y034800D02*
X014491D01*
X014481Y034799*
X014471Y034798*
X014463Y034795*
X014456Y034792*
X014450Y034789*
X014446Y034786*
X014442Y034785*
X014441Y034784*
X014434Y034779*
X014428Y034772*
X014422Y034765*
X014417Y034759*
X014414Y034753*
X014412Y034748*
X014410Y034746*
X014409Y034744*
X014408Y034739*
X014406Y034732*
X014405Y034725*
X014404Y034717*
X014402Y034700*
X014401Y034684*
X014400Y034668*
Y034661*
Y034655*
Y034649*
Y034646*
Y034643*
Y034642*
Y034571*
X014582*
Y034634*
Y034646*
Y034658*
Y034668*
Y034677*
X014581Y034686*
Y034693*
X014580Y034700*
Y034707*
Y034711*
X014579Y034716*
Y034719*
X014578Y034722*
X014577Y034725*
Y034727*
X014575Y034738*
X014570Y034748*
X014566Y034757*
X014561Y034764*
X014557Y034770*
X014552Y034775*
X014550Y034778*
X014549Y034779*
X014540Y034786*
X014530Y034791*
X014521Y034795*
X014512Y034797*
X014504Y034798*
X014497Y034800*
G37*
G36*
X014508Y034187D02*
X014502D01*
X014492Y034186*
X014482Y034185*
X014474Y034183*
X014467Y034181*
X014462Y034178*
X014457Y034176*
X014455Y034174*
X014454*
X014447Y034168*
X014441Y034163*
X014437Y034156*
X014433Y034150*
X014430Y034145*
X014428Y034141*
Y034138*
X014427Y034137*
X014425Y034132*
X014424Y034125*
X014423Y034117*
Y034109*
X014421Y034090*
X014420Y034070*
Y034061*
Y034052*
X014419Y034043*
Y034036*
Y034030*
Y034025*
Y034022*
Y034021*
Y033925*
X014582*
Y034026*
Y034040*
Y034053*
Y034064*
Y034074*
Y034083*
Y034090*
X014581Y034097*
Y034103*
Y034108*
X014580Y034111*
Y034114*
Y034117*
Y034120*
X014577Y034131*
X014573Y034142*
X014570Y034150*
X014565Y034157*
X014561Y034163*
X014558Y034166*
X014555Y034169*
X014546Y034175*
X014538Y034179*
X014530Y034183*
X014521Y034185*
X014514Y034186*
X014508Y034187*
G37*
G36*
X013508Y034387D02*
X013502D01*
X013492Y034386*
X013482Y034385*
X013474Y034383*
X013467Y034381*
X013462Y034378*
X013457Y034376*
X013455Y034374*
X013454*
X013447Y034368*
X013441Y034363*
X013437Y034356*
X013433Y034350*
X013430Y034345*
X013428Y034341*
Y034338*
X013427Y034337*
X013425Y034332*
X013424Y034325*
X013423Y034317*
Y034309*
X013421Y034290*
X013420Y034270*
Y034261*
Y034252*
X013419Y034243*
Y034236*
Y034230*
Y034225*
Y034222*
Y034221*
Y034125*
X013582*
Y034226*
Y034240*
Y034253*
Y034264*
Y034274*
Y034283*
Y034290*
X013581Y034297*
Y034303*
Y034308*
X013580Y034311*
Y034314*
Y034317*
Y034320*
X013577Y034331*
X013573Y034342*
X013570Y034350*
X013565Y034357*
X013561Y034363*
X013558Y034366*
X013555Y034369*
X013546Y034375*
X013538Y034379*
X013530Y034383*
X013521Y034385*
X013514Y034386*
X013508Y034387*
G37*
G36*
X013382Y033753D02*
X013357D01*
X013344*
X013332Y033752*
X013320Y033751*
X013310Y033750*
X013301Y033749*
X013292Y033748*
X013283Y033747*
X013276Y033746*
X013270Y033744*
X013265Y033743*
X013260Y033742*
X013257Y033741*
X013255*
X013253Y033740*
X013237Y033734*
X013225Y033729*
X013214Y033723*
X013205Y033718*
X013199Y033714*
X013194Y033709*
X013192Y033707*
X013191Y033706*
X013185Y033698*
X013179Y033689*
X013174Y033680*
X013170Y033672*
X013167Y033665*
X013165Y033660*
Y033655*
X013164*
Y033654*
X013163Y033649*
X013162Y033644*
X013160Y033632*
Y033619*
X013159Y033605*
X013158Y033594*
Y033589*
Y033585*
Y033580*
Y033578*
Y033576*
Y033479*
X013582*
Y033537*
Y033551*
Y033564*
Y033576*
Y033587*
X013581Y033596*
X013580Y033605*
Y033613*
Y033619*
X013579Y033626*
X013578Y033630*
X013577Y033635*
Y033637*
Y033640*
X013576Y033641*
Y033643*
X013573Y033656*
X013568Y033668*
X013563Y033678*
X013558Y033687*
X013553Y033694*
X013549Y033699*
X013546Y033702*
Y033703*
X013536Y033712*
X013527Y033719*
X013516Y033725*
X013507Y033730*
X013498Y033734*
X013490Y033738*
X013488Y033739*
X013486*
X013484Y033740*
X013476Y033742*
X013468Y033744*
X013449Y033748*
X013430Y033750*
X013412Y033752*
X013403*
X013396Y033753*
X013389*
X013382*
G37*
G36*
X013497Y035000D02*
X013491D01*
X013481Y034999*
X013471Y034998*
X013463Y034995*
X013456Y034992*
X013450Y034989*
X013446Y034986*
X013442Y034985*
X013441Y034984*
X013434Y034979*
X013428Y034972*
X013422Y034965*
X013417Y034959*
X013414Y034953*
X013412Y034948*
X013410Y034946*
X013409Y034944*
X013408Y034939*
X013406Y034932*
X013405Y034925*
X013404Y034917*
X013402Y034900*
X013401Y034884*
X013400Y034868*
Y034861*
Y034855*
Y034849*
Y034846*
Y034843*
Y034842*
Y034771*
X013582*
Y034834*
Y034846*
Y034858*
Y034868*
Y034877*
X013581Y034886*
Y034893*
X013580Y034900*
Y034907*
Y034911*
X013579Y034916*
Y034919*
X013578Y034922*
X013577Y034925*
Y034927*
X013575Y034938*
X013570Y034948*
X013566Y034957*
X013561Y034964*
X013557Y034970*
X013552Y034975*
X013550Y034978*
X013549Y034979*
X013540Y034986*
X013530Y034991*
X013521Y034995*
X013512Y034997*
X013504Y034998*
X013497Y035000*
G37*
G36*
X013508Y035878D02*
X013502D01*
X013492*
X013482Y035876*
X013474Y035874*
X013467Y035872*
X013462Y035869*
X013457Y035867*
X013455Y035866*
X013454Y035865*
X013447Y035859*
X013441Y035854*
X013437Y035848*
X013433Y035841*
X013430Y035837*
X013428Y035832*
Y035830*
X013427Y035828*
X013425Y035823*
X013424Y035816*
X013423Y035809*
Y035801*
X013421Y035782*
X013420Y035762*
Y035752*
Y035743*
X013419Y035735*
Y035727*
Y035721*
Y035717*
Y035714*
Y035712*
Y035617*
X013582*
Y035717*
Y035731*
Y035744*
Y035755*
Y035765*
Y035774*
Y035782*
X013581Y035789*
Y035794*
Y035799*
X013580Y035803*
Y035805*
Y035808*
Y035811*
Y035812*
X013577Y035823*
X013573Y035833*
X013570Y035841*
X013565Y035848*
X013561Y035854*
X013558Y035857*
X013555Y035860*
Y035861*
X013546Y035866*
X013538Y035871*
X013530Y035874*
X013521Y035876*
X013514Y035878*
X013508*
G37*
G36*
X015497Y034400D02*
X015491D01*
X015481Y034399*
X015471Y034398*
X015463Y034395*
X015456Y034392*
X015450Y034389*
X015446Y034386*
X015442Y034385*
X015441Y034384*
X015434Y034379*
X015428Y034372*
X015422Y034365*
X015417Y034359*
X015414Y034353*
X015412Y034348*
X015410Y034346*
X015409Y034344*
X015408Y034339*
X015406Y034332*
X015405Y034325*
X015404Y034317*
X015402Y034300*
X015401Y034284*
X015400Y034268*
Y034261*
Y034255*
Y034249*
Y034246*
Y034243*
Y034242*
Y034171*
X015582*
Y034234*
Y034246*
Y034258*
Y034268*
Y034277*
X015581Y034286*
Y034293*
X015580Y034300*
Y034307*
Y034311*
X015579Y034316*
Y034319*
X015578Y034322*
X015577Y034325*
Y034327*
X015575Y034338*
X015570Y034348*
X015566Y034357*
X015561Y034364*
X015557Y034370*
X015552Y034375*
X015550Y034378*
X015549Y034379*
X015540Y034386*
X015530Y034391*
X015521Y034395*
X015512Y034397*
X015504Y034398*
X015497Y034400*
G37*
G36*
X015508Y033787D02*
X015502D01*
X015492Y033786*
X015482Y033785*
X015474Y033783*
X015467Y033781*
X015462Y033778*
X015457Y033776*
X015455Y033774*
X015454*
X015447Y033768*
X015441Y033763*
X015437Y033756*
X015433Y033750*
X015430Y033745*
X015428Y033741*
Y033738*
X015427Y033737*
X015425Y033732*
X015424Y033725*
X015423Y033717*
Y033709*
X015421Y033690*
X015420Y033670*
Y033661*
Y033652*
X015419Y033643*
Y033636*
Y033630*
Y033625*
Y033622*
Y033621*
Y033525*
X015582*
Y033626*
Y033640*
Y033653*
Y033664*
Y033674*
Y033683*
Y033690*
X015581Y033697*
Y033703*
Y033708*
X015580Y033711*
Y033714*
Y033717*
Y033720*
X015577Y033731*
X015573Y033742*
X015570Y033750*
X015565Y033757*
X015561Y033763*
X015558Y033766*
X015555Y033769*
X015546Y033775*
X015538Y033779*
X015530Y033783*
X015521Y033785*
X015514Y033786*
X015508Y033787*
G37*
G36*
X015304Y036420D02*
Y036244D01*
X015541Y036331*
X015304Y036420*
G37*
G36*
X015508Y035824D02*
X015502D01*
X015492*
X015482Y035822*
X015474Y035820*
X015467Y035818*
X015462Y035815*
X015457Y035813*
X015455Y035812*
X015454Y035811*
X015447Y035806*
X015441Y035800*
X015437Y035794*
X015433Y035788*
X015430Y035783*
X015428Y035779*
Y035776*
X015427Y035774*
X015425Y035770*
X015424Y035763*
X015423Y035755*
Y035747*
X015421Y035728*
X015420Y035708*
Y035698*
Y035689*
X015419Y035681*
Y035673*
Y035668*
Y035663*
Y035660*
Y035659*
Y035563*
X015582*
Y035663*
Y035677*
Y035690*
Y035702*
Y035711*
Y035720*
Y035728*
X015581Y035735*
Y035740*
Y035745*
X015580Y035749*
Y035752*
Y035754*
Y035757*
Y035758*
X015577Y035769*
X015573Y035779*
X015570Y035788*
X015565Y035795*
X015561Y035800*
X015558Y035804*
X015555Y035806*
Y035807*
X015546Y035813*
X015538Y035817*
X015530Y035820*
X015521Y035822*
X015514Y035824*
X015508*
G37*
G36*
X015382Y033153D02*
X015357D01*
X015344*
X015332Y033152*
X015320Y033151*
X015310Y033150*
X015301Y033149*
X015292Y033148*
X015283Y033147*
X015276Y033146*
X015270Y033144*
X015265Y033143*
X015260Y033142*
X015257Y033141*
X015255*
X015253Y033140*
X015237Y033134*
X015225Y033129*
X015214Y033123*
X015205Y033118*
X015199Y033114*
X015194Y033109*
X015192Y033107*
X015191Y033106*
X015185Y033098*
X015179Y033089*
X015174Y033080*
X015170Y033072*
X015167Y033065*
X015165Y033060*
Y033055*
X015164*
Y033054*
X015163Y033049*
X015162Y033044*
X015160Y033032*
Y033019*
X015159Y033005*
X015158Y032994*
Y032989*
Y032985*
Y032980*
Y032978*
Y032976*
Y032879*
X015582*
Y032937*
Y032951*
Y032964*
Y032976*
Y032987*
X015581Y032996*
X015580Y033005*
Y033013*
Y033019*
X015579Y033026*
X015578Y033030*
X015577Y033035*
Y033037*
Y033040*
X015576Y033041*
Y033043*
X015573Y033056*
X015568Y033068*
X015563Y033078*
X015558Y033087*
X015553Y033094*
X015549Y033099*
X015546Y033102*
Y033103*
X015536Y033112*
X015527Y033119*
X015516Y033125*
X015507Y033130*
X015498Y033134*
X015490Y033138*
X015488Y033139*
X015486*
X015484Y033140*
X015476Y033142*
X015468Y033144*
X015449Y033148*
X015430Y033150*
X015412Y033152*
X015403*
X015396Y033153*
X015389*
X015382*
G37*
G36*
X014508Y035678D02*
X014502D01*
X014492*
X014482Y035676*
X014474Y035674*
X014467Y035672*
X014462Y035669*
X014457Y035667*
X014455Y035666*
X014454Y035665*
X014447Y035659*
X014441Y035654*
X014437Y035648*
X014433Y035641*
X014430Y035637*
X014428Y035632*
Y035630*
X014427Y035628*
X014425Y035623*
X014424Y035616*
X014423Y035609*
Y035601*
X014421Y035582*
X014420Y035562*
Y035552*
Y035543*
X014419Y035535*
Y035527*
Y035521*
Y035517*
Y035514*
Y035512*
Y035417*
X014582*
Y035517*
Y035531*
Y035544*
Y035555*
Y035565*
Y035574*
Y035582*
X014581Y035589*
Y035594*
Y035599*
X014580Y035603*
Y035605*
Y035608*
Y035611*
Y035612*
X014577Y035623*
X014573Y035633*
X014570Y035641*
X014565Y035648*
X014561Y035654*
X014558Y035657*
X014555Y035660*
Y035661*
X014546Y035666*
X014538Y035671*
X014530Y035674*
X014521Y035676*
X014514Y035678*
X014508*
G37*
G36*
X020508Y035623D02*
X020502D01*
X020492Y035622*
X020482Y035621*
X020474Y035619*
X020467Y035617*
X020462Y035614*
X020457Y035612*
X020455Y035610*
X020454*
X020447Y035604*
X020441Y035598*
X020437Y035592*
X020433Y035586*
X020430Y035581*
X020428Y035577*
Y035574*
X020427Y035573*
X020425Y035568*
X020424Y035561*
X020423Y035553*
Y035545*
X020421Y035526*
X020420Y035506*
Y035496*
Y035487*
X020419Y035479*
Y035471*
Y035466*
Y035461*
Y035458*
Y035457*
Y035361*
X020582*
Y035462*
Y035476*
Y035489*
Y035500*
Y035510*
Y035519*
Y035526*
X020581Y035533*
Y035539*
Y035544*
X020580Y035547*
Y035550*
Y035553*
Y035555*
Y035556*
X020577Y035567*
X020573Y035578*
X020570Y035586*
X020565Y035593*
X020561Y035598*
X020558Y035602*
X020555Y035605*
X020546Y035611*
X020538Y035615*
X020530Y035619*
X020521Y035621*
X020514Y035622*
X020508Y035623*
G37*
G36*
X020304Y036218D02*
Y036043D01*
X020541Y036129*
X020304Y036218*
G37*
G36*
X021497Y034407D02*
X021491D01*
X021481*
X021471Y034405*
X021463Y034403*
X021456Y034400*
X021450Y034397*
X021446Y034394*
X021442Y034393*
X021441Y034392*
X021434Y034387*
X021428Y034380*
X021422Y034373*
X021417Y034366*
X021414Y034361*
X021412Y034356*
X021410Y034353*
X021409Y034352*
X021408Y034346*
X021406Y034340*
X021405Y034333*
X021404Y034325*
X021402Y034308*
X021401Y034292*
X021400Y034276*
Y034269*
Y034262*
Y034257*
Y034253*
Y034251*
Y034250*
Y034179*
X021582*
Y034242*
Y034254*
Y034266*
Y034276*
Y034285*
X021581Y034294*
Y034301*
X021580Y034308*
Y034314*
Y034319*
X021579Y034323*
Y034327*
X021578Y034330*
X021577Y034333*
Y034335*
X021575Y034346*
X021570Y034356*
X021566Y034365*
X021561Y034372*
X021557Y034378*
X021552Y034383*
X021550Y034386*
X021549Y034387*
X021540Y034394*
X021530Y034398*
X021521Y034403*
X021512Y034405*
X021504Y034406*
X021497Y034407*
G37*
G36*
X022497Y034207D02*
X022491D01*
X022481*
X022471Y034205*
X022463Y034203*
X022456Y034200*
X022450Y034197*
X022446Y034194*
X022442Y034193*
X022441Y034192*
X022434Y034187*
X022428Y034180*
X022422Y034173*
X022417Y034166*
X022414Y034161*
X022412Y034156*
X022410Y034153*
X022409Y034152*
X022408Y034146*
X022406Y034140*
X022405Y034133*
X022404Y034125*
X022402Y034108*
X022401Y034092*
X022400Y034076*
Y034069*
Y034062*
Y034057*
Y034053*
Y034051*
Y034050*
Y033979*
X022582*
Y034042*
Y034054*
Y034066*
Y034076*
Y034085*
X022581Y034094*
Y034101*
X022580Y034108*
Y034114*
Y034119*
X022579Y034123*
Y034127*
X022578Y034130*
X022577Y034133*
Y034135*
X022575Y034146*
X022571Y034156*
X022566Y034165*
X022561Y034172*
X022557Y034178*
X022552Y034183*
X022550Y034186*
X022549Y034187*
X022540Y034194*
X022530Y034198*
X022521Y034203*
X022512Y034205*
X022504Y034206*
X022497Y034207*
G37*
G36*
X021304Y034987D02*
Y034811D01*
X021541Y034898*
X021304Y034987*
G37*
G36*
X022304Y034787D02*
Y034611D01*
X022541Y034698*
X022304Y034787*
G37*
G36*
X022382Y037534D02*
X022357D01*
X022344Y037533*
X022332Y037532*
X022320*
X022310Y037531*
X022301Y037530*
X022292Y037528*
X022283*
X022276Y037526*
X022270Y037525*
X022265Y037523*
X022260*
X022257Y037522*
X022255Y037521*
X022253*
X022237Y037515*
X022225Y037509*
X022214Y037504*
X022205Y037498*
X022199Y037494*
X022194Y037490*
X022192Y037487*
X022191*
X022185Y037478*
X022179Y037470*
X022174Y037461*
X022170Y037453*
X022167Y037446*
X022165Y037440*
Y037436*
X022164Y037435*
X022163Y037430*
X022162Y037424*
X022160Y037412*
Y037399*
X022159Y037386*
X022158Y037375*
Y037369*
Y037365*
Y037361*
Y037358*
Y037357*
Y037356*
Y037260*
X022582*
Y037317*
Y037332*
Y037344*
Y037356*
Y037367*
X022581Y037377*
X022580Y037386*
Y037394*
Y037400*
X022579Y037406*
X022578Y037411*
X022577Y037415*
Y037418*
Y037421*
X022576Y037422*
Y037423*
X022573Y037437*
X022568Y037448*
X022563Y037459*
X022558Y037467*
X022553Y037474*
X022549Y037480*
X022546Y037482*
Y037484*
X022536Y037492*
X022527Y037500*
X022516Y037506*
X022507Y037511*
X022498Y037515*
X022490Y037518*
X022488Y037519*
X022486Y037520*
X022484Y037521*
X022476Y037523*
X022468Y037525*
X022449Y037528*
X022430Y037530*
X022412Y037532*
X022403*
X022396Y037533*
X022389*
X022382Y037534*
G37*
G36*
X021382Y037734D02*
X021357D01*
X021344Y037733*
X021332Y037732*
X021320*
X021310Y037731*
X021301Y037730*
X021292Y037728*
X021283*
X021276Y037726*
X021270Y037725*
X021265Y037723*
X021260*
X021257Y037722*
X021255Y037721*
X021253*
X021237Y037715*
X021225Y037709*
X021214Y037704*
X021205Y037698*
X021199Y037694*
X021194Y037690*
X021192Y037687*
X021191*
X021185Y037678*
X021179Y037670*
X021174Y037661*
X021170Y037653*
X021167Y037646*
X021165Y037640*
Y037636*
X021164Y037635*
X021163Y037630*
X021162Y037624*
X021160Y037612*
Y037599*
X021159Y037586*
X021158Y037575*
Y037569*
Y037565*
Y037561*
Y037558*
Y037557*
Y037556*
Y037460*
X021582*
Y037517*
Y037532*
Y037544*
Y037556*
Y037567*
X021581Y037577*
X021580Y037586*
Y037594*
Y037600*
X021579Y037606*
X021578Y037611*
X021577Y037615*
Y037618*
Y037621*
X021576Y037622*
Y037623*
X021573Y037637*
X021568Y037648*
X021563Y037659*
X021558Y037667*
X021553Y037674*
X021549Y037680*
X021546Y037682*
Y037684*
X021536Y037692*
X021527Y037700*
X021516Y037706*
X021507Y037711*
X021498Y037715*
X021490Y037718*
X021488Y037719*
X021486Y037720*
X021484Y037721*
X021476Y037723*
X021468Y037725*
X021449Y037728*
X021430Y037730*
X021412Y037732*
X021403*
X021396Y037733*
X021389*
X021382Y037734*
G37*
G36*
X019508Y035823D02*
X019502D01*
X019492Y035822*
X019482Y035821*
X019474Y035819*
X019467Y035817*
X019462Y035814*
X019457Y035812*
X019455Y035810*
X019454*
X019447Y035804*
X019441Y035798*
X019437Y035792*
X019433Y035786*
X019430Y035781*
X019428Y035777*
Y035774*
X019427Y035773*
X019425Y035768*
X019424Y035761*
X019423Y035753*
Y035745*
X019421Y035726*
X019420Y035706*
Y035696*
Y035687*
X019419Y035679*
Y035671*
Y035666*
Y035661*
Y035658*
Y035657*
Y035561*
X019582*
Y035662*
Y035676*
Y035689*
Y035700*
Y035710*
Y035719*
Y035726*
X019581Y035733*
Y035739*
Y035744*
X019580Y035747*
Y035750*
Y035753*
Y035755*
Y035756*
X019577Y035767*
X019573Y035778*
X019570Y035786*
X019565Y035793*
X019561Y035798*
X019558Y035802*
X019555Y035805*
X019546Y035811*
X019538Y035815*
X019530Y035819*
X019521Y035821*
X019514Y035822*
X019508Y035823*
G37*
G36*
X019304Y036418D02*
Y036243D01*
X019541Y036329*
X019304Y036418*
G37*
M02*