%FSDAX24Y24*%
%MOIN*%
%SFA1B1*%

%IPPOS*%
%ADD10R,0.063000X0.055100*%
%ADD11R,0.031500X0.031500*%
%ADD12R,0.118100X0.236200*%
%ADD13R,0.059100X0.023600*%
%ADD14R,0.059100X0.031500*%
%ADD15R,0.047200X0.055100*%
%ADD16O,0.074800X0.023600*%
%ADD17O,0.068900X0.021700*%
%ADD18O,0.021700X0.068900*%
%ADD19R,0.055100X0.045300*%
%ADD20R,0.045300X0.053200*%
%ADD21R,0.110200X0.094500*%
%ADD22R,0.051200X0.066900*%
%ADD23R,0.045300X0.055100*%
%ADD24R,0.216500X0.078700*%
%ADD25R,0.055100X0.047200*%
%ADD26R,0.055900X0.044500*%
%ADD27R,0.044500X0.055900*%
%ADD28R,0.035400X0.039400*%
%ADD29R,0.126000X0.059100*%
%ADD30C,0.040000*%
%LNmotherboard-1*%
%LPD*%
G54D10*
X011100Y028972D03*
X014250D03*
Y027200D03*
X011100D03*
G54D11*
X026890Y044040D03*
Y043449D03*
X025000Y044050D03*
Y043459D03*
G54D12*
X035422Y040730D03*
X030698D03*
G54D13*
X029902Y029572D03*
X028800Y029769D03*
X029902Y029966D03*
X028800Y030163D03*
X029902Y030359D03*
X028800Y030556D03*
X038652Y029572D03*
X037550Y029769D03*
X038652Y029966D03*
X037550Y030163D03*
X038652Y030359D03*
X037550Y030556D03*
X033300D03*
X034402Y030359D03*
X033300Y030163D03*
X034402Y029966D03*
X033300Y029769D03*
X034402Y029572D03*
X024300Y030556D03*
X025402Y030359D03*
X024300Y030163D03*
X025402Y029966D03*
X024300Y029769D03*
X025402Y029572D03*
X021152D03*
X020050Y029769D03*
X021152Y029966D03*
X020050Y030163D03*
X021152Y030359D03*
X020050Y030556D03*
X026400Y035778D03*
X027502Y035581D03*
X026400Y035384D03*
X027502Y035187D03*
X026400Y034991D03*
X027502Y034794D03*
X023200Y034850D03*
X022098Y035047D03*
X023200Y035244D03*
X022098Y035441D03*
X023200Y035637D03*
X022098Y035834D03*
G54D14*
X028800Y029178D03*
X029902D03*
Y030950D03*
X028800D03*
X037550Y029178D03*
X038652D03*
Y030950D03*
X037550D03*
X033300D03*
X034402D03*
Y029178D03*
X033300D03*
X024300Y030950D03*
X025402D03*
Y029178D03*
X024300D03*
X020050D03*
X021152D03*
Y030950D03*
X020050D03*
X027502Y036172D03*
X026400D03*
Y034400D03*
X027502D03*
X023200Y034456D03*
X022098D03*
Y036228D03*
X023200D03*
G54D15*
X028619Y025100D03*
X027950D03*
X016135Y026800D03*
X015465D03*
X016135Y025700D03*
X015465D03*
X025700Y012400D03*
X026369D03*
X031035Y012450D03*
X030365D03*
X036465Y025150D03*
X037135D03*
X024465Y015350D03*
X025135D03*
X017569Y016250D03*
X016900D03*
X016915Y017350D03*
X017585D03*
X024900Y025100D03*
X025569D03*
X023431D03*
X024100D03*
G54D16*
X037020Y018300D03*
Y018800D03*
X033280D03*
Y018300D03*
Y023800D03*
Y023300D03*
Y022800D03*
Y022300D03*
Y021800D03*
Y021300D03*
Y020800D03*
Y020300D03*
Y019800D03*
Y019300D03*
X037020Y023800D03*
Y023300D03*
Y022800D03*
Y022300D03*
Y021800D03*
Y021300D03*
Y020800D03*
Y020300D03*
Y019800D03*
Y019300D03*
G54D17*
X024226Y022125D03*
Y021810D03*
Y021495D03*
Y021180D03*
Y020865D03*
Y020550D03*
Y020235D03*
Y019920D03*
Y019605D03*
Y019290D03*
Y018975D03*
X028674D03*
Y019290D03*
Y019605D03*
Y019920D03*
Y020235D03*
Y020550D03*
Y020865D03*
Y021180D03*
Y021495D03*
Y021810D03*
Y022125D03*
G54D18*
X024875Y018326D03*
X025190D03*
X025505D03*
X025820D03*
X026135D03*
X026450D03*
X026765D03*
X027080D03*
X027395D03*
X027710D03*
X028025D03*
Y022774D03*
X027710D03*
X027395D03*
X027080D03*
X026765D03*
X026450D03*
X026135D03*
X025820D03*
X025505D03*
X025190D03*
X024875D03*
G54D19*
X026900Y040556D03*
Y041244D03*
X025000Y040561D03*
Y041250D03*
X022500Y043944D03*
Y043256D03*
X016500D03*
Y043944D03*
X018500Y043256D03*
Y043944D03*
X014250Y043256D03*
Y043944D03*
X038450Y020494D03*
Y019806D03*
X020400Y043256D03*
Y043944D03*
G54D20*
X015844Y022500D03*
Y023550D03*
X015156Y022500D03*
Y023550D03*
G54D21*
X011968Y035472D03*
X014370D03*
X011968Y030984D03*
X014370D03*
G54D22*
X016351Y028000D03*
X015249D03*
G54D23*
X016144Y029150D03*
X015456D03*
X016956Y034600D03*
X017644D03*
X017006Y032750D03*
X017694D03*
G54D24*
X026550Y014200D03*
X030290D03*
G54D25*
X021400Y019815D03*
Y020485D03*
X030300Y018100D03*
Y017431D03*
X021500Y022850D03*
Y022181D03*
G54D26*
X021400Y018950D03*
Y018253D03*
X012900Y018252D03*
Y018948D03*
G54D27*
X017598Y018450D03*
X016902D03*
G54D28*
X015144Y024550D03*
X015656D03*
Y021500D03*
X015144D03*
G54D29*
X015450Y018450D03*
Y020104D03*
G54D30*
X035700Y011500D03*
X011500Y014300D03*
Y040800D03*
M02*