%FSDAX24Y24*%
%MOIN*%
%SFA1B1*%

%IPPOS*%
%ADD31C,0.012000*%
%ADD33C,0.066200*%
%ADD34C,0.141000*%
%ADD35C,0.085000*%
%ADD36R,0.085000X0.085000*%
%ADD37R,0.175000X0.175000*%
%ADD38R,0.200000X0.200000*%
%ADD39C,0.075000*%
%ADD40R,0.075000X0.075000*%
%ADD41C,0.035000*%
%ADD42C,0.038000*%
%LNmotherboard-1*%
%LPD*%
G36*
X039400Y044241D02*
Y026215D01*
X039250Y026185*
X039228Y026239*
X039167Y026317*
X039089Y026378*
X039000Y026414*
Y026050*
Y025686*
X039089Y025722*
X039167Y025783*
X039228Y025861*
X039250Y025915*
X039400Y025885*
Y012700*
X038600*
Y011500*
X038500*
Y011400*
X037300*
Y010600*
X036030*
X036008Y010750*
X036010Y010751*
X036151Y010826*
X036273Y010927*
X036374Y011049*
X036449Y011190*
X036495Y011342*
X036511Y011500*
X036495Y011658*
X036449Y011810*
X036374Y011951*
X036273Y012073*
X036151Y012174*
X036010Y012249*
X035858Y012295*
X035700Y012311*
X035542Y012295*
X035390Y012249*
X035249Y012174*
X035127Y012073*
X035026Y011951*
X034951Y011810*
X034905Y011658*
X034889Y011500*
X034905Y011342*
X034951Y011190*
X035026Y011049*
X035127Y010927*
X035249Y010826*
X035390Y010751*
X035392Y010750*
X035370Y010600*
X017134*
X017097Y010750*
X017149Y010778*
X017244Y010856*
X017322Y010951*
X017369Y011038*
X033000*
X033068Y011047*
X033131Y011073*
X033185Y011115*
X034635Y012565*
X034677Y012619*
X034703Y012682*
X034712Y012750*
Y015991*
X038185Y019465*
X038227Y019519*
X038253Y019582*
X038262Y019650*
Y024879*
X038267Y024883*
X038328Y024961*
X038365Y025052*
X038378Y025150*
X038365Y025248*
X038328Y025339*
X038267Y025417*
X038189Y025478*
X038098Y025515*
X038000Y025528*
X037914Y025517*
X037228Y026203*
X037217Y026383*
X037278Y026461*
X037315Y026552*
X037328Y026650*
X037315Y026748*
X037278Y026839*
X037217Y026917*
X037139Y026978*
X037048Y027015*
X036950Y027028*
X036943Y027027*
X036562Y027409*
Y038041*
X037685Y039165*
X037727Y039219*
X037753Y039282*
X037762Y039350*
Y040479*
X037767Y040483*
X037828Y040561*
X037865Y040652*
X037878Y040750*
X037865Y040848*
X037828Y040939*
X037767Y041017*
X037689Y041078*
X037598Y041115*
X037500Y041128*
X037402Y041115*
X037311Y041078*
X037233Y041017*
X037172Y040939*
X037135Y040848*
X037122Y040750*
X037135Y040652*
X037172Y040561*
X037233Y040483*
X037238Y040479*
Y039459*
X036115Y038335*
X036073Y038281*
X036047Y038218*
X036038Y038150*
Y030605*
X035950Y030528*
X035852Y030515*
X035761Y030478*
X035683Y030417*
X035622Y030339*
X035586Y030250*
X035950*
Y030050*
X035586*
X035622Y029961*
X035683Y029883*
X035761Y029822*
X035852Y029785*
X035950Y029772*
X036038Y029695*
Y027589*
X035899Y027532*
X033510Y029920*
X033456Y029962*
X033393Y029988*
X033325Y029997*
X033114*
X030832Y032279*
X030887Y032351*
X030925Y032443*
X030938Y032541*
X030925Y032638*
X030887Y032730*
X030827Y032808*
X030749Y032868*
X030657Y032906*
X030559Y032919*
X030462Y032906*
X030370Y032868*
X030310Y032822*
X025821*
X025817Y032827*
X025739Y032887*
X025648Y032925*
X025550Y032938*
X025452Y032925*
X025361Y032887*
X025283Y032827*
X025271Y032812*
X020421*
X020417Y032817*
X020339Y032878*
X020248Y032915*
X020150Y032928*
X020052Y032915*
X019961Y032878*
X019883Y032817*
X019879Y032812*
X019609*
X019517Y032904*
Y033496*
X019935Y033915*
X020443Y034423*
X020450Y034422*
X020548Y034435*
X020639Y034472*
X020717Y034533*
X020778Y034611*
X020815Y034702*
X020828Y034800*
X020815Y034898*
X020778Y034989*
X020717Y035067*
X020639Y035128*
X020548Y035165*
X020450Y035178*
X020352Y035165*
X020261Y035128*
X020183Y035067*
X020122Y034989*
X020085Y034898*
X020072Y034800*
X020073Y034793*
X019641Y034362*
X018619*
X018212Y034769*
Y035929*
X018217Y035933*
X018221Y035938*
X022000*
X022068Y035947*
X022131Y035973*
X022185Y036015*
X023778Y037607*
X023893Y037561*
X023923Y037540*
X023935Y037452*
X023972Y037361*
X024033Y037283*
X024111Y037222*
X024200Y037186*
Y037550*
X024300*
Y037650*
X024664*
X024628Y037739*
X024567Y037817*
X024489Y037878*
X024398Y037915*
X024310Y037927*
X024289Y037957*
X024243Y038072*
X026135Y039965*
X026177Y040019*
X026203Y040082*
X026212Y040150*
Y041710*
X026228Y041722*
X026291Y041803*
X026330Y041898*
X026343Y042000*
X026330Y042102*
X026291Y042197*
X026228Y042278*
X026147Y042341*
X026052Y042380*
X025950Y042393*
X025848Y042380*
X025753Y042341*
X025672Y042278*
X025660Y042262*
X022109*
X021741Y042630*
X021743Y042650*
X021730Y042752*
X021691Y042847*
X021628Y042928*
X021547Y042991*
X021452Y043030*
X021350Y043043*
X021248Y043030*
X021153Y042991*
X021072Y042928*
X021009Y042847*
X020970Y042752*
X020957Y042650*
X020970Y042548*
X021009Y042453*
X021072Y042372*
X021153Y042309*
X021248Y042270*
X021350Y042257*
X021370Y042259*
X021815Y041815*
X021869Y041773*
X021932Y041747*
X022000Y041738*
X025660*
X025672Y041722*
X025688Y041710*
Y040259*
X021891Y036462*
X019634*
X019599Y036600*
X019600Y036612*
X019678Y036672*
X019741Y036753*
X019780Y036848*
X019793Y036950*
X019791Y036970*
X020759Y037938*
X023000*
X023068Y037947*
X023131Y037973*
X023185Y038015*
X024035Y038865*
X024077Y038919*
X024103Y038982*
X024112Y039050*
Y039160*
X024128Y039172*
X024191Y039253*
X024230Y039348*
X024243Y039450*
X024230Y039552*
X024191Y039647*
X024128Y039728*
X024047Y039791*
X023952Y039830*
X023850Y039843*
X023748Y039830*
X023653Y039791*
X023572Y039728*
X023509Y039647*
X023470Y039552*
X023457Y039450*
X023470Y039348*
X023509Y039253*
X023572Y039172*
X023481Y039052*
X022891Y038462*
X020650*
X020582Y038453*
X020519Y038427*
X020465Y038385*
X019420Y037341*
X019400Y037343*
X019298Y037330*
X019203Y037291*
X019122Y037228*
X019059Y037147*
X019020Y037052*
X019007Y036950*
X019020Y036848*
X019059Y036753*
X019122Y036672*
X019200Y036612*
X019201Y036600*
X019166Y036462*
X018221*
X018217Y036467*
X018139Y036528*
X018048Y036565*
X017950Y036578*
X017852Y036565*
X017761Y036528*
X017683Y036467*
X017622Y036389*
X017585Y036298*
X017572Y036200*
X017585Y036102*
X017622Y036011*
X017683Y035933*
X017688Y035929*
Y034660*
X017697Y034592*
X017723Y034529*
X017765Y034475*
X018325Y033915*
X018379Y033873*
X018442Y033847*
X018510Y033838*
X018917*
X018947Y033810*
X019008Y033688*
X019002Y033673*
X018993Y033605*
Y032795*
X019002Y032727*
X019028Y032664*
X019070Y032610*
X019315Y032365*
X019369Y032323*
X019432Y032297*
X019500Y032288*
X019879*
X019883Y032283*
X019961Y032222*
X020052Y032185*
X020150Y032172*
X020248Y032185*
X020339Y032222*
X020417Y032283*
X020421Y032288*
X025288*
X025361Y032232*
X025452Y032194*
X025550Y032181*
X025648Y032194*
X025739Y032232*
X025817Y032292*
X025821Y032297*
X030205*
X030297Y032181*
X030306Y032113*
X030332Y032049*
X030374Y031995*
X032223Y030146*
X032177Y029988*
X032114Y029962*
X032060Y029920*
X028707Y026567*
X028700Y026568*
X028602Y026555*
X028511Y026518*
X028433Y026457*
X028372Y026379*
X028335Y026288*
X028322Y026190*
X028335Y026092*
X028372Y026001*
X028433Y025923*
X028511Y025862*
X028602Y025825*
X028700Y025812*
X028798Y025825*
X028889Y025862*
X028967Y025923*
X029028Y026001*
X029065Y026092*
X029078Y026190*
X029077Y026197*
X032354Y029473*
X033216*
X037634Y025055*
X037635Y025052*
X037672Y024961*
X037733Y024883*
X037738Y024879*
Y019759*
X034450Y016471*
X033395Y017525*
X033341Y017567*
X033308Y017581*
X033287Y017607*
X033209Y017668*
X033118Y017705*
X033020Y017718*
X032922Y017705*
X032831Y017668*
X032692Y017750*
Y018559*
X032697Y018563*
X032758Y018641*
X032795Y018732*
X032808Y018830*
X032795Y018928*
X032758Y019019*
X032697Y019097*
X032619Y019158*
X032528Y019195*
X032430Y019208*
X032412Y019206*
X032352Y019250*
X032347Y019286*
X032448Y019435*
X032539Y019472*
X032617Y019533*
X032678Y019611*
X032715Y019702*
X032728Y019800*
X032715Y019898*
X032678Y019989*
X032617Y020067*
X032539Y020128*
X032448Y020165*
X032350Y020178*
X032282Y020169*
X032168Y020269*
X032173Y020310*
X032252Y020435*
X032350Y020422*
X032448Y020435*
X032539Y020472*
X032617Y020533*
X032678Y020611*
X032715Y020702*
X032728Y020800*
X032715Y020898*
X032678Y020989*
X032617Y021067*
X032539Y021128*
X032448Y021165*
X032350Y021178*
X032337Y021177*
X032214Y021290*
X032350Y021383*
X032361Y021384*
X032450Y021372*
X032548Y021385*
X032639Y021422*
X032717Y021483*
X032778Y021561*
X032815Y021652*
X032828Y021750*
X032815Y021848*
X032778Y021939*
X032717Y022017*
X032639Y022078*
X032548Y022115*
X032450Y022128*
X032352Y022115*
X032299Y022093*
X032229Y022129*
X032207Y022148*
X032170Y022197*
X032178Y022260*
X032167Y022343*
X032239Y022372*
X032317Y022433*
X032378Y022511*
X032415Y022602*
X032428Y022700*
Y022702*
X032466Y022820*
X032553Y022857*
X032573Y022860*
X032664Y022897*
X032742Y022958*
X032803Y023036*
X032840Y023127*
X032853Y023225*
X032840Y023323*
X032803Y023414*
X032742Y023492*
X032664Y023553*
X032573Y023590*
X032475Y023603*
X032468Y023602*
X030827Y025243*
X030828Y025250*
X030815Y025348*
X030778Y025439*
X030717Y025517*
X030639Y025578*
X030548Y025615*
X030450Y025628*
X030352Y025615*
X030261Y025578*
X030183Y025517*
X030122Y025439*
X030085Y025348*
X030084Y025342*
X030015Y025240*
X029924Y025225*
X029900Y025228*
X029802Y025215*
X029711Y025178*
X029633Y025117*
X029572Y025039*
X029535Y024948*
X029522Y024850*
X029523Y024840*
X029524Y024745*
X029407Y024668*
X029394Y024662*
X029342Y024623*
X029300Y024628*
X029202Y024615*
X029111Y024578*
X029033Y024517*
X028972Y024439*
X028935Y024348*
X028922Y024250*
X028935Y024152*
X028972Y024061*
X029033Y023983*
X029111Y023922*
X029202Y023885*
X029300Y023872*
X029398Y023885*
X029489Y023922*
X029567Y023983*
X029604Y023985*
X030677Y022912*
X030615Y022762*
X027509*
X026612Y023659*
Y027905*
X026762Y027967*
X027223Y027507*
X027222Y027500*
X027235Y027402*
X027272Y027311*
X027333Y027233*
X027411Y027172*
X027459Y027153*
X027519Y027017*
X027522Y026993*
X027519Y026981*
X027486Y026900*
X028214*
X028178Y026989*
X028117Y027067*
X028039Y027128*
X027991Y027147*
X027931Y027283*
X027928Y027307*
X027931Y027319*
X027965Y027402*
X027978Y027500*
X027965Y027598*
X027928Y027689*
X027867Y027767*
X027789Y027828*
X027698Y027865*
X027600Y027878*
X027593Y027877*
X027077Y028393*
X027078Y028400*
X027065Y028498*
X027028Y028589*
X026967Y028667*
X026889Y028728*
X026798Y028765*
X026700Y028778*
X026612Y028855*
Y029029*
X026617Y029033*
X026678Y029111*
X026715Y029202*
X026728Y029300*
X026715Y029398*
X026678Y029489*
X026617Y029567*
X026539Y029628*
X026448Y029665*
X026350Y029678*
X026252Y029665*
X026161Y029628*
X026083Y029567*
X026022Y029489*
X025985Y029398*
X025972Y029300*
X025985Y029202*
X026022Y029111*
X026083Y029033*
X026088Y029029*
Y023550*
X026097Y023482*
X026123Y023419*
X026165Y023365*
X026878Y022651*
X026821Y022512*
X024959*
X024033Y023438*
X024095Y023588*
X024100*
X024168Y023597*
X024231Y023623*
X024285Y023665*
X024543Y023923*
X024550Y023922*
X024648Y023935*
X024739Y023972*
X024817Y024033*
X024878Y024111*
X024914Y024200*
X024550*
Y024300*
X024450*
Y024664*
X024361Y024628*
X024283Y024567*
X024222Y024489*
X024185Y024398*
X024172Y024300*
X024173Y024293*
X024006Y024127*
X023939Y024178*
X023850Y024214*
Y023850*
X023650*
Y024214*
X023561Y024178*
X023483Y024117*
X023361Y024110*
X021362Y026109*
Y026429*
X021367Y026433*
X021428Y026511*
X021465Y026602*
X021478Y026700*
X021465Y026798*
X021428Y026889*
X021367Y026967*
X021289Y027028*
X021198Y027065*
X021100Y027078*
X021002Y027065*
X020911Y027028*
X020833Y026967*
X020806*
X020767Y027017*
X020689Y027078*
X020598Y027115*
X020500Y027128*
X020402Y027115*
X020311Y027078*
X020233Y027017*
X020167*
X020089Y027078*
X019998Y027115*
X019900Y027128*
X019802Y027115*
X019711Y027078*
X019633Y027017*
X019572Y026939*
X019549Y026884*
X019442Y026842*
X019382Y026839*
X017612Y028609*
Y032250*
X017603Y032318*
X017577Y032381*
X017535Y032435*
X017212Y032759*
Y036279*
X017217Y036283*
X017278Y036361*
X017315Y036452*
X017328Y036550*
X017315Y036648*
X017278Y036739*
X017217Y036817*
X017139Y036878*
X017048Y036915*
X016950Y036928*
X016852Y036915*
X016761Y036878*
X016612Y036953*
Y037241*
X018535Y039165*
X018577Y039219*
X018603Y039282*
X018612Y039350*
Y039386*
X018640Y039398*
X018760Y039490*
X018775Y039509*
X018925*
X018940Y039490*
X019060Y039398*
X019200Y039340*
X019250Y039333*
Y039900*
Y040467*
X019200Y040460*
X019060Y040402*
X018940Y040310*
X018925Y040291*
X018775*
X018760Y040310*
X018640Y040402*
X018500Y040460*
X018350Y040480*
X018200Y040460*
X018060Y040402*
X017940Y040310*
X017925Y040291*
X017775*
X017760Y040310*
X017640Y040402*
X017500Y040460*
X017450Y040467*
Y039900*
Y039333*
X017500Y039340*
X017640Y039398*
X017760Y039490*
X017775Y039509*
X017925*
X017940Y039490*
X017951Y039481*
X017961Y039332*
X016255Y037626*
X016248Y037621*
X016052*
X016045Y037626*
X014612Y039059*
Y039386*
X014640Y039398*
X014760Y039490*
X014775Y039509*
X014925*
X014940Y039490*
X015060Y039398*
X015200Y039340*
X015250Y039333*
Y039900*
Y040467*
X015200Y040460*
X015060Y040402*
X014940Y040310*
X014925Y040291*
X014775*
X014760Y040310*
X014640Y040402*
X014500Y040460*
X014350Y040480*
X014200Y040460*
X014060Y040402*
X013940Y040310*
X013925Y040291*
X013775*
X013760Y040310*
X013640Y040402*
X013500Y040460*
X013450Y040467*
Y039900*
Y039333*
X013500Y039340*
X013640Y039398*
X013760Y039490*
X013775Y039509*
X013925*
X013940Y039490*
X014060Y039398*
X014088Y039386*
Y038950*
X014097Y038882*
X014123Y038819*
X014165Y038765*
X015688Y037241*
Y028450*
X015697Y028382*
X015723Y028319*
X015765Y028265*
X018105Y025924*
X018052Y025765*
X017961Y025728*
X017883Y025667*
X017822Y025589*
X017785Y025498*
X017772Y025400*
X017785Y025302*
X017822Y025211*
X017883Y025133*
X017961Y025072*
X018052Y025035*
X018150Y025022*
X018199Y025028*
X018304Y024922*
X018289Y024773*
X018283Y024767*
X018222Y024689*
X018185Y024598*
X018172Y024500*
X018173Y024493*
X017265Y023585*
X017223Y023531*
X017197Y023468*
X017188Y023400*
Y021257*
X017140Y021222*
X017038Y021190*
X016989Y021228*
X016900Y021264*
Y020900*
Y020536*
X016989Y020572*
X017038Y020610*
X017140Y020578*
X017188Y020543*
Y019200*
X017197Y019132*
X017223Y019069*
X017265Y019015*
X020265Y016015*
X020319Y015973*
X020382Y015947*
X020450Y015938*
X022929*
X022933Y015933*
X023011Y015872*
X023102Y015835*
X023200Y015822*
X023298Y015835*
X023389Y015872*
X023467Y015933*
X023528Y016011*
X023565Y016102*
X023578Y016200*
X023565Y016298*
X023528Y016389*
X023467Y016467*
X023389Y016528*
X023298Y016565*
X023200Y016578*
X023102Y016565*
X023011Y016528*
X022933Y016467*
X022929Y016462*
X020559*
X018210Y018810*
X018310Y018923*
X018311Y018922*
X018402Y018885*
X018500Y018872*
X018598Y018885*
X018689Y018922*
X018767Y018983*
X018828Y019061*
X018865Y019152*
X018878Y019250*
X018865Y019348*
X018828Y019439*
X018767Y019517*
X018762Y019521*
Y020211*
X020363Y021813*
X020370Y021812*
X020468Y021825*
X020559Y021862*
X020637Y021923*
X020698Y022001*
X020735Y022092*
X020748Y022190*
X020735Y022288*
X020698Y022379*
X020819Y022460*
X023728Y019551*
X023671Y019412*
X022718*
X022664Y019471*
X022658Y019509*
X022686Y019659*
X022717Y019683*
X022778Y019761*
X022815Y019852*
X022828Y019950*
X022815Y020048*
X022778Y020139*
X022717Y020217*
X022639Y020278*
X022548Y020315*
X022450Y020328*
X022412Y020323*
X022388Y020333*
X022320Y020342*
X019801*
X019797Y020347*
X019719Y020408*
X019628Y020445*
X019530Y020458*
X019432Y020445*
X019341Y020408*
X019263Y020347*
X019202Y020269*
X019165Y020178*
X019152Y020080*
X019165Y019982*
X019202Y019891*
X019263Y019813*
X019341Y019752*
X019432Y019715*
X019530Y019702*
X019628Y019715*
X019719Y019752*
X019797Y019813*
X019801Y019818*
X022099*
X022122Y019761*
X022183Y019683*
X022218Y019656*
X022219Y019649*
X022204Y019508*
X022195Y019492*
X022161Y019478*
X022083Y019417*
X022022Y019339*
X021985Y019248*
X021972Y019150*
X021985Y019052*
X022022Y018961*
X022083Y018883*
X022161Y018822*
X022252Y018785*
X022350Y018772*
X022448Y018785*
X022539Y018822*
X022617Y018883*
X022621Y018888*
X026341*
X026488Y018741*
Y017400*
X026497Y017332*
X026523Y017269*
X026565Y017215*
X028365Y015415*
X028419Y015373*
X028482Y015347*
X028550Y015338*
X030891*
X031965Y014265*
X032019Y014223*
X032082Y014197*
X032150Y014188*
X032329*
X032333Y014183*
X032411Y014122*
X032502Y014085*
X032600Y014072*
X032698Y014085*
X032789Y014122*
X032867Y014183*
X032928Y014261*
X032965Y014352*
X032978Y014450*
X032965Y014548*
X032928Y014639*
X032867Y014717*
X032789Y014778*
X032698Y014815*
X032600Y014828*
X032502Y014815*
X032411Y014778*
X032333Y014717*
X032201Y014770*
X031185Y015785*
X031131Y015827*
X031068Y015853*
X031000Y015862*
X028659*
X027012Y017509*
Y018850*
X027004Y018913*
X027012Y018923*
X027133Y018996*
X028673Y017457*
X028672Y017450*
X028685Y017352*
X028722Y017261*
X028783Y017183*
X028861Y017122*
X028952Y017085*
X029050Y017072*
X029148Y017085*
X029239Y017122*
X029317Y017183*
X029378Y017261*
X029415Y017352*
X029428Y017450*
X029415Y017548*
X029378Y017639*
X029317Y017717*
X029239Y017778*
X029148Y017815*
X029050Y017828*
X029043Y017827*
X028583Y018288*
X028645Y018438*
X030550*
X030618Y018447*
X030681Y018473*
X030735Y018515*
X030826Y018605*
X030985Y018552*
X031022Y018461*
X031083Y018383*
X031161Y018322*
X031250Y018286*
Y018650*
X031450*
Y018286*
X031539Y018322*
X031588Y018360*
X031690Y018328*
X031738Y018293*
Y017577*
X031588Y017503*
X031569Y017518*
X031480Y017554*
Y017190*
Y016826*
X031569Y016862*
X031588Y016877*
X031738Y016803*
Y016300*
X031747Y016232*
X031773Y016169*
X031815Y016115*
X032785Y015145*
X032839Y015103*
X032902Y015077*
X032970Y015068*
X033179*
X033183Y015063*
X033261Y015002*
X033352Y014965*
X033450Y014952*
X033548Y014965*
X033639Y015002*
X033717Y015063*
X033778Y015141*
X033815Y015232*
X033828Y015330*
X033815Y015428*
X033778Y015519*
X033717Y015597*
X033639Y015658*
X033578Y015761*
X033615Y015852*
X033628Y015950*
X033615Y016048*
X033578Y016139*
X033517Y016217*
X033439Y016278*
X033348Y016315*
X033250Y016328*
X033155Y016316*
X032692Y016779*
Y016930*
X032831Y017012*
X032922Y016975*
X033020Y016962*
X033118Y016975*
X033179Y017000*
X034188Y015991*
Y012859*
X032891Y011562*
X017515*
X017425Y011675*
Y012738*
X017940*
X017983Y012683*
X018061Y012622*
X018152Y012585*
X018250Y012572*
X018348Y012585*
X018439Y012622*
X018517Y012683*
X018578Y012761*
X018615Y012852*
X018628Y012950*
X018615Y013048*
X018578Y013139*
X018517Y013217*
X018439Y013278*
X018348Y013315*
X018250Y013328*
X018152Y013315*
X018061Y013278*
X018041Y013262*
X015100*
X015037Y013254*
X015027Y013262*
X014954Y013383*
X015209Y013638*
X017529*
X017533Y013633*
X017611Y013572*
X017702Y013535*
X017800Y013522*
X017898Y013535*
X017989Y013572*
X018067Y013633*
X018128Y013711*
X018165Y013802*
X018178Y013900*
X018165Y013998*
X018128Y014089*
X018067Y014167*
X017989Y014228*
X017898Y014265*
X017800Y014278*
X017702Y014265*
X017611Y014228*
X017533Y014167*
X017529Y014162*
X015100*
X015032Y014153*
X014969Y014127*
X014915Y014085*
X013915Y013085*
X013873Y013031*
X013847Y012968*
X013838Y012900*
Y010790*
X013843Y010750*
X013806Y010678*
X013736Y010600*
X012700*
Y011400*
X011500*
Y011500*
X011400*
Y012700*
X010709*
X010603Y012806*
X010605Y013953*
X010751Y013990*
X010826Y013849*
X010927Y013727*
X011049Y013626*
X011190Y013551*
X011342Y013505*
X011500Y013489*
X011658Y013505*
X011810Y013551*
X011951Y013626*
X012073Y013727*
X012174Y013849*
X012249Y013990*
X012295Y014142*
X012311Y014300*
X012295Y014458*
X012249Y014610*
X012174Y014751*
X012073Y014873*
X011951Y014974*
X011810Y015049*
X011658Y015095*
X011500Y015111*
X011342Y015095*
X011190Y015049*
X011049Y014974*
X010927Y014873*
X010826Y014751*
X010751Y014610*
X010606Y014650*
X010613Y019514*
X010677Y019549*
X010763Y019562*
X010857Y019448*
X010995Y019335*
X011152Y019251*
X011323Y019199*
X011400Y019191*
Y020091*
Y020991*
X011323Y020983*
X011152Y020931*
X010995Y020847*
X010857Y020734*
X010765Y020622*
X010669Y020639*
X010615Y020670*
X010620Y024248*
X010641Y024261*
X010770Y024294*
X010857Y024188*
X010995Y024075*
X011152Y023991*
X011323Y023939*
X011400Y023932*
Y024831*
Y025731*
X011323Y025723*
X011152Y025671*
X010995Y025587*
X010857Y025474*
X010772Y025371*
X010632Y025409*
X010622Y025416*
X010644Y040371*
X010794Y040408*
X010826Y040349*
X010927Y040227*
X011049Y040126*
X011190Y040051*
X011342Y040005*
X011500Y039989*
X011658Y040005*
X011810Y040051*
X011951Y040126*
X012073Y040227*
X012174Y040349*
X012249Y040490*
X012295Y040642*
X012311Y040800*
X012295Y040958*
X012249Y041110*
X012174Y041251*
X012073Y041373*
X011951Y041474*
X011810Y041549*
X011658Y041595*
X011500Y041611*
X011342Y041595*
X011190Y041549*
X011049Y041474*
X010927Y041373*
X010826Y041251*
X010795Y041194*
X010645Y041231*
X010647Y042425*
X011400*
Y043500*
X011500*
Y043600*
X012575*
Y044350*
X036300*
Y043600*
X038700*
Y044350*
X039300*
X039400Y044241*
G37*
%LNmotherboard-2*%
%LPC*%
G36*
X016700Y021264D02*
X016611Y021228D01*
X016533Y021167*
X016472Y021089*
X016436Y021000*
X016700*
Y021264*
G37*
G36*
Y020800D02*
X016436D01*
X016472Y020711*
X016533Y020633*
X016611Y020572*
X016700Y020536*
Y020800*
G37*
G36*
X013354Y023489D02*
X013216Y023471D01*
X013086Y023417*
X013076Y023409*
X012961Y023341*
X012845Y023409*
X012835Y023417*
X012706Y023471*
X012567Y023489*
X012428Y023471*
X012299Y023417*
X012188Y023332*
X012103Y023221*
X012049Y023092*
X012031Y022953*
X012049Y022815*
X012103Y022685*
X012188Y022574*
X012215Y022554*
Y022368*
X012188Y022348*
X012103Y022237*
X012049Y022108*
X012031Y021969*
X012049Y021830*
X012103Y021701*
X012188Y021590*
X012299Y021505*
X012428Y021452*
X012567Y021433*
X012706Y021452*
X012835Y021505*
X012845Y021513*
X012961Y021581*
X013076Y021513*
X013086Y021505*
X013216Y021452*
X013354Y021433*
X013493Y021452*
X013622Y021505*
X013733Y021590*
X013818Y021701*
X013872Y021830*
X013890Y021969*
X013872Y022108*
X013818Y022237*
X013733Y022348*
X013706Y022368*
Y022554*
X013733Y022574*
X013818Y022685*
X013872Y022815*
X013890Y022953*
X013872Y023092*
X013818Y023221*
X013733Y023332*
X013622Y023417*
X013493Y023471*
X013354Y023489*
G37*
G36*
X012400Y024731D02*
X011600D01*
Y023932*
X011677Y023939*
X011848Y023991*
X012005Y024075*
X012143Y024188*
X012256Y024326*
X012340Y024483*
X012392Y024654*
X012400Y024731*
G37*
G36*
X024650Y024664D02*
Y024400D01*
X024914*
X024878Y024489*
X024817Y024567*
X024739Y024628*
X024650Y024664*
G37*
G36*
X020310Y017814D02*
X020221Y017778D01*
X020143Y017717*
X020082Y017639*
X020046Y017550*
X020310*
Y017814*
G37*
G36*
X031280Y017554D02*
X031191Y017518D01*
X031113Y017457*
X031052Y017379*
X031016Y017290*
X031280*
Y017554*
G37*
G36*
X020510Y017814D02*
Y017550D01*
X020774*
X020738Y017639*
X020677Y017717*
X020599Y017778*
X020510Y017814*
G37*
G36*
X011600Y020991D02*
Y020191D01*
X012400*
X012392Y020268*
X012340Y020439*
X012256Y020596*
X012143Y020734*
X012005Y020847*
X011848Y020931*
X011677Y020983*
X011600Y020991*
G37*
G36*
X012400Y019991D02*
X011600D01*
Y019191*
X011677Y019199*
X011848Y019251*
X012005Y019335*
X012143Y019448*
X012256Y019586*
X012340Y019743*
X012392Y019914*
X012400Y019991*
G37*
G36*
X034410Y025304D02*
Y025040D01*
X034674*
X034638Y025129*
X034577Y025207*
X034499Y025268*
X034410Y025304*
G37*
G36*
X034210D02*
X034121Y025268D01*
X034043Y025207*
X033982Y025129*
X033946Y025040*
X034210*
Y025304*
G37*
G36*
X014450Y025464D02*
X014361Y025428D01*
X014283Y025367*
X014222Y025289*
X014186Y025200*
X014450*
Y025464*
G37*
G36*
X038800Y025950D02*
X038536D01*
X038572Y025861*
X038633Y025783*
X038711Y025722*
X038800Y025686*
Y025950*
G37*
G36*
X014650Y025464D02*
Y025200D01*
X014914*
X014878Y025289*
X014817Y025367*
X014739Y025428*
X014650Y025464*
G37*
G36*
X034674Y024840D02*
X034410D01*
Y024576*
X034499Y024612*
X034577Y024673*
X034638Y024751*
X034674Y024840*
G37*
G36*
X034210D02*
X033946D01*
X033982Y024751*
X034043Y024673*
X034121Y024612*
X034210Y024576*
Y024840*
G37*
G36*
X014450Y025000D02*
X014186D01*
X014222Y024911*
X014283Y024833*
X014361Y024772*
X014450Y024736*
Y025000*
G37*
G36*
X011600Y025731D02*
Y024931D01*
X012400*
X012392Y025009*
X012340Y025179*
X012256Y025336*
X012143Y025474*
X012005Y025587*
X011848Y025671*
X011677Y025723*
X011600Y025731*
G37*
G36*
X014914Y025000D02*
X014650D01*
Y024736*
X014739Y024772*
X014817Y024833*
X014878Y024911*
X014914Y025000*
G37*
G36*
X013670Y017374D02*
Y017110D01*
X013934*
X013898Y017199*
X013837Y017277*
X013759Y017338*
X013670Y017374*
G37*
G36*
X024230Y013830D02*
X023966D01*
X024002Y013741*
X024063Y013663*
X024141Y013602*
X024230Y013566*
Y013830*
G37*
G36*
X033320Y013464D02*
Y013200D01*
X033584*
X033548Y013289*
X033487Y013367*
X033409Y013428*
X033320Y013464*
G37*
G36*
X024694Y013830D02*
X024430D01*
Y013566*
X024519Y013602*
X024597Y013663*
X024658Y013741*
X024694Y013830*
G37*
G36*
X024430Y014294D02*
Y014030D01*
X024694*
X024658Y014119*
X024597Y014197*
X024519Y014258*
X024430Y014294*
G37*
G36*
X024230D02*
X024141Y014258D01*
X024063Y014197*
X024002Y014119*
X023966Y014030*
X024230*
Y014294*
G37*
G36*
X038400Y012700D02*
X037300D01*
Y011600*
X038400*
Y012700*
G37*
G36*
X012700D02*
X011600D01*
Y011600*
X012700*
Y012700*
G37*
G36*
X033120Y013000D02*
X032856D01*
X032892Y012911*
X032953Y012833*
X033031Y012772*
X033120Y012736*
Y013000*
G37*
G36*
Y013464D02*
X033031Y013428D01*
X032953Y013367*
X032892Y013289*
X032856Y013200*
X033120*
Y013464*
G37*
G36*
X033584Y013000D02*
X033320D01*
Y012736*
X033409Y012772*
X033487Y012833*
X033548Y012911*
X033584Y013000*
G37*
G36*
X031280Y017090D02*
X031016D01*
X031052Y017001*
X031113Y016923*
X031191Y016862*
X031280Y016826*
Y017090*
G37*
G36*
X013934Y016910D02*
X013670D01*
Y016646*
X013759Y016682*
X013837Y016743*
X013898Y016821*
X013934Y016910*
G37*
G36*
X020310Y017350D02*
X020046D01*
X020082Y017261*
X020143Y017183*
X020221Y017122*
X020310Y017086*
Y017350*
G37*
G36*
X013470Y017374D02*
X013381Y017338D01*
X013303Y017277*
X013242Y017199*
X013206Y017110*
X013470*
Y017374*
G37*
G36*
X020774Y017350D02*
X020510D01*
Y017086*
X020599Y017122*
X020677Y017183*
X020738Y017261*
X020774Y017350*
G37*
G36*
X039184Y015850D02*
X038920D01*
Y015586*
X039009Y015622*
X039087Y015683*
X039148Y015761*
X039184Y015850*
G37*
G36*
X038720D02*
X038456D01*
X038492Y015761*
X038553Y015683*
X038631Y015622*
X038720Y015586*
Y015850*
G37*
G36*
Y016314D02*
X038631Y016278D01*
X038553Y016217*
X038492Y016139*
X038456Y016050*
X038720*
Y016314*
G37*
G36*
X013470Y016910D02*
X013206D01*
X013242Y016821*
X013303Y016743*
X013381Y016682*
X013470Y016646*
Y016910*
G37*
G36*
X038920Y016314D02*
Y016050D01*
X039184*
X039148Y016139*
X039087Y016217*
X039009Y016278*
X038920Y016314*
G37*
G36*
X025600Y035864D02*
Y035600D01*
X025864*
X025828Y035689*
X025767Y035767*
X025689Y035828*
X025600Y035864*
G37*
G36*
X025400D02*
X025311Y035828D01*
X025233Y035767*
X025172Y035689*
X025136Y035600*
X025400*
Y035864*
G37*
G36*
X024664Y037450D02*
X024400D01*
Y037186*
X024489Y037222*
X024567Y037283*
X024628Y037361*
X024664Y037450*
G37*
G36*
X013250Y040467D02*
X013200Y040460D01*
X013060Y040402*
X012940Y040310*
X012848Y040190*
X012790Y040050*
X012783Y040000*
X013250*
Y040467*
G37*
G36*
Y039800D02*
X012783D01*
X012790Y039750*
X012848Y039610*
X012940Y039490*
X013060Y039398*
X013200Y039340*
X013250Y039333*
Y039800*
G37*
G36*
X011968Y033747D02*
X011834Y033730D01*
X011709Y033678*
X011601Y033595*
X011519Y033488*
X011467Y033362*
X011449Y033228*
X011467Y033094*
X011519Y032968*
X011601Y032861*
X011709Y032778*
X011834Y032726*
X011968Y032709*
X012103Y032726*
X012228Y032778*
X012336Y032861*
X012418Y032968*
X012470Y033094*
X012488Y033228*
X012470Y033362*
X012418Y033488*
X012336Y033595*
X012228Y033678*
X012103Y033730*
X011968Y033747*
G37*
G36*
X013740Y033787D02*
X013595Y033768D01*
X013461Y033712*
X013345Y033623*
X013256Y033508*
X013200Y033373*
X013181Y033228*
X013200Y033083*
X013256Y032948*
X013345Y032833*
X013461Y032744*
X013595Y032688*
X013740Y032669*
X013885Y032688*
X014020Y032744*
X014136Y032833*
X014224Y032948*
X014280Y033083*
X014299Y033228*
X014280Y033373*
X014224Y033508*
X014136Y033623*
X014020Y033712*
X013885Y033768*
X013740Y033787*
G37*
G36*
X035860Y036455D02*
X028240D01*
Y034540*
X035860*
Y036455*
G37*
G36*
X025864Y035400D02*
X025600D01*
Y035136*
X025689Y035172*
X025767Y035233*
X025828Y035311*
X025864Y035400*
G37*
G36*
X025400D02*
X025136D01*
X025172Y035311*
X025233Y035233*
X025311Y035172*
X025400Y035136*
Y035400*
G37*
G36*
X025800Y043700D02*
X025536D01*
X025572Y043611*
X025633Y043533*
X025711Y043472*
X025800Y043436*
Y043700*
G37*
G36*
X012575Y043400D02*
X011600D01*
Y042425*
X012575*
Y043400*
G37*
G36*
X026264Y043700D02*
X026000D01*
Y043436*
X026089Y043472*
X026167Y043533*
X026228Y043611*
X026264Y043700*
G37*
G36*
X026000Y044164D02*
Y043900D01*
X026264*
X026228Y043989*
X026167Y044067*
X026089Y044128*
X026000Y044164*
G37*
G36*
X025800D02*
X025711Y044128D01*
X025633Y044067*
X025572Y043989*
X025536Y043900*
X025800*
Y044164*
G37*
G36*
X020350Y040480D02*
X020200Y040460D01*
X020060Y040402*
X019940Y040310*
X019925Y040291*
X019775*
X019760Y040310*
X019640Y040402*
X019500Y040460*
X019450Y040467*
Y039900*
Y039333*
X019500Y039340*
X019640Y039398*
X019760Y039490*
X019775Y039509*
X019925*
X019940Y039490*
X020060Y039398*
X020200Y039340*
X020350Y039320*
X020500Y039340*
X020640Y039398*
X020760Y039490*
X020775Y039509*
X020925*
X020940Y039490*
X021060Y039398*
X021200Y039340*
X021250Y039333*
Y039900*
Y040467*
X021200Y040460*
X021060Y040402*
X020940Y040310*
X020925Y040291*
X020775*
X020760Y040310*
X020640Y040402*
X020500Y040460*
X020350Y040480*
G37*
G36*
X016350D02*
X016200Y040460D01*
X016060Y040402*
X015940Y040310*
X015925Y040291*
X015775*
X015760Y040310*
X015640Y040402*
X015500Y040460*
X015450Y040467*
Y039900*
Y039333*
X015500Y039340*
X015640Y039398*
X015760Y039490*
X015775Y039509*
X015925*
X015940Y039490*
X016060Y039398*
X016200Y039340*
X016350Y039320*
X016500Y039340*
X016640Y039398*
X016760Y039490*
X016775Y039509*
X016925*
X016940Y039490*
X017060Y039398*
X017200Y039340*
X017250Y039333*
Y039900*
Y040467*
X017200Y040460*
X017060Y040402*
X016940Y040310*
X016925Y040291*
X016775*
X016760Y040310*
X016640Y040402*
X016500Y040460*
X016350Y040480*
G37*
G36*
X021775Y040475D02*
X021649Y040417D01*
X021625Y040408*
X021500Y040460*
X021450Y040467*
Y039900*
Y039333*
X021500Y039340*
X021625Y039392*
X021648Y039383*
X021775Y039325*
X022925*
Y040475*
X021775*
G37*
G36*
X038700Y043400D02*
X037600D01*
Y042300*
X038700*
Y043400*
G37*
G36*
X037400D02*
X036300D01*
Y042300*
X037400*
Y043400*
G37*
G36*
X031300Y030714D02*
Y030450D01*
X031564*
X031528Y030539*
X031467Y030617*
X031389Y030678*
X031300Y030714*
G37*
G36*
X038344Y026740D02*
X038080D01*
Y026476*
X038169Y026512*
X038247Y026573*
X038308Y026651*
X038344Y026740*
G37*
G36*
X037880D02*
X037616D01*
X037652Y026651*
X037713Y026573*
X037791Y026512*
X037880Y026476*
Y026740*
G37*
G36*
X025450Y026850D02*
X025186D01*
X025222Y026761*
X025283Y026683*
X025361Y026622*
X025450Y026586*
Y026850*
G37*
G36*
X037880Y027204D02*
X037791Y027168D01*
X037713Y027107*
X037652Y027029*
X037616Y026940*
X037880*
Y027204*
G37*
G36*
X025914Y026850D02*
X025650D01*
Y026586*
X025739Y026622*
X025817Y026683*
X025878Y026761*
X025914Y026850*
G37*
G36*
X038800Y026414D02*
X038711Y026378D01*
X038633Y026317*
X038572Y026239*
X038536Y026150*
X038800*
Y026414*
G37*
G36*
X022350Y029028D02*
X022252Y029015D01*
X022161Y028978*
X022083Y028917*
X022022Y028839*
X021985Y028748*
X021972Y028650*
X021985Y028552*
X022022Y028461*
X022083Y028383*
X022138Y028340*
Y026431*
X022133Y026427*
X022072Y026349*
X022035Y026258*
X022022Y026160*
X022035Y026062*
X022072Y025971*
X022133Y025893*
X022211Y025832*
X022302Y025795*
X022400Y025782*
X022498Y025795*
X022589Y025832*
X022667Y025893*
X022728Y025971*
X022765Y026062*
X022778Y026160*
X022765Y026258*
X022728Y026349*
X022667Y026427*
X022662Y026431*
Y028441*
X022678Y028461*
X022715Y028552*
X022728Y028650*
X022715Y028748*
X022678Y028839*
X022617Y028917*
X022539Y028978*
X022448Y029015*
X022350Y029028*
G37*
G36*
X033100Y026878D02*
X033002Y026865D01*
X032911Y026828*
X032833Y026767*
X032772Y026689*
X032735Y026598*
X032722Y026500*
Y026497*
X032704Y026465*
X032592Y026373*
X032550Y026378*
X032452Y026365*
X032361Y026328*
X032283Y026267*
X032279Y026262*
X032010*
X031967Y026317*
X031889Y026378*
X031798Y026415*
X031700Y026428*
X031602Y026415*
X031511Y026378*
X031433Y026317*
X031372Y026239*
X031335Y026148*
X031334Y026146*
X031323Y026131*
X031297Y026068*
X031288Y026000*
X031297Y025932*
X031323Y025869*
X031365Y025815*
X031419Y025773*
X031476Y025749*
X031511Y025722*
X031602Y025685*
X031700Y025672*
X031798Y025685*
X031889Y025722*
X031909Y025738*
X032279*
X032283Y025733*
X032361Y025672*
X032452Y025635*
X032550Y025622*
X032648Y025635*
X032739Y025672*
X032817Y025733*
X032878Y025811*
X032915Y025902*
X032928Y026000*
Y026003*
X032946Y026035*
X033058Y026127*
X033100Y026122*
X033198Y026135*
X033289Y026172*
X033367Y026233*
X033371Y026238*
X034041*
X034315Y025965*
X034369Y025923*
X034432Y025897*
X034500Y025888*
X034879*
X034883Y025883*
X034961Y025822*
X035052Y025785*
X035150Y025772*
X035248Y025785*
X035339Y025822*
X035417Y025883*
X035478Y025961*
X035515Y026052*
X035528Y026150*
X035515Y026248*
X035478Y026339*
X035417Y026417*
X035339Y026478*
X035248Y026515*
X035150Y026528*
X035052Y026515*
X034961Y026478*
X034883Y026417*
X034879Y026412*
X034609*
X034335Y026685*
X034281Y026727*
X034218Y026753*
X034150Y026762*
X033371*
X033367Y026767*
X033289Y026828*
X033198Y026865*
X033100Y026878*
G37*
G36*
X028214Y026700D02*
X027950D01*
Y026436*
X028039Y026472*
X028117Y026533*
X028178Y026611*
X028214Y026700*
G37*
G36*
X027750D02*
X027486D01*
X027522Y026611*
X027583Y026533*
X027661Y026472*
X027750Y026436*
Y026700*
G37*
G36*
X031564Y030250D02*
X031300D01*
Y029986*
X031389Y030022*
X031467Y030083*
X031528Y030161*
X031564Y030250*
G37*
G36*
X031100D02*
X030836D01*
X030872Y030161*
X030933Y030083*
X031011Y030022*
X031100Y029986*
Y030250*
G37*
G36*
X022150Y030464D02*
X022061Y030428D01*
X021983Y030367*
X021922Y030289*
X021886Y030200*
X022150*
Y030464*
G37*
G36*
X031100Y030714D02*
X031011Y030678D01*
X030933Y030617*
X030872Y030539*
X030836Y030450*
X031100*
Y030714*
G37*
G36*
X022350Y030464D02*
Y030200D01*
X022614*
X022578Y030289*
X022517Y030367*
X022439Y030428*
X022350Y030464*
G37*
G36*
X025450Y027314D02*
X025361Y027278D01*
X025283Y027217*
X025222Y027139*
X025186Y027050*
X025450*
Y027314*
G37*
G36*
X038080Y027204D02*
Y026940D01*
X038344*
X038308Y027029*
X038247Y027107*
X038169Y027168*
X038080Y027204*
G37*
G36*
X025650Y027314D02*
Y027050D01*
X025914*
X025878Y027139*
X025817Y027217*
X025739Y027278*
X025650Y027314*
G37*
G36*
X022614Y030000D02*
X022350D01*
Y029736*
X022439Y029772*
X022517Y029833*
X022578Y029911*
X022614Y030000*
G37*
G36*
X022150D02*
X021886D01*
X021922Y029911*
X021983Y029833*
X022061Y029772*
X022150Y029736*
Y030000*
G37*
%LNmotherboard-3*%
%LPD*%
G36*
X035283Y034609D02*
X035180D01*
Y034823*
X035147*
X035136Y034822*
X035127Y034821*
X035120Y034820*
X035115Y034819*
X035111Y034818*
X035108*
X035107Y034817*
X035101Y034815*
X035096Y034811*
X035090Y034808*
X035086Y034804*
X035082Y034801*
X035078Y034799*
X035077Y034796*
X035076*
X035073Y034793*
X035070Y034788*
X035066Y034783*
X035061Y034778*
X035052Y034765*
X035043Y034753*
X035035Y034740*
X035031Y034735*
X035028Y034730*
X035025Y034727*
X035023Y034724*
X035022Y034722*
X035021Y034721*
X034946Y034609*
X034823*
X034885Y034709*
X034892Y034720*
X034899Y034729*
X034905Y034739*
X034910Y034747*
X034915Y034755*
X034920Y034762*
X034925Y034768*
X034929Y034773*
X034932Y034778*
X034935Y034781*
X034938Y034785*
X034940Y034788*
X034942Y034789*
X034943Y034791*
X034944Y034792*
X034953Y034800*
X034962Y034809*
X034971Y034816*
X034980Y034822*
X034988Y034828*
X034994Y034831*
X034996Y034833*
X034998Y034834*
X034999Y034835*
X035000*
X034987Y034837*
X034976Y034840*
X034965Y034843*
X034955Y034846*
X034946Y034850*
X034938Y034854*
X034930Y034858*
X034924Y034863*
X034918Y034866*
X034913Y034870*
X034908Y034874*
X034904Y034876*
X034901Y034879*
X034900Y034881*
X034899Y034882*
X034898*
X034892Y034890*
X034887Y034897*
X034883Y034905*
X034879Y034914*
X034875Y034921*
X034873Y034929*
X034869Y034945*
X034867Y034951*
X034866Y034958*
X034865Y034964*
Y034969*
X034864Y034972*
Y034975*
Y034977*
Y034978*
X034865Y034995*
X034868Y035010*
X034871Y035023*
X034875Y035035*
X034878Y035040*
X034880Y035045*
X034881Y035049*
X034884Y035052*
X034885Y035055*
X034886Y035057*
X034887Y035058*
X034896Y035071*
X034906Y035081*
X034915Y035090*
X034925Y035097*
X034934Y035102*
X034937Y035103*
X034940Y035105*
X034943Y035106*
X034945Y035107*
X034946Y035108*
X034954Y035110*
X034962Y035112*
X034971Y035114*
X034981Y035116*
X035000Y035118*
X035020Y035120*
X035029Y035121*
X035038*
X035046*
X035052Y035122*
X035283*
Y034609*
G37*
G36*
X032490Y035242D02*
X032379D01*
X032196Y035754*
X032306*
X032431Y035375*
X032561Y035754*
X032673*
X032490Y035242*
G37*
G36*
X035800D02*
X035595D01*
X035585*
X035576Y035243*
X035567Y035244*
X035559*
X035551Y035245*
X035545Y035246*
X035539Y035247*
X035533Y035248*
X035528Y035249*
X035524Y035250*
X035520Y035251*
X035518*
X035516Y035252*
X035515*
X035514*
X035498Y035259*
X035484Y035265*
X035471Y035272*
X035461Y035279*
X035456Y035281*
X035453Y035284*
X035450Y035287*
X035447Y035289*
X035445Y035291*
X035443Y035292*
Y035293*
X035442Y035294*
X035429Y035307*
X035418Y035322*
X035409Y035337*
X035401Y035352*
X035398Y035358*
X035395Y035365*
X035393Y035370*
X035390Y035375*
X035389Y035378*
X035388Y035382*
X035387Y035383*
Y035384*
X035382Y035402*
X035378Y035420*
X035375Y035438*
X035373Y035456*
X035372Y035463*
Y035471*
Y035477*
X035371Y035482*
Y035487*
Y035490*
Y035492*
Y035493*
Y035506*
X035372Y035519*
X035373Y035531*
X035374Y035542*
X035375Y035553*
X035377Y035563*
X035378Y035572*
X035379Y035580*
X035381Y035588*
X035383Y035594*
X035384Y035600*
X035385Y035605*
X035387Y035609*
X035388Y035612*
Y035613*
Y035614*
X035395Y035632*
X035403Y035648*
X035411Y035662*
X035415Y035668*
X035419Y035674*
X035423Y035679*
X035426Y035684*
X035429Y035688*
X035431Y035691*
X035434Y035694*
X035435Y035695*
X035436Y035696*
X035437Y035697*
X035450Y035709*
X035463Y035719*
X035475Y035727*
X035488Y035733*
X035498Y035738*
X035503Y035740*
X035506Y035741*
X035510Y035743*
X035512Y035744*
X035514*
X035521Y035746*
X035528Y035748*
X035544Y035750*
X035560Y035752*
X035575Y035753*
X035582Y035754*
X035595*
X035601*
X035800*
Y035242*
G37*
G36*
X034768D02*
X034669D01*
Y035340*
X034768*
Y035242*
G37*
G36*
X035283D02*
X035180D01*
Y035456*
X035147*
X035136Y035454*
X035127*
X035120Y035453*
X035115Y035452*
X035111Y035451*
X035108Y035450*
X035107Y035449*
X035101Y035447*
X035096Y035444*
X035090Y035441*
X035086Y035437*
X035082Y035433*
X035078Y035431*
X035077Y035429*
X035076Y035428*
X035073Y035425*
X035070Y035421*
X035066Y035416*
X035061Y035410*
X035052Y035398*
X035043Y035385*
X035035Y035373*
X035031Y035368*
X035028Y035363*
X035025Y035359*
X035023Y035356*
X035022Y035354*
X035021Y035353*
X034946Y035242*
X034823*
X034885Y035341*
X034892Y035352*
X034899Y035362*
X034905Y035371*
X034910Y035380*
X034915Y035387*
X034920Y035394*
X034925Y035400*
X034929Y035406*
X034932Y035410*
X034935Y035414*
X034938Y035417*
X034940Y035420*
X034942Y035422*
X034943Y035423*
X034944Y035425*
X034953Y035433*
X034962Y035441*
X034971Y035448*
X034980Y035454*
X034988Y035460*
X034994Y035464*
X034996Y035466*
X034998*
X034999Y035467*
X035000*
X034987Y035469*
X034976Y035472*
X034965Y035476*
X034955Y035479*
X034946Y035483*
X034938Y035487*
X034930Y035491*
X034924Y035495*
X034918Y035499*
X034913Y035503*
X034908Y035506*
X034904Y035509*
X034901Y035512*
X034900Y035513*
X034899Y035514*
X034898Y035515*
X034892Y035522*
X034887Y035530*
X034883Y035538*
X034879Y035546*
X034875Y035554*
X034873Y035562*
X034869Y035577*
X034867Y035584*
X034866Y035590*
X034865Y035596*
Y035601*
X034864Y035605*
Y035608*
Y035610*
X034865Y035627*
X034868Y035642*
X034871Y035656*
X034875Y035668*
X034878Y035673*
X034880Y035678*
X034881Y035681*
X034884Y035685*
X034885Y035688*
X034886Y035689*
X034887Y035690*
Y035691*
X034896Y035703*
X034906Y035714*
X034915Y035722*
X034925Y035729*
X034934Y035734*
X034937Y035736*
X034940Y035738*
X034943Y035739*
X034945Y035740*
X034946*
X034954Y035743*
X034962Y035745*
X034971Y035747*
X034981Y035748*
X035000Y035751*
X035020Y035753*
X035029*
X035038Y035754*
X035046*
X035052*
X035283*
Y035242*
G37*
G36*
X034768Y034609D02*
X034669D01*
Y034708*
X034768*
Y034609*
G37*
G36*
X032699D02*
X032507D01*
X032491Y034610*
X032464*
X032452Y034611*
X032442*
X032433*
X032426*
X032420Y034612*
X032414*
X032410*
X032406*
X032403Y034613*
X032401*
X032386Y034615*
X032372Y034618*
X032360Y034622*
X032350Y034627*
X032342Y034631*
X032339Y034632*
X032336Y034633*
X032334Y034635*
X032332Y034636*
Y034637*
X032331*
X032321Y034644*
X032312Y034653*
X032305Y034662*
X032299Y034670*
X032294Y034678*
X032290Y034684*
X032289Y034686*
X032287Y034688*
Y034689*
X032281Y034702*
X032277Y034714*
X032274Y034725*
X032272Y034736*
X032271Y034745*
Y034749*
X032270Y034752*
Y034754*
Y034756*
Y034757*
Y034758*
Y034766*
X032271Y034774*
X032274Y034789*
X032279Y034801*
X032283Y034813*
X032285Y034818*
X032287Y034822*
X032290Y034826*
X032292Y034829*
X032294Y034831*
X032295Y034833*
Y034834*
X032296Y034835*
X032306Y034846*
X032317Y034856*
X032330Y034864*
X032341Y034870*
X032351Y034875*
X032356Y034877*
X032360Y034879*
X032363Y034880*
X032365Y034881*
X032367*
X032356Y034887*
X032345Y034895*
X032336Y034902*
X032328Y034910*
X032322Y034916*
X032318Y034921*
X032317Y034924*
X032316Y034925*
X032315Y034926*
X032308Y034938*
X032304Y034949*
X032300Y034960*
X032297Y034971*
X032296Y034980*
Y034983*
Y034986*
X032295Y034989*
Y034991*
Y034992*
X032296Y035005*
X032297Y035016*
X032300Y035026*
X032303Y035035*
X032306Y035042*
X032308Y035048*
X032310Y035050*
X032311Y035051*
Y035052*
X032317Y035062*
X032324Y035070*
X032331Y035077*
X032337Y035084*
X032342Y035088*
X032347Y035092*
X032350Y035094*
Y035095*
X032351*
X032360Y035101*
X032369Y035105*
X032378Y035109*
X032386Y035112*
X032393Y035114*
X032399Y035115*
X032401Y035116*
X032403*
X032404*
X032410Y035117*
X032416Y035118*
X032431Y035119*
X032446Y035121*
X032461*
X032467*
X032474Y035122*
X032699*
Y034609*
G37*
G36*
X033851Y035242D02*
X033756D01*
Y035578*
X033548Y035242*
X033445*
Y035754*
X033541*
Y035410*
X033751Y035754*
X033851*
Y035242*
G37*
G36*
X031625D02*
X031530D01*
Y035578*
X031322Y035242*
X031219*
Y035754*
X031314*
Y035410*
X031525Y035754*
X031625*
Y035242*
G37*
G36*
X033335D02*
X033239D01*
Y035578*
X033032Y035242*
X032928*
Y035754*
X033024*
Y035410*
X033235Y035754*
X033335*
Y035242*
G37*
G36*
X035800Y034609D02*
X035595D01*
X035585Y034610*
X035576Y034611*
X035567*
X035559Y034612*
X035551Y034613*
X035545Y034614*
X035539Y034615*
X035533Y034616*
X035528Y034617*
X035524Y034618*
X035520*
X035518Y034619*
X035516*
X035515Y034620*
X035514*
X035498Y034626*
X035484Y034633*
X035471Y034639*
X035461Y034646*
X035456Y034649*
X035453Y034652*
X035450Y034654*
X035447Y034657*
X035445Y034658*
X035443Y034660*
X035442Y034661*
X035429Y034675*
X035418Y034690*
X035409Y034705*
X035401Y034719*
X035398Y034726*
X035395Y034732*
X035393Y034738*
X035390Y034742*
X035389Y034746*
X035388Y034749*
X035387Y034751*
Y034752*
X035382Y034769*
X035378Y034788*
X035375Y034806*
X035373Y034823*
X035372Y034831*
Y034838*
Y034844*
X035371Y034850*
Y034854*
Y034858*
Y034860*
Y034874*
X035372Y034886*
X035373Y034898*
X035374Y034910*
X035375Y034920*
X035377Y034930*
X035378Y034940*
X035379Y034948*
X035381Y034955*
X035383Y034962*
X035384Y034968*
X035385Y034972*
X035387Y034976*
X035388Y034979*
Y034981*
X035395Y034999*
X035403Y035015*
X035411Y035030*
X035415Y035036*
X035419Y035041*
X035423Y035047*
X035426Y035051*
X035429Y035055*
X035431Y035058*
X035434Y035061*
X035435Y035063*
X035436Y035064*
X035437Y035065*
X035450Y035076*
X035463Y035086*
X035475Y035094*
X035488Y035101*
X035498Y035106*
X035503Y035108*
X035506Y035109*
X035510Y035110*
X035512Y035111*
X035514Y035112*
X035521Y035113*
X035528Y035115*
X035544Y035117*
X035560Y035119*
X035575Y035121*
X035582*
X035595*
X035601Y035122*
X035800*
Y034609*
G37*
G36*
X029282Y035762D02*
X029292Y035761D01*
X029302Y035760*
X029310Y035758*
X029319Y035757*
X029326Y035755*
X029333Y035754*
X029340Y035751*
X029345Y035750*
X029350Y035749*
X029354Y035747*
X029357Y035746*
X029360Y035745*
X029361Y035744*
X029376Y035737*
X029389Y035729*
X029400Y035720*
X029409Y035712*
X029416Y035704*
X029421Y035698*
X029423Y035696*
X029424Y035694*
X029425Y035693*
X029432Y035680*
X029438Y035667*
X029442Y035654*
X029445Y035643*
X029446Y035634*
X029447Y035629*
Y035626*
Y035623*
Y035621*
Y035620*
Y035619*
Y035608*
X029445Y035598*
X029443Y035587*
X029440Y035578*
X029436Y035569*
X029432Y035560*
X029428Y035552*
X029424Y035545*
X029420Y035538*
X029415Y035533*
X029411Y035528*
X029408Y035524*
X029405Y035521*
X029403Y035518*
X029401Y035517*
X029400Y035516*
X029394Y035511*
X029386Y035506*
X029377Y035501*
X029368Y035496*
X029349Y035487*
X029329Y035479*
X029320Y035477*
X029312Y035474*
X029304Y035471*
X029297Y035469*
X029292Y035468*
X029288Y035467*
X029285Y035466*
X029284*
X029272Y035463*
X029262Y035460*
X029252Y035458*
X029244Y035456*
X029236Y035453*
X029229Y035452*
X029223Y035450*
X029218Y035448*
X029214Y035447*
X029210Y035446*
X029207Y035445*
X029205Y035444*
X029203*
X029202*
X029201Y035443*
X029192Y035439*
X029184Y035436*
X029178Y035432*
X029172Y035429*
X029169Y035426*
X029166Y035423*
X029164Y035422*
Y035421*
X029160Y035416*
X029157Y035411*
X029156Y035406*
X029154Y035401*
X029153Y035397*
Y035393*
Y035391*
Y035390*
Y035385*
X029154Y035380*
X029157Y035371*
X029161Y035362*
X029166Y035355*
X029170Y035349*
X029174Y035345*
X029177Y035342*
X029178Y035341*
X029183Y035337*
X029189Y035333*
X029201Y035328*
X029214Y035325*
X029226Y035322*
X029237Y035321*
X029242Y035320*
X029246*
X029249*
X029254*
X029271Y035321*
X029286Y035324*
X029299Y035327*
X029310Y035331*
X029314Y035333*
X029318Y035336*
X029322Y035337*
X029325Y035339*
X029327Y035341*
X029329Y035342*
Y035343*
X029330*
X029335Y035348*
X029339Y035353*
X029347Y035365*
X029354Y035377*
X029359Y035390*
X029362Y035401*
X029364Y035405*
X029365Y035410*
Y035413*
X029366Y035416*
Y035417*
Y035418*
X029467Y035408*
X029465Y035392*
X029461Y035377*
X029457Y035364*
X029453Y035351*
X029448Y035340*
X029443Y035328*
X029437Y035319*
X029432Y035310*
X029427Y035302*
X029422Y035296*
X029417Y035290*
X029413Y035285*
X029410Y035282*
X029407Y035279*
X029405Y035277*
X029394Y035269*
X029383Y035262*
X029371Y035256*
X029359Y035251*
X029347Y035247*
X029335Y035244*
X029323Y035240*
X029310Y035238*
X029299Y035236*
X029289Y035235*
X029279Y035234*
X029272Y035233*
X029265*
X029260Y035232*
X029243*
X029232Y035233*
X029220Y035234*
X029210Y035235*
X029200Y035237*
X029190Y035238*
X029182Y035240*
X029174Y035242*
X029168Y035244*
X029162Y035245*
X029156Y035246*
X029152Y035248*
X029148Y035249*
X029146Y035250*
X029144Y035251*
X029128Y035259*
X029114Y035267*
X029102Y035277*
X029092Y035286*
X029084Y035295*
X029082Y035299*
X029079Y035302*
X029077Y035304*
X029076Y035306*
X029075Y035307*
Y035308*
X029070Y035315*
X029066Y035323*
X029060Y035337*
X029056Y035351*
X029053Y035364*
X029052Y035370*
X029051Y035375*
X029050Y035380*
Y035383*
Y035386*
Y035389*
Y035390*
Y035391*
X029051Y035408*
X029053Y035424*
X029056Y035438*
X029058Y035444*
X029060Y035449*
X029062Y035454*
X029063Y035459*
X029065Y035463*
X029067Y035466*
X029068Y035469*
X029069Y035471*
X029070Y035472*
X029078Y035484*
X029088Y035494*
X029097Y035503*
X029106Y035511*
X029114Y035517*
X029121Y035521*
X029124Y035522*
X029126Y035523*
X029127Y035524*
X029134Y035528*
X029142Y035532*
X029151Y035535*
X029160Y035538*
X029178Y035544*
X029197Y035550*
X029205Y035552*
X029213Y035554*
X029220Y035557*
X029227Y035558*
X029232Y035559*
X029235Y035560*
X029238Y035561*
X029239*
X029252Y035564*
X029264Y035568*
X029275Y035571*
X029285Y035574*
X029294Y035577*
X029302Y035580*
X029309Y035583*
X029314Y035585*
X029319Y035587*
X029324Y035589*
X029327Y035591*
X029329Y035593*
X029331Y035594*
X029333Y035595*
X029334*
X029339Y035600*
X029343Y035605*
X029345Y035611*
X029347Y035616*
X029348Y035620*
X029349Y035624*
Y035626*
Y035627*
X029348Y035634*
X029346Y035640*
X029344Y035645*
X029340Y035650*
X029338Y035653*
X029335Y035656*
X029333Y035658*
X029322Y035664*
X029311Y035669*
X029299Y035673*
X029288Y035675*
X029277Y035676*
X029273*
X029269Y035677*
X029262*
X029246Y035676*
X029233Y035674*
X029222Y035671*
X029212Y035668*
X029205Y035665*
X029200Y035662*
X029197Y035660*
X029196Y035659*
X029188Y035652*
X029182Y035643*
X029177Y035634*
X029173Y035625*
X029171Y035617*
X029169Y035613*
X029168Y035609*
Y035607*
Y035605*
X029167Y035604*
Y035603*
X029064Y035607*
X029065Y035620*
X029067Y035632*
X029070Y035644*
X029073Y035654*
X029077Y035664*
X029082Y035674*
X029086Y035682*
X029091Y035690*
X029096Y035696*
X029100Y035703*
X029104Y035708*
X029108Y035712*
X029111Y035715*
X029113Y035718*
X029115Y035719*
X029116Y035720*
X029125Y035728*
X029136Y035734*
X029147Y035740*
X029159Y035745*
X029171Y035749*
X029183Y035752*
X029195Y035755*
X029206Y035757*
X029217Y035759*
X029228Y035760*
X029237Y035761*
X029245Y035762*
X029251Y035763*
X029260*
X029282Y035762*
G37*
G36*
X031150Y034609D02*
X031055D01*
Y035012*
X030954Y034609*
X030854*
X030753Y035012*
X030752Y034609*
X030657*
Y035122*
X030812*
X030903Y034772*
X030995Y035122*
X031150*
Y034609*
G37*
G36*
X030035D02*
X029940D01*
Y034946*
X029732Y034609*
X029629*
Y035122*
X029724*
Y034778*
X029935Y035122*
X030035*
Y034609*
G37*
G36*
X033414D02*
X033318D01*
Y034946*
X033110Y034609*
X033007*
Y035122*
X033103*
Y034778*
X033314Y035122*
X033414*
Y034609*
G37*
G36*
X032195Y035242D02*
X032086D01*
X032043Y035358*
X031838*
X031793Y035242*
X031681*
X031886Y035754*
X031996*
X032195Y035242*
G37*
G36*
X034421D02*
X034312D01*
X034269Y035358*
X034065*
X034020Y035242*
X033907*
X034112Y035754*
X034222*
X034421Y035242*
G37*
G36*
X030394D02*
X030005D01*
Y035328*
X030291*
Y035468*
X030034*
Y035554*
X030291*
Y035668*
X030015*
Y035754*
X030394*
Y035242*
G37*
G36*
X028998Y035668D02*
X028846D01*
Y035242*
X028743*
Y035668*
X028592*
Y035754*
X028998*
Y035668*
G37*
G36*
X029917Y035242D02*
X029527D01*
Y035328*
X029814*
Y035468*
X029557*
Y035554*
X029814*
Y035668*
X029537*
Y035754*
X029917*
Y035242*
G37*
G36*
X032183Y034609D02*
X032079D01*
Y034823*
X032046*
X032035Y034822*
X032027Y034821*
X032019Y034820*
X032014Y034819*
X032010Y034818*
X032007*
Y034817*
X032000Y034815*
X031995Y034811*
X031989Y034808*
X031985Y034804*
X031981Y034801*
X031978Y034799*
X031976Y034796*
X031972Y034793*
X031969Y034788*
X031965Y034783*
X031961Y034778*
X031952Y034765*
X031942Y034753*
X031934Y034740*
X031930Y034735*
X031927Y034730*
X031924Y034727*
X031922Y034724*
X031921Y034722*
Y034721*
X031846Y034609*
X031722*
X031785Y034709*
X031791Y034720*
X031798Y034729*
X031804Y034739*
X031810Y034747*
X031815Y034755*
X031820Y034762*
X031824Y034768*
X031828Y034773*
X031831Y034778*
X031835Y034781*
X031837Y034785*
X031840Y034788*
X031841Y034789*
X031842Y034791*
X031843Y034792*
X031852Y034800*
X031861Y034809*
X031871Y034816*
X031879Y034822*
X031887Y034828*
X031893Y034831*
X031896Y034833*
X031897Y034834*
X031898Y034835*
X031899*
X031887Y034837*
X031875Y034840*
X031865Y034843*
X031855Y034846*
X031845Y034850*
X031837Y034854*
X031830Y034858*
X031823Y034863*
X031817Y034866*
X031812Y034870*
X031807Y034874*
X031803Y034876*
X031801Y034879*
X031799Y034881*
X031798Y034882*
X031797*
X031791Y034890*
X031786Y034897*
X031782Y034905*
X031778Y034914*
X031775Y034921*
X031772Y034929*
X031768Y034945*
X031766Y034951*
X031765Y034958*
Y034964*
X031764Y034969*
X031763Y034972*
Y034975*
Y034977*
Y034978*
X031765Y034995*
X031767Y035010*
X031771Y035023*
X031775Y035035*
X031777Y035040*
X031779Y035045*
X031781Y035049*
X031783Y035052*
X031784Y035055*
X031785Y035057*
X031786Y035058*
X031795Y035071*
X031805Y035081*
X031815Y035090*
X031824Y035097*
X031833Y035102*
X031836Y035103*
X031840Y035105*
X031842Y035106*
X031844Y035107*
X031845Y035108*
X031846*
X031853Y035110*
X031861Y035112*
X031871Y035114*
X031880Y035116*
X031899Y035118*
X031919Y035120*
X031928Y035121*
X031937*
X031945*
X031952Y035122*
X032183*
Y034609*
G37*
G36*
X034139Y036394D02*
X034158Y036392D01*
X034176Y036388*
X034193Y036384*
X034208Y036378*
X034222Y036373*
X034235Y036366*
X034247Y036359*
X034258Y036353*
X034267Y036347*
X034275Y036341*
X034282Y036335*
X034287Y036331*
X034290Y036327*
X034293Y036325*
X034294Y036324*
X034305Y036310*
X034315Y036295*
X034324Y036280*
X034331Y036263*
X034338Y036247*
X034343Y036230*
X034348Y036214*
X034351Y036198*
X034354Y036184*
X034356Y036170*
X034357Y036157*
X034358Y036146*
X034359Y036137*
Y036134*
Y036131*
Y036129*
Y036127*
Y036126*
Y036125*
Y036103*
X034356Y036083*
X034353Y036063*
X034349Y036045*
X034344Y036028*
X034339Y036012*
X034333Y035998*
X034326Y035985*
X034320Y035973*
X034314Y035963*
X034309Y035955*
X034304Y035948*
X034300Y035942*
X034297Y035938*
X034294Y035935*
X034281Y035923*
X034268Y035912*
X034254Y035903*
X034240Y035895*
X034226Y035888*
X034212Y035883*
X034198Y035878*
X034186Y035874*
X034173Y035871*
X034162Y035869*
X034152Y035868*
X034143Y035867*
X034136Y035866*
X034131*
X034126*
X034111*
X034097Y035867*
X034083Y035869*
X034070Y035872*
X034058Y035875*
X034047Y035878*
X034036Y035882*
X034027Y035886*
X034018Y035889*
X034011Y035893*
X034005Y035897*
X034000Y035900*
X033996Y035902*
X033992Y035904*
X033991Y035905*
X033990Y035906*
X033980Y035914*
X033971Y035923*
X033963Y035933*
X033955Y035943*
X033949Y035953*
X033942Y035964*
X033936Y035974*
X033931Y035984*
X033927Y035994*
X033923Y036003*
X033920Y036011*
X033917Y036018*
X033915Y036024*
X033914Y036028*
X033913Y036030*
Y036031*
X034013Y036063*
X034016Y036053*
X034019Y036043*
X034022Y036034*
X034026Y036026*
X034030Y036018*
X034033Y036011*
X034037Y036005*
X034040Y036000*
X034043Y035995*
X034047Y035991*
X034050Y035988*
X034052Y035985*
X034054Y035983*
X034056Y035981*
Y035980*
X034057*
X034062Y035975*
X034068Y035972*
X034080Y035965*
X034092Y035960*
X034103Y035957*
X034113Y035955*
X034117Y035954*
X034121*
X034123*
X034127*
X034137*
X034147Y035955*
X034157Y035958*
X034165Y035960*
X034173Y035963*
X034181Y035967*
X034188Y035970*
X034194Y035974*
X034199Y035978*
X034204Y035982*
X034208Y035985*
X034212Y035988*
X034214Y035991*
X034217Y035993*
X034218Y035994*
Y035995*
X034224Y036003*
X034229Y036013*
X034234Y036023*
X034238Y036034*
X034242Y036045*
X034244Y036056*
X034248Y036079*
X034250Y036090*
X034251Y036100*
X034252Y036109*
Y036117*
X034253Y036124*
Y036129*
Y036132*
Y036133*
X034252Y036150*
X034251Y036165*
X034249Y036179*
X034247Y036192*
X034244Y036205*
X034242Y036215*
X034238Y036225*
X034235Y036233*
X034232Y036241*
X034229Y036248*
X034226Y036253*
X034223Y036258*
X034221Y036261*
X034219Y036264*
X034218Y036265*
Y036266*
X034211Y036273*
X034203Y036279*
X034196Y036285*
X034188Y036290*
X034181Y036293*
X034173Y036297*
X034165Y036300*
X034158Y036302*
X034151Y036303*
X034145Y036305*
X034139Y036306*
X034134*
X034131Y036307*
X034125*
X034110Y036306*
X034097Y036303*
X034085Y036300*
X034074Y036295*
X034066Y036291*
X034063Y036289*
X034060Y036287*
X034058Y036286*
X034056Y036285*
Y036284*
X034055Y036283*
X034045Y036274*
X034037Y036264*
X034030Y036253*
X034025Y036243*
X034021Y036235*
X034020Y036231*
X034018Y036227*
Y036225*
X034017Y036222*
Y036221*
X033915Y036245*
X033918Y036256*
X033922Y036267*
X033926Y036276*
X033930Y036286*
X033935Y036294*
X033939Y036302*
X033944Y036308*
X033947Y036315*
X033952Y036321*
X033955Y036326*
X033959Y036329*
X033962Y036333*
X033964Y036336*
X033966Y036337*
X033967Y036338*
Y036339*
X033979Y036349*
X033991Y036357*
X034003Y036365*
X034016Y036371*
X034029Y036377*
X034042Y036381*
X034054Y036385*
X034066Y036388*
X034077Y036391*
X034087Y036392*
X034097Y036393*
X034104Y036394*
X034111*
X034116Y036395*
X034120*
X034139Y036394*
G37*
G36*
X031002Y035874D02*
X030907D01*
Y036211*
X030699Y035874*
X030596*
Y036387*
X030691*
Y036043*
X030902Y036387*
X031002*
Y035874*
G37*
G36*
X031718Y034609D02*
X031609D01*
X031566Y034726*
X031361*
X031316Y034609*
X031203*
X031409Y035122*
X031519*
X031718Y034609*
G37*
G36*
X034818Y035874D02*
X034429D01*
Y035961*
X034715*
Y036100*
X034458*
Y036187*
X034715*
Y036300*
X034439*
Y036387*
X034818*
Y035874*
G37*
G36*
X035296D02*
X035192D01*
Y036068*
X035112*
X035100*
X035089*
X035078Y036069*
X035069*
X035060Y036070*
X035052*
X035045Y036071*
X035039Y036072*
X035033Y036073*
X035028*
X035024Y036074*
X035021*
X035019*
X035018Y036075*
X035017*
X035007Y036078*
X034997Y036081*
X034989Y036085*
X034981Y036089*
X034974Y036093*
X034969Y036096*
X034965Y036098*
Y036099*
X034964*
X034955Y036106*
X034946Y036115*
X034939Y036123*
X034932Y036131*
X034927Y036138*
X034924Y036144*
X034922Y036146*
X034921Y036148*
X034920Y036149*
X034915Y036162*
X034910Y036175*
X034908Y036189*
X034905Y036201*
Y036207*
X034904Y036212*
Y036217*
X034903Y036221*
Y036224*
Y036226*
Y036228*
X034904Y036240*
Y036251*
X034906Y036261*
X034908Y036270*
X034910Y036279*
X034913Y036287*
X034915Y036295*
X034918Y036302*
X034921Y036308*
X034924Y036313*
X034926Y036318*
X034929Y036322*
X034930Y036325*
X034932Y036327*
X034933Y036328*
X034939Y036336*
X034945Y036342*
X034951Y036347*
X034958Y036353*
X034970Y036362*
X034981Y036368*
X034991Y036373*
X034996Y036375*
X035000Y036377*
X035002Y036378*
X035005*
X035006Y036379*
X035007*
X035013Y036380*
X035020Y036382*
X035029Y036383*
X035038*
X035048Y036384*
X035058Y036385*
X035079Y036386*
X035089*
X035098*
X035107Y036387*
X035296*
Y035874*
G37*
G36*
X030485D02*
X030382D01*
Y036029*
X030299Y036115*
X030157Y035874*
X030024*
X030227Y036187*
X030034Y036387*
X030173*
X030382Y036159*
Y036387*
X030485*
Y035874*
G37*
G36*
X032037D02*
X031933D01*
Y036099*
X031730*
Y035874*
X031627*
Y036387*
X031730*
Y036185*
X031933*
Y036387*
X032037*
Y035874*
G37*
G36*
X033768Y035129D02*
X033789Y035127D01*
X033798Y035125*
X033808Y035123*
X033816Y035122*
X033824Y035120*
X033831Y035118*
X033837Y035116*
X033843Y035114*
X033847Y035113*
X033850Y035111*
X033853*
X033855Y035109*
X033869Y035103*
X033881Y035096*
X033892Y035088*
X033902Y035081*
X033910Y035074*
X033914Y035071*
X033916Y035068*
X033919Y035066*
X033920Y035065*
X033921Y035064*
X033922Y035063*
X033932Y035051*
X033942Y035040*
X033950Y035027*
X033957Y035017*
X033962Y035007*
X033964Y035003*
X033966Y035000*
X033967Y034997*
X033969Y034995*
Y034993*
X033973Y034983*
X033977Y034972*
X033982Y034950*
X033987Y034928*
X033988Y034917*
X033990Y034907*
Y034897*
X033991Y034889*
X033992Y034881*
Y034875*
Y034869*
Y034865*
Y034863*
Y034861*
Y034839*
X033990Y034818*
X033986Y034798*
X033982Y034780*
X033977Y034763*
X033971Y034747*
X033965Y034733*
X033959Y034720*
X033952Y034708*
X033946Y034698*
X033941Y034689*
X033936Y034682*
X033931Y034677*
X033928Y034673*
X033926Y034670*
X033925Y034669*
X033912Y034657*
X033898Y034647*
X033884Y034637*
X033869Y034629*
X033854Y034623*
X033838Y034617*
X033824Y034612*
X033809Y034609*
X033796Y034606*
X033784Y034604*
X033772Y034602*
X033763Y034601*
X033755*
X033749Y034600*
X033744*
X033723Y034601*
X033703Y034603*
X033685Y034607*
X033668Y034611*
X033652Y034616*
X033637Y034622*
X033623Y034628*
X033611Y034635*
X033600Y034642*
X033591Y034648*
X033582Y034654*
X033576Y034659*
X033570Y034663*
X033567Y034667*
X033564Y034669*
X033563Y034670*
X033551Y034684*
X033541Y034698*
X033532Y034714*
X033524Y034730*
X033518Y034746*
X033512Y034762*
X033508Y034778*
X033504Y034793*
X033501Y034808*
X033499Y034821*
X033498Y034833*
X033497Y034844*
X033496Y034853*
Y034856*
Y034859*
Y034861*
Y034863*
Y034864*
Y034887*
X033498Y034909*
X033502Y034929*
X033506Y034947*
X033511Y034965*
X033517Y034981*
X033523Y034996*
X033530Y035008*
X033536Y035021*
X033542Y035031*
X033548Y035040*
X033553Y035047*
X033558Y035052*
X033561Y035056*
X033563Y035059*
X033564Y035060*
X033577Y035072*
X033591Y035083*
X033606Y035092*
X033621Y035100*
X033636Y035107*
X033651Y035113*
X033665Y035117*
X033680Y035121*
X033693Y035124*
X033705Y035126*
X033717Y035128*
X033726Y035129*
X033734*
X033740Y035130*
X033745*
X033768Y035129*
G37*
G36*
X030605Y034609D02*
X030496D01*
X030453Y034726*
X030248*
X030203Y034609*
X030091*
X030296Y035122*
X030406*
X030605Y034609*
G37*
G36*
X034184Y034790D02*
Y034779D01*
X034185Y034769*
X034186Y034759*
X034187Y034751*
X034188Y034743*
X034189Y034737*
X034190Y034730*
X034192Y034725*
X034193Y034721*
X034194Y034717*
X034195Y034714*
X034197Y034712*
X034198Y034710*
Y034709*
X034199Y034708*
X034205Y034701*
X034213Y034697*
X034220Y034693*
X034229Y034690*
X034236Y034689*
X034242*
X034244Y034688*
X034248*
X034254Y034689*
X034260*
X034270Y034693*
X034279Y034697*
X034286Y034702*
X034292Y034707*
X034295Y034711*
X034298Y034714*
X034299Y034715*
X034301Y034719*
X034303Y034723*
X034305Y034733*
X034308Y034743*
X034309Y034754*
X034310Y034763*
X034311Y034767*
Y034771*
Y034774*
Y034776*
Y034778*
X034409Y034767*
Y034752*
X034408Y034738*
X034405Y034725*
X034403Y034713*
X034400Y034702*
X034396Y034692*
X034393Y034682*
X034389Y034674*
X034385Y034667*
X034381Y034660*
X034378Y034654*
X034375Y034650*
X034372Y034647*
X034370Y034644*
X034369Y034643*
X034368Y034642*
X034360Y034635*
X034351Y034628*
X034342Y034623*
X034333Y034618*
X034323Y034614*
X034313Y034611*
X034304Y034608*
X034294Y034606*
X034285Y034603*
X034278Y034602*
X034270Y034601*
X034264*
X034259*
X034255Y034600*
X034252*
X034240Y034601*
X034228*
X034218Y034602*
X034208Y034604*
X034199Y034606*
X034190Y034608*
X034182Y034611*
X034175Y034613*
X034169Y034616*
X034163Y034618*
X034158Y034621*
X034154Y034623*
X034151Y034624*
X034149Y034626*
X034148*
X034147Y034627*
X034140Y034632*
X034133Y034638*
X034122Y034649*
X034113Y034662*
X034105Y034673*
X034099Y034683*
X034097Y034688*
X034096Y034692*
X034094Y034694*
X034093Y034697*
Y034698*
Y034699*
X034091Y034705*
X034089Y034713*
X034086Y034729*
X034084Y034745*
X034083Y034760*
X034082Y034768*
Y034775*
Y034781*
X034081Y034786*
Y034790*
Y034794*
Y034796*
Y035122*
X034184*
Y034790*
G37*
G36*
X035615Y036394D02*
X035625Y036393D01*
X035635Y036392*
X035643Y036391*
X035652Y036389*
X035659Y036388*
X035666Y036386*
X035673Y036384*
X035678Y036382*
X035683Y036381*
X035687Y036379*
X035690Y036378*
X035693Y036377*
X035694*
X035695*
X035709Y036369*
X035722Y036361*
X035733Y036353*
X035742Y036344*
X035749Y036337*
X035754Y036331*
X035756Y036328*
X035757Y036327*
X035758Y036326*
Y036325*
X035766Y036312*
X035771Y036300*
X035775Y036287*
X035778Y036276*
X035779Y036266*
X035780Y036262*
Y036258*
X035781Y036256*
Y036253*
Y036252*
X035780Y036241*
X035778Y036230*
X035776Y036220*
X035773Y036210*
X035769Y036201*
X035766Y036192*
X035761Y036185*
X035757Y036177*
X035753Y036171*
X035748Y036165*
X035745Y036160*
X035741Y036156*
X035738Y036153*
X035736Y036151*
X035734Y036149*
X035733*
X035727Y036143*
X035719Y036138*
X035710Y036133*
X035701Y036128*
X035682Y036120*
X035662Y036112*
X035653Y036109*
X035645Y036106*
X035637Y036104*
X035630Y036102*
X035625Y036100*
X035621Y036099*
X035618Y036098*
X035617*
X035605Y036095*
X035595Y036093*
X035585Y036090*
X035577Y036088*
X035569Y036086*
X035562Y036084*
X035556Y036083*
X035551Y036081*
X035547Y036080*
X035544Y036079*
X035540Y036078*
X035538Y036077*
X035536Y036076*
X035535*
X035534*
X035525Y036072*
X035517Y036069*
X035511Y036065*
X035505Y036061*
X035502Y036058*
X035499Y036056*
X035498Y036054*
X035497*
X035493Y036049*
X035490Y036044*
X035489Y036038*
X035487Y036033*
X035486Y036029*
Y036026*
Y036023*
Y036018*
X035487Y036013*
X035490Y036003*
X035494Y035994*
X035499Y035987*
X035503Y035982*
X035508Y035977*
X035510Y035974*
X035511Y035973*
X035516Y035969*
X035522Y035966*
X035534Y035961*
X035547Y035957*
X035559Y035955*
X035570Y035953*
X035575*
X035579*
X035582Y035952*
X035587*
X035604Y035953*
X035619Y035956*
X035632Y035959*
X035643Y035964*
X035647Y035966*
X035651Y035968*
X035655Y035970*
X035658Y035972*
X035660Y035973*
X035662Y035974*
Y035975*
X035663*
X035668Y035980*
X035672Y035985*
X035680Y035997*
X035687Y036010*
X035692Y036022*
X035695Y036033*
X035697Y036038*
X035698Y036042*
Y036045*
X035699Y036048*
X035700Y036050*
X035800Y036040*
X035798Y036025*
X035794Y036010*
X035791Y035996*
X035786Y035984*
X035781Y035972*
X035776Y035961*
X035771Y035952*
X035765Y035943*
X035760Y035935*
X035755Y035928*
X035750Y035923*
X035746Y035918*
X035743Y035914*
X035740Y035912*
X035738Y035910*
Y035909*
X035727Y035902*
X035716Y035895*
X035705Y035889*
X035692Y035884*
X035680Y035879*
X035668Y035876*
X035656Y035873*
X035643Y035871*
X035632Y035869*
X035622Y035867*
X035612Y035866*
X035605*
X035598*
X035593Y035865*
X035576*
X035565Y035866*
X035553Y035867*
X035543Y035868*
X035533Y035869*
X035524Y035871*
X035515Y035872*
X035508Y035874*
X035501Y035876*
X035495Y035878*
X035489Y035879*
X035485Y035880*
X035481Y035882*
X035479Y035883*
X035478*
X035477*
X035461Y035891*
X035447Y035900*
X035435Y035910*
X035425Y035919*
X035418Y035927*
X035415Y035931*
X035412Y035934*
X035410Y035937*
X035409Y035939*
X035408Y035940*
X035403Y035948*
X035399Y035955*
X035393Y035970*
X035389Y035984*
X035386Y035996*
X035385Y036002*
X035384Y036007*
X035383Y036012*
Y036016*
Y036019*
Y036021*
Y036023*
X035384Y036040*
X035386Y036056*
X035389Y036070*
X035391Y036076*
X035393Y036082*
X035395Y036087*
X035397Y036091*
X035398Y036095*
X035400Y036099*
X035402Y036101*
Y036103*
X035403Y036104*
Y036105*
X035412Y036116*
X035421Y036127*
X035430Y036136*
X035439Y036144*
X035448Y036149*
X035454Y036154*
X035457Y036155*
X035459Y036156*
X035460Y036157*
X035468Y036160*
X035475Y036164*
X035484Y036167*
X035493Y036171*
X035511Y036177*
X035530Y036182*
X035538Y036185*
X035546Y036187*
X035553Y036189*
X035560Y036191*
X035565Y036192*
X035569Y036193*
X035571Y036194*
X035572*
X035585Y036197*
X035597Y036200*
X035609Y036204*
X035619Y036207*
X035627Y036210*
X035635Y036212*
X035642Y036215*
X035647Y036217*
X035652Y036220*
X035657Y036222*
X035660Y036223*
X035662Y036225*
X035665Y036226*
X035666Y036227*
X035667Y036228*
X035672Y036233*
X035676Y036238*
X035678Y036243*
X035680Y036248*
X035681Y036252*
X035682Y036256*
Y036258*
Y036259*
X035681Y036266*
X035679Y036272*
X035677Y036278*
X035673Y036282*
X035671Y036286*
X035668Y036288*
X035666Y036290*
Y036291*
X035655Y036297*
X035644Y036302*
X035632Y036305*
X035621Y036307*
X035610Y036308*
X035606Y036309*
X035602Y036310*
X035595*
X035579Y036309*
X035566Y036307*
X035555Y036304*
X035545Y036301*
X035538Y036297*
X035533Y036295*
X035530Y036292*
X035529*
X035521Y036285*
X035515Y036276*
X035510Y036266*
X035506Y036257*
X035504Y036249*
X035503Y036245*
X035501Y036242*
Y036240*
Y036237*
X035500Y036236*
X035397Y036240*
X035398Y036252*
X035400Y036265*
X035403Y036276*
X035407Y036287*
X035410Y036297*
X035415Y036306*
X035419Y036315*
X035424Y036322*
X035429Y036329*
X035433Y036335*
X035437Y036341*
X035441Y036344*
X035444Y036348*
X035446Y036351*
X035448Y036352*
X035449*
X035458Y036360*
X035469Y036366*
X035480Y036372*
X035492Y036377*
X035504Y036381*
X035516Y036384*
X035528Y036387*
X035539Y036389*
X035550Y036392*
X035561Y036393*
X035570Y036394*
X035578*
X035584Y036395*
X035594*
X035615Y036394*
G37*
G36*
X029330Y036300D02*
X029178D01*
Y035874*
X029075*
Y036300*
X028924*
Y036387*
X029330*
Y036300*
G37*
G36*
X029812Y036394D02*
X029822Y036393D01*
X029832Y036392*
X029840Y036391*
X029849Y036389*
X029856Y036388*
X029863Y036386*
X029870Y036384*
X029875Y036382*
X029880Y036381*
X029884Y036379*
X029887Y036378*
X029890Y036377*
X029891*
X029906Y036369*
X029919Y036361*
X029930Y036353*
X029939Y036344*
X029946Y036337*
X029951Y036331*
X029953Y036328*
X029954Y036327*
X029955Y036326*
Y036325*
X029963Y036312*
X029968Y036300*
X029972Y036287*
X029975Y036276*
X029976Y036266*
X029977Y036262*
Y036258*
Y036256*
Y036253*
Y036252*
Y036241*
X029975Y036230*
X029973Y036220*
X029970Y036210*
X029966Y036201*
X029963Y036192*
X029958Y036185*
X029954Y036177*
X029950Y036171*
X029945Y036165*
X029941Y036160*
X029938Y036156*
X029935Y036153*
X029933Y036151*
X029931Y036149*
X029930*
X029924Y036143*
X029916Y036138*
X029907Y036133*
X029898Y036128*
X029879Y036120*
X029859Y036112*
X029850Y036109*
X029842Y036106*
X029834Y036104*
X029827Y036102*
X029822Y036100*
X029818Y036099*
X029815Y036098*
X029814*
X029802Y036095*
X029792Y036093*
X029782Y036090*
X029774Y036088*
X029766Y036086*
X029759Y036084*
X029753Y036083*
X029748Y036081*
X029744Y036080*
X029741Y036079*
X029737Y036078*
X029735Y036077*
X029733Y036076*
X029732*
X029731*
X029722Y036072*
X029714Y036069*
X029708Y036065*
X029702Y036061*
X029699Y036058*
X029696Y036056*
X029694Y036054*
X029690Y036049*
X029687Y036044*
X029686Y036038*
X029684Y036033*
X029683Y036029*
Y036026*
Y036023*
Y036018*
X029684Y036013*
X029687Y036003*
X029691Y035994*
X029696Y035987*
X029700Y035982*
X029704Y035977*
X029707Y035974*
X029708Y035973*
X029713Y035969*
X029719Y035966*
X029731Y035961*
X029744Y035957*
X029756Y035955*
X029767Y035953*
X029772*
X029776*
X029779Y035952*
X029784*
X029801Y035953*
X029816Y035956*
X029829Y035959*
X029840Y035964*
X029844Y035966*
X029848Y035968*
X029852Y035970*
X029855Y035972*
X029857Y035973*
X029859Y035974*
Y035975*
X029860*
X029865Y035980*
X029869Y035985*
X029877Y035997*
X029884Y036010*
X029889Y036022*
X029892Y036033*
X029894Y036038*
X029895Y036042*
Y036045*
X029896Y036048*
Y036050*
X029997Y036040*
X029995Y036025*
X029991Y036010*
X029987Y035996*
X029983Y035984*
X029978Y035972*
X029973Y035961*
X029968Y035952*
X029962Y035943*
X029957Y035935*
X029952Y035928*
X029947Y035923*
X029943Y035918*
X029940Y035914*
X029937Y035912*
X029935Y035910*
Y035909*
X029924Y035902*
X029913Y035895*
X029901Y035889*
X029889Y035884*
X029877Y035879*
X029865Y035876*
X029853Y035873*
X029840Y035871*
X029829Y035869*
X029819Y035867*
X029809Y035866*
X029802*
X029795*
X029790Y035865*
X029773*
X029762Y035866*
X029750Y035867*
X029740Y035868*
X029730Y035869*
X029721Y035871*
X029712Y035872*
X029704Y035874*
X029698Y035876*
X029692Y035878*
X029686Y035879*
X029682Y035880*
X029678Y035882*
X029676Y035883*
X029674*
X029658Y035891*
X029644Y035900*
X029632Y035910*
X029622Y035919*
X029615Y035927*
X029612Y035931*
X029609Y035934*
X029607Y035937*
X029606Y035939*
X029605Y035940*
X029600Y035948*
X029596Y035955*
X029590Y035970*
X029586Y035984*
X029583Y035996*
X029582Y036002*
X029581Y036007*
X029580Y036012*
Y036016*
Y036019*
Y036021*
Y036023*
X029581Y036040*
X029583Y036056*
X029586Y036070*
X029588Y036076*
X029590Y036082*
X029592Y036087*
X029593Y036091*
X029595Y036095*
X029597Y036099*
X029598Y036101*
X029599Y036103*
X029600Y036104*
Y036105*
X029608Y036116*
X029618Y036127*
X029627Y036136*
X029636Y036144*
X029644Y036149*
X029651Y036154*
X029654Y036155*
X029656Y036156*
X029657Y036157*
X029664Y036160*
X029672Y036164*
X029681Y036167*
X029690Y036171*
X029708Y036177*
X029727Y036182*
X029735Y036185*
X029743Y036187*
X029750Y036189*
X029757Y036191*
X029762Y036192*
X029765Y036193*
X029768Y036194*
X029769*
X029782Y036197*
X029794Y036200*
X029805Y036204*
X029815Y036207*
X029824Y036210*
X029832Y036212*
X029839Y036215*
X029844Y036217*
X029849Y036220*
X029854Y036222*
X029857Y036223*
X029859Y036225*
X029862Y036226*
X029863Y036227*
X029864Y036228*
X029869Y036233*
X029873Y036238*
X029875Y036243*
X029877Y036248*
X029878Y036252*
X029879Y036256*
Y036258*
Y036259*
X029878Y036266*
X029876Y036272*
X029874Y036278*
X029870Y036282*
X029868Y036286*
X029865Y036288*
X029863Y036290*
Y036291*
X029852Y036297*
X029841Y036302*
X029829Y036305*
X029818Y036307*
X029807Y036308*
X029803Y036309*
X029799Y036310*
X029792*
X029776Y036309*
X029763Y036307*
X029752Y036304*
X029742Y036301*
X029735Y036297*
X029730Y036295*
X029727Y036292*
X029726*
X029718Y036285*
X029712Y036276*
X029707Y036266*
X029703Y036257*
X029701Y036249*
X029699Y036245*
X029698Y036242*
Y036240*
Y036237*
X029697Y036236*
X029594Y036240*
X029595Y036252*
X029597Y036265*
X029600Y036276*
X029603Y036287*
X029607Y036297*
X029612Y036306*
X029616Y036315*
X029621Y036322*
X029626Y036329*
X029630Y036335*
X029634Y036341*
X029638Y036344*
X029641Y036348*
X029643Y036351*
X029645Y036352*
X029646*
X029655Y036360*
X029666Y036366*
X029677Y036372*
X029689Y036377*
X029701Y036381*
X029713Y036384*
X029725Y036387*
X029736Y036389*
X029747Y036392*
X029758Y036393*
X029767Y036394*
X029775*
X029781Y036395*
X029790*
X029812Y036394*
G37*
G36*
X030911Y035242D02*
X030808D01*
Y035466*
X030605*
Y035242*
X030501*
Y035754*
X030605*
Y035553*
X030808*
Y035754*
X030911*
Y035242*
G37*
G36*
X028653Y036394D02*
X028674Y036392D01*
X028684Y036390*
X028693Y036388*
X028702Y036387*
X028709Y036385*
X028717Y036383*
X028723Y036381*
X028728Y036379*
X028733Y036378*
X028736Y036376*
X028739*
X028740Y036374*
X028741*
X028754Y036368*
X028766Y036361*
X028778Y036353*
X028788Y036346*
X028796Y036339*
X028799Y036336*
X028802Y036333*
X028804Y036331*
X028806Y036329*
X028807*
X028808Y036328*
X028818Y036316*
X028828Y036305*
X028836Y036292*
X028843Y036282*
X028848Y036272*
X028850Y036268*
X028851Y036265*
X028853Y036262*
X028854Y036260*
X028855Y036258*
X028859Y036248*
X028863Y036237*
X028868Y036215*
X028872Y036193*
X028874Y036182*
X028875Y036172*
X028876Y036162*
X028877Y036154*
Y036146*
Y036140*
X028878Y036134*
Y036130*
Y036127*
Y036126*
X028877Y036104*
X028875Y036083*
X028872Y036063*
X028867Y036045*
X028863Y036028*
X028857Y036012*
X028851Y035998*
X028844Y035985*
X028838Y035973*
X028832Y035963*
X028826Y035954*
X028821Y035947*
X028817Y035942*
X028814Y035938*
X028811Y035935*
Y035934*
X028798Y035922*
X028784Y035912*
X028769Y035902*
X028754Y035894*
X028739Y035888*
X028724Y035882*
X028709Y035877*
X028695Y035874*
X028682Y035871*
X028669Y035869*
X028658Y035867*
X028648Y035866*
X028640*
X028634Y035865*
X028629*
X028609Y035866*
X028589Y035868*
X028571Y035872*
X028553Y035876*
X028537Y035881*
X028522Y035887*
X028509Y035893*
X028497Y035900*
X028486Y035907*
X028476Y035913*
X028468Y035919*
X028461Y035924*
X028456Y035928*
X028452Y035932*
X028450Y035934*
X028449Y035935*
X028437Y035949*
X028427Y035963*
X028417Y035979*
X028410Y035995*
X028404Y036011*
X028398Y036027*
X028394Y036043*
X028390Y036058*
X028387Y036073*
X028385Y036086*
X028384Y036098*
X028382Y036109*
Y036117*
X028381Y036121*
Y036124*
Y036126*
Y036127*
Y036129*
X028382Y036152*
X028384Y036174*
X028387Y036194*
X028392Y036212*
X028397Y036230*
X028403Y036246*
X028409Y036261*
X028415Y036273*
X028422Y036286*
X028428Y036296*
X028433Y036305*
X028439Y036312*
X028443Y036317*
X028447Y036321*
X028449Y036324*
X028450Y036325*
X028463Y036337*
X028477Y036348*
X028491Y036357*
X028506Y036365*
X028522Y036372*
X028537Y036378*
X028551Y036382*
X028566Y036386*
X028579Y036389*
X028591Y036391*
X028602Y036393*
X028612Y036394*
X028619*
X028626Y036395*
X028631*
X028653Y036394*
G37*
G36*
X033678Y035874D02*
X033568D01*
X033526Y035991*
X033321*
X033276Y035874*
X033163*
X033369Y036387*
X033478*
X033678Y035874*
G37*
G36*
X033106D02*
X032746D01*
Y035961*
X033003*
Y036382*
X033106*
Y035874*
G37*
G36*
X033828D02*
X033724D01*
Y036387*
X033828*
Y035874*
G37*
G36*
X031572D02*
X031463D01*
X031420Y035991*
X031215*
X031170Y035874*
X031058*
X031263Y036387*
X031373*
X031572Y035874*
G37*
G36*
X032509Y036300D02*
X032357D01*
Y035874*
X032254*
Y036300*
X032103*
Y036387*
X032509*
Y036300*
G37*
%LNmotherboard-4*%
%LPC*%
G36*
X035180Y035035D02*
X035069D01*
X035061*
X035048*
X035042Y035034*
X035034*
X035031Y035033*
X035027*
X035025*
X035024*
X035015Y035031*
X035007Y035028*
X035000Y035025*
X034995Y035021*
X034990Y035018*
X034987Y035016*
X034985Y035013*
X034980Y035006*
X034977Y035000*
X034974Y034993*
X034972Y034986*
X034971Y034980*
Y034976*
Y034972*
Y034971*
Y034963*
X034972Y034955*
X034974Y034949*
X034976Y034943*
X034978Y034939*
X034980Y034935*
X034981Y034933*
Y034932*
X034986Y034927*
X034990Y034922*
X034995Y034919*
X035000Y034916*
X035004Y034914*
X035007Y034912*
X035010Y034911*
X035011*
X035015Y034910*
X035020Y034909*
X035026Y034908*
X035033Y034907*
X035048Y034906*
X035064Y034905*
X035079*
X035086*
X035180*
Y035035*
G37*
G36*
X035697Y035668D02*
X035629D01*
X035620Y035667*
X035611*
X035603Y035666*
X035596*
X035590Y035665*
X035585*
X035580*
X035576Y035664*
X035572*
X035570Y035663*
X035568*
X035567*
X035566*
X035555Y035660*
X035546Y035656*
X035537Y035652*
X035531Y035648*
X035525Y035644*
X035521Y035641*
X035519Y035639*
X035518Y035638*
X035511Y035631*
X035505Y035623*
X035500Y035615*
X035496Y035607*
X035493Y035600*
X035490Y035594*
X035489Y035592*
Y035590*
X035488Y035589*
X035486Y035583*
X035485Y035576*
X035482Y035561*
X035480Y035546*
X035479Y035532*
Y035524*
X035478Y035518*
Y035513*
Y035508*
Y035503*
Y035501*
Y035498*
Y035487*
Y035477*
X035479Y035467*
Y035458*
X035480Y035449*
X035481Y035442*
X035482Y035435*
X035483Y035428*
X035484Y035423*
X035485Y035418*
X035486Y035414*
Y035410*
X035487Y035407*
X035488Y035406*
Y035405*
Y035404*
X035493Y035392*
X035497Y035382*
X035501Y035373*
X035506Y035366*
X035509Y035361*
X035513Y035357*
X035515Y035355*
X035522Y035350*
X035529Y035345*
X035536Y035341*
X035542Y035338*
X035548Y035336*
X035552Y035334*
X035556Y035333*
X035557*
X035561Y035332*
X035565Y035331*
X035575Y035330*
X035585*
X035596Y035329*
X035605Y035328*
X035697*
Y035668*
G37*
G36*
X035180D02*
X035069D01*
X035061Y035667*
X035048*
X035042Y035666*
X035034*
X035031*
X035027*
X035025Y035665*
X035024*
X035015Y035663*
X035007Y035660*
X035000Y035658*
X034995Y035654*
X034990Y035651*
X034987Y035648*
X034985Y035646*
Y035645*
X034980Y035639*
X034977Y035632*
X034974Y035625*
X034972Y035619*
X034971Y035613*
Y035608*
Y035605*
Y035604*
Y035595*
X034972Y035588*
X034974Y035581*
X034976Y035575*
X034978Y035571*
X034980Y035568*
X034981Y035565*
X034986Y035559*
X034990Y035555*
X034995Y035551*
X035000Y035548*
X035004Y035546*
X035007Y035544*
X035010*
X035011Y035543*
X035015Y035542*
X035020Y035541*
X035026Y035540*
X035033*
X035048Y035539*
X035064Y035538*
X035079*
X035086Y035537*
X035180*
Y035668*
G37*
G36*
X032596Y034833D02*
X032500D01*
X032488Y034832*
X032478*
X032468Y034831*
X032460*
X032452Y034830*
X032446Y034829*
X032440*
X032435Y034828*
X032431Y034827*
X032428Y034826*
X032425*
X032423Y034825*
X032422*
X032421*
X032413Y034821*
X032407Y034818*
X032401Y034814*
X032397Y034810*
X032393Y034807*
X032391Y034804*
X032389Y034802*
X032388Y034801*
X032385Y034795*
X032382Y034789*
X032380Y034782*
X032378Y034776*
X032377Y034771*
Y034766*
Y034764*
Y034763*
Y034753*
X032379Y034744*
X032382Y034737*
X032384Y034731*
X032387Y034726*
X032390Y034722*
X032391Y034720*
X032392Y034719*
X032397Y034714*
X032404Y034709*
X032410Y034706*
X032416Y034703*
X032421Y034701*
X032426Y034700*
X032428Y034699*
X032429*
X032433Y034698*
X032437*
X032442*
X032447Y034697*
X032458*
X032471*
X032482Y034696*
X032596*
Y034833*
G37*
G36*
Y035036D02*
X032501D01*
X032492*
X032477*
X032470Y035035*
X032461*
X032457*
X032452*
X032450Y035034*
X032448*
X032439Y035032*
X032431Y035030*
X032424Y035027*
X032419Y035024*
X032415Y035021*
X032411Y035018*
X032410Y035017*
X032409Y035016*
X032405Y035010*
X032401Y035004*
X032399Y034997*
X032397Y034991*
X032396Y034986*
Y034982*
Y034979*
Y034978*
Y034969*
X032398Y034961*
X032401Y034954*
X032403Y034949*
X032406Y034944*
X032409Y034940*
X032411Y034938*
Y034937*
X032417Y034932*
X032424Y034929*
X032431Y034925*
X032438Y034923*
X032443Y034921*
X032448Y034920*
X032452*
X032456*
X032461Y034919*
X032466*
X032471*
X032483*
X032496Y034918*
X032596*
Y035036*
G37*
G36*
X035697Y035035D02*
X035629D01*
X035620*
X035611*
X035603Y035034*
X035596Y035033*
X035590*
X035585*
X035580Y035032*
X035576*
X035572Y035031*
X035570*
X035568*
X035567Y035030*
X035566*
X035555Y035027*
X035546Y035023*
X035537Y035020*
X035531Y035016*
X035525Y035012*
X035521Y035008*
X035519Y035006*
X035518*
X035511Y034998*
X035505Y034991*
X035500Y034982*
X035496Y034975*
X035493Y034967*
X035490Y034961*
X035489Y034960*
Y034958*
X035488Y034957*
Y034956*
X035486Y034950*
X035485Y034944*
X035482Y034929*
X035480Y034914*
X035479Y034899*
Y034892*
X035478Y034886*
Y034880*
Y034875*
Y034871*
Y034868*
Y034866*
Y034865*
Y034855*
Y034844*
X035479Y034835*
Y034825*
X035480Y034817*
X035481Y034810*
X035482Y034803*
X035483Y034796*
X035484Y034790*
X035485Y034785*
X035486Y034781*
Y034778*
X035487Y034775*
X035488Y034773*
Y034772*
Y034771*
X035493Y034759*
X035497Y034749*
X035501Y034741*
X035506Y034734*
X035509Y034729*
X035513Y034725*
X035515Y034723*
Y034722*
X035522Y034717*
X035529Y034713*
X035536Y034709*
X035542Y034705*
X035548Y034703*
X035552Y034702*
X035556Y034701*
Y034700*
X035557*
X035561*
X035565Y034699*
X035575Y034698*
X035585Y034697*
X035596*
X035605Y034696*
X035697*
Y035035*
G37*
G36*
X031942Y035635D02*
X031871Y035445D01*
X032012*
X031942Y035635*
G37*
G36*
X034168D02*
X034097Y035445D01*
X034238*
X034168Y035635*
G37*
G36*
X032079Y035035D02*
X031968D01*
X031961*
X031947*
X031942Y035034*
X031933*
X031931Y035033*
X031926*
X031924*
X031923*
X031914Y035031*
X031906Y035028*
X031899Y035025*
X031894Y035021*
X031889Y035018*
X031887Y035016*
X031884Y035013*
X031879Y035006*
X031876Y035000*
X031873Y034993*
X031872Y034986*
X031871Y034980*
X031870Y034976*
Y034972*
Y034971*
X031871Y034963*
X031872Y034955*
X031873Y034949*
X031875Y034943*
X031877Y034939*
X031879Y034935*
X031880Y034933*
X031881Y034932*
X031885Y034927*
X031889Y034922*
X031894Y034919*
X031899Y034916*
X031903Y034914*
X031907Y034912*
X031909Y034911*
X031910*
X031914Y034910*
X031919Y034909*
X031926Y034908*
X031932Y034907*
X031947Y034906*
X031963Y034905*
X031978*
X031985*
X032079*
Y035035*
G37*
G36*
X031465Y035002D02*
X031394Y034813D01*
X031534*
X031465Y035002*
G37*
G36*
X035192Y036300D02*
X035123D01*
X035115*
X035107*
X035101Y036299*
X035095*
X035089Y036298*
X035084*
X035080*
X035077Y036297*
X035074*
X035072*
X035069Y036296*
X035068*
X035059Y036294*
X035051Y036291*
X035044Y036287*
X035038Y036283*
X035033Y036280*
X035029Y036276*
X035027Y036274*
X035026Y036273*
X035021Y036266*
X035017Y036258*
X035014Y036251*
X035012Y036243*
X035011Y036237*
X035010Y036232*
Y036228*
Y036227*
Y036219*
X035011Y036211*
X035014Y036205*
X035016Y036199*
X035018Y036194*
X035020Y036191*
X035021Y036188*
X035022Y036187*
X035026Y036181*
X035032Y036176*
X035037Y036172*
X035042Y036168*
X035047Y036165*
X035051Y036164*
X035053Y036162*
X035054*
X035059Y036161*
X035064Y036159*
X035069*
X035076Y036157*
X035089Y036156*
X035102Y036155*
X035115*
X035121Y036154*
X035192*
Y036300*
G37*
G36*
X033750Y035042D02*
X033744D01*
X033732Y035041*
X033721Y035040*
X033710Y035038*
X033701Y035035*
X033692Y035032*
X033683Y035028*
X033675Y035024*
X033668Y035020*
X033662Y035016*
X033657Y035012*
X033652Y035008*
X033648Y035005*
X033645Y035002*
X033643Y035000*
X033642Y034998*
X033641*
X033634Y034990*
X033628Y034980*
X033623Y034970*
X033618Y034959*
X033615Y034949*
X033612Y034937*
X033609Y034926*
X033607Y034916*
X033606Y034906*
X033604Y034896*
X033603Y034888*
Y034881*
X033602Y034875*
Y034870*
Y034868*
Y034866*
X033603Y034850*
X033604Y034835*
X033606Y034821*
X033608Y034808*
X033612Y034796*
X033615Y034785*
X033618Y034775*
X033622Y034766*
X033626Y034758*
X033629Y034752*
X033633Y034745*
X033636Y034741*
X033638Y034737*
X033640Y034735*
X033642Y034733*
X033650Y034725*
X033658Y034718*
X033667Y034712*
X033675Y034707*
X033683Y034703*
X033692Y034699*
X033700Y034696*
X033708Y034694*
X033715Y034692*
X033722Y034690*
X033728Y034689*
X033733*
X033738*
X033741Y034688*
X033744*
X033755Y034689*
X033766Y034690*
X033776Y034693*
X033786Y034695*
X033795Y034699*
X033803Y034703*
X033811Y034707*
X033818Y034711*
X033824Y034715*
X033830Y034719*
X033835Y034723*
X033839Y034726*
X033842Y034729*
X033844Y034732*
X033845Y034733*
X033846*
X033853Y034742*
X033859Y034752*
X033864Y034762*
X033869Y034773*
X033873Y034784*
X033876Y034795*
X033879Y034805*
X033881Y034816*
X033882Y034826*
X033884Y034835*
X033885Y034844*
Y034851*
Y034857*
X033886Y034861*
Y034864*
Y034865*
X033885Y034881*
X033884Y034896*
X033882Y034910*
X033880Y034923*
X033877Y034935*
X033874Y034946*
X033870Y034956*
X033866Y034965*
X033862Y034972*
X033859Y034979*
X033856Y034985*
X033853Y034989*
X033850Y034993*
X033849Y034995*
X033848Y034997*
X033847*
X033839Y035005*
X033831Y035012*
X033823Y035018*
X033814Y035023*
X033805Y035027*
X033797Y035031*
X033789Y035034*
X033780Y035036*
X033773Y035038*
X033766Y035040*
X033760Y035041*
X033754*
X033750Y035042*
G37*
G36*
X030352Y035002D02*
X030281Y034813D01*
X030421*
X030352Y035002*
G37*
G36*
X028635Y036307D02*
X028629D01*
X028618Y036306*
X028607Y036305*
X028596Y036303*
X028587Y036300*
X028577Y036297*
X028569Y036293*
X028561Y036289*
X028554Y036285*
X028548Y036281*
X028542Y036277*
X028538Y036273*
X028534Y036270*
X028531Y036267*
X028528Y036265*
X028527Y036263*
X028520Y036255*
X028514Y036245*
X028509Y036235*
X028504Y036224*
X028501Y036214*
X028497Y036202*
X028495Y036191*
X028493Y036181*
X028491Y036171*
X028490Y036161*
X028489Y036153*
X028488Y036146*
Y036140*
Y036135*
Y036132*
Y036131*
Y036115*
X028490Y036100*
X028492Y036086*
X028494Y036073*
X028497Y036061*
X028501Y036050*
X028504Y036040*
X028508Y036031*
X028512Y036023*
X028515Y036016*
X028518Y036010*
X028522Y036006*
X028524Y036002*
X028526Y036000*
X028527Y035998*
X028528*
X028536Y035990*
X028544Y035983*
X028552Y035977*
X028561Y035972*
X028569Y035968*
X028578Y035964*
X028586Y035961*
X028593Y035959*
X028601Y035957*
X028608Y035955*
X028614Y035954*
X028619*
X028623*
X028627Y035953*
X028629*
X028640Y035954*
X028652Y035955*
X028662Y035958*
X028672Y035960*
X028680Y035964*
X028689Y035968*
X028697Y035972*
X028704Y035976*
X028710Y035980*
X028715Y035984*
X028720Y035988*
X028724Y035991*
X028728Y035994*
X028730Y035996*
X028731Y035998*
X028732*
X028739Y036007*
X028745Y036017*
X028750Y036027*
X028755Y036038*
X028759Y036049*
X028761Y036060*
X028764Y036070*
X028766Y036081*
X028768Y036091*
X028769Y036100*
X028770Y036109*
X028771Y036116*
Y036122*
Y036126*
Y036129*
Y036130*
Y036146*
X028770Y036161*
X028768Y036175*
X028765Y036188*
X028763Y036200*
X028759Y036211*
X028755Y036221*
X028752Y036230*
X028748Y036237*
X028745Y036244*
X028742Y036250*
X028739Y036254*
X028736Y036258*
X028734Y036260*
X028733Y036262*
X028725Y036270*
X028717Y036277*
X028708Y036283*
X028700Y036288*
X028691Y036292*
X028683Y036296*
X028674Y036299*
X028666Y036301*
X028659Y036303*
X028652Y036305*
X028646Y036306*
X028640*
X028635Y036307*
G37*
G36*
X033425Y036267D02*
X033354Y036078D01*
X033494*
X033425Y036267*
G37*
G36*
X031319D02*
X031248Y036078D01*
X031388*
X031319Y036267*
G37*
%LNmotherboard-5*%
%LPD*%
G54D31*
X029300Y024210D02*
X029525Y024435D01*
X031550Y026000D02*
X032550D01*
X020150Y032550D02*
X025541D01*
X025550Y032559*
X037500Y039350D02*
Y040750D01*
X036300Y038150D02*
X037500Y039350D01*
X036300Y027300D02*
Y038150D01*
Y027300D02*
X036950Y026650D01*
X034500Y026150D02*
X035150D01*
X034150Y026500D02*
X034500Y026150D01*
X033100Y026500D02*
X034150D01*
X030541Y032559D02*
X030559Y032541D01*
X025550Y032559D02*
X030541D01*
X024100Y023850D02*
X024550Y024300D01*
X023750Y023850D02*
X024100D01*
X034450Y016100D02*
X038000Y019650D01*
Y025150*
X032430Y016670D02*
X033150Y015950D01*
X032430Y016670D02*
Y018830D01*
X032000Y016300D02*
Y019450D01*
X032350Y019800*
X033150Y015950D02*
X033250D01*
X026700Y028400D02*
X027600Y027500D01*
X019500Y032550D02*
X020150D01*
X029900Y024850D02*
X032050Y022700D01*
X030450Y025250D02*
X032475Y023225D01*
X029300Y024210D02*
Y024250D01*
X021100Y026000D02*
X024850Y022250D01*
X021100Y026000D02*
Y026700D01*
X031150Y020800D02*
X032350D01*
X020500Y026250D02*
X024800Y021950D01*
X020500Y026250D02*
Y026750D01*
X019900Y026450D02*
X024650Y021700D01*
X019900Y026450D02*
Y026750D01*
X030125Y020525D02*
X030300Y020700D01*
X031350Y020250D02*
X031750D01*
X030125Y019775D02*
Y020525D01*
Y019775D02*
X030400Y019500D01*
X029400Y020650D02*
X029850Y021100D01*
X024800Y020650D02*
X029400D01*
X016950Y028500D02*
X024800Y020650D01*
X031100Y019250D02*
Y019800D01*
X028500Y018700D02*
X030550D01*
X031100Y019250*
X027400Y019800D02*
X028500Y018700D01*
X030700Y020200D02*
X031100Y019800D01*
X024600D02*
X027400D01*
X024650Y020300D02*
X027450D01*
X016950Y028500D02*
Y031800D01*
X017350Y028500D02*
Y032250D01*
X027450Y020300D02*
X028150Y019600D01*
X029600*
X029800Y019400*
X016950Y032650D02*
X017350Y032250D01*
X016950Y032650D02*
Y036550D01*
X030400Y019500D02*
X030650D01*
X018250Y025400D02*
X024300Y019350D01*
X027150*
X018150Y025400D02*
X018250D01*
X027150Y019350D02*
X029050Y017450D01*
X017450Y023400D02*
X018550Y024500D01*
X017450Y019200D02*
Y023400D01*
Y019200D02*
X020450Y016200D01*
X023200*
X022350Y019150D02*
X026450D01*
X026750Y017400D02*
Y018850D01*
X026450Y019150D02*
X026750Y018850D01*
X031000Y015600D02*
X032150Y014450D01*
X028550Y015600D02*
X031000D01*
X026750Y017400D02*
X028550Y015600D01*
X032150Y014450D02*
X032600D01*
X031550Y026000D02*
X031600Y026050D01*
X031700*
X015100Y013000D02*
X018200D01*
X018250Y012950*
X014800Y012700D02*
X015100Y013000D01*
X014800Y012300D02*
Y012700D01*
X015100Y013900D02*
X017800D01*
X014100Y012900D02*
X015100Y013900D01*
X018000Y022500D02*
X019550D01*
X026350Y023550D02*
X027400Y022500D01*
X026350Y023550D02*
Y029300D01*
X015800Y010960D02*
Y011300D01*
X015440Y010600D02*
X015800Y010960D01*
X014100Y010790D02*
X014290Y010600D01*
X014100Y010790D02*
Y012900D01*
X014290Y010600D02*
X015440D01*
X028700Y026190D02*
X032245Y029735D01*
X030559Y032181D02*
Y032541D01*
Y032181D02*
X033005Y029735D01*
X032245D02*
X033005D01*
X019255Y032795D02*
Y033605D01*
Y032795D02*
X019500Y032550D01*
X019255Y033605D02*
X019750Y034100D01*
X020450Y034800*
X018510Y034100D02*
X019750D01*
X017950Y034660D02*
X018510Y034100D01*
X017950Y034660D02*
Y036200D01*
X022350Y028650D02*
X022400Y028600D01*
X027400Y022500D02*
X030780D01*
X031530Y021750*
X032450*
X029525Y024435D02*
X031700Y022260D01*
X031800*
X030980Y020970D02*
X031150Y020800D01*
X030640Y020960D02*
X031350Y020250D01*
X024850Y022250D02*
X030620D01*
X031570Y021300*
X031750*
X024800Y021950D02*
X030520D01*
X030980Y021490*
Y020970D02*
Y021490D01*
X024650Y021700D02*
X030390D01*
X030640Y021450*
Y020960D02*
Y021450D01*
X017350Y028500D02*
X024380Y021470D01*
X030050D02*
X030300Y021220D01*
X024380Y021470D02*
X030050D01*
X030300Y020700D02*
Y021220D01*
X022400Y026160D02*
Y028600D01*
X033005Y029735D02*
X033325D01*
X037910Y025150*
X038000*
X032000Y016300D02*
X032970Y015330D01*
X033450*
X019530Y020080D02*
X022320D01*
X022450Y019950*
X033210Y017340D02*
X034450Y016100D01*
X033020Y017340D02*
X033210D01*
X018500Y019250D02*
Y020320D01*
X020370Y022190*
X016800Y011300D02*
X033000D01*
X034450Y012750*
Y016100*
X022000Y042000D02*
X025950D01*
X021350Y042650D02*
X022000Y042000D01*
X015950Y028450D02*
X024600Y019800D01*
X014350Y038950D02*
X015950Y037350D01*
Y028450D02*
Y037350D01*
X016350D02*
X018350Y039350D01*
X016350Y028600D02*
X024650Y020300D01*
X016350Y028600D02*
Y037350D01*
X025950Y040150D02*
Y042000D01*
X018350Y039350D02*
Y039900D01*
X014350Y038950D02*
Y039900D01*
X017950Y036200D02*
X022000D01*
X025950Y040150*
X023850Y039050D02*
Y039450D01*
X019400Y036950D02*
X020650Y038200D01*
X023000*
X023850Y039050*
G54D33*
X012567Y021969D03*
Y022953D03*
X013354D03*
Y021969D03*
G54D34*
X011500Y024831D03*
Y020091D03*
G54D35*
X014800Y011300D03*
Y012300D03*
X015800Y011300D03*
Y012300D03*
X016800Y011300D03*
G54D36*
X016800Y012300D03*
G54D37*
X011500Y043500D03*
G54D38*
X037500Y043500D03*
X038500Y011500D03*
X011500D03*
G54D39*
X013350Y039900D03*
X014350D03*
X015350D03*
X016350D03*
X017350D03*
X018350D03*
X019350D03*
X020350D03*
X021350D03*
G54D40*
X022350Y039900D03*
G54D41*
X038820Y015950D03*
X020410Y017450D03*
X016800Y020900D03*
X013570Y017010D03*
X034310Y024940D03*
X031350Y018650D03*
X038900Y026050D03*
X036950Y026650D03*
X033100Y026500D03*
X025550Y026950D03*
X026350Y029300D03*
X020450Y034800D03*
X027850Y026800D03*
X023750Y023850D03*
X024550Y024300D03*
X025500Y035500D03*
X024300Y037550D03*
X035950Y030150D03*
X031200Y030350D03*
X022250Y030100D03*
X028700Y026190D03*
X038000Y025150D03*
X030559Y032541D03*
X022350Y028650D03*
X025550Y032559D03*
X027600Y027500D03*
X026700Y028400D03*
X020150Y032550D03*
X017950Y036200D03*
X029900Y024850D03*
X030450Y025250D03*
X029300Y024250D03*
X021100Y026700D03*
X019900Y026750D03*
X020500D03*
X037500Y040750D03*
X035150Y026150D03*
X032475Y023225D03*
X032050Y022700D03*
X032450Y021750D03*
X031750Y021300D03*
X032350Y020800D03*
X031750Y020250D03*
X030650Y019500D03*
X029850Y021100D03*
X030700Y020200D03*
X016950Y036550D03*
Y031800D03*
X029800Y019400D03*
X029050Y017450D03*
X018550Y024500D03*
X018150Y025400D03*
X023200Y016200D03*
X032600Y014450D03*
X031700Y026050D03*
X032550Y026000D03*
X032430Y018830D03*
X032350Y019800D03*
X033250Y015950D03*
X018250Y012950D03*
X017800Y013900D03*
X022350Y019150D03*
X022450Y019950D03*
X018500Y019250D03*
X019550Y022500D03*
X018000D03*
X037980Y026840D03*
X031380Y017190D03*
X014550Y025100D03*
X031800Y022260D03*
X022400Y026160D03*
X024330Y013930D03*
X033450Y015330D03*
X033220Y013100D03*
X019530Y020080D03*
X033020Y017340D03*
X020370Y022190D03*
X025900Y043800D03*
G54D42*
X025950Y042000D03*
X021350Y042650D03*
X023850Y039450D03*
X019400Y036950D03*
M02*