%FSDAX24Y24*%
%MOIN*%
%SFA1B1*%

%IPPOS*%
%ADD45C,0.003900*%
%LNmotherboard-1*%
%LPD*%
G54D45*
X025033Y022164D02*
D01*
X025032Y022177*
X025031Y022191*
X025028Y022204*
X025025Y022218*
X025021Y022231*
X025015Y022244*
X025009Y022256*
X025003Y022268*
X024995Y022279*
X024986Y022290*
X024977Y022300*
X024967Y022310*
X024957Y022319*
X024946Y022327*
X024934Y022334*
X024922Y022341*
X024909Y022346*
X024896Y022351*
X024883Y022355*
X024870Y022358*
X024856Y022359*
X024842Y022360*
X024829*
X024815Y022359*
X024801Y022358*
X024788Y022355*
X024775Y022351*
X024762Y022346*
X024749Y022341*
X024737Y022334*
X024725Y022327*
X024714Y022319*
X024704Y022310*
X024694Y022300*
X024685Y022290*
X024676Y022279*
X024668Y022268*
X024662Y022256*
X024656Y022244*
X024650Y022231*
X024646Y022218*
X024643Y022204*
X024640Y022191*
X024639Y022177*
X024639Y022164*
X024639Y022150*
X024640Y022136*
X024643Y022123*
X024646Y022109*
X024650Y022096*
X024656Y022083*
X024662Y022071*
X024668Y022059*
X024676Y022048*
X024685Y022037*
X024694Y022027*
X024704Y022017*
X024714Y022008*
X024725Y022000*
X024737Y021993*
X024749Y021986*
X024762Y021981*
X024775Y021976*
X024788Y021972*
X024801Y021969*
X024815Y021968*
X024829Y021967*
X024842*
X024856Y021968*
X024870Y021969*
X024883Y021972*
X024896Y021976*
X024909Y021981*
X024922Y021986*
X024934Y021993*
X024946Y022000*
X024957Y022008*
X024967Y022017*
X024977Y022027*
X024986Y022037*
X024995Y022048*
X025003Y022059*
X025009Y022071*
X025015Y022083*
X025021Y022096*
X025025Y022109*
X025028Y022123*
X025031Y022136*
X025032Y022150*
X025033Y022164*
X034205Y023767D02*
D01*
X034204Y023780*
X034203Y023794*
X034200Y023807*
X034197Y023821*
X034193Y023834*
X034187Y023847*
X034181Y023859*
X034175Y023871*
X034167Y023882*
X034158Y023893*
X034149Y023903*
X034139Y023913*
X034129Y023922*
X034118Y023930*
X034106Y023937*
X034094Y023944*
X034081Y023949*
X034068Y023954*
X034055Y023958*
X034042Y023961*
X034028Y023962*
X034014Y023963*
X034001*
X033987Y023962*
X033973Y023961*
X033960Y023958*
X033947Y023954*
X033934Y023949*
X033921Y023944*
X033909Y023937*
X033897Y023930*
X033886Y023922*
X033876Y023913*
X033866Y023903*
X033857Y023893*
X033848Y023882*
X033840Y023871*
X033834Y023859*
X033828Y023847*
X033822Y023834*
X033818Y023821*
X033815Y023807*
X033812Y023794*
X033811Y023780*
X033811Y023767*
X033811Y023753*
X033812Y023739*
X033815Y023726*
X033818Y023712*
X033822Y023699*
X033828Y023686*
X033834Y023674*
X033840Y023662*
X033848Y023651*
X033857Y023640*
X033866Y023630*
X033876Y023620*
X033886Y023611*
X033897Y023603*
X033909Y023596*
X033921Y023589*
X033934Y023584*
X033947Y023579*
X033960Y023575*
X033973Y023572*
X033987Y023571*
X034001Y023570*
X034014*
X034028Y023571*
X034042Y023572*
X034055Y023575*
X034068Y023579*
X034081Y023584*
X034094Y023589*
X034106Y023596*
X034118Y023603*
X034129Y023611*
X034139Y023620*
X034149Y023630*
X034158Y023640*
X034167Y023651*
X034175Y023662*
X034181Y023674*
X034187Y023686*
X034193Y023699*
X034197Y023712*
X034200Y023726*
X034203Y023739*
X034204Y023753*
X034205Y023767*
X028698Y024834D02*
Y025366D01*
X027871Y024834D02*
Y025366D01*
Y024834D02*
X028698D01*
X027871Y025366D02*
X028698D01*
X024481Y018582D02*
Y022518D01*
X028419Y018582D02*
Y022518D01*
X024481D02*
X028419D01*
X024481Y018582D02*
X028419D01*
X026624Y040467D02*
Y041333D01*
X027176Y040467D02*
Y041333D01*
X026624Y040467D02*
X027176D01*
X026624Y041333D02*
X027176D01*
X024724Y040472D02*
Y041339D01*
X025276Y040472D02*
Y041339D01*
X024724Y040472D02*
X025276D01*
X024724Y041339D02*
X025276D01*
X022776Y043167D02*
Y044033D01*
X022224Y043167D02*
Y044033D01*
X022776*
X022224Y043167D02*
X022776D01*
X016224D02*
Y044033D01*
X016776Y043167D02*
Y044033D01*
X016224Y043167D02*
X016776D01*
X016224Y044033D02*
X016776D01*
X018224Y043167D02*
Y044033D01*
X018776Y043167D02*
Y044033D01*
X018224Y043167D02*
X018776D01*
X018224Y044033D02*
X018776D01*
X013974Y043167D02*
Y044033D01*
X014526Y043167D02*
Y044033D01*
X013974Y043167D02*
X014526D01*
X013974Y044033D02*
X014526D01*
X015131Y027665D02*
X016469D01*
X015131Y028335D02*
X016469D01*
Y027665D02*
Y028335D01*
X015131Y027665D02*
Y028335D01*
X015367Y028874D02*
X016233D01*
X015367Y029426D02*
X016233D01*
Y028874D02*
Y029426D01*
X015367Y028874D02*
Y029426D01*
X016213Y026534D02*
Y027066D01*
X015387Y026534D02*
Y027066D01*
Y026534D02*
X016213D01*
X015387Y027066D02*
X016213D01*
Y025434D02*
Y025966D01*
X015387Y025434D02*
Y025966D01*
Y025434D02*
X016213D01*
X015387Y025966D02*
X016213D01*
X025621Y012134D02*
Y012666D01*
X026448Y012134D02*
Y012666D01*
X025621D02*
X026448D01*
X025621Y012134D02*
X026448D01*
X031113Y012184D02*
Y012716D01*
X030287Y012184D02*
Y012716D01*
Y012184D02*
X031113D01*
X030287Y012716D02*
X031113D01*
X036387Y024884D02*
Y025416D01*
X037213Y024884D02*
Y025416D01*
X036387D02*
X037213D01*
X036387Y024884D02*
X037213D01*
X038726Y019717D02*
Y020583D01*
X038174Y019717D02*
Y020583D01*
X038726*
X038174Y019717D02*
X038726D01*
X021134Y019737D02*
Y020563D01*
X021666Y019737D02*
Y020563D01*
X021134Y019737D02*
X021666D01*
X021134Y020563D02*
X021666D01*
X030034Y018179D02*
X030566D01*
X030034Y017352D02*
X030566D01*
Y018179*
X030034Y017352D02*
Y018179D01*
X024387Y015084D02*
Y015616D01*
X025213Y015084D02*
Y015616D01*
X024387D02*
X025213D01*
X024387Y015084D02*
X025213D01*
X021234Y022929D02*
X021766D01*
X021234Y022102D02*
X021766D01*
Y022929*
X021234Y022102D02*
Y022929D01*
X021676Y018168D02*
Y019035D01*
X021124Y018168D02*
Y019035D01*
X021676*
X021124Y018168D02*
X021676D01*
X017648Y015984D02*
Y016516D01*
X016821Y015984D02*
Y016516D01*
Y015984D02*
X017648D01*
X016821Y016516D02*
X017648D01*
X016837Y017616D02*
X017663D01*
X016837Y017084D02*
X017663D01*
X016837D02*
Y017616D01*
X017663Y017084D02*
Y017616D01*
X016817Y018174D02*
X017683D01*
X016817Y018726D02*
X017683D01*
Y018174D02*
Y018726D01*
X016817Y018174D02*
Y018726D01*
X015046Y024353D02*
Y024747D01*
X015754Y024353D02*
Y024747D01*
X015046D02*
X015754D01*
X015046Y024353D02*
X015754D01*
X015067Y023284D02*
X015933D01*
X015067Y023816D02*
X015933D01*
Y023284D02*
Y023816D01*
X015067Y023284D02*
Y023816D01*
X015754Y021303D02*
Y021697D01*
X015046Y021303D02*
Y021697D01*
Y021303D02*
X015754D01*
X015046Y021697D02*
X015754D01*
X015067Y022234D02*
X015933D01*
X015067Y022766D02*
X015933D01*
Y022234D02*
Y022766D01*
X015067Y022234D02*
Y022766D01*
X012624Y018167D02*
Y019033D01*
X013176Y018167D02*
Y019033D01*
X012624Y018167D02*
X013176D01*
X012624Y019033D02*
X013176D01*
X020124Y043167D02*
Y044033D01*
X020676Y043167D02*
Y044033D01*
X020124Y043167D02*
X020676D01*
X020124Y044033D02*
X020676D01*
X024821Y024834D02*
Y025366D01*
X025648Y024834D02*
Y025366D01*
X024821D02*
X025648D01*
X024821Y024834D02*
X025648D01*
X023352D02*
Y025366D01*
X024179Y024834D02*
Y025366D01*
X023352D02*
X024179D01*
X023352Y024834D02*
X024179D01*
X033654Y017979D02*
Y024121D01*
X036646Y017979D02*
Y024121D01*
X033654D02*
X036646D01*
X033654Y017979D02*
X036646D01*
X016867Y034876D02*
X017733D01*
X016867Y034324D02*
X017733D01*
X016867D02*
Y034876D01*
X017733Y034324D02*
Y034876D01*
X016917Y033026D02*
X017783D01*
X016917Y032474D02*
X017783D01*
X016917D02*
Y033026D01*
X017783Y032474D02*
Y033026D01*
M02*