%FSDAX24Y24*%
%MOIN*%
%SFA1B1*%

%IPPOS*%
%ADD10R,0.063000X0.055100*%
%ADD11R,0.031500X0.031500*%
%ADD12R,0.118100X0.236200*%
%ADD13R,0.059100X0.023600*%
%ADD14R,0.059100X0.031500*%
%ADD15R,0.047200X0.055100*%
%ADD16O,0.074800X0.023600*%
%ADD17O,0.068900X0.021700*%
%ADD18O,0.021700X0.068900*%
%ADD19R,0.055100X0.045300*%
%ADD20R,0.045300X0.053200*%
%ADD21R,0.110200X0.094500*%
%ADD22R,0.051200X0.066900*%
%ADD23R,0.045300X0.055100*%
%ADD24R,0.216500X0.078700*%
%ADD25R,0.055100X0.047200*%
%ADD26R,0.055900X0.044500*%
%ADD27R,0.044500X0.055900*%
%ADD28R,0.035400X0.039400*%
%ADD29R,0.126000X0.059100*%
%ADD30C,0.040000*%
%ADD31C,0.012000*%
%ADD32C,0.020000*%
%ADD33C,0.066200*%
%ADD34C,0.141000*%
%ADD35C,0.085000*%
%ADD36R,0.085000X0.085000*%
%ADD37R,0.175000X0.175000*%
%ADD38R,0.200000X0.200000*%
%ADD39C,0.075000*%
%ADD40R,0.075000X0.075000*%
%ADD41C,0.035000*%
%ADD42C,0.038000*%
%LNmotherboard-1*%
%LPD*%
G36*
X033538Y031641D02*
Y031307D01*
X032805*
Y030819*
X032156*
X032088Y030810*
X032025Y030783*
X031971Y030742*
X031708Y030479*
X031698Y030476*
X031536Y030519*
X031528Y030539*
X031467Y030617*
X031389Y030678*
X031300Y030714*
Y030350*
Y029986*
X031389Y030022*
X031538Y029947*
Y028859*
X030265Y027585*
X030223Y027531*
X030197Y027468*
X030188Y027400*
Y025521*
X030183Y025517*
X030122Y025439*
X030085Y025348*
X030084Y025342*
X030029Y025262*
X029875Y025246*
X029722Y025399*
Y028821*
X030398*
Y029254*
Y029536*
X029902*
Y029648*
X030398*
Y030103*
X030418Y030106*
X030481Y030132*
X030535Y030174*
X030675Y030314*
X030834Y030260*
X030835Y030252*
X030872Y030161*
X030933Y030083*
X031011Y030022*
X031100Y029986*
Y030350*
Y030714*
X031011Y030678*
X030972Y030647*
X030843Y030695*
X030822Y030713*
Y032269*
X030827Y032273*
X030831Y032278*
X032901*
X033538Y031641*
G37*
G36*
X037055Y028988D02*
Y028821D01*
X037938*
Y028590*
X037947Y028522*
X037973Y028459*
X038015Y028405*
X038268Y028151*
Y027281*
X038243Y027252*
X038118Y027189*
X038080Y027204*
Y026840*
X037880*
Y027204*
X037791Y027168*
X037713Y027107*
X037652Y027029*
X037615Y026938*
X037602Y026840*
X037603Y026833*
X037473Y026703*
X037315Y026748*
X037278Y026839*
X037217Y026917*
X037139Y026978*
X037048Y027015*
X036950Y027028*
X036943Y027027*
X036935Y027035*
X036881Y027077*
X036818Y027103*
X036750Y027112*
X035179*
X035122Y027251*
X036916Y029045*
X037055Y028988*
G37*
G36*
X038714Y031446D02*
X038657Y031307D01*
X038157*
X038045*
X038007*
X037055*
Y030593*
Y030142*
X036969Y030031*
X036901Y030022*
X036838Y029996*
X036783Y029954*
X034321Y027492*
X034182Y027549*
Y028821*
X034898*
Y029310*
X035372*
X035440Y029319*
X035503Y029345*
X035557Y029387*
X035943Y029773*
X035950Y029772*
X036048Y029785*
X036139Y029822*
X036217Y029883*
X036278Y029961*
X036314Y030050*
X035950*
Y030150*
X035850*
Y030514*
X035761Y030478*
X035683Y030417*
X035622Y030339*
X035585Y030248*
X035572Y030150*
X035573Y030143*
X035263Y029834*
X034898*
Y030041*
Y030593*
Y031307*
X034062*
Y031750*
X034053Y031818*
X034027Y031881*
X033985Y031935*
X033781Y032140*
X033839Y032278*
X037882*
X038714Y031446*
G37*
G36*
X023368Y037738D02*
X023365Y037735D01*
X022465Y036835*
X022423Y036781*
X022397Y036718*
X022388Y036650*
X022265Y036585*
X021602*
Y035870*
X022098*
Y035759*
X021602*
Y035516*
Y035309*
X020697*
X020629Y035300*
X020566Y035274*
X020511Y035232*
X020457Y035177*
X020450Y035178*
X020352Y035165*
X020261Y035128*
X020183Y035067*
X020122Y034989*
X020085Y034898*
X020072Y034800*
X020085Y034702*
X020122Y034611*
X020183Y034533*
X020261Y034472*
X020352Y034435*
X020450Y034422*
X020548Y034435*
X020639Y034472*
X020717Y034533*
X020778Y034611*
X020815Y034702*
X020826Y034785*
X021602*
Y034099*
X022082*
X022139Y033960*
X021991Y033812*
X019750*
X019682Y033803*
X019619Y033777*
X019565Y033735*
X018951Y033122*
X018812Y033179*
Y033641*
X019585Y034415*
X019627Y034469*
X019653Y034532*
X019662Y034600*
Y036660*
X019678Y036672*
X019741Y036753*
X019780Y036848*
X019793Y036950*
X019780Y037052*
X019741Y037147*
X019678Y037228*
X019597Y037291*
X019502Y037330*
X019467Y037334*
X019411Y037490*
X019809Y037888*
X023317*
X023368Y037738*
G37*
G36*
X023695Y034099D02*
X023788Y033987D01*
Y033259*
X022515Y031985*
X022473Y031931*
X022447Y031868*
X022438Y031800*
Y030573*
X022350Y030515*
Y030100*
X022250*
Y030000*
X021886*
X021892Y029984*
X021805Y029838*
X021799Y029834*
X021648*
Y030041*
Y030593*
Y031307*
X020967*
X020960Y031361*
X020934Y031424*
X020893Y031478*
X020412Y031959*
Y032279*
X020417Y032283*
X020478Y032361*
X020515Y032452*
X020528Y032550*
X020515Y032648*
X020478Y032739*
X020417Y032817*
X020339Y032878*
X020248Y032915*
X020150Y032928*
X020052Y032915*
X019961Y032878*
X019883Y032817*
X019822Y032739*
X019785Y032648*
X019772Y032550*
X019785Y032452*
X019822Y032361*
X019883Y032283*
X019888Y032279*
Y031850*
X019897Y031782*
X019923Y031719*
X019965Y031665*
X020183Y031446*
X020126Y031307*
X019555*
Y030593*
Y030425*
X019212*
Y032641*
X019859Y033288*
X022100*
X022168Y033297*
X022231Y033323*
X022285Y033365*
X022835Y033915*
X022877Y033969*
X022903Y034032*
X022912Y034099*
X023695*
G37*
G36*
X026083Y029033D02*
X026161Y028972D01*
X026252Y028935*
X026350Y028922*
X026448Y028836*
Y028679*
X026433Y028667*
X026372Y028589*
X026335Y028498*
X026322Y028400*
X026335Y028302*
X026372Y028211*
X026433Y028133*
X026511Y028072*
X026602Y028035*
X026700Y028022*
X026805Y027884*
Y026924*
X026789Y026897*
X026660Y026802*
X026047*
X026008Y026850*
X025550*
Y027050*
X025914*
X025878Y027139*
X025817Y027217*
X025812Y027221*
Y027500*
X025803Y027568*
X025777Y027631*
X025735Y027685*
X025112Y028309*
Y028821*
X025898*
Y029040*
X025902Y029042*
X026048Y029078*
X026083Y029033*
G37*
G36*
X038188Y017675D02*
Y017139D01*
X035761Y014712*
X032871*
X032867Y014717*
X032789Y014778*
X032698Y014815*
X032600Y014828*
X032502Y014815*
X032411Y014778*
X032333Y014717*
X032272Y014639*
X032235Y014548*
X032222Y014450*
X032235Y014352*
X032272Y014261*
X032333Y014183*
X032411Y014122*
X032502Y014085*
X032600Y014072*
X032698Y014085*
X032789Y014122*
X032867Y014183*
X032871Y014188*
X035870*
X035938Y014197*
X036001Y014223*
X036055Y014265*
X038635Y016845*
X038677Y016899*
X038703Y016962*
X038848Y016935*
Y016475*
X038820Y016328*
X038722Y016315*
X038631Y016278*
X038553Y016217*
X038492Y016139*
X038456Y016050*
X038820*
Y015950*
X038920*
Y015586*
X039009Y015622*
X039087Y015683*
X039148Y015761*
X039185Y015852*
X039200Y015857*
X039350Y015745*
Y012700*
X038600*
Y011500*
X038500*
Y011400*
X037300*
Y010650*
X036140*
X036102Y010800*
X036151Y010826*
X036273Y010927*
X036374Y011049*
X036449Y011190*
X036495Y011342*
X036511Y011500*
X036495Y011658*
X036449Y011810*
X036374Y011951*
X036273Y012073*
X036151Y012174*
X036010Y012249*
X035858Y012295*
X035700Y012311*
X035542Y012295*
X035390Y012249*
X035249Y012174*
X035127Y012073*
X035026Y011951*
X034951Y011810*
X034905Y011658*
X034889Y011500*
X034905Y011342*
X034951Y011190*
X035026Y011049*
X035127Y010927*
X035249Y010826*
X035298Y010800*
X035260Y010650*
X017223*
X017196Y010697*
X017176Y010800*
X017244Y010856*
X017322Y010951*
X017369Y011038*
X020415*
X020483Y011047*
X020546Y011073*
X020601Y011115*
X024361Y014874*
X024691*
X024754Y014724*
X024337Y014307*
X024330Y014308*
X024232Y014295*
X024141Y014258*
X024063Y014197*
X024002Y014119*
X023966Y014030*
X024330*
Y013830*
X023966*
X024002Y013741*
X024063Y013663*
X024068Y013659*
Y013270*
X024077Y013202*
X024103Y013139*
X024145Y013085*
X025015Y012215*
X025069Y012173*
X025132Y012147*
X025200Y012138*
X025264Y012015*
Y011924*
X026806*
Y012876*
X026632*
Y013606*
X027833*
Y014550*
X027971Y014608*
X028565Y014015*
X028619Y013973*
X028682Y013947*
X028750Y013938*
X029007*
Y013606*
X030103*
Y012926*
X029929*
Y011974*
X031471*
Y012838*
X032949*
X032953Y012833*
X033031Y012772*
X033120Y012736*
Y013100*
Y013464*
X033031Y013428*
X032953Y013367*
X032949Y013362*
X031280*
X031212Y013353*
X031149Y013327*
X031095Y013285*
X030849Y013040*
X030808Y012986*
X030783Y012926*
X030628*
Y013606*
X031573*
Y014794*
X029007*
Y014465*
X028857Y014463*
X026712Y016609*
Y016871*
X026851Y016928*
X028365Y015415*
X028419Y015373*
X028482Y015347*
X028550Y015338*
X032821*
X033015Y015145*
X033069Y015103*
X033132Y015077*
X033176Y015071*
X033183Y015063*
X033261Y015002*
X033352Y014965*
X033450Y014952*
X033548Y014965*
X033639Y015002*
X033717Y015063*
X033778Y015141*
X033815Y015232*
X033828Y015330*
X033815Y015428*
X033778Y015519*
X033717Y015597*
X033639Y015658*
X033578Y015761*
X033615Y015852*
X033628Y015950*
X033752Y016088*
X036280*
X036348Y016097*
X036411Y016123*
X036465Y016165*
X038038Y017737*
X038188Y017675*
G37*
G36*
X014538Y013541D02*
Y012869D01*
X014451Y012822*
X014356Y012744*
X014278Y012649*
X014220Y012540*
X014184Y012423*
X014172Y012300*
X014184Y012177*
X014220Y012060*
X014278Y011951*
X014316Y011905*
X014342Y011800*
X014316Y011695*
X014278Y011649*
X014220Y011540*
X014184Y011423*
X014182Y011400*
X014800*
Y011200*
X014182*
X014184Y011177*
X014220Y011060*
X014278Y010951*
X014356Y010856*
X014424Y010800*
X014404Y010697*
X014377Y010650*
X012700*
Y011400*
X011500*
Y011500*
X011400*
Y012700*
X010600*
Y013970*
X010750Y013992*
X010751Y013990*
X010826Y013849*
X010927Y013727*
X011049Y013626*
X011190Y013551*
X011342Y013505*
X011500Y013489*
X011658Y013505*
X011810Y013551*
X011951Y013626*
X012073Y013727*
X012174Y013849*
X012249Y013990*
X012295Y014142*
X012311Y014300*
X012295Y014458*
X012249Y014610*
X012174Y014751*
X012073Y014873*
X011951Y014974*
X011810Y015049*
X011658Y015095*
X011500Y015111*
X011342Y015095*
X011190Y015049*
X011049Y014974*
X010927Y014873*
X010826Y014751*
X010751Y014610*
X010750Y014608*
X010600Y014630*
Y017283*
X010739Y017341*
X014538Y013541*
G37*
G36*
X034823Y026340D02*
X034822Y026339D01*
X034785Y026248*
X034772Y026150*
X034785Y026052*
X034822Y025961*
X034883Y025883*
X034961Y025822*
X035052Y025785*
X035150Y025772*
X035188Y025631*
Y024350*
X035197Y024282*
X035223Y024219*
X035265Y024165*
X036315Y023115*
X036369Y023073*
X036380Y023068*
X036438Y023009*
X036458Y022892*
X036454Y022883*
X036443Y022800*
X036454Y022717*
X036486Y022640*
X036527Y022550*
X036486Y022460*
X036454Y022383*
X036443Y022300*
X036454Y022217*
X036486Y022140*
X036527Y022050*
X036486Y021960*
X036454Y021883*
X036443Y021800*
X036454Y021717*
X036486Y021640*
X036527Y021550*
X036486Y021460*
X036454Y021383*
X036443Y021300*
X036454Y021217*
X036486Y021140*
X036527Y021050*
X036486Y020960*
X036454Y020883*
X036443Y020800*
X036454Y020717*
X036486Y020640*
X036527Y020550*
X036486Y020460*
X036454Y020383*
X036443Y020300*
X036454Y020217*
X036486Y020140*
X036527Y020050*
X036486Y019960*
X036454Y019883*
X036443Y019800*
X036454Y019717*
X036486Y019640*
X036527Y019550*
X036486Y019460*
X036454Y019383*
X036443Y019300*
X036454Y019217*
X036486Y019140*
X036527Y019050*
X036486Y018960*
X036454Y018883*
X036443Y018800*
X036454Y018717*
X036486Y018640*
X036527Y018550*
X036486Y018460*
X036454Y018383*
X036443Y018300*
X036454Y018217*
X036486Y018140*
X036537Y018073*
X036544Y017895*
X035561Y016912*
X033325*
X033274Y017062*
X033287Y017073*
X033348Y017151*
X033385Y017242*
X033398Y017340*
X033385Y017438*
X033348Y017529*
X033287Y017607*
X033209Y017668*
X033118Y017705*
X033020Y017718*
X032922Y017705*
X032831Y017668*
X032753Y017607*
X032749Y017602*
X031969*
X031439Y018132*
X031442Y018192*
X031484Y018299*
X031539Y018322*
X031617Y018383*
X031678Y018461*
X031714Y018550*
X030986*
X031001Y018512*
X030938Y018387*
X030926Y018377*
X030776Y018405*
Y018536*
X030335*
X029969Y018902*
X029988Y019062*
X030001Y019082*
X030067Y019133*
X030128Y019211*
X030136Y019231*
X030172Y019255*
X030292Y019282*
X030312Y019278*
X030319Y019273*
X030367Y019253*
X030383Y019233*
X030461Y019172*
X030552Y019135*
X030650Y019122*
X030748Y019135*
X030839Y019172*
X030917Y019233*
X030978Y019311*
X031015Y019402*
X031028Y019500*
X031015Y019598*
X030978Y019689*
X030944Y019733*
X030923Y019787*
X030958Y019925*
X030967Y019933*
X031028Y020011*
X031065Y020102*
X031078Y020200*
X031065Y020298*
X031028Y020389*
X030967Y020467*
X030889Y020528*
X030798Y020565*
X030745Y020724*
X031232Y021211*
X031292Y021208*
X031399Y021166*
X031422Y021111*
X031483Y021033*
X031561Y020972*
X031652Y020935*
X031750Y020922*
X031848Y020935*
X031975Y020825*
X031972Y020800*
X031982Y020722*
X031937Y020667*
X031860Y020610*
X031848Y020615*
X031750Y020628*
X031652Y020615*
X031561Y020578*
X031483Y020517*
X031422Y020439*
X031385Y020348*
X031372Y020250*
X031385Y020152*
X031422Y020061*
X031483Y019983*
X031561Y019922*
X031652Y019885*
X031750Y019872*
X031831Y019882*
X031876Y019864*
X031975Y019775*
X031985Y019702*
X032022Y019611*
X032083Y019533*
X032161Y019472*
X032252Y019435*
X032306Y019428*
X032366Y019344*
X032351Y019278*
X032316Y019189*
X032241Y019158*
X032163Y019097*
X032102Y019019*
X032065Y018928*
X032052Y018830*
X032065Y018732*
X032102Y018641*
X032163Y018563*
X032241Y018502*
X032332Y018465*
X032430Y018452*
X032528Y018465*
X032597Y018493*
X032658Y018457*
X032706Y018400*
X033280*
X033839*
X033814Y018460*
X033763Y018527*
Y018573*
X033814Y018640*
X033846Y018717*
X033857Y018800*
X033846Y018883*
X033814Y018960*
X033773Y019050*
X033814Y019140*
X033846Y019217*
X033857Y019300*
X033846Y019383*
X033814Y019460*
X033763Y019527*
Y019573*
X033814Y019640*
X033846Y019717*
X033857Y019800*
X033846Y019883*
X033814Y019960*
X033763Y020027*
X033814Y020140*
X033846Y020217*
X033857Y020300*
X033846Y020383*
X033814Y020460*
X033763Y020527*
Y020573*
X033814Y020640*
X033846Y020717*
X033857Y020800*
X033846Y020883*
X033814Y020960*
X033763Y021027*
Y021073*
X033814Y021140*
X033846Y021217*
X033857Y021300*
X033846Y021383*
X033814Y021460*
X033773Y021550*
X033814Y021640*
X033846Y021717*
X033857Y021800*
X033846Y021883*
X033814Y021960*
X033773Y022050*
X033814Y022140*
X033846Y022217*
X033857Y022300*
X033846Y022383*
X033814Y022460*
X033763Y022527*
Y022573*
X033814Y022640*
X033846Y022717*
X033857Y022800*
X033846Y022883*
X033814Y022960*
X033763Y023027*
Y023073*
X033814Y023140*
X033846Y023217*
X033857Y023300*
X033846Y023383*
X033814Y023460*
X033763Y023527*
Y023573*
X033814Y023640*
X033846Y023717*
X033857Y023800*
X033846Y023883*
X033814Y023960*
X033763Y024027*
X033696Y024078*
X033619Y024110*
X033536Y024121*
X033024*
X032941Y024110*
X032864Y024078*
X032843Y024062*
X032529*
X032472Y024201*
X034710Y026440*
X034823Y026340*
G37*
G36*
X028305Y029088D02*
Y028821D01*
X028978*
Y026637*
X028962Y026617*
X028828Y026543*
X028798Y026555*
X028700Y026568*
X028602Y026555*
X028511Y026518*
X028433Y026457*
X028372Y026379*
X028335Y026288*
X028322Y026190*
X028335Y026092*
X028357Y026038*
Y025576*
X028112*
Y026529*
X028117Y026533*
X028178Y026611*
X028214Y026700*
X027850*
Y026900*
X028214*
X028178Y026989*
X028117Y027067*
X028039Y027128*
X027991Y027147*
X027931Y027283*
X027928Y027307*
X027931Y027319*
X027965Y027402*
X027978Y027500*
X027965Y027598*
X027928Y027689*
X027867Y027767*
X027862Y027771*
Y028841*
X028166Y029145*
X028305Y029088*
G37*
G36*
X013735Y026724D02*
X014765D01*
X014793Y026736*
X014915Y026615*
X014969Y026573*
X015029Y026548*
Y026324*
Y026176*
Y026174*
Y025362*
X014821*
X014817Y025367*
X014739Y025428*
X014650Y025464*
Y025100*
Y024711*
X014708Y024678*
X014767Y024622*
Y024153*
X014737Y024016*
X014729*
Y023812*
X013164*
X013096Y023803*
X013033Y023777*
X012978Y023735*
X012711Y023468*
X012706Y023471*
X012567Y023489*
X012428Y023471*
X012299Y023417*
X012188Y023332*
X012103Y023221*
X012049Y023092*
X012031Y022953*
X012049Y022815*
X012103Y022685*
X012188Y022574*
X012215Y022554*
Y022368*
X012188Y022348*
X012103Y022237*
X012049Y022108*
X012031Y021969*
X012049Y021830*
X012103Y021701*
X012188Y021590*
X012264Y021532*
Y020823*
X012215Y020787*
X012114Y020758*
X012005Y020847*
X011848Y020931*
X011677Y020983*
X011600Y020991*
Y020091*
Y019191*
X011677Y019199*
X011848Y019251*
X012005Y019335*
X012143Y019448*
X012256Y019586*
X012340Y019743*
X012363Y019820*
X012535Y019879*
X012597Y019832*
Y019371*
X012420*
Y018526*
Y017829*
X012597*
Y017680*
X012608Y017602*
X012638Y017529*
X012686Y017466*
X013199Y016953*
X013205Y016912*
X013242Y016821*
X013303Y016743*
X013381Y016682*
X013470Y016646*
Y017010*
X013570*
Y017110*
X013934*
X013898Y017199*
X013837Y017277*
X013759Y017338*
X013668Y017375*
X013627Y017381*
X013329Y017679*
X013380Y017829*
Y018526*
Y019371*
X013203*
Y020050*
X013192Y020128*
X013162Y020201*
X013114Y020264*
X012870Y020508*
Y021432*
X013010Y021513*
X013092Y021464*
Y021046*
X013101Y020978*
X013127Y020915*
X013169Y020860*
X014111Y019918*
X014165Y019876*
X014229Y019850*
X014296Y019841*
X014620*
Y019608*
X016280*
Y020599*
X014620*
Y020366*
X014405*
X013617Y021154*
Y021503*
X013622Y021505*
X013733Y021590*
X013818Y021701*
X013872Y021830*
X013890Y021969*
X013874Y022088*
X013886Y022125*
X013980Y022238*
X014729*
Y022034*
X014737*
X014767Y021897*
Y021103*
X016033*
X016183Y021146*
X016423Y020907*
X016422Y020900*
X016435Y020802*
X016472Y020711*
X016533Y020633*
X016611Y020572*
X016700Y020536*
Y020900*
X016800*
Y021000*
X017164*
X017128Y021089*
X017067Y021167*
X016989Y021228*
X016898Y021265*
X016800Y021278*
X016793Y021277*
X016385Y021685*
X016331Y021727*
X016268Y021753*
X016200Y021762*
X016070*
X016060Y021799*
X016040Y021894*
X016121Y022034*
X016271*
Y022238*
X017729*
X017733Y022233*
X017811Y022172*
X017902Y022135*
X018000Y022122*
X018098Y022135*
X018189Y022172*
X018267Y022233*
X018328Y022311*
X018361Y022392*
X018370Y022404*
X018525Y022467*
X018538Y022459*
Y021800*
X018547Y021732*
X018573Y021669*
X018615Y021615*
X019235Y020994*
X019289Y020953*
X019352Y020927*
X019420Y020918*
X020778*
X020801Y020887*
X020804Y020861*
X020754Y020712*
X020699Y020670*
X020315Y020285*
X020273Y020231*
X020247Y020168*
X020238Y020100*
Y019350*
X020247Y019282*
X020273Y019219*
X020315Y019165*
X020715Y018765*
X020769Y018723*
X020832Y018697*
X020900Y018688*
X020920*
Y018528*
Y018353*
X021400*
Y018153*
X020920*
Y017831*
X021214*
X021271Y017692*
X020926Y017347*
X020784Y017417*
X020788Y017450*
X020775Y017548*
X020738Y017639*
X020677Y017717*
X020599Y017778*
X020510Y017814*
Y017450*
X020310*
Y017814*
X020221Y017778*
X020143Y017717*
X020139Y017712*
X018109*
X018021Y017826*
Y017970*
Y018930*
X018147Y018988*
X018229*
X018233Y018983*
X018311Y018922*
X018402Y018885*
X018500Y018872*
X018598Y018885*
X018689Y018922*
X018767Y018983*
X018828Y019061*
X018865Y019152*
X018878Y019250*
X018865Y019348*
X018828Y019439*
X018767Y019517*
X018689Y019578*
X018598Y019615*
X018500Y019628*
X018402Y019615*
X018311Y019578*
X018233Y019517*
X018229Y019512*
X017700*
X017632Y019503*
X017569Y019477*
X017515Y019435*
X017413Y019334*
X017371Y019280*
X017345Y019216*
X017336Y019148*
Y018930*
X017164*
Y019661*
X017320Y019818*
X019259*
X019263Y019813*
X019341Y019752*
X019432Y019715*
X019530Y019702*
X019628Y019715*
X019719Y019752*
X019797Y019813*
X019858Y019891*
X019895Y019982*
X019908Y020080*
X019895Y020178*
X019858Y020269*
X019797Y020347*
X019719Y020408*
X019628Y020445*
X019530Y020458*
X019432Y020445*
X019341Y020408*
X019263Y020347*
X019259Y020342*
X017212*
X017144Y020333*
X017080Y020307*
X017026Y020265*
X016716Y019955*
X016674Y019901*
X016648Y019838*
X016639Y019770*
Y018930*
X016479*
Y018712*
X016280*
Y018945*
X014620*
Y017955*
X016280*
Y018188*
X016479*
Y017970*
Y017860*
X016470Y017710*
Y017679*
X016467Y016726*
X016464*
Y015774*
X018006*
Y016874*
X018021*
Y017188*
X020139*
X020143Y017183*
X020221Y017122*
X020312Y017085*
X020410Y017072*
X020443Y017076*
X020513Y016934*
X018291Y014712*
X016550*
X016482Y014703*
X016419Y014677*
X016365Y014635*
X015615Y013885*
X015573Y013831*
X015547Y013768*
X015538Y013700*
Y012869*
X015451Y012822*
X015356Y012744*
X015244*
X015149Y012822*
X015062Y012869*
Y013650*
X015053Y013718*
X015027Y013781*
X014985Y013835*
X010762Y018059*
Y019332*
X010912Y019403*
X010995Y019335*
X011152Y019251*
X011323Y019199*
X011400Y019191*
Y020091*
Y020991*
X011323Y020983*
X011152Y020931*
X010995Y020847*
X010912Y020779*
X010762Y020850*
Y024072*
X010912Y024143*
X010995Y024075*
X011152Y023991*
X011323Y023939*
X011400Y023932*
Y024831*
Y025731*
X011323Y025723*
X011152Y025671*
X010995Y025587*
X010912Y025520*
X010762Y025590*
Y026491*
X010996Y026724*
X011615*
Y026938*
X013735*
Y026724*
G37*
G36*
X024643Y043693D02*
Y043102D01*
X024738*
Y041676*
X024524*
Y040824*
Y040135*
X024788*
Y039359*
X023841Y038412*
X019700*
X019632Y038403*
X019569Y038377*
X019515Y038335*
X018515Y037335*
X018473Y037281*
X018447Y037218*
X018438Y037150*
Y036394*
X018288Y036365*
X018278Y036389*
X018217Y036467*
X018139Y036528*
X018048Y036565*
X017950Y036578*
X017852Y036565*
X017761Y036528*
X017683Y036467*
X017622Y036389*
X017585Y036298*
X017572Y036200*
X017585Y036102*
X017622Y036011*
X017683Y035933*
X017688Y035929*
Y035076*
X017218*
Y036283*
X017278Y036361*
X017315Y036452*
X017328Y036550*
X017315Y036648*
X017278Y036739*
X017217Y036817*
X017139Y036878*
X017048Y036915*
X016950Y036928*
X016852Y036915*
X016761Y036878*
X016683Y036817*
X016622Y036739*
X016585Y036648*
X016572Y036550*
X016585Y036452*
X016622Y036361*
X016683Y036283*
X016693Y036274*
Y035076*
X016529*
Y035054*
X016379Y034992*
X015713Y035658*
X015659Y035699*
X015596Y035725*
X015528Y035734*
X015121*
Y036145*
X013619*
Y035734*
X012720*
Y036145*
X011217*
Y034800*
X012720*
Y035210*
X013619*
Y034800*
X015121*
Y035210*
X015419*
X016215Y034415*
X016269Y034373*
X016332Y034347*
X016400Y034338*
X016529Y034284*
Y034124*
X017382*
Y033226*
X016579*
Y033012*
X015550*
X015482Y033003*
X015419Y032977*
X015365Y032935*
X014991Y032562*
X013973*
X013944Y032712*
X014020Y032744*
X014136Y032833*
X014224Y032948*
X014280Y033083*
X014299Y033228*
X014280Y033373*
X014224Y033508*
X014136Y033623*
X014020Y033712*
X013885Y033768*
X013740Y033787*
X013595Y033768*
X013461Y033712*
X013345Y033623*
X013256Y033508*
X013200Y033373*
X013181Y033228*
X013200Y033083*
X013256Y032948*
X013345Y032833*
X013461Y032744*
X013537Y032712*
X013507Y032562*
X013285*
X013217Y032553*
X013153Y032527*
X013099Y032485*
X012270Y031656*
X011217*
Y030311*
X012720*
Y031364*
X013393Y032038*
X015100*
X015168Y032047*
X015231Y032073*
X015285Y032115*
X015659Y032488*
X016579*
Y032274*
X016743*
Y032114*
X016683Y032067*
X016622Y031989*
X016585Y031898*
X016572Y031800*
X016585Y031702*
X016622Y031611*
X016683Y031533*
X016761Y031472*
X016852Y031435*
X016950Y031422*
X017048Y031435*
X017139Y031472*
X017217Y031533*
X017278Y031611*
X017282Y031622*
X017432Y031592*
Y030473*
X016681Y029722*
X016571Y029626*
X015029*
Y028674*
X014996Y028567*
X014991Y028535*
X014793*
X014765Y028673*
Y028872*
X014350*
Y028496*
X014659*
X014765*
X014793Y028358*
Y027814*
X014765Y027676*
X013735*
Y027462*
X011615*
Y027676*
X010600*
Y028496*
X011000*
Y028972*
Y029447*
X010600*
Y040470*
X010750Y040492*
X010751Y040490*
X010826Y040349*
X010927Y040227*
X011049Y040126*
X011190Y040051*
X011342Y040005*
X011500Y039989*
X011658Y040005*
X011810Y040051*
X011951Y040126*
X012073Y040227*
X012174Y040349*
X012249Y040490*
X012295Y040642*
X012311Y040800*
X012295Y040958*
X012249Y041110*
X012174Y041251*
X012073Y041373*
X011951Y041474*
X011810Y041549*
X011658Y041595*
X011500Y041611*
X011342Y041595*
X011190Y041549*
X011049Y041474*
X010927Y041373*
X010826Y041251*
X010751Y041110*
X010750Y041108*
X010600Y041130*
Y042425*
X011400*
Y043500*
X011500*
Y043600*
X012575*
Y044400*
X013636*
X013774Y044371*
Y044250*
Y043518*
Y042829*
X013988*
Y041650*
X013997Y041582*
X014023Y041519*
X014065Y041465*
X014088Y041441*
Y040414*
X014060Y040402*
X013940Y040310*
X013925Y040291*
X013775*
X013760Y040310*
X013640Y040402*
X013500Y040460*
X013450Y040467*
Y039900*
Y039333*
X013500Y039340*
X013640Y039398*
X013760Y039490*
X013775Y039509*
X013925*
X013940Y039490*
X014060Y039398*
X014200Y039340*
X014350Y039320*
X014500Y039340*
X014640Y039398*
X014760Y039490*
X014775Y039509*
X014925*
X014940Y039490*
X015060Y039398*
X015200Y039340*
X015250Y039333*
Y039900*
Y040467*
X015200Y040460*
X015060Y040402*
X014940Y040310*
X014925Y040291*
X014775*
X014760Y040310*
X014640Y040402*
X014612Y040414*
Y041550*
X014603Y041618*
X014577Y041681*
X014535Y041735*
X014512Y041759*
Y042829*
X014726*
Y043518*
Y043682*
X016024*
Y043518*
Y042829*
X016238*
Y041859*
X016165Y041785*
X016123Y041731*
X016097Y041668*
X016088Y041600*
Y040414*
X016060Y040402*
X015940Y040310*
X015925Y040291*
X015775*
X015760Y040310*
X015640Y040402*
X015500Y040460*
X015450Y040467*
Y039900*
Y039333*
X015500Y039340*
X015640Y039398*
X015760Y039490*
X015775Y039509*
X015925*
X015940Y039490*
X016060Y039398*
X016200Y039340*
X016350Y039320*
X016500Y039340*
X016640Y039398*
X016760Y039490*
X016775Y039509*
X016925*
X016940Y039490*
X017060Y039398*
X017200Y039340*
X017250Y039333*
Y039900*
Y040467*
X017200Y040460*
X017060Y040402*
X016940Y040310*
X016925Y040291*
X016775*
X016760Y040310*
X016640Y040402*
X016612Y040414*
Y041491*
X016685Y041565*
X016727Y041619*
X016753Y041682*
X016762Y041750*
Y042829*
X016976*
Y043518*
Y043682*
X018024*
Y043518*
Y042829*
X018238*
Y042009*
X018165Y041935*
X018123Y041881*
X018097Y041818*
X018088Y041750*
Y040414*
X018060Y040402*
X017940Y040310*
X017925Y040291*
X017775*
X017760Y040310*
X017640Y040402*
X017500Y040460*
X017450Y040467*
Y039900*
Y039333*
X017500Y039340*
X017640Y039398*
X017760Y039490*
X017775Y039509*
X017925*
X017940Y039490*
X018060Y039398*
X018200Y039340*
X018350Y039320*
X018500Y039340*
X018640Y039398*
X018760Y039490*
X018775Y039509*
X018925*
X018940Y039490*
X019060Y039398*
X019200Y039340*
X019250Y039333*
Y039900*
Y040467*
X019200Y040460*
X019060Y040402*
X018940Y040310*
X018925Y040291*
X018775*
X018760Y040310*
X018640Y040402*
X018612Y040414*
Y041641*
X018685Y041715*
X018727Y041769*
X018753Y041832*
X018762Y041900*
Y042829*
X018976*
Y043518*
Y043682*
X019924*
Y043518*
Y042829*
X020138*
Y040434*
X020060Y040402*
X019940Y040310*
X019925Y040291*
X019775*
X019760Y040310*
X019640Y040402*
X019500Y040460*
X019450Y040467*
Y039900*
Y039333*
X019500Y039340*
X019640Y039398*
X019760Y039490*
X019775Y039509*
X019925*
X019940Y039490*
X020060Y039398*
X020200Y039340*
X020350Y039320*
X020500Y039340*
X020640Y039398*
X020760Y039490*
X020775Y039509*
X020925*
X020940Y039490*
X021060Y039398*
X021200Y039340*
X021250Y039333*
Y039900*
Y040467*
X021200Y040460*
X021060Y040402*
X020940Y040310*
X020925Y040291*
X020775*
X020760Y040310*
X020662Y040385*
Y042829*
X020840*
X020875Y042808*
X020965Y042716*
X020957Y042650*
X020970Y042548*
X021009Y042453*
X021072Y042372*
X021153Y042309*
X021248Y042270*
X021350Y042257*
X021452Y042270*
X021547Y042309*
X021628Y042372*
X021691Y042453*
X021730Y042548*
X021743Y042650*
X021730Y042752*
X021691Y042847*
X021628Y042928*
X021612Y042940*
Y043750*
X021603Y043818*
X021577Y043881*
X021535Y043935*
X021341Y044130*
X021287Y044172*
X021223Y044198*
X021156Y044207*
X020876*
Y044371*
X021014Y044400*
X021886*
X022024Y044371*
Y044250*
Y043518*
Y042829*
X022238*
Y040475*
X021775*
X021649Y040417*
X021625Y040408*
X021500Y040460*
X021450Y040467*
Y039900*
Y039333*
X021500Y039340*
X021625Y039392*
X021648Y039383*
X021775Y039325*
X022925*
Y040475*
X022762*
Y042829*
X022976*
Y043518*
Y043682*
X023147*
X023588Y043241*
Y039740*
X023572Y039728*
X023509Y039647*
X023470Y039552*
X023457Y039450*
X023470Y039348*
X023509Y039253*
X023572Y039172*
X023653Y039109*
X023748Y039070*
X023850Y039057*
X023952Y039070*
X024047Y039109*
X024128Y039172*
X024191Y039253*
X024230Y039348*
X024243Y039450*
X024230Y039552*
X024191Y039647*
X024128Y039728*
X024112Y039740*
Y043350*
X024103Y043418*
X024077Y043481*
X024035Y043535*
X023441Y044130*
X023387Y044172*
X023323Y044198*
X023256Y044207*
X022976*
Y044371*
X023114Y044400*
X024643*
Y043693*
G37*
G36*
X039350Y031748D02*
X039211Y031691D01*
X038241Y032661*
X038237Y032672*
X038195Y032726*
X038141Y032768*
X038077Y032794*
X038009Y032803*
X033009*
X030831*
X030827Y032808*
X030749Y032868*
X030657Y032906*
X030559Y032919*
X030462Y032906*
X030370Y032868*
X030292Y032808*
X030232Y032730*
X030194Y032638*
X030181Y032541*
X030194Y032443*
X030232Y032351*
X030292Y032273*
X030297Y032269*
Y031307*
X029407*
X029295*
X029257*
X028305*
Y030593*
Y030425*
X027350*
X027329Y030443*
Y034043*
X027998*
Y034539*
X028012Y034540*
X028075Y034567*
X028129Y034608*
X028335Y034815*
X028377Y034869*
X028403Y034932*
X028412Y035000*
Y036300*
X028403Y036368*
X028377Y036431*
X028335Y036485*
X028085Y036735*
X028031Y036777*
X027968Y036803*
X027900Y036812*
X025850*
X025782Y036803*
X025719Y036777*
X025665Y036735*
X024915Y035985*
X024873Y035931*
X024847Y035868*
X024838Y035800*
Y035383*
X024688Y035332*
X024685Y035335*
X024198Y035823*
X024144Y035865*
X024080Y035891*
X024013Y035900*
X023695*
Y036585*
X023152*
X023095Y036724*
X023659Y037288*
X024029*
X024033Y037283*
X024111Y037222*
X024200Y037186*
Y037550*
X024300*
Y037650*
X024664*
X024628Y037739*
X024567Y037817*
X024489Y037878*
X024398Y037915*
X024310Y037927*
X024289Y037957*
X024243Y038072*
X025235Y039065*
X025277Y039119*
X025303Y039182*
X025312Y039250*
Y040135*
X025476*
Y040824*
Y041676*
X025262*
Y043102*
X025357*
Y043130*
X026533*
Y043092*
X026628*
Y041671*
X026424*
Y041133*
X026274Y041060*
X026212Y041107*
Y041710*
X026228Y041722*
X026291Y041803*
X026330Y041898*
X026343Y042000*
X026330Y042102*
X026291Y042197*
X026228Y042278*
X026147Y042341*
X026052Y042380*
X025950Y042393*
X025848Y042380*
X025753Y042341*
X025672Y042278*
X025609Y042197*
X025570Y042102*
X025557Y042000*
X025570Y041898*
X025609Y041803*
X025672Y041722*
X025688Y041710*
Y040950*
X025697Y040882*
X025723Y040819*
X025765Y040765*
X026159Y040370*
X026213Y040328*
X026277Y040302*
X026344Y040293*
X026424*
Y040129*
X027376*
Y040818*
Y041671*
X027152*
Y043092*
X027247*
Y043683*
Y044397*
X027396Y044400*
X036300*
Y043600*
X038700*
Y044400*
X039350*
Y031748*
G37*
%LNmotherboard-2*%
%LPC*%
G36*
X036050Y030514D02*
Y030250D01*
X036314*
X036278Y030339*
X036217Y030417*
X036139Y030478*
X036050Y030514*
G37*
G36*
X022150Y030464D02*
X022061Y030428D01*
X021983Y030367*
X021922Y030289*
X021886Y030200*
X022150*
Y030464*
G37*
G36*
X033584Y013000D02*
X033320D01*
Y012736*
X033409Y012772*
X033487Y012833*
X033548Y012911*
X033584Y013000*
G37*
G36*
X033320Y013464D02*
Y013200D01*
X033584*
X033548Y013289*
X033487Y013367*
X033409Y013428*
X033320Y013464*
G37*
G36*
X038400Y012700D02*
X037300D01*
Y011600*
X038400*
Y012700*
G37*
G36*
X038720Y015850D02*
X038456D01*
X038492Y015761*
X038553Y015683*
X038631Y015622*
X038720Y015586*
Y015850*
G37*
G36*
X012700Y012700D02*
X011600D01*
Y011600*
X012700*
Y012700*
G37*
G36*
X031250Y019014D02*
X031161Y018978D01*
X031083Y018917*
X031022Y018839*
X030986Y018750*
X031250*
Y019014*
G37*
G36*
X031450D02*
Y018750D01*
X031714*
X031678Y018839*
X031617Y018917*
X031539Y018978*
X031450Y019014*
G37*
G36*
X034210Y024840D02*
X033946D01*
X033982Y024751*
X034043Y024673*
X034121Y024612*
X034210Y024576*
Y024840*
G37*
G36*
X034674D02*
X034410D01*
Y024576*
X034499Y024612*
X034577Y024673*
X034638Y024751*
X034674Y024840*
G37*
G36*
X033839Y018200D02*
X033380D01*
Y017979*
X033536*
X033619Y017990*
X033696Y018022*
X033763Y018073*
X033814Y018140*
X033839Y018200*
G37*
G36*
X033180D02*
X032721D01*
X032746Y018140*
X032797Y018073*
X032864Y018022*
X032941Y017990*
X033024Y017979*
X033180*
Y018200*
G37*
G36*
X034210Y025304D02*
X034121Y025268D01*
X034043Y025207*
X033982Y025129*
X033946Y025040*
X034210*
Y025304*
G37*
G36*
X034410D02*
Y025040D01*
X034674*
X034638Y025129*
X034577Y025207*
X034499Y025268*
X034410Y025304*
G37*
G36*
X017164Y020800D02*
X016900D01*
Y020536*
X016989Y020572*
X017067Y020633*
X017128Y020711*
X017164Y020800*
G37*
G36*
X014450Y025000D02*
X014186D01*
X014222Y024911*
X014283Y024833*
X014361Y024772*
X014450Y024736*
Y025000*
G37*
G36*
X012400Y024731D02*
X011600D01*
Y023932*
X011677Y023939*
X011848Y023991*
X012005Y024075*
X012143Y024188*
X012256Y024326*
X012340Y024483*
X012392Y024654*
X012400Y024731*
G37*
G36*
X013934Y016910D02*
X013670D01*
Y016646*
X013759Y016682*
X013837Y016743*
X013898Y016821*
X013934Y016910*
G37*
G36*
X011600Y025731D02*
Y024931D01*
X012400*
X012392Y025009*
X012340Y025179*
X012256Y025336*
X012143Y025474*
X012005Y025587*
X011848Y025671*
X011677Y025723*
X011600Y025731*
G37*
G36*
X014450Y025464D02*
X014361Y025428D01*
X014283Y025367*
X014222Y025289*
X014186Y025200*
X014450*
Y025464*
G37*
G36*
X012575Y043400D02*
X011600D01*
Y042425*
X012575*
Y043400*
G37*
G36*
X014270Y031656D02*
X013619D01*
Y031084*
X014270*
Y031656*
G37*
G36*
X015121D02*
X014470D01*
Y031084*
X015121*
Y031656*
G37*
G36*
X013250Y040467D02*
X013200Y040460D01*
X013060Y040402*
X012940Y040310*
X012848Y040190*
X012790Y040050*
X012783Y040000*
X013250*
Y040467*
G37*
G36*
Y039800D02*
X012783D01*
X012790Y039750*
X012848Y039610*
X012940Y039490*
X013060Y039398*
X013200Y039340*
X013250Y039333*
Y039800*
G37*
G36*
X011968Y033747D02*
X011834Y033730D01*
X011709Y033678*
X011601Y033595*
X011519Y033488*
X011467Y033362*
X011449Y033228*
X011467Y033094*
X011519Y032968*
X011601Y032861*
X011709Y032778*
X011834Y032726*
X011968Y032709*
X012103Y032726*
X012228Y032778*
X012336Y032861*
X012418Y032968*
X012470Y033094*
X012488Y033228*
X012470Y033362*
X012418Y033488*
X012336Y033595*
X012228Y033678*
X012103Y033730*
X011968Y033747*
G37*
G36*
X015121Y030884D02*
X013619D01*
Y030311*
X013988*
Y029447*
X013735*
Y029234*
X011615*
Y029447*
X011200*
Y028972*
Y028496*
X011615*
Y028709*
X013735*
Y028496*
X014150*
Y028972*
X014250*
Y029072*
X014765*
Y029447*
X014512*
Y030311*
X015121*
Y030884*
G37*
G36*
X038700Y043400D02*
X037600D01*
Y042300*
X038700*
Y043400*
G37*
G36*
X031488Y040630D02*
X030798D01*
Y039349*
X031488*
Y040630*
G37*
G36*
X024664Y037450D02*
X024400D01*
Y037186*
X024489Y037222*
X024567Y037283*
X024628Y037361*
X024664Y037450*
G37*
G36*
X030598Y040630D02*
X029907D01*
Y039349*
X030598*
Y040630*
G37*
G36*
X037400Y043400D02*
X036300D01*
Y042300*
X037400*
Y043400*
G37*
G36*
X031488Y042111D02*
X030798D01*
Y040830*
X031488*
Y042111*
G37*
G36*
X030598D02*
X029907D01*
Y040830*
X030598*
Y042111*
G37*
G36*
X036213D02*
X034632D01*
Y039349*
X036213*
Y040488*
X037229*
X037233Y040483*
X037311Y040422*
X037402Y040385*
X037500Y040372*
X037598Y040385*
X037689Y040422*
X037767Y040483*
X037828Y040561*
X037865Y040652*
X037878Y040750*
X037865Y040848*
X037828Y040939*
X037767Y041017*
X037689Y041078*
X037598Y041115*
X037500Y041128*
X037402Y041115*
X037311Y041078*
X037233Y041017*
X037229Y041012*
X036213*
Y042111*
G37*
%LNmotherboard-3*%
%LPD*%
G54D10*
X011100Y028972D03*
X014250D03*
Y027200D03*
X011100D03*
G54D11*
X026890Y044040D03*
Y043449D03*
X025000Y044050D03*
Y043459D03*
G54D12*
X035422Y040730D03*
X030698D03*
G54D13*
X029902Y029572D03*
X028800Y029769D03*
X029902Y029966D03*
X028800Y030163D03*
X029902Y030359D03*
X028800Y030556D03*
X038652Y029572D03*
X037550Y029769D03*
X038652Y029966D03*
X037550Y030163D03*
X038652Y030359D03*
X037550Y030556D03*
X033300D03*
X034402Y030359D03*
X033300Y030163D03*
X034402Y029966D03*
X033300Y029769D03*
X034402Y029572D03*
X024300Y030556D03*
X025402Y030359D03*
X024300Y030163D03*
X025402Y029966D03*
X024300Y029769D03*
X025402Y029572D03*
X021152D03*
X020050Y029769D03*
X021152Y029966D03*
X020050Y030163D03*
X021152Y030359D03*
X020050Y030556D03*
X026400Y035778D03*
X027502Y035581D03*
X026400Y035384D03*
X027502Y035187D03*
X026400Y034991D03*
X027502Y034794D03*
X023200Y034850D03*
X022098Y035047D03*
X023200Y035244D03*
X022098Y035441D03*
X023200Y035637D03*
X022098Y035834D03*
G54D14*
X028800Y029178D03*
X029902D03*
Y030950D03*
X028800D03*
X037550Y029178D03*
X038652D03*
Y030950D03*
X037550D03*
X033300D03*
X034402D03*
Y029178D03*
X033300D03*
X024300Y030950D03*
X025402D03*
Y029178D03*
X024300D03*
X020050D03*
X021152D03*
Y030950D03*
X020050D03*
X027502Y036172D03*
X026400D03*
Y034400D03*
X027502D03*
X023200Y034456D03*
X022098D03*
Y036228D03*
X023200D03*
G54D15*
X028619Y025100D03*
X027950D03*
X016135Y026800D03*
X015465D03*
X016135Y025700D03*
X015465D03*
X025700Y012400D03*
X026369D03*
X031035Y012450D03*
X030365D03*
X036465Y025150D03*
X037135D03*
X024465Y015350D03*
X025135D03*
X017569Y016250D03*
X016900D03*
X016915Y017350D03*
X017585D03*
X024900Y025100D03*
X025569D03*
X023431D03*
X024100D03*
G54D16*
X037020Y018300D03*
Y018800D03*
X033280D03*
Y018300D03*
Y023800D03*
Y023300D03*
Y022800D03*
Y022300D03*
Y021800D03*
Y021300D03*
Y020800D03*
Y020300D03*
Y019800D03*
Y019300D03*
X037020Y023800D03*
Y023300D03*
Y022800D03*
Y022300D03*
Y021800D03*
Y021300D03*
Y020800D03*
Y020300D03*
Y019800D03*
Y019300D03*
G54D17*
X024226Y022125D03*
Y021810D03*
Y021495D03*
Y021180D03*
Y020865D03*
Y020550D03*
Y020235D03*
Y019920D03*
Y019605D03*
Y019290D03*
Y018975D03*
X028674D03*
Y019290D03*
Y019605D03*
Y019920D03*
Y020235D03*
Y020550D03*
Y020865D03*
Y021180D03*
Y021495D03*
Y021810D03*
Y022125D03*
G54D18*
X024875Y018326D03*
X025190D03*
X025505D03*
X025820D03*
X026135D03*
X026450D03*
X026765D03*
X027080D03*
X027395D03*
X027710D03*
X028025D03*
Y022774D03*
X027710D03*
X027395D03*
X027080D03*
X026765D03*
X026450D03*
X026135D03*
X025820D03*
X025505D03*
X025190D03*
X024875D03*
G54D19*
X026900Y040556D03*
Y041244D03*
X025000Y040561D03*
Y041250D03*
X022500Y043944D03*
Y043256D03*
X016500D03*
Y043944D03*
X018500Y043256D03*
Y043944D03*
X014250Y043256D03*
Y043944D03*
X038450Y020494D03*
Y019806D03*
X020400Y043256D03*
Y043944D03*
G54D20*
X015844Y022500D03*
Y023550D03*
X015156Y022500D03*
Y023550D03*
G54D21*
X011968Y035472D03*
X014370D03*
X011968Y030984D03*
X014370D03*
G54D22*
X016351Y028000D03*
X015249D03*
G54D23*
X016144Y029150D03*
X015456D03*
X016956Y034600D03*
X017644D03*
X017006Y032750D03*
X017694D03*
G54D24*
X026550Y014200D03*
X030290D03*
G54D25*
X021400Y019815D03*
Y020485D03*
X030300Y018100D03*
Y017431D03*
X021500Y022850D03*
Y022181D03*
G54D26*
X021400Y018950D03*
Y018253D03*
X012900Y018252D03*
Y018948D03*
G54D27*
X017598Y018450D03*
X016902D03*
G54D28*
X015144Y024550D03*
X015656D03*
Y021500D03*
X015144D03*
G54D29*
X015450Y018450D03*
Y020104D03*
G54D30*
X035700Y011500D03*
X011500Y014300D03*
Y040800D03*
G54D31*
X015156Y024461D02*
X015244Y024550D01*
X015156Y021589D02*
X015244Y021500D01*
X018963Y030163D02*
X020050D01*
X018950Y025850D02*
Y030150D01*
Y032750*
Y030150D02*
X018963Y030163D01*
X038450Y020494D02*
X038906D01*
X039110Y016240D02*
Y020290D01*
X038906Y020494D02*
X039110Y020290D01*
X038820Y015950D02*
X039110Y016240D01*
X031280Y013100D02*
X033220D01*
X031035Y012855D02*
X031280Y013100D01*
X031035Y012450D02*
Y012855D01*
X025200Y012400D02*
X025700D01*
X024330Y013270D02*
X025200Y012400D01*
X024330Y013270D02*
Y013930D01*
X017585Y017350D02*
X017685Y017450D01*
X017569Y017335D02*
X017585Y017350D01*
X017685Y017450D02*
X020410D01*
X016200Y021500D02*
X016800Y020900D01*
X015656Y021500D02*
X016200D01*
X015456Y028706D02*
Y029150D01*
X036995Y025855D02*
X037980Y026840D01*
X029000Y021500D02*
X037000Y029500D01*
X037600Y019300D02*
X038106Y019806D01*
X038450*
X038530Y023080D02*
Y028260D01*
X038250Y022800D02*
X038530Y023080D01*
X016550Y014450D02*
X018400D01*
X015800Y013700D02*
X016550Y014450D01*
X015800Y012300D02*
Y013700D01*
X015450Y018450D02*
X016902D01*
X013354Y021046D02*
X014296Y020104D01*
X015450*
X013354Y021046D02*
Y021969D01*
X015156Y023550D02*
Y024461D01*
Y021589D02*
Y022500D01*
X011500Y024831D02*
X011769Y025100D01*
X039106Y026506D02*
Y029550D01*
X039128Y029572*
X038900Y026300D02*
X039106Y026506D01*
X038900Y026050D02*
Y026300D01*
X033920Y027220D02*
Y029846D01*
X033200Y026500D02*
X033920Y027220D01*
X033100Y026500D02*
X033200D01*
X024850Y028200D02*
X025550Y027500D01*
Y026950D02*
Y027500D01*
X026350Y029300D02*
Y029750D01*
X026134Y029966D02*
X026350Y029750D01*
X020450Y034800D02*
X020697Y035047D01*
X022098*
X028619Y024119D02*
Y025100D01*
X028025Y023525D02*
X028619Y024119D01*
X028025Y022774D02*
Y023525D01*
X027950Y024100D02*
Y025100D01*
X027710Y023860D02*
X027950Y024100D01*
X027710Y022774D02*
Y023860D01*
X027850Y025200D02*
Y026800D01*
Y025200D02*
X027950Y025100D01*
X039384Y022884D02*
Y029800D01*
X038652Y029966D02*
X039218D01*
X039384Y029800*
X038800Y022300D02*
X039384Y022884D01*
X038652Y029572D02*
X039128D01*
X037550Y030556D02*
X038084D01*
X038652Y030359D02*
X039000D01*
X025500Y035500D02*
X025778Y035778D01*
X026400*
X023550Y037550D02*
X024300D01*
X022650Y036650D02*
X023550Y037550D01*
X035372Y029572D02*
X035950Y030150D01*
X024850Y028200D02*
Y029450D01*
X024972Y029572*
X025402*
X022250Y029750D02*
Y030100D01*
X022072Y029572D02*
X022250Y029750D01*
X021152Y029572D02*
X022072D01*
X022700Y031800D02*
X024050Y033150D01*
X022700Y029000D02*
Y031800D01*
X022350Y028650D02*
X022700Y029000D01*
X018150Y023800D02*
X019450D01*
X017500Y024450D02*
X018150Y023800D01*
X030300Y018100D02*
X031100D01*
X037135Y025150D02*
X038000D01*
X038009Y032522D02*
Y032541D01*
Y032522D02*
X039191Y031341D01*
Y030550D02*
Y031341D01*
X039000Y030359D02*
X039191Y030550D01*
X033009Y032541D02*
X038009D01*
X030559D02*
X033009D01*
X033800Y031750*
Y030550D02*
Y031750D01*
Y030550D02*
X033991Y030359D01*
X034402*
X030350D02*
X030559Y030569D01*
Y032541*
X025550Y032559D02*
X026191D01*
X026500Y032250*
Y030600D02*
Y032250D01*
X026259Y030359D02*
X026500Y030600D01*
X024050Y033150D02*
Y034900D01*
X023706Y035244D02*
X024050Y034900D01*
X024013Y035637D02*
X024500Y035150D01*
X023200Y035244D02*
X023706D01*
X022100Y033550D02*
X022650Y034100D01*
X019750Y033550D02*
X022100D01*
X022750Y034850D02*
X023200D01*
X018950Y032750D02*
X019750Y033550D01*
X025100Y035800D02*
X025850Y036550D01*
X025550Y034700D02*
X025841Y034991D01*
X025550Y032559D02*
Y034700D01*
X025841Y034991D02*
X026400D01*
X028150Y035000D02*
Y036300D01*
X027900Y036550D02*
X028150Y036300D01*
X025850Y036550D02*
X027900D01*
X027502Y034794D02*
X027944D01*
X028150Y035000*
X027600Y028950D02*
X028419Y029769D01*
X027600Y027500D02*
Y028950D01*
X027395Y027295D02*
X027600Y027500D01*
X027395Y022774D02*
Y027295D01*
X023550Y030556D02*
X024300D01*
X020150Y031850D02*
Y032550D01*
X018150Y034050D02*
X018700Y034600D01*
Y037150*
X017950Y034906D02*
Y036200D01*
X017644Y034600D02*
X017950Y034906D01*
X031800Y030200D02*
X032156Y030556D01*
X031800Y028750D02*
Y030200D01*
X030450Y027400D02*
X031800Y028750D01*
X030450Y025250D02*
Y027400D01*
X032156Y030556D02*
X033300D01*
X031150Y022700D02*
X032250Y023800D01*
X031150Y021500D02*
Y022700D01*
X032250Y023800D02*
X033280D01*
X022950Y029956D02*
X023550Y030556D01*
X022950Y028550D02*
Y029956D01*
X021100Y026700D02*
X022950Y028550D01*
X020500Y026750D02*
Y026850D01*
X019369Y029769D02*
X020050D01*
X018150Y025400D02*
Y034050D01*
X028680Y021500D02*
X029000D01*
X028674Y021180D02*
X029080D01*
X035150Y026150D02*
X035450Y025850D01*
X032475Y023225D02*
X032550Y023300D01*
X032750Y022700D02*
X032850Y022800D01*
X032050Y022700D02*
X032750D01*
X032450Y021750D02*
X033230D01*
X033280Y021800*
X032850Y022800D02*
X033280D01*
X032550Y023300D02*
X033280D01*
X031750Y021300D02*
X033280D01*
X031750Y020250D02*
X031800Y020300D01*
X033280*
X032350Y020800D02*
X033280D01*
X030450Y019500D02*
X030650D01*
X030030Y019920D02*
X030450Y019500D01*
X028674Y019920D02*
X030030D01*
X030200Y020550D02*
X031150Y021500D01*
X028674Y020550D02*
X030200D01*
X029615Y020865D02*
X029850Y021100D01*
X028709Y020200D02*
X030700D01*
X016950Y031800D02*
X017006Y031856D01*
Y032750*
X028674Y020865D02*
X029615D01*
X028674Y020235D02*
X028709Y020200D01*
X029669Y017431D02*
X030300D01*
X029550Y017550D02*
X029669Y017431D01*
X029550Y017550D02*
Y018100D01*
X028674Y018975D02*
X029550Y018100D01*
X029650Y019400D02*
X029800D01*
X029445Y019605D02*
X029650Y019400D01*
X028674Y019290D02*
X029210D01*
X030300Y018100D02*
Y018200D01*
X029210Y019290D02*
X030300Y018200D01*
X028674Y019605D02*
X029445D01*
X028025Y017800D02*
Y018326D01*
Y017800D02*
X028375Y017450D01*
X029050*
X024875Y017825D02*
Y018326D01*
X023250Y016200D02*
X024875Y017825D01*
X023200Y016200D02*
X023250D01*
X019200Y029600D02*
X019369Y029769D01*
X016144Y028706D02*
Y029150D01*
Y028706D02*
X016351Y028499D01*
X035450Y024350D02*
Y025850D01*
Y024350D02*
X036500Y023300D01*
X037020*
X033920Y029846D02*
X034040Y029966D01*
X034402*
X037135Y023915D02*
Y025150D01*
X031700Y025800D02*
Y026050D01*
X028025Y022125D02*
X031700Y025800D01*
X024226Y022125D02*
X028025D01*
X036969Y029769D02*
X037550D01*
X029010Y021810D02*
X036969Y029769D01*
X028674Y021810D02*
X029010D01*
X028674Y021495D02*
X028680Y021500D01*
X028674Y021495D02*
X028876D01*
X032150Y030000D02*
X032313Y030163D01*
X032150Y025900D02*
Y030000D01*
X028674Y022424D02*
X032150Y025900D01*
X032550Y029600D02*
X032719Y029769D01*
X032550Y026000D02*
Y029600D01*
X032719Y029769D02*
X033300D01*
X032313Y030163D02*
X033300D01*
X028674Y022125D02*
Y022424D01*
X023300Y029713D02*
X023750Y030163D01*
X023300Y028250D02*
Y029713D01*
X023600Y029700D02*
X023669Y029769D01*
X023600Y028350D02*
Y029700D01*
X025820Y022774D02*
Y024370D01*
X032420Y018830D02*
X032430D01*
Y018820D02*
Y018830D01*
Y018820D02*
X032450Y018800D01*
X032400Y018850D02*
X032420Y018830D01*
X032450Y018800D02*
X033280D01*
X032350D02*
X032400Y018850D01*
X032350Y019800D02*
X032850Y019300D01*
X033280*
X028700Y015950D02*
X033250D01*
X027080Y017570D02*
X028700Y015950D01*
X026765Y017385D02*
X028550Y015600D01*
X019450Y023800D02*
X020750Y025100D01*
X023431*
X016800Y011300D02*
X020415D01*
X024465Y015350*
X027395Y017655D02*
X028700Y016350D01*
X027710Y017690D02*
X028750Y016650D01*
X026765Y017385D02*
Y018326D01*
X027080Y017570D02*
Y018326D01*
X027395Y017655D02*
Y018326D01*
X027710Y017690D02*
Y018326D01*
X026450Y016500D02*
Y018326D01*
X023740Y019290D02*
X024226D01*
X023135Y020235D02*
X024226D01*
X025190Y017340D02*
Y018326D01*
X025505Y017193D02*
Y018326D01*
X023220Y019920D02*
X024226D01*
Y018076D02*
Y018975D01*
X025820Y016820D02*
Y018326D01*
X026135Y014615D02*
Y018326D01*
X023555Y019605D02*
X024226D01*
X026450Y016500D02*
X028750Y014200D01*
X026135Y014615D02*
X026550Y014200D01*
X020800Y012950D02*
X025190Y017340D01*
X028750Y014200D02*
X030290D01*
X018900Y013900D02*
X023650Y018650D01*
X017800Y013900D02*
X018900D01*
X023650Y018650D02*
Y019200D01*
X023740Y019290*
X019600Y013450D02*
X024226Y018076D01*
X017350Y013450D02*
X019600D01*
X025135Y016135D02*
X025820Y016820D01*
X025135Y015350D02*
Y016135D01*
X018250Y012950D02*
X020800D01*
X024465Y016153D02*
X025505Y017193D01*
X024465Y015350D02*
Y016153D01*
X016800Y012900D02*
X017350Y013450D01*
X016800Y012300D02*
Y012900D01*
X014800Y012300D02*
Y013650D01*
X010500Y017950D02*
X014800Y013650D01*
X010500Y017950D02*
Y026600D01*
X018400Y014450D02*
X023555Y019605D01*
X022850Y019950D02*
X023135Y020235D01*
X022450Y019950D02*
X022850D01*
X022350Y019150D02*
X022450D01*
X023220Y019920*
X016135Y025700D02*
Y026800D01*
X017700Y019250D02*
X018500D01*
X017598Y019148D02*
X017700Y019250D01*
X017598Y018450D02*
Y019148D01*
X015800Y011300D02*
Y011572D01*
X010500Y026600D02*
X011100Y027200D01*
X016351Y028000D02*
Y028499D01*
X017644Y032800D02*
X017694Y032750D01*
X017644Y032800D02*
Y034600D01*
X026369Y012400D02*
Y014019D01*
X019550Y021750D02*
Y022500D01*
X018000Y023500D02*
X018800Y022700D01*
Y021800D02*
Y022700D01*
X015894Y023500D02*
X018000D01*
X015844Y023550D02*
X015894Y023500D01*
X015844Y022500D02*
X018000D01*
X026369Y014019D02*
X026550Y014200D01*
X030290D02*
X030365Y014125D01*
Y012450D02*
Y014125D01*
X025505Y025036D02*
X025569Y025100D01*
X014250Y030864D02*
X014370Y030984D01*
X014250Y028972D02*
Y030864D01*
X013354Y022953D02*
X013808Y022500D01*
X015156*
X013164Y023550D02*
X015156D01*
X012567Y022953D02*
X013164Y023550D01*
X024176Y020600D02*
X024226Y020550D01*
X011968Y030984D02*
X013285Y032300D01*
X015100*
X015550Y032750*
X017006*
X016400Y034600D02*
X016956D01*
X015528Y035472D02*
X016400Y034600D01*
X014370Y035472D02*
X015528D01*
X011968D02*
X014370D01*
X011100Y027200D02*
X014250D01*
X011100Y028972D02*
X014250D01*
X017569Y016250D02*
Y017335D01*
X016900Y016250D02*
X016915Y016265D01*
Y017350*
X016902Y017364D02*
X016915Y017350D01*
X016902Y017364D02*
Y018450D01*
X015249Y028499D02*
X015456Y028706D01*
X015249Y028000D02*
Y028499D01*
X015465Y025700D02*
Y026800D01*
X014250Y027200D02*
X014700D01*
X015100Y026800*
X015465*
X026765Y022774D02*
Y026435D01*
X025820Y024370D02*
X026050Y024600D01*
Y025500*
X026135Y022774D02*
Y024335D01*
X026300Y024500*
Y025610*
X030300Y017431D02*
X031139D01*
X031380Y017190*
X016135Y025315D02*
Y025700D01*
X014550Y025100D02*
X015920D01*
X016135Y025315*
X015656Y024550D02*
Y024836D01*
X015920Y025100*
X016902Y018450D02*
Y019770D01*
X028619Y025100D02*
Y026109D01*
X028700Y026190*
X020900Y018950D02*
X021400D01*
X020500Y019350D02*
X020900Y018950D01*
X020885Y020485D02*
X021400D01*
X020500Y020100D02*
X020885Y020485D01*
X020500Y019350D02*
Y020100D01*
X022255Y020865D02*
X024226D01*
X021875Y020485D02*
X022255Y020865D01*
X021400Y020485D02*
X021875D01*
X022400Y020550D02*
X024226D01*
X021400Y019815D02*
X021665D01*
X022400Y020550*
X023431Y024769D02*
Y025100D01*
X024875Y022774D02*
Y023325D01*
X023431Y024769D02*
X024875Y023325D01*
X024100Y024750D02*
Y025100D01*
Y024750D02*
X024550Y024300D01*
X024900Y024650D02*
Y025100D01*
X024550Y024300D02*
X024900Y024650D01*
X029902Y030359D02*
X030350D01*
X028800Y030556D02*
X029180D01*
X029240Y024310D02*
Y030496D01*
X029180Y030556D02*
X029240Y030496D01*
Y024310D02*
X029300Y024250D01*
X019210Y025590D02*
X025960D01*
X026050Y025500*
X029080Y021180D02*
X034750Y026850D01*
X036750*
X036950Y026650*
X031800Y022260D02*
X031840Y022300D01*
X033280*
X023600Y028350D02*
X025410Y026540D01*
X026660*
X026765Y026435*
X019200Y026460D02*
X019500Y026160D01*
X019200Y026460D02*
Y029600D01*
X019500Y026160D02*
X022400D01*
X022540Y026020*
X025890*
X026300Y025610*
X034402Y029572D02*
X035372D01*
X019550Y021750D02*
X019805Y021495D01*
X024226*
X023300Y028250D02*
X025270Y026280D01*
X026280*
X026510Y026050*
X029460Y025290D02*
X029900Y024850D01*
X029460Y029860D02*
X029566Y029966D01*
X028700Y016350D02*
X036280D01*
X032600Y014450D02*
X035870D01*
X036280Y016350D02*
X038000Y018070D01*
X037760Y018790D02*
X038000Y018550D01*
X037760Y018790D02*
Y018800D01*
X038000Y018070D02*
Y018550D01*
X028750Y016650D02*
X035670D01*
X037020Y018000*
Y018300*
X038200Y028590D02*
X038530Y028260D01*
X038200Y028590D02*
Y029496D01*
X038205Y029502*
Y030435*
X037000Y029500D02*
X037907D01*
X037995Y029589*
X038084Y030556D02*
X038205Y030435D01*
X037995Y029589D02*
Y030163D01*
X037550D02*
X037995D01*
X026700Y028400D02*
X026710Y028410D01*
X025100Y031313D02*
Y035800D01*
X024619Y029769D02*
X024957Y030107D01*
Y031170D02*
X025100Y031313D01*
X024957Y030107D02*
Y031170D01*
X024500Y031415D02*
Y035150D01*
Y031415D02*
X024745Y031170D01*
Y030281D02*
Y031170D01*
Y030281D02*
X024747Y030280D01*
X024630Y030163D02*
X024747Y030280D01*
X020150Y031850D02*
X020707Y031293D01*
Y030727D02*
Y031293D01*
Y030727D02*
X020710Y030725D01*
Y030449D02*
Y030725D01*
Y030449D02*
X020800Y030359D01*
X021152*
X020050Y030556D02*
X020444D01*
X019900Y026750D02*
X020485Y027335D01*
X020500Y026850D02*
X020685Y027035D01*
X020826Y029966D02*
X021152D01*
X020685Y029825D02*
X020826Y029966D01*
X020685Y027035D02*
Y029825D01*
X020444Y030556D02*
X020485Y030515D01*
Y027335D02*
Y030515D01*
X025135Y014735D02*
Y015350D01*
X024330Y013930D02*
X025135Y014735D01*
X032930Y015600D02*
X033200Y015330D01*
X033450*
X028550Y015600D02*
X032930D01*
X018800Y021800D02*
X019420Y021180D01*
X024226*
X017212Y020080D02*
X019530D01*
X016902Y019770D02*
X017212Y020080D01*
X031100Y018100D02*
X031860Y017340D01*
X033020*
X022534Y035834D02*
X022650Y035950D01*
Y036650*
X022098Y035834D02*
X022534D01*
X022500Y023850D02*
X023750D01*
X021500Y022850D02*
X022500Y023850D01*
X037020Y023800D02*
X037135Y023915D01*
X037020Y022800D02*
X038250D01*
X037020Y018800D02*
X037760D01*
X037020Y019300D02*
X037600D01*
X037020Y022300D02*
X038800D01*
X017500Y024450D02*
Y027640D01*
X017140Y028000D02*
X017500Y027640D01*
X016351Y028000D02*
X017140D01*
X016144Y029150D02*
X016480D01*
X017694Y030364*
Y032750*
X026710Y028410D02*
Y034059D01*
X026835Y034185*
Y035405D02*
X027011Y035581D01*
X027502*
X026835Y034185D02*
Y035405D01*
X027067Y022787D02*
X027080Y022774D01*
X027117Y035187D02*
X027502D01*
X027067Y035137D02*
X027117Y035187D01*
X027067Y029880D02*
X027350Y030163D01*
X027067Y022787D02*
Y029880D01*
Y035137*
X036465Y025690D02*
X036631Y025855D01*
X036995*
X036465Y025150D02*
Y025690D01*
X035870Y014450D02*
X038450Y017030D01*
Y019806*
X020481Y022181D02*
X021500D01*
X021740Y022170D02*
X022560D01*
X022920Y021810*
X024226*
X025190Y022774D02*
Y023660D01*
X024550Y024300D02*
X025190Y023660D01*
X025505Y022774D02*
Y024446D01*
X025569Y024510*
Y025100*
X026430Y023970D02*
X026510Y024050D01*
X026430Y022794D02*
Y023970D01*
Y022794D02*
X026450Y022774D01*
X026510Y024050D02*
Y026050D01*
X019450Y023800D02*
X020370Y022880D01*
Y022190D02*
Y022880D01*
X015249Y027451D02*
Y028000D01*
Y027451D02*
X015465Y027235D01*
Y026800D02*
Y027235D01*
X022650Y034100D02*
Y034750D01*
X022750Y034850*
X023200Y035637D02*
X024013D01*
X023750Y030163D02*
X024300D01*
X024630*
X025402Y030359D02*
X026259D01*
X025402Y029966D02*
X026134D01*
X023669Y029769D02*
X024300D01*
X024619*
X018950Y025850D02*
X019210Y025590D01*
X029566Y029966D02*
X029902D01*
X029460Y025290D02*
Y029860D01*
X028419Y029769D02*
X028800D01*
X027350Y030163D02*
X028800D01*
X016950Y036550D02*
X016956Y036544D01*
Y034600D02*
Y036544D01*
X035422Y040730D02*
X035442Y040750D01*
X037500*
X011500Y043500D02*
X011850Y043150D01*
X025000Y044050D02*
X025650D01*
X025900Y043800*
X026140Y044040*
X026890*
Y041254D02*
Y043449D01*
Y041254D02*
X026900Y041244D01*
X025000Y041250D02*
Y043459D01*
X014250Y043256D02*
X014350Y043156D01*
Y039900D02*
Y041550D01*
X014250Y041650D02*
X014350Y041550D01*
X014250Y041650D02*
Y043256D01*
X016350Y039900D02*
Y041600D01*
X016500Y041750*
Y043256*
X018500Y041900D02*
Y043256D01*
X018350Y041750D02*
X018500Y041900D01*
X018350Y039900D02*
Y041750D01*
X020400Y039950D02*
Y043256D01*
X020350Y039900D02*
X020400Y039950D01*
X022500Y040050D02*
Y043256D01*
X014250Y043944D02*
X016500D01*
X018500*
X020400*
X021156*
X021350Y043750*
Y042650D02*
Y043750D01*
X026344Y040556D02*
X026900D01*
X025950Y040950D02*
X026344Y040556D01*
X025950Y040950D02*
Y042000D01*
X022500Y043944D02*
X023256D01*
X022350Y039900D02*
X022500Y040050D01*
X025050Y039250D02*
Y040511D01*
X025000Y040561D02*
X025050Y040511D01*
X018700Y037150D02*
X019700Y038150D01*
X023950*
X025050Y039250*
X023850Y039450D02*
Y043350D01*
X023256Y043944D02*
X023850Y043350D01*
X018550Y024500D02*
Y033750D01*
X019400Y034600*
Y036950*
G54D32*
X012900Y017680D02*
X013570Y017010D01*
X012900Y017680D02*
Y018252D01*
Y018948D02*
Y020050D01*
X012567Y020383D02*
X012900Y020050D01*
X012567Y020383D02*
Y021969D01*
G54D33*
X012567Y021969D03*
Y022953D03*
X013354D03*
Y021969D03*
G54D34*
X011500Y024831D03*
Y020091D03*
G54D35*
X014800Y011300D03*
Y012300D03*
X015800Y011300D03*
Y012300D03*
X016800Y011300D03*
G54D36*
X016800Y012300D03*
G54D37*
X011500Y043500D03*
G54D38*
X037500Y043500D03*
X038500Y011500D03*
X011500D03*
G54D39*
X013350Y039900D03*
X014350D03*
X015350D03*
X016350D03*
X017350D03*
X018350D03*
X019350D03*
X020350D03*
X021350D03*
G54D40*
X022350Y039900D03*
G54D41*
X038820Y015950D03*
X020410Y017450D03*
X016800Y020900D03*
X013570Y017010D03*
X034310Y024940D03*
X031350Y018650D03*
X038900Y026050D03*
X036950Y026650D03*
X033100Y026500D03*
X025550Y026950D03*
X026350Y029300D03*
X020450Y034800D03*
X027850Y026800D03*
X023750Y023850D03*
X024550Y024300D03*
X025500Y035500D03*
X024300Y037550D03*
X035950Y030150D03*
X031200Y030350D03*
X022250Y030100D03*
X028700Y026190D03*
X038000Y025150D03*
X030559Y032541D03*
X022350Y028650D03*
X025550Y032559D03*
X027600Y027500D03*
X026700Y028400D03*
X020150Y032550D03*
X017950Y036200D03*
X029900Y024850D03*
X030450Y025250D03*
X029300Y024250D03*
X021100Y026700D03*
X019900Y026750D03*
X020500D03*
X037500Y040750D03*
X035150Y026150D03*
X032475Y023225D03*
X032050Y022700D03*
X032450Y021750D03*
X031750Y021300D03*
X032350Y020800D03*
X031750Y020250D03*
X030650Y019500D03*
X029850Y021100D03*
X030700Y020200D03*
X016950Y036550D03*
Y031800D03*
X029800Y019400D03*
X029050Y017450D03*
X018550Y024500D03*
X018150Y025400D03*
X023200Y016200D03*
X032600Y014450D03*
X031700Y026050D03*
X032550Y026000D03*
X032430Y018830D03*
X032350Y019800D03*
X033250Y015950D03*
X018250Y012950D03*
X017800Y013900D03*
X022350Y019150D03*
X022450Y019950D03*
X018500Y019250D03*
X019550Y022500D03*
X018000D03*
X037980Y026840D03*
X031380Y017190D03*
X014550Y025100D03*
X031800Y022260D03*
X022400Y026160D03*
X024330Y013930D03*
X033450Y015330D03*
X033220Y013100D03*
X019530Y020080D03*
X033020Y017340D03*
X020370Y022190D03*
X025900Y043800D03*
G54D42*
X025950Y042000D03*
X021350Y042650D03*
X023850Y039450D03*
X019400Y036950D03*
M02*