G04 Layer_Color=32768*
%FSAX24Y24*%
%MOIN*%
G70*
G01*
G75*
%ADD29C,0.0039*%
%ADD30C,0.0020*%
D29*
X011753Y024650D02*
X012147D01*
X011950Y024453D02*
Y024847D01*
X015553Y029850D02*
X015947D01*
X015750Y029653D02*
Y030047D01*
X011653Y016950D02*
X012047D01*
X011850Y016753D02*
Y017147D01*
X011803Y029800D02*
X012197D01*
X012000Y029603D02*
Y029997D01*
X011703Y022650D02*
X012097D01*
X011900Y022453D02*
Y022847D01*
X011703Y014950D02*
X012097D01*
X011900Y014753D02*
Y015147D01*
D30*
X012619Y024276D02*
Y025024D01*
X011281Y024276D02*
Y025024D01*
Y024276D02*
X012619D01*
X011281Y025024D02*
X012619D01*
X016419Y029476D02*
Y030224D01*
X015081Y029476D02*
Y030224D01*
Y029476D02*
X016419D01*
X015081Y030224D02*
X016419D01*
X012519Y016576D02*
Y017324D01*
X011181Y016576D02*
Y017324D01*
Y016576D02*
X012519D01*
X011181Y017324D02*
X012519D01*
X011331Y029426D02*
Y030174D01*
X012669Y029426D02*
Y030174D01*
X011331D02*
X012669D01*
X011331Y029426D02*
X012669D01*
X011231Y022276D02*
Y023024D01*
X012569Y022276D02*
Y023024D01*
X011231D02*
X012569D01*
X011231Y022276D02*
X012569D01*
X011231Y014576D02*
Y015324D01*
X012569Y014576D02*
Y015324D01*
X011231D02*
X012569D01*
X011231Y014576D02*
X012569D01*
M02*
