G04 Layer_Color=8388736*
%FSAX24Y24*%
%MOIN*%
G70*
G01*
G75*
%ADD20R,0.0533X0.0631*%
%ADD21R,0.0198X0.0474*%
%ADD22R,0.0198X0.0356*%
%ADD23C,0.1200*%
%ADD24C,0.0780*%
%ADD25R,0.2080X0.2080*%
%ADD26C,0.0580*%
D20*
X012244Y016950D02*
D03*
X011556D02*
D03*
X012244Y014950D02*
D03*
X011556D02*
D03*
X012344Y024700D02*
D03*
X011656D02*
D03*
X016094Y029800D02*
D03*
X015406D02*
D03*
X012244Y022650D02*
D03*
X011556D02*
D03*
X012344Y029800D02*
D03*
X011656D02*
D03*
D21*
X013197Y012697D02*
D03*
X014803D02*
D03*
D22*
X013508Y013740D02*
D03*
X013705D02*
D03*
X013902D02*
D03*
X014098D02*
D03*
X014295D02*
D03*
X014492D02*
D03*
D23*
X013100Y018500D02*
D03*
X014000Y028050D02*
D03*
X016900Y018500D02*
D03*
D24*
X013565Y031037D02*
D03*
X014435D02*
D03*
X013565Y032037D02*
D03*
X014435D02*
D03*
Y016437D02*
D03*
X013565D02*
D03*
X014435Y015437D02*
D03*
X013565D02*
D03*
Y023237D02*
D03*
X014435D02*
D03*
X013565Y024237D02*
D03*
X014435D02*
D03*
D25*
X011500Y011500D02*
D03*
X016500D02*
D03*
Y032500D02*
D03*
X011500D02*
D03*
D26*
X016281Y016418D02*
D03*
X011500Y013750D02*
D03*
M02*
