G04 Layer_Physical_Order=2*
G04 Layer_Color=16711680*
%FSAX24Y24*%
%MOIN*%
G70*
G01*
G75*
%ADD13C,0.0120*%
%ADD14C,0.0550*%
%ADD15R,0.2000X0.2000*%
%ADD16C,0.0500*%
G36*
X015400Y032575D02*
X016500D01*
Y032500D01*
X016575D01*
Y031400D01*
X017500D01*
Y012600D01*
X016575D01*
Y011500D01*
X016500D01*
Y011425D01*
X015400D01*
Y010750D01*
X012600D01*
Y011425D01*
X011500D01*
Y011500D01*
X011425D01*
Y012600D01*
X010500D01*
Y031400D01*
X011425D01*
Y032500D01*
X011500D01*
Y032575D01*
X012600D01*
Y033500D01*
X015400D01*
Y032575D01*
D02*
G37*
%LPC*%
G36*
X013490Y016805D02*
X013467Y016802D01*
X013376Y016765D01*
X013297Y016704D01*
X013237Y016626D01*
X013200Y016535D01*
X013197Y016512D01*
X013490D01*
Y016805D01*
D02*
G37*
G36*
Y016362D02*
X013197D01*
X013200Y016339D01*
X013237Y016248D01*
X013297Y016170D01*
X013376Y016109D01*
X013467Y016072D01*
X013490Y016069D01*
Y016362D01*
D02*
G37*
G36*
X014435Y016916D02*
X014311Y016900D01*
X014195Y016852D01*
X014096Y016776D01*
X014020Y016677D01*
X013973Y016563D01*
X013967Y016561D01*
X013921Y016557D01*
X013892Y016626D01*
X013832Y016704D01*
X013754Y016765D01*
X013663Y016802D01*
X013640Y016805D01*
Y016437D01*
Y016069D01*
X013663Y016072D01*
X013754Y016109D01*
X013832Y016170D01*
X013892Y016248D01*
X013921Y016317D01*
X013967Y016313D01*
X013973Y016311D01*
X014020Y016197D01*
X014096Y016098D01*
X014195Y016022D01*
X014311Y015974D01*
X014435Y015958D01*
X014559Y015974D01*
X014675Y016022D01*
X014774Y016098D01*
X014833Y016175D01*
X015901D01*
X015961Y016098D01*
X016055Y016025D01*
X016164Y015980D01*
X016281Y015965D01*
X016399Y015980D01*
X016508Y016025D01*
X016602Y016098D01*
X016675Y016192D01*
X016720Y016301D01*
X016735Y016418D01*
X016720Y016536D01*
X016675Y016645D01*
X016602Y016739D01*
X016508Y016812D01*
X016399Y016857D01*
X016281Y016872D01*
X016164Y016857D01*
X016055Y016812D01*
X015961Y016739D01*
X015930Y016699D01*
X014833D01*
X014774Y016776D01*
X014675Y016852D01*
X014559Y016900D01*
X014435Y016916D01*
D02*
G37*
G36*
X014803Y023162D02*
X014510D01*
Y022869D01*
X014533Y022872D01*
X014624Y022909D01*
X014702Y022970D01*
X014763Y023048D01*
X014800Y023139D01*
X014803Y023162D01*
D02*
G37*
G36*
X013565Y023716D02*
X013441Y023700D01*
X013325Y023652D01*
X013226Y023576D01*
X013150Y023477D01*
X013102Y023361D01*
X013086Y023237D01*
X013102Y023113D01*
X013150Y022997D01*
X013226Y022898D01*
X013325Y022822D01*
X013441Y022774D01*
X013565Y022758D01*
X013689Y022774D01*
X013804Y022822D01*
X013904Y022898D01*
X013980Y022997D01*
X014027Y023111D01*
X014032Y023113D01*
X014079Y023117D01*
X014107Y023048D01*
X014168Y022970D01*
X014246Y022909D01*
X014337Y022872D01*
X014360Y022869D01*
Y023237D01*
Y023605D01*
X014337Y023602D01*
X014246Y023565D01*
X014168Y023504D01*
X014107Y023426D01*
X014079Y023357D01*
X014032Y023361D01*
X014027Y023363D01*
X013980Y023477D01*
X013904Y023576D01*
X013804Y023652D01*
X013689Y023700D01*
X013565Y023716D01*
D02*
G37*
G36*
X016425Y012600D02*
X015400D01*
Y011575D01*
X016425D01*
Y012600D01*
D02*
G37*
G36*
X012600D02*
X011575D01*
Y011575D01*
X012600D01*
Y012600D01*
D02*
G37*
G36*
X013565Y015916D02*
X013441Y015900D01*
X013325Y015852D01*
X013226Y015776D01*
X013150Y015677D01*
X013102Y015561D01*
X013086Y015437D01*
X013102Y015313D01*
X013150Y015197D01*
X013226Y015098D01*
X013325Y015022D01*
X013441Y014974D01*
X013565Y014958D01*
X013689Y014974D01*
X013804Y015022D01*
X013904Y015098D01*
X013980Y015197D01*
X014027Y015311D01*
X014032Y015313D01*
X014079Y015317D01*
X014107Y015248D01*
X014168Y015170D01*
X014246Y015109D01*
X014337Y015072D01*
X014360Y015069D01*
Y015437D01*
Y015805D01*
X014337Y015802D01*
X014246Y015765D01*
X014168Y015704D01*
X014107Y015626D01*
X014079Y015557D01*
X014032Y015561D01*
X014027Y015563D01*
X013980Y015677D01*
X013904Y015776D01*
X013804Y015852D01*
X013689Y015900D01*
X013565Y015916D01*
D02*
G37*
G36*
X014510Y015805D02*
Y015512D01*
X014803D01*
X014800Y015535D01*
X014763Y015626D01*
X014702Y015704D01*
X014624Y015765D01*
X014533Y015802D01*
X014510Y015805D01*
D02*
G37*
G36*
X014803Y015362D02*
X014510D01*
Y015069D01*
X014533Y015072D01*
X014624Y015109D01*
X014702Y015170D01*
X014763Y015248D01*
X014800Y015339D01*
X014803Y015362D01*
D02*
G37*
G36*
X012600Y032425D02*
X011575D01*
Y031400D01*
X012600D01*
Y032425D01*
D02*
G37*
G36*
X014510Y031405D02*
Y031112D01*
X014803D01*
X014800Y031135D01*
X014763Y031226D01*
X014702Y031304D01*
X014624Y031365D01*
X014533Y031402D01*
X014510Y031405D01*
D02*
G37*
G36*
X013490Y031962D02*
X013197D01*
X013200Y031939D01*
X013237Y031848D01*
X013297Y031770D01*
X013376Y031709D01*
X013467Y031672D01*
X013490Y031669D01*
Y031962D01*
D02*
G37*
G36*
X014435Y032516D02*
X014311Y032500D01*
X014195Y032452D01*
X014096Y032376D01*
X014020Y032277D01*
X013973Y032163D01*
X013967Y032161D01*
X013921Y032157D01*
X013892Y032226D01*
X013832Y032304D01*
X013754Y032365D01*
X013663Y032402D01*
X013640Y032405D01*
Y032037D01*
Y031669D01*
X013663Y031672D01*
X013754Y031709D01*
X013832Y031770D01*
X013892Y031848D01*
X013921Y031917D01*
X013967Y031913D01*
X013973Y031911D01*
X014020Y031797D01*
X014096Y031698D01*
X014195Y031622D01*
X014311Y031574D01*
X014435Y031558D01*
X014559Y031574D01*
X014627Y031602D01*
X015838Y030391D01*
Y029312D01*
X011500D01*
X011432Y029303D01*
X011369Y029277D01*
X011315Y029235D01*
X011273Y029181D01*
X011247Y029118D01*
X011238Y029050D01*
Y014116D01*
X011179Y014071D01*
X011107Y013977D01*
X011062Y013867D01*
X011046Y013750D01*
X011062Y013633D01*
X011107Y013523D01*
X011179Y013429D01*
X011273Y013357D01*
X011383Y013312D01*
X011500Y013296D01*
X011617Y013312D01*
X011727Y013357D01*
X011821Y013429D01*
X011893Y013523D01*
X011938Y013633D01*
X011954Y013750D01*
X011938Y013867D01*
X011893Y013977D01*
X011821Y014071D01*
X011762Y014116D01*
Y028788D01*
X016000D01*
X016000Y028788D01*
X016068Y028797D01*
X016131Y028823D01*
X016185Y028865D01*
X016285Y028965D01*
X016285Y028965D01*
X016327Y029019D01*
X016353Y029082D01*
X016362Y029150D01*
Y030500D01*
X016362Y030500D01*
X016353Y030568D01*
X016327Y030631D01*
X016285Y030685D01*
X016285Y030685D01*
X015617Y031354D01*
X015636Y031400D01*
X016425D01*
Y032425D01*
X015400D01*
Y031636D01*
X015354Y031617D01*
X014911Y032060D01*
X014898Y032161D01*
X014850Y032277D01*
X014774Y032376D01*
X014675Y032452D01*
X014559Y032500D01*
X014435Y032516D01*
D02*
G37*
G36*
X013490Y032405D02*
X013467Y032402D01*
X013376Y032365D01*
X013297Y032304D01*
X013237Y032226D01*
X013200Y032135D01*
X013197Y032112D01*
X013490D01*
Y032405D01*
D02*
G37*
G36*
X014803Y030962D02*
X014510D01*
Y030669D01*
X014533Y030672D01*
X014624Y030709D01*
X014702Y030770D01*
X014763Y030848D01*
X014800Y030939D01*
X014803Y030962D01*
D02*
G37*
G36*
X013490Y024162D02*
X013197D01*
X013200Y024139D01*
X013237Y024048D01*
X013297Y023970D01*
X013376Y023909D01*
X013467Y023872D01*
X013490Y023869D01*
Y024162D01*
D02*
G37*
G36*
X014510Y023605D02*
Y023312D01*
X014803D01*
X014800Y023335D01*
X014763Y023426D01*
X014702Y023504D01*
X014624Y023565D01*
X014533Y023602D01*
X014510Y023605D01*
D02*
G37*
G36*
X013490Y024605D02*
X013467Y024602D01*
X013376Y024565D01*
X013297Y024504D01*
X013237Y024426D01*
X013200Y024335D01*
X013197Y024312D01*
X013490D01*
Y024605D01*
D02*
G37*
G36*
X013565Y031516D02*
X013441Y031500D01*
X013325Y031452D01*
X013226Y031376D01*
X013150Y031277D01*
X013102Y031161D01*
X013086Y031037D01*
X013102Y030913D01*
X013150Y030797D01*
X013226Y030698D01*
X013325Y030622D01*
X013441Y030574D01*
X013565Y030558D01*
X013689Y030574D01*
X013804Y030622D01*
X013904Y030698D01*
X013980Y030797D01*
X014027Y030911D01*
X014032Y030913D01*
X014079Y030917D01*
X014107Y030848D01*
X014168Y030770D01*
X014246Y030709D01*
X014337Y030672D01*
X014360Y030669D01*
Y031037D01*
Y031405D01*
X014337Y031402D01*
X014246Y031365D01*
X014168Y031304D01*
X014107Y031226D01*
X014079Y031157D01*
X014032Y031161D01*
X014027Y031163D01*
X013980Y031277D01*
X013904Y031376D01*
X013804Y031452D01*
X013689Y031500D01*
X013565Y031516D01*
D02*
G37*
G36*
X014435Y024716D02*
X014311Y024700D01*
X014195Y024652D01*
X014096Y024576D01*
X014020Y024477D01*
X013973Y024363D01*
X013967Y024361D01*
X013921Y024357D01*
X013892Y024426D01*
X013832Y024504D01*
X013754Y024565D01*
X013663Y024602D01*
X013640Y024605D01*
Y024237D01*
Y023869D01*
X013663Y023872D01*
X013754Y023909D01*
X013832Y023970D01*
X013892Y024048D01*
X013921Y024117D01*
X013967Y024113D01*
X013973Y024111D01*
X014020Y023997D01*
X014096Y023898D01*
X014195Y023822D01*
X014311Y023774D01*
X014435Y023758D01*
X014559Y023774D01*
X014675Y023822D01*
X014774Y023898D01*
X014850Y023997D01*
X014898Y024113D01*
X014914Y024237D01*
X014898Y024361D01*
X014850Y024477D01*
X014774Y024576D01*
X014675Y024652D01*
X014559Y024700D01*
X014435Y024716D01*
D02*
G37*
%LPD*%
D13*
X016000Y029050D02*
X016100Y029150D01*
X014435Y016437D02*
X016263D01*
X016281Y016418D01*
X011500Y029050D02*
X016000D01*
X011500Y013750D02*
Y029050D01*
X014435Y032037D02*
X014563D01*
X016100Y030500D01*
Y029150D02*
Y030500D01*
D14*
X013565Y023237D02*
D03*
X014435D02*
D03*
X013565Y024237D02*
D03*
X014435D02*
D03*
X013565Y015437D02*
D03*
X014435D02*
D03*
X013565Y016437D02*
D03*
X014435D02*
D03*
X013565Y031037D02*
D03*
X014435D02*
D03*
X013565Y032037D02*
D03*
X014435D02*
D03*
D15*
X011500Y032500D02*
D03*
X016500D02*
D03*
Y011500D02*
D03*
X011500D02*
D03*
D16*
Y013750D02*
D03*
X016281Y016418D02*
D03*
M02*
