G04 Layer_Color=32896*
%FSAX24Y24*%
%MOIN*%
G70*
G01*
G75*
%ADD19C,0.0100*%
%ADD27C,0.0080*%
G36*
X015124Y024303D02*
Y024302D01*
Y024301D01*
Y024300D01*
X015124Y024298D01*
Y024296D01*
X015124Y024294D01*
X015123Y024291D01*
Y024288D01*
X015123Y024285D01*
X015122Y024282D01*
X015122Y024278D01*
X015121Y024269D01*
X015120Y024260D01*
X015120D01*
X015121Y024261D01*
X015122Y024261D01*
X015123Y024262D01*
X015125Y024263D01*
X015127Y024263D01*
X015129Y024265D01*
X015132Y024266D01*
X015138Y024268D01*
X015145Y024271D01*
X015152Y024274D01*
X015161Y024277D01*
X015169Y024253D01*
X015168D01*
X015167Y024252D01*
X015166Y024252D01*
X015165Y024251D01*
X015163Y024251D01*
X015161Y024250D01*
X015158Y024249D01*
X015155Y024248D01*
X015149Y024247D01*
X015141Y024245D01*
X015134Y024244D01*
X015126Y024243D01*
X015126Y024242D01*
X015128Y024241D01*
X015130Y024239D01*
X015133Y024235D01*
X015135Y024233D01*
X015137Y024231D01*
X015140Y024228D01*
X015143Y024225D01*
X015145Y024222D01*
X015148Y024219D01*
X015152Y024215D01*
X015155Y024211D01*
X015135Y024196D01*
Y024196D01*
X015134Y024197D01*
X015134Y024197D01*
X015133Y024199D01*
X015132Y024200D01*
X015131Y024202D01*
X015130Y024203D01*
X015128Y024206D01*
X015125Y024211D01*
X015121Y024217D01*
X015116Y024224D01*
X015111Y024233D01*
Y024232D01*
X015110Y024232D01*
X015110Y024230D01*
X015109Y024229D01*
X015108Y024227D01*
X015107Y024224D01*
X015104Y024219D01*
X015100Y024213D01*
X015096Y024207D01*
X015093Y024201D01*
X015089Y024196D01*
X015068Y024211D01*
X015069Y024211D01*
X015069Y024212D01*
X015070Y024213D01*
X015072Y024215D01*
X015073Y024217D01*
X015075Y024219D01*
X015080Y024224D01*
X015084Y024229D01*
X015089Y024235D01*
X015091Y024237D01*
X015093Y024239D01*
X015095Y024241D01*
X015097Y024243D01*
X015097D01*
X015096Y024243D01*
X015095Y024243D01*
X015093Y024244D01*
X015091Y024244D01*
X015089Y024244D01*
X015086Y024245D01*
X015083Y024246D01*
X015077Y024247D01*
X015070Y024249D01*
X015063Y024251D01*
X015055Y024253D01*
X015063Y024277D01*
X015063D01*
X015064Y024276D01*
X015066Y024276D01*
X015067Y024275D01*
X015070Y024274D01*
X015072Y024274D01*
X015078Y024271D01*
X015084Y024269D01*
X015091Y024266D01*
X015097Y024263D01*
X015100Y024262D01*
X015102Y024260D01*
Y024260D01*
Y024262D01*
X015102Y024263D01*
X015102Y024265D01*
X015102Y024268D01*
X015101Y024271D01*
X015101Y024274D01*
X015101Y024277D01*
X015100Y024284D01*
X015100Y024291D01*
X015100Y024295D01*
Y024298D01*
X015099Y024301D01*
Y024303D01*
X015124D01*
Y024303D01*
D02*
G37*
G36*
Y016503D02*
Y016502D01*
Y016501D01*
Y016500D01*
X015124Y016498D01*
Y016496D01*
X015124Y016494D01*
X015123Y016491D01*
Y016488D01*
X015123Y016485D01*
X015122Y016482D01*
X015122Y016478D01*
X015121Y016469D01*
X015120Y016460D01*
X015120D01*
X015121Y016461D01*
X015122Y016461D01*
X015123Y016462D01*
X015125Y016463D01*
X015127Y016463D01*
X015129Y016465D01*
X015132Y016466D01*
X015138Y016468D01*
X015145Y016471D01*
X015152Y016474D01*
X015161Y016477D01*
X015169Y016453D01*
X015168D01*
X015167Y016452D01*
X015166Y016452D01*
X015165Y016451D01*
X015163Y016451D01*
X015161Y016450D01*
X015158Y016449D01*
X015155Y016448D01*
X015149Y016447D01*
X015141Y016445D01*
X015134Y016444D01*
X015126Y016443D01*
X015126Y016442D01*
X015128Y016441D01*
X015130Y016439D01*
X015133Y016435D01*
X015135Y016433D01*
X015137Y016431D01*
X015140Y016428D01*
X015143Y016425D01*
X015145Y016422D01*
X015148Y016419D01*
X015152Y016415D01*
X015155Y016411D01*
X015135Y016396D01*
Y016396D01*
X015134Y016397D01*
X015134Y016397D01*
X015133Y016399D01*
X015132Y016400D01*
X015131Y016402D01*
X015130Y016403D01*
X015128Y016406D01*
X015125Y016411D01*
X015121Y016417D01*
X015116Y016424D01*
X015111Y016433D01*
Y016432D01*
X015110Y016432D01*
X015110Y016430D01*
X015109Y016429D01*
X015108Y016427D01*
X015107Y016424D01*
X015104Y016419D01*
X015100Y016413D01*
X015096Y016407D01*
X015093Y016401D01*
X015089Y016396D01*
X015068Y016411D01*
X015069Y016411D01*
X015069Y016412D01*
X015070Y016413D01*
X015072Y016415D01*
X015073Y016417D01*
X015075Y016419D01*
X015080Y016424D01*
X015084Y016429D01*
X015089Y016435D01*
X015091Y016437D01*
X015093Y016439D01*
X015095Y016441D01*
X015097Y016443D01*
X015097D01*
X015096Y016443D01*
X015095Y016443D01*
X015093Y016444D01*
X015091Y016444D01*
X015089Y016444D01*
X015086Y016445D01*
X015083Y016446D01*
X015077Y016447D01*
X015070Y016449D01*
X015063Y016451D01*
X015055Y016453D01*
X015063Y016477D01*
X015063D01*
X015064Y016476D01*
X015066Y016476D01*
X015067Y016475D01*
X015070Y016474D01*
X015072Y016474D01*
X015078Y016471D01*
X015084Y016469D01*
X015091Y016466D01*
X015097Y016463D01*
X015100Y016462D01*
X015102Y016460D01*
Y016460D01*
Y016462D01*
X015102Y016463D01*
X015102Y016465D01*
X015102Y016468D01*
X015101Y016471D01*
X015101Y016474D01*
X015101Y016477D01*
X015100Y016484D01*
X015100Y016491D01*
X015100Y016495D01*
Y016498D01*
X015099Y016501D01*
Y016503D01*
X015124D01*
Y016503D01*
D02*
G37*
G36*
Y032103D02*
Y032102D01*
Y032101D01*
Y032100D01*
X015124Y032098D01*
Y032096D01*
X015124Y032094D01*
X015123Y032091D01*
Y032088D01*
X015123Y032085D01*
X015122Y032082D01*
X015122Y032078D01*
X015121Y032069D01*
X015120Y032060D01*
X015120D01*
X015121Y032061D01*
X015122Y032061D01*
X015123Y032062D01*
X015125Y032063D01*
X015127Y032063D01*
X015129Y032065D01*
X015132Y032066D01*
X015138Y032068D01*
X015145Y032071D01*
X015152Y032074D01*
X015161Y032077D01*
X015169Y032053D01*
X015168D01*
X015167Y032052D01*
X015166Y032052D01*
X015165Y032051D01*
X015163Y032051D01*
X015161Y032050D01*
X015158Y032049D01*
X015155Y032048D01*
X015149Y032047D01*
X015141Y032045D01*
X015134Y032044D01*
X015126Y032043D01*
X015126Y032042D01*
X015128Y032041D01*
X015130Y032039D01*
X015133Y032035D01*
X015135Y032033D01*
X015137Y032031D01*
X015140Y032028D01*
X015143Y032025D01*
X015145Y032022D01*
X015148Y032019D01*
X015152Y032015D01*
X015155Y032011D01*
X015135Y031996D01*
Y031996D01*
X015134Y031997D01*
X015134Y031997D01*
X015133Y031999D01*
X015132Y032000D01*
X015131Y032002D01*
X015130Y032003D01*
X015128Y032006D01*
X015125Y032011D01*
X015121Y032017D01*
X015116Y032024D01*
X015111Y032033D01*
Y032032D01*
X015110Y032032D01*
X015110Y032030D01*
X015109Y032029D01*
X015108Y032027D01*
X015107Y032024D01*
X015104Y032019D01*
X015100Y032013D01*
X015096Y032007D01*
X015093Y032001D01*
X015089Y031996D01*
X015068Y032011D01*
X015069Y032011D01*
X015069Y032012D01*
X015070Y032013D01*
X015072Y032015D01*
X015073Y032017D01*
X015075Y032019D01*
X015080Y032024D01*
X015084Y032029D01*
X015089Y032035D01*
X015091Y032037D01*
X015093Y032039D01*
X015095Y032041D01*
X015097Y032043D01*
X015097D01*
X015096Y032043D01*
X015095Y032043D01*
X015093Y032044D01*
X015091Y032044D01*
X015089Y032044D01*
X015086Y032045D01*
X015083Y032046D01*
X015077Y032047D01*
X015070Y032049D01*
X015063Y032051D01*
X015055Y032053D01*
X015063Y032077D01*
X015063D01*
X015064Y032076D01*
X015066Y032076D01*
X015067Y032075D01*
X015070Y032074D01*
X015072Y032074D01*
X015078Y032071D01*
X015084Y032069D01*
X015091Y032066D01*
X015097Y032063D01*
X015100Y032062D01*
X015102Y032060D01*
Y032060D01*
Y032062D01*
X015102Y032063D01*
X015102Y032065D01*
X015102Y032068D01*
X015101Y032071D01*
X015101Y032074D01*
X015101Y032077D01*
X015100Y032084D01*
X015100Y032091D01*
X015100Y032095D01*
Y032098D01*
X015099Y032101D01*
Y032103D01*
X015124D01*
Y032103D01*
D02*
G37*
D19*
X015800Y022650D02*
Y023050D01*
X015900Y023150D01*
X016100D01*
X016200Y023050D01*
Y022650D01*
X016100Y022550D01*
X015900D01*
X016000Y022750D02*
X015800Y022550D01*
X015900D02*
X015800Y022650D01*
X015200Y022550D02*
X015600D01*
X015200Y022950D01*
Y023050D01*
X015300Y023150D01*
X015500D01*
X015600Y023050D01*
X015800Y014800D02*
Y015200D01*
X015900Y015300D01*
X016100D01*
X016200Y015200D01*
Y014800D01*
X016100Y014700D01*
X015900D01*
X016000Y014900D02*
X015800Y014700D01*
X015900D02*
X015800Y014800D01*
X015600Y015200D02*
X015500Y015300D01*
X015300D01*
X015200Y015200D01*
Y015100D01*
X015300Y015000D01*
X015400D01*
X015300D01*
X015200Y014900D01*
Y014800D01*
X015300Y014700D01*
X015500D01*
X015600Y014800D01*
X015600Y030400D02*
Y030800D01*
X015700Y030900D01*
X015900D01*
X016000Y030800D01*
Y030400D01*
X015900Y030300D01*
X015700D01*
X015800Y030500D02*
X015600Y030300D01*
X015700D02*
X015600Y030400D01*
X015400Y030300D02*
X015200D01*
X015300D01*
Y030900D01*
X015400Y030800D01*
D27*
X014896Y030317D02*
Y032526D01*
X013085Y030317D02*
X014896D01*
X013105Y032797D02*
X014625D01*
X014896Y032526D01*
X013085Y030317D02*
Y032777D01*
X013105Y032797D01*
X013085Y017177D02*
X013105Y017197D01*
X013085Y014717D02*
Y017177D01*
X014625Y017197D02*
X014896Y016926D01*
X013105Y017197D02*
X014625D01*
X013085Y014717D02*
X014896D01*
Y016926D01*
Y022517D02*
Y024726D01*
X013085Y022517D02*
X014896D01*
X013105Y024997D02*
X014625D01*
X014896Y024726D01*
X013085Y022517D02*
Y024977D01*
X013105Y024997D01*
M02*
