G04 Layer_Color=65535*
%FSAX24Y24*%
%MOIN*%
G70*
G01*
G75*
%ADD13C,0.0100*%
%ADD18C,0.0040*%
G36*
X013513Y014230D02*
X013512Y014228D01*
Y014225D01*
X013512Y014221D01*
X013512Y014214D01*
X013511Y014207D01*
X013511Y014204D01*
X013510Y014200D01*
X013510Y014198D01*
X013510Y014195D01*
X013510Y014193D01*
X013509Y014191D01*
Y014190D01*
Y014190D01*
X013512Y014191D01*
X013515Y014193D01*
X013521Y014196D01*
X013527Y014199D01*
X013534Y014201D01*
X013540Y014203D01*
X013542Y014204D01*
X013545Y014205D01*
X013546Y014206D01*
X013548Y014206D01*
X013549Y014207D01*
X013549D01*
X013557Y014182D01*
X013549Y014181D01*
X013542Y014179D01*
X013535Y014177D01*
X013528Y014176D01*
X013525Y014175D01*
X013523Y014174D01*
X013521Y014174D01*
X013519Y014173D01*
X013517Y014173D01*
X013516Y014173D01*
X013515Y014173D01*
X013515D01*
X013516Y014171D01*
X013519Y014169D01*
X013521Y014167D01*
X013523Y014164D01*
X013528Y014159D01*
X013532Y014154D01*
X013537Y014149D01*
X013539Y014146D01*
X013540Y014144D01*
X013542Y014143D01*
X013543Y014141D01*
X013543Y014141D01*
X013543Y014140D01*
X013523Y014126D01*
X013519Y014131D01*
X013516Y014137D01*
X013512Y014143D01*
X013508Y014149D01*
X013505Y014154D01*
X013504Y014156D01*
X013503Y014159D01*
X013502Y014160D01*
X013501Y014161D01*
X013501Y014162D01*
Y014162D01*
X013496Y014154D01*
X013491Y014147D01*
X013487Y014141D01*
X013484Y014135D01*
X013482Y014133D01*
X013481Y014131D01*
X013480Y014130D01*
X013479Y014128D01*
X013478Y014127D01*
X013478Y014126D01*
X013477Y014126D01*
Y014126D01*
X013457Y014140D01*
X013460Y014144D01*
X013463Y014149D01*
X013466Y014152D01*
X013469Y014155D01*
X013472Y014158D01*
X013474Y014161D01*
X013477Y014163D01*
X013478Y014165D01*
X013482Y014168D01*
X013484Y014171D01*
X013486Y014172D01*
X013486Y014173D01*
X013478Y014174D01*
X013471Y014175D01*
X013463Y014177D01*
X013457Y014178D01*
X013454Y014179D01*
X013451Y014180D01*
X013449Y014181D01*
X013447Y014181D01*
X013445Y014182D01*
X013444Y014182D01*
X013444Y014182D01*
X013443D01*
X013451Y014207D01*
X013459Y014204D01*
X013467Y014201D01*
X013474Y014198D01*
X013480Y014196D01*
X013483Y014194D01*
X013485Y014193D01*
X013487Y014193D01*
X013489Y014192D01*
X013490Y014191D01*
X013491Y014191D01*
X013492Y014190D01*
X013492D01*
X013491Y014199D01*
X013490Y014208D01*
X013489Y014211D01*
X013489Y014215D01*
X013489Y014218D01*
Y014221D01*
X013488Y014224D01*
X013488Y014226D01*
Y014228D01*
X013488Y014230D01*
Y014231D01*
Y014232D01*
Y014233D01*
Y014233D01*
X013513D01*
Y014230D01*
D02*
G37*
D13*
X011320Y017580D02*
Y018180D01*
X011620D01*
X011720Y018080D01*
Y017880D01*
X011620Y017780D01*
X011320D01*
X011520D02*
X011720Y017580D01*
X012320Y018180D02*
X012120Y018080D01*
X011920Y017880D01*
Y017680D01*
X012020Y017580D01*
X012220D01*
X012320Y017680D01*
Y017780D01*
X012220Y017880D01*
X011920D01*
X011446Y025380D02*
Y025980D01*
X011745D01*
X011845Y025880D01*
Y025680D01*
X011745Y025580D01*
X011446D01*
X011645D02*
X011845Y025380D01*
X012445Y025980D02*
X012045D01*
Y025680D01*
X012245Y025780D01*
X012345D01*
X012445Y025680D01*
Y025480D01*
X012345Y025380D01*
X012145D01*
X012045Y025480D01*
X015250Y028570D02*
Y029170D01*
X015550D01*
X015650Y029070D01*
Y028870D01*
X015550Y028770D01*
X015250D01*
X015450D02*
X015650Y028570D01*
X016150D02*
Y029170D01*
X015850Y028870D01*
X016250D01*
X011325Y015635D02*
Y016235D01*
X011625D01*
X011725Y016135D01*
Y015935D01*
X011625Y015835D01*
X011325D01*
X011525D02*
X011725Y015635D01*
X011925Y016135D02*
X012025Y016235D01*
X012225D01*
X012325Y016135D01*
Y016035D01*
X012225Y015935D01*
X012125D01*
X012225D01*
X012325Y015835D01*
Y015735D01*
X012225Y015635D01*
X012025D01*
X011925Y015735D01*
X011400Y021370D02*
Y021970D01*
X011700D01*
X011800Y021870D01*
Y021670D01*
X011700Y021570D01*
X011400D01*
X011600D02*
X011800Y021370D01*
X012400D02*
X012000D01*
X012400Y021770D01*
Y021870D01*
X012300Y021970D01*
X012100D01*
X012000Y021870D01*
X011600Y028520D02*
Y029120D01*
X011900D01*
X012000Y029020D01*
Y028820D01*
X011900Y028720D01*
X011600D01*
X011800D02*
X012000Y028520D01*
X012200D02*
X012400D01*
X012300D01*
Y029120D01*
X012200Y029020D01*
X014000Y012120D02*
X013800D01*
X013900D01*
Y011620D01*
X013800Y011520D01*
X013700D01*
X013600Y011620D01*
X014200Y011520D02*
X014400D01*
X014300D01*
Y012120D01*
X014200Y012020D01*
D18*
X013097Y013997D02*
X014897D01*
X013317Y012441D02*
X014687D01*
M02*
