G04 Layer_Physical_Order=1*
G04 Layer_Color=255*
%FSAX24Y24*%
%MOIN*%
G70*
G01*
G75*
%ADD10R,0.0453X0.0551*%
%ADD11C,0.0400*%
%ADD12R,0.0118X0.0276*%
%ADD13R,0.0118X0.0394*%
%ADD14C,0.0120*%
%ADD15R,0.2000X0.2000*%
%ADD16C,0.0700*%
%ADD17C,0.0500*%
D10*
X012294Y024650D02*
D03*
X011606D02*
D03*
X016094Y029850D02*
D03*
X015406D02*
D03*
X012194Y016950D02*
D03*
X011506D02*
D03*
X011656Y029800D02*
D03*
X012344D02*
D03*
X011556Y022650D02*
D03*
X012244D02*
D03*
X011556Y014950D02*
D03*
X012244D02*
D03*
D11*
X016900Y018500D02*
D03*
X014000Y028050D02*
D03*
X013100Y018500D02*
D03*
D12*
X014492Y013740D02*
D03*
X014295D02*
D03*
X014098D02*
D03*
X013902D02*
D03*
X013705D02*
D03*
X013508D02*
D03*
D13*
X014803Y012697D02*
D03*
X013197D02*
D03*
D14*
X011556Y014950D02*
Y022650D01*
Y024650D02*
X011656Y024750D01*
X012244Y016900D02*
Y017294D01*
X012500Y017550D01*
X016094Y029850D02*
Y030506D01*
X011556Y022650D02*
Y024650D01*
X015400Y029150D02*
X015406Y029156D01*
X011656Y029150D02*
X015400D01*
X011656D02*
Y029800D01*
Y024750D02*
Y029150D01*
X011500Y013750D02*
Y013900D01*
X011692Y014092D01*
X013550Y014350D02*
X013705Y014195D01*
Y013740D02*
Y014195D01*
X011700Y014350D02*
X013550D01*
X014200Y014550D02*
X015400D01*
X013902Y013740D02*
Y014252D01*
X014200Y014550D01*
X015400D02*
Y023950D01*
X016281Y014582D02*
Y016418D01*
X016050Y014350D02*
X016281Y014582D01*
X014400Y014350D02*
X016050D01*
X015113Y024237D02*
X015400Y023950D01*
X014435Y024237D02*
X015113D01*
X014295Y014245D02*
X014400Y014350D01*
X011606Y029750D02*
X011656Y029800D01*
X011556Y014494D02*
X011700Y014350D01*
X011692Y014092D02*
X013508D01*
Y013740D02*
Y014092D01*
X014295Y013740D02*
Y014245D01*
X016258Y014092D02*
X016500Y013850D01*
Y011500D02*
Y013850D01*
X014492Y014092D02*
X016258D01*
X014492Y013740D02*
Y014092D01*
X012244Y023131D02*
X012350Y023237D01*
X012244Y022650D02*
Y023131D01*
X012350Y023237D02*
X013565D01*
X014435Y024237D02*
Y025165D01*
X014100Y025500D02*
X014435Y025165D01*
X012787Y031037D02*
X013565D01*
X012344Y030594D02*
X012787Y031037D01*
X012344Y029800D02*
Y030594D01*
X013950Y017550D02*
X014435Y017065D01*
Y016437D02*
Y017065D01*
X013087Y015437D02*
X013565D01*
X012600Y014950D02*
X013087Y015437D01*
X012244Y014950D02*
X012600D01*
X015406Y029156D02*
Y029850D01*
X012294Y024700D02*
X012344D01*
Y025094D01*
X012750Y025500D01*
X014100D01*
X011556Y014494D02*
Y014950D01*
X012500Y017550D02*
X013950D01*
X014435Y032037D02*
X014563D01*
X016094Y030506D01*
D15*
X011500Y032500D02*
D03*
X016500D02*
D03*
Y011500D02*
D03*
X011500D02*
D03*
D16*
X014435Y024237D02*
D03*
X013565D02*
D03*
X014435Y023237D02*
D03*
X013565D02*
D03*
Y015437D02*
D03*
X014435D02*
D03*
X013565Y016437D02*
D03*
X014435D02*
D03*
Y032037D02*
D03*
X013565D02*
D03*
X014435Y031037D02*
D03*
X013565D02*
D03*
D17*
X011500Y013750D02*
D03*
X016281Y016418D02*
D03*
M02*
