G04 Layer_Color=65535*
%FSAX24Y24*%
%MOIN*%
G70*
G01*
G75*
%ADD18C,0.0040*%
%ADD19C,0.0100*%
G36*
X016530Y024574D02*
X016530D01*
X016528Y024573D01*
X016526Y024573D01*
X016524Y024572D01*
X016521Y024572D01*
X016517Y024570D01*
X016509Y024568D01*
X016500Y024564D01*
X016491Y024559D01*
X016482Y024554D01*
X016478Y024550D01*
X016475Y024547D01*
Y024546D01*
X016474Y024546D01*
X016473Y024544D01*
X016472Y024543D01*
X016471Y024541D01*
X016469Y024538D01*
X016468Y024535D01*
X016466Y024532D01*
X016463Y024524D01*
X016460Y024514D01*
X016458Y024503D01*
X016457Y024491D01*
Y024490D01*
Y024489D01*
Y024487D01*
X016458Y024485D01*
Y024481D01*
X016458Y024478D01*
X016459Y024470D01*
X016461Y024461D01*
X016464Y024451D01*
X016468Y024442D01*
X016470Y024438D01*
X016473Y024435D01*
Y024434D01*
X016474Y024434D01*
X016476Y024432D01*
X016479Y024428D01*
X016483Y024425D01*
X016489Y024422D01*
X016495Y024419D01*
X016502Y024417D01*
X016506Y024416D01*
X016512D01*
X016514Y024416D01*
X016517Y024417D01*
X016521Y024418D01*
X016525Y024419D01*
X016529Y024421D01*
X016532Y024424D01*
X016533Y024424D01*
X016534Y024426D01*
X016536Y024428D01*
X016538Y024430D01*
X016541Y024434D01*
X016544Y024439D01*
X016546Y024444D01*
X016549Y024451D01*
X016549Y024452D01*
Y024453D01*
X016550Y024454D01*
X016550Y024456D01*
X016551Y024458D01*
X016552Y024461D01*
X016553Y024464D01*
X016554Y024468D01*
X016555Y024472D01*
X016556Y024477D01*
X016558Y024483D01*
X016559Y024489D01*
X016561Y024496D01*
X016563Y024504D01*
X016565Y024513D01*
Y024513D01*
X016566Y024515D01*
X016567Y024518D01*
X016568Y024522D01*
X016569Y024528D01*
X016571Y024533D01*
X016573Y024540D01*
X016575Y024546D01*
X016581Y024560D01*
X016587Y024575D01*
X016591Y024581D01*
X016595Y024588D01*
X016598Y024594D01*
X016603Y024599D01*
X016603Y024599D01*
X016604Y024600D01*
X016606Y024602D01*
X016608Y024604D01*
X016611Y024607D01*
X016615Y024610D01*
X016619Y024613D01*
X016624Y024616D01*
X016629Y024619D01*
X016635Y024622D01*
X016641Y024625D01*
X016648Y024628D01*
X016655Y024630D01*
X016663Y024632D01*
X016671Y024633D01*
X016679Y024633D01*
X016682D01*
X016684Y024633D01*
X016686D01*
X016689Y024633D01*
X016696Y024631D01*
X016705Y024629D01*
X016714Y024627D01*
X016723Y024622D01*
X016733Y024617D01*
X016733D01*
X016734Y024616D01*
X016735Y024615D01*
X016737Y024614D01*
X016742Y024610D01*
X016747Y024605D01*
X016753Y024598D01*
X016760Y024590D01*
X016766Y024581D01*
X016771Y024570D01*
Y024570D01*
X016771Y024569D01*
X016772Y024567D01*
X016773Y024565D01*
X016774Y024561D01*
X016775Y024558D01*
X016776Y024554D01*
X016778Y024549D01*
X016779Y024544D01*
X016780Y024538D01*
X016781Y024532D01*
X016783Y024526D01*
X016783Y024518D01*
X016784Y024511D01*
X016785Y024495D01*
Y024495D01*
Y024494D01*
Y024492D01*
Y024488D01*
X016784Y024484D01*
X016784Y024478D01*
X016783Y024471D01*
X016782Y024463D01*
X016780Y024455D01*
X016779Y024447D01*
X016777Y024438D01*
X016774Y024429D01*
X016771Y024420D01*
X016768Y024412D01*
X016763Y024403D01*
X016759Y024395D01*
X016753Y024388D01*
X016753Y024388D01*
X016752Y024387D01*
X016750Y024385D01*
X016747Y024383D01*
X016744Y024380D01*
X016740Y024377D01*
X016736Y024374D01*
X016731Y024370D01*
X016725Y024367D01*
X016719Y024363D01*
X016712Y024360D01*
X016705Y024357D01*
X016697Y024354D01*
X016688Y024352D01*
X016679Y024351D01*
X016670Y024350D01*
X016667Y024426D01*
X016667D01*
X016668Y024427D01*
X016670D01*
X016671Y024427D01*
X016674Y024428D01*
X016677Y024429D01*
X016683Y024431D01*
X016689Y024434D01*
X016696Y024437D01*
X016703Y024442D01*
X016708Y024448D01*
X016709Y024449D01*
X016710Y024451D01*
X016712Y024454D01*
X016715Y024460D01*
X016717Y024467D01*
X016719Y024475D01*
X016721Y024485D01*
X016721Y024496D01*
Y024497D01*
Y024498D01*
Y024499D01*
Y024501D01*
X016721Y024504D01*
X016721Y024508D01*
X016720Y024515D01*
X016718Y024524D01*
X016716Y024533D01*
X016712Y024541D01*
X016708Y024549D01*
X016707Y024549D01*
X016706Y024550D01*
X016704Y024552D01*
X016701Y024554D01*
X016698Y024557D01*
X016694Y024558D01*
X016689Y024560D01*
X016684Y024560D01*
X016682D01*
X016679Y024560D01*
X016676Y024559D01*
X016673Y024558D01*
X016669Y024556D01*
X016665Y024553D01*
X016661Y024549D01*
X016661Y024549D01*
X016660Y024548D01*
X016659Y024546D01*
X016658Y024544D01*
X016657Y024542D01*
X016655Y024539D01*
X016653Y024535D01*
X016652Y024531D01*
X016650Y024526D01*
X016648Y024520D01*
X016646Y024514D01*
X016643Y024506D01*
X016641Y024498D01*
X016638Y024489D01*
X016636Y024479D01*
Y024478D01*
X016635Y024477D01*
X016635Y024474D01*
X016634Y024470D01*
X016632Y024465D01*
X016631Y024460D01*
X016629Y024454D01*
X016628Y024448D01*
X016623Y024435D01*
X016619Y024421D01*
X016616Y024415D01*
X016614Y024408D01*
X016611Y024402D01*
X016609Y024397D01*
Y024396D01*
X016608Y024396D01*
X016607Y024394D01*
X016606Y024392D01*
X016603Y024387D01*
X016599Y024381D01*
X016593Y024375D01*
X016587Y024368D01*
X016579Y024361D01*
X016570Y024355D01*
X016570D01*
X016569Y024354D01*
X016568Y024353D01*
X016566Y024352D01*
X016563Y024351D01*
X016560Y024350D01*
X016557Y024349D01*
X016553Y024347D01*
X016549Y024346D01*
X016545Y024344D01*
X016534Y024342D01*
X016523Y024340D01*
X016510Y024339D01*
X016507D01*
X016505Y024340D01*
X016502D01*
X016498Y024340D01*
X016494Y024341D01*
X016490Y024342D01*
X016481Y024344D01*
X016471Y024347D01*
X016460Y024352D01*
X016454Y024355D01*
X016449Y024358D01*
X016448D01*
X016448Y024359D01*
X016446Y024360D01*
X016444Y024361D01*
X016442Y024363D01*
X016439Y024365D01*
X016433Y024371D01*
X016426Y024378D01*
X016419Y024387D01*
X016412Y024397D01*
X016407Y024409D01*
Y024410D01*
X016406Y024411D01*
X016405Y024412D01*
X016405Y024415D01*
X016403Y024418D01*
X016402Y024422D01*
X016401Y024427D01*
X016400Y024432D01*
X016398Y024437D01*
X016397Y024444D01*
X016396Y024451D01*
X016395Y024458D01*
X016394Y024465D01*
X016393Y024474D01*
X016393Y024483D01*
Y024492D01*
Y024492D01*
Y024495D01*
X016393Y024499D01*
Y024504D01*
X016394Y024509D01*
X016395Y024516D01*
X016396Y024524D01*
X016397Y024532D01*
X016399Y024541D01*
X016401Y024550D01*
X016404Y024559D01*
X016407Y024568D01*
X016411Y024577D01*
X016415Y024586D01*
X016420Y024594D01*
X016426Y024602D01*
X016426Y024602D01*
X016427Y024604D01*
X016430Y024606D01*
X016432Y024608D01*
X016436Y024611D01*
X016440Y024615D01*
X016445Y024618D01*
X016450Y024622D01*
X016457Y024626D01*
X016464Y024630D01*
X016472Y024634D01*
X016481Y024638D01*
X016490Y024641D01*
X016500Y024644D01*
X016511Y024646D01*
X016523Y024648D01*
X016530Y024574D01*
D02*
G37*
G36*
X016778Y024700D02*
X016714D01*
Y024904D01*
X016631D01*
Y024714D01*
X016567D01*
Y024904D01*
X016464D01*
Y024693D01*
X016400D01*
Y024980D01*
X016778D01*
Y024700D01*
D02*
G37*
G36*
X016597Y025240D02*
X016778Y025359D01*
Y025270D01*
X016665Y025195D01*
X016778Y025120D01*
Y025031D01*
X016597Y025150D01*
X016400Y025020D01*
Y025112D01*
X016528Y025196D01*
X016400Y025280D01*
Y025371D01*
X016597Y025240D01*
D02*
G37*
G36*
X016596Y024144D02*
X016601D01*
X016607Y024143D01*
X016613Y024142D01*
X016620Y024142D01*
X016628Y024141D01*
X016635Y024140D01*
X016652Y024137D01*
X016668Y024132D01*
X016676Y024130D01*
X016683Y024127D01*
X016684D01*
X016685Y024126D01*
X016686Y024125D01*
X016688Y024124D01*
X016691Y024123D01*
X016694Y024121D01*
X016701Y024118D01*
X016709Y024113D01*
X016718Y024107D01*
X016726Y024100D01*
X016735Y024092D01*
X016736Y024091D01*
X016736Y024091D01*
X016737Y024089D01*
X016739Y024088D01*
X016741Y024086D01*
X016743Y024083D01*
X016748Y024077D01*
X016754Y024070D01*
X016760Y024062D01*
X016765Y024053D01*
X016769Y024043D01*
Y024042D01*
X016770Y024041D01*
X016771Y024039D01*
X016772Y024037D01*
X016773Y024033D01*
X016774Y024029D01*
X016776Y024025D01*
X016777Y024019D01*
X016778Y024014D01*
X016780Y024007D01*
X016781Y024000D01*
X016782Y023993D01*
X016784Y023978D01*
X016785Y023961D01*
Y023961D01*
Y023960D01*
Y023959D01*
Y023957D01*
X016784Y023953D01*
X016784Y023947D01*
X016783Y023940D01*
X016782Y023932D01*
X016780Y023923D01*
X016778Y023913D01*
X016775Y023902D01*
X016772Y023892D01*
X016768Y023881D01*
X016762Y023869D01*
X016757Y023858D01*
X016750Y023847D01*
X016742Y023837D01*
X016733Y023827D01*
X016732Y023827D01*
X016730Y023825D01*
X016727Y023823D01*
X016723Y023820D01*
X016718Y023816D01*
X016711Y023811D01*
X016704Y023807D01*
X016695Y023802D01*
X016685Y023797D01*
X016674Y023793D01*
X016662Y023788D01*
X016650Y023785D01*
X016636Y023781D01*
X016621Y023779D01*
X016605Y023777D01*
X016588Y023777D01*
X016582D01*
X016580Y023777D01*
X016573Y023778D01*
X016565Y023779D01*
X016557Y023779D01*
X016546Y023781D01*
X016536Y023783D01*
X016525Y023786D01*
X016513Y023789D01*
X016501Y023793D01*
X016489Y023798D01*
X016477Y023804D01*
X016466Y023811D01*
X016455Y023818D01*
X016445Y023827D01*
X016444Y023827D01*
X016443Y023829D01*
X016440Y023832D01*
X016436Y023836D01*
X016433Y023841D01*
X016428Y023847D01*
X016424Y023854D01*
X016419Y023862D01*
X016414Y023871D01*
X016409Y023881D01*
X016405Y023892D01*
X016401Y023904D01*
X016398Y023917D01*
X016395Y023930D01*
X016393Y023945D01*
X016393Y023960D01*
Y023961D01*
Y023961D01*
Y023962D01*
Y023964D01*
X016393Y023968D01*
X016394Y023974D01*
X016395Y023981D01*
X016396Y023990D01*
X016397Y023999D01*
X016400Y024009D01*
X016402Y024019D01*
X016406Y024030D01*
X016410Y024041D01*
X016415Y024053D01*
X016421Y024064D01*
X016427Y024074D01*
X016435Y024084D01*
X016444Y024094D01*
X016445Y024095D01*
X016447Y024096D01*
X016450Y024099D01*
X016454Y024102D01*
X016459Y024106D01*
X016466Y024110D01*
X016473Y024114D01*
X016482Y024119D01*
X016491Y024124D01*
X016502Y024128D01*
X016513Y024132D01*
X016526Y024136D01*
X016539Y024139D01*
X016554Y024142D01*
X016570Y024144D01*
X016586Y024144D01*
X016592D01*
X016596Y024144D01*
D02*
G37*
G36*
X016778Y022968D02*
X016400D01*
Y023044D01*
X016778D01*
Y022968D01*
D02*
G37*
G36*
Y023091D02*
X016714D01*
Y023203D01*
X016400D01*
Y023279D01*
X016714D01*
Y023391D01*
X016778D01*
Y023091D01*
D02*
G37*
G36*
Y023595D02*
Y023594D01*
Y023592D01*
Y023588D01*
Y023583D01*
Y023578D01*
X016778Y023571D01*
Y023565D01*
X016778Y023557D01*
X016777Y023542D01*
X016776Y023534D01*
X016776Y023527D01*
X016776Y023520D01*
X016775Y023514D01*
X016774Y023508D01*
X016773Y023504D01*
Y023504D01*
X016772Y023502D01*
X016772Y023501D01*
X016771Y023499D01*
X016770Y023496D01*
X016769Y023492D01*
X016765Y023485D01*
X016760Y023476D01*
X016753Y023467D01*
X016749Y023463D01*
X016745Y023458D01*
X016741Y023453D01*
X016735Y023449D01*
X016735Y023449D01*
X016734Y023449D01*
X016733Y023447D01*
X016730Y023446D01*
X016728Y023444D01*
X016724Y023442D01*
X016720Y023440D01*
X016716Y023438D01*
X016710Y023436D01*
X016705Y023434D01*
X016699Y023432D01*
X016692Y023431D01*
X016685Y023429D01*
X016678Y023428D01*
X016670Y023428D01*
X016662Y023427D01*
X016656D01*
X016653Y023428D01*
X016649Y023428D01*
X016646Y023428D01*
X016641Y023429D01*
X016632Y023431D01*
X016622Y023433D01*
X016612Y023436D01*
X016603Y023440D01*
X016603D01*
X016602Y023440D01*
X016601Y023441D01*
X016599Y023442D01*
X016595Y023445D01*
X016589Y023449D01*
X016584Y023453D01*
X016578Y023459D01*
X016571Y023465D01*
X016566Y023472D01*
Y023473D01*
X016565Y023473D01*
X016564Y023476D01*
X016561Y023479D01*
X016558Y023485D01*
X016555Y023490D01*
X016553Y023497D01*
X016550Y023504D01*
X016548Y023512D01*
Y023512D01*
X016548Y023513D01*
Y023515D01*
X016547Y023517D01*
X016547Y023519D01*
X016546Y023523D01*
X016546Y023527D01*
X016546Y023532D01*
X016545Y023537D01*
X016544Y023543D01*
X016544Y023550D01*
X016544Y023557D01*
X016543Y023565D01*
Y023573D01*
X016543Y023582D01*
Y023591D01*
Y023641D01*
X016400D01*
Y023717D01*
X016778D01*
Y023595D01*
D02*
G37*
G36*
X016596Y025759D02*
X016601D01*
X016607Y025759D01*
X016613Y025758D01*
X016620Y025758D01*
X016628Y025756D01*
X016635Y025756D01*
X016652Y025752D01*
X016668Y025748D01*
X016676Y025745D01*
X016683Y025743D01*
X016684D01*
X016685Y025742D01*
X016686Y025741D01*
X016688Y025740D01*
X016691Y025739D01*
X016694Y025737D01*
X016701Y025733D01*
X016709Y025729D01*
X016718Y025722D01*
X016726Y025715D01*
X016735Y025708D01*
X016736Y025707D01*
X016736Y025706D01*
X016737Y025705D01*
X016739Y025704D01*
X016741Y025702D01*
X016743Y025699D01*
X016748Y025693D01*
X016754Y025686D01*
X016760Y025677D01*
X016765Y025668D01*
X016769Y025658D01*
Y025658D01*
X016770Y025657D01*
X016771Y025655D01*
X016772Y025652D01*
X016773Y025649D01*
X016774Y025645D01*
X016776Y025640D01*
X016777Y025635D01*
X016778Y025629D01*
X016780Y025623D01*
X016781Y025616D01*
X016782Y025609D01*
X016784Y025594D01*
X016785Y025577D01*
Y025576D01*
Y025576D01*
Y025575D01*
Y025573D01*
X016784Y025569D01*
X016784Y025563D01*
X016783Y025556D01*
X016782Y025548D01*
X016780Y025539D01*
X016778Y025529D01*
X016775Y025518D01*
X016772Y025508D01*
X016768Y025497D01*
X016762Y025485D01*
X016757Y025474D01*
X016750Y025463D01*
X016742Y025453D01*
X016733Y025443D01*
X016732Y025443D01*
X016730Y025441D01*
X016727Y025439D01*
X016723Y025435D01*
X016718Y025431D01*
X016711Y025427D01*
X016704Y025423D01*
X016695Y025418D01*
X016685Y025413D01*
X016674Y025409D01*
X016662Y025404D01*
X016650Y025401D01*
X016636Y025397D01*
X016621Y025395D01*
X016605Y025393D01*
X016588Y025393D01*
X016582D01*
X016580Y025393D01*
X016573Y025394D01*
X016565Y025394D01*
X016557Y025395D01*
X016546Y025397D01*
X016536Y025399D01*
X016525Y025402D01*
X016513Y025405D01*
X016501Y025409D01*
X016489Y025414D01*
X016477Y025419D01*
X016466Y025426D01*
X016455Y025434D01*
X016445Y025443D01*
X016444Y025443D01*
X016443Y025445D01*
X016440Y025448D01*
X016436Y025452D01*
X016433Y025457D01*
X016428Y025463D01*
X016424Y025470D01*
X016419Y025478D01*
X016414Y025487D01*
X016409Y025497D01*
X016405Y025508D01*
X016401Y025520D01*
X016398Y025533D01*
X016395Y025546D01*
X016393Y025561D01*
X016393Y025576D01*
Y025576D01*
Y025577D01*
Y025578D01*
Y025580D01*
X016393Y025584D01*
X016394Y025590D01*
X016395Y025597D01*
X016396Y025606D01*
X016397Y025615D01*
X016400Y025624D01*
X016402Y025635D01*
X016406Y025646D01*
X016410Y025657D01*
X016415Y025668D01*
X016421Y025679D01*
X016427Y025690D01*
X016435Y025700D01*
X016444Y025710D01*
X016445Y025711D01*
X016447Y025712D01*
X016450Y025715D01*
X016454Y025718D01*
X016459Y025722D01*
X016466Y025726D01*
X016473Y025730D01*
X016482Y025735D01*
X016491Y025740D01*
X016502Y025744D01*
X016513Y025748D01*
X016526Y025752D01*
X016539Y025755D01*
X016554Y025758D01*
X016570Y025759D01*
X016586Y025760D01*
X016592D01*
X016596Y025759D01*
D02*
G37*
G36*
X016778Y027462D02*
Y027462D01*
Y027460D01*
Y027457D01*
Y027453D01*
X016778Y027448D01*
Y027442D01*
X016778Y027435D01*
X016777Y027429D01*
X016776Y027414D01*
X016774Y027400D01*
X016773Y027393D01*
X016771Y027386D01*
X016770Y027380D01*
X016768Y027374D01*
Y027374D01*
X016768Y027373D01*
X016767Y027372D01*
X016766Y027370D01*
X016765Y027367D01*
X016764Y027365D01*
X016760Y027358D01*
X016755Y027351D01*
X016748Y027344D01*
X016741Y027337D01*
X016732Y027330D01*
X016731D01*
X016730Y027330D01*
X016729Y027329D01*
X016727Y027328D01*
X016725Y027326D01*
X016722Y027325D01*
X016718Y027323D01*
X016714Y027322D01*
X016706Y027319D01*
X016696Y027316D01*
X016685Y027314D01*
X016672Y027314D01*
X016668D01*
X016665Y027314D01*
X016662Y027314D01*
X016657Y027315D01*
X016653Y027316D01*
X016648Y027317D01*
X016636Y027320D01*
X016630Y027322D01*
X016625Y027324D01*
X016619Y027327D01*
X016613Y027330D01*
X016607Y027334D01*
X016602Y027339D01*
X016601Y027339D01*
X016600Y027340D01*
X016599Y027341D01*
X016597Y027343D01*
X016595Y027346D01*
X016593Y027349D01*
X016590Y027353D01*
X016587Y027358D01*
X016584Y027362D01*
X016581Y027368D01*
X016578Y027374D01*
X016575Y027381D01*
X016573Y027388D01*
X016570Y027396D01*
X016568Y027405D01*
X016566Y027414D01*
Y027413D01*
X016566Y027412D01*
X016565Y027411D01*
X016564Y027410D01*
X016561Y027405D01*
X016557Y027399D01*
X016553Y027393D01*
X016547Y027386D01*
X016541Y027379D01*
X016535Y027373D01*
X016534Y027372D01*
X016533Y027371D01*
X016532Y027370D01*
X016530Y027368D01*
X016527Y027366D01*
X016524Y027364D01*
X016521Y027361D01*
X016517Y027358D01*
X016512Y027355D01*
X016507Y027351D01*
X016502Y027348D01*
X016496Y027344D01*
X016489Y027339D01*
X016482Y027334D01*
X016473Y027329D01*
X016400Y027283D01*
Y027374D01*
X016482Y027430D01*
X016483Y027430D01*
X016484Y027431D01*
X016487Y027433D01*
X016489Y027435D01*
X016493Y027437D01*
X016497Y027440D01*
X016506Y027446D01*
X016515Y027453D01*
X016524Y027459D01*
X016528Y027462D01*
X016532Y027465D01*
X016535Y027468D01*
X016538Y027470D01*
X016538Y027471D01*
X016540Y027472D01*
X016541Y027474D01*
X016544Y027477D01*
X016547Y027481D01*
X016549Y027485D01*
X016552Y027489D01*
X016553Y027493D01*
X016554Y027494D01*
X016554Y027496D01*
X016555Y027499D01*
X016556Y027503D01*
X016557Y027508D01*
X016557Y027515D01*
X016558Y027522D01*
Y027532D01*
Y027547D01*
X016400D01*
Y027623D01*
X016778D01*
Y027462D01*
D02*
G37*
G36*
X016596Y028050D02*
X016601D01*
X016607Y028049D01*
X016613Y028048D01*
X016620Y028048D01*
X016628Y028047D01*
X016635Y028046D01*
X016652Y028043D01*
X016668Y028039D01*
X016676Y028036D01*
X016683Y028033D01*
X016684D01*
X016685Y028032D01*
X016686Y028032D01*
X016688Y028030D01*
X016691Y028029D01*
X016694Y028027D01*
X016701Y028024D01*
X016709Y028019D01*
X016718Y028013D01*
X016726Y028006D01*
X016735Y027998D01*
X016736Y027998D01*
X016736Y027997D01*
X016737Y027995D01*
X016739Y027994D01*
X016741Y027992D01*
X016743Y027989D01*
X016748Y027983D01*
X016754Y027976D01*
X016760Y027968D01*
X016765Y027959D01*
X016769Y027949D01*
Y027948D01*
X016770Y027947D01*
X016771Y027945D01*
X016772Y027943D01*
X016773Y027939D01*
X016774Y027935D01*
X016776Y027931D01*
X016777Y027925D01*
X016778Y027920D01*
X016780Y027913D01*
X016781Y027906D01*
X016782Y027900D01*
X016784Y027884D01*
X016785Y027867D01*
Y027867D01*
Y027866D01*
Y027865D01*
Y027863D01*
X016784Y027859D01*
X016784Y027853D01*
X016783Y027846D01*
X016782Y027838D01*
X016780Y027829D01*
X016778Y027819D01*
X016775Y027809D01*
X016772Y027798D01*
X016768Y027787D01*
X016762Y027775D01*
X016757Y027764D01*
X016750Y027754D01*
X016742Y027743D01*
X016733Y027733D01*
X016732Y027733D01*
X016730Y027731D01*
X016727Y027729D01*
X016723Y027726D01*
X016718Y027722D01*
X016711Y027717D01*
X016704Y027713D01*
X016695Y027708D01*
X016685Y027704D01*
X016674Y027699D01*
X016662Y027695D01*
X016650Y027691D01*
X016636Y027688D01*
X016621Y027685D01*
X016605Y027683D01*
X016588Y027683D01*
X016582D01*
X016580Y027683D01*
X016573Y027684D01*
X016565Y027685D01*
X016557Y027686D01*
X016546Y027687D01*
X016536Y027689D01*
X016525Y027692D01*
X016513Y027695D01*
X016501Y027699D01*
X016489Y027704D01*
X016477Y027710D01*
X016466Y027717D01*
X016455Y027724D01*
X016445Y027733D01*
X016444Y027733D01*
X016443Y027736D01*
X016440Y027738D01*
X016436Y027742D01*
X016433Y027747D01*
X016428Y027753D01*
X016424Y027760D01*
X016419Y027768D01*
X016414Y027777D01*
X016409Y027787D01*
X016405Y027798D01*
X016401Y027810D01*
X016398Y027823D01*
X016395Y027836D01*
X016393Y027851D01*
X016393Y027866D01*
Y027867D01*
Y027867D01*
Y027868D01*
Y027870D01*
X016393Y027875D01*
X016394Y027880D01*
X016395Y027887D01*
X016396Y027896D01*
X016397Y027905D01*
X016400Y027915D01*
X016402Y027925D01*
X016406Y027936D01*
X016410Y027947D01*
X016415Y027959D01*
X016421Y027970D01*
X016427Y027980D01*
X016435Y027991D01*
X016444Y028000D01*
X016445Y028001D01*
X016447Y028002D01*
X016450Y028005D01*
X016454Y028008D01*
X016459Y028012D01*
X016466Y028016D01*
X016473Y028020D01*
X016482Y028025D01*
X016491Y028030D01*
X016502Y028034D01*
X016513Y028039D01*
X016526Y028042D01*
X016539Y028045D01*
X016554Y028048D01*
X016570Y028050D01*
X016586Y028050D01*
X016592D01*
X016596Y028050D01*
D02*
G37*
G36*
X016093Y019638D02*
X016100D01*
X016109Y019637D01*
X016119Y019636D01*
X016130Y019635D01*
X016141Y019633D01*
X016153Y019631D01*
X016166Y019629D01*
X016178Y019626D01*
X016191Y019622D01*
X016203Y019618D01*
X016214Y019613D01*
X016224Y019606D01*
X016233Y019600D01*
X016234Y019599D01*
X016235Y019598D01*
X016237Y019596D01*
X016241Y019593D01*
X016244Y019589D01*
X016248Y019584D01*
X016252Y019579D01*
X016257Y019573D01*
X016261Y019566D01*
X016265Y019558D01*
X016269Y019550D01*
X016272Y019541D01*
X016276Y019532D01*
X016278Y019522D01*
X016279Y019511D01*
X016280Y019500D01*
Y019499D01*
Y019498D01*
Y019496D01*
X016279Y019492D01*
X016279Y019489D01*
X016278Y019485D01*
X016278Y019480D01*
X016277Y019475D01*
X016274Y019463D01*
X016272Y019458D01*
X016269Y019451D01*
X016267Y019446D01*
X016263Y019440D01*
X016260Y019434D01*
X016255Y019429D01*
X016255Y019428D01*
X016254Y019427D01*
X016253Y019426D01*
X016251Y019424D01*
X016248Y019422D01*
X016245Y019419D01*
X016242Y019416D01*
X016237Y019413D01*
X016233Y019410D01*
X016227Y019407D01*
X016221Y019404D01*
X016215Y019401D01*
X016208Y019399D01*
X016201Y019396D01*
X016193Y019394D01*
X016185Y019392D01*
X016177Y019463D01*
X016178D01*
X016181Y019463D01*
X016185Y019464D01*
X016189Y019465D01*
X016194Y019467D01*
X016199Y019470D01*
X016205Y019473D01*
X016209Y019476D01*
X016209Y019477D01*
X016210Y019479D01*
X016212Y019481D01*
X016214Y019484D01*
X016216Y019488D01*
X016218Y019493D01*
X016219Y019498D01*
X016219Y019504D01*
Y019505D01*
Y019505D01*
Y019506D01*
X016219Y019508D01*
X016218Y019513D01*
X016217Y019518D01*
X016214Y019524D01*
X016211Y019531D01*
X016208Y019534D01*
X016205Y019537D01*
X016202Y019540D01*
X016198Y019543D01*
X016198D01*
X016198Y019544D01*
X016196Y019545D01*
X016194Y019546D01*
X016192Y019547D01*
X016189Y019549D01*
X016185Y019550D01*
X016180Y019552D01*
X016175Y019553D01*
X016169Y019555D01*
X016162Y019557D01*
X016153Y019558D01*
X016145Y019560D01*
X016135Y019561D01*
X016124Y019563D01*
X016112Y019563D01*
X016113Y019563D01*
X016114Y019562D01*
X016115Y019561D01*
X016117Y019558D01*
X016120Y019556D01*
X016123Y019553D01*
X016126Y019549D01*
X016129Y019545D01*
X016132Y019540D01*
X016135Y019535D01*
X016137Y019529D01*
X016140Y019523D01*
X016142Y019517D01*
X016144Y019510D01*
X016144Y019503D01*
X016145Y019496D01*
Y019495D01*
Y019494D01*
X016144Y019491D01*
Y019488D01*
X016144Y019484D01*
X016143Y019480D01*
X016142Y019474D01*
X016140Y019469D01*
X016139Y019463D01*
X016136Y019457D01*
X016133Y019450D01*
X016130Y019444D01*
X016126Y019437D01*
X016121Y019431D01*
X016116Y019424D01*
X016110Y019418D01*
X016110Y019417D01*
X016108Y019417D01*
X016106Y019415D01*
X016104Y019413D01*
X016100Y019410D01*
X016096Y019408D01*
X016091Y019405D01*
X016086Y019401D01*
X016080Y019399D01*
X016073Y019396D01*
X016066Y019393D01*
X016058Y019390D01*
X016049Y019388D01*
X016041Y019387D01*
X016031Y019386D01*
X016021Y019385D01*
X016018D01*
X016015Y019386D01*
X016012D01*
X016007Y019387D01*
X016001Y019387D01*
X015994Y019388D01*
X015987Y019390D01*
X015980Y019392D01*
X015973Y019394D01*
X015965Y019397D01*
X015957Y019400D01*
X015950Y019404D01*
X015942Y019408D01*
X015935Y019414D01*
X015928Y019420D01*
X015927Y019420D01*
X015926Y019422D01*
X015925Y019423D01*
X015923Y019426D01*
X015920Y019429D01*
X015917Y019433D01*
X015914Y019438D01*
X015911Y019444D01*
X015907Y019449D01*
X015904Y019456D01*
X015901Y019463D01*
X015898Y019471D01*
X015896Y019479D01*
X015895Y019488D01*
X015893Y019497D01*
X015893Y019507D01*
Y019508D01*
Y019510D01*
X015893Y019513D01*
X015894Y019517D01*
X015894Y019522D01*
X015895Y019527D01*
X015897Y019533D01*
X015899Y019540D01*
X015901Y019548D01*
X015904Y019556D01*
X015907Y019563D01*
X015912Y019571D01*
X015917Y019579D01*
X015923Y019587D01*
X015930Y019595D01*
X015937Y019602D01*
X015938Y019602D01*
X015939Y019603D01*
X015942Y019605D01*
X015946Y019607D01*
X015951Y019610D01*
X015957Y019613D01*
X015964Y019616D01*
X015972Y019620D01*
X015982Y019623D01*
X015993Y019627D01*
X016005Y019629D01*
X016018Y019632D01*
X016032Y019635D01*
X016048Y019636D01*
X016065Y019638D01*
X016083Y019638D01*
X016090D01*
X016093Y019638D01*
D02*
G37*
G36*
X016778Y026968D02*
X016714D01*
Y027080D01*
X016400D01*
Y027156D01*
X016714D01*
Y027268D01*
X016778D01*
Y026968D01*
D02*
G37*
G36*
Y025975D02*
Y025974D01*
Y025973D01*
Y025970D01*
Y025967D01*
Y025964D01*
Y025959D01*
X016778Y025954D01*
Y025950D01*
X016778Y025938D01*
X016777Y025927D01*
X016776Y025917D01*
X016775Y025912D01*
X016774Y025908D01*
Y025907D01*
Y025907D01*
X016774Y025906D01*
X016774Y025904D01*
X016773Y025900D01*
X016771Y025895D01*
X016769Y025888D01*
X016766Y025882D01*
X016763Y025875D01*
X016759Y025868D01*
Y025868D01*
X016758Y025868D01*
X016757Y025866D01*
X016754Y025862D01*
X016751Y025858D01*
X016746Y025854D01*
X016740Y025849D01*
X016734Y025844D01*
X016727Y025839D01*
X016727D01*
X016726Y025839D01*
X016725Y025838D01*
X016724Y025837D01*
X016720Y025836D01*
X016714Y025833D01*
X016708Y025831D01*
X016700Y025829D01*
X016692Y025828D01*
X016683Y025827D01*
X016680D01*
X016678Y025828D01*
X016676D01*
X016673Y025828D01*
X016667Y025829D01*
X016659Y025831D01*
X016651Y025834D01*
X016643Y025837D01*
X016634Y025842D01*
X016634D01*
X016633Y025843D01*
X016632Y025843D01*
X016630Y025844D01*
X016627Y025847D01*
X016622Y025852D01*
X016616Y025858D01*
X016611Y025864D01*
X016605Y025872D01*
X016601Y025881D01*
Y025880D01*
X016600Y025879D01*
X016600Y025877D01*
X016599Y025875D01*
X016598Y025872D01*
X016596Y025869D01*
X016593Y025861D01*
X016588Y025853D01*
X016582Y025844D01*
X016575Y025835D01*
X016566Y025828D01*
X016566Y025827D01*
X016565Y025827D01*
X016564Y025826D01*
X016562Y025825D01*
X016560Y025823D01*
X016557Y025822D01*
X016554Y025820D01*
X016550Y025818D01*
X016542Y025815D01*
X016532Y025812D01*
X016521Y025810D01*
X016516Y025809D01*
X016505D01*
X016503Y025809D01*
X016500Y025810D01*
X016493Y025811D01*
X016486Y025812D01*
X016477Y025814D01*
X016468Y025817D01*
X016459Y025821D01*
X016459D01*
X016458Y025822D01*
X016457Y025822D01*
X016455Y025823D01*
X016450Y025826D01*
X016445Y025830D01*
X016439Y025834D01*
X016432Y025840D01*
X016426Y025847D01*
X016420Y025854D01*
Y025854D01*
X016420Y025855D01*
X016419Y025856D01*
X016418Y025858D01*
X016417Y025860D01*
X016416Y025862D01*
X016413Y025868D01*
X016409Y025875D01*
X016407Y025884D01*
X016404Y025894D01*
X016402Y025905D01*
Y025906D01*
Y025906D01*
Y025907D01*
X016402Y025909D01*
Y025912D01*
X016402Y025915D01*
Y025919D01*
X016401Y025924D01*
Y025929D01*
X016401Y025936D01*
Y025943D01*
X016400Y025952D01*
Y025961D01*
Y025972D01*
X016400Y025984D01*
Y025997D01*
Y026126D01*
X016778D01*
Y025975D01*
D02*
G37*
G36*
X016596Y026552D02*
X016601D01*
X016607Y026552D01*
X016613Y026551D01*
X016620Y026551D01*
X016628Y026549D01*
X016635Y026549D01*
X016652Y026545D01*
X016668Y026541D01*
X016676Y026538D01*
X016683Y026535D01*
X016684D01*
X016685Y026535D01*
X016686Y026534D01*
X016688Y026533D01*
X016691Y026532D01*
X016694Y026530D01*
X016701Y026526D01*
X016709Y026522D01*
X016718Y026515D01*
X016726Y026508D01*
X016735Y026501D01*
X016736Y026500D01*
X016736Y026499D01*
X016737Y026498D01*
X016739Y026497D01*
X016741Y026494D01*
X016743Y026492D01*
X016748Y026486D01*
X016754Y026479D01*
X016760Y026470D01*
X016765Y026461D01*
X016769Y026451D01*
Y026451D01*
X016770Y026450D01*
X016771Y026448D01*
X016772Y026445D01*
X016773Y026442D01*
X016774Y026438D01*
X016776Y026433D01*
X016777Y026428D01*
X016778Y026422D01*
X016780Y026416D01*
X016781Y026409D01*
X016782Y026402D01*
X016784Y026387D01*
X016785Y026370D01*
Y026369D01*
Y026369D01*
Y026368D01*
Y026366D01*
X016784Y026362D01*
X016784Y026356D01*
X016783Y026349D01*
X016782Y026341D01*
X016780Y026332D01*
X016778Y026322D01*
X016775Y026311D01*
X016772Y026301D01*
X016768Y026289D01*
X016762Y026278D01*
X016757Y026267D01*
X016750Y026256D01*
X016742Y026246D01*
X016733Y026236D01*
X016732Y026236D01*
X016730Y026234D01*
X016727Y026232D01*
X016723Y026228D01*
X016718Y026224D01*
X016711Y026220D01*
X016704Y026216D01*
X016695Y026211D01*
X016685Y026206D01*
X016674Y026202D01*
X016662Y026197D01*
X016650Y026194D01*
X016636Y026190D01*
X016621Y026188D01*
X016605Y026186D01*
X016588Y026186D01*
X016582D01*
X016580Y026186D01*
X016573Y026187D01*
X016565Y026187D01*
X016557Y026188D01*
X016546Y026190D01*
X016536Y026192D01*
X016525Y026195D01*
X016513Y026198D01*
X016501Y026202D01*
X016489Y026207D01*
X016477Y026212D01*
X016466Y026219D01*
X016455Y026227D01*
X016445Y026236D01*
X016444Y026236D01*
X016443Y026238D01*
X016440Y026241D01*
X016436Y026245D01*
X016433Y026250D01*
X016428Y026256D01*
X016424Y026263D01*
X016419Y026271D01*
X016414Y026280D01*
X016409Y026290D01*
X016405Y026301D01*
X016401Y026313D01*
X016398Y026326D01*
X016395Y026339D01*
X016393Y026354D01*
X016393Y026369D01*
Y026369D01*
Y026370D01*
Y026371D01*
Y026373D01*
X016393Y026377D01*
X016394Y026383D01*
X016395Y026390D01*
X016396Y026399D01*
X016397Y026408D01*
X016400Y026417D01*
X016402Y026428D01*
X016406Y026439D01*
X016410Y026450D01*
X016415Y026461D01*
X016421Y026472D01*
X016427Y026483D01*
X016435Y026493D01*
X016444Y026503D01*
X016445Y026503D01*
X016447Y026505D01*
X016450Y026508D01*
X016454Y026511D01*
X016459Y026515D01*
X016466Y026519D01*
X016473Y026523D01*
X016482Y026528D01*
X016491Y026533D01*
X016502Y026537D01*
X016513Y026541D01*
X016526Y026545D01*
X016539Y026548D01*
X016554Y026551D01*
X016570Y026552D01*
X016586Y026553D01*
X016592D01*
X016596Y026552D01*
D02*
G37*
G36*
X016778Y026843D02*
X016630D01*
Y026692D01*
X016778D01*
Y026616D01*
X016400D01*
Y026692D01*
X016566D01*
Y026843D01*
X016400D01*
Y026919D01*
X016778D01*
Y026843D01*
D02*
G37*
G36*
X016973Y027343D02*
X016900D01*
Y027416D01*
X016973D01*
Y027343D01*
D02*
G37*
G36*
X017097Y027725D02*
X017104D01*
X017113Y027724D01*
X017123Y027723D01*
X017134Y027722D01*
X017146Y027721D01*
X017159Y027719D01*
X017171Y027716D01*
X017184Y027713D01*
X017197Y027710D01*
X017209Y027706D01*
X017221Y027701D01*
X017231Y027695D01*
X017241Y027688D01*
X017241Y027688D01*
X017242Y027687D01*
X017244Y027685D01*
X017247Y027683D01*
X017250Y027679D01*
X017253Y027676D01*
X017257Y027671D01*
X017260Y027666D01*
X017264Y027660D01*
X017267Y027654D01*
X017271Y027647D01*
X017274Y027639D01*
X017276Y027631D01*
X017278Y027622D01*
X017279Y027613D01*
X017280Y027603D01*
Y027602D01*
Y027600D01*
X017279Y027597D01*
Y027594D01*
X017278Y027589D01*
X017278Y027584D01*
X017276Y027578D01*
X017275Y027571D01*
X017273Y027565D01*
X017270Y027558D01*
X017267Y027550D01*
X017263Y027543D01*
X017259Y027536D01*
X017253Y027529D01*
X017247Y027523D01*
X017240Y027517D01*
X017240Y027516D01*
X017238Y027515D01*
X017235Y027513D01*
X017231Y027511D01*
X017226Y027508D01*
X017220Y027505D01*
X017212Y027501D01*
X017203Y027498D01*
X017194Y027495D01*
X017182Y027491D01*
X017169Y027488D01*
X017155Y027485D01*
X017140Y027483D01*
X017123Y027481D01*
X017105Y027480D01*
X017086Y027480D01*
X017079D01*
X017076Y027480D01*
X017069D01*
X017060Y027481D01*
X017050Y027482D01*
X017039Y027483D01*
X017027Y027484D01*
X017014Y027486D01*
X017001Y027489D01*
X016988Y027492D01*
X016975Y027495D01*
X016964Y027500D01*
X016952Y027505D01*
X016941Y027510D01*
X016932Y027517D01*
X016931Y027517D01*
X016930Y027518D01*
X016928Y027520D01*
X016925Y027523D01*
X016923Y027526D01*
X016919Y027530D01*
X016916Y027534D01*
X016912Y027539D01*
X016909Y027545D01*
X016905Y027551D01*
X016902Y027558D01*
X016899Y027566D01*
X016897Y027574D01*
X016895Y027583D01*
X016893Y027593D01*
X016893Y027603D01*
Y027603D01*
Y027605D01*
X016893Y027608D01*
X016894Y027612D01*
X016894Y027617D01*
X016895Y027622D01*
X016897Y027628D01*
X016898Y027635D01*
X016900Y027642D01*
X016903Y027649D01*
X016907Y027656D01*
X016911Y027663D01*
X016916Y027671D01*
X016921Y027678D01*
X016928Y027685D01*
X016935Y027692D01*
X016936Y027692D01*
X016937Y027693D01*
X016940Y027695D01*
X016943Y027697D01*
X016948Y027699D01*
X016955Y027702D01*
X016962Y027705D01*
X016970Y027708D01*
X016980Y027712D01*
X016991Y027715D01*
X017003Y027717D01*
X017017Y027720D01*
X017032Y027722D01*
X017049Y027724D01*
X017067Y027725D01*
X017087Y027725D01*
X017094D01*
X017097Y027725D01*
D02*
G37*
G36*
X017278Y028018D02*
X016998Y027922D01*
X017278Y027829D01*
Y027748D01*
X016900Y027883D01*
Y027965D01*
X017278Y028100D01*
Y028018D01*
D02*
G37*
G36*
X017184Y027264D02*
X017184Y027264D01*
X017185Y027262D01*
X017185Y027260D01*
X017187Y027257D01*
X017188Y027254D01*
X017189Y027250D01*
X017192Y027246D01*
X017196Y027237D01*
X017202Y027227D01*
X017210Y027216D01*
X017219Y027203D01*
X017219Y027203D01*
X017220Y027202D01*
X017221Y027200D01*
X017223Y027198D01*
X017226Y027195D01*
X017229Y027192D01*
X017232Y027189D01*
X017236Y027185D01*
X017245Y027178D01*
X017255Y027170D01*
X017267Y027163D01*
X017273Y027160D01*
X017280Y027158D01*
Y027099D01*
X016900D01*
Y027171D01*
X017173D01*
X017172Y027172D01*
X017171Y027173D01*
X017169Y027175D01*
X017167Y027178D01*
X017164Y027182D01*
X017160Y027187D01*
X017156Y027192D01*
X017152Y027198D01*
X017147Y027205D01*
X017143Y027212D01*
X017138Y027219D01*
X017134Y027228D01*
X017129Y027236D01*
X017125Y027246D01*
X017121Y027255D01*
X017118Y027265D01*
X017184D01*
Y027264D01*
D02*
G37*
G36*
X013513Y014230D02*
X013512Y014228D01*
Y014225D01*
X013512Y014221D01*
X013512Y014214D01*
X013511Y014207D01*
X013511Y014204D01*
X013510Y014200D01*
X013510Y014198D01*
X013510Y014195D01*
X013510Y014193D01*
X013509Y014191D01*
Y014190D01*
Y014190D01*
X013512Y014191D01*
X013515Y014193D01*
X013521Y014196D01*
X013527Y014199D01*
X013534Y014201D01*
X013540Y014203D01*
X013542Y014204D01*
X013545Y014205D01*
X013546Y014206D01*
X013548Y014206D01*
X013549Y014207D01*
X013549D01*
X013557Y014182D01*
X013549Y014181D01*
X013542Y014179D01*
X013535Y014177D01*
X013528Y014176D01*
X013525Y014175D01*
X013523Y014174D01*
X013521Y014174D01*
X013519Y014173D01*
X013517Y014173D01*
X013516Y014173D01*
X013515Y014173D01*
X013515D01*
X013516Y014171D01*
X013519Y014169D01*
X013521Y014167D01*
X013523Y014164D01*
X013528Y014159D01*
X013532Y014154D01*
X013537Y014149D01*
X013539Y014146D01*
X013540Y014144D01*
X013542Y014143D01*
X013543Y014141D01*
X013543Y014141D01*
X013543Y014140D01*
X013523Y014126D01*
X013519Y014131D01*
X013516Y014137D01*
X013512Y014143D01*
X013508Y014149D01*
X013505Y014154D01*
X013504Y014156D01*
X013503Y014159D01*
X013502Y014160D01*
X013501Y014161D01*
X013501Y014162D01*
Y014162D01*
X013496Y014154D01*
X013491Y014147D01*
X013487Y014141D01*
X013484Y014135D01*
X013482Y014133D01*
X013481Y014131D01*
X013480Y014130D01*
X013479Y014128D01*
X013478Y014127D01*
X013478Y014126D01*
X013477Y014126D01*
Y014126D01*
X013457Y014140D01*
X013460Y014144D01*
X013463Y014149D01*
X013466Y014152D01*
X013469Y014155D01*
X013472Y014158D01*
X013474Y014161D01*
X013477Y014163D01*
X013478Y014165D01*
X013482Y014168D01*
X013484Y014171D01*
X013486Y014172D01*
X013486Y014173D01*
X013478Y014174D01*
X013471Y014175D01*
X013463Y014177D01*
X013457Y014178D01*
X013454Y014179D01*
X013451Y014180D01*
X013449Y014181D01*
X013447Y014181D01*
X013445Y014182D01*
X013444Y014182D01*
X013444Y014182D01*
X013443D01*
X013451Y014207D01*
X013459Y014204D01*
X013467Y014201D01*
X013474Y014198D01*
X013480Y014196D01*
X013483Y014194D01*
X013485Y014193D01*
X013487Y014193D01*
X013489Y014192D01*
X013490Y014191D01*
X013491Y014191D01*
X013492Y014190D01*
X013492D01*
X013491Y014199D01*
X013490Y014208D01*
X013489Y014211D01*
X013489Y014215D01*
X013489Y014218D01*
Y014221D01*
X013488Y014224D01*
X013488Y014226D01*
Y014228D01*
X013488Y014230D01*
Y014231D01*
Y014232D01*
Y014233D01*
Y014233D01*
X013513D01*
Y014230D01*
D02*
G37*
G36*
X017184Y026824D02*
X017184Y026823D01*
X017185Y026821D01*
X017185Y026819D01*
X017187Y026816D01*
X017188Y026813D01*
X017189Y026810D01*
X017192Y026806D01*
X017196Y026797D01*
X017202Y026786D01*
X017210Y026775D01*
X017219Y026763D01*
X017219Y026762D01*
X017220Y026761D01*
X017221Y026759D01*
X017223Y026757D01*
X017226Y026754D01*
X017229Y026752D01*
X017232Y026748D01*
X017236Y026745D01*
X017245Y026737D01*
X017255Y026729D01*
X017267Y026722D01*
X017273Y026720D01*
X017280Y026717D01*
Y026658D01*
X016900D01*
Y026731D01*
X017173D01*
X017172Y026731D01*
X017171Y026732D01*
X017169Y026735D01*
X017167Y026738D01*
X017164Y026741D01*
X017160Y026746D01*
X017156Y026751D01*
X017152Y026757D01*
X017147Y026764D01*
X017143Y026771D01*
X017138Y026779D01*
X017134Y026787D01*
X017129Y026795D01*
X017125Y026805D01*
X017121Y026814D01*
X017118Y026824D01*
X017184D01*
Y026824D01*
D02*
G37*
G36*
X016973Y026902D02*
X016900D01*
Y026975D01*
X016973D01*
Y026902D01*
D02*
G37*
G36*
X016778Y019966D02*
Y019966D01*
Y019964D01*
Y019962D01*
Y019959D01*
X016778Y019955D01*
Y019950D01*
Y019945D01*
X016778Y019940D01*
X016777Y019928D01*
X016775Y019916D01*
X016774Y019905D01*
X016772Y019900D01*
X016771Y019895D01*
Y019894D01*
X016771Y019893D01*
X016770Y019891D01*
X016769Y019889D01*
X016768Y019886D01*
X016767Y019883D01*
X016763Y019875D01*
X016758Y019866D01*
X016752Y019857D01*
X016745Y019847D01*
X016736Y019838D01*
X016736Y019837D01*
X016735Y019836D01*
X016734Y019835D01*
X016732Y019834D01*
X016729Y019832D01*
X016726Y019829D01*
X016723Y019827D01*
X016719Y019824D01*
X016715Y019821D01*
X016710Y019818D01*
X016700Y019812D01*
X016688Y019807D01*
X016675Y019802D01*
X016674D01*
X016673Y019801D01*
X016671Y019800D01*
X016668Y019800D01*
X016665Y019799D01*
X016660Y019798D01*
X016655Y019796D01*
X016650Y019795D01*
X016644Y019794D01*
X016637Y019793D01*
X016630Y019792D01*
X016622Y019791D01*
X016613Y019790D01*
X016605Y019789D01*
X016595Y019789D01*
X016578D01*
X016573Y019789D01*
X016569D01*
X016564Y019790D01*
X016558Y019791D01*
X016545Y019792D01*
X016532Y019794D01*
X016518Y019797D01*
X016505Y019801D01*
X016505D01*
X016503Y019802D01*
X016501Y019802D01*
X016498Y019803D01*
X016495Y019805D01*
X016491Y019807D01*
X016486Y019809D01*
X016481Y019811D01*
X016471Y019817D01*
X016459Y019824D01*
X016448Y019832D01*
X016438Y019841D01*
X016438Y019842D01*
X016437Y019842D01*
X016436Y019843D01*
X016435Y019845D01*
X016433Y019847D01*
X016431Y019849D01*
X016429Y019852D01*
X016427Y019855D01*
X016422Y019863D01*
X016417Y019872D01*
X016412Y019883D01*
X016408Y019895D01*
Y019895D01*
X016407Y019896D01*
X016407Y019897D01*
X016407Y019899D01*
X016406Y019902D01*
X016405Y019905D01*
X016405Y019909D01*
X016404Y019913D01*
X016403Y019917D01*
X016402Y019922D01*
X016402Y019928D01*
X016401Y019934D01*
X016401Y019940D01*
X016400Y019947D01*
X016400Y019955D01*
Y019962D01*
Y020106D01*
X016778D01*
Y019966D01*
D02*
G37*
G36*
X016775Y022053D02*
X016464D01*
Y021864D01*
X016400D01*
Y022130D01*
X016775D01*
Y022053D01*
D02*
G37*
G36*
X016778Y022405D02*
Y022324D01*
X016400Y022172D01*
Y022255D01*
X016486Y022288D01*
Y022440D01*
X016400Y022471D01*
Y022552D01*
X016778Y022405D01*
D02*
G37*
G36*
X016594Y022908D02*
X016601Y022908D01*
X016609Y022907D01*
X016618Y022906D01*
X016628Y022905D01*
X016639Y022902D01*
X016651Y022900D01*
X016663Y022897D01*
X016675Y022893D01*
X016687Y022888D01*
X016699Y022883D01*
X016711Y022876D01*
X016722Y022869D01*
X016732Y022860D01*
X016733Y022860D01*
X016735Y022858D01*
X016737Y022855D01*
X016740Y022851D01*
X016744Y022846D01*
X016749Y022841D01*
X016753Y022834D01*
X016758Y022826D01*
X016763Y022817D01*
X016768Y022807D01*
X016772Y022797D01*
X016776Y022786D01*
X016780Y022773D01*
X016783Y022760D01*
X016784Y022746D01*
X016785Y022732D01*
Y022731D01*
Y022729D01*
X016784Y022725D01*
X016784Y022720D01*
X016783Y022715D01*
X016783Y022708D01*
X016781Y022700D01*
X016779Y022692D01*
X016777Y022683D01*
X016774Y022674D01*
X016771Y022665D01*
X016767Y022655D01*
X016762Y022646D01*
X016757Y022636D01*
X016751Y022628D01*
X016743Y022619D01*
X016743Y022619D01*
X016742Y022618D01*
X016741Y022617D01*
X016739Y022615D01*
X016736Y022613D01*
X016733Y022610D01*
X016730Y022608D01*
X016726Y022604D01*
X016721Y022602D01*
X016716Y022598D01*
X016710Y022595D01*
X016704Y022592D01*
X016697Y022589D01*
X016690Y022586D01*
X016682Y022583D01*
X016674Y022580D01*
X016656Y022656D01*
X016656D01*
X016657Y022656D01*
X016659Y022656D01*
X016661Y022657D01*
X016663Y022658D01*
X016666Y022659D01*
X016673Y022662D01*
X016680Y022665D01*
X016688Y022670D01*
X016695Y022677D01*
X016702Y022684D01*
X016703Y022684D01*
X016703Y022685D01*
X016704Y022686D01*
X016705Y022688D01*
X016706Y022690D01*
X016708Y022692D01*
X016711Y022698D01*
X016714Y022706D01*
X016717Y022715D01*
X016719Y022725D01*
X016719Y022736D01*
Y022736D01*
Y022738D01*
Y022740D01*
X016719Y022743D01*
X016719Y022746D01*
X016718Y022750D01*
X016717Y022755D01*
X016716Y022760D01*
X016714Y022765D01*
X016712Y022771D01*
X016710Y022777D01*
X016707Y022782D01*
X016703Y022788D01*
X016699Y022793D01*
X016694Y022799D01*
X016689Y022804D01*
X016689Y022804D01*
X016688Y022805D01*
X016686Y022807D01*
X016683Y022808D01*
X016680Y022810D01*
X016676Y022812D01*
X016671Y022815D01*
X016665Y022817D01*
X016659Y022819D01*
X016652Y022822D01*
X016644Y022824D01*
X016635Y022826D01*
X016625Y022827D01*
X016615Y022829D01*
X016603Y022829D01*
X016591Y022830D01*
X016584D01*
X016580Y022829D01*
X016573Y022829D01*
X016567Y022829D01*
X016559Y022828D01*
X016551Y022827D01*
X016534Y022824D01*
X016526Y022822D01*
X016518Y022819D01*
X016509Y022816D01*
X016502Y022813D01*
X016495Y022809D01*
X016489Y022804D01*
X016489Y022804D01*
X016488Y022803D01*
X016486Y022802D01*
X016484Y022800D01*
X016482Y022797D01*
X016480Y022794D01*
X016477Y022791D01*
X016474Y022786D01*
X016471Y022782D01*
X016468Y022777D01*
X016466Y022771D01*
X016464Y022765D01*
X016461Y022759D01*
X016460Y022752D01*
X016459Y022745D01*
X016459Y022737D01*
Y022737D01*
Y022736D01*
Y022734D01*
X016459Y022732D01*
Y022729D01*
X016460Y022727D01*
X016461Y022719D01*
X016464Y022711D01*
X016467Y022702D01*
X016472Y022694D01*
X016475Y022689D01*
X016478Y022685D01*
X016478Y022685D01*
X016479Y022684D01*
X016480Y022683D01*
X016482Y022681D01*
X016484Y022680D01*
X016486Y022678D01*
X016489Y022675D01*
X016493Y022673D01*
X016497Y022670D01*
X016501Y022668D01*
X016506Y022665D01*
X016512Y022662D01*
X016518Y022660D01*
X016524Y022657D01*
X016532Y022655D01*
X016539Y022653D01*
X016516Y022579D01*
X016515D01*
X016513Y022580D01*
X016510Y022581D01*
X016506Y022582D01*
X016501Y022584D01*
X016495Y022586D01*
X016488Y022589D01*
X016481Y022592D01*
X016474Y022596D01*
X016466Y022600D01*
X016458Y022605D01*
X016451Y022610D01*
X016443Y022616D01*
X016436Y022622D01*
X016430Y022629D01*
X016423Y022636D01*
X016423Y022636D01*
X016422Y022638D01*
X016421Y022640D01*
X016419Y022643D01*
X016416Y022647D01*
X016414Y022652D01*
X016411Y022657D01*
X016409Y022663D01*
X016406Y022670D01*
X016403Y022678D01*
X016400Y022686D01*
X016398Y022695D01*
X016396Y022704D01*
X016395Y022715D01*
X016394Y022725D01*
X016393Y022736D01*
Y022737D01*
Y022737D01*
Y022740D01*
X016394Y022744D01*
X016394Y022749D01*
X016395Y022755D01*
X016396Y022763D01*
X016398Y022771D01*
X016400Y022780D01*
X016402Y022790D01*
X016406Y022800D01*
X016410Y022810D01*
X016415Y022820D01*
X016421Y022831D01*
X016428Y022841D01*
X016436Y022851D01*
X016445Y022860D01*
X016445Y022861D01*
X016447Y022862D01*
X016450Y022865D01*
X016454Y022868D01*
X016459Y022871D01*
X016466Y022875D01*
X016473Y022880D01*
X016482Y022884D01*
X016491Y022889D01*
X016502Y022893D01*
X016513Y022898D01*
X016526Y022901D01*
X016539Y022904D01*
X016554Y022907D01*
X016569Y022908D01*
X016585Y022909D01*
X016592D01*
X016594Y022908D01*
D02*
G37*
G36*
X016778Y021511D02*
Y021511D01*
Y021509D01*
Y021507D01*
Y021504D01*
Y021500D01*
Y021496D01*
X016778Y021491D01*
Y021486D01*
X016778Y021475D01*
X016777Y021464D01*
X016776Y021453D01*
X016775Y021449D01*
X016774Y021444D01*
Y021444D01*
Y021443D01*
X016774Y021442D01*
X016774Y021440D01*
X016773Y021436D01*
X016771Y021431D01*
X016769Y021425D01*
X016766Y021418D01*
X016763Y021411D01*
X016759Y021405D01*
Y021404D01*
X016758Y021404D01*
X016757Y021402D01*
X016754Y021399D01*
X016751Y021394D01*
X016746Y021390D01*
X016740Y021385D01*
X016734Y021380D01*
X016727Y021376D01*
X016727D01*
X016726Y021375D01*
X016725Y021374D01*
X016724Y021374D01*
X016720Y021372D01*
X016714Y021369D01*
X016708Y021367D01*
X016700Y021365D01*
X016692Y021364D01*
X016683Y021364D01*
X016680D01*
X016678Y021364D01*
X016676D01*
X016673Y021365D01*
X016667Y021365D01*
X016659Y021367D01*
X016651Y021370D01*
X016643Y021373D01*
X016634Y021378D01*
X016634D01*
X016633Y021379D01*
X016632Y021380D01*
X016630Y021381D01*
X016627Y021384D01*
X016622Y021388D01*
X016616Y021394D01*
X016611Y021401D01*
X016605Y021408D01*
X016601Y021417D01*
Y021417D01*
X016600Y021415D01*
X016600Y021414D01*
X016599Y021411D01*
X016598Y021408D01*
X016596Y021405D01*
X016593Y021397D01*
X016588Y021389D01*
X016582Y021380D01*
X016575Y021372D01*
X016566Y021364D01*
X016566Y021364D01*
X016565Y021363D01*
X016564Y021362D01*
X016562Y021361D01*
X016560Y021360D01*
X016557Y021358D01*
X016554Y021356D01*
X016550Y021355D01*
X016542Y021351D01*
X016532Y021348D01*
X016521Y021346D01*
X016516Y021345D01*
X016505D01*
X016503Y021346D01*
X016500Y021346D01*
X016493Y021347D01*
X016486Y021348D01*
X016477Y021351D01*
X016468Y021353D01*
X016459Y021358D01*
X016459D01*
X016458Y021358D01*
X016457Y021359D01*
X016455Y021360D01*
X016450Y021362D01*
X016445Y021366D01*
X016439Y021371D01*
X016432Y021376D01*
X016426Y021383D01*
X016420Y021390D01*
Y021391D01*
X016420Y021391D01*
X016419Y021392D01*
X016418Y021394D01*
X016417Y021396D01*
X016416Y021399D01*
X016413Y021404D01*
X016409Y021412D01*
X016407Y021421D01*
X016404Y021431D01*
X016402Y021442D01*
Y021442D01*
Y021442D01*
Y021444D01*
X016402Y021446D01*
Y021448D01*
X016402Y021451D01*
Y021456D01*
X016401Y021460D01*
Y021466D01*
X016401Y021472D01*
Y021480D01*
X016400Y021488D01*
Y021498D01*
Y021508D01*
X016400Y021520D01*
Y021533D01*
Y021662D01*
X016778D01*
Y021511D01*
D02*
G37*
G36*
Y020327D02*
Y020326D01*
Y020324D01*
Y020321D01*
Y020317D01*
X016778Y020312D01*
Y020306D01*
X016778Y020300D01*
X016777Y020293D01*
X016776Y020278D01*
X016774Y020264D01*
X016773Y020257D01*
X016771Y020250D01*
X016770Y020244D01*
X016768Y020239D01*
Y020238D01*
X016768Y020237D01*
X016767Y020236D01*
X016766Y020234D01*
X016765Y020232D01*
X016764Y020229D01*
X016760Y020223D01*
X016755Y020216D01*
X016748Y020209D01*
X016741Y020201D01*
X016732Y020195D01*
X016731D01*
X016730Y020194D01*
X016729Y020193D01*
X016727Y020192D01*
X016725Y020191D01*
X016722Y020189D01*
X016718Y020188D01*
X016714Y020186D01*
X016706Y020183D01*
X016696Y020180D01*
X016685Y020179D01*
X016672Y020178D01*
X016668D01*
X016665Y020178D01*
X016662Y020179D01*
X016657Y020179D01*
X016653Y020180D01*
X016648Y020181D01*
X016636Y020184D01*
X016630Y020186D01*
X016625Y020189D01*
X016619Y020192D01*
X016613Y020195D01*
X016607Y020199D01*
X016602Y020203D01*
X016601Y020203D01*
X016600Y020204D01*
X016599Y020205D01*
X016597Y020208D01*
X016595Y020210D01*
X016593Y020214D01*
X016590Y020217D01*
X016587Y020222D01*
X016584Y020227D01*
X016581Y020232D01*
X016578Y020238D01*
X016575Y020245D01*
X016573Y020253D01*
X016570Y020260D01*
X016568Y020269D01*
X016566Y020278D01*
Y020278D01*
X016566Y020277D01*
X016565Y020276D01*
X016564Y020274D01*
X016561Y020269D01*
X016557Y020264D01*
X016553Y020257D01*
X016547Y020250D01*
X016541Y020243D01*
X016535Y020237D01*
X016534Y020236D01*
X016533Y020235D01*
X016532Y020234D01*
X016530Y020233D01*
X016527Y020230D01*
X016524Y020228D01*
X016521Y020226D01*
X016517Y020223D01*
X016512Y020219D01*
X016507Y020216D01*
X016502Y020212D01*
X016496Y020208D01*
X016489Y020203D01*
X016482Y020199D01*
X016473Y020194D01*
X016400Y020147D01*
Y020239D01*
X016482Y020294D01*
X016483Y020294D01*
X016484Y020295D01*
X016487Y020297D01*
X016489Y020299D01*
X016493Y020301D01*
X016497Y020304D01*
X016506Y020310D01*
X016515Y020317D01*
X016524Y020324D01*
X016528Y020327D01*
X016532Y020330D01*
X016535Y020332D01*
X016538Y020335D01*
X016538Y020335D01*
X016540Y020336D01*
X016541Y020339D01*
X016544Y020342D01*
X016547Y020345D01*
X016549Y020349D01*
X016552Y020353D01*
X016553Y020358D01*
X016554Y020358D01*
X016554Y020360D01*
X016555Y020363D01*
X016556Y020367D01*
X016557Y020372D01*
X016557Y020379D01*
X016558Y020387D01*
Y020396D01*
Y020411D01*
X016400D01*
Y020488D01*
X016778D01*
Y020327D01*
D02*
G37*
G36*
Y020761D02*
Y020679D01*
X016400Y020528D01*
Y020611D01*
X016486Y020644D01*
Y020795D01*
X016400Y020827D01*
Y020908D01*
X016778Y020761D01*
D02*
G37*
G36*
X016596Y021296D02*
X016601D01*
X016607Y021295D01*
X016613Y021294D01*
X016620Y021294D01*
X016628Y021293D01*
X016635Y021292D01*
X016652Y021289D01*
X016668Y021285D01*
X016676Y021282D01*
X016683Y021279D01*
X016684D01*
X016685Y021278D01*
X016686Y021278D01*
X016688Y021276D01*
X016691Y021275D01*
X016694Y021274D01*
X016701Y021270D01*
X016709Y021265D01*
X016718Y021259D01*
X016726Y021252D01*
X016735Y021244D01*
X016736Y021244D01*
X016736Y021243D01*
X016737Y021242D01*
X016739Y021240D01*
X016741Y021238D01*
X016743Y021235D01*
X016748Y021229D01*
X016754Y021222D01*
X016760Y021214D01*
X016765Y021205D01*
X016769Y021195D01*
Y021194D01*
X016770Y021193D01*
X016771Y021191D01*
X016772Y021189D01*
X016773Y021185D01*
X016774Y021181D01*
X016776Y021177D01*
X016777Y021171D01*
X016778Y021166D01*
X016780Y021160D01*
X016781Y021153D01*
X016782Y021146D01*
X016784Y021130D01*
X016785Y021113D01*
Y021113D01*
Y021112D01*
Y021111D01*
Y021110D01*
X016784Y021105D01*
X016784Y021099D01*
X016783Y021092D01*
X016782Y021084D01*
X016780Y021075D01*
X016778Y021065D01*
X016775Y021055D01*
X016772Y021044D01*
X016768Y021033D01*
X016762Y021021D01*
X016757Y021010D01*
X016750Y021000D01*
X016742Y020989D01*
X016733Y020980D01*
X016732Y020979D01*
X016730Y020977D01*
X016727Y020975D01*
X016723Y020972D01*
X016718Y020968D01*
X016711Y020964D01*
X016704Y020959D01*
X016695Y020954D01*
X016685Y020950D01*
X016674Y020945D01*
X016662Y020941D01*
X016650Y020937D01*
X016636Y020934D01*
X016621Y020931D01*
X016605Y020930D01*
X016588Y020929D01*
X016582D01*
X016580Y020930D01*
X016573Y020930D01*
X016565Y020931D01*
X016557Y020932D01*
X016546Y020933D01*
X016536Y020935D01*
X016525Y020938D01*
X016513Y020941D01*
X016501Y020946D01*
X016489Y020950D01*
X016477Y020956D01*
X016466Y020963D01*
X016455Y020970D01*
X016445Y020979D01*
X016444Y020980D01*
X016443Y020982D01*
X016440Y020984D01*
X016436Y020988D01*
X016433Y020993D01*
X016428Y020999D01*
X016424Y021006D01*
X016419Y021014D01*
X016414Y021023D01*
X016409Y021033D01*
X016405Y021044D01*
X016401Y021056D01*
X016398Y021069D01*
X016395Y021082D01*
X016393Y021097D01*
X016393Y021112D01*
Y021113D01*
Y021113D01*
Y021114D01*
Y021116D01*
X016393Y021121D01*
X016394Y021126D01*
X016395Y021133D01*
X016396Y021142D01*
X016397Y021151D01*
X016400Y021161D01*
X016402Y021171D01*
X016406Y021182D01*
X016410Y021194D01*
X016415Y021205D01*
X016421Y021216D01*
X016427Y021226D01*
X016435Y021237D01*
X016444Y021246D01*
X016445Y021247D01*
X016447Y021249D01*
X016450Y021251D01*
X016454Y021254D01*
X016459Y021258D01*
X016466Y021262D01*
X016473Y021267D01*
X016482Y021271D01*
X016491Y021276D01*
X016502Y021280D01*
X016513Y021285D01*
X016526Y021288D01*
X016539Y021292D01*
X016554Y021294D01*
X016570Y021296D01*
X016586Y021296D01*
X016592D01*
X016596Y021296D01*
D02*
G37*
G36*
X016184Y019912D02*
X016184Y019912D01*
X016185Y019910D01*
X016185Y019908D01*
X016187Y019905D01*
X016188Y019902D01*
X016189Y019898D01*
X016192Y019894D01*
X016196Y019885D01*
X016202Y019875D01*
X016210Y019864D01*
X016219Y019851D01*
X016219Y019851D01*
X016220Y019850D01*
X016221Y019848D01*
X016223Y019846D01*
X016226Y019843D01*
X016229Y019840D01*
X016232Y019837D01*
X016236Y019833D01*
X016245Y019825D01*
X016255Y019818D01*
X016267Y019811D01*
X016273Y019808D01*
X016280Y019806D01*
Y019747D01*
X015900D01*
Y019819D01*
X016173D01*
X016172Y019820D01*
X016171Y019821D01*
X016169Y019823D01*
X016166Y019826D01*
X016164Y019830D01*
X016160Y019835D01*
X016156Y019840D01*
X016152Y019846D01*
X016147Y019852D01*
X016143Y019859D01*
X016138Y019867D01*
X016134Y019875D01*
X016129Y019884D01*
X016125Y019893D01*
X016121Y019903D01*
X016118Y019913D01*
X016184D01*
Y019912D01*
D02*
G37*
G36*
X016278Y024365D02*
X015998Y024269D01*
X016278Y024176D01*
Y024095D01*
X015900Y024230D01*
Y024312D01*
X016278Y024447D01*
Y024365D01*
D02*
G37*
G36*
Y024651D02*
Y024651D01*
Y024649D01*
Y024647D01*
Y024643D01*
X016278Y024639D01*
Y024635D01*
Y024630D01*
X016278Y024624D01*
X016277Y024613D01*
X016275Y024601D01*
X016274Y024590D01*
X016272Y024584D01*
X016271Y024579D01*
Y024579D01*
X016271Y024578D01*
X016270Y024576D01*
X016269Y024574D01*
X016268Y024571D01*
X016267Y024567D01*
X016263Y024560D01*
X016258Y024551D01*
X016252Y024541D01*
X016245Y024532D01*
X016236Y024522D01*
X016236Y024522D01*
X016235Y024521D01*
X016234Y024520D01*
X016232Y024518D01*
X016229Y024517D01*
X016226Y024514D01*
X016223Y024512D01*
X016219Y024509D01*
X016215Y024506D01*
X016210Y024503D01*
X016200Y024497D01*
X016188Y024491D01*
X016175Y024486D01*
X016174D01*
X016173Y024486D01*
X016171Y024485D01*
X016168Y024484D01*
X016165Y024483D01*
X016160Y024482D01*
X016155Y024481D01*
X016150Y024480D01*
X016144Y024479D01*
X016137Y024478D01*
X016130Y024476D01*
X016122Y024476D01*
X016113Y024475D01*
X016105Y024474D01*
X016095Y024474D01*
X016078D01*
X016073Y024474D01*
X016069D01*
X016064Y024474D01*
X016058Y024475D01*
X016045Y024476D01*
X016032Y024478D01*
X016018Y024481D01*
X016005Y024485D01*
X016005D01*
X016003Y024486D01*
X016001Y024487D01*
X015998Y024488D01*
X015995Y024490D01*
X015991Y024491D01*
X015986Y024493D01*
X015981Y024496D01*
X015971Y024501D01*
X015959Y024508D01*
X015948Y024517D01*
X015938Y024526D01*
X015938Y024526D01*
X015937Y024527D01*
X015936Y024528D01*
X015935Y024530D01*
X015933Y024532D01*
X015931Y024534D01*
X015929Y024537D01*
X015927Y024540D01*
X015922Y024548D01*
X015917Y024557D01*
X015912Y024567D01*
X015908Y024579D01*
Y024580D01*
X015907Y024581D01*
X015907Y024582D01*
X015907Y024584D01*
X015906Y024586D01*
X015905Y024590D01*
X015905Y024593D01*
X015904Y024597D01*
X015903Y024602D01*
X015902Y024607D01*
X015902Y024613D01*
X015901Y024619D01*
X015901Y024625D01*
X015900Y024632D01*
X015900Y024639D01*
Y024647D01*
Y024790D01*
X016278D01*
Y024651D01*
D02*
G37*
G36*
Y025064D02*
Y024982D01*
X015900Y024831D01*
Y024914D01*
X015986Y024947D01*
Y025098D01*
X015900Y025130D01*
Y025211D01*
X016278Y025064D01*
D02*
G37*
G36*
Y023948D02*
Y023866D01*
X015900Y023715D01*
Y023798D01*
X015986Y023831D01*
Y023982D01*
X015900Y024014D01*
Y024095D01*
X016278Y023948D01*
D02*
G37*
G36*
Y022861D02*
Y022780D01*
X015900Y022629D01*
Y022712D01*
X015986Y022745D01*
Y022896D01*
X015900Y022928D01*
Y023009D01*
X016278Y022861D01*
D02*
G37*
G36*
Y023019D02*
X016214D01*
Y023131D01*
X015900D01*
Y023207D01*
X016214D01*
Y023319D01*
X016278D01*
Y023019D01*
D02*
G37*
G36*
Y023600D02*
X016024Y023444D01*
X016278D01*
Y023374D01*
X015900D01*
Y023450D01*
X016148Y023603D01*
X015900D01*
Y023674D01*
X016278D01*
Y023600D01*
D02*
G37*
G36*
X016094Y025714D02*
X016101Y025713D01*
X016109Y025713D01*
X016118Y025712D01*
X016128Y025710D01*
X016139Y025708D01*
X016151Y025706D01*
X016163Y025702D01*
X016175Y025699D01*
X016187Y025694D01*
X016199Y025688D01*
X016211Y025682D01*
X016222Y025674D01*
X016232Y025666D01*
X016233Y025665D01*
X016235Y025663D01*
X016237Y025661D01*
X016240Y025657D01*
X016244Y025652D01*
X016249Y025646D01*
X016253Y025639D01*
X016258Y025631D01*
X016263Y025623D01*
X016268Y025613D01*
X016272Y025603D01*
X016276Y025591D01*
X016280Y025579D01*
X016283Y025566D01*
X016284Y025552D01*
X016285Y025538D01*
Y025537D01*
Y025534D01*
X016284Y025531D01*
X016284Y025526D01*
X016283Y025520D01*
X016283Y025513D01*
X016281Y025506D01*
X016279Y025497D01*
X016277Y025489D01*
X016274Y025480D01*
X016271Y025470D01*
X016267Y025461D01*
X016262Y025451D01*
X016257Y025442D01*
X016251Y025433D01*
X016243Y025425D01*
X016243Y025424D01*
X016242Y025424D01*
X016241Y025422D01*
X016239Y025421D01*
X016236Y025418D01*
X016233Y025416D01*
X016230Y025413D01*
X016226Y025410D01*
X016221Y025407D01*
X016216Y025404D01*
X016210Y025401D01*
X016204Y025397D01*
X016197Y025394D01*
X016190Y025391D01*
X016182Y025388D01*
X016174Y025386D01*
X016156Y025461D01*
X016156D01*
X016157Y025462D01*
X016159Y025462D01*
X016161Y025462D01*
X016163Y025463D01*
X016166Y025465D01*
X016173Y025467D01*
X016180Y025471D01*
X016188Y025476D01*
X016195Y025482D01*
X016202Y025490D01*
X016203Y025490D01*
X016203Y025490D01*
X016204Y025492D01*
X016205Y025493D01*
X016206Y025495D01*
X016207Y025498D01*
X016211Y025504D01*
X016214Y025512D01*
X016217Y025520D01*
X016219Y025530D01*
X016219Y025541D01*
Y025542D01*
Y025543D01*
Y025545D01*
X016219Y025548D01*
X016219Y025552D01*
X016218Y025556D01*
X016217Y025560D01*
X016216Y025565D01*
X016214Y025571D01*
X016212Y025576D01*
X016210Y025582D01*
X016207Y025588D01*
X016203Y025594D01*
X016199Y025599D01*
X016194Y025605D01*
X016189Y025610D01*
X016189Y025610D01*
X016188Y025611D01*
X016186Y025612D01*
X016183Y025614D01*
X016180Y025616D01*
X016176Y025618D01*
X016171Y025620D01*
X016165Y025622D01*
X016159Y025625D01*
X016152Y025627D01*
X016144Y025629D01*
X016135Y025631D01*
X016125Y025633D01*
X016115Y025634D01*
X016103Y025635D01*
X016091Y025636D01*
X016084D01*
X016080Y025635D01*
X016073Y025635D01*
X016067Y025634D01*
X016059Y025633D01*
X016051Y025632D01*
X016034Y025629D01*
X016026Y025627D01*
X016018Y025625D01*
X016009Y025622D01*
X016002Y025618D01*
X015995Y025615D01*
X015989Y025610D01*
X015989Y025610D01*
X015988Y025609D01*
X015986Y025607D01*
X015984Y025606D01*
X015982Y025603D01*
X015980Y025600D01*
X015977Y025596D01*
X015974Y025592D01*
X015971Y025588D01*
X015968Y025582D01*
X015966Y025577D01*
X015964Y025571D01*
X015962Y025565D01*
X015960Y025558D01*
X015959Y025550D01*
X015959Y025543D01*
Y025542D01*
Y025542D01*
Y025540D01*
X015959Y025538D01*
Y025535D01*
X015960Y025532D01*
X015961Y025525D01*
X015964Y025517D01*
X015967Y025508D01*
X015972Y025499D01*
X015975Y025495D01*
X015978Y025491D01*
X015978Y025490D01*
X015979Y025490D01*
X015980Y025489D01*
X015982Y025487D01*
X015984Y025485D01*
X015986Y025483D01*
X015989Y025481D01*
X015993Y025478D01*
X015997Y025476D01*
X016001Y025473D01*
X016006Y025471D01*
X016012Y025468D01*
X016018Y025465D01*
X016024Y025463D01*
X016032Y025461D01*
X016039Y025459D01*
X016016Y025385D01*
X016015D01*
X016013Y025385D01*
X016010Y025386D01*
X016006Y025388D01*
X016001Y025390D01*
X015995Y025392D01*
X015988Y025395D01*
X015981Y025398D01*
X015974Y025402D01*
X015966Y025406D01*
X015958Y025411D01*
X015951Y025416D01*
X015943Y025421D01*
X015936Y025428D01*
X015930Y025434D01*
X015923Y025442D01*
X015923Y025442D01*
X015922Y025443D01*
X015920Y025446D01*
X015919Y025449D01*
X015916Y025453D01*
X015914Y025457D01*
X015911Y025462D01*
X015909Y025469D01*
X015906Y025476D01*
X015903Y025483D01*
X015900Y025492D01*
X015898Y025501D01*
X015896Y025510D01*
X015895Y025520D01*
X015894Y025531D01*
X015893Y025542D01*
Y025542D01*
Y025543D01*
Y025545D01*
X015894Y025549D01*
X015894Y025555D01*
X015895Y025561D01*
X015896Y025568D01*
X015898Y025577D01*
X015900Y025586D01*
X015902Y025595D01*
X015906Y025606D01*
X015910Y025616D01*
X015915Y025626D01*
X015921Y025636D01*
X015928Y025647D01*
X015936Y025656D01*
X015945Y025666D01*
X015945Y025666D01*
X015947Y025668D01*
X015950Y025670D01*
X015954Y025673D01*
X015959Y025677D01*
X015966Y025681D01*
X015973Y025686D01*
X015982Y025690D01*
X015991Y025695D01*
X016002Y025699D01*
X016013Y025703D01*
X016026Y025707D01*
X016039Y025710D01*
X016054Y025712D01*
X016069Y025714D01*
X016085Y025714D01*
X016092D01*
X016094Y025714D01*
D02*
G37*
G36*
X016278Y027042D02*
X016214D01*
Y027154D01*
X015900D01*
Y027230D01*
X016214D01*
Y027342D01*
X016278D01*
Y027042D01*
D02*
G37*
G36*
Y027623D02*
X016024Y027467D01*
X016278D01*
Y027396D01*
X015900D01*
Y027473D01*
X016148Y027626D01*
X015900D01*
Y027697D01*
X016278D01*
Y027623D01*
D02*
G37*
G36*
Y027770D02*
X016214D01*
Y027974D01*
X016131D01*
Y027784D01*
X016067D01*
Y027974D01*
X015964D01*
Y027762D01*
X015900D01*
Y028050D01*
X016278D01*
Y027770D01*
D02*
G37*
G36*
Y026832D02*
Y026831D01*
Y026829D01*
Y026827D01*
Y026822D01*
X016278Y026818D01*
Y026812D01*
X016278Y026805D01*
X016277Y026799D01*
X016276Y026784D01*
X016274Y026770D01*
X016273Y026763D01*
X016271Y026756D01*
X016270Y026749D01*
X016268Y026744D01*
Y026744D01*
X016268Y026743D01*
X016267Y026742D01*
X016266Y026740D01*
X016265Y026737D01*
X016264Y026735D01*
X016260Y026728D01*
X016255Y026721D01*
X016249Y026714D01*
X016241Y026707D01*
X016232Y026700D01*
X016231D01*
X016230Y026699D01*
X016229Y026699D01*
X016227Y026698D01*
X016225Y026696D01*
X016222Y026695D01*
X016218Y026693D01*
X016214Y026692D01*
X016206Y026689D01*
X016196Y026686D01*
X016185Y026684D01*
X016172Y026683D01*
X016168D01*
X016165Y026684D01*
X016162Y026684D01*
X016157Y026685D01*
X016153Y026686D01*
X016148Y026687D01*
X016136Y026690D01*
X016130Y026692D01*
X016125Y026694D01*
X016119Y026697D01*
X016113Y026700D01*
X016107Y026704D01*
X016102Y026708D01*
X016101Y026709D01*
X016100Y026710D01*
X016099Y026711D01*
X016097Y026713D01*
X016095Y026716D01*
X016093Y026719D01*
X016090Y026723D01*
X016087Y026727D01*
X016084Y026732D01*
X016081Y026738D01*
X016078Y026744D01*
X016075Y026751D01*
X016073Y026758D01*
X016070Y026766D01*
X016068Y026774D01*
X016066Y026784D01*
Y026783D01*
X016066Y026782D01*
X016065Y026781D01*
X016064Y026779D01*
X016061Y026775D01*
X016057Y026769D01*
X016053Y026763D01*
X016047Y026756D01*
X016041Y026749D01*
X016035Y026743D01*
X016034Y026742D01*
X016033Y026741D01*
X016032Y026740D01*
X016030Y026738D01*
X016027Y026736D01*
X016024Y026733D01*
X016021Y026731D01*
X016017Y026728D01*
X016012Y026725D01*
X016007Y026721D01*
X016002Y026718D01*
X015996Y026713D01*
X015989Y026709D01*
X015982Y026704D01*
X015973Y026699D01*
X015900Y026653D01*
Y026744D01*
X015982Y026799D01*
X015983Y026800D01*
X015984Y026801D01*
X015987Y026802D01*
X015989Y026804D01*
X015993Y026806D01*
X015997Y026809D01*
X016006Y026815D01*
X016015Y026822D01*
X016024Y026829D01*
X016028Y026832D01*
X016032Y026835D01*
X016035Y026838D01*
X016038Y026840D01*
X016038Y026841D01*
X016040Y026842D01*
X016041Y026844D01*
X016044Y026847D01*
X016047Y026850D01*
X016049Y026854D01*
X016052Y026859D01*
X016053Y026863D01*
X016054Y026863D01*
X016054Y026866D01*
X016055Y026868D01*
X016056Y026872D01*
X016057Y026878D01*
X016057Y026884D01*
X016058Y026892D01*
Y026902D01*
Y026917D01*
X015900D01*
Y026993D01*
X016278D01*
Y026832D01*
D02*
G37*
G36*
Y025774D02*
X015900D01*
Y025850D01*
X016278D01*
Y025774D01*
D02*
G37*
G36*
Y026077D02*
Y026077D01*
Y026075D01*
Y026071D01*
Y026066D01*
Y026061D01*
X016278Y026054D01*
Y026048D01*
X016278Y026040D01*
X016277Y026025D01*
X016276Y026017D01*
X016276Y026010D01*
X016276Y026003D01*
X016275Y025997D01*
X016274Y025991D01*
X016273Y025987D01*
Y025986D01*
X016272Y025985D01*
X016272Y025984D01*
X016271Y025982D01*
X016270Y025979D01*
X016269Y025975D01*
X016265Y025968D01*
X016260Y025959D01*
X016253Y025950D01*
X016249Y025945D01*
X016245Y025941D01*
X016241Y025936D01*
X016235Y025932D01*
X016235Y025932D01*
X016234Y025932D01*
X016233Y025930D01*
X016230Y025929D01*
X016228Y025927D01*
X016224Y025925D01*
X016220Y025923D01*
X016216Y025921D01*
X016210Y025919D01*
X016205Y025917D01*
X016199Y025915D01*
X016192Y025913D01*
X016185Y025912D01*
X016178Y025911D01*
X016170Y025911D01*
X016162Y025910D01*
X016156D01*
X016153Y025911D01*
X016149Y025911D01*
X016146Y025911D01*
X016141Y025912D01*
X016132Y025913D01*
X016122Y025916D01*
X016112Y025919D01*
X016103Y025923D01*
X016103D01*
X016102Y025923D01*
X016101Y025924D01*
X016099Y025925D01*
X016095Y025928D01*
X016089Y025932D01*
X016084Y025936D01*
X016078Y025942D01*
X016071Y025948D01*
X016066Y025955D01*
Y025956D01*
X016065Y025956D01*
X016064Y025959D01*
X016061Y025962D01*
X016058Y025968D01*
X016055Y025973D01*
X016053Y025980D01*
X016050Y025987D01*
X016048Y025995D01*
Y025995D01*
X016048Y025996D01*
Y025998D01*
X016047Y026000D01*
X016047Y026002D01*
X016046Y026006D01*
X016046Y026010D01*
X016046Y026015D01*
X016045Y026020D01*
X016044Y026026D01*
X016044Y026033D01*
X016043Y026040D01*
X016043Y026048D01*
Y026056D01*
X016043Y026065D01*
Y026074D01*
Y026124D01*
X015900D01*
Y026200D01*
X016278D01*
Y026077D01*
D02*
G37*
G36*
X016096Y026626D02*
X016101D01*
X016107Y026626D01*
X016113Y026625D01*
X016120Y026625D01*
X016128Y026624D01*
X016135Y026623D01*
X016152Y026620D01*
X016168Y026615D01*
X016176Y026613D01*
X016183Y026610D01*
X016184D01*
X016185Y026609D01*
X016186Y026608D01*
X016188Y026607D01*
X016191Y026606D01*
X016194Y026604D01*
X016201Y026601D01*
X016209Y026596D01*
X016218Y026590D01*
X016226Y026583D01*
X016235Y026575D01*
X016236Y026574D01*
X016236Y026574D01*
X016237Y026572D01*
X016239Y026571D01*
X016241Y026569D01*
X016243Y026566D01*
X016248Y026560D01*
X016254Y026553D01*
X016260Y026544D01*
X016265Y026535D01*
X016269Y026526D01*
Y026525D01*
X016270Y026524D01*
X016271Y026522D01*
X016272Y026519D01*
X016273Y026516D01*
X016274Y026512D01*
X016276Y026508D01*
X016277Y026502D01*
X016278Y026497D01*
X016280Y026490D01*
X016281Y026483D01*
X016282Y026476D01*
X016284Y026461D01*
X016285Y026444D01*
Y026444D01*
Y026443D01*
Y026442D01*
Y026440D01*
X016284Y026436D01*
X016284Y026430D01*
X016283Y026423D01*
X016282Y026415D01*
X016280Y026406D01*
X016278Y026396D01*
X016275Y026385D01*
X016272Y026375D01*
X016268Y026364D01*
X016262Y026352D01*
X016257Y026341D01*
X016250Y026330D01*
X016242Y026320D01*
X016233Y026310D01*
X016232Y026310D01*
X016230Y026308D01*
X016227Y026306D01*
X016223Y026303D01*
X016218Y026298D01*
X016211Y026294D01*
X016204Y026290D01*
X016195Y026285D01*
X016185Y026280D01*
X016174Y026276D01*
X016162Y026271D01*
X016150Y026268D01*
X016136Y026264D01*
X016121Y026262D01*
X016105Y026260D01*
X016088Y026260D01*
X016082D01*
X016080Y026260D01*
X016073Y026261D01*
X016065Y026262D01*
X016057Y026262D01*
X016046Y026264D01*
X016036Y026266D01*
X016025Y026269D01*
X016013Y026272D01*
X016001Y026276D01*
X015989Y026281D01*
X015977Y026287D01*
X015966Y026294D01*
X015955Y026301D01*
X015945Y026310D01*
X015944Y026310D01*
X015943Y026312D01*
X015940Y026315D01*
X015936Y026319D01*
X015933Y026324D01*
X015928Y026330D01*
X015924Y026337D01*
X015919Y026345D01*
X015914Y026354D01*
X015909Y026364D01*
X015905Y026375D01*
X015901Y026387D01*
X015898Y026400D01*
X015895Y026413D01*
X015893Y026428D01*
X015893Y026443D01*
Y026444D01*
Y026444D01*
Y026445D01*
Y026447D01*
X015893Y026451D01*
X015894Y026457D01*
X015895Y026464D01*
X015896Y026473D01*
X015897Y026482D01*
X015900Y026492D01*
X015902Y026502D01*
X015906Y026513D01*
X015910Y026524D01*
X015915Y026535D01*
X015920Y026547D01*
X015927Y026557D01*
X015935Y026567D01*
X015944Y026577D01*
X015945Y026578D01*
X015947Y026579D01*
X015950Y026582D01*
X015954Y026585D01*
X015959Y026589D01*
X015966Y026593D01*
X015973Y026597D01*
X015982Y026602D01*
X015991Y026607D01*
X016002Y026611D01*
X016013Y026615D01*
X016026Y026619D01*
X016039Y026622D01*
X016054Y026625D01*
X016070Y026626D01*
X016086Y026627D01*
X016092D01*
X016096Y026626D01*
D02*
G37*
G36*
X016094Y021046D02*
X016101Y021045D01*
X016109Y021044D01*
X016118Y021044D01*
X016128Y021042D01*
X016139Y021040D01*
X016151Y021037D01*
X016163Y021034D01*
X016175Y021030D01*
X016187Y021025D01*
X016199Y021020D01*
X016211Y021014D01*
X016222Y021006D01*
X016232Y020998D01*
X016233Y020997D01*
X016235Y020995D01*
X016237Y020993D01*
X016240Y020989D01*
X016244Y020984D01*
X016249Y020978D01*
X016253Y020971D01*
X016258Y020963D01*
X016263Y020955D01*
X016268Y020945D01*
X016272Y020934D01*
X016276Y020923D01*
X016280Y020911D01*
X016283Y020898D01*
X016284Y020884D01*
X016285Y020869D01*
Y020868D01*
Y020866D01*
X016284Y020863D01*
X016284Y020858D01*
X016283Y020852D01*
X016283Y020845D01*
X016281Y020837D01*
X016279Y020829D01*
X016277Y020820D01*
X016274Y020811D01*
X016271Y020802D01*
X016267Y020793D01*
X016262Y020783D01*
X016257Y020774D01*
X016251Y020765D01*
X016243Y020757D01*
X016243Y020756D01*
X016242Y020755D01*
X016241Y020754D01*
X016239Y020752D01*
X016236Y020750D01*
X016233Y020747D01*
X016230Y020745D01*
X016226Y020742D01*
X016221Y020739D01*
X016216Y020736D01*
X016210Y020732D01*
X016204Y020729D01*
X016197Y020726D01*
X016190Y020723D01*
X016182Y020720D01*
X016174Y020718D01*
X016156Y020793D01*
X016156D01*
X016157Y020793D01*
X016159Y020794D01*
X016161Y020794D01*
X016163Y020795D01*
X016166Y020796D01*
X016173Y020799D01*
X016180Y020803D01*
X016188Y020808D01*
X016195Y020814D01*
X016202Y020821D01*
X016203Y020822D01*
X016203Y020822D01*
X016204Y020823D01*
X016205Y020825D01*
X016206Y020827D01*
X016207Y020829D01*
X016211Y020836D01*
X016214Y020843D01*
X016217Y020852D01*
X016219Y020862D01*
X016219Y020873D01*
Y020873D01*
Y020875D01*
Y020877D01*
X016219Y020880D01*
X016219Y020884D01*
X016218Y020888D01*
X016217Y020892D01*
X016216Y020897D01*
X016214Y020902D01*
X016212Y020908D01*
X016210Y020914D01*
X016207Y020920D01*
X016203Y020925D01*
X016199Y020931D01*
X016194Y020937D01*
X016189Y020941D01*
X016189Y020942D01*
X016188Y020943D01*
X016186Y020944D01*
X016183Y020946D01*
X016180Y020948D01*
X016176Y020950D01*
X016171Y020952D01*
X016165Y020954D01*
X016159Y020957D01*
X016152Y020959D01*
X016144Y020961D01*
X016135Y020963D01*
X016125Y020965D01*
X016115Y020966D01*
X016103Y020967D01*
X016091Y020967D01*
X016084D01*
X016080Y020967D01*
X016073Y020966D01*
X016067Y020966D01*
X016059Y020965D01*
X016051Y020964D01*
X016034Y020961D01*
X016026Y020959D01*
X016018Y020957D01*
X016009Y020954D01*
X016002Y020950D01*
X015995Y020946D01*
X015989Y020942D01*
X015989Y020941D01*
X015988Y020941D01*
X015986Y020939D01*
X015984Y020937D01*
X015982Y020934D01*
X015980Y020932D01*
X015977Y020928D01*
X015974Y020924D01*
X015971Y020919D01*
X015968Y020914D01*
X015966Y020909D01*
X015964Y020902D01*
X015962Y020896D01*
X015960Y020889D01*
X015959Y020882D01*
X015959Y020875D01*
Y020874D01*
Y020873D01*
Y020872D01*
X015959Y020870D01*
Y020867D01*
X015960Y020864D01*
X015961Y020857D01*
X015964Y020848D01*
X015967Y020840D01*
X015972Y020831D01*
X015975Y020827D01*
X015978Y020823D01*
X015978Y020822D01*
X015979Y020822D01*
X015980Y020820D01*
X015982Y020819D01*
X015984Y020817D01*
X015986Y020815D01*
X015989Y020813D01*
X015993Y020810D01*
X015997Y020808D01*
X016001Y020805D01*
X016006Y020802D01*
X016012Y020800D01*
X016018Y020797D01*
X016024Y020795D01*
X016032Y020793D01*
X016039Y020791D01*
X016016Y020716D01*
X016015D01*
X016013Y020717D01*
X016010Y020718D01*
X016006Y020720D01*
X016001Y020722D01*
X015995Y020724D01*
X015988Y020727D01*
X015981Y020730D01*
X015974Y020734D01*
X015966Y020738D01*
X015958Y020743D01*
X015951Y020747D01*
X015943Y020753D01*
X015936Y020759D01*
X015930Y020766D01*
X015923Y020773D01*
X015923Y020774D01*
X015922Y020775D01*
X015920Y020777D01*
X015919Y020780D01*
X015916Y020784D01*
X015914Y020789D01*
X015911Y020794D01*
X015909Y020801D01*
X015906Y020807D01*
X015903Y020815D01*
X015900Y020823D01*
X015898Y020832D01*
X015896Y020842D01*
X015895Y020852D01*
X015894Y020863D01*
X015893Y020874D01*
Y020874D01*
Y020875D01*
Y020877D01*
X015894Y020881D01*
X015894Y020886D01*
X015895Y020893D01*
X015896Y020900D01*
X015898Y020909D01*
X015900Y020918D01*
X015902Y020927D01*
X015906Y020937D01*
X015910Y020948D01*
X015915Y020958D01*
X015921Y020968D01*
X015928Y020978D01*
X015936Y020988D01*
X015945Y020998D01*
X015945Y020998D01*
X015947Y021000D01*
X015950Y021002D01*
X015954Y021005D01*
X015959Y021009D01*
X015966Y021013D01*
X015973Y021017D01*
X015982Y021022D01*
X015991Y021026D01*
X016002Y021031D01*
X016013Y021035D01*
X016026Y021039D01*
X016039Y021041D01*
X016054Y021044D01*
X016069Y021046D01*
X016085Y021046D01*
X016092D01*
X016094Y021046D01*
D02*
G37*
G36*
X016278Y021897D02*
X016214D01*
Y022101D01*
X016131D01*
Y021911D01*
X016067D01*
Y022101D01*
X015964D01*
Y021889D01*
X015900D01*
Y022177D01*
X016278D01*
Y021897D01*
D02*
G37*
G36*
X016275Y021599D02*
X015964D01*
Y021410D01*
X015900D01*
Y021676D01*
X016275D01*
Y021599D01*
D02*
G37*
G36*
X015902Y020529D02*
X015904D01*
X015907Y020529D01*
X015910Y020528D01*
X015914Y020527D01*
X015918Y020526D01*
X015923Y020525D01*
X015934Y020522D01*
X015947Y020517D01*
X015959Y020512D01*
X015972Y020505D01*
X015973Y020504D01*
X015974Y020504D01*
X015976Y020502D01*
X015978Y020501D01*
X015982Y020498D01*
X015986Y020495D01*
X015991Y020491D01*
X015996Y020487D01*
X016003Y020482D01*
X016009Y020476D01*
X016017Y020469D01*
X016025Y020462D01*
X016033Y020454D01*
X016043Y020444D01*
X016053Y020434D01*
X016063Y020423D01*
X016063Y020423D01*
X016065Y020421D01*
X016067Y020419D01*
X016070Y020415D01*
X016074Y020411D01*
X016078Y020407D01*
X016083Y020402D01*
X016088Y020397D01*
X016098Y020387D01*
X016108Y020377D01*
X016113Y020373D01*
X016117Y020369D01*
X016121Y020365D01*
X016125Y020363D01*
X016125D01*
X016126Y020362D01*
X016127Y020362D01*
X016128Y020360D01*
X016133Y020358D01*
X016139Y020355D01*
X016145Y020353D01*
X016153Y020350D01*
X016161Y020349D01*
X016169Y020348D01*
X016173D01*
X016177Y020349D01*
X016183Y020349D01*
X016189Y020351D01*
X016195Y020353D01*
X016201Y020356D01*
X016206Y020361D01*
X016207Y020361D01*
X016208Y020363D01*
X016210Y020366D01*
X016213Y020370D01*
X016215Y020376D01*
X016217Y020382D01*
X016219Y020389D01*
X016219Y020397D01*
Y020397D01*
Y020398D01*
Y020399D01*
Y020401D01*
X016219Y020405D01*
X016218Y020410D01*
X016216Y020416D01*
X016214Y020422D01*
X016210Y020428D01*
X016205Y020433D01*
X016205Y020434D01*
X016203Y020435D01*
X016200Y020438D01*
X016195Y020440D01*
X016189Y020443D01*
X016181Y020445D01*
X016171Y020447D01*
X016166Y020448D01*
X016160Y020449D01*
X016167Y020521D01*
X016168D01*
X016170Y020520D01*
X016173Y020520D01*
X016177Y020519D01*
X016182Y020518D01*
X016188Y020517D01*
X016194Y020515D01*
X016201Y020513D01*
X016207Y020511D01*
X016214Y020508D01*
X016222Y020505D01*
X016229Y020501D01*
X016236Y020497D01*
X016242Y020492D01*
X016248Y020487D01*
X016253Y020481D01*
X016254Y020480D01*
X016255Y020479D01*
X016256Y020477D01*
X016258Y020474D01*
X016260Y020471D01*
X016262Y020467D01*
X016264Y020463D01*
X016267Y020457D01*
X016269Y020451D01*
X016271Y020445D01*
X016274Y020438D01*
X016276Y020430D01*
X016277Y020422D01*
X016278Y020414D01*
X016279Y020405D01*
X016280Y020395D01*
Y020394D01*
Y020393D01*
Y020390D01*
X016279Y020386D01*
X016279Y020381D01*
X016278Y020376D01*
X016277Y020370D01*
X016276Y020363D01*
X016274Y020356D01*
X016272Y020349D01*
X016270Y020342D01*
X016267Y020335D01*
X016263Y020328D01*
X016259Y020321D01*
X016255Y020314D01*
X016249Y020308D01*
X016249Y020307D01*
X016248Y020306D01*
X016246Y020305D01*
X016244Y020303D01*
X016241Y020300D01*
X016237Y020297D01*
X016233Y020294D01*
X016228Y020291D01*
X016223Y020288D01*
X016218Y020285D01*
X016212Y020283D01*
X016205Y020280D01*
X016198Y020278D01*
X016190Y020276D01*
X016182Y020276D01*
X016174Y020275D01*
X016170D01*
X016168Y020276D01*
X016165D01*
X016159Y020276D01*
X016151Y020278D01*
X016143Y020279D01*
X016134Y020281D01*
X016126Y020285D01*
X016125D01*
X016125Y020285D01*
X016123Y020285D01*
X016121Y020286D01*
X016119Y020287D01*
X016117Y020289D01*
X016111Y020292D01*
X016104Y020296D01*
X016096Y020301D01*
X016087Y020307D01*
X016077Y020314D01*
X016076Y020315D01*
X016074Y020316D01*
X016070Y020320D01*
X016065Y020324D01*
X016062Y020328D01*
X016058Y020331D01*
X016054Y020335D01*
X016050Y020339D01*
X016045Y020344D01*
X016040Y020349D01*
X016034Y020355D01*
X016029Y020361D01*
X016028Y020362D01*
X016028Y020363D01*
X016026Y020365D01*
X016024Y020367D01*
X016021Y020369D01*
X016018Y020373D01*
X016012Y020380D01*
X016005Y020387D01*
X015998Y020394D01*
X015995Y020397D01*
X015992Y020400D01*
X015989Y020403D01*
X015987Y020405D01*
X015987Y020405D01*
X015985Y020406D01*
X015983Y020408D01*
X015981Y020410D01*
X015977Y020412D01*
X015974Y020415D01*
X015967Y020419D01*
Y020275D01*
X015900D01*
Y020529D01*
X015900D01*
X015902Y020529D01*
D02*
G37*
G36*
X016275Y021277D02*
X015964D01*
Y021087D01*
X015900D01*
Y021353D01*
X016275D01*
Y021277D01*
D02*
G37*
G36*
X016100Y022601D02*
X016105Y022601D01*
X016111Y022600D01*
X016118Y022599D01*
X016125Y022598D01*
X016133Y022597D01*
X016141Y022595D01*
X016150Y022593D01*
X016159Y022591D01*
X016168Y022588D01*
X016177Y022585D01*
X016186Y022581D01*
X016195Y022577D01*
X016195Y022576D01*
X016197Y022576D01*
X016199Y022574D01*
X016203Y022572D01*
X016206Y022570D01*
X016211Y022567D01*
X016216Y022563D01*
X016221Y022558D01*
X016227Y022554D01*
X016233Y022548D01*
X016238Y022542D01*
X016244Y022536D01*
X016250Y022529D01*
X016255Y022521D01*
X016261Y022513D01*
X016266Y022504D01*
X016266Y022504D01*
X016267Y022503D01*
X016267Y022501D01*
X016269Y022498D01*
X016270Y022494D01*
X016272Y022490D01*
X016274Y022485D01*
X016275Y022479D01*
X016277Y022473D01*
X016278Y022466D01*
X016280Y022459D01*
X016282Y022451D01*
X016283Y022442D01*
X016284Y022433D01*
X016285Y022424D01*
Y022414D01*
Y022413D01*
Y022413D01*
Y022410D01*
Y022407D01*
X016284Y022402D01*
X016284Y022396D01*
X016283Y022389D01*
X016282Y022382D01*
X016281Y022374D01*
X016279Y022365D01*
X016277Y022356D01*
X016275Y022347D01*
X016272Y022337D01*
X016269Y022328D01*
X016265Y022320D01*
X016260Y022312D01*
X016255Y022304D01*
X016255Y022303D01*
X016254Y022302D01*
X016252Y022300D01*
X016250Y022297D01*
X016246Y022294D01*
X016243Y022291D01*
X016239Y022287D01*
X016234Y022283D01*
X016228Y022278D01*
X016222Y022274D01*
X016215Y022269D01*
X016208Y022265D01*
X016201Y022262D01*
X016192Y022258D01*
X016183Y022255D01*
X016173Y022253D01*
X016159Y022328D01*
X016160D01*
X016160Y022329D01*
X016162Y022329D01*
X016164Y022330D01*
X016166Y022331D01*
X016169Y022332D01*
X016175Y022335D01*
X016182Y022340D01*
X016189Y022345D01*
X016196Y022351D01*
X016203Y022359D01*
Y022359D01*
X016204Y022360D01*
X016205Y022361D01*
X016205Y022363D01*
X016207Y022365D01*
X016208Y022367D01*
X016210Y022371D01*
X016211Y022374D01*
X016214Y022382D01*
X016217Y022391D01*
X016219Y022402D01*
X016219Y022414D01*
Y022414D01*
Y022416D01*
Y022419D01*
X016219Y022422D01*
X016219Y022426D01*
X016218Y022431D01*
X016217Y022437D01*
X016215Y022442D01*
X016214Y022449D01*
X016212Y022455D01*
X016209Y022462D01*
X016206Y022468D01*
X016202Y022475D01*
X016198Y022481D01*
X016193Y022488D01*
X016187Y022493D01*
X016187Y022494D01*
X016186Y022494D01*
X016184Y022496D01*
X016181Y022498D01*
X016178Y022500D01*
X016174Y022503D01*
X016169Y022505D01*
X016164Y022508D01*
X016157Y022511D01*
X016151Y022513D01*
X016143Y022516D01*
X016134Y022518D01*
X016125Y022520D01*
X016115Y022522D01*
X016105Y022522D01*
X016093Y022523D01*
X016090D01*
X016087Y022522D01*
X016082D01*
X016076Y022522D01*
X016070Y022521D01*
X016063Y022520D01*
X016055Y022519D01*
X016047Y022517D01*
X016039Y022515D01*
X016030Y022513D01*
X016022Y022510D01*
X016014Y022507D01*
X016006Y022503D01*
X015998Y022498D01*
X015992Y022493D01*
X015991Y022492D01*
X015991Y022492D01*
X015989Y022490D01*
X015987Y022488D01*
X015984Y022484D01*
X015981Y022481D01*
X015978Y022476D01*
X015975Y022472D01*
X015972Y022467D01*
X015969Y022460D01*
X015966Y022454D01*
X015964Y022447D01*
X015962Y022440D01*
X015960Y022432D01*
X015959Y022424D01*
X015958Y022415D01*
Y022414D01*
Y022413D01*
Y022412D01*
Y022410D01*
X015959Y022408D01*
Y022406D01*
X015959Y022399D01*
X015961Y022392D01*
X015962Y022384D01*
X015964Y022376D01*
X015968Y022367D01*
Y022366D01*
X015968Y022365D01*
X015968Y022364D01*
X015969Y022362D01*
X015971Y022358D01*
X015974Y022352D01*
X015977Y022346D01*
X015981Y022339D01*
X015985Y022332D01*
X015990Y022325D01*
X016039D01*
Y022412D01*
X016103D01*
Y022248D01*
X015951D01*
X015951Y022248D01*
X015950Y022249D01*
X015949Y022250D01*
X015948Y022252D01*
X015946Y022255D01*
X015943Y022258D01*
X015941Y022261D01*
X015938Y022265D01*
X015934Y022270D01*
X015931Y022275D01*
X015928Y022281D01*
X015925Y022287D01*
X015921Y022294D01*
X015918Y022301D01*
X015914Y022309D01*
X015911Y022317D01*
Y022318D01*
X015910Y022319D01*
X015909Y022322D01*
X015908Y022325D01*
X015907Y022329D01*
X015905Y022334D01*
X015904Y022340D01*
X015902Y022346D01*
X015900Y022353D01*
X015899Y022360D01*
X015897Y022367D01*
X015896Y022376D01*
X015894Y022392D01*
X015893Y022401D01*
X015893Y022410D01*
Y022410D01*
Y022412D01*
Y022415D01*
X015893Y022419D01*
X015894Y022425D01*
X015894Y022431D01*
X015895Y022438D01*
X015896Y022445D01*
X015898Y022453D01*
X015899Y022461D01*
X015901Y022469D01*
X015903Y022479D01*
X015906Y022488D01*
X015909Y022496D01*
X015913Y022505D01*
X015918Y022513D01*
X015918Y022514D01*
X015919Y022515D01*
X015920Y022517D01*
X015922Y022521D01*
X015925Y022524D01*
X015928Y022529D01*
X015932Y022533D01*
X015936Y022538D01*
X015941Y022543D01*
X015946Y022549D01*
X015952Y022554D01*
X015958Y022560D01*
X015965Y022565D01*
X015973Y022570D01*
X015980Y022575D01*
X015989Y022579D01*
X015989Y022580D01*
X015991Y022580D01*
X015993Y022581D01*
X015997Y022583D01*
X016001Y022584D01*
X016007Y022586D01*
X016012Y022588D01*
X016019Y022590D01*
X016026Y022592D01*
X016034Y022595D01*
X016042Y022596D01*
X016051Y022598D01*
X016060Y022599D01*
X016070Y022601D01*
X016080Y022601D01*
X016090Y022602D01*
X016096D01*
X016100Y022601D01*
D02*
G37*
G36*
X016097Y020226D02*
X016104D01*
X016113Y020225D01*
X016123Y020224D01*
X016134Y020223D01*
X016146Y020222D01*
X016159Y020220D01*
X016171Y020217D01*
X016184Y020214D01*
X016197Y020211D01*
X016209Y020207D01*
X016221Y020202D01*
X016231Y020196D01*
X016241Y020189D01*
X016241Y020189D01*
X016242Y020188D01*
X016244Y020186D01*
X016247Y020184D01*
X016250Y020180D01*
X016253Y020177D01*
X016257Y020172D01*
X016260Y020167D01*
X016264Y020162D01*
X016267Y020155D01*
X016271Y020148D01*
X016274Y020140D01*
X016276Y020132D01*
X016278Y020123D01*
X016279Y020114D01*
X016280Y020104D01*
Y020103D01*
Y020101D01*
X016279Y020098D01*
Y020095D01*
X016278Y020090D01*
X016278Y020085D01*
X016276Y020079D01*
X016275Y020072D01*
X016273Y020066D01*
X016270Y020059D01*
X016267Y020051D01*
X016263Y020044D01*
X016259Y020037D01*
X016253Y020030D01*
X016247Y020024D01*
X016240Y020018D01*
X016240Y020017D01*
X016238Y020016D01*
X016235Y020014D01*
X016231Y020012D01*
X016226Y020009D01*
X016220Y020006D01*
X016212Y020003D01*
X016203Y019999D01*
X016194Y019996D01*
X016182Y019992D01*
X016169Y019989D01*
X016155Y019987D01*
X016140Y019984D01*
X016123Y019982D01*
X016105Y019981D01*
X016086Y019981D01*
X016079D01*
X016076Y019981D01*
X016069D01*
X016060Y019982D01*
X016050Y019983D01*
X016039Y019984D01*
X016027Y019985D01*
X016014Y019987D01*
X016001Y019990D01*
X015988Y019993D01*
X015975Y019996D01*
X015964Y020001D01*
X015952Y020006D01*
X015941Y020012D01*
X015932Y020018D01*
X015931Y020019D01*
X015930Y020019D01*
X015928Y020021D01*
X015925Y020024D01*
X015923Y020027D01*
X015919Y020031D01*
X015916Y020035D01*
X015912Y020040D01*
X015909Y020046D01*
X015905Y020053D01*
X015902Y020060D01*
X015899Y020067D01*
X015897Y020076D01*
X015895Y020085D01*
X015893Y020094D01*
X015893Y020104D01*
Y020105D01*
Y020106D01*
X015893Y020109D01*
X015894Y020113D01*
X015894Y020118D01*
X015895Y020123D01*
X015897Y020129D01*
X015898Y020136D01*
X015900Y020143D01*
X015903Y020150D01*
X015907Y020157D01*
X015911Y020164D01*
X015916Y020172D01*
X015921Y020179D01*
X015928Y020186D01*
X015935Y020193D01*
X015936Y020193D01*
X015937Y020194D01*
X015940Y020196D01*
X015943Y020198D01*
X015948Y020201D01*
X015955Y020203D01*
X015962Y020206D01*
X015970Y020210D01*
X015980Y020213D01*
X015991Y020216D01*
X016003Y020219D01*
X016017Y020221D01*
X016032Y020223D01*
X016049Y020225D01*
X016067Y020226D01*
X016087Y020226D01*
X016094D01*
X016097Y020226D01*
D02*
G37*
%LPC*%
G36*
X016589Y024065D02*
X016586D01*
X016583Y024065D01*
X016578D01*
X016573Y024064D01*
X016567Y024064D01*
X016560Y024063D01*
X016553Y024062D01*
X016545Y024060D01*
X016537Y024058D01*
X016529Y024056D01*
X016521Y024053D01*
X016513Y024049D01*
X016505Y024046D01*
X016498Y024041D01*
X016491Y024036D01*
X016491Y024035D01*
X016490Y024034D01*
X016489Y024033D01*
X016486Y024030D01*
X016484Y024027D01*
X016481Y024024D01*
X016478Y024020D01*
X016475Y024015D01*
X016472Y024010D01*
X016469Y024004D01*
X016466Y023998D01*
X016464Y023991D01*
X016461Y023984D01*
X016460Y023977D01*
X016459Y023968D01*
X016458Y023960D01*
Y023960D01*
Y023958D01*
X016459Y023956D01*
Y023952D01*
X016459Y023949D01*
X016460Y023944D01*
X016461Y023939D01*
X016462Y023934D01*
X016464Y023928D01*
X016466Y023922D01*
X016469Y023916D01*
X016472Y023909D01*
X016476Y023903D01*
X016480Y023897D01*
X016485Y023891D01*
X016491Y023885D01*
X016491Y023885D01*
X016493Y023884D01*
X016494Y023882D01*
X016497Y023881D01*
X016500Y023878D01*
X016505Y023876D01*
X016510Y023873D01*
X016516Y023870D01*
X016522Y023868D01*
X016530Y023865D01*
X016538Y023863D01*
X016546Y023860D01*
X016556Y023859D01*
X016566Y023857D01*
X016578Y023856D01*
X016590Y023856D01*
X016596D01*
X016600Y023856D01*
X016606Y023857D01*
X016612Y023857D01*
X016619Y023858D01*
X016626Y023859D01*
X016634Y023861D01*
X016642Y023863D01*
X016651Y023865D01*
X016658Y023868D01*
X016666Y023871D01*
X016673Y023875D01*
X016681Y023879D01*
X016687Y023884D01*
X016687Y023885D01*
X016688Y023886D01*
X016690Y023887D01*
X016692Y023890D01*
X016694Y023893D01*
X016697Y023896D01*
X016700Y023900D01*
X016703Y023904D01*
X016706Y023910D01*
X016709Y023916D01*
X016712Y023922D01*
X016714Y023929D01*
X016717Y023936D01*
X016718Y023943D01*
X016719Y023952D01*
X016719Y023960D01*
Y023961D01*
Y023962D01*
Y023965D01*
X016719Y023968D01*
X016719Y023972D01*
X016718Y023977D01*
X016717Y023982D01*
X016715Y023987D01*
X016714Y023993D01*
X016712Y024000D01*
X016709Y024006D01*
X016705Y024012D01*
X016702Y024018D01*
X016697Y024025D01*
X016692Y024031D01*
X016687Y024037D01*
X016686Y024037D01*
X016685Y024038D01*
X016683Y024039D01*
X016680Y024041D01*
X016677Y024043D01*
X016673Y024046D01*
X016668Y024048D01*
X016662Y024051D01*
X016656Y024053D01*
X016648Y024056D01*
X016641Y024059D01*
X016632Y024061D01*
X016622Y024063D01*
X016612Y024064D01*
X016601Y024065D01*
X016589Y024065D01*
D02*
G37*
G36*
X016714Y023641D02*
X016607D01*
Y023599D01*
Y023599D01*
Y023597D01*
Y023595D01*
Y023592D01*
Y023588D01*
X016607Y023584D01*
X016607Y023574D01*
X016608Y023565D01*
X016609Y023555D01*
X016610Y023550D01*
X016610Y023546D01*
X016612Y023542D01*
X016612Y023539D01*
X016613Y023538D01*
X016614Y023536D01*
X016615Y023533D01*
X016617Y023530D01*
X016620Y023526D01*
X016623Y023522D01*
X016627Y023518D01*
X016631Y023515D01*
X016632Y023515D01*
X016634Y023514D01*
X016636Y023512D01*
X016640Y023510D01*
X016644Y023509D01*
X016649Y023507D01*
X016655Y023506D01*
X016661Y023506D01*
X016664D01*
X016668Y023507D01*
X016673Y023508D01*
X016678Y023509D01*
X016684Y023511D01*
X016689Y023514D01*
X016695Y023518D01*
X016695Y023519D01*
X016697Y023520D01*
X016699Y023523D01*
X016702Y023527D01*
X016705Y023531D01*
X016708Y023536D01*
X016710Y023542D01*
X016712Y023549D01*
Y023550D01*
X016712Y023552D01*
X016712Y023554D01*
Y023556D01*
X016713Y023558D01*
X016713Y023561D01*
Y023565D01*
X016714Y023569D01*
Y023573D01*
X016714Y023578D01*
Y023583D01*
X016714Y023590D01*
Y023597D01*
Y023604D01*
Y023641D01*
D02*
G37*
G36*
X016589Y025681D02*
X016586D01*
X016583Y025681D01*
X016578D01*
X016573Y025680D01*
X016567Y025679D01*
X016560Y025679D01*
X016553Y025677D01*
X016545Y025676D01*
X016537Y025674D01*
X016529Y025672D01*
X016521Y025669D01*
X016513Y025665D01*
X016505Y025661D01*
X016498Y025657D01*
X016491Y025652D01*
X016491Y025651D01*
X016490Y025650D01*
X016489Y025649D01*
X016486Y025646D01*
X016484Y025643D01*
X016481Y025640D01*
X016478Y025636D01*
X016475Y025631D01*
X016472Y025626D01*
X016469Y025620D01*
X016466Y025614D01*
X016464Y025607D01*
X016461Y025600D01*
X016460Y025592D01*
X016459Y025584D01*
X016458Y025576D01*
Y025576D01*
Y025574D01*
X016459Y025572D01*
Y025568D01*
X016459Y025565D01*
X016460Y025560D01*
X016461Y025555D01*
X016462Y025549D01*
X016464Y025544D01*
X016466Y025538D01*
X016469Y025531D01*
X016472Y025525D01*
X016476Y025519D01*
X016480Y025513D01*
X016485Y025507D01*
X016491Y025501D01*
X016491Y025501D01*
X016493Y025500D01*
X016494Y025498D01*
X016497Y025497D01*
X016500Y025494D01*
X016505Y025492D01*
X016510Y025489D01*
X016516Y025486D01*
X016522Y025483D01*
X016530Y025481D01*
X016538Y025478D01*
X016546Y025476D01*
X016556Y025474D01*
X016566Y025473D01*
X016578Y025472D01*
X016590Y025472D01*
X016596D01*
X016600Y025472D01*
X016606Y025472D01*
X016612Y025473D01*
X016619Y025474D01*
X016626Y025475D01*
X016634Y025476D01*
X016642Y025478D01*
X016651Y025481D01*
X016658Y025483D01*
X016666Y025487D01*
X016673Y025491D01*
X016681Y025495D01*
X016687Y025500D01*
X016687Y025501D01*
X016688Y025501D01*
X016690Y025503D01*
X016692Y025506D01*
X016694Y025508D01*
X016697Y025512D01*
X016700Y025516D01*
X016703Y025520D01*
X016706Y025526D01*
X016709Y025531D01*
X016712Y025538D01*
X016714Y025544D01*
X016717Y025551D01*
X016718Y025559D01*
X016719Y025567D01*
X016719Y025576D01*
Y025576D01*
Y025578D01*
Y025581D01*
X016719Y025584D01*
X016719Y025588D01*
X016718Y025592D01*
X016717Y025598D01*
X016715Y025603D01*
X016714Y025609D01*
X016712Y025615D01*
X016709Y025622D01*
X016705Y025628D01*
X016702Y025634D01*
X016697Y025641D01*
X016692Y025647D01*
X016687Y025652D01*
X016686Y025653D01*
X016685Y025654D01*
X016683Y025655D01*
X016680Y025657D01*
X016677Y025659D01*
X016673Y025661D01*
X016668Y025664D01*
X016662Y025667D01*
X016656Y025669D01*
X016648Y025672D01*
X016641Y025674D01*
X016632Y025677D01*
X016622Y025679D01*
X016612Y025680D01*
X016601Y025681D01*
X016589Y025681D01*
D02*
G37*
G36*
X016714Y027547D02*
X016618D01*
Y027490D01*
Y027490D01*
Y027488D01*
Y027485D01*
Y027482D01*
Y027477D01*
X016619Y027472D01*
Y027467D01*
Y027461D01*
X016619Y027449D01*
X016620Y027438D01*
X016621Y027433D01*
X016621Y027429D01*
X016622Y027425D01*
X016623Y027422D01*
X016623Y027421D01*
X016623Y027419D01*
X016625Y027417D01*
X016626Y027414D01*
X016628Y027410D01*
X016631Y027407D01*
X016635Y027403D01*
X016639Y027400D01*
X016639Y027400D01*
X016641Y027399D01*
X016643Y027398D01*
X016646Y027396D01*
X016651Y027395D01*
X016655Y027394D01*
X016661Y027393D01*
X016667Y027392D01*
X016671D01*
X016674Y027393D01*
X016678Y027394D01*
X016683Y027395D01*
X016688Y027397D01*
X016693Y027399D01*
X016698Y027403D01*
X016698Y027403D01*
X016700Y027405D01*
X016702Y027407D01*
X016704Y027410D01*
X016707Y027414D01*
X016709Y027419D01*
X016711Y027425D01*
X016713Y027432D01*
Y027432D01*
X016713Y027434D01*
Y027435D01*
Y027437D01*
X016714Y027439D01*
Y027442D01*
Y027445D01*
X016714Y027449D01*
Y027454D01*
Y027459D01*
X016714Y027465D01*
Y027471D01*
Y027479D01*
Y027487D01*
Y027547D01*
D02*
G37*
G36*
X016589Y027971D02*
X016586D01*
X016583Y027971D01*
X016578D01*
X016573Y027970D01*
X016567Y027970D01*
X016560Y027969D01*
X016553Y027968D01*
X016545Y027966D01*
X016537Y027964D01*
X016529Y027962D01*
X016521Y027959D01*
X016513Y027955D01*
X016505Y027952D01*
X016498Y027947D01*
X016491Y027942D01*
X016491Y027941D01*
X016490Y027941D01*
X016489Y027939D01*
X016486Y027936D01*
X016484Y027934D01*
X016481Y027930D01*
X016478Y027926D01*
X016475Y027921D01*
X016472Y027916D01*
X016469Y027910D01*
X016466Y027904D01*
X016464Y027897D01*
X016461Y027891D01*
X016460Y027883D01*
X016459Y027875D01*
X016458Y027866D01*
Y027866D01*
Y027864D01*
X016459Y027862D01*
Y027859D01*
X016459Y027855D01*
X016460Y027850D01*
X016461Y027845D01*
X016462Y027840D01*
X016464Y027834D01*
X016466Y027828D01*
X016469Y027822D01*
X016472Y027815D01*
X016476Y027809D01*
X016480Y027803D01*
X016485Y027797D01*
X016491Y027791D01*
X016491Y027791D01*
X016493Y027790D01*
X016494Y027788D01*
X016497Y027787D01*
X016500Y027784D01*
X016505Y027782D01*
X016510Y027779D01*
X016516Y027777D01*
X016522Y027774D01*
X016530Y027771D01*
X016538Y027769D01*
X016546Y027766D01*
X016556Y027765D01*
X016566Y027763D01*
X016578Y027762D01*
X016590Y027762D01*
X016596D01*
X016600Y027762D01*
X016606Y027763D01*
X016612Y027763D01*
X016619Y027764D01*
X016626Y027765D01*
X016634Y027767D01*
X016642Y027769D01*
X016651Y027771D01*
X016658Y027774D01*
X016666Y027777D01*
X016673Y027781D01*
X016681Y027786D01*
X016687Y027790D01*
X016687Y027791D01*
X016688Y027792D01*
X016690Y027793D01*
X016692Y027796D01*
X016694Y027799D01*
X016697Y027802D01*
X016700Y027806D01*
X016703Y027811D01*
X016706Y027816D01*
X016709Y027822D01*
X016712Y027828D01*
X016714Y027835D01*
X016717Y027842D01*
X016718Y027850D01*
X016719Y027858D01*
X016719Y027866D01*
Y027867D01*
Y027868D01*
Y027871D01*
X016719Y027874D01*
X016719Y027878D01*
X016718Y027883D01*
X016717Y027888D01*
X016715Y027893D01*
X016714Y027900D01*
X016712Y027906D01*
X016709Y027912D01*
X016705Y027918D01*
X016702Y027925D01*
X016697Y027931D01*
X016692Y027937D01*
X016687Y027943D01*
X016686Y027943D01*
X016685Y027944D01*
X016683Y027945D01*
X016680Y027947D01*
X016677Y027949D01*
X016673Y027952D01*
X016668Y027954D01*
X016662Y027957D01*
X016656Y027959D01*
X016648Y027962D01*
X016641Y027965D01*
X016632Y027967D01*
X016622Y027969D01*
X016612Y027970D01*
X016601Y027971D01*
X016589Y027971D01*
D02*
G37*
G36*
X016027Y019557D02*
X016023D01*
X016021Y019556D01*
X016018D01*
X016014Y019556D01*
X016007Y019555D01*
X015998Y019553D01*
X015989Y019550D01*
X015980Y019546D01*
X015972Y019541D01*
X015971Y019540D01*
X015969Y019538D01*
X015966Y019535D01*
X015963Y019530D01*
X015959Y019524D01*
X015956Y019518D01*
X015954Y019511D01*
X015954Y019507D01*
X015953Y019504D01*
Y019503D01*
Y019503D01*
X015954Y019500D01*
X015954Y019497D01*
X015955Y019492D01*
X015957Y019486D01*
X015960Y019481D01*
X015964Y019475D01*
X015969Y019470D01*
X015970Y019470D01*
X015972Y019468D01*
X015976Y019466D01*
X015978Y019465D01*
X015981Y019463D01*
X015984Y019462D01*
X015988Y019461D01*
X015992Y019460D01*
X015997Y019458D01*
X016002Y019458D01*
X016008Y019457D01*
X016014Y019456D01*
X016024D01*
X016026Y019457D01*
X016029D01*
X016033Y019457D01*
X016041Y019458D01*
X016050Y019460D01*
X016059Y019463D01*
X016067Y019466D01*
X016071Y019469D01*
X016074Y019471D01*
X016075Y019472D01*
X016077Y019474D01*
X016080Y019477D01*
X016083Y019481D01*
X016086Y019486D01*
X016089Y019492D01*
X016091Y019499D01*
X016091Y019507D01*
Y019508D01*
Y019508D01*
X016091Y019511D01*
X016091Y019515D01*
X016089Y019520D01*
X016087Y019525D01*
X016085Y019531D01*
X016080Y019537D01*
X016075Y019542D01*
X016074Y019543D01*
X016072Y019545D01*
X016068Y019547D01*
X016063Y019549D01*
X016056Y019552D01*
X016048Y019554D01*
X016038Y019556D01*
X016027Y019557D01*
D02*
G37*
G36*
X016565Y026050D02*
X016464D01*
Y025979D01*
Y025979D01*
Y025977D01*
Y025975D01*
Y025973D01*
Y025969D01*
Y025966D01*
X016464Y025957D01*
Y025948D01*
X016465Y025939D01*
X016465Y025936D01*
Y025932D01*
X016466Y025929D01*
X016466Y025927D01*
Y025926D01*
X016467Y025924D01*
X016468Y025920D01*
X016469Y025917D01*
X016471Y025912D01*
X016474Y025908D01*
X016477Y025903D01*
X016481Y025899D01*
X016482Y025898D01*
X016483Y025897D01*
X016486Y025895D01*
X016490Y025893D01*
X016494Y025891D01*
X016500Y025889D01*
X016506Y025888D01*
X016513Y025888D01*
X016516D01*
X016519Y025888D01*
X016523Y025889D01*
X016528Y025890D01*
X016532Y025891D01*
X016537Y025893D01*
X016542Y025896D01*
X016542Y025897D01*
X016544Y025898D01*
X016546Y025900D01*
X016548Y025902D01*
X016551Y025906D01*
X016554Y025910D01*
X016557Y025915D01*
X016559Y025920D01*
X016559Y025921D01*
Y025922D01*
X016560Y025923D01*
X016560Y025925D01*
X016561Y025928D01*
X016562Y025931D01*
X016562Y025934D01*
X016562Y025938D01*
X016563Y025943D01*
X016564Y025949D01*
X016564Y025955D01*
X016564Y025962D01*
Y025970D01*
X016565Y025979D01*
Y025988D01*
Y026050D01*
D02*
G37*
G36*
X016715D02*
X016628D01*
Y026000D01*
Y025999D01*
Y025998D01*
Y025995D01*
Y025993D01*
Y025989D01*
Y025985D01*
Y025976D01*
X016628Y025966D01*
Y025957D01*
X016629Y025953D01*
Y025950D01*
X016629Y025946D01*
Y025944D01*
Y025943D01*
Y025943D01*
X016630Y025941D01*
X016630Y025937D01*
X016632Y025933D01*
X016633Y025928D01*
X016636Y025923D01*
X016639Y025918D01*
X016642Y025913D01*
X016643Y025913D01*
X016644Y025911D01*
X016647Y025909D01*
X016651Y025907D01*
X016655Y025905D01*
X016660Y025903D01*
X016666Y025902D01*
X016672Y025902D01*
X016675D01*
X016678Y025902D01*
X016682Y025903D01*
X016687Y025904D01*
X016692Y025906D01*
X016696Y025908D01*
X016701Y025911D01*
X016701Y025912D01*
X016702Y025913D01*
X016704Y025916D01*
X016706Y025919D01*
X016709Y025923D01*
X016711Y025928D01*
X016712Y025934D01*
X016714Y025941D01*
Y025941D01*
Y025942D01*
X016714Y025943D01*
Y025945D01*
Y025947D01*
X016714Y025950D01*
Y025953D01*
Y025957D01*
X016715Y025961D01*
Y025967D01*
Y025973D01*
X016715Y025979D01*
Y025987D01*
Y025996D01*
Y026006D01*
Y026050D01*
D02*
G37*
G36*
X016589Y026474D02*
X016586D01*
X016583Y026474D01*
X016578D01*
X016573Y026473D01*
X016567Y026472D01*
X016560Y026472D01*
X016553Y026470D01*
X016545Y026469D01*
X016537Y026467D01*
X016529Y026465D01*
X016521Y026462D01*
X016513Y026458D01*
X016505Y026454D01*
X016498Y026450D01*
X016491Y026444D01*
X016491Y026444D01*
X016490Y026443D01*
X016489Y026442D01*
X016486Y026439D01*
X016484Y026436D01*
X016481Y026433D01*
X016478Y026428D01*
X016475Y026424D01*
X016472Y026419D01*
X016469Y026413D01*
X016466Y026407D01*
X016464Y026400D01*
X016461Y026393D01*
X016460Y026385D01*
X016459Y026377D01*
X016458Y026369D01*
Y026369D01*
Y026367D01*
X016459Y026364D01*
Y026361D01*
X016459Y026358D01*
X016460Y026353D01*
X016461Y026348D01*
X016462Y026342D01*
X016464Y026337D01*
X016466Y026331D01*
X016469Y026324D01*
X016472Y026318D01*
X016476Y026312D01*
X016480Y026306D01*
X016485Y026300D01*
X016491Y026294D01*
X016491Y026294D01*
X016493Y026293D01*
X016494Y026291D01*
X016497Y026289D01*
X016500Y026287D01*
X016505Y026285D01*
X016510Y026282D01*
X016516Y026279D01*
X016522Y026276D01*
X016530Y026274D01*
X016538Y026271D01*
X016546Y026269D01*
X016556Y026267D01*
X016566Y026266D01*
X016578Y026265D01*
X016590Y026264D01*
X016596D01*
X016600Y026265D01*
X016606Y026265D01*
X016612Y026266D01*
X016619Y026267D01*
X016626Y026268D01*
X016634Y026269D01*
X016642Y026271D01*
X016651Y026274D01*
X016658Y026276D01*
X016666Y026280D01*
X016673Y026284D01*
X016681Y026288D01*
X016687Y026293D01*
X016687Y026294D01*
X016688Y026294D01*
X016690Y026296D01*
X016692Y026298D01*
X016694Y026301D01*
X016697Y026305D01*
X016700Y026309D01*
X016703Y026313D01*
X016706Y026319D01*
X016709Y026324D01*
X016712Y026330D01*
X016714Y026337D01*
X016717Y026344D01*
X016718Y026352D01*
X016719Y026360D01*
X016719Y026369D01*
Y026369D01*
Y026371D01*
Y026374D01*
X016719Y026377D01*
X016719Y026381D01*
X016718Y026385D01*
X016717Y026391D01*
X016715Y026396D01*
X016714Y026402D01*
X016712Y026408D01*
X016709Y026415D01*
X016705Y026421D01*
X016702Y026427D01*
X016697Y026434D01*
X016692Y026440D01*
X016687Y026445D01*
X016686Y026446D01*
X016685Y026446D01*
X016683Y026448D01*
X016680Y026450D01*
X016677Y026452D01*
X016673Y026454D01*
X016668Y026457D01*
X016662Y026460D01*
X016656Y026462D01*
X016648Y026465D01*
X016641Y026467D01*
X016632Y026469D01*
X016622Y026472D01*
X016612Y026473D01*
X016601Y026474D01*
X016589Y026474D01*
D02*
G37*
G36*
X017098Y027649D02*
X017075D01*
X017070Y027649D01*
X017057D01*
X017050Y027649D01*
X017034Y027648D01*
X017019Y027647D01*
X017012Y027646D01*
X017005Y027645D01*
X017000Y027644D01*
X016994Y027643D01*
X016994D01*
X016993Y027642D01*
X016992Y027642D01*
X016990Y027642D01*
X016986Y027640D01*
X016981Y027638D01*
X016975Y027636D01*
X016970Y027633D01*
X016965Y027630D01*
X016961Y027626D01*
X016961Y027626D01*
X016960Y027624D01*
X016959Y027622D01*
X016957Y027619D01*
X016956Y027616D01*
X016955Y027612D01*
X016954Y027608D01*
X016953Y027603D01*
Y027602D01*
Y027601D01*
X016954Y027598D01*
X016955Y027595D01*
X016955Y027591D01*
X016957Y027587D01*
X016959Y027583D01*
X016961Y027579D01*
X016962Y027579D01*
X016963Y027578D01*
X016965Y027576D01*
X016968Y027574D01*
X016973Y027571D01*
X016977Y027568D01*
X016984Y027566D01*
X016991Y027563D01*
X016992D01*
X016993Y027563D01*
X016994Y027562D01*
X016997Y027562D01*
X017000Y027562D01*
X017004Y027561D01*
X017008Y027560D01*
X017014Y027559D01*
X017020Y027559D01*
X017027Y027558D01*
X017034Y027557D01*
X017043Y027557D01*
X017053Y027556D01*
X017063Y027556D01*
X017074Y027556D01*
X017102D01*
X017109Y027556D01*
X017115D01*
X017123Y027556D01*
X017138Y027557D01*
X017153Y027558D01*
X017160Y027559D01*
X017167Y027560D01*
X017172Y027561D01*
X017178Y027562D01*
X017178D01*
X017179Y027563D01*
X017180Y027563D01*
X017182Y027564D01*
X017186Y027565D01*
X017191Y027567D01*
X017197Y027569D01*
X017202Y027572D01*
X017207Y027576D01*
X017211Y027579D01*
X017211Y027580D01*
X017212Y027581D01*
X017214Y027583D01*
X017215Y027586D01*
X017217Y027590D01*
X017218Y027594D01*
X017219Y027598D01*
X017219Y027603D01*
Y027603D01*
Y027605D01*
X017219Y027607D01*
X017218Y027610D01*
X017217Y027614D01*
X017216Y027618D01*
X017214Y027622D01*
X017211Y027626D01*
X017210Y027626D01*
X017209Y027628D01*
X017207Y027630D01*
X017204Y027632D01*
X017200Y027634D01*
X017195Y027637D01*
X017188Y027640D01*
X017181Y027642D01*
X017180D01*
X017180Y027642D01*
X017178Y027643D01*
X017176Y027643D01*
X017172Y027644D01*
X017169Y027644D01*
X017164Y027645D01*
X017158Y027646D01*
X017152Y027647D01*
X017145Y027647D01*
X017137Y027648D01*
X017129Y027648D01*
X017120Y027649D01*
X017109Y027649D01*
X017098Y027649D01*
D02*
G37*
G36*
X016714Y020030D02*
X016464D01*
Y019973D01*
Y019972D01*
Y019971D01*
Y019970D01*
Y019967D01*
Y019965D01*
Y019962D01*
X016464Y019955D01*
X016465Y019947D01*
X016465Y019939D01*
X016466Y019932D01*
X016467Y019929D01*
X016467Y019926D01*
Y019926D01*
X016468Y019925D01*
X016468Y019923D01*
X016469Y019920D01*
X016471Y019916D01*
X016473Y019911D01*
X016476Y019905D01*
X016480Y019900D01*
X016483Y019896D01*
X016484Y019895D01*
X016485Y019893D01*
X016488Y019891D01*
X016492Y019889D01*
X016497Y019885D01*
X016503Y019882D01*
X016511Y019879D01*
X016520Y019875D01*
X016520D01*
X016521Y019875D01*
X016522Y019875D01*
X016524Y019874D01*
X016527Y019874D01*
X016530Y019873D01*
X016534Y019872D01*
X016538Y019871D01*
X016543Y019871D01*
X016548Y019870D01*
X016553Y019869D01*
X016559Y019869D01*
X016566Y019868D01*
X016573Y019868D01*
X016581Y019868D01*
X016596D01*
X016600Y019868D01*
X016604D01*
X016609Y019868D01*
X016614D01*
X016625Y019870D01*
X016636Y019871D01*
X016647Y019873D01*
X016652Y019874D01*
X016656Y019875D01*
X016657D01*
X016657Y019876D01*
X016659Y019876D01*
X016660Y019877D01*
X016664Y019879D01*
X016670Y019881D01*
X016676Y019884D01*
X016682Y019888D01*
X016687Y019892D01*
X016693Y019897D01*
X016693Y019898D01*
X016695Y019900D01*
X016697Y019903D01*
X016700Y019907D01*
X016703Y019912D01*
X016706Y019918D01*
X016709Y019925D01*
X016711Y019933D01*
Y019934D01*
X016711Y019934D01*
Y019936D01*
X016712Y019938D01*
X016712Y019940D01*
X016712Y019943D01*
X016713Y019947D01*
Y019950D01*
X016713Y019955D01*
X016714Y019960D01*
X016714Y019966D01*
Y019973D01*
X016714Y019980D01*
Y019987D01*
Y019996D01*
Y020030D01*
D02*
G37*
G36*
X016550Y022416D02*
Y022312D01*
X016690Y022365D01*
X016550Y022416D01*
D02*
G37*
G36*
X016565Y021586D02*
X016464D01*
Y021515D01*
Y021515D01*
Y021514D01*
Y021511D01*
Y021509D01*
Y021506D01*
Y021502D01*
X016464Y021493D01*
Y021484D01*
X016465Y021476D01*
X016465Y021472D01*
Y021468D01*
X016466Y021465D01*
X016466Y021463D01*
Y021462D01*
X016467Y021460D01*
X016468Y021457D01*
X016469Y021453D01*
X016471Y021449D01*
X016474Y021444D01*
X016477Y021439D01*
X016481Y021435D01*
X016482Y021435D01*
X016483Y021433D01*
X016486Y021431D01*
X016490Y021429D01*
X016494Y021428D01*
X016500Y021426D01*
X016506Y021424D01*
X016513Y021424D01*
X016516D01*
X016519Y021424D01*
X016523Y021425D01*
X016528Y021426D01*
X016532Y021428D01*
X016537Y021430D01*
X016542Y021433D01*
X016542Y021433D01*
X016544Y021434D01*
X016546Y021436D01*
X016548Y021439D01*
X016551Y021442D01*
X016554Y021446D01*
X016557Y021451D01*
X016559Y021456D01*
X016559Y021457D01*
Y021458D01*
X016560Y021460D01*
X016560Y021462D01*
X016561Y021464D01*
X016562Y021467D01*
X016562Y021471D01*
X016562Y021475D01*
X016563Y021480D01*
X016564Y021485D01*
X016564Y021492D01*
X016564Y021499D01*
Y021506D01*
X016565Y021515D01*
Y021524D01*
Y021586D01*
D02*
G37*
G36*
X016715D02*
X016628D01*
Y021536D01*
Y021536D01*
Y021534D01*
Y021532D01*
Y021529D01*
Y021525D01*
Y021521D01*
Y021512D01*
X016628Y021503D01*
Y021494D01*
X016629Y021490D01*
Y021486D01*
X016629Y021483D01*
Y021480D01*
Y021480D01*
Y021479D01*
X016630Y021477D01*
X016630Y021473D01*
X016632Y021469D01*
X016633Y021464D01*
X016636Y021459D01*
X016639Y021454D01*
X016642Y021449D01*
X016643Y021449D01*
X016644Y021448D01*
X016647Y021446D01*
X016651Y021444D01*
X016655Y021442D01*
X016660Y021440D01*
X016666Y021438D01*
X016672Y021438D01*
X016675D01*
X016678Y021438D01*
X016682Y021439D01*
X016687Y021440D01*
X016692Y021442D01*
X016696Y021444D01*
X016701Y021448D01*
X016701Y021448D01*
X016702Y021449D01*
X016704Y021452D01*
X016706Y021455D01*
X016709Y021459D01*
X016711Y021464D01*
X016712Y021470D01*
X016714Y021477D01*
Y021477D01*
Y021478D01*
X016714Y021479D01*
Y021481D01*
Y021483D01*
X016714Y021486D01*
Y021489D01*
Y021493D01*
X016715Y021498D01*
Y021503D01*
Y021509D01*
X016715Y021516D01*
Y021524D01*
Y021532D01*
Y021542D01*
Y021586D01*
D02*
G37*
G36*
X016714Y020411D02*
X016618D01*
Y020355D01*
Y020354D01*
Y020352D01*
Y020349D01*
Y020346D01*
Y020342D01*
X016619Y020337D01*
Y020331D01*
Y020326D01*
X016619Y020314D01*
X016620Y020303D01*
X016621Y020298D01*
X016621Y020293D01*
X016622Y020289D01*
X016623Y020286D01*
X016623Y020285D01*
X016623Y020284D01*
X016625Y020281D01*
X016626Y020278D01*
X016628Y020275D01*
X016631Y020271D01*
X016635Y020268D01*
X016639Y020265D01*
X016639Y020264D01*
X016641Y020263D01*
X016643Y020262D01*
X016646Y020260D01*
X016651Y020259D01*
X016655Y020258D01*
X016661Y020257D01*
X016667Y020257D01*
X016671D01*
X016674Y020257D01*
X016678Y020258D01*
X016683Y020259D01*
X016688Y020261D01*
X016693Y020264D01*
X016698Y020267D01*
X016698Y020267D01*
X016700Y020269D01*
X016702Y020271D01*
X016704Y020274D01*
X016707Y020278D01*
X016709Y020283D01*
X016711Y020290D01*
X016713Y020296D01*
Y020296D01*
X016713Y020298D01*
Y020300D01*
Y020301D01*
X016714Y020303D01*
Y020306D01*
Y020310D01*
X016714Y020314D01*
Y020318D01*
Y020324D01*
X016714Y020329D01*
Y020336D01*
Y020344D01*
Y020352D01*
Y020411D01*
D02*
G37*
G36*
X016550Y020772D02*
Y020668D01*
X016690Y020721D01*
X016550Y020772D01*
D02*
G37*
G36*
X016589Y021217D02*
X016586D01*
X016583Y021217D01*
X016578D01*
X016573Y021217D01*
X016567Y021216D01*
X016560Y021215D01*
X016553Y021214D01*
X016545Y021212D01*
X016537Y021210D01*
X016529Y021208D01*
X016521Y021205D01*
X016513Y021201D01*
X016505Y021198D01*
X016498Y021193D01*
X016491Y021188D01*
X016491Y021187D01*
X016490Y021187D01*
X016489Y021185D01*
X016486Y021182D01*
X016484Y021180D01*
X016481Y021176D01*
X016478Y021172D01*
X016475Y021167D01*
X016472Y021162D01*
X016469Y021156D01*
X016466Y021150D01*
X016464Y021144D01*
X016461Y021137D01*
X016460Y021129D01*
X016459Y021121D01*
X016458Y021112D01*
Y021112D01*
Y021110D01*
X016459Y021108D01*
Y021105D01*
X016459Y021101D01*
X016460Y021096D01*
X016461Y021091D01*
X016462Y021086D01*
X016464Y021080D01*
X016466Y021074D01*
X016469Y021068D01*
X016472Y021062D01*
X016476Y021055D01*
X016480Y021049D01*
X016485Y021043D01*
X016491Y021037D01*
X016491Y021037D01*
X016493Y021036D01*
X016494Y021034D01*
X016497Y021033D01*
X016500Y021030D01*
X016505Y021028D01*
X016510Y021025D01*
X016516Y021023D01*
X016522Y021020D01*
X016530Y021017D01*
X016538Y021015D01*
X016546Y021012D01*
X016556Y021011D01*
X016566Y021009D01*
X016578Y021008D01*
X016590Y021008D01*
X016596D01*
X016600Y021008D01*
X016606Y021009D01*
X016612Y021009D01*
X016619Y021010D01*
X016626Y021012D01*
X016634Y021013D01*
X016642Y021015D01*
X016651Y021017D01*
X016658Y021020D01*
X016666Y021023D01*
X016673Y021027D01*
X016681Y021032D01*
X016687Y021037D01*
X016687Y021037D01*
X016688Y021038D01*
X016690Y021039D01*
X016692Y021042D01*
X016694Y021045D01*
X016697Y021048D01*
X016700Y021052D01*
X016703Y021057D01*
X016706Y021062D01*
X016709Y021068D01*
X016712Y021074D01*
X016714Y021081D01*
X016717Y021088D01*
X016718Y021096D01*
X016719Y021104D01*
X016719Y021112D01*
Y021113D01*
Y021114D01*
Y021117D01*
X016719Y021120D01*
X016719Y021124D01*
X016718Y021129D01*
X016717Y021134D01*
X016715Y021139D01*
X016714Y021146D01*
X016712Y021152D01*
X016709Y021158D01*
X016705Y021164D01*
X016702Y021171D01*
X016697Y021177D01*
X016692Y021183D01*
X016687Y021189D01*
X016686Y021189D01*
X016685Y021190D01*
X016683Y021191D01*
X016680Y021193D01*
X016677Y021195D01*
X016673Y021198D01*
X016668Y021200D01*
X016662Y021203D01*
X016656Y021205D01*
X016648Y021208D01*
X016641Y021211D01*
X016632Y021213D01*
X016622Y021215D01*
X016612Y021216D01*
X016601Y021217D01*
X016589Y021217D01*
D02*
G37*
G36*
X016214Y024714D02*
X015964D01*
Y024657D01*
Y024657D01*
Y024656D01*
Y024654D01*
Y024652D01*
Y024649D01*
Y024646D01*
X015964Y024640D01*
X015965Y024632D01*
X015965Y024624D01*
X015966Y024617D01*
X015967Y024614D01*
X015967Y024611D01*
Y024611D01*
X015968Y024610D01*
X015968Y024608D01*
X015969Y024604D01*
X015971Y024600D01*
X015973Y024595D01*
X015976Y024590D01*
X015980Y024585D01*
X015983Y024580D01*
X015984Y024580D01*
X015985Y024578D01*
X015988Y024576D01*
X015992Y024573D01*
X015997Y024570D01*
X016003Y024567D01*
X016011Y024563D01*
X016020Y024560D01*
X016020D01*
X016021Y024560D01*
X016022Y024559D01*
X016024Y024559D01*
X016027Y024558D01*
X016030Y024558D01*
X016034Y024557D01*
X016038Y024556D01*
X016043Y024556D01*
X016048Y024555D01*
X016053Y024554D01*
X016059Y024554D01*
X016066Y024553D01*
X016073Y024553D01*
X016081Y024552D01*
X016096D01*
X016100Y024553D01*
X016104D01*
X016109Y024553D01*
X016114D01*
X016125Y024554D01*
X016136Y024556D01*
X016147Y024558D01*
X016152Y024559D01*
X016156Y024560D01*
X016157D01*
X016157Y024560D01*
X016159Y024561D01*
X016160Y024561D01*
X016164Y024563D01*
X016170Y024566D01*
X016176Y024569D01*
X016182Y024572D01*
X016187Y024577D01*
X016193Y024582D01*
X016193Y024583D01*
X016195Y024584D01*
X016197Y024588D01*
X016200Y024592D01*
X016203Y024597D01*
X016206Y024603D01*
X016209Y024610D01*
X016211Y024617D01*
Y024618D01*
X016211Y024619D01*
Y024621D01*
X016212Y024622D01*
X016212Y024625D01*
X016212Y024628D01*
X016213Y024631D01*
Y024635D01*
X016213Y024640D01*
X016214Y024645D01*
X016214Y024651D01*
Y024657D01*
X016214Y024664D01*
Y024672D01*
Y024680D01*
Y024714D01*
D02*
G37*
G36*
X016050Y025075D02*
Y024971D01*
X016190Y025024D01*
X016050Y025075D01*
D02*
G37*
G36*
Y023959D02*
Y023855D01*
X016190Y023908D01*
X016050Y023959D01*
D02*
G37*
G36*
Y022873D02*
Y022769D01*
X016190Y022822D01*
X016050Y022873D01*
D02*
G37*
G36*
X016214Y026917D02*
X016118D01*
Y026860D01*
Y026859D01*
Y026858D01*
Y026855D01*
Y026852D01*
Y026847D01*
X016119Y026842D01*
Y026837D01*
Y026831D01*
X016119Y026819D01*
X016120Y026808D01*
X016121Y026803D01*
X016121Y026799D01*
X016122Y026795D01*
X016123Y026792D01*
X016123Y026791D01*
X016123Y026789D01*
X016125Y026787D01*
X016126Y026784D01*
X016128Y026780D01*
X016131Y026777D01*
X016135Y026773D01*
X016139Y026770D01*
X016139Y026770D01*
X016141Y026769D01*
X016143Y026768D01*
X016146Y026766D01*
X016151Y026765D01*
X016155Y026763D01*
X016161Y026763D01*
X016167Y026762D01*
X016171D01*
X016174Y026763D01*
X016178Y026763D01*
X016183Y026765D01*
X016188Y026767D01*
X016193Y026769D01*
X016198Y026772D01*
X016198Y026773D01*
X016200Y026774D01*
X016202Y026777D01*
X016204Y026780D01*
X016207Y026784D01*
X016209Y026789D01*
X016211Y026795D01*
X016213Y026802D01*
Y026802D01*
X016213Y026804D01*
Y026805D01*
Y026807D01*
X016214Y026809D01*
Y026812D01*
Y026815D01*
X016214Y026819D01*
Y026824D01*
Y026829D01*
X016214Y026835D01*
Y026841D01*
Y026849D01*
Y026857D01*
Y026917D01*
D02*
G37*
G36*
Y026124D02*
X016107D01*
Y026082D01*
Y026082D01*
Y026080D01*
Y026078D01*
Y026075D01*
Y026071D01*
X016107Y026067D01*
X016107Y026057D01*
X016108Y026048D01*
X016109Y026038D01*
X016110Y026033D01*
X016110Y026029D01*
X016112Y026025D01*
X016112Y026022D01*
X016113Y026021D01*
X016114Y026019D01*
X016115Y026016D01*
X016117Y026013D01*
X016120Y026009D01*
X016123Y026005D01*
X016127Y026001D01*
X016131Y025998D01*
X016132Y025998D01*
X016134Y025997D01*
X016136Y025995D01*
X016140Y025993D01*
X016144Y025992D01*
X016149Y025990D01*
X016155Y025989D01*
X016161Y025989D01*
X016164D01*
X016168Y025990D01*
X016173Y025991D01*
X016178Y025992D01*
X016184Y025994D01*
X016189Y025997D01*
X016195Y026001D01*
X016195Y026002D01*
X016197Y026003D01*
X016199Y026006D01*
X016202Y026010D01*
X016205Y026014D01*
X016207Y026019D01*
X016210Y026025D01*
X016212Y026032D01*
Y026033D01*
X016212Y026035D01*
X016212Y026036D01*
Y026039D01*
X016213Y026041D01*
X016213Y026044D01*
Y026048D01*
X016214Y026052D01*
Y026056D01*
X016214Y026061D01*
Y026066D01*
X016214Y026073D01*
Y026080D01*
Y026087D01*
Y026124D01*
D02*
G37*
G36*
X016089Y026548D02*
X016086D01*
X016083Y026548D01*
X016078D01*
X016073Y026547D01*
X016067Y026547D01*
X016060Y026546D01*
X016053Y026544D01*
X016045Y026543D01*
X016037Y026541D01*
X016029Y026539D01*
X016021Y026536D01*
X016013Y026532D01*
X016005Y026528D01*
X015998Y026524D01*
X015991Y026519D01*
X015991Y026518D01*
X015990Y026517D01*
X015989Y026516D01*
X015986Y026513D01*
X015984Y026510D01*
X015981Y026507D01*
X015978Y026503D01*
X015975Y026498D01*
X015972Y026493D01*
X015969Y026487D01*
X015966Y026481D01*
X015964Y026474D01*
X015962Y026467D01*
X015960Y026460D01*
X015959Y026451D01*
X015958Y026443D01*
Y026443D01*
Y026441D01*
X015959Y026439D01*
Y026435D01*
X015959Y026432D01*
X015960Y026427D01*
X015961Y026422D01*
X015962Y026417D01*
X015964Y026411D01*
X015966Y026405D01*
X015969Y026399D01*
X015972Y026392D01*
X015976Y026386D01*
X015980Y026380D01*
X015985Y026374D01*
X015991Y026368D01*
X015991Y026368D01*
X015993Y026367D01*
X015994Y026365D01*
X015997Y026364D01*
X016000Y026361D01*
X016005Y026359D01*
X016010Y026356D01*
X016016Y026353D01*
X016022Y026351D01*
X016030Y026348D01*
X016038Y026346D01*
X016046Y026343D01*
X016056Y026342D01*
X016066Y026340D01*
X016078Y026339D01*
X016090Y026339D01*
X016096D01*
X016100Y026339D01*
X016106Y026339D01*
X016112Y026340D01*
X016119Y026341D01*
X016126Y026342D01*
X016134Y026344D01*
X016142Y026346D01*
X016151Y026348D01*
X016158Y026351D01*
X016166Y026354D01*
X016173Y026358D01*
X016181Y026362D01*
X016187Y026367D01*
X016187Y026368D01*
X016188Y026369D01*
X016190Y026370D01*
X016192Y026373D01*
X016194Y026376D01*
X016197Y026379D01*
X016200Y026383D01*
X016203Y026387D01*
X016206Y026393D01*
X016209Y026399D01*
X016212Y026405D01*
X016214Y026412D01*
X016217Y026419D01*
X016218Y026426D01*
X016219Y026435D01*
X016219Y026443D01*
Y026444D01*
Y026445D01*
Y026448D01*
X016219Y026451D01*
X016219Y026455D01*
X016218Y026460D01*
X016217Y026465D01*
X016215Y026470D01*
X016214Y026476D01*
X016212Y026483D01*
X016209Y026489D01*
X016205Y026495D01*
X016202Y026501D01*
X016197Y026508D01*
X016192Y026514D01*
X016187Y026519D01*
X016186Y026520D01*
X016185Y026521D01*
X016183Y026522D01*
X016180Y026524D01*
X016177Y026526D01*
X016173Y026528D01*
X016168Y026531D01*
X016162Y026534D01*
X016156Y026536D01*
X016148Y026539D01*
X016141Y026542D01*
X016132Y026544D01*
X016122Y026546D01*
X016112Y026547D01*
X016101Y026548D01*
X016089Y026548D01*
D02*
G37*
G36*
X016098Y020151D02*
X016075D01*
X016070Y020150D01*
X016057D01*
X016050Y020150D01*
X016034Y020149D01*
X016019Y020148D01*
X016012Y020147D01*
X016005Y020146D01*
X016000Y020145D01*
X015994Y020144D01*
X015994D01*
X015993Y020144D01*
X015992Y020143D01*
X015990Y020143D01*
X015986Y020142D01*
X015981Y020139D01*
X015975Y020137D01*
X015970Y020134D01*
X015965Y020131D01*
X015962Y020127D01*
X015961Y020127D01*
X015960Y020126D01*
X015959Y020123D01*
X015957Y020120D01*
X015956Y020117D01*
X015955Y020113D01*
X015954Y020109D01*
X015953Y020104D01*
Y020103D01*
Y020102D01*
X015954Y020099D01*
X015955Y020096D01*
X015955Y020092D01*
X015957Y020088D01*
X015959Y020085D01*
X015962Y020080D01*
X015962Y020080D01*
X015963Y020079D01*
X015965Y020077D01*
X015968Y020075D01*
X015973Y020072D01*
X015977Y020069D01*
X015984Y020067D01*
X015991Y020064D01*
X015992D01*
X015993Y020064D01*
X015994Y020064D01*
X015997Y020063D01*
X016000Y020063D01*
X016004Y020062D01*
X016008Y020061D01*
X016014Y020060D01*
X016020Y020060D01*
X016027Y020059D01*
X016034Y020058D01*
X016043Y020058D01*
X016053Y020057D01*
X016063Y020057D01*
X016074Y020057D01*
X016102D01*
X016109Y020057D01*
X016115D01*
X016123Y020057D01*
X016138Y020058D01*
X016153Y020060D01*
X016160Y020060D01*
X016166Y020061D01*
X016172Y020062D01*
X016178Y020064D01*
X016178D01*
X016179Y020064D01*
X016180Y020064D01*
X016182Y020065D01*
X016186Y020066D01*
X016191Y020068D01*
X016197Y020071D01*
X016202Y020073D01*
X016207Y020077D01*
X016211Y020080D01*
X016211Y020081D01*
X016212Y020082D01*
X016214Y020085D01*
X016215Y020087D01*
X016217Y020091D01*
X016218Y020095D01*
X016219Y020099D01*
X016219Y020104D01*
Y020104D01*
Y020106D01*
X016219Y020108D01*
X016218Y020112D01*
X016217Y020115D01*
X016216Y020119D01*
X016214Y020123D01*
X016211Y020127D01*
X016210Y020128D01*
X016209Y020129D01*
X016207Y020131D01*
X016204Y020133D01*
X016200Y020135D01*
X016195Y020138D01*
X016188Y020141D01*
X016181Y020143D01*
X016180D01*
X016180Y020144D01*
X016178Y020144D01*
X016176Y020144D01*
X016172Y020145D01*
X016169Y020146D01*
X016164Y020146D01*
X016158Y020147D01*
X016152Y020148D01*
X016145Y020148D01*
X016137Y020149D01*
X016129Y020149D01*
X016120Y020150D01*
X016109Y020150D01*
X016098Y020151D01*
D02*
G37*
%LPD*%
D18*
X013097Y013997D02*
X014897D01*
X013317Y012441D02*
X014687D01*
D19*
X011470Y025230D02*
Y025830D01*
X011770D01*
X011870Y025730D01*
Y025530D01*
X011770Y025430D01*
X011470D01*
X011670D02*
X011870Y025230D01*
X012470Y025830D02*
X012070D01*
Y025530D01*
X012270Y025630D01*
X012370D01*
X012470Y025530D01*
Y025330D01*
X012370Y025230D01*
X012170D01*
X012070Y025330D01*
X011270Y017630D02*
Y018230D01*
X011570D01*
X011670Y018130D01*
Y017930D01*
X011570Y017830D01*
X011270D01*
X011470D02*
X011670Y017630D01*
X012270Y018230D02*
X012070Y018130D01*
X011870Y017930D01*
Y017730D01*
X011970Y017630D01*
X012170D01*
X012270Y017730D01*
Y017830D01*
X012170Y017930D01*
X011870D01*
X015260Y028670D02*
Y029270D01*
X015560D01*
X015660Y029170D01*
Y028970D01*
X015560Y028870D01*
X015260D01*
X015460D02*
X015660Y028670D01*
X016160D02*
Y029270D01*
X015860Y028970D01*
X016260D01*
X011400Y015550D02*
Y016150D01*
X011700D01*
X011800Y016050D01*
Y015850D01*
X011700Y015750D01*
X011400D01*
X011600D02*
X011800Y015550D01*
X012000Y016050D02*
X012100Y016150D01*
X012300D01*
X012400Y016050D01*
Y015950D01*
X012300Y015850D01*
X012200D01*
X012300D01*
X012400Y015750D01*
Y015650D01*
X012300Y015550D01*
X012100D01*
X012000Y015650D01*
X011400Y021370D02*
Y021970D01*
X011700D01*
X011800Y021870D01*
Y021670D01*
X011700Y021570D01*
X011400D01*
X011600D02*
X011800Y021370D01*
X012400D02*
X012000D01*
X012400Y021770D01*
Y021870D01*
X012300Y021970D01*
X012100D01*
X012000Y021870D01*
X011600Y028520D02*
Y029120D01*
X011900D01*
X012000Y029020D01*
Y028820D01*
X011900Y028720D01*
X011600D01*
X011800D02*
X012000Y028520D01*
X012200D02*
X012400D01*
X012300D01*
Y029120D01*
X012200Y029020D01*
X014000Y012120D02*
X013800D01*
X013900D01*
Y011620D01*
X013800Y011520D01*
X013700D01*
X013600Y011620D01*
X014200Y011520D02*
X014400D01*
X014300D01*
Y012120D01*
X014200Y012020D01*
M02*
