G04 Layer_Physical_Order=2*
G04 Layer_Color=16711680*
%FSAX24Y24*%
%MOIN*%
G70*
G01*
G75*
%ADD14C,0.0120*%
%ADD15R,0.2000X0.2000*%
%ADD16C,0.0700*%
%ADD17C,0.0500*%
G36*
X015400Y032575D02*
X016500D01*
Y032500D01*
X016575D01*
Y031400D01*
X017500D01*
Y019116D01*
X017450Y019093D01*
X017351Y019174D01*
X017210Y019249D01*
X017058Y019295D01*
X016900Y019311D01*
X016742Y019295D01*
X016590Y019249D01*
X016449Y019174D01*
X016327Y019073D01*
X016226Y018951D01*
X016151Y018810D01*
X016105Y018658D01*
X016089Y018500D01*
X016105Y018342D01*
X016151Y018190D01*
X016226Y018049D01*
X016327Y017927D01*
X016449Y017826D01*
X016590Y017751D01*
X016742Y017705D01*
X016900Y017689D01*
X017058Y017705D01*
X017210Y017751D01*
X017351Y017826D01*
X017450Y017907D01*
X017500Y017884D01*
Y012600D01*
X016575D01*
Y011500D01*
X016500D01*
Y011425D01*
X015400D01*
Y010750D01*
X012600D01*
Y011425D01*
X011500D01*
Y011500D01*
X011425D01*
Y012600D01*
X010500D01*
Y031400D01*
X011425D01*
Y032500D01*
X011500D01*
Y032575D01*
X012600D01*
Y033500D01*
X015400D01*
Y032575D01*
D02*
G37*
G36*
X017002Y018882D02*
X017098Y018842D01*
X017180Y018780D01*
X017242Y018698D01*
X017282Y018602D01*
X017295Y018500D01*
X017282Y018398D01*
X017242Y018302D01*
X017180Y018220D01*
X017098Y018158D01*
X017002Y018118D01*
X016900Y018105D01*
X016798Y018118D01*
X016702Y018158D01*
X016620Y018220D01*
X016558Y018302D01*
X016518Y018398D01*
X016505Y018500D01*
X016518Y018602D01*
X016558Y018698D01*
X016620Y018780D01*
X016702Y018842D01*
X016798Y018882D01*
X016900Y018895D01*
X017002Y018882D01*
D02*
G37*
%LPC*%
G36*
X014435Y016992D02*
X014291Y016973D01*
X014158Y016917D01*
X014043Y016829D01*
X013968Y016732D01*
X013910Y016726D01*
X013886Y016758D01*
X013792Y016830D01*
X013682Y016875D01*
X013640Y016881D01*
Y016437D01*
X013565D01*
Y016362D01*
X013121D01*
X013126Y016320D01*
X013172Y016210D01*
X013244Y016116D01*
X013338Y016044D01*
X013400Y016018D01*
Y015964D01*
X013288Y015917D01*
X013173Y015829D01*
X013084Y015714D01*
X013029Y015581D01*
X013010Y015437D01*
X013029Y015293D01*
X013084Y015160D01*
X013173Y015045D01*
X013288Y014957D01*
X013421Y014901D01*
X013565Y014882D01*
X013708Y014901D01*
X013842Y014957D01*
X013957Y015045D01*
X014031Y015142D01*
X014090Y015148D01*
X014114Y015116D01*
X014208Y015044D01*
X014318Y014999D01*
X014360Y014993D01*
Y015437D01*
X014435D01*
Y015512D01*
X014879D01*
X014873Y015554D01*
X014828Y015664D01*
X014756Y015758D01*
X014662Y015830D01*
X014600Y015856D01*
Y015910D01*
X014712Y015957D01*
X014827Y016045D01*
X014915Y016160D01*
X014922Y016175D01*
X015901D01*
X015961Y016098D01*
X016055Y016025D01*
X016164Y015980D01*
X016281Y015965D01*
X016399Y015980D01*
X016508Y016025D01*
X016602Y016098D01*
X016675Y016192D01*
X016720Y016301D01*
X016735Y016418D01*
X016720Y016536D01*
X016675Y016645D01*
X016602Y016739D01*
X016508Y016812D01*
X016399Y016857D01*
X016281Y016872D01*
X016164Y016857D01*
X016055Y016812D01*
X015961Y016739D01*
X015930Y016699D01*
X014922D01*
X014915Y016714D01*
X014827Y016829D01*
X014712Y016917D01*
X014579Y016973D01*
X014435Y016992D01*
D02*
G37*
G36*
X013100Y019311D02*
X012942Y019295D01*
X012790Y019249D01*
X012649Y019174D01*
X012527Y019073D01*
X012426Y018951D01*
X012351Y018810D01*
X012305Y018658D01*
X012289Y018500D01*
X012305Y018342D01*
X012351Y018190D01*
X012426Y018049D01*
X012527Y017927D01*
X012649Y017826D01*
X012790Y017751D01*
X012942Y017705D01*
X013100Y017689D01*
X013258Y017705D01*
X013410Y017751D01*
X013551Y017826D01*
X013673Y017927D01*
X013774Y018049D01*
X013849Y018190D01*
X013895Y018342D01*
X013911Y018500D01*
X013895Y018658D01*
X013849Y018810D01*
X013774Y018951D01*
X013673Y019073D01*
X013551Y019174D01*
X013410Y019249D01*
X013258Y019295D01*
X013100Y019311D01*
D02*
G37*
G36*
X014435Y032592D02*
X014291Y032573D01*
X014158Y032517D01*
X014043Y032429D01*
X013968Y032332D01*
X013910Y032326D01*
X013886Y032358D01*
X013792Y032430D01*
X013682Y032475D01*
X013640Y032481D01*
Y032037D01*
X013565D01*
Y031962D01*
X013121D01*
X013126Y031920D01*
X013172Y031810D01*
X013244Y031716D01*
X013338Y031644D01*
X013400Y031618D01*
Y031564D01*
X013288Y031517D01*
X013173Y031429D01*
X013084Y031314D01*
X013029Y031181D01*
X013010Y031037D01*
X013029Y030893D01*
X013084Y030760D01*
X013173Y030645D01*
X013288Y030557D01*
X013421Y030501D01*
X013565Y030482D01*
X013708Y030501D01*
X013842Y030557D01*
X013957Y030645D01*
X014031Y030742D01*
X014090Y030748D01*
X014114Y030716D01*
X014208Y030644D01*
X014318Y030599D01*
X014360Y030593D01*
Y031037D01*
X014435D01*
Y031112D01*
X014879D01*
X014873Y031154D01*
X014828Y031264D01*
X014756Y031358D01*
X014662Y031430D01*
X014600Y031456D01*
Y031510D01*
X014684Y031545D01*
X015838Y030391D01*
Y029312D01*
X011500D01*
X011432Y029303D01*
X011369Y029277D01*
X011315Y029235D01*
X011273Y029181D01*
X011247Y029118D01*
X011238Y029050D01*
Y014116D01*
X011179Y014071D01*
X011107Y013977D01*
X011062Y013867D01*
X011046Y013750D01*
X011062Y013633D01*
X011107Y013523D01*
X011179Y013429D01*
X011273Y013357D01*
X011383Y013312D01*
X011500Y013296D01*
X011617Y013312D01*
X011727Y013357D01*
X011821Y013429D01*
X011893Y013523D01*
X011938Y013633D01*
X011954Y013750D01*
X011938Y013867D01*
X011893Y013977D01*
X011821Y014071D01*
X011762Y014116D01*
Y028788D01*
X013565D01*
X013577Y028739D01*
X013549Y028724D01*
X013427Y028623D01*
X013326Y028501D01*
X013251Y028360D01*
X013205Y028208D01*
X013189Y028050D01*
X013205Y027892D01*
X013251Y027740D01*
X013326Y027599D01*
X013427Y027477D01*
X013549Y027376D01*
X013690Y027301D01*
X013842Y027255D01*
X014000Y027239D01*
X014158Y027255D01*
X014310Y027301D01*
X014451Y027376D01*
X014573Y027477D01*
X014674Y027599D01*
X014749Y027740D01*
X014795Y027892D01*
X014811Y028050D01*
X014795Y028208D01*
X014749Y028360D01*
X014674Y028501D01*
X014573Y028623D01*
X014451Y028724D01*
X014423Y028739D01*
X014435Y028788D01*
X016000D01*
X016000Y028788D01*
X016068Y028797D01*
X016131Y028823D01*
X016185Y028865D01*
X016285Y028965D01*
X016285Y028965D01*
X016327Y029019D01*
X016353Y029082D01*
X016362Y029150D01*
Y030500D01*
X016362Y030500D01*
X016353Y030568D01*
X016327Y030631D01*
X016285Y030685D01*
X016285Y030685D01*
X015617Y031354D01*
X015636Y031400D01*
X016425D01*
Y032425D01*
X015400D01*
Y031636D01*
X015354Y031617D01*
X014983Y031988D01*
X014990Y032037D01*
X014971Y032181D01*
X014915Y032314D01*
X014827Y032429D01*
X014712Y032517D01*
X014579Y032573D01*
X014435Y032592D01*
D02*
G37*
G36*
X013490Y016881D02*
X013447Y016875D01*
X013338Y016830D01*
X013244Y016758D01*
X013172Y016664D01*
X013126Y016554D01*
X013121Y016512D01*
X013490D01*
Y016881D01*
D02*
G37*
G36*
X012600Y012600D02*
X011575D01*
Y011575D01*
X012600D01*
Y012600D01*
D02*
G37*
G36*
X016425D02*
X015400D01*
Y011575D01*
X016425D01*
Y012600D01*
D02*
G37*
G36*
X014879Y015362D02*
X014510D01*
Y014993D01*
X014552Y014999D01*
X014662Y015044D01*
X014756Y015116D01*
X014828Y015210D01*
X014873Y015320D01*
X014879Y015362D01*
D02*
G37*
G36*
X014435Y024792D02*
X014291Y024773D01*
X014158Y024717D01*
X014043Y024629D01*
X013968Y024532D01*
X013910Y024526D01*
X013886Y024558D01*
X013792Y024630D01*
X013682Y024675D01*
X013640Y024681D01*
Y024237D01*
X013565D01*
Y024162D01*
X013121D01*
X013126Y024120D01*
X013172Y024010D01*
X013244Y023916D01*
X013338Y023844D01*
X013400Y023818D01*
Y023764D01*
X013288Y023717D01*
X013173Y023629D01*
X013084Y023514D01*
X013029Y023381D01*
X013010Y023237D01*
X013029Y023093D01*
X013084Y022960D01*
X013173Y022845D01*
X013288Y022757D01*
X013421Y022701D01*
X013565Y022682D01*
X013708Y022701D01*
X013842Y022757D01*
X013957Y022845D01*
X014031Y022942D01*
X014090Y022948D01*
X014114Y022916D01*
X014208Y022844D01*
X014318Y022799D01*
X014360Y022793D01*
Y023237D01*
X014435D01*
Y023312D01*
X014879D01*
X014873Y023354D01*
X014828Y023464D01*
X014756Y023558D01*
X014662Y023630D01*
X014600Y023656D01*
Y023710D01*
X014712Y023757D01*
X014827Y023845D01*
X014915Y023960D01*
X014971Y024093D01*
X014990Y024237D01*
X014971Y024381D01*
X014915Y024514D01*
X014827Y024629D01*
X014712Y024717D01*
X014579Y024773D01*
X014435Y024792D01*
D02*
G37*
G36*
X014879Y030962D02*
X014510D01*
Y030593D01*
X014552Y030599D01*
X014662Y030644D01*
X014756Y030716D01*
X014828Y030810D01*
X014873Y030920D01*
X014879Y030962D01*
D02*
G37*
G36*
X012600Y032425D02*
X011575D01*
Y031400D01*
X012600D01*
Y032425D01*
D02*
G37*
G36*
X013490Y024681D02*
X013447Y024675D01*
X013338Y024630D01*
X013244Y024558D01*
X013172Y024464D01*
X013126Y024354D01*
X013121Y024312D01*
X013490D01*
Y024681D01*
D02*
G37*
G36*
Y032481D02*
X013447Y032475D01*
X013338Y032430D01*
X013244Y032358D01*
X013172Y032264D01*
X013126Y032154D01*
X013121Y032112D01*
X013490D01*
Y032481D01*
D02*
G37*
G36*
X014879Y023162D02*
X014510D01*
Y022793D01*
X014552Y022799D01*
X014662Y022844D01*
X014756Y022916D01*
X014828Y023010D01*
X014873Y023120D01*
X014879Y023162D01*
D02*
G37*
%LPD*%
G36*
X013202Y018882D02*
X013298Y018842D01*
X013380Y018780D01*
X013442Y018698D01*
X013482Y018602D01*
X013495Y018500D01*
X013482Y018398D01*
X013442Y018302D01*
X013380Y018220D01*
X013298Y018158D01*
X013202Y018118D01*
X013100Y018105D01*
X012998Y018118D01*
X012902Y018158D01*
X012820Y018220D01*
X012758Y018302D01*
X012718Y018398D01*
X012705Y018500D01*
X012718Y018602D01*
X012758Y018698D01*
X012820Y018780D01*
X012902Y018842D01*
X012998Y018882D01*
X013100Y018895D01*
X013202Y018882D01*
D02*
G37*
G36*
X014102Y028432D02*
X014198Y028392D01*
X014280Y028330D01*
X014342Y028248D01*
X014382Y028152D01*
X014395Y028050D01*
X014382Y027948D01*
X014342Y027852D01*
X014280Y027770D01*
X014198Y027708D01*
X014102Y027668D01*
X014000Y027655D01*
X013898Y027668D01*
X013802Y027708D01*
X013720Y027770D01*
X013658Y027852D01*
X013618Y027948D01*
X013605Y028050D01*
X013618Y028152D01*
X013658Y028248D01*
X013720Y028330D01*
X013802Y028392D01*
X013898Y028432D01*
X014000Y028445D01*
X014102Y028432D01*
D02*
G37*
D14*
X016000Y029050D02*
X016100Y029150D01*
X014435Y016437D02*
X016263D01*
X016281Y016418D01*
X011500Y029050D02*
X016000D01*
X011500Y013750D02*
Y029050D01*
X014435Y032037D02*
X014563D01*
X016100Y029150D02*
Y030500D01*
X014563Y032037D02*
X016100Y030500D01*
D15*
X011500Y032500D02*
D03*
X016500D02*
D03*
Y011500D02*
D03*
X011500D02*
D03*
D16*
X014435Y024237D02*
D03*
X013565D02*
D03*
X014435Y023237D02*
D03*
X013565D02*
D03*
Y015437D02*
D03*
X014435D02*
D03*
X013565Y016437D02*
D03*
X014435D02*
D03*
Y032037D02*
D03*
X013565D02*
D03*
X014435Y031037D02*
D03*
X013565D02*
D03*
D17*
X011500Y013750D02*
D03*
X016281Y016418D02*
D03*
M02*
