G04 Layer_Color=16711935*
%FSAX24Y24*%
%MOIN*%
G70*
G01*
G75*
%ADD44C,0.0039*%
D44*
X025053Y040094D02*
G03*
X025053Y040094I-000197J000000D01*
G01*
X025033Y022164D02*
G03*
X025033Y022164I-000197J000000D01*
G01*
X034205Y023767D02*
G03*
X034205Y023767I-000197J000000D01*
G01*
X025210Y039740D02*
Y040960D01*
X023990Y039740D02*
Y040960D01*
Y039740D02*
X025210D01*
X023990Y040960D02*
X025210D01*
X028698Y024834D02*
Y025366D01*
X027871Y024834D02*
Y025366D01*
Y024834D02*
X028698D01*
X027871Y025366D02*
X028698D01*
X024481Y018582D02*
Y022518D01*
X028419Y018582D02*
Y022518D01*
X024481D02*
X028419D01*
X024481Y018582D02*
X028419D01*
X025048Y038634D02*
Y039166D01*
X024221Y038634D02*
Y039166D01*
Y038634D02*
X025048D01*
X024221Y039166D02*
X025048D01*
X027667Y041726D02*
X028533D01*
X027667Y041174D02*
X028533D01*
X027667D02*
Y041726D01*
X028533Y041174D02*
Y041726D01*
X027667Y040126D02*
X028533D01*
X027667Y039574D02*
X028533D01*
X027667D02*
Y040126D01*
X028533Y039574D02*
Y040126D01*
X022074Y040117D02*
Y040983D01*
X022626Y040117D02*
Y040983D01*
X022074Y040117D02*
X022626D01*
X022074Y040983D02*
X022626D01*
X016626Y040122D02*
Y040989D01*
X016074Y040122D02*
Y040989D01*
X016626D01*
X016074Y040122D02*
X016626D01*
X018626D02*
Y040989D01*
X018074Y040122D02*
Y040989D01*
X018626D01*
X018074Y040122D02*
X018626D01*
X014626Y040117D02*
Y040983D01*
X014074Y040117D02*
Y040983D01*
X014626D01*
X014074Y040117D02*
X014626D01*
X015131Y027665D02*
X016469D01*
X015131Y028335D02*
X016469D01*
Y027665D02*
Y028335D01*
X015131Y027665D02*
Y028335D01*
X015367Y028874D02*
X016233D01*
X015367Y029426D02*
X016233D01*
Y028874D02*
Y029426D01*
X015367Y028874D02*
Y029426D01*
X016213Y026534D02*
Y027066D01*
X015387Y026534D02*
Y027066D01*
Y026534D02*
X016213D01*
X015387Y027066D02*
X016213D01*
Y025434D02*
Y025966D01*
X015387Y025434D02*
Y025966D01*
Y025434D02*
X016213D01*
X015387Y025966D02*
X016213D01*
X025621Y012134D02*
Y012666D01*
X026448Y012134D02*
Y012666D01*
X025621D02*
X026448D01*
X025621Y012134D02*
X026448D01*
X031113Y012184D02*
Y012716D01*
X030287Y012184D02*
Y012716D01*
Y012184D02*
X031113D01*
X030287Y012716D02*
X031113D01*
X036387Y024884D02*
Y025416D01*
X037213Y024884D02*
Y025416D01*
X036387D02*
X037213D01*
X036387Y024884D02*
X037213D01*
X038726Y019717D02*
Y020583D01*
X038174Y019717D02*
Y020583D01*
X038726D01*
X038174Y019717D02*
X038726D01*
X021134Y019737D02*
Y020563D01*
X021666Y019737D02*
Y020563D01*
X021134Y019737D02*
X021666D01*
X021134Y020563D02*
X021666D01*
X030034Y018179D02*
X030566D01*
X030034Y017352D02*
X030566D01*
Y018179D01*
X030034Y017352D02*
Y018179D01*
X024387Y015084D02*
Y015616D01*
X025213Y015084D02*
Y015616D01*
X024387D02*
X025213D01*
X024387Y015084D02*
X025213D01*
X021234Y022929D02*
X021766D01*
X021234Y022102D02*
X021766D01*
Y022929D01*
X021234Y022102D02*
Y022929D01*
X021676Y018168D02*
Y019035D01*
X021124Y018168D02*
Y019035D01*
X021676D01*
X021124Y018168D02*
X021676D01*
X017648Y015984D02*
Y016516D01*
X016821Y015984D02*
Y016516D01*
Y015984D02*
X017648D01*
X016821Y016516D02*
X017648D01*
X016837Y017616D02*
X017663D01*
X016837Y017084D02*
X017663D01*
X016837D02*
Y017616D01*
X017663Y017084D02*
Y017616D01*
X016817Y018174D02*
X017683D01*
X016817Y018726D02*
X017683D01*
Y018174D02*
Y018726D01*
X016817Y018174D02*
Y018726D01*
X015046Y024353D02*
Y024747D01*
X015754Y024353D02*
Y024747D01*
X015046D02*
X015754D01*
X015046Y024353D02*
X015754D01*
X015067Y023284D02*
X015933D01*
X015067Y023816D02*
X015933D01*
Y023284D02*
Y023816D01*
X015067Y023284D02*
Y023816D01*
X015754Y021303D02*
Y021697D01*
X015046Y021303D02*
Y021697D01*
Y021303D02*
X015754D01*
X015046Y021697D02*
X015754D01*
X015067Y022234D02*
X015933D01*
X015067Y022766D02*
X015933D01*
Y022234D02*
Y022766D01*
X015067Y022234D02*
Y022766D01*
X012624Y018167D02*
Y019033D01*
X013176Y018167D02*
Y019033D01*
X012624Y018167D02*
X013176D01*
X012624Y019033D02*
X013176D01*
X020626Y040117D02*
Y040983D01*
X020074Y040117D02*
Y040983D01*
X020626D01*
X020074Y040117D02*
X020626D01*
X024821Y024834D02*
Y025366D01*
X025648Y024834D02*
Y025366D01*
X024821D02*
X025648D01*
X024821Y024834D02*
X025648D01*
X023352D02*
Y025366D01*
X024179Y024834D02*
Y025366D01*
X023352D02*
X024179D01*
X023352Y024834D02*
X024179D01*
X033654Y017979D02*
Y024121D01*
X036646Y017979D02*
Y024121D01*
X033654D02*
X036646D01*
X033654Y017979D02*
X036646D01*
X016867Y034876D02*
X017733D01*
X016867Y034324D02*
X017733D01*
X016867D02*
Y034876D01*
X017733Y034324D02*
Y034876D01*
X016917Y033026D02*
X017783D01*
X016917Y032474D02*
X017783D01*
X016917D02*
Y033026D01*
X017783Y032474D02*
Y033026D01*
M02*
