%FSDAX24Y24*%
%MOIN*%
%SFA1B1*%

%IPPOS*%
%ADD18C,0.004000*%
%ADD19C,0.010000*%
%LNpeggy-optical-board-1*%
%LPD*%
G36*
X016530Y024574D02*
D01*
X016528Y024573*
X016526*
X016524Y024572*
X016521*
X016517Y024570*
X016509Y024568*
X016500Y024564*
X016491Y024559*
X016482Y024554*
X016478Y024550*
X016475Y024547*
Y024546*
X016474*
X016473Y024544*
X016472Y024543*
X016471Y024541*
X016469Y024538*
X016468Y024535*
X016466Y024532*
X016463Y024524*
X016460Y024514*
X016458Y024503*
X016457Y024491*
Y024490*
Y024489*
Y024487*
X016458Y024485*
Y024481*
Y024478*
X016459Y024470*
X016461Y024461*
X016464Y024451*
X016468Y024442*
X016470Y024438*
X016473Y024435*
Y024434*
X016474*
X016476Y024432*
X016479Y024428*
X016483Y024425*
X016489Y024422*
X016495Y024419*
X016502Y024417*
X016506Y024416*
X016512*
X016514*
X016517Y024417*
X016521Y024418*
X016525Y024419*
X016529Y024421*
X016532Y024424*
X016533*
X016534Y024426*
X016536Y024428*
X016538Y024430*
X016541Y024434*
X016544Y024439*
X016546Y024444*
X016549Y024451*
Y024452*
Y024453*
X016550Y024454*
Y024456*
X016551Y024458*
X016552Y024461*
X016553Y024464*
X016554Y024468*
X016555Y024472*
X016556Y024477*
X016558Y024483*
X016559Y024489*
X016561Y024496*
X016563Y024504*
X016565Y024513*
X016566Y024515*
X016567Y024518*
X016568Y024522*
X016569Y024528*
X016571Y024533*
X016573Y024540*
X016575Y024546*
X016581Y024560*
X016587Y024575*
X016591Y024581*
X016595Y024588*
X016598Y024594*
X016603Y024599*
X016604Y024600*
X016606Y024602*
X016608Y024604*
X016611Y024607*
X016615Y024610*
X016619Y024613*
X016624Y024616*
X016629Y024619*
X016635Y024622*
X016641Y024625*
X016648Y024628*
X016655Y024630*
X016663Y024632*
X016671Y024633*
X016679*
X016682*
X016684*
X016686*
X016689*
X016696Y024631*
X016705Y024629*
X016714Y024627*
X016723Y024622*
X016733Y024617*
X016734Y024616*
X016735Y024615*
X016737Y024614*
X016742Y024610*
X016747Y024605*
X016753Y024598*
X016760Y024590*
X016766Y024581*
X016771Y024570*
Y024569*
X016772Y024567*
X016773Y024565*
X016774Y024561*
X016775Y024558*
X016776Y024554*
X016778Y024549*
X016779Y024544*
X016780Y024538*
X016781Y024532*
X016783Y024526*
Y024518*
X016784Y024511*
X016785Y024495*
Y024494*
Y024492*
Y024488*
X016784Y024484*
Y024478*
X016783Y024471*
X016782Y024463*
X016780Y024455*
X016779Y024447*
X016777Y024438*
X016774Y024429*
X016771Y024420*
X016768Y024412*
X016763Y024403*
X016759Y024395*
X016753Y024388*
X016752Y024387*
X016750Y024385*
X016747Y024383*
X016744Y024380*
X016740Y024377*
X016736Y024374*
X016731Y024370*
X016725Y024367*
X016719Y024363*
X016712Y024360*
X016705Y024357*
X016697Y024354*
X016688Y024352*
X016679Y024351*
X016670Y024350*
X016667Y024426*
X016668Y024427*
X016670*
X016671*
X016674Y024428*
X016677Y024429*
X016683Y024431*
X016689Y024434*
X016696Y024437*
X016703Y024442*
X016708Y024448*
X016709Y024449*
X016710Y024451*
X016712Y024454*
X016715Y024460*
X016717Y024467*
X016719Y024475*
X016721Y024485*
Y024496*
Y024497*
Y024498*
Y024499*
Y024501*
Y024504*
Y024508*
X016720Y024515*
X016718Y024524*
X016716Y024533*
X016712Y024541*
X016708Y024549*
X016707*
X016706Y024550*
X016704Y024552*
X016701Y024554*
X016698Y024557*
X016694Y024558*
X016689Y024560*
X016684*
X016682*
X016679*
X016676Y024559*
X016673Y024558*
X016669Y024556*
X016665Y024553*
X016661Y024549*
X016660Y024548*
X016659Y024546*
X016658Y024544*
X016657Y024542*
X016655Y024539*
X016653Y024535*
X016652Y024531*
X016650Y024526*
X016648Y024520*
X016646Y024514*
X016643Y024506*
X016641Y024498*
X016638Y024489*
X016636Y024479*
Y024478*
X016635Y024477*
Y024474*
X016634Y024470*
X016632Y024465*
X016631Y024460*
X016629Y024454*
X016628Y024448*
X016623Y024435*
X016619Y024421*
X016616Y024415*
X016614Y024408*
X016611Y024402*
X016609Y024397*
Y024396*
X016608*
X016607Y024394*
X016606Y024392*
X016603Y024387*
X016599Y024381*
X016593Y024375*
X016587Y024368*
X016579Y024361*
X016570Y024355*
X016569Y024354*
X016568Y024353*
X016566Y024352*
X016563Y024351*
X016560Y024350*
X016557Y024349*
X016553Y024347*
X016549Y024346*
X016545Y024344*
X016534Y024342*
X016523Y024340*
X016510Y024339*
X016507*
X016505Y024340*
X016502*
X016498*
X016494Y024341*
X016490Y024342*
X016481Y024344*
X016471Y024347*
X016460Y024352*
X016454Y024355*
X016449Y024358*
X016448*
Y024359*
X016446Y024360*
X016444Y024361*
X016442Y024363*
X016439Y024365*
X016433Y024371*
X016426Y024378*
X016419Y024387*
X016412Y024397*
X016407Y024409*
Y024410*
X016406Y024411*
X016405Y024412*
Y024415*
X016403Y024418*
X016402Y024422*
X016401Y024427*
X016400Y024432*
X016398Y024437*
X016397Y024444*
X016396Y024451*
X016395Y024458*
X016394Y024465*
X016393Y024474*
Y024483*
Y024492*
Y024495*
Y024499*
Y024504*
X016394Y024509*
X016395Y024516*
X016396Y024524*
X016397Y024532*
X016399Y024541*
X016401Y024550*
X016404Y024559*
X016407Y024568*
X016411Y024577*
X016415Y024586*
X016420Y024594*
X016426Y024602*
X016427Y024604*
X016430Y024606*
X016432Y024608*
X016436Y024611*
X016440Y024615*
X016445Y024618*
X016450Y024622*
X016457Y024626*
X016464Y024630*
X016472Y024634*
X016481Y024638*
X016490Y024641*
X016500Y024644*
X016511Y024646*
X016523Y024648*
X016530Y024574*
G37*
G36*
X016778Y024700D02*
X016714D01*
Y024904*
X016631*
Y024714*
X016567*
Y024904*
X016464*
Y024693*
X016400*
Y024980*
X016778*
Y024700*
G37*
G36*
X016597Y025240D02*
X016778Y025359D01*
Y025270*
X016665Y025195*
X016778Y025120*
Y025031*
X016597Y025150*
X016400Y025020*
Y025112*
X016528Y025196*
X016400Y025280*
Y025371*
X016597Y025240*
G37*
G36*
X016596Y024144D02*
X016601D01*
X016607Y024143*
X016613Y024142*
X016620*
X016628Y024141*
X016635Y024140*
X016652Y024137*
X016668Y024132*
X016676Y024130*
X016683Y024127*
X016684*
X016685Y024126*
X016686Y024125*
X016688Y024124*
X016691Y024123*
X016694Y024121*
X016701Y024118*
X016709Y024113*
X016718Y024107*
X016726Y024100*
X016735Y024092*
X016736Y024091*
X016737Y024089*
X016739Y024088*
X016741Y024086*
X016743Y024083*
X016748Y024077*
X016754Y024070*
X016760Y024062*
X016765Y024053*
X016769Y024043*
Y024042*
X016770Y024041*
X016771Y024039*
X016772Y024037*
X016773Y024033*
X016774Y024029*
X016776Y024025*
X016777Y024019*
X016778Y024014*
X016780Y024007*
X016781Y024000*
X016782Y023993*
X016784Y023978*
X016785Y023961*
Y023960*
Y023959*
Y023957*
X016784Y023953*
Y023947*
X016783Y023940*
X016782Y023932*
X016780Y023923*
X016778Y023913*
X016775Y023902*
X016772Y023892*
X016768Y023881*
X016762Y023869*
X016757Y023858*
X016750Y023847*
X016742Y023837*
X016733Y023827*
X016732*
X016730Y023825*
X016727Y023823*
X016723Y023820*
X016718Y023816*
X016711Y023811*
X016704Y023807*
X016695Y023802*
X016685Y023797*
X016674Y023793*
X016662Y023788*
X016650Y023785*
X016636Y023781*
X016621Y023779*
X016605Y023777*
X016588*
X016582*
X016580*
X016573Y023778*
X016565Y023779*
X016557*
X016546Y023781*
X016536Y023783*
X016525Y023786*
X016513Y023789*
X016501Y023793*
X016489Y023798*
X016477Y023804*
X016466Y023811*
X016455Y023818*
X016445Y023827*
X016444*
X016443Y023829*
X016440Y023832*
X016436Y023836*
X016433Y023841*
X016428Y023847*
X016424Y023854*
X016419Y023862*
X016414Y023871*
X016409Y023881*
X016405Y023892*
X016401Y023904*
X016398Y023917*
X016395Y023930*
X016393Y023945*
Y023960*
Y023961*
Y023962*
Y023964*
Y023968*
X016394Y023974*
X016395Y023981*
X016396Y023990*
X016397Y023999*
X016400Y024009*
X016402Y024019*
X016406Y024030*
X016410Y024041*
X016415Y024053*
X016421Y024064*
X016427Y024074*
X016435Y024084*
X016444Y024094*
X016445Y024095*
X016447Y024096*
X016450Y024099*
X016454Y024102*
X016459Y024106*
X016466Y024110*
X016473Y024114*
X016482Y024119*
X016491Y024124*
X016502Y024128*
X016513Y024132*
X016526Y024136*
X016539Y024139*
X016554Y024142*
X016570Y024144*
X016586*
X016592*
X016596*
G37*
G36*
X016778Y022968D02*
X016400D01*
Y023044*
X016778*
Y022968*
G37*
G36*
Y023091D02*
X016714D01*
Y023203*
X016400*
Y023279*
X016714*
Y023391*
X016778*
Y023091*
G37*
G36*
Y023595D02*
Y023594D01*
Y023592*
Y023588*
Y023583*
Y023578*
Y023571*
Y023565*
Y023557*
X016777Y023542*
X016776Y023534*
Y023527*
Y023520*
X016775Y023514*
X016774Y023508*
X016773Y023504*
X016772Y023502*
Y023501*
X016771Y023499*
X016770Y023496*
X016769Y023492*
X016765Y023485*
X016760Y023476*
X016753Y023467*
X016749Y023463*
X016745Y023458*
X016741Y023453*
X016735Y023449*
X016734*
X016733Y023447*
X016730Y023446*
X016728Y023444*
X016724Y023442*
X016720Y023440*
X016716Y023438*
X016710Y023436*
X016705Y023434*
X016699Y023432*
X016692Y023431*
X016685Y023429*
X016678Y023428*
X016670*
X016662Y023427*
X016656*
X016653Y023428*
X016649*
X016646*
X016641Y023429*
X016632Y023431*
X016622Y023433*
X016612Y023436*
X016603Y023440*
X016602*
X016601Y023441*
X016599Y023442*
X016595Y023445*
X016589Y023449*
X016584Y023453*
X016578Y023459*
X016571Y023465*
X016566Y023472*
Y023473*
X016565*
X016564Y023476*
X016561Y023479*
X016558Y023485*
X016555Y023490*
X016553Y023497*
X016550Y023504*
X016548Y023512*
Y023513*
Y023515*
X016547Y023517*
Y023519*
X016546Y023523*
Y023527*
Y023532*
X016545Y023537*
X016544Y023543*
Y023550*
Y023557*
X016543Y023565*
Y023573*
Y023582*
Y023591*
Y023641*
X016400*
Y023717*
X016778*
Y023595*
G37*
G36*
X016596Y025759D02*
X016601D01*
X016607*
X016613Y025758*
X016620*
X016628Y025756*
X016635*
X016652Y025752*
X016668Y025748*
X016676Y025745*
X016683Y025743*
X016684*
X016685Y025742*
X016686Y025741*
X016688Y025740*
X016691Y025739*
X016694Y025737*
X016701Y025733*
X016709Y025729*
X016718Y025722*
X016726Y025715*
X016735Y025708*
X016736Y025707*
Y025706*
X016737Y025705*
X016739Y025704*
X016741Y025702*
X016743Y025699*
X016748Y025693*
X016754Y025686*
X016760Y025677*
X016765Y025668*
X016769Y025658*
X016770Y025657*
X016771Y025655*
X016772Y025652*
X016773Y025649*
X016774Y025645*
X016776Y025640*
X016777Y025635*
X016778Y025629*
X016780Y025623*
X016781Y025616*
X016782Y025609*
X016784Y025594*
X016785Y025577*
Y025576*
Y025575*
Y025573*
X016784Y025569*
Y025563*
X016783Y025556*
X016782Y025548*
X016780Y025539*
X016778Y025529*
X016775Y025518*
X016772Y025508*
X016768Y025497*
X016762Y025485*
X016757Y025474*
X016750Y025463*
X016742Y025453*
X016733Y025443*
X016732*
X016730Y025441*
X016727Y025439*
X016723Y025435*
X016718Y025431*
X016711Y025427*
X016704Y025423*
X016695Y025418*
X016685Y025413*
X016674Y025409*
X016662Y025404*
X016650Y025401*
X016636Y025397*
X016621Y025395*
X016605Y025393*
X016588*
X016582*
X016580*
X016573Y025394*
X016565*
X016557Y025395*
X016546Y025397*
X016536Y025399*
X016525Y025402*
X016513Y025405*
X016501Y025409*
X016489Y025414*
X016477Y025419*
X016466Y025426*
X016455Y025434*
X016445Y025443*
X016444*
X016443Y025445*
X016440Y025448*
X016436Y025452*
X016433Y025457*
X016428Y025463*
X016424Y025470*
X016419Y025478*
X016414Y025487*
X016409Y025497*
X016405Y025508*
X016401Y025520*
X016398Y025533*
X016395Y025546*
X016393Y025561*
Y025576*
Y025577*
Y025578*
Y025580*
Y025584*
X016394Y025590*
X016395Y025597*
X016396Y025606*
X016397Y025615*
X016400Y025624*
X016402Y025635*
X016406Y025646*
X016410Y025657*
X016415Y025668*
X016421Y025679*
X016427Y025690*
X016435Y025700*
X016444Y025710*
X016445Y025711*
X016447Y025712*
X016450Y025715*
X016454Y025718*
X016459Y025722*
X016466Y025726*
X016473Y025730*
X016482Y025735*
X016491Y025740*
X016502Y025744*
X016513Y025748*
X016526Y025752*
X016539Y025755*
X016554Y025758*
X016570Y025759*
X016586Y025760*
X016592*
X016596Y025759*
G37*
G36*
X016778Y027462D02*
D01*
Y027460*
Y027457*
Y027453*
Y027448*
Y027442*
Y027435*
X016777Y027429*
X016776Y027414*
X016774Y027400*
X016773Y027393*
X016771Y027386*
X016770Y027380*
X016768Y027374*
Y027373*
X016767Y027372*
X016766Y027370*
X016765Y027367*
X016764Y027365*
X016760Y027358*
X016755Y027351*
X016748Y027344*
X016741Y027337*
X016732Y027330*
X016731*
X016730*
X016729Y027329*
X016727Y027328*
X016725Y027326*
X016722Y027325*
X016718Y027323*
X016714Y027322*
X016706Y027319*
X016696Y027316*
X016685Y027314*
X016672*
X016668*
X016665*
X016662*
X016657Y027315*
X016653Y027316*
X016648Y027317*
X016636Y027320*
X016630Y027322*
X016625Y027324*
X016619Y027327*
X016613Y027330*
X016607Y027334*
X016602Y027339*
X016601*
X016600Y027340*
X016599Y027341*
X016597Y027343*
X016595Y027346*
X016593Y027349*
X016590Y027353*
X016587Y027358*
X016584Y027362*
X016581Y027368*
X016578Y027374*
X016575Y027381*
X016573Y027388*
X016570Y027396*
X016568Y027405*
X016566Y027414*
Y027413*
Y027412*
X016565Y027411*
X016564Y027410*
X016561Y027405*
X016557Y027399*
X016553Y027393*
X016547Y027386*
X016541Y027379*
X016535Y027373*
X016534Y027372*
X016533Y027371*
X016532Y027370*
X016530Y027368*
X016527Y027366*
X016524Y027364*
X016521Y027361*
X016517Y027358*
X016512Y027355*
X016507Y027351*
X016502Y027348*
X016496Y027344*
X016489Y027339*
X016482Y027334*
X016473Y027329*
X016400Y027283*
Y027374*
X016482Y027430*
X016483*
X016484Y027431*
X016487Y027433*
X016489Y027435*
X016493Y027437*
X016497Y027440*
X016506Y027446*
X016515Y027453*
X016524Y027459*
X016528Y027462*
X016532Y027465*
X016535Y027468*
X016538Y027470*
Y027471*
X016540Y027472*
X016541Y027474*
X016544Y027477*
X016547Y027481*
X016549Y027485*
X016552Y027489*
X016553Y027493*
X016554Y027494*
Y027496*
X016555Y027499*
X016556Y027503*
X016557Y027508*
Y027515*
X016558Y027522*
Y027532*
Y027547*
X016400*
Y027623*
X016778*
Y027462*
G37*
G36*
X016596Y028050D02*
X016601D01*
X016607Y028049*
X016613Y028048*
X016620*
X016628Y028047*
X016635Y028046*
X016652Y028043*
X016668Y028039*
X016676Y028036*
X016683Y028033*
X016684*
X016685Y028032*
X016686*
X016688Y028030*
X016691Y028029*
X016694Y028027*
X016701Y028024*
X016709Y028019*
X016718Y028013*
X016726Y028006*
X016735Y027998*
X016736*
Y027997*
X016737Y027995*
X016739Y027994*
X016741Y027992*
X016743Y027989*
X016748Y027983*
X016754Y027976*
X016760Y027968*
X016765Y027959*
X016769Y027949*
Y027948*
X016770Y027947*
X016771Y027945*
X016772Y027943*
X016773Y027939*
X016774Y027935*
X016776Y027931*
X016777Y027925*
X016778Y027920*
X016780Y027913*
X016781Y027906*
X016782Y027900*
X016784Y027884*
X016785Y027867*
Y027866*
Y027865*
Y027863*
X016784Y027859*
Y027853*
X016783Y027846*
X016782Y027838*
X016780Y027829*
X016778Y027819*
X016775Y027809*
X016772Y027798*
X016768Y027787*
X016762Y027775*
X016757Y027764*
X016750Y027754*
X016742Y027743*
X016733Y027733*
X016732*
X016730Y027731*
X016727Y027729*
X016723Y027726*
X016718Y027722*
X016711Y027717*
X016704Y027713*
X016695Y027708*
X016685Y027704*
X016674Y027699*
X016662Y027695*
X016650Y027691*
X016636Y027688*
X016621Y027685*
X016605Y027683*
X016588*
X016582*
X016580*
X016573Y027684*
X016565Y027685*
X016557Y027686*
X016546Y027687*
X016536Y027689*
X016525Y027692*
X016513Y027695*
X016501Y027699*
X016489Y027704*
X016477Y027710*
X016466Y027717*
X016455Y027724*
X016445Y027733*
X016444*
X016443Y027736*
X016440Y027738*
X016436Y027742*
X016433Y027747*
X016428Y027753*
X016424Y027760*
X016419Y027768*
X016414Y027777*
X016409Y027787*
X016405Y027798*
X016401Y027810*
X016398Y027823*
X016395Y027836*
X016393Y027851*
Y027866*
Y027867*
Y027868*
Y027870*
Y027875*
X016394Y027880*
X016395Y027887*
X016396Y027896*
X016397Y027905*
X016400Y027915*
X016402Y027925*
X016406Y027936*
X016410Y027947*
X016415Y027959*
X016421Y027970*
X016427Y027980*
X016435Y027991*
X016444Y028000*
X016445Y028001*
X016447Y028002*
X016450Y028005*
X016454Y028008*
X016459Y028012*
X016466Y028016*
X016473Y028020*
X016482Y028025*
X016491Y028030*
X016502Y028034*
X016513Y028039*
X016526Y028042*
X016539Y028045*
X016554Y028048*
X016570Y028050*
X016586*
X016592*
X016596*
G37*
G36*
X016093Y019638D02*
X016100D01*
X016109Y019637*
X016119Y019636*
X016130Y019635*
X016141Y019633*
X016153Y019631*
X016166Y019629*
X016178Y019626*
X016191Y019622*
X016203Y019618*
X016214Y019613*
X016224Y019606*
X016233Y019600*
X016234Y019599*
X016235Y019598*
X016237Y019596*
X016241Y019593*
X016244Y019589*
X016248Y019584*
X016252Y019579*
X016257Y019573*
X016261Y019566*
X016265Y019558*
X016269Y019550*
X016272Y019541*
X016276Y019532*
X016278Y019522*
X016279Y019511*
X016280Y019500*
Y019499*
Y019498*
Y019496*
X016279Y019492*
Y019489*
X016278Y019485*
Y019480*
X016277Y019475*
X016274Y019463*
X016272Y019458*
X016269Y019451*
X016267Y019446*
X016263Y019440*
X016260Y019434*
X016255Y019429*
Y019428*
X016254Y019427*
X016253Y019426*
X016251Y019424*
X016248Y019422*
X016245Y019419*
X016242Y019416*
X016237Y019413*
X016233Y019410*
X016227Y019407*
X016221Y019404*
X016215Y019401*
X016208Y019399*
X016201Y019396*
X016193Y019394*
X016185Y019392*
X016177Y019463*
X016178*
X016181*
X016185Y019464*
X016189Y019465*
X016194Y019467*
X016199Y019470*
X016205Y019473*
X016209Y019476*
Y019477*
X016210Y019479*
X016212Y019481*
X016214Y019484*
X016216Y019488*
X016218Y019493*
X016219Y019498*
Y019504*
Y019505*
Y019506*
Y019508*
X016218Y019513*
X016217Y019518*
X016214Y019524*
X016211Y019531*
X016208Y019534*
X016205Y019537*
X016202Y019540*
X016198Y019543*
Y019544*
X016196Y019545*
X016194Y019546*
X016192Y019547*
X016189Y019549*
X016185Y019550*
X016180Y019552*
X016175Y019553*
X016169Y019555*
X016162Y019557*
X016153Y019558*
X016145Y019560*
X016135Y019561*
X016124Y019563*
X016112*
X016113*
X016114Y019562*
X016115Y019561*
X016117Y019558*
X016120Y019556*
X016123Y019553*
X016126Y019549*
X016129Y019545*
X016132Y019540*
X016135Y019535*
X016137Y019529*
X016140Y019523*
X016142Y019517*
X016144Y019510*
Y019503*
X016145Y019496*
Y019495*
Y019494*
X016144Y019491*
Y019488*
Y019484*
X016143Y019480*
X016142Y019474*
X016140Y019469*
X016139Y019463*
X016136Y019457*
X016133Y019450*
X016130Y019444*
X016126Y019437*
X016121Y019431*
X016116Y019424*
X016110Y019418*
Y019417*
X016108*
X016106Y019415*
X016104Y019413*
X016100Y019410*
X016096Y019408*
X016091Y019405*
X016086Y019401*
X016080Y019399*
X016073Y019396*
X016066Y019393*
X016058Y019390*
X016049Y019388*
X016041Y019387*
X016031Y019386*
X016021Y019385*
X016018*
X016015Y019386*
X016012*
X016007Y019387*
X016001*
X015994Y019388*
X015987Y019390*
X015980Y019392*
X015973Y019394*
X015965Y019397*
X015957Y019400*
X015950Y019404*
X015942Y019408*
X015935Y019414*
X015928Y019420*
X015927*
X015926Y019422*
X015925Y019423*
X015923Y019426*
X015920Y019429*
X015917Y019433*
X015914Y019438*
X015911Y019444*
X015907Y019449*
X015904Y019456*
X015901Y019463*
X015898Y019471*
X015896Y019479*
X015895Y019488*
X015893Y019497*
Y019507*
Y019508*
Y019510*
Y019513*
X015894Y019517*
Y019522*
X015895Y019527*
X015897Y019533*
X015899Y019540*
X015901Y019548*
X015904Y019556*
X015907Y019563*
X015912Y019571*
X015917Y019579*
X015923Y019587*
X015930Y019595*
X015937Y019602*
X015938*
X015939Y019603*
X015942Y019605*
X015946Y019607*
X015951Y019610*
X015957Y019613*
X015964Y019616*
X015972Y019620*
X015982Y019623*
X015993Y019627*
X016005Y019629*
X016018Y019632*
X016032Y019635*
X016048Y019636*
X016065Y019638*
X016083*
X016090*
X016093*
G37*
G36*
X016778Y026968D02*
X016714D01*
Y027080*
X016400*
Y027156*
X016714*
Y027268*
X016778*
Y026968*
G37*
G36*
Y025975D02*
Y025974D01*
Y025973*
Y025970*
Y025967*
Y025964*
Y025959*
Y025954*
Y025950*
Y025938*
X016777Y025927*
X016776Y025917*
X016775Y025912*
X016774Y025908*
Y025907*
Y025906*
Y025904*
X016773Y025900*
X016771Y025895*
X016769Y025888*
X016766Y025882*
X016763Y025875*
X016759Y025868*
X016758*
X016757Y025866*
X016754Y025862*
X016751Y025858*
X016746Y025854*
X016740Y025849*
X016734Y025844*
X016727Y025839*
X016726*
X016725Y025838*
X016724Y025837*
X016720Y025836*
X016714Y025833*
X016708Y025831*
X016700Y025829*
X016692Y025828*
X016683Y025827*
X016680*
X016678Y025828*
X016676*
X016673*
X016667Y025829*
X016659Y025831*
X016651Y025834*
X016643Y025837*
X016634Y025842*
X016633Y025843*
X016632*
X016630Y025844*
X016627Y025847*
X016622Y025852*
X016616Y025858*
X016611Y025864*
X016605Y025872*
X016601Y025881*
Y025880*
X016600Y025879*
Y025877*
X016599Y025875*
X016598Y025872*
X016596Y025869*
X016593Y025861*
X016588Y025853*
X016582Y025844*
X016575Y025835*
X016566Y025828*
Y025827*
X016565*
X016564Y025826*
X016562Y025825*
X016560Y025823*
X016557Y025822*
X016554Y025820*
X016550Y025818*
X016542Y025815*
X016532Y025812*
X016521Y025810*
X016516Y025809*
X016505*
X016503*
X016500Y025810*
X016493Y025811*
X016486Y025812*
X016477Y025814*
X016468Y025817*
X016459Y025821*
X016458Y025822*
X016457*
X016455Y025823*
X016450Y025826*
X016445Y025830*
X016439Y025834*
X016432Y025840*
X016426Y025847*
X016420Y025854*
Y025855*
X016419Y025856*
X016418Y025858*
X016417Y025860*
X016416Y025862*
X016413Y025868*
X016409Y025875*
X016407Y025884*
X016404Y025894*
X016402Y025905*
Y025906*
Y025907*
Y025909*
Y025912*
Y025915*
Y025919*
X016401Y025924*
Y025929*
Y025936*
Y025943*
X016400Y025952*
Y025961*
Y025972*
Y025984*
Y025997*
Y026126*
X016778*
Y025975*
G37*
G36*
X016596Y026552D02*
X016601D01*
X016607*
X016613Y026551*
X016620*
X016628Y026549*
X016635*
X016652Y026545*
X016668Y026541*
X016676Y026538*
X016683Y026535*
X016684*
X016685*
X016686Y026534*
X016688Y026533*
X016691Y026532*
X016694Y026530*
X016701Y026526*
X016709Y026522*
X016718Y026515*
X016726Y026508*
X016735Y026501*
X016736Y026500*
Y026499*
X016737Y026498*
X016739Y026497*
X016741Y026494*
X016743Y026492*
X016748Y026486*
X016754Y026479*
X016760Y026470*
X016765Y026461*
X016769Y026451*
X016770Y026450*
X016771Y026448*
X016772Y026445*
X016773Y026442*
X016774Y026438*
X016776Y026433*
X016777Y026428*
X016778Y026422*
X016780Y026416*
X016781Y026409*
X016782Y026402*
X016784Y026387*
X016785Y026370*
Y026369*
Y026368*
Y026366*
X016784Y026362*
Y026356*
X016783Y026349*
X016782Y026341*
X016780Y026332*
X016778Y026322*
X016775Y026311*
X016772Y026301*
X016768Y026289*
X016762Y026278*
X016757Y026267*
X016750Y026256*
X016742Y026246*
X016733Y026236*
X016732*
X016730Y026234*
X016727Y026232*
X016723Y026228*
X016718Y026224*
X016711Y026220*
X016704Y026216*
X016695Y026211*
X016685Y026206*
X016674Y026202*
X016662Y026197*
X016650Y026194*
X016636Y026190*
X016621Y026188*
X016605Y026186*
X016588*
X016582*
X016580*
X016573Y026187*
X016565*
X016557Y026188*
X016546Y026190*
X016536Y026192*
X016525Y026195*
X016513Y026198*
X016501Y026202*
X016489Y026207*
X016477Y026212*
X016466Y026219*
X016455Y026227*
X016445Y026236*
X016444*
X016443Y026238*
X016440Y026241*
X016436Y026245*
X016433Y026250*
X016428Y026256*
X016424Y026263*
X016419Y026271*
X016414Y026280*
X016409Y026290*
X016405Y026301*
X016401Y026313*
X016398Y026326*
X016395Y026339*
X016393Y026354*
Y026369*
Y026370*
Y026371*
Y026373*
Y026377*
X016394Y026383*
X016395Y026390*
X016396Y026399*
X016397Y026408*
X016400Y026417*
X016402Y026428*
X016406Y026439*
X016410Y026450*
X016415Y026461*
X016421Y026472*
X016427Y026483*
X016435Y026493*
X016444Y026503*
X016445*
X016447Y026505*
X016450Y026508*
X016454Y026511*
X016459Y026515*
X016466Y026519*
X016473Y026523*
X016482Y026528*
X016491Y026533*
X016502Y026537*
X016513Y026541*
X016526Y026545*
X016539Y026548*
X016554Y026551*
X016570Y026552*
X016586Y026553*
X016592*
X016596Y026552*
G37*
G36*
X016778Y026843D02*
X016630D01*
Y026692*
X016778*
Y026616*
X016400*
Y026692*
X016566*
Y026843*
X016400*
Y026919*
X016778*
Y026843*
G37*
G36*
X016973Y027343D02*
X016900D01*
Y027416*
X016973*
Y027343*
G37*
G36*
X017097Y027725D02*
X017104D01*
X017113Y027724*
X017123Y027723*
X017134Y027722*
X017146Y027721*
X017159Y027719*
X017171Y027716*
X017184Y027713*
X017197Y027710*
X017209Y027706*
X017221Y027701*
X017231Y027695*
X017241Y027688*
X017242Y027687*
X017244Y027685*
X017247Y027683*
X017250Y027679*
X017253Y027676*
X017257Y027671*
X017260Y027666*
X017264Y027660*
X017267Y027654*
X017271Y027647*
X017274Y027639*
X017276Y027631*
X017278Y027622*
X017279Y027613*
X017280Y027603*
Y027602*
Y027600*
X017279Y027597*
Y027594*
X017278Y027589*
Y027584*
X017276Y027578*
X017275Y027571*
X017273Y027565*
X017270Y027558*
X017267Y027550*
X017263Y027543*
X017259Y027536*
X017253Y027529*
X017247Y027523*
X017240Y027517*
Y027516*
X017238Y027515*
X017235Y027513*
X017231Y027511*
X017226Y027508*
X017220Y027505*
X017212Y027501*
X017203Y027498*
X017194Y027495*
X017182Y027491*
X017169Y027488*
X017155Y027485*
X017140Y027483*
X017123Y027481*
X017105Y027480*
X017086*
X017079*
X017076*
X017069*
X017060Y027481*
X017050Y027482*
X017039Y027483*
X017027Y027484*
X017014Y027486*
X017001Y027489*
X016988Y027492*
X016975Y027495*
X016964Y027500*
X016952Y027505*
X016941Y027510*
X016932Y027517*
X016931*
X016930Y027518*
X016928Y027520*
X016925Y027523*
X016923Y027526*
X016919Y027530*
X016916Y027534*
X016912Y027539*
X016909Y027545*
X016905Y027551*
X016902Y027558*
X016899Y027566*
X016897Y027574*
X016895Y027583*
X016893Y027593*
Y027603*
Y027605*
Y027608*
X016894Y027612*
Y027617*
X016895Y027622*
X016897Y027628*
X016898Y027635*
X016900Y027642*
X016903Y027649*
X016907Y027656*
X016911Y027663*
X016916Y027671*
X016921Y027678*
X016928Y027685*
X016935Y027692*
X016936*
X016937Y027693*
X016940Y027695*
X016943Y027697*
X016948Y027699*
X016955Y027702*
X016962Y027705*
X016970Y027708*
X016980Y027712*
X016991Y027715*
X017003Y027717*
X017017Y027720*
X017032Y027722*
X017049Y027724*
X017067Y027725*
X017087*
X017094*
X017097*
G37*
G36*
X017278Y028018D02*
X016998Y027922D01*
X017278Y027829*
Y027748*
X016900Y027883*
Y027965*
X017278Y028100*
Y028018*
G37*
G36*
X017184Y027264D02*
D01*
X017185Y027262*
Y027260*
X017187Y027257*
X017188Y027254*
X017189Y027250*
X017192Y027246*
X017196Y027237*
X017202Y027227*
X017210Y027216*
X017219Y027203*
X017220Y027202*
X017221Y027200*
X017223Y027198*
X017226Y027195*
X017229Y027192*
X017232Y027189*
X017236Y027185*
X017245Y027178*
X017255Y027170*
X017267Y027163*
X017273Y027160*
X017280Y027158*
Y027099*
X016900*
Y027171*
X017173*
X017172Y027172*
X017171Y027173*
X017169Y027175*
X017167Y027178*
X017164Y027182*
X017160Y027187*
X017156Y027192*
X017152Y027198*
X017147Y027205*
X017143Y027212*
X017138Y027219*
X017134Y027228*
X017129Y027236*
X017125Y027246*
X017121Y027255*
X017118Y027265*
X017184*
Y027264*
G37*
G36*
X013513Y014230D02*
X013512Y014228D01*
Y014225*
Y014221*
Y014214*
X013511Y014207*
Y014204*
X013510Y014200*
Y014198*
Y014195*
Y014193*
X013509Y014191*
Y014190*
X013512Y014191*
X013515Y014193*
X013521Y014196*
X013527Y014199*
X013534Y014201*
X013540Y014203*
X013542Y014204*
X013545Y014205*
X013546Y014206*
X013548*
X013549Y014207*
X013557Y014182*
X013549Y014181*
X013542Y014179*
X013535Y014177*
X013528Y014176*
X013525Y014175*
X013523Y014174*
X013521*
X013519Y014173*
X013517*
X013516*
X013515*
X013516Y014171*
X013519Y014169*
X013521Y014167*
X013523Y014164*
X013528Y014159*
X013532Y014154*
X013537Y014149*
X013539Y014146*
X013540Y014144*
X013542Y014143*
X013543Y014141*
Y014140*
X013523Y014126*
X013519Y014131*
X013516Y014137*
X013512Y014143*
X013508Y014149*
X013505Y014154*
X013504Y014156*
X013503Y014159*
X013502Y014160*
X013501Y014161*
Y014162*
X013496Y014154*
X013491Y014147*
X013487Y014141*
X013484Y014135*
X013482Y014133*
X013481Y014131*
X013480Y014130*
X013479Y014128*
X013478Y014127*
Y014126*
X013477*
X013457Y014140*
X013460Y014144*
X013463Y014149*
X013466Y014152*
X013469Y014155*
X013472Y014158*
X013474Y014161*
X013477Y014163*
X013478Y014165*
X013482Y014168*
X013484Y014171*
X013486Y014172*
Y014173*
X013478Y014174*
X013471Y014175*
X013463Y014177*
X013457Y014178*
X013454Y014179*
X013451Y014180*
X013449Y014181*
X013447*
X013445Y014182*
X013444*
X013443*
X013451Y014207*
X013459Y014204*
X013467Y014201*
X013474Y014198*
X013480Y014196*
X013483Y014194*
X013485Y014193*
X013487*
X013489Y014192*
X013490Y014191*
X013491*
X013492Y014190*
X013491Y014199*
X013490Y014208*
X013489Y014211*
Y014215*
Y014218*
Y014221*
X013488Y014224*
Y014226*
Y014228*
Y014230*
Y014231*
Y014232*
Y014233*
X013513*
Y014230*
G37*
G36*
X017184Y026824D02*
Y026823D01*
X017185Y026821*
Y026819*
X017187Y026816*
X017188Y026813*
X017189Y026810*
X017192Y026806*
X017196Y026797*
X017202Y026786*
X017210Y026775*
X017219Y026763*
Y026762*
X017220Y026761*
X017221Y026759*
X017223Y026757*
X017226Y026754*
X017229Y026752*
X017232Y026748*
X017236Y026745*
X017245Y026737*
X017255Y026729*
X017267Y026722*
X017273Y026720*
X017280Y026717*
Y026658*
X016900*
Y026731*
X017173*
X017172*
X017171Y026732*
X017169Y026735*
X017167Y026738*
X017164Y026741*
X017160Y026746*
X017156Y026751*
X017152Y026757*
X017147Y026764*
X017143Y026771*
X017138Y026779*
X017134Y026787*
X017129Y026795*
X017125Y026805*
X017121Y026814*
X017118Y026824*
X017184*
G37*
G36*
X016973Y026902D02*
X016900D01*
Y026975*
X016973*
Y026902*
G37*
G36*
X016778Y019966D02*
D01*
Y019964*
Y019962*
Y019959*
Y019955*
Y019950*
Y019945*
Y019940*
X016777Y019928*
X016775Y019916*
X016774Y019905*
X016772Y019900*
X016771Y019895*
Y019894*
Y019893*
X016770Y019891*
X016769Y019889*
X016768Y019886*
X016767Y019883*
X016763Y019875*
X016758Y019866*
X016752Y019857*
X016745Y019847*
X016736Y019838*
Y019837*
X016735Y019836*
X016734Y019835*
X016732Y019834*
X016729Y019832*
X016726Y019829*
X016723Y019827*
X016719Y019824*
X016715Y019821*
X016710Y019818*
X016700Y019812*
X016688Y019807*
X016675Y019802*
X016674*
X016673Y019801*
X016671Y019800*
X016668*
X016665Y019799*
X016660Y019798*
X016655Y019796*
X016650Y019795*
X016644Y019794*
X016637Y019793*
X016630Y019792*
X016622Y019791*
X016613Y019790*
X016605Y019789*
X016595*
X016578*
X016573*
X016569*
X016564Y019790*
X016558Y019791*
X016545Y019792*
X016532Y019794*
X016518Y019797*
X016505Y019801*
X016503Y019802*
X016501*
X016498Y019803*
X016495Y019805*
X016491Y019807*
X016486Y019809*
X016481Y019811*
X016471Y019817*
X016459Y019824*
X016448Y019832*
X016438Y019841*
Y019842*
X016437*
X016436Y019843*
X016435Y019845*
X016433Y019847*
X016431Y019849*
X016429Y019852*
X016427Y019855*
X016422Y019863*
X016417Y019872*
X016412Y019883*
X016408Y019895*
X016407Y019896*
Y019897*
Y019899*
X016406Y019902*
X016405Y019905*
Y019909*
X016404Y019913*
X016403Y019917*
X016402Y019922*
Y019928*
X016401Y019934*
Y019940*
X016400Y019947*
Y019955*
Y019962*
Y020106*
X016778*
Y019966*
G37*
G36*
X016775Y022053D02*
X016464D01*
Y021864*
X016400*
Y022130*
X016775*
Y022053*
G37*
G36*
X016778Y022405D02*
Y022324D01*
X016400Y022172*
Y022255*
X016486Y022288*
Y022440*
X016400Y022471*
Y022552*
X016778Y022405*
G37*
G36*
X016594Y022908D02*
X016601D01*
X016609Y022907*
X016618Y022906*
X016628Y022905*
X016639Y022902*
X016651Y022900*
X016663Y022897*
X016675Y022893*
X016687Y022888*
X016699Y022883*
X016711Y022876*
X016722Y022869*
X016732Y022860*
X016733*
X016735Y022858*
X016737Y022855*
X016740Y022851*
X016744Y022846*
X016749Y022841*
X016753Y022834*
X016758Y022826*
X016763Y022817*
X016768Y022807*
X016772Y022797*
X016776Y022786*
X016780Y022773*
X016783Y022760*
X016784Y022746*
X016785Y022732*
Y022731*
Y022729*
X016784Y022725*
Y022720*
X016783Y022715*
Y022708*
X016781Y022700*
X016779Y022692*
X016777Y022683*
X016774Y022674*
X016771Y022665*
X016767Y022655*
X016762Y022646*
X016757Y022636*
X016751Y022628*
X016743Y022619*
X016742Y022618*
X016741Y022617*
X016739Y022615*
X016736Y022613*
X016733Y022610*
X016730Y022608*
X016726Y022604*
X016721Y022602*
X016716Y022598*
X016710Y022595*
X016704Y022592*
X016697Y022589*
X016690Y022586*
X016682Y022583*
X016674Y022580*
X016656Y022656*
X016657*
X016659*
X016661Y022657*
X016663Y022658*
X016666Y022659*
X016673Y022662*
X016680Y022665*
X016688Y022670*
X016695Y022677*
X016702Y022684*
X016703*
Y022685*
X016704Y022686*
X016705Y022688*
X016706Y022690*
X016708Y022692*
X016711Y022698*
X016714Y022706*
X016717Y022715*
X016719Y022725*
Y022736*
Y022738*
Y022740*
Y022743*
Y022746*
X016718Y022750*
X016717Y022755*
X016716Y022760*
X016714Y022765*
X016712Y022771*
X016710Y022777*
X016707Y022782*
X016703Y022788*
X016699Y022793*
X016694Y022799*
X016689Y022804*
X016688Y022805*
X016686Y022807*
X016683Y022808*
X016680Y022810*
X016676Y022812*
X016671Y022815*
X016665Y022817*
X016659Y022819*
X016652Y022822*
X016644Y022824*
X016635Y022826*
X016625Y022827*
X016615Y022829*
X016603*
X016591Y022830*
X016584*
X016580Y022829*
X016573*
X016567*
X016559Y022828*
X016551Y022827*
X016534Y022824*
X016526Y022822*
X016518Y022819*
X016509Y022816*
X016502Y022813*
X016495Y022809*
X016489Y022804*
X016488Y022803*
X016486Y022802*
X016484Y022800*
X016482Y022797*
X016480Y022794*
X016477Y022791*
X016474Y022786*
X016471Y022782*
X016468Y022777*
X016466Y022771*
X016464Y022765*
X016461Y022759*
X016460Y022752*
X016459Y022745*
Y022737*
Y022736*
Y022734*
Y022732*
Y022729*
X016460Y022727*
X016461Y022719*
X016464Y022711*
X016467Y022702*
X016472Y022694*
X016475Y022689*
X016478Y022685*
X016479Y022684*
X016480Y022683*
X016482Y022681*
X016484Y022680*
X016486Y022678*
X016489Y022675*
X016493Y022673*
X016497Y022670*
X016501Y022668*
X016506Y022665*
X016512Y022662*
X016518Y022660*
X016524Y022657*
X016532Y022655*
X016539Y022653*
X016516Y022579*
X016515*
X016513Y022580*
X016510Y022581*
X016506Y022582*
X016501Y022584*
X016495Y022586*
X016488Y022589*
X016481Y022592*
X016474Y022596*
X016466Y022600*
X016458Y022605*
X016451Y022610*
X016443Y022616*
X016436Y022622*
X016430Y022629*
X016423Y022636*
X016422Y022638*
X016421Y022640*
X016419Y022643*
X016416Y022647*
X016414Y022652*
X016411Y022657*
X016409Y022663*
X016406Y022670*
X016403Y022678*
X016400Y022686*
X016398Y022695*
X016396Y022704*
X016395Y022715*
X016394Y022725*
X016393Y022736*
Y022737*
Y022740*
X016394Y022744*
Y022749*
X016395Y022755*
X016396Y022763*
X016398Y022771*
X016400Y022780*
X016402Y022790*
X016406Y022800*
X016410Y022810*
X016415Y022820*
X016421Y022831*
X016428Y022841*
X016436Y022851*
X016445Y022860*
Y022861*
X016447Y022862*
X016450Y022865*
X016454Y022868*
X016459Y022871*
X016466Y022875*
X016473Y022880*
X016482Y022884*
X016491Y022889*
X016502Y022893*
X016513Y022898*
X016526Y022901*
X016539Y022904*
X016554Y022907*
X016569Y022908*
X016585Y022909*
X016592*
X016594Y022908*
G37*
G36*
X016778Y021511D02*
D01*
Y021509*
Y021507*
Y021504*
Y021500*
Y021496*
Y021491*
Y021486*
Y021475*
X016777Y021464*
X016776Y021453*
X016775Y021449*
X016774Y021444*
Y021443*
Y021442*
Y021440*
X016773Y021436*
X016771Y021431*
X016769Y021425*
X016766Y021418*
X016763Y021411*
X016759Y021405*
Y021404*
X016758*
X016757Y021402*
X016754Y021399*
X016751Y021394*
X016746Y021390*
X016740Y021385*
X016734Y021380*
X016727Y021376*
X016726Y021375*
X016725Y021374*
X016724*
X016720Y021372*
X016714Y021369*
X016708Y021367*
X016700Y021365*
X016692Y021364*
X016683*
X016680*
X016678*
X016676*
X016673Y021365*
X016667*
X016659Y021367*
X016651Y021370*
X016643Y021373*
X016634Y021378*
X016633Y021379*
X016632Y021380*
X016630Y021381*
X016627Y021384*
X016622Y021388*
X016616Y021394*
X016611Y021401*
X016605Y021408*
X016601Y021417*
X016600Y021415*
Y021414*
X016599Y021411*
X016598Y021408*
X016596Y021405*
X016593Y021397*
X016588Y021389*
X016582Y021380*
X016575Y021372*
X016566Y021364*
X016565Y021363*
X016564Y021362*
X016562Y021361*
X016560Y021360*
X016557Y021358*
X016554Y021356*
X016550Y021355*
X016542Y021351*
X016532Y021348*
X016521Y021346*
X016516Y021345*
X016505*
X016503Y021346*
X016500*
X016493Y021347*
X016486Y021348*
X016477Y021351*
X016468Y021353*
X016459Y021358*
X016458*
X016457Y021359*
X016455Y021360*
X016450Y021362*
X016445Y021366*
X016439Y021371*
X016432Y021376*
X016426Y021383*
X016420Y021390*
Y021391*
X016419Y021392*
X016418Y021394*
X016417Y021396*
X016416Y021399*
X016413Y021404*
X016409Y021412*
X016407Y021421*
X016404Y021431*
X016402Y021442*
Y021444*
Y021446*
Y021448*
Y021451*
Y021456*
X016401Y021460*
Y021466*
Y021472*
Y021480*
X016400Y021488*
Y021498*
Y021508*
Y021520*
Y021533*
Y021662*
X016778*
Y021511*
G37*
G36*
Y020327D02*
Y020326D01*
Y020324*
Y020321*
Y020317*
Y020312*
Y020306*
Y020300*
X016777Y020293*
X016776Y020278*
X016774Y020264*
X016773Y020257*
X016771Y020250*
X016770Y020244*
X016768Y020239*
Y020238*
Y020237*
X016767Y020236*
X016766Y020234*
X016765Y020232*
X016764Y020229*
X016760Y020223*
X016755Y020216*
X016748Y020209*
X016741Y020201*
X016732Y020195*
X016731*
X016730Y020194*
X016729Y020193*
X016727Y020192*
X016725Y020191*
X016722Y020189*
X016718Y020188*
X016714Y020186*
X016706Y020183*
X016696Y020180*
X016685Y020179*
X016672Y020178*
X016668*
X016665*
X016662Y020179*
X016657*
X016653Y020180*
X016648Y020181*
X016636Y020184*
X016630Y020186*
X016625Y020189*
X016619Y020192*
X016613Y020195*
X016607Y020199*
X016602Y020203*
X016601*
X016600Y020204*
X016599Y020205*
X016597Y020208*
X016595Y020210*
X016593Y020214*
X016590Y020217*
X016587Y020222*
X016584Y020227*
X016581Y020232*
X016578Y020238*
X016575Y020245*
X016573Y020253*
X016570Y020260*
X016568Y020269*
X016566Y020278*
Y020277*
X016565Y020276*
X016564Y020274*
X016561Y020269*
X016557Y020264*
X016553Y020257*
X016547Y020250*
X016541Y020243*
X016535Y020237*
X016534Y020236*
X016533Y020235*
X016532Y020234*
X016530Y020233*
X016527Y020230*
X016524Y020228*
X016521Y020226*
X016517Y020223*
X016512Y020219*
X016507Y020216*
X016502Y020212*
X016496Y020208*
X016489Y020203*
X016482Y020199*
X016473Y020194*
X016400Y020147*
Y020239*
X016482Y020294*
X016483*
X016484Y020295*
X016487Y020297*
X016489Y020299*
X016493Y020301*
X016497Y020304*
X016506Y020310*
X016515Y020317*
X016524Y020324*
X016528Y020327*
X016532Y020330*
X016535Y020332*
X016538Y020335*
X016540Y020336*
X016541Y020339*
X016544Y020342*
X016547Y020345*
X016549Y020349*
X016552Y020353*
X016553Y020358*
X016554*
Y020360*
X016555Y020363*
X016556Y020367*
X016557Y020372*
Y020379*
X016558Y020387*
Y020396*
Y020411*
X016400*
Y020488*
X016778*
Y020327*
G37*
G36*
Y020761D02*
Y020679D01*
X016400Y020528*
Y020611*
X016486Y020644*
Y020795*
X016400Y020827*
Y020908*
X016778Y020761*
G37*
G36*
X016596Y021296D02*
X016601D01*
X016607Y021295*
X016613Y021294*
X016620*
X016628Y021293*
X016635Y021292*
X016652Y021289*
X016668Y021285*
X016676Y021282*
X016683Y021279*
X016684*
X016685Y021278*
X016686*
X016688Y021276*
X016691Y021275*
X016694Y021274*
X016701Y021270*
X016709Y021265*
X016718Y021259*
X016726Y021252*
X016735Y021244*
X016736*
Y021243*
X016737Y021242*
X016739Y021240*
X016741Y021238*
X016743Y021235*
X016748Y021229*
X016754Y021222*
X016760Y021214*
X016765Y021205*
X016769Y021195*
Y021194*
X016770Y021193*
X016771Y021191*
X016772Y021189*
X016773Y021185*
X016774Y021181*
X016776Y021177*
X016777Y021171*
X016778Y021166*
X016780Y021160*
X016781Y021153*
X016782Y021146*
X016784Y021130*
X016785Y021113*
Y021112*
Y021111*
Y021110*
X016784Y021105*
Y021099*
X016783Y021092*
X016782Y021084*
X016780Y021075*
X016778Y021065*
X016775Y021055*
X016772Y021044*
X016768Y021033*
X016762Y021021*
X016757Y021010*
X016750Y021000*
X016742Y020989*
X016733Y020980*
X016732Y020979*
X016730Y020977*
X016727Y020975*
X016723Y020972*
X016718Y020968*
X016711Y020964*
X016704Y020959*
X016695Y020954*
X016685Y020950*
X016674Y020945*
X016662Y020941*
X016650Y020937*
X016636Y020934*
X016621Y020931*
X016605Y020930*
X016588Y020929*
X016582*
X016580Y020930*
X016573*
X016565Y020931*
X016557Y020932*
X016546Y020933*
X016536Y020935*
X016525Y020938*
X016513Y020941*
X016501Y020946*
X016489Y020950*
X016477Y020956*
X016466Y020963*
X016455Y020970*
X016445Y020979*
X016444Y020980*
X016443Y020982*
X016440Y020984*
X016436Y020988*
X016433Y020993*
X016428Y020999*
X016424Y021006*
X016419Y021014*
X016414Y021023*
X016409Y021033*
X016405Y021044*
X016401Y021056*
X016398Y021069*
X016395Y021082*
X016393Y021097*
Y021112*
Y021113*
Y021114*
Y021116*
Y021121*
X016394Y021126*
X016395Y021133*
X016396Y021142*
X016397Y021151*
X016400Y021161*
X016402Y021171*
X016406Y021182*
X016410Y021194*
X016415Y021205*
X016421Y021216*
X016427Y021226*
X016435Y021237*
X016444Y021246*
X016445Y021247*
X016447Y021249*
X016450Y021251*
X016454Y021254*
X016459Y021258*
X016466Y021262*
X016473Y021267*
X016482Y021271*
X016491Y021276*
X016502Y021280*
X016513Y021285*
X016526Y021288*
X016539Y021292*
X016554Y021294*
X016570Y021296*
X016586*
X016592*
X016596*
G37*
G36*
X016184Y019912D02*
D01*
X016185Y019910*
Y019908*
X016187Y019905*
X016188Y019902*
X016189Y019898*
X016192Y019894*
X016196Y019885*
X016202Y019875*
X016210Y019864*
X016219Y019851*
X016220Y019850*
X016221Y019848*
X016223Y019846*
X016226Y019843*
X016229Y019840*
X016232Y019837*
X016236Y019833*
X016245Y019825*
X016255Y019818*
X016267Y019811*
X016273Y019808*
X016280Y019806*
Y019747*
X015900*
Y019819*
X016173*
X016172Y019820*
X016171Y019821*
X016169Y019823*
X016166Y019826*
X016164Y019830*
X016160Y019835*
X016156Y019840*
X016152Y019846*
X016147Y019852*
X016143Y019859*
X016138Y019867*
X016134Y019875*
X016129Y019884*
X016125Y019893*
X016121Y019903*
X016118Y019913*
X016184*
Y019912*
G37*
G36*
X016278Y024365D02*
X015998Y024269D01*
X016278Y024176*
Y024095*
X015900Y024230*
Y024312*
X016278Y024447*
Y024365*
G37*
G36*
Y024651D02*
D01*
Y024649*
Y024647*
Y024643*
Y024639*
Y024635*
Y024630*
Y024624*
X016277Y024613*
X016275Y024601*
X016274Y024590*
X016272Y024584*
X016271Y024579*
Y024578*
X016270Y024576*
X016269Y024574*
X016268Y024571*
X016267Y024567*
X016263Y024560*
X016258Y024551*
X016252Y024541*
X016245Y024532*
X016236Y024522*
X016235Y024521*
X016234Y024520*
X016232Y024518*
X016229Y024517*
X016226Y024514*
X016223Y024512*
X016219Y024509*
X016215Y024506*
X016210Y024503*
X016200Y024497*
X016188Y024491*
X016175Y024486*
X016174*
X016173*
X016171Y024485*
X016168Y024484*
X016165Y024483*
X016160Y024482*
X016155Y024481*
X016150Y024480*
X016144Y024479*
X016137Y024478*
X016130Y024476*
X016122*
X016113Y024475*
X016105Y024474*
X016095*
X016078*
X016073*
X016069*
X016064*
X016058Y024475*
X016045Y024476*
X016032Y024478*
X016018Y024481*
X016005Y024485*
X016003Y024486*
X016001Y024487*
X015998Y024488*
X015995Y024490*
X015991Y024491*
X015986Y024493*
X015981Y024496*
X015971Y024501*
X015959Y024508*
X015948Y024517*
X015938Y024526*
X015937Y024527*
X015936Y024528*
X015935Y024530*
X015933Y024532*
X015931Y024534*
X015929Y024537*
X015927Y024540*
X015922Y024548*
X015917Y024557*
X015912Y024567*
X015908Y024579*
Y024580*
X015907Y024581*
Y024582*
Y024584*
X015906Y024586*
X015905Y024590*
Y024593*
X015904Y024597*
X015903Y024602*
X015902Y024607*
Y024613*
X015901Y024619*
Y024625*
X015900Y024632*
Y024639*
Y024647*
Y024790*
X016278*
Y024651*
G37*
G36*
Y025064D02*
Y024982D01*
X015900Y024831*
Y024914*
X015986Y024947*
Y025098*
X015900Y025130*
Y025211*
X016278Y025064*
G37*
G36*
Y023948D02*
Y023866D01*
X015900Y023715*
Y023798*
X015986Y023831*
Y023982*
X015900Y024014*
Y024095*
X016278Y023948*
G37*
G36*
Y022861D02*
Y022780D01*
X015900Y022629*
Y022712*
X015986Y022745*
Y022896*
X015900Y022928*
Y023009*
X016278Y022861*
G37*
G36*
Y023019D02*
X016214D01*
Y023131*
X015900*
Y023207*
X016214*
Y023319*
X016278*
Y023019*
G37*
G36*
Y023600D02*
X016024Y023444D01*
X016278*
Y023374*
X015900*
Y023450*
X016148Y023603*
X015900*
Y023674*
X016278*
Y023600*
G37*
G36*
X016094Y025714D02*
X016101Y025713D01*
X016109*
X016118Y025712*
X016128Y025710*
X016139Y025708*
X016151Y025706*
X016163Y025702*
X016175Y025699*
X016187Y025694*
X016199Y025688*
X016211Y025682*
X016222Y025674*
X016232Y025666*
X016233Y025665*
X016235Y025663*
X016237Y025661*
X016240Y025657*
X016244Y025652*
X016249Y025646*
X016253Y025639*
X016258Y025631*
X016263Y025623*
X016268Y025613*
X016272Y025603*
X016276Y025591*
X016280Y025579*
X016283Y025566*
X016284Y025552*
X016285Y025538*
Y025537*
Y025534*
X016284Y025531*
Y025526*
X016283Y025520*
Y025513*
X016281Y025506*
X016279Y025497*
X016277Y025489*
X016274Y025480*
X016271Y025470*
X016267Y025461*
X016262Y025451*
X016257Y025442*
X016251Y025433*
X016243Y025425*
Y025424*
X016242*
X016241Y025422*
X016239Y025421*
X016236Y025418*
X016233Y025416*
X016230Y025413*
X016226Y025410*
X016221Y025407*
X016216Y025404*
X016210Y025401*
X016204Y025397*
X016197Y025394*
X016190Y025391*
X016182Y025388*
X016174Y025386*
X016156Y025461*
X016157Y025462*
X016159*
X016161*
X016163Y025463*
X016166Y025465*
X016173Y025467*
X016180Y025471*
X016188Y025476*
X016195Y025482*
X016202Y025490*
X016203*
X016204Y025492*
X016205Y025493*
X016206Y025495*
X016207Y025498*
X016211Y025504*
X016214Y025512*
X016217Y025520*
X016219Y025530*
Y025541*
Y025542*
Y025543*
Y025545*
Y025548*
Y025552*
X016218Y025556*
X016217Y025560*
X016216Y025565*
X016214Y025571*
X016212Y025576*
X016210Y025582*
X016207Y025588*
X016203Y025594*
X016199Y025599*
X016194Y025605*
X016189Y025610*
X016188Y025611*
X016186Y025612*
X016183Y025614*
X016180Y025616*
X016176Y025618*
X016171Y025620*
X016165Y025622*
X016159Y025625*
X016152Y025627*
X016144Y025629*
X016135Y025631*
X016125Y025633*
X016115Y025634*
X016103Y025635*
X016091Y025636*
X016084*
X016080Y025635*
X016073*
X016067Y025634*
X016059Y025633*
X016051Y025632*
X016034Y025629*
X016026Y025627*
X016018Y025625*
X016009Y025622*
X016002Y025618*
X015995Y025615*
X015989Y025610*
X015988Y025609*
X015986Y025607*
X015984Y025606*
X015982Y025603*
X015980Y025600*
X015977Y025596*
X015974Y025592*
X015971Y025588*
X015968Y025582*
X015966Y025577*
X015964Y025571*
X015962Y025565*
X015960Y025558*
X015959Y025550*
Y025543*
Y025542*
Y025540*
Y025538*
Y025535*
X015960Y025532*
X015961Y025525*
X015964Y025517*
X015967Y025508*
X015972Y025499*
X015975Y025495*
X015978Y025491*
Y025490*
X015979*
X015980Y025489*
X015982Y025487*
X015984Y025485*
X015986Y025483*
X015989Y025481*
X015993Y025478*
X015997Y025476*
X016001Y025473*
X016006Y025471*
X016012Y025468*
X016018Y025465*
X016024Y025463*
X016032Y025461*
X016039Y025459*
X016016Y025385*
X016015*
X016013*
X016010Y025386*
X016006Y025388*
X016001Y025390*
X015995Y025392*
X015988Y025395*
X015981Y025398*
X015974Y025402*
X015966Y025406*
X015958Y025411*
X015951Y025416*
X015943Y025421*
X015936Y025428*
X015930Y025434*
X015923Y025442*
X015922Y025443*
X015920Y025446*
X015919Y025449*
X015916Y025453*
X015914Y025457*
X015911Y025462*
X015909Y025469*
X015906Y025476*
X015903Y025483*
X015900Y025492*
X015898Y025501*
X015896Y025510*
X015895Y025520*
X015894Y025531*
X015893Y025542*
Y025543*
Y025545*
X015894Y025549*
Y025555*
X015895Y025561*
X015896Y025568*
X015898Y025577*
X015900Y025586*
X015902Y025595*
X015906Y025606*
X015910Y025616*
X015915Y025626*
X015921Y025636*
X015928Y025647*
X015936Y025656*
X015945Y025666*
X015947Y025668*
X015950Y025670*
X015954Y025673*
X015959Y025677*
X015966Y025681*
X015973Y025686*
X015982Y025690*
X015991Y025695*
X016002Y025699*
X016013Y025703*
X016026Y025707*
X016039Y025710*
X016054Y025712*
X016069Y025714*
X016085*
X016092*
X016094*
G37*
G36*
X016278Y027042D02*
X016214D01*
Y027154*
X015900*
Y027230*
X016214*
Y027342*
X016278*
Y027042*
G37*
G36*
Y027623D02*
X016024Y027467D01*
X016278*
Y027396*
X015900*
Y027473*
X016148Y027626*
X015900*
Y027697*
X016278*
Y027623*
G37*
G36*
Y027770D02*
X016214D01*
Y027974*
X016131*
Y027784*
X016067*
Y027974*
X015964*
Y027762*
X015900*
Y028050*
X016278*
Y027770*
G37*
G36*
Y026832D02*
Y026831D01*
Y026829*
Y026827*
Y026822*
Y026818*
Y026812*
Y026805*
X016277Y026799*
X016276Y026784*
X016274Y026770*
X016273Y026763*
X016271Y026756*
X016270Y026749*
X016268Y026744*
Y026743*
X016267Y026742*
X016266Y026740*
X016265Y026737*
X016264Y026735*
X016260Y026728*
X016255Y026721*
X016249Y026714*
X016241Y026707*
X016232Y026700*
X016231*
X016230Y026699*
X016229*
X016227Y026698*
X016225Y026696*
X016222Y026695*
X016218Y026693*
X016214Y026692*
X016206Y026689*
X016196Y026686*
X016185Y026684*
X016172Y026683*
X016168*
X016165Y026684*
X016162*
X016157Y026685*
X016153Y026686*
X016148Y026687*
X016136Y026690*
X016130Y026692*
X016125Y026694*
X016119Y026697*
X016113Y026700*
X016107Y026704*
X016102Y026708*
X016101Y026709*
X016100Y026710*
X016099Y026711*
X016097Y026713*
X016095Y026716*
X016093Y026719*
X016090Y026723*
X016087Y026727*
X016084Y026732*
X016081Y026738*
X016078Y026744*
X016075Y026751*
X016073Y026758*
X016070Y026766*
X016068Y026774*
X016066Y026784*
Y026783*
Y026782*
X016065Y026781*
X016064Y026779*
X016061Y026775*
X016057Y026769*
X016053Y026763*
X016047Y026756*
X016041Y026749*
X016035Y026743*
X016034Y026742*
X016033Y026741*
X016032Y026740*
X016030Y026738*
X016027Y026736*
X016024Y026733*
X016021Y026731*
X016017Y026728*
X016012Y026725*
X016007Y026721*
X016002Y026718*
X015996Y026713*
X015989Y026709*
X015982Y026704*
X015973Y026699*
X015900Y026653*
Y026744*
X015982Y026799*
X015983Y026800*
X015984Y026801*
X015987Y026802*
X015989Y026804*
X015993Y026806*
X015997Y026809*
X016006Y026815*
X016015Y026822*
X016024Y026829*
X016028Y026832*
X016032Y026835*
X016035Y026838*
X016038Y026840*
Y026841*
X016040Y026842*
X016041Y026844*
X016044Y026847*
X016047Y026850*
X016049Y026854*
X016052Y026859*
X016053Y026863*
X016054*
Y026866*
X016055Y026868*
X016056Y026872*
X016057Y026878*
Y026884*
X016058Y026892*
Y026902*
Y026917*
X015900*
Y026993*
X016278*
Y026832*
G37*
G36*
Y025774D02*
X015900D01*
Y025850*
X016278*
Y025774*
G37*
G36*
Y026077D02*
D01*
Y026075*
Y026071*
Y026066*
Y026061*
Y026054*
Y026048*
Y026040*
X016277Y026025*
X016276Y026017*
Y026010*
Y026003*
X016275Y025997*
X016274Y025991*
X016273Y025987*
Y025986*
X016272Y025985*
Y025984*
X016271Y025982*
X016270Y025979*
X016269Y025975*
X016265Y025968*
X016260Y025959*
X016253Y025950*
X016249Y025945*
X016245Y025941*
X016241Y025936*
X016235Y025932*
X016234*
X016233Y025930*
X016230Y025929*
X016228Y025927*
X016224Y025925*
X016220Y025923*
X016216Y025921*
X016210Y025919*
X016205Y025917*
X016199Y025915*
X016192Y025913*
X016185Y025912*
X016178Y025911*
X016170*
X016162Y025910*
X016156*
X016153Y025911*
X016149*
X016146*
X016141Y025912*
X016132Y025913*
X016122Y025916*
X016112Y025919*
X016103Y025923*
X016102*
X016101Y025924*
X016099Y025925*
X016095Y025928*
X016089Y025932*
X016084Y025936*
X016078Y025942*
X016071Y025948*
X016066Y025955*
Y025956*
X016065*
X016064Y025959*
X016061Y025962*
X016058Y025968*
X016055Y025973*
X016053Y025980*
X016050Y025987*
X016048Y025995*
Y025996*
Y025998*
X016047Y026000*
Y026002*
X016046Y026006*
Y026010*
Y026015*
X016045Y026020*
X016044Y026026*
Y026033*
X016043Y026040*
Y026048*
Y026056*
Y026065*
Y026074*
Y026124*
X015900*
Y026200*
X016278*
Y026077*
G37*
G36*
X016096Y026626D02*
X016101D01*
X016107*
X016113Y026625*
X016120*
X016128Y026624*
X016135Y026623*
X016152Y026620*
X016168Y026615*
X016176Y026613*
X016183Y026610*
X016184*
X016185Y026609*
X016186Y026608*
X016188Y026607*
X016191Y026606*
X016194Y026604*
X016201Y026601*
X016209Y026596*
X016218Y026590*
X016226Y026583*
X016235Y026575*
X016236Y026574*
X016237Y026572*
X016239Y026571*
X016241Y026569*
X016243Y026566*
X016248Y026560*
X016254Y026553*
X016260Y026544*
X016265Y026535*
X016269Y026526*
Y026525*
X016270Y026524*
X016271Y026522*
X016272Y026519*
X016273Y026516*
X016274Y026512*
X016276Y026508*
X016277Y026502*
X016278Y026497*
X016280Y026490*
X016281Y026483*
X016282Y026476*
X016284Y026461*
X016285Y026444*
Y026443*
Y026442*
Y026440*
X016284Y026436*
Y026430*
X016283Y026423*
X016282Y026415*
X016280Y026406*
X016278Y026396*
X016275Y026385*
X016272Y026375*
X016268Y026364*
X016262Y026352*
X016257Y026341*
X016250Y026330*
X016242Y026320*
X016233Y026310*
X016232*
X016230Y026308*
X016227Y026306*
X016223Y026303*
X016218Y026298*
X016211Y026294*
X016204Y026290*
X016195Y026285*
X016185Y026280*
X016174Y026276*
X016162Y026271*
X016150Y026268*
X016136Y026264*
X016121Y026262*
X016105Y026260*
X016088*
X016082*
X016080*
X016073Y026261*
X016065Y026262*
X016057*
X016046Y026264*
X016036Y026266*
X016025Y026269*
X016013Y026272*
X016001Y026276*
X015989Y026281*
X015977Y026287*
X015966Y026294*
X015955Y026301*
X015945Y026310*
X015944*
X015943Y026312*
X015940Y026315*
X015936Y026319*
X015933Y026324*
X015928Y026330*
X015924Y026337*
X015919Y026345*
X015914Y026354*
X015909Y026364*
X015905Y026375*
X015901Y026387*
X015898Y026400*
X015895Y026413*
X015893Y026428*
Y026443*
Y026444*
Y026445*
Y026447*
Y026451*
X015894Y026457*
X015895Y026464*
X015896Y026473*
X015897Y026482*
X015900Y026492*
X015902Y026502*
X015906Y026513*
X015910Y026524*
X015915Y026535*
X015920Y026547*
X015927Y026557*
X015935Y026567*
X015944Y026577*
X015945Y026578*
X015947Y026579*
X015950Y026582*
X015954Y026585*
X015959Y026589*
X015966Y026593*
X015973Y026597*
X015982Y026602*
X015991Y026607*
X016002Y026611*
X016013Y026615*
X016026Y026619*
X016039Y026622*
X016054Y026625*
X016070Y026626*
X016086Y026627*
X016092*
X016096Y026626*
G37*
G36*
X016094Y021046D02*
X016101Y021045D01*
X016109Y021044*
X016118*
X016128Y021042*
X016139Y021040*
X016151Y021037*
X016163Y021034*
X016175Y021030*
X016187Y021025*
X016199Y021020*
X016211Y021014*
X016222Y021006*
X016232Y020998*
X016233Y020997*
X016235Y020995*
X016237Y020993*
X016240Y020989*
X016244Y020984*
X016249Y020978*
X016253Y020971*
X016258Y020963*
X016263Y020955*
X016268Y020945*
X016272Y020934*
X016276Y020923*
X016280Y020911*
X016283Y020898*
X016284Y020884*
X016285Y020869*
Y020868*
Y020866*
X016284Y020863*
Y020858*
X016283Y020852*
Y020845*
X016281Y020837*
X016279Y020829*
X016277Y020820*
X016274Y020811*
X016271Y020802*
X016267Y020793*
X016262Y020783*
X016257Y020774*
X016251Y020765*
X016243Y020757*
Y020756*
X016242Y020755*
X016241Y020754*
X016239Y020752*
X016236Y020750*
X016233Y020747*
X016230Y020745*
X016226Y020742*
X016221Y020739*
X016216Y020736*
X016210Y020732*
X016204Y020729*
X016197Y020726*
X016190Y020723*
X016182Y020720*
X016174Y020718*
X016156Y020793*
X016157*
X016159Y020794*
X016161*
X016163Y020795*
X016166Y020796*
X016173Y020799*
X016180Y020803*
X016188Y020808*
X016195Y020814*
X016202Y020821*
X016203Y020822*
X016204Y020823*
X016205Y020825*
X016206Y020827*
X016207Y020829*
X016211Y020836*
X016214Y020843*
X016217Y020852*
X016219Y020862*
Y020873*
Y020875*
Y020877*
Y020880*
Y020884*
X016218Y020888*
X016217Y020892*
X016216Y020897*
X016214Y020902*
X016212Y020908*
X016210Y020914*
X016207Y020920*
X016203Y020925*
X016199Y020931*
X016194Y020937*
X016189Y020941*
Y020942*
X016188Y020943*
X016186Y020944*
X016183Y020946*
X016180Y020948*
X016176Y020950*
X016171Y020952*
X016165Y020954*
X016159Y020957*
X016152Y020959*
X016144Y020961*
X016135Y020963*
X016125Y020965*
X016115Y020966*
X016103Y020967*
X016091*
X016084*
X016080*
X016073Y020966*
X016067*
X016059Y020965*
X016051Y020964*
X016034Y020961*
X016026Y020959*
X016018Y020957*
X016009Y020954*
X016002Y020950*
X015995Y020946*
X015989Y020942*
Y020941*
X015988*
X015986Y020939*
X015984Y020937*
X015982Y020934*
X015980Y020932*
X015977Y020928*
X015974Y020924*
X015971Y020919*
X015968Y020914*
X015966Y020909*
X015964Y020902*
X015962Y020896*
X015960Y020889*
X015959Y020882*
Y020875*
Y020874*
Y020873*
Y020872*
Y020870*
Y020867*
X015960Y020864*
X015961Y020857*
X015964Y020848*
X015967Y020840*
X015972Y020831*
X015975Y020827*
X015978Y020823*
Y020822*
X015979*
X015980Y020820*
X015982Y020819*
X015984Y020817*
X015986Y020815*
X015989Y020813*
X015993Y020810*
X015997Y020808*
X016001Y020805*
X016006Y020802*
X016012Y020800*
X016018Y020797*
X016024Y020795*
X016032Y020793*
X016039Y020791*
X016016Y020716*
X016015*
X016013Y020717*
X016010Y020718*
X016006Y020720*
X016001Y020722*
X015995Y020724*
X015988Y020727*
X015981Y020730*
X015974Y020734*
X015966Y020738*
X015958Y020743*
X015951Y020747*
X015943Y020753*
X015936Y020759*
X015930Y020766*
X015923Y020773*
Y020774*
X015922Y020775*
X015920Y020777*
X015919Y020780*
X015916Y020784*
X015914Y020789*
X015911Y020794*
X015909Y020801*
X015906Y020807*
X015903Y020815*
X015900Y020823*
X015898Y020832*
X015896Y020842*
X015895Y020852*
X015894Y020863*
X015893Y020874*
Y020875*
Y020877*
X015894Y020881*
Y020886*
X015895Y020893*
X015896Y020900*
X015898Y020909*
X015900Y020918*
X015902Y020927*
X015906Y020937*
X015910Y020948*
X015915Y020958*
X015921Y020968*
X015928Y020978*
X015936Y020988*
X015945Y020998*
X015947Y021000*
X015950Y021002*
X015954Y021005*
X015959Y021009*
X015966Y021013*
X015973Y021017*
X015982Y021022*
X015991Y021026*
X016002Y021031*
X016013Y021035*
X016026Y021039*
X016039Y021041*
X016054Y021044*
X016069Y021046*
X016085*
X016092*
X016094*
G37*
G36*
X016278Y021897D02*
X016214D01*
Y022101*
X016131*
Y021911*
X016067*
Y022101*
X015964*
Y021889*
X015900*
Y022177*
X016278*
Y021897*
G37*
G36*
X016275Y021599D02*
X015964D01*
Y021410*
X015900*
Y021676*
X016275*
Y021599*
G37*
G36*
X015902Y020529D02*
X015904D01*
X015907*
X015910Y020528*
X015914Y020527*
X015918Y020526*
X015923Y020525*
X015934Y020522*
X015947Y020517*
X015959Y020512*
X015972Y020505*
X015973Y020504*
X015974*
X015976Y020502*
X015978Y020501*
X015982Y020498*
X015986Y020495*
X015991Y020491*
X015996Y020487*
X016003Y020482*
X016009Y020476*
X016017Y020469*
X016025Y020462*
X016033Y020454*
X016043Y020444*
X016053Y020434*
X016063Y020423*
X016065Y020421*
X016067Y020419*
X016070Y020415*
X016074Y020411*
X016078Y020407*
X016083Y020402*
X016088Y020397*
X016098Y020387*
X016108Y020377*
X016113Y020373*
X016117Y020369*
X016121Y020365*
X016125Y020363*
X016126Y020362*
X016127*
X016128Y020360*
X016133Y020358*
X016139Y020355*
X016145Y020353*
X016153Y020350*
X016161Y020349*
X016169Y020348*
X016173*
X016177Y020349*
X016183*
X016189Y020351*
X016195Y020353*
X016201Y020356*
X016206Y020361*
X016207*
X016208Y020363*
X016210Y020366*
X016213Y020370*
X016215Y020376*
X016217Y020382*
X016219Y020389*
Y020397*
Y020398*
Y020399*
Y020401*
Y020405*
X016218Y020410*
X016216Y020416*
X016214Y020422*
X016210Y020428*
X016205Y020433*
Y020434*
X016203Y020435*
X016200Y020438*
X016195Y020440*
X016189Y020443*
X016181Y020445*
X016171Y020447*
X016166Y020448*
X016160Y020449*
X016167Y020521*
X016168*
X016170Y020520*
X016173*
X016177Y020519*
X016182Y020518*
X016188Y020517*
X016194Y020515*
X016201Y020513*
X016207Y020511*
X016214Y020508*
X016222Y020505*
X016229Y020501*
X016236Y020497*
X016242Y020492*
X016248Y020487*
X016253Y020481*
X016254Y020480*
X016255Y020479*
X016256Y020477*
X016258Y020474*
X016260Y020471*
X016262Y020467*
X016264Y020463*
X016267Y020457*
X016269Y020451*
X016271Y020445*
X016274Y020438*
X016276Y020430*
X016277Y020422*
X016278Y020414*
X016279Y020405*
X016280Y020395*
Y020394*
Y020393*
Y020390*
X016279Y020386*
Y020381*
X016278Y020376*
X016277Y020370*
X016276Y020363*
X016274Y020356*
X016272Y020349*
X016270Y020342*
X016267Y020335*
X016263Y020328*
X016259Y020321*
X016255Y020314*
X016249Y020308*
Y020307*
X016248Y020306*
X016246Y020305*
X016244Y020303*
X016241Y020300*
X016237Y020297*
X016233Y020294*
X016228Y020291*
X016223Y020288*
X016218Y020285*
X016212Y020283*
X016205Y020280*
X016198Y020278*
X016190Y020276*
X016182*
X016174Y020275*
X016170*
X016168Y020276*
X016165*
X016159*
X016151Y020278*
X016143Y020279*
X016134Y020281*
X016126Y020285*
X016125*
X016123*
X016121Y020286*
X016119Y020287*
X016117Y020289*
X016111Y020292*
X016104Y020296*
X016096Y020301*
X016087Y020307*
X016077Y020314*
X016076Y020315*
X016074Y020316*
X016070Y020320*
X016065Y020324*
X016062Y020328*
X016058Y020331*
X016054Y020335*
X016050Y020339*
X016045Y020344*
X016040Y020349*
X016034Y020355*
X016029Y020361*
X016028Y020362*
Y020363*
X016026Y020365*
X016024Y020367*
X016021Y020369*
X016018Y020373*
X016012Y020380*
X016005Y020387*
X015998Y020394*
X015995Y020397*
X015992Y020400*
X015989Y020403*
X015987Y020405*
X015985Y020406*
X015983Y020408*
X015981Y020410*
X015977Y020412*
X015974Y020415*
X015967Y020419*
Y020275*
X015900*
Y020529*
X015902*
G37*
G36*
X016275Y021277D02*
X015964D01*
Y021087*
X015900*
Y021353*
X016275*
Y021277*
G37*
G36*
X016100Y022601D02*
X016105D01*
X016111Y022600*
X016118Y022599*
X016125Y022598*
X016133Y022597*
X016141Y022595*
X016150Y022593*
X016159Y022591*
X016168Y022588*
X016177Y022585*
X016186Y022581*
X016195Y022577*
Y022576*
X016197*
X016199Y022574*
X016203Y022572*
X016206Y022570*
X016211Y022567*
X016216Y022563*
X016221Y022558*
X016227Y022554*
X016233Y022548*
X016238Y022542*
X016244Y022536*
X016250Y022529*
X016255Y022521*
X016261Y022513*
X016266Y022504*
X016267Y022503*
Y022501*
X016269Y022498*
X016270Y022494*
X016272Y022490*
X016274Y022485*
X016275Y022479*
X016277Y022473*
X016278Y022466*
X016280Y022459*
X016282Y022451*
X016283Y022442*
X016284Y022433*
X016285Y022424*
Y022414*
Y022413*
Y022410*
Y022407*
X016284Y022402*
Y022396*
X016283Y022389*
X016282Y022382*
X016281Y022374*
X016279Y022365*
X016277Y022356*
X016275Y022347*
X016272Y022337*
X016269Y022328*
X016265Y022320*
X016260Y022312*
X016255Y022304*
Y022303*
X016254Y022302*
X016252Y022300*
X016250Y022297*
X016246Y022294*
X016243Y022291*
X016239Y022287*
X016234Y022283*
X016228Y022278*
X016222Y022274*
X016215Y022269*
X016208Y022265*
X016201Y022262*
X016192Y022258*
X016183Y022255*
X016173Y022253*
X016159Y022328*
X016160*
Y022329*
X016162*
X016164Y022330*
X016166Y022331*
X016169Y022332*
X016175Y022335*
X016182Y022340*
X016189Y022345*
X016196Y022351*
X016203Y022359*
X016204Y022360*
X016205Y022361*
Y022363*
X016207Y022365*
X016208Y022367*
X016210Y022371*
X016211Y022374*
X016214Y022382*
X016217Y022391*
X016219Y022402*
Y022414*
Y022416*
Y022419*
Y022422*
Y022426*
X016218Y022431*
X016217Y022437*
X016215Y022442*
X016214Y022449*
X016212Y022455*
X016209Y022462*
X016206Y022468*
X016202Y022475*
X016198Y022481*
X016193Y022488*
X016187Y022493*
Y022494*
X016186*
X016184Y022496*
X016181Y022498*
X016178Y022500*
X016174Y022503*
X016169Y022505*
X016164Y022508*
X016157Y022511*
X016151Y022513*
X016143Y022516*
X016134Y022518*
X016125Y022520*
X016115Y022522*
X016105*
X016093Y022523*
X016090*
X016087Y022522*
X016082*
X016076*
X016070Y022521*
X016063Y022520*
X016055Y022519*
X016047Y022517*
X016039Y022515*
X016030Y022513*
X016022Y022510*
X016014Y022507*
X016006Y022503*
X015998Y022498*
X015992Y022493*
X015991Y022492*
X015989Y022490*
X015987Y022488*
X015984Y022484*
X015981Y022481*
X015978Y022476*
X015975Y022472*
X015972Y022467*
X015969Y022460*
X015966Y022454*
X015964Y022447*
X015962Y022440*
X015960Y022432*
X015959Y022424*
X015958Y022415*
Y022414*
Y022413*
Y022412*
Y022410*
X015959Y022408*
Y022406*
Y022399*
X015961Y022392*
X015962Y022384*
X015964Y022376*
X015968Y022367*
Y022366*
Y022365*
Y022364*
X015969Y022362*
X015971Y022358*
X015974Y022352*
X015977Y022346*
X015981Y022339*
X015985Y022332*
X015990Y022325*
X016039*
Y022412*
X016103*
Y022248*
X015951*
X015950Y022249*
X015949Y022250*
X015948Y022252*
X015946Y022255*
X015943Y022258*
X015941Y022261*
X015938Y022265*
X015934Y022270*
X015931Y022275*
X015928Y022281*
X015925Y022287*
X015921Y022294*
X015918Y022301*
X015914Y022309*
X015911Y022317*
Y022318*
X015910Y022319*
X015909Y022322*
X015908Y022325*
X015907Y022329*
X015905Y022334*
X015904Y022340*
X015902Y022346*
X015900Y022353*
X015899Y022360*
X015897Y022367*
X015896Y022376*
X015894Y022392*
X015893Y022401*
Y022410*
Y022412*
Y022415*
Y022419*
X015894Y022425*
Y022431*
X015895Y022438*
X015896Y022445*
X015898Y022453*
X015899Y022461*
X015901Y022469*
X015903Y022479*
X015906Y022488*
X015909Y022496*
X015913Y022505*
X015918Y022513*
Y022514*
X015919Y022515*
X015920Y022517*
X015922Y022521*
X015925Y022524*
X015928Y022529*
X015932Y022533*
X015936Y022538*
X015941Y022543*
X015946Y022549*
X015952Y022554*
X015958Y022560*
X015965Y022565*
X015973Y022570*
X015980Y022575*
X015989Y022579*
Y022580*
X015991*
X015993Y022581*
X015997Y022583*
X016001Y022584*
X016007Y022586*
X016012Y022588*
X016019Y022590*
X016026Y022592*
X016034Y022595*
X016042Y022596*
X016051Y022598*
X016060Y022599*
X016070Y022601*
X016080*
X016090Y022602*
X016096*
X016100Y022601*
G37*
G36*
X016097Y020226D02*
X016104D01*
X016113Y020225*
X016123Y020224*
X016134Y020223*
X016146Y020222*
X016159Y020220*
X016171Y020217*
X016184Y020214*
X016197Y020211*
X016209Y020207*
X016221Y020202*
X016231Y020196*
X016241Y020189*
X016242Y020188*
X016244Y020186*
X016247Y020184*
X016250Y020180*
X016253Y020177*
X016257Y020172*
X016260Y020167*
X016264Y020162*
X016267Y020155*
X016271Y020148*
X016274Y020140*
X016276Y020132*
X016278Y020123*
X016279Y020114*
X016280Y020104*
Y020103*
Y020101*
X016279Y020098*
Y020095*
X016278Y020090*
Y020085*
X016276Y020079*
X016275Y020072*
X016273Y020066*
X016270Y020059*
X016267Y020051*
X016263Y020044*
X016259Y020037*
X016253Y020030*
X016247Y020024*
X016240Y020018*
Y020017*
X016238Y020016*
X016235Y020014*
X016231Y020012*
X016226Y020009*
X016220Y020006*
X016212Y020003*
X016203Y019999*
X016194Y019996*
X016182Y019992*
X016169Y019989*
X016155Y019987*
X016140Y019984*
X016123Y019982*
X016105Y019981*
X016086*
X016079*
X016076*
X016069*
X016060Y019982*
X016050Y019983*
X016039Y019984*
X016027Y019985*
X016014Y019987*
X016001Y019990*
X015988Y019993*
X015975Y019996*
X015964Y020001*
X015952Y020006*
X015941Y020012*
X015932Y020018*
X015931Y020019*
X015930*
X015928Y020021*
X015925Y020024*
X015923Y020027*
X015919Y020031*
X015916Y020035*
X015912Y020040*
X015909Y020046*
X015905Y020053*
X015902Y020060*
X015899Y020067*
X015897Y020076*
X015895Y020085*
X015893Y020094*
Y020104*
Y020105*
Y020106*
Y020109*
X015894Y020113*
Y020118*
X015895Y020123*
X015897Y020129*
X015898Y020136*
X015900Y020143*
X015903Y020150*
X015907Y020157*
X015911Y020164*
X015916Y020172*
X015921Y020179*
X015928Y020186*
X015935Y020193*
X015936*
X015937Y020194*
X015940Y020196*
X015943Y020198*
X015948Y020201*
X015955Y020203*
X015962Y020206*
X015970Y020210*
X015980Y020213*
X015991Y020216*
X016003Y020219*
X016017Y020221*
X016032Y020223*
X016049Y020225*
X016067Y020226*
X016087*
X016094*
X016097*
G37*
%LNpeggy-optical-board-2*%
%LPC*%
G36*
X016589Y024065D02*
X016586D01*
X016583*
X016578*
X016573Y024064*
X016567*
X016560Y024063*
X016553Y024062*
X016545Y024060*
X016537Y024058*
X016529Y024056*
X016521Y024053*
X016513Y024049*
X016505Y024046*
X016498Y024041*
X016491Y024036*
Y024035*
X016490Y024034*
X016489Y024033*
X016486Y024030*
X016484Y024027*
X016481Y024024*
X016478Y024020*
X016475Y024015*
X016472Y024010*
X016469Y024004*
X016466Y023998*
X016464Y023991*
X016461Y023984*
X016460Y023977*
X016459Y023968*
X016458Y023960*
Y023958*
X016459Y023956*
Y023952*
Y023949*
X016460Y023944*
X016461Y023939*
X016462Y023934*
X016464Y023928*
X016466Y023922*
X016469Y023916*
X016472Y023909*
X016476Y023903*
X016480Y023897*
X016485Y023891*
X016491Y023885*
X016493Y023884*
X016494Y023882*
X016497Y023881*
X016500Y023878*
X016505Y023876*
X016510Y023873*
X016516Y023870*
X016522Y023868*
X016530Y023865*
X016538Y023863*
X016546Y023860*
X016556Y023859*
X016566Y023857*
X016578Y023856*
X016590*
X016596*
X016600*
X016606Y023857*
X016612*
X016619Y023858*
X016626Y023859*
X016634Y023861*
X016642Y023863*
X016651Y023865*
X016658Y023868*
X016666Y023871*
X016673Y023875*
X016681Y023879*
X016687Y023884*
Y023885*
X016688Y023886*
X016690Y023887*
X016692Y023890*
X016694Y023893*
X016697Y023896*
X016700Y023900*
X016703Y023904*
X016706Y023910*
X016709Y023916*
X016712Y023922*
X016714Y023929*
X016717Y023936*
X016718Y023943*
X016719Y023952*
Y023960*
Y023961*
Y023962*
Y023965*
Y023968*
Y023972*
X016718Y023977*
X016717Y023982*
X016715Y023987*
X016714Y023993*
X016712Y024000*
X016709Y024006*
X016705Y024012*
X016702Y024018*
X016697Y024025*
X016692Y024031*
X016687Y024037*
X016686*
X016685Y024038*
X016683Y024039*
X016680Y024041*
X016677Y024043*
X016673Y024046*
X016668Y024048*
X016662Y024051*
X016656Y024053*
X016648Y024056*
X016641Y024059*
X016632Y024061*
X016622Y024063*
X016612Y024064*
X016601Y024065*
X016589*
G37*
G36*
X016714Y023641D02*
X016607D01*
Y023599*
Y023597*
Y023595*
Y023592*
Y023588*
Y023584*
Y023574*
X016608Y023565*
X016609Y023555*
X016610Y023550*
Y023546*
X016612Y023542*
Y023539*
X016613Y023538*
X016614Y023536*
X016615Y023533*
X016617Y023530*
X016620Y023526*
X016623Y023522*
X016627Y023518*
X016631Y023515*
X016632*
X016634Y023514*
X016636Y023512*
X016640Y023510*
X016644Y023509*
X016649Y023507*
X016655Y023506*
X016661*
X016664*
X016668Y023507*
X016673Y023508*
X016678Y023509*
X016684Y023511*
X016689Y023514*
X016695Y023518*
Y023519*
X016697Y023520*
X016699Y023523*
X016702Y023527*
X016705Y023531*
X016708Y023536*
X016710Y023542*
X016712Y023549*
Y023550*
Y023552*
Y023554*
Y023556*
X016713Y023558*
Y023561*
Y023565*
X016714Y023569*
Y023573*
Y023578*
Y023583*
Y023590*
Y023597*
Y023604*
Y023641*
G37*
G36*
X016589Y025681D02*
X016586D01*
X016583*
X016578*
X016573Y025680*
X016567Y025679*
X016560*
X016553Y025677*
X016545Y025676*
X016537Y025674*
X016529Y025672*
X016521Y025669*
X016513Y025665*
X016505Y025661*
X016498Y025657*
X016491Y025652*
Y025651*
X016490Y025650*
X016489Y025649*
X016486Y025646*
X016484Y025643*
X016481Y025640*
X016478Y025636*
X016475Y025631*
X016472Y025626*
X016469Y025620*
X016466Y025614*
X016464Y025607*
X016461Y025600*
X016460Y025592*
X016459Y025584*
X016458Y025576*
Y025574*
X016459Y025572*
Y025568*
Y025565*
X016460Y025560*
X016461Y025555*
X016462Y025549*
X016464Y025544*
X016466Y025538*
X016469Y025531*
X016472Y025525*
X016476Y025519*
X016480Y025513*
X016485Y025507*
X016491Y025501*
X016493Y025500*
X016494Y025498*
X016497Y025497*
X016500Y025494*
X016505Y025492*
X016510Y025489*
X016516Y025486*
X016522Y025483*
X016530Y025481*
X016538Y025478*
X016546Y025476*
X016556Y025474*
X016566Y025473*
X016578Y025472*
X016590*
X016596*
X016600*
X016606*
X016612Y025473*
X016619Y025474*
X016626Y025475*
X016634Y025476*
X016642Y025478*
X016651Y025481*
X016658Y025483*
X016666Y025487*
X016673Y025491*
X016681Y025495*
X016687Y025500*
Y025501*
X016688*
X016690Y025503*
X016692Y025506*
X016694Y025508*
X016697Y025512*
X016700Y025516*
X016703Y025520*
X016706Y025526*
X016709Y025531*
X016712Y025538*
X016714Y025544*
X016717Y025551*
X016718Y025559*
X016719Y025567*
Y025576*
Y025578*
Y025581*
Y025584*
Y025588*
X016718Y025592*
X016717Y025598*
X016715Y025603*
X016714Y025609*
X016712Y025615*
X016709Y025622*
X016705Y025628*
X016702Y025634*
X016697Y025641*
X016692Y025647*
X016687Y025652*
X016686Y025653*
X016685Y025654*
X016683Y025655*
X016680Y025657*
X016677Y025659*
X016673Y025661*
X016668Y025664*
X016662Y025667*
X016656Y025669*
X016648Y025672*
X016641Y025674*
X016632Y025677*
X016622Y025679*
X016612Y025680*
X016601Y025681*
X016589*
G37*
G36*
X016714Y027547D02*
X016618D01*
Y027490*
Y027488*
Y027485*
Y027482*
Y027477*
X016619Y027472*
Y027467*
Y027461*
Y027449*
X016620Y027438*
X016621Y027433*
Y027429*
X016622Y027425*
X016623Y027422*
Y027421*
Y027419*
X016625Y027417*
X016626Y027414*
X016628Y027410*
X016631Y027407*
X016635Y027403*
X016639Y027400*
X016641Y027399*
X016643Y027398*
X016646Y027396*
X016651Y027395*
X016655Y027394*
X016661Y027393*
X016667Y027392*
X016671*
X016674Y027393*
X016678Y027394*
X016683Y027395*
X016688Y027397*
X016693Y027399*
X016698Y027403*
X016700Y027405*
X016702Y027407*
X016704Y027410*
X016707Y027414*
X016709Y027419*
X016711Y027425*
X016713Y027432*
Y027434*
Y027435*
Y027437*
X016714Y027439*
Y027442*
Y027445*
Y027449*
Y027454*
Y027459*
Y027465*
Y027471*
Y027479*
Y027487*
Y027547*
G37*
G36*
X016589Y027971D02*
X016586D01*
X016583*
X016578*
X016573Y027970*
X016567*
X016560Y027969*
X016553Y027968*
X016545Y027966*
X016537Y027964*
X016529Y027962*
X016521Y027959*
X016513Y027955*
X016505Y027952*
X016498Y027947*
X016491Y027942*
Y027941*
X016490*
X016489Y027939*
X016486Y027936*
X016484Y027934*
X016481Y027930*
X016478Y027926*
X016475Y027921*
X016472Y027916*
X016469Y027910*
X016466Y027904*
X016464Y027897*
X016461Y027891*
X016460Y027883*
X016459Y027875*
X016458Y027866*
Y027864*
X016459Y027862*
Y027859*
Y027855*
X016460Y027850*
X016461Y027845*
X016462Y027840*
X016464Y027834*
X016466Y027828*
X016469Y027822*
X016472Y027815*
X016476Y027809*
X016480Y027803*
X016485Y027797*
X016491Y027791*
X016493Y027790*
X016494Y027788*
X016497Y027787*
X016500Y027784*
X016505Y027782*
X016510Y027779*
X016516Y027777*
X016522Y027774*
X016530Y027771*
X016538Y027769*
X016546Y027766*
X016556Y027765*
X016566Y027763*
X016578Y027762*
X016590*
X016596*
X016600*
X016606Y027763*
X016612*
X016619Y027764*
X016626Y027765*
X016634Y027767*
X016642Y027769*
X016651Y027771*
X016658Y027774*
X016666Y027777*
X016673Y027781*
X016681Y027786*
X016687Y027790*
Y027791*
X016688Y027792*
X016690Y027793*
X016692Y027796*
X016694Y027799*
X016697Y027802*
X016700Y027806*
X016703Y027811*
X016706Y027816*
X016709Y027822*
X016712Y027828*
X016714Y027835*
X016717Y027842*
X016718Y027850*
X016719Y027858*
Y027866*
Y027867*
Y027868*
Y027871*
Y027874*
Y027878*
X016718Y027883*
X016717Y027888*
X016715Y027893*
X016714Y027900*
X016712Y027906*
X016709Y027912*
X016705Y027918*
X016702Y027925*
X016697Y027931*
X016692Y027937*
X016687Y027943*
X016686*
X016685Y027944*
X016683Y027945*
X016680Y027947*
X016677Y027949*
X016673Y027952*
X016668Y027954*
X016662Y027957*
X016656Y027959*
X016648Y027962*
X016641Y027965*
X016632Y027967*
X016622Y027969*
X016612Y027970*
X016601Y027971*
X016589*
G37*
G36*
X016027Y019557D02*
X016023D01*
X016021Y019556*
X016018*
X016014*
X016007Y019555*
X015998Y019553*
X015989Y019550*
X015980Y019546*
X015972Y019541*
X015971Y019540*
X015969Y019538*
X015966Y019535*
X015963Y019530*
X015959Y019524*
X015956Y019518*
X015954Y019511*
Y019507*
X015953Y019504*
Y019503*
X015954Y019500*
Y019497*
X015955Y019492*
X015957Y019486*
X015960Y019481*
X015964Y019475*
X015969Y019470*
X015970*
X015972Y019468*
X015976Y019466*
X015978Y019465*
X015981Y019463*
X015984Y019462*
X015988Y019461*
X015992Y019460*
X015997Y019458*
X016002*
X016008Y019457*
X016014Y019456*
X016024*
X016026Y019457*
X016029*
X016033*
X016041Y019458*
X016050Y019460*
X016059Y019463*
X016067Y019466*
X016071Y019469*
X016074Y019471*
X016075Y019472*
X016077Y019474*
X016080Y019477*
X016083Y019481*
X016086Y019486*
X016089Y019492*
X016091Y019499*
Y019507*
Y019508*
Y019511*
Y019515*
X016089Y019520*
X016087Y019525*
X016085Y019531*
X016080Y019537*
X016075Y019542*
X016074Y019543*
X016072Y019545*
X016068Y019547*
X016063Y019549*
X016056Y019552*
X016048Y019554*
X016038Y019556*
X016027Y019557*
G37*
G36*
X016565Y026050D02*
X016464D01*
Y025979*
Y025977*
Y025975*
Y025973*
Y025969*
Y025966*
Y025957*
Y025948*
X016465Y025939*
Y025936*
Y025932*
X016466Y025929*
Y025927*
Y025926*
X016467Y025924*
X016468Y025920*
X016469Y025917*
X016471Y025912*
X016474Y025908*
X016477Y025903*
X016481Y025899*
X016482Y025898*
X016483Y025897*
X016486Y025895*
X016490Y025893*
X016494Y025891*
X016500Y025889*
X016506Y025888*
X016513*
X016516*
X016519*
X016523Y025889*
X016528Y025890*
X016532Y025891*
X016537Y025893*
X016542Y025896*
Y025897*
X016544Y025898*
X016546Y025900*
X016548Y025902*
X016551Y025906*
X016554Y025910*
X016557Y025915*
X016559Y025920*
Y025921*
Y025922*
X016560Y025923*
Y025925*
X016561Y025928*
X016562Y025931*
Y025934*
Y025938*
X016563Y025943*
X016564Y025949*
Y025955*
Y025962*
Y025970*
X016565Y025979*
Y025988*
Y026050*
G37*
G36*
X016715D02*
X016628D01*
Y026000*
Y025999*
Y025998*
Y025995*
Y025993*
Y025989*
Y025985*
Y025976*
Y025966*
Y025957*
X016629Y025953*
Y025950*
Y025946*
Y025944*
Y025943*
X016630Y025941*
Y025937*
X016632Y025933*
X016633Y025928*
X016636Y025923*
X016639Y025918*
X016642Y025913*
X016643*
X016644Y025911*
X016647Y025909*
X016651Y025907*
X016655Y025905*
X016660Y025903*
X016666Y025902*
X016672*
X016675*
X016678*
X016682Y025903*
X016687Y025904*
X016692Y025906*
X016696Y025908*
X016701Y025911*
Y025912*
X016702Y025913*
X016704Y025916*
X016706Y025919*
X016709Y025923*
X016711Y025928*
X016712Y025934*
X016714Y025941*
Y025942*
Y025943*
Y025945*
Y025947*
Y025950*
Y025953*
Y025957*
X016715Y025961*
Y025967*
Y025973*
Y025979*
Y025987*
Y025996*
Y026006*
Y026050*
G37*
G36*
X016589Y026474D02*
X016586D01*
X016583*
X016578*
X016573Y026473*
X016567Y026472*
X016560*
X016553Y026470*
X016545Y026469*
X016537Y026467*
X016529Y026465*
X016521Y026462*
X016513Y026458*
X016505Y026454*
X016498Y026450*
X016491Y026444*
X016490Y026443*
X016489Y026442*
X016486Y026439*
X016484Y026436*
X016481Y026433*
X016478Y026428*
X016475Y026424*
X016472Y026419*
X016469Y026413*
X016466Y026407*
X016464Y026400*
X016461Y026393*
X016460Y026385*
X016459Y026377*
X016458Y026369*
Y026367*
X016459Y026364*
Y026361*
Y026358*
X016460Y026353*
X016461Y026348*
X016462Y026342*
X016464Y026337*
X016466Y026331*
X016469Y026324*
X016472Y026318*
X016476Y026312*
X016480Y026306*
X016485Y026300*
X016491Y026294*
X016493Y026293*
X016494Y026291*
X016497Y026289*
X016500Y026287*
X016505Y026285*
X016510Y026282*
X016516Y026279*
X016522Y026276*
X016530Y026274*
X016538Y026271*
X016546Y026269*
X016556Y026267*
X016566Y026266*
X016578Y026265*
X016590Y026264*
X016596*
X016600Y026265*
X016606*
X016612Y026266*
X016619Y026267*
X016626Y026268*
X016634Y026269*
X016642Y026271*
X016651Y026274*
X016658Y026276*
X016666Y026280*
X016673Y026284*
X016681Y026288*
X016687Y026293*
Y026294*
X016688*
X016690Y026296*
X016692Y026298*
X016694Y026301*
X016697Y026305*
X016700Y026309*
X016703Y026313*
X016706Y026319*
X016709Y026324*
X016712Y026330*
X016714Y026337*
X016717Y026344*
X016718Y026352*
X016719Y026360*
Y026369*
Y026371*
Y026374*
Y026377*
Y026381*
X016718Y026385*
X016717Y026391*
X016715Y026396*
X016714Y026402*
X016712Y026408*
X016709Y026415*
X016705Y026421*
X016702Y026427*
X016697Y026434*
X016692Y026440*
X016687Y026445*
X016686Y026446*
X016685*
X016683Y026448*
X016680Y026450*
X016677Y026452*
X016673Y026454*
X016668Y026457*
X016662Y026460*
X016656Y026462*
X016648Y026465*
X016641Y026467*
X016632Y026469*
X016622Y026472*
X016612Y026473*
X016601Y026474*
X016589*
G37*
G36*
X017098Y027649D02*
X017075D01*
X017070*
X017057*
X017050*
X017034Y027648*
X017019Y027647*
X017012Y027646*
X017005Y027645*
X017000Y027644*
X016994Y027643*
X016993Y027642*
X016992*
X016990*
X016986Y027640*
X016981Y027638*
X016975Y027636*
X016970Y027633*
X016965Y027630*
X016961Y027626*
X016960Y027624*
X016959Y027622*
X016957Y027619*
X016956Y027616*
X016955Y027612*
X016954Y027608*
X016953Y027603*
Y027602*
Y027601*
X016954Y027598*
X016955Y027595*
Y027591*
X016957Y027587*
X016959Y027583*
X016961Y027579*
X016962*
X016963Y027578*
X016965Y027576*
X016968Y027574*
X016973Y027571*
X016977Y027568*
X016984Y027566*
X016991Y027563*
X016992*
X016993*
X016994Y027562*
X016997*
X017000*
X017004Y027561*
X017008Y027560*
X017014Y027559*
X017020*
X017027Y027558*
X017034Y027557*
X017043*
X017053Y027556*
X017063*
X017074*
X017102*
X017109*
X017115*
X017123*
X017138Y027557*
X017153Y027558*
X017160Y027559*
X017167Y027560*
X017172Y027561*
X017178Y027562*
X017179Y027563*
X017180*
X017182Y027564*
X017186Y027565*
X017191Y027567*
X017197Y027569*
X017202Y027572*
X017207Y027576*
X017211Y027579*
Y027580*
X017212Y027581*
X017214Y027583*
X017215Y027586*
X017217Y027590*
X017218Y027594*
X017219Y027598*
Y027603*
Y027605*
Y027607*
X017218Y027610*
X017217Y027614*
X017216Y027618*
X017214Y027622*
X017211Y027626*
X017210*
X017209Y027628*
X017207Y027630*
X017204Y027632*
X017200Y027634*
X017195Y027637*
X017188Y027640*
X017181Y027642*
X017180*
X017178Y027643*
X017176*
X017172Y027644*
X017169*
X017164Y027645*
X017158Y027646*
X017152Y027647*
X017145*
X017137Y027648*
X017129*
X017120Y027649*
X017109*
X017098*
G37*
G36*
X016714Y020030D02*
X016464D01*
Y019973*
Y019972*
Y019971*
Y019970*
Y019967*
Y019965*
Y019962*
Y019955*
X016465Y019947*
Y019939*
X016466Y019932*
X016467Y019929*
Y019926*
X016468Y019925*
Y019923*
X016469Y019920*
X016471Y019916*
X016473Y019911*
X016476Y019905*
X016480Y019900*
X016483Y019896*
X016484Y019895*
X016485Y019893*
X016488Y019891*
X016492Y019889*
X016497Y019885*
X016503Y019882*
X016511Y019879*
X016520Y019875*
X016521*
X016522*
X016524Y019874*
X016527*
X016530Y019873*
X016534Y019872*
X016538Y019871*
X016543*
X016548Y019870*
X016553Y019869*
X016559*
X016566Y019868*
X016573*
X016581*
X016596*
X016600*
X016604*
X016609*
X016614*
X016625Y019870*
X016636Y019871*
X016647Y019873*
X016652Y019874*
X016656Y019875*
X016657*
Y019876*
X016659*
X016660Y019877*
X016664Y019879*
X016670Y019881*
X016676Y019884*
X016682Y019888*
X016687Y019892*
X016693Y019897*
Y019898*
X016695Y019900*
X016697Y019903*
X016700Y019907*
X016703Y019912*
X016706Y019918*
X016709Y019925*
X016711Y019933*
Y019934*
Y019936*
X016712Y019938*
Y019940*
Y019943*
X016713Y019947*
Y019950*
Y019955*
X016714Y019960*
Y019966*
Y019973*
Y019980*
Y019987*
Y019996*
Y020030*
G37*
G36*
X016550Y022416D02*
Y022312D01*
X016690Y022365*
X016550Y022416*
G37*
G36*
X016565Y021586D02*
X016464D01*
Y021515*
Y021514*
Y021511*
Y021509*
Y021506*
Y021502*
Y021493*
Y021484*
X016465Y021476*
Y021472*
Y021468*
X016466Y021465*
Y021463*
Y021462*
X016467Y021460*
X016468Y021457*
X016469Y021453*
X016471Y021449*
X016474Y021444*
X016477Y021439*
X016481Y021435*
X016482*
X016483Y021433*
X016486Y021431*
X016490Y021429*
X016494Y021428*
X016500Y021426*
X016506Y021424*
X016513*
X016516*
X016519*
X016523Y021425*
X016528Y021426*
X016532Y021428*
X016537Y021430*
X016542Y021433*
X016544Y021434*
X016546Y021436*
X016548Y021439*
X016551Y021442*
X016554Y021446*
X016557Y021451*
X016559Y021456*
Y021457*
Y021458*
X016560Y021460*
Y021462*
X016561Y021464*
X016562Y021467*
Y021471*
Y021475*
X016563Y021480*
X016564Y021485*
Y021492*
Y021499*
Y021506*
X016565Y021515*
Y021524*
Y021586*
G37*
G36*
X016715D02*
X016628D01*
Y021536*
Y021534*
Y021532*
Y021529*
Y021525*
Y021521*
Y021512*
Y021503*
Y021494*
X016629Y021490*
Y021486*
Y021483*
Y021480*
Y021479*
X016630Y021477*
Y021473*
X016632Y021469*
X016633Y021464*
X016636Y021459*
X016639Y021454*
X016642Y021449*
X016643*
X016644Y021448*
X016647Y021446*
X016651Y021444*
X016655Y021442*
X016660Y021440*
X016666Y021438*
X016672*
X016675*
X016678*
X016682Y021439*
X016687Y021440*
X016692Y021442*
X016696Y021444*
X016701Y021448*
X016702Y021449*
X016704Y021452*
X016706Y021455*
X016709Y021459*
X016711Y021464*
X016712Y021470*
X016714Y021477*
Y021478*
Y021479*
Y021481*
Y021483*
Y021486*
Y021489*
Y021493*
X016715Y021498*
Y021503*
Y021509*
Y021516*
Y021524*
Y021532*
Y021542*
Y021586*
G37*
G36*
X016714Y020411D02*
X016618D01*
Y020355*
Y020354*
Y020352*
Y020349*
Y020346*
Y020342*
X016619Y020337*
Y020331*
Y020326*
Y020314*
X016620Y020303*
X016621Y020298*
Y020293*
X016622Y020289*
X016623Y020286*
Y020285*
Y020284*
X016625Y020281*
X016626Y020278*
X016628Y020275*
X016631Y020271*
X016635Y020268*
X016639Y020265*
Y020264*
X016641Y020263*
X016643Y020262*
X016646Y020260*
X016651Y020259*
X016655Y020258*
X016661Y020257*
X016667*
X016671*
X016674*
X016678Y020258*
X016683Y020259*
X016688Y020261*
X016693Y020264*
X016698Y020267*
X016700Y020269*
X016702Y020271*
X016704Y020274*
X016707Y020278*
X016709Y020283*
X016711Y020290*
X016713Y020296*
Y020298*
Y020300*
Y020301*
X016714Y020303*
Y020306*
Y020310*
Y020314*
Y020318*
Y020324*
Y020329*
Y020336*
Y020344*
Y020352*
Y020411*
G37*
G36*
X016550Y020772D02*
Y020668D01*
X016690Y020721*
X016550Y020772*
G37*
G36*
X016589Y021217D02*
X016586D01*
X016583*
X016578*
X016573*
X016567Y021216*
X016560Y021215*
X016553Y021214*
X016545Y021212*
X016537Y021210*
X016529Y021208*
X016521Y021205*
X016513Y021201*
X016505Y021198*
X016498Y021193*
X016491Y021188*
Y021187*
X016490*
X016489Y021185*
X016486Y021182*
X016484Y021180*
X016481Y021176*
X016478Y021172*
X016475Y021167*
X016472Y021162*
X016469Y021156*
X016466Y021150*
X016464Y021144*
X016461Y021137*
X016460Y021129*
X016459Y021121*
X016458Y021112*
Y021110*
X016459Y021108*
Y021105*
Y021101*
X016460Y021096*
X016461Y021091*
X016462Y021086*
X016464Y021080*
X016466Y021074*
X016469Y021068*
X016472Y021062*
X016476Y021055*
X016480Y021049*
X016485Y021043*
X016491Y021037*
X016493Y021036*
X016494Y021034*
X016497Y021033*
X016500Y021030*
X016505Y021028*
X016510Y021025*
X016516Y021023*
X016522Y021020*
X016530Y021017*
X016538Y021015*
X016546Y021012*
X016556Y021011*
X016566Y021009*
X016578Y021008*
X016590*
X016596*
X016600*
X016606Y021009*
X016612*
X016619Y021010*
X016626Y021012*
X016634Y021013*
X016642Y021015*
X016651Y021017*
X016658Y021020*
X016666Y021023*
X016673Y021027*
X016681Y021032*
X016687Y021037*
X016688Y021038*
X016690Y021039*
X016692Y021042*
X016694Y021045*
X016697Y021048*
X016700Y021052*
X016703Y021057*
X016706Y021062*
X016709Y021068*
X016712Y021074*
X016714Y021081*
X016717Y021088*
X016718Y021096*
X016719Y021104*
Y021112*
Y021113*
Y021114*
Y021117*
Y021120*
Y021124*
X016718Y021129*
X016717Y021134*
X016715Y021139*
X016714Y021146*
X016712Y021152*
X016709Y021158*
X016705Y021164*
X016702Y021171*
X016697Y021177*
X016692Y021183*
X016687Y021189*
X016686*
X016685Y021190*
X016683Y021191*
X016680Y021193*
X016677Y021195*
X016673Y021198*
X016668Y021200*
X016662Y021203*
X016656Y021205*
X016648Y021208*
X016641Y021211*
X016632Y021213*
X016622Y021215*
X016612Y021216*
X016601Y021217*
X016589*
G37*
G36*
X016214Y024714D02*
X015964D01*
Y024657*
Y024656*
Y024654*
Y024652*
Y024649*
Y024646*
Y024640*
X015965Y024632*
Y024624*
X015966Y024617*
X015967Y024614*
Y024611*
X015968Y024610*
Y024608*
X015969Y024604*
X015971Y024600*
X015973Y024595*
X015976Y024590*
X015980Y024585*
X015983Y024580*
X015984*
X015985Y024578*
X015988Y024576*
X015992Y024573*
X015997Y024570*
X016003Y024567*
X016011Y024563*
X016020Y024560*
X016021*
X016022Y024559*
X016024*
X016027Y024558*
X016030*
X016034Y024557*
X016038Y024556*
X016043*
X016048Y024555*
X016053Y024554*
X016059*
X016066Y024553*
X016073*
X016081Y024552*
X016096*
X016100Y024553*
X016104*
X016109*
X016114*
X016125Y024554*
X016136Y024556*
X016147Y024558*
X016152Y024559*
X016156Y024560*
X016157*
X016159Y024561*
X016160*
X016164Y024563*
X016170Y024566*
X016176Y024569*
X016182Y024572*
X016187Y024577*
X016193Y024582*
Y024583*
X016195Y024584*
X016197Y024588*
X016200Y024592*
X016203Y024597*
X016206Y024603*
X016209Y024610*
X016211Y024617*
Y024618*
Y024619*
Y024621*
X016212Y024622*
Y024625*
Y024628*
X016213Y024631*
Y024635*
Y024640*
X016214Y024645*
Y024651*
Y024657*
Y024664*
Y024672*
Y024680*
Y024714*
G37*
G36*
X016050Y025075D02*
Y024971D01*
X016190Y025024*
X016050Y025075*
G37*
G36*
Y023959D02*
Y023855D01*
X016190Y023908*
X016050Y023959*
G37*
G36*
Y022873D02*
Y022769D01*
X016190Y022822*
X016050Y022873*
G37*
G36*
X016214Y026917D02*
X016118D01*
Y026860*
Y026859*
Y026858*
Y026855*
Y026852*
Y026847*
X016119Y026842*
Y026837*
Y026831*
Y026819*
X016120Y026808*
X016121Y026803*
Y026799*
X016122Y026795*
X016123Y026792*
Y026791*
Y026789*
X016125Y026787*
X016126Y026784*
X016128Y026780*
X016131Y026777*
X016135Y026773*
X016139Y026770*
X016141Y026769*
X016143Y026768*
X016146Y026766*
X016151Y026765*
X016155Y026763*
X016161*
X016167Y026762*
X016171*
X016174Y026763*
X016178*
X016183Y026765*
X016188Y026767*
X016193Y026769*
X016198Y026772*
Y026773*
X016200Y026774*
X016202Y026777*
X016204Y026780*
X016207Y026784*
X016209Y026789*
X016211Y026795*
X016213Y026802*
Y026804*
Y026805*
Y026807*
X016214Y026809*
Y026812*
Y026815*
Y026819*
Y026824*
Y026829*
Y026835*
Y026841*
Y026849*
Y026857*
Y026917*
G37*
G36*
Y026124D02*
X016107D01*
Y026082*
Y026080*
Y026078*
Y026075*
Y026071*
Y026067*
Y026057*
X016108Y026048*
X016109Y026038*
X016110Y026033*
Y026029*
X016112Y026025*
Y026022*
X016113Y026021*
X016114Y026019*
X016115Y026016*
X016117Y026013*
X016120Y026009*
X016123Y026005*
X016127Y026001*
X016131Y025998*
X016132*
X016134Y025997*
X016136Y025995*
X016140Y025993*
X016144Y025992*
X016149Y025990*
X016155Y025989*
X016161*
X016164*
X016168Y025990*
X016173Y025991*
X016178Y025992*
X016184Y025994*
X016189Y025997*
X016195Y026001*
Y026002*
X016197Y026003*
X016199Y026006*
X016202Y026010*
X016205Y026014*
X016207Y026019*
X016210Y026025*
X016212Y026032*
Y026033*
Y026035*
Y026036*
Y026039*
X016213Y026041*
Y026044*
Y026048*
X016214Y026052*
Y026056*
Y026061*
Y026066*
Y026073*
Y026080*
Y026087*
Y026124*
G37*
G36*
X016089Y026548D02*
X016086D01*
X016083*
X016078*
X016073Y026547*
X016067*
X016060Y026546*
X016053Y026544*
X016045Y026543*
X016037Y026541*
X016029Y026539*
X016021Y026536*
X016013Y026532*
X016005Y026528*
X015998Y026524*
X015991Y026519*
Y026518*
X015990Y026517*
X015989Y026516*
X015986Y026513*
X015984Y026510*
X015981Y026507*
X015978Y026503*
X015975Y026498*
X015972Y026493*
X015969Y026487*
X015966Y026481*
X015964Y026474*
X015962Y026467*
X015960Y026460*
X015959Y026451*
X015958Y026443*
Y026441*
X015959Y026439*
Y026435*
Y026432*
X015960Y026427*
X015961Y026422*
X015962Y026417*
X015964Y026411*
X015966Y026405*
X015969Y026399*
X015972Y026392*
X015976Y026386*
X015980Y026380*
X015985Y026374*
X015991Y026368*
X015993Y026367*
X015994Y026365*
X015997Y026364*
X016000Y026361*
X016005Y026359*
X016010Y026356*
X016016Y026353*
X016022Y026351*
X016030Y026348*
X016038Y026346*
X016046Y026343*
X016056Y026342*
X016066Y026340*
X016078Y026339*
X016090*
X016096*
X016100*
X016106*
X016112Y026340*
X016119Y026341*
X016126Y026342*
X016134Y026344*
X016142Y026346*
X016151Y026348*
X016158Y026351*
X016166Y026354*
X016173Y026358*
X016181Y026362*
X016187Y026367*
Y026368*
X016188Y026369*
X016190Y026370*
X016192Y026373*
X016194Y026376*
X016197Y026379*
X016200Y026383*
X016203Y026387*
X016206Y026393*
X016209Y026399*
X016212Y026405*
X016214Y026412*
X016217Y026419*
X016218Y026426*
X016219Y026435*
Y026443*
Y026444*
Y026445*
Y026448*
Y026451*
Y026455*
X016218Y026460*
X016217Y026465*
X016215Y026470*
X016214Y026476*
X016212Y026483*
X016209Y026489*
X016205Y026495*
X016202Y026501*
X016197Y026508*
X016192Y026514*
X016187Y026519*
X016186Y026520*
X016185Y026521*
X016183Y026522*
X016180Y026524*
X016177Y026526*
X016173Y026528*
X016168Y026531*
X016162Y026534*
X016156Y026536*
X016148Y026539*
X016141Y026542*
X016132Y026544*
X016122Y026546*
X016112Y026547*
X016101Y026548*
X016089*
G37*
G36*
X016098Y020151D02*
X016075D01*
X016070Y020150*
X016057*
X016050*
X016034Y020149*
X016019Y020148*
X016012Y020147*
X016005Y020146*
X016000Y020145*
X015994Y020144*
X015993*
X015992Y020143*
X015990*
X015986Y020142*
X015981Y020139*
X015975Y020137*
X015970Y020134*
X015965Y020131*
X015962Y020127*
X015961*
X015960Y020126*
X015959Y020123*
X015957Y020120*
X015956Y020117*
X015955Y020113*
X015954Y020109*
X015953Y020104*
Y020103*
Y020102*
X015954Y020099*
X015955Y020096*
Y020092*
X015957Y020088*
X015959Y020085*
X015962Y020080*
X015963Y020079*
X015965Y020077*
X015968Y020075*
X015973Y020072*
X015977Y020069*
X015984Y020067*
X015991Y020064*
X015992*
X015993*
X015994*
X015997Y020063*
X016000*
X016004Y020062*
X016008Y020061*
X016014Y020060*
X016020*
X016027Y020059*
X016034Y020058*
X016043*
X016053Y020057*
X016063*
X016074*
X016102*
X016109*
X016115*
X016123*
X016138Y020058*
X016153Y020060*
X016160*
X016166Y020061*
X016172Y020062*
X016178Y020064*
X016179*
X016180*
X016182Y020065*
X016186Y020066*
X016191Y020068*
X016197Y020071*
X016202Y020073*
X016207Y020077*
X016211Y020080*
Y020081*
X016212Y020082*
X016214Y020085*
X016215Y020087*
X016217Y020091*
X016218Y020095*
X016219Y020099*
Y020104*
Y020106*
Y020108*
X016218Y020112*
X016217Y020115*
X016216Y020119*
X016214Y020123*
X016211Y020127*
X016210Y020128*
X016209Y020129*
X016207Y020131*
X016204Y020133*
X016200Y020135*
X016195Y020138*
X016188Y020141*
X016181Y020143*
X016180*
Y020144*
X016178*
X016176*
X016172Y020145*
X016169Y020146*
X016164*
X016158Y020147*
X016152Y020148*
X016145*
X016137Y020149*
X016129*
X016120Y020150*
X016109*
X016098Y020151*
G37*
%LNpeggy-optical-board-3*%
%LPD*%
G54D18*
X013097Y013997D02*
X014897D01*
X013317Y012441D02*
X014687D01*
G54D19*
X011470Y025230D02*
Y025830D01*
X011770*
X011870Y025730*
Y025530*
X011770Y025430*
X011470*
X011670D02*
X011870Y025230D01*
X012470Y025830D02*
X012070D01*
Y025530*
X012270Y025630*
X012370*
X012470Y025530*
Y025330*
X012370Y025230*
X012170*
X012070Y025330*
X011270Y017630D02*
Y018230D01*
X011570*
X011670Y018130*
Y017930*
X011570Y017830*
X011270*
X011470D02*
X011670Y017630D01*
X012270Y018230D02*
X012070Y018130D01*
X011870Y017930*
Y017730*
X011970Y017630*
X012170*
X012270Y017730*
Y017830*
X012170Y017930*
X011870*
X015260Y028670D02*
Y029270D01*
X015560*
X015660Y029170*
Y028970*
X015560Y028870*
X015260*
X015460D02*
X015660Y028670D01*
X016160D02*
Y029270D01*
X015860Y028970*
X016260*
X011400Y015550D02*
Y016150D01*
X011700*
X011800Y016050*
Y015850*
X011700Y015750*
X011400*
X011600D02*
X011800Y015550D01*
X012000Y016050D02*
X012100Y016150D01*
X012300*
X012400Y016050*
Y015950*
X012300Y015850*
X012200*
X012300*
X012400Y015750*
Y015650*
X012300Y015550*
X012100*
X012000Y015650*
X011400Y021370D02*
Y021970D01*
X011700*
X011800Y021870*
Y021670*
X011700Y021570*
X011400*
X011600D02*
X011800Y021370D01*
X012400D02*
X012000D01*
X012400Y021770*
Y021870*
X012300Y021970*
X012100*
X012000Y021870*
X011600Y028520D02*
Y029120D01*
X011900*
X012000Y029020*
Y028820*
X011900Y028720*
X011600*
X011800D02*
X012000Y028520D01*
X012200D02*
X012400D01*
X012300*
Y029120*
X012200Y029020*
X014000Y012120D02*
X013800D01*
X013900*
Y011620*
X013800Y011520*
X013700*
X013600Y011620*
X014200Y011520D02*
X014400D01*
X014300*
Y012120*
X014200Y012020*
M02*